<?xml version="1.0" encoding="utf-8"?>
<!-- Generator: Adobe Illustrator 16.0.0, SVG Export Plug-In . SVG Version: 6.00 Build 0)  -->
<!DOCTYPE svg PUBLIC "-//W3C//DTD SVG 1.1//EN" "http://www.w3.org/Graphics/SVG/1.1/DTD/svg11.dtd" [
	<!ENTITY ns_extend "http://ns.adobe.com/Extensibility/1.0/">
	<!ENTITY ns_ai "http://ns.adobe.com/AdobeIllustrator/10.0/">
	<!ENTITY ns_graphs "http://ns.adobe.com/Graphs/1.0/">
	<!ENTITY ns_vars "http://ns.adobe.com/Variables/1.0/">
	<!ENTITY ns_imrep "http://ns.adobe.com/ImageReplacement/1.0/">
	<!ENTITY ns_sfw "http://ns.adobe.com/SaveForWeb/1.0/">
	<!ENTITY ns_custom "http://ns.adobe.com/GenericCustomNamespace/1.0/">
	<!ENTITY ns_adobe_xpath "http://ns.adobe.com/XPath/1.0/">
]>
<svg version="1.1" id="Layer_1" xmlns:x="&ns_extend;" xmlns:i="&ns_ai;" xmlns:graph="&ns_graphs;"
	 xmlns="http://www.w3.org/2000/svg" xmlns:xlink="http://www.w3.org/1999/xlink" x="0px" y="0px" width="280px" height="100px"
	 viewBox="0 0 280 100" enable-background="new 0 0 280 100" xml:space="preserve">
<metadata>
	<sfw  xmlns="&ns_sfw;">
		<slices></slices>
		<sliceSourceBounds  height="96" width="276.601" y="-1059" x="2964" bottomLeftOrigin="true"></sliceSourceBounds>
	</sfw>
</metadata>
<g>
</g>
<g>
	<g>
		<path fill="#36B5B2" d="M129.631,33.911c-0.162,3.897-1.449,6.968-3.863,9.21s-5.601,3.363-9.559,3.363
			c-4.282,0-7.65-1.52-10.104-4.56s-3.681-7.327-3.681-12.861v-1.484c0-5.332,1.242-9.559,3.727-12.68s5.807-4.681,9.968-4.681
			c3.958,0,7.12,1.121,9.483,3.364s3.727,5.394,4.09,9.451h-8.604c0-3.837-1.656-5.757-4.969-5.757
			c-1.737,0-3.015,0.812-3.833,2.435c-0.818,1.622-1.237,4.137-1.257,7.545v1.916c0,3.752,0.398,6.399,1.196,7.94
			s2.126,2.313,3.984,2.313c1.636,0,2.848-0.439,3.636-1.318s1.191-2.277,1.212-4.196H129.631z"/>
		<path fill="#36B5B2" d="M148.932,23.45l-2.62-0.224c-2.156,0-3.614,0.948-4.376,2.844V46h-7.917V15.841h7.442l0.224,3.261
			c1.244-2.546,2.964-3.818,5.156-3.818c0.892,0,1.617,0.121,2.174,0.362L148.932,23.45z"/>
		<path fill="#36B5B2" d="M152.974,8.036c0-1.227,0.391-2.23,1.171-3.011s1.82-1.171,3.122-1.171c1.3,0,2.341,0.391,3.121,1.171
			c0.781,0.78,1.171,1.784,1.171,3.011c0,1.208-0.386,2.211-1.156,3.01c-0.771,0.8-1.817,1.199-3.136,1.199
			c-1.32,0-2.365-0.399-3.137-1.199C153.359,10.247,152.974,9.244,152.974,8.036z M161.252,46h-7.916V15.841h7.916V46z"/>
		<path fill="#36B5B2" d="M176.527,8.426v7.415h4.041v5.909h-4.041v14.991c0,1.191,0.162,2.01,0.487,2.457
			c0.325,0.446,0.952,0.67,1.882,0.67c0.762,0,1.384-0.065,1.867-0.195l-0.056,6.132c-1.338,0.502-2.787,0.753-4.349,0.753
			c-5.092,0-7.665-2.921-7.721-8.763V21.75h-3.484v-5.909h3.484V8.426H176.527z"/>
		<path fill="#36B5B2" d="M184.889,8.036c0-1.227,0.391-2.23,1.171-3.011s1.82-1.171,3.122-1.171c1.3,0,2.341,0.391,3.121,1.171
			c0.781,0.78,1.171,1.784,1.171,3.011c0,1.208-0.386,2.211-1.156,3.01c-0.771,0.8-1.817,1.199-3.136,1.199
			c-1.32,0-2.365-0.399-3.137-1.199C185.274,10.247,184.889,9.244,184.889,8.036z M193.167,46h-7.916V15.841h7.916V46z"/>
		<path fill="#36B5B2" d="M198.212,29.944c0-4.942,0.827-8.622,2.481-11.038c1.653-2.415,4.106-3.623,7.358-3.623
			c2.639,0,4.738,1.189,6.3,3.567l0.501-3.01h6.885v41.755h-7.916V43.658c-1.468,1.934-3.4,2.899-5.798,2.899
			c-3.178,0-5.598-1.23-7.261-3.693c-1.663-2.462-2.514-6.007-2.551-10.634V29.944z M206.128,31.93c0,2.936,0.316,5.025,0.948,6.269
			s1.709,1.864,3.233,1.864c1.598,0,2.769-0.626,3.512-1.879V23.74c-0.743-1.308-1.904-1.963-3.484-1.963
			c-1.505,0-2.578,0.608-3.219,1.823c-0.642,1.215-0.972,3.244-0.99,6.086V31.93z"/>
		<path fill="#36B5B2" d="M242.477,43.24c-1.636,2.212-3.828,3.317-6.578,3.317c-2.77,0-4.869-0.952-6.3-2.857
			c-1.432-1.904-2.146-4.678-2.146-8.32V15.841h7.889v19.734c0.037,2.937,1.013,4.404,2.927,4.404c1.802,0,3.103-0.78,3.902-2.342
			V15.841h7.943V46h-7.414L242.477,43.24z"/>
		<path fill="#36B5B2" d="M267.925,46.558c-4.051,0-7.21-1.208-9.477-3.624c-2.268-2.415-3.401-5.871-3.401-10.369v-2.396
			c0-4.757,1.041-8.428,3.122-11.011c2.081-2.582,5.063-3.874,8.947-3.874c3.791,0,6.644,1.211,8.558,3.632
			c1.914,2.422,2.89,6.007,2.927,10.757v3.868h-15.693c0.112,2.26,0.604,3.911,1.478,4.956s2.221,1.566,4.042,1.566
			c2.639,0,4.841-0.92,6.606-2.759l3.094,4.766c-0.967,1.339-2.369,2.421-4.209,3.248C272.078,46.144,270.08,46.558,267.925,46.558z
			 M262.964,28.049h7.888v-0.73c-0.037-1.819-0.334-3.197-0.892-4.135c-0.558-0.937-1.524-1.406-2.899-1.406
			s-2.374,0.497-2.996,1.491C263.441,24.263,263.075,25.855,262.964,28.049z"/>
		<path fill="#EB743B" d="M103.302,92V56.703H115.3c4.121,0,7.267,0.833,9.438,2.5c2.172,1.666,3.258,4.085,3.258,7.256
			c0,1.798-0.395,3.363-1.182,4.696c-0.788,1.333-1.95,2.313-3.484,2.938c1.655,0.485,2.938,1.409,3.848,2.772
			s1.363,3.035,1.363,5.015c0,3.515-1.021,6.08-3.061,7.695c-2.04,1.616-5.11,2.424-9.21,2.424H103.302z M111.876,71.367h4.121
			c2.282-0.061,3.424-1.272,3.424-3.636c0-1.394-0.283-2.389-0.849-2.984s-1.435-0.894-2.605-0.894h-4.091V71.367z M111.876,77.336
			v7.604h4.394c1.191,0,2.105-0.324,2.742-0.973c0.636-0.649,0.954-1.541,0.954-2.678c0-2.555-1.03-3.873-3.091-3.954H111.876z"/>
		<path fill="#EB743B" d="M148.659,69.45l-2.62-0.224c-2.156,0-3.614,0.948-4.376,2.844V92h-7.917V61.841h7.442l0.224,3.261
			c1.244-2.546,2.964-3.818,5.156-3.818c0.892,0,1.617,0.121,2.174,0.362L148.659,69.45z"/>
		<path fill="#EB743B" d="M166.191,92c-0.223-0.464-0.446-1.245-0.669-2.342c-1.412,1.934-3.326,2.899-5.742,2.899
			c-2.527,0-4.623-0.836-6.285-2.509c-1.664-1.673-2.495-3.837-2.495-6.494c0-3.159,1.008-5.604,3.024-7.331
			c2.016-1.729,4.92-2.61,8.711-2.648h2.396V71.15c0-1.356-0.232-2.313-0.696-2.871c-0.465-0.558-1.144-0.836-2.035-0.836
			c-1.97,0-2.954,1.152-2.954,3.456h-7.889c0-2.787,1.045-5.087,3.136-6.898c2.091-1.813,4.733-2.718,7.93-2.718
			c3.308,0,5.868,0.859,7.68,2.578s2.718,4.177,2.718,7.373v14.188c0.037,2.602,0.408,4.637,1.115,6.104V92H166.191z
			 M161.536,86.369c0.873,0,1.617-0.176,2.23-0.529c0.613-0.353,1.068-0.771,1.365-1.254v-6.272h-1.896
			c-1.338,0-2.393,0.428-3.163,1.282c-0.771,0.855-1.157,1.998-1.157,3.429C158.916,85.255,159.789,86.369,161.536,86.369z"/>
		<path fill="#EB743B" d="M178.735,54.036c0-1.227,0.391-2.23,1.171-3.011s1.82-1.171,3.122-1.171c1.3,0,2.341,0.391,3.121,1.171
			c0.781,0.78,1.171,1.784,1.171,3.011c0,1.208-0.386,2.211-1.156,3.01c-0.771,0.8-1.817,1.199-3.136,1.199
			c-1.32,0-2.365-0.399-3.137-1.199C179.121,56.247,178.735,55.244,178.735,54.036z M187.014,92h-7.916V61.841h7.916V92z"/>
		<path fill="#EB743B" d="M200.338,61.841l0.223,2.982c1.784-2.36,4.115-3.54,6.996-3.54c5.185,0,7.851,3.633,8,10.898V92h-7.916
			V72.767c0-1.709-0.256-2.949-0.767-3.721c-0.512-0.771-1.408-1.157-2.69-1.157c-1.431,0-2.546,0.734-3.345,2.202V92h-7.916V61.841
			H200.338z"/>
		<path fill="#EB743B" d="M229.939,85.506h11.93V92h-21.296v-4.892l11.651-18.689h-11.372v-6.578h20.85v4.766L229.939,85.506z"/>
	</g>
	<g>
		<polygon fill="#EB743B" points="46,2 46,98 87,74 87,26 		"/>
		<polygon fill="#36B5B2" points="43,2 2,26 2,74 43,98 		"/>
		<path fill="#FFFEDB" d="M78.281,58.087c-1.239-1.97-3.38-3.148-5.718-3.148c-0.666,0-1.324,0.103-1.956,0.295
			c-2.632-3.125-5.819-4.775-8.603-5.636c2.235-1.714,4.208-3.771,5.909-6.153c1.74,0.394,3.63,0.127,5.162-0.832
			c3.158-2.006,4.103-6.197,2.104-9.348c-1.249-1.975-3.39-3.152-5.724-3.152c-1.283,0-2.533,0.363-3.616,1.05
			c-3.146,1.991-4.093,6.181-2.105,9.336c0.13,0.207,0.271,0.404,0.422,0.596c-2.514,3.442-5.708,6.056-9.519,7.785l-0.014,0.004
			C51.093,50.487,49,51,46,51v5c4,0,5.931-1.125,10.016-2.898c1.366-0.023,6.962,0.185,10.991,4.747
			c-1.507,2.164-1.655,5.108-0.16,7.471c1.241,1.97,3.382,3.15,5.721,3.15c1.278,0,2.524-0.36,3.607-1.044
			c1.538-0.975,2.599-2.482,2.995-4.252C79.566,61.413,79.248,59.606,78.281,58.087z M68.061,34.67
			c0.423-0.266,0.901-0.405,1.396-0.405c0.903,0,1.731,0.456,2.219,1.224c0.771,1.214,0.403,2.836-0.818,3.61
			c-0.41,0.261-0.896,0.398-1.387,0.398c-0.493,0-0.974-0.134-1.39-0.391c-0.343-0.213-0.625-0.489-0.832-0.817
			C66.478,37.064,66.842,35.443,68.061,34.67z M75.119,62.27c-0.154,0.687-0.564,1.27-1.161,1.645
			c-0.413,0.264-0.896,0.406-1.391,0.406c-0.906,0-1.731-0.457-2.21-1.218c-0.745-1.18-0.441-2.727,0.691-3.528l0.117-0.078
			c1.208-0.766,2.866-0.367,3.608,0.808C75.151,60.896,75.271,61.591,75.119,62.27z"/>
		<g>
			<polygon fill="#65D9D7" points="13.044,31.143 12.107,57.944 18.109,64.854 18.286,64.861 17.683,73.335 34.034,65.509 
				43,65.876 43,26.086 19.953,25.141 			"/>
		</g>
		<g>
			<path fill="#FFFEDB" d="M23.375,52.469c-0.04,1.419,1.334,2.626,2.426,2.681L43,56v-5l-17.05-0.843
				C24.816,50.075,23.418,51.052,23.375,52.469z"/>
			<path fill="#FFFEDB" d="M23.375,40.146c-0.04,1.419,1.334,2.626,2.426,2.681L43,43.677v-5l-17.05-0.843
				C24.816,37.752,23.418,38.729,23.375,40.146z"/>
		</g>
	</g>
</g>
</svg>
