<?xml version="1.0" encoding="utf-8"?>
<!-- Generator: Adobe Illustrator 16.0.0, SVG Export Plug-In . SVG Version: 6.00 Build 0)  -->
<!DOCTYPE svg PUBLIC "-//W3C//DTD SVG 1.1//EN" "http://www.w3.org/Graphics/SVG/1.1/DTD/svg11.dtd" [
	<!ENTITY ns_extend "http://ns.adobe.com/Extensibility/1.0/">
	<!ENTITY ns_ai "http://ns.adobe.com/AdobeIllustrator/10.0/">
	<!ENTITY ns_graphs "http://ns.adobe.com/Graphs/1.0/">
	<!ENTITY ns_vars "http://ns.adobe.com/Variables/1.0/">
	<!ENTITY ns_imrep "http://ns.adobe.com/ImageReplacement/1.0/">
	<!ENTITY ns_sfw "http://ns.adobe.com/SaveForWeb/1.0/">
	<!ENTITY ns_custom "http://ns.adobe.com/GenericCustomNamespace/1.0/">
	<!ENTITY ns_adobe_xpath "http://ns.adobe.com/XPath/1.0/">
]>
<svg version="1.1" id="Layer_1" xmlns:x="&ns_extend;" xmlns:i="&ns_ai;" xmlns:graph="&ns_graphs;"
	 xmlns="http://www.w3.org/2000/svg" xmlns:xlink="http://www.w3.org/1999/xlink" x="0px" y="0px" width="500px" height="100px"
	 viewBox="0 0 500 100" enable-background="new 0 0 500 100" xml:space="preserve">
<metadata>
	<sfw  xmlns="&ns_sfw;">
		<slices></slices>
		<sliceSourceBounds  height="96" width="495.374" y="-1358" x="2964" bottomLeftOrigin="true"></sliceSourceBounds>
	</sfw>
</metadata>
<g>
</g>
<g>
	<g>
		<path fill="#36B5B2" d="M136.131,56.822c-0.201,4.836-1.799,8.646-4.794,11.429s-6.949,4.174-11.861,4.174
			c-5.314,0-9.493-1.886-12.539-5.658c-3.045-3.772-4.568-9.092-4.568-15.96v-1.843c0-6.617,1.542-11.861,4.625-15.734
			c3.083-3.872,7.206-5.809,12.369-5.809c4.912,0,8.836,1.392,11.769,4.175s4.624,6.693,5.075,11.729h-10.678
			c0-4.762-2.056-7.144-6.166-7.144c-2.155,0-3.74,1.007-4.756,3.021c-1.015,2.014-1.535,5.135-1.561,9.363v2.378
			c0,4.656,0.495,7.94,1.485,9.854c0.99,1.912,2.638,2.869,4.944,2.869c2.03,0,3.534-0.546,4.512-1.636
			c0.978-1.091,1.479-2.826,1.504-5.207H136.131z"/>
		<path fill="#36B5B2" d="M160.082,43.841l-3.251-0.277c-2.676,0-4.485,1.176-5.431,3.528v24.731h-9.823V34.397h9.235l0.276,4.047
			c1.545-3.159,3.678-4.738,6.399-4.738c1.106,0,2.006,0.149,2.698,0.449L160.082,43.841z"/>
		<path fill="#36B5B2" d="M165.097,24.713c0-1.522,0.484-2.768,1.453-3.736s2.26-1.452,3.874-1.452c1.613,0,2.905,0.483,3.874,1.452
			s1.452,2.214,1.452,3.736c0,1.499-0.479,2.744-1.435,3.735c-0.958,0.991-2.255,1.487-3.892,1.487
			c-1.638,0-2.935-0.496-3.892-1.487S165.097,26.212,165.097,24.713z M175.37,71.823h-9.823V34.397h9.823V71.823z"/>
		<path fill="#36B5B2" d="M194.325,25.196v9.201h5.016v7.333h-5.016v18.604c0,1.478,0.202,2.494,0.605,3.049
			c0.403,0.554,1.182,0.831,2.335,0.831c0.945,0,1.718-0.081,2.317-0.242l-0.069,7.609c-1.66,0.623-3.459,0.934-5.396,0.934
			c-6.318,0-9.513-3.624-9.581-10.873V41.73h-4.324v-7.333h4.324v-9.201H194.325z"/>
		<path fill="#36B5B2" d="M204.702,24.713c0-1.522,0.484-2.768,1.453-3.736s2.26-1.452,3.874-1.452c1.613,0,2.905,0.483,3.874,1.452
			s1.452,2.214,1.452,3.736c0,1.499-0.479,2.744-1.435,3.735c-0.958,0.991-2.255,1.487-3.892,1.487
			c-1.638,0-2.935-0.496-3.892-1.487S204.702,26.212,204.702,24.713z M214.976,71.823h-9.823V34.397h9.823V71.823z"/>
		<path fill="#36B5B2" d="M221.235,51.899c0-6.134,1.026-10.699,3.079-13.697c2.052-2.997,5.096-4.496,9.131-4.496
			c3.274,0,5.881,1.476,7.817,4.427l0.623-3.735h8.543v51.815h-9.823V68.918c-1.821,2.398-4.22,3.597-7.194,3.597
			c-3.943,0-6.947-1.527-9.011-4.583c-2.063-3.055-3.119-7.454-3.165-13.195V51.899z M231.059,54.363
			c0,3.643,0.393,6.235,1.177,7.778c0.783,1.543,2.121,2.314,4.012,2.314c1.983,0,3.437-0.777,4.358-2.332V44.201
			c-0.922-1.624-2.363-2.437-4.323-2.437c-1.868,0-3.2,0.755-3.995,2.263c-0.796,1.508-1.205,4.025-1.229,7.552V54.363z"/>
		<path fill="#36B5B2" d="M276.163,68.398c-2.029,2.745-4.75,4.116-8.163,4.116c-3.436,0-6.041-1.181-7.816-3.545
			c-1.776-2.363-2.664-5.806-2.664-10.325V34.397h9.789v24.489c0.046,3.644,1.257,5.465,3.632,5.465
			c2.236,0,3.851-0.968,4.843-2.905V34.397h9.857v37.426h-9.2L276.163,68.398z"/>
		<path fill="#36B5B2" d="M307.744,72.515c-5.027,0-8.947-1.498-11.761-4.496c-2.813-2.997-4.22-7.287-4.22-12.867v-2.975
			c0-5.903,1.291-10.458,3.874-13.663c2.582-3.205,6.283-4.808,11.103-4.808c4.704,0,8.244,1.502,10.619,4.507
			s3.586,7.454,3.632,13.349v4.8h-19.474c0.139,2.804,0.749,4.854,1.833,6.149c1.084,1.297,2.756,1.945,5.016,1.945
			c3.274,0,6.007-1.142,8.198-3.425l3.839,5.915c-1.199,1.66-2.94,3.004-5.223,4.029C312.897,72.002,310.419,72.515,307.744,72.515z
			 M301.587,49.548h9.789v-0.907c-0.047-2.258-0.415-3.968-1.107-5.131c-0.691-1.163-1.891-1.745-3.597-1.745
			c-1.707,0-2.946,0.617-3.719,1.851S301.726,46.826,301.587,49.548z"/>
		<path fill="#EB743B" d="M326.423,71.823V28.022h14.889c5.113,0,9.017,1.034,11.711,3.102c2.694,2.068,4.042,5.07,4.042,9.005
			c0,2.231-0.488,4.173-1.466,5.827s-2.42,2.871-4.324,3.647c2.055,0.602,3.647,1.748,4.775,3.439
			c1.128,1.692,1.691,3.767,1.691,6.223c0,4.361-1.266,7.545-3.797,9.55c-2.532,2.006-6.342,3.008-11.43,3.008H326.423z
			 M337.063,46.22h5.113c2.832-0.075,4.249-1.579,4.249-4.512c0-1.729-0.352-2.964-1.053-3.703c-0.702-0.739-1.78-1.109-3.233-1.109
			h-5.076V46.22z M337.063,53.626v9.438h5.452c1.479,0,2.612-0.402,3.402-1.208c0.789-0.805,1.185-1.912,1.185-3.322
			c0-3.171-1.278-4.806-3.835-4.907H337.063z"/>
		<path fill="#EB743B" d="M382.707,43.841l-3.251-0.277c-2.676,0-4.485,1.176-5.431,3.528v24.731h-9.823V34.397h9.235l0.276,4.047
			c1.545-3.159,3.678-4.738,6.399-4.738c1.106,0,2.006,0.149,2.698,0.449L382.707,43.841z"/>
		<path fill="#EB743B" d="M404.464,71.823c-0.276-0.576-0.554-1.545-0.83-2.905c-1.753,2.398-4.128,3.597-7.126,3.597
			c-3.136,0-5.736-1.037-7.8-3.112c-2.063-2.076-3.096-4.762-3.096-8.06c0-3.92,1.251-6.952,3.753-9.097
			c2.502-2.146,6.105-3.24,10.81-3.286h2.975v-3.01c0-1.683-0.289-2.871-0.865-3.563s-1.418-1.038-2.524-1.038
			c-2.444,0-3.667,1.431-3.667,4.289h-9.788c0-3.459,1.297-6.313,3.891-8.561c2.595-2.248,5.875-3.372,9.841-3.372
			c4.104,0,7.281,1.066,9.529,3.199c2.249,2.133,3.373,5.183,3.373,9.148V63.66c0.046,3.229,0.507,5.754,1.383,7.575v0.588H404.464z
			 M398.688,64.836c1.083,0,2.006-0.219,2.767-0.657c0.762-0.438,1.326-0.956,1.695-1.557V54.84h-2.353
			c-1.66,0-2.969,0.53-3.926,1.591c-0.957,1.062-1.436,2.479-1.436,4.255C395.436,63.452,396.52,64.836,398.688,64.836z"/>
		<path fill="#EB743B" d="M420.029,24.713c0-1.522,0.484-2.768,1.453-3.736s2.26-1.452,3.874-1.452c1.613,0,2.905,0.483,3.874,1.452
			s1.452,2.214,1.452,3.736c0,1.499-0.479,2.744-1.435,3.735c-0.958,0.991-2.255,1.487-3.892,1.487
			c-1.638,0-2.935-0.496-3.892-1.487S420.029,26.212,420.029,24.713z M430.303,71.823h-9.823V34.397h9.823V71.823z"/>
		<path fill="#EB743B" d="M446.836,34.397l0.276,3.701c2.214-2.929,5.107-4.393,8.683-4.393c6.434,0,9.742,4.508,9.927,13.524
			v24.593h-9.823V47.956c0-2.121-0.317-3.66-0.951-4.617c-0.635-0.957-1.747-1.436-3.338-1.436c-1.776,0-3.16,0.911-4.151,2.732
			v27.188h-9.823V34.397H446.836z"/>
		<path fill="#EB743B" d="M483.57,63.764h14.804v8.06h-26.426v-6.07l14.458-23.192h-14.112v-8.163h25.873v5.915L483.57,63.764z"/>
	</g>
	<g>
		<polygon fill="#EB743B" points="47,2 47,98 88,74 88,26 		"/>
		<polygon fill="#36B5B2" points="44,2 3,26 3,74 44,98 		"/>
		<path fill="#FFFEDB" d="M79.281,58.087c-1.239-1.97-3.38-3.148-5.718-3.148c-0.666,0-1.324,0.103-1.956,0.295
			c-2.632-3.125-5.819-4.775-8.603-5.636c2.235-1.714,4.208-3.771,5.909-6.153c1.74,0.394,3.63,0.127,5.162-0.832
			c3.158-2.006,4.103-6.197,2.104-9.348c-1.249-1.975-3.39-3.152-5.724-3.152c-1.283,0-2.533,0.363-3.616,1.05
			c-3.146,1.991-4.093,6.181-2.105,9.336c0.13,0.207,0.271,0.404,0.422,0.596c-2.514,3.442-5.708,6.056-9.519,7.785l-0.014,0.004
			C52.093,50.487,50,51,47,51v5c4,0,5.931-1.125,10.016-2.898c1.366-0.023,6.962,0.185,10.991,4.747
			c-1.507,2.164-1.655,5.108-0.16,7.471c1.241,1.97,3.382,3.15,5.721,3.15c1.278,0,2.524-0.36,3.607-1.044
			c1.538-0.975,2.599-2.482,2.995-4.252C80.566,61.413,80.248,59.606,79.281,58.087z M69.061,34.67
			c0.423-0.266,0.901-0.405,1.396-0.405c0.903,0,1.731,0.456,2.219,1.224c0.771,1.214,0.403,2.836-0.818,3.61
			c-0.41,0.261-0.896,0.398-1.387,0.398c-0.493,0-0.974-0.134-1.39-0.391c-0.343-0.213-0.625-0.489-0.832-0.817
			C67.478,37.064,67.842,35.443,69.061,34.67z M76.119,62.27c-0.154,0.687-0.564,1.27-1.161,1.645
			c-0.413,0.264-0.896,0.406-1.391,0.406c-0.906,0-1.731-0.457-2.21-1.218c-0.745-1.18-0.441-2.727,0.691-3.528l0.117-0.078
			c1.208-0.766,2.866-0.367,3.608,0.808C76.151,60.896,76.271,61.591,76.119,62.27z"/>
		<g>
			<polygon fill="#65D9D7" points="14.044,31.143 13.107,57.944 19.109,64.854 19.286,64.861 18.683,73.335 35.034,65.509 
				44,65.876 44,26.086 20.953,25.141 			"/>
		</g>
		<g>
			<path fill="#FFFEDB" d="M24.375,52.469c-0.04,1.419,1.334,2.626,2.426,2.681L44,56v-5l-17.05-0.843
				C25.816,50.075,24.418,51.052,24.375,52.469z"/>
			<path fill="#FFFEDB" d="M24.375,40.146c-0.04,1.419,1.334,2.626,2.426,2.681L44,43.677v-5l-17.05-0.843
				C25.816,37.752,24.418,38.729,24.375,40.146z"/>
		</g>
	</g>
</g>
</svg>
