<svg xmlns="http://www.w3.org/2000/svg" viewBox="0 0 220 290"><defs><style>.cls-1{isolation:isolate;}.cls-2{fill:#5aa854;}.cls-3{fill:#eb743b;}.cls-4{mix-blend-mode:multiply;opacity:0.07;}.cls-5{fill:#d3562c;}.cls-6{fill:#fffedb;}.cls-7{fill:#43883e;}</style></defs><g class="cls-1"><g id="Layer_1" data-name="Layer 1"><path class="cls-2" d="M44.82,161.85l9.65,36.65,9.66-36.65H81.61v54.61H68.3V205.58l1.27-25.4L58.83,216.46H50.07l-10.69-36.1,1.27,25.22v10.88H27.38V161.85Z"/><path class="cls-2" d="M109.26,217.32q-9.41,0-14.66-5.61t-5.26-16V192q0-11,4.83-17t13.84-6q8.8,0,13.24,5.62t4.53,16.65v6H101.5q.25,5.2,2.28,7.6c1.35,1.6,3.44,2.41,6.26,2.41A13.72,13.72,0,0,0,120.26,203l4.78,7.38a15.7,15.7,0,0,1-6.51,5A22.33,22.33,0,0,1,109.26,217.32Zm-7.68-28.63h12.21v-1.13a13.06,13.06,0,0,0-1.38-6.33q-1.29-2.16-4.49-2.16a5.07,5.07,0,0,0-4.63,2.28C102.32,182.88,101.76,185.32,101.58,188.69Z"/><path class="cls-2" d="M146.86,158.33V169.8h6.26v9.14h-6.26v23.19a6.84,6.84,0,0,0,.76,3.8,3.4,3.4,0,0,0,2.91,1,11.48,11.48,0,0,0,2.89-.3l-.09,9.49a19.14,19.14,0,0,1-6.73,1.16q-11.81,0-11.94-13.56V178.94h-5.39V169.8h5.39V158.33Z"/><path class="cls-2" d="M182,216.46a17,17,0,0,1-1-3.63,10.4,10.4,0,0,1-8.88,4.49,13.16,13.16,0,0,1-9.73-3.88,13.66,13.66,0,0,1-3.86-10.05q0-7.33,4.68-11.34t13.48-4.1h3.71V184.2q0-3.15-1.08-4.44a3.88,3.88,0,0,0-3.15-1.3c-3,0-4.57,1.79-4.57,5.35h-12.2a13.48,13.48,0,0,1,4.85-10.67,18.07,18.07,0,0,1,12.27-4.21q7.67,0,11.88,4t4.2,11.41v21.95c.06,4,.63,7.17,1.73,9.44v.74Zm-7.21-8.71a6.83,6.83,0,0,0,3.45-.82,5.91,5.91,0,0,0,2.12-1.94v-9.71H177.4a6.28,6.28,0,0,0-4.9,2,7.62,7.62,0,0,0-1.79,5.3Q170.71,207.75,174.76,207.75Z"/><path class="cls-3" d="M3.18,285.46V230.85H21.74q9.57,0,14.6,3.87c3.36,2.57,5,6.32,5,11.22a14,14,0,0,1-1.83,7.27,10.72,10.72,0,0,1-5.39,4.54,10.45,10.45,0,0,1,6,4.29,13.73,13.73,0,0,1,2.1,7.76q0,8.16-4.73,11.91t-14.25,3.75Zm13.26-31.92h6.38c3.53-.1,5.3-2,5.3-5.63,0-2.16-.44-3.69-1.32-4.62a5.32,5.32,0,0,0-4-1.38H16.44Zm0,9.23v11.77h6.8A5.69,5.69,0,0,0,27.48,273,5.62,5.62,0,0,0,29,268.89q0-5.92-4.78-6.12Z"/><path class="cls-3" d="M73.35,250.57l-4-.34q-5,0-6.77,4.39v30.84H50.28V238.8H61.79l.35,5q2.88-5.91,8-5.91a8.39,8.39,0,0,1,3.36.57Z"/><path class="cls-3" d="M100.47,285.46a17.17,17.17,0,0,1-1-3.63,10.42,10.42,0,0,1-8.88,4.49,13.14,13.14,0,0,1-9.73-3.88A13.66,13.66,0,0,1,77,272.39q0-7.33,4.68-11.34T95.13,257h3.71V253.2q0-3.15-1.08-4.44a3.88,3.88,0,0,0-3.15-1.3c-3,0-4.57,1.79-4.57,5.35H77.83a13.49,13.49,0,0,1,4.86-10.67A18.06,18.06,0,0,1,95,237.93q7.68,0,11.88,4T111,253.33v21.95a23,23,0,0,0,1.72,9.44v.74Zm-7.2-8.71a6.88,6.88,0,0,0,3.45-.82A5.91,5.91,0,0,0,98.84,274v-9.71H95.9a6.26,6.26,0,0,0-4.89,2,7.62,7.62,0,0,0-1.79,5.3Q89.22,276.75,93.27,276.75Z"/><path class="cls-3" d="M119.88,226.72a6.28,6.28,0,0,1,1.81-4.65,7.32,7.32,0,0,1,9.66,0,6.28,6.28,0,0,1,1.81,4.65,6.64,6.64,0,1,1-13.28,0Zm12.81,58.74H120.44V238.8h12.25Z"/><path class="cls-3" d="M153.3,238.8l.35,4.61a12.94,12.94,0,0,1,10.82-5.48q12,0,12.38,16.87v30.66H164.6V255.7q0-4-1.19-5.75c-.79-1.2-2.17-1.79-4.16-1.79-2.21,0-3.94,1.13-5.17,3.4v33.9H141.83V238.8Z"/><path class="cls-3" d="M199.1,275.32h18.46v10.14H184.61v-7.64l18-28.85H185V238.8H217.3v7.37Z"/><polygon class="cls-3" points="111.97 2.46 111.97 146.46 172.97 111.46 172.97 37.46 111.97 2.46"/><polygon class="cls-2" points="106.97 2.46 45.97 37.46 45.97 111.46 106.97 146.46 106.97 2.46"/><g class="cls-4"><path d="M129.27,94.19a2.11,2.11,0,0,1,1.82-1,2.07,2.07,0,0,1,1.08.3,2.11,2.11,0,0,1-1.09,3.93,2.2,2.2,0,0,1-1.08-.3,2.13,2.13,0,0,1-.73-2.9Zm12.6,22.36a2.09,2.09,0,0,1-1.37.51,2.11,2.11,0,0,1-1.38-3.71,2.06,2.06,0,0,1,1.37-.52,2.11,2.11,0,0,1,1.61.74,2.12,2.12,0,0,1-.23,3Z"/><path d="M121,48.07l.21,0Z"/><path d="M132.35,57.71a2.11,2.11,0,0,1,.67-.66,2.17,2.17,0,0,1,1.12-.31,2.09,2.09,0,0,1,1.12.32,2.11,2.11,0,0,1-1.13,3.9,2.1,2.1,0,0,1-1.78-3.25Zm6.38-20.18a2.15,2.15,0,0,1-2.92.65l-.09-.06a2.11,2.11,0,0,1-.56-2.85,2.08,2.08,0,0,1,1.78-1,2.15,2.15,0,0,1,1.13.32,2.11,2.11,0,0,1,.93,1.33A2.07,2.07,0,0,1,138.73,37.53Z"/><path d="M155.49,49.12a2.12,2.12,0,0,1,3.85.68,2.09,2.09,0,0,1-.28,1.58,2.14,2.14,0,0,1-2.91.66l-.1-.07A2.1,2.1,0,0,1,155.49,49.12Zm0,23.47a2.12,2.12,0,0,1,2.91-.66,2.16,2.16,0,0,1,.94,1.33,2.11,2.11,0,0,1-3.19,2.24l-.1-.06A2.11,2.11,0,0,1,155.49,72.59Zm0,26.3a2.12,2.12,0,0,1,1.79-1,2,2,0,0,1,1.12.33,2.1,2.1,0,0,1,.66,2.91,2.14,2.14,0,0,1-2.91.65l-.1-.06A2.11,2.11,0,0,1,155.49,98.89Z"/><path d="M145.14,108.56a6.12,6.12,0,0,0-10.72,4.74,19.86,19.86,0,0,1-5.32,1.33,4.11,4.11,0,0,1-2.23-1,10.56,10.56,0,0,0-4.15-1.85A37.66,37.66,0,0,0,131.31,99a6.12,6.12,0,0,0,2.91-11.37,6.07,6.07,0,0,0-3.13-.86,6.15,6.15,0,0,0-5.26,3,6.13,6.13,0,0,0,1.62,8.07c-4,9.21-9.22,13.08-12.56,14.68a2,2,0,0,0-.36.17,11.77,11.77,0,0,1-2.56.81v4a12.54,12.54,0,0,0,4.24-1.2c5.35-1.35,6.84-.35,8.41.71a7.79,7.79,0,0,0,4.26,1.66h.31a23.61,23.61,0,0,0,7-1.72,6.18,6.18,0,0,0,4.29,1.75h0a6.12,6.12,0,0,0,4.64-10.11ZM129.27,91.79a2.1,2.1,0,0,1,1.82-1,2.17,2.17,0,0,1,1.08.3,2.12,2.12,0,0,1,.73,2.9,2.11,2.11,0,0,1-3.63-2.16Zm12.6,22.36a2.09,2.09,0,0,1-1.37.51,2.11,2.11,0,0,1-1.38-3.72,2.09,2.09,0,0,1,1.37-.51,2.11,2.11,0,0,1,1.61.74,2.06,2.06,0,0,1,.5,1.54A2.08,2.08,0,0,1,141.87,114.15Z"/><path d="M121,45.66l.21.05Z"/><path d="M142.92,32.66a6.12,6.12,0,1,0-11,4.82A13.31,13.31,0,0,1,122,41.77a29.12,29.12,0,0,0-10-2.31v4a24.91,24.91,0,0,1,8.74,2.14h0a21.76,21.76,0,0,1,8.61,7,5.93,5.93,0,0,0-.38.54,6.12,6.12,0,1,0,8.44-1.91,6.2,6.2,0,0,0-4.66-.75,26,26,0,0,0-5.35-5.57,16.39,16.39,0,0,0,7.78-5.09,6.21,6.21,0,0,0,1.77.26,6.13,6.13,0,0,0,6-7.45ZM132.35,55.31a2,2,0,0,1,.67-.66,2.12,2.12,0,0,1,2.24,0,2.12,2.12,0,0,1-1.13,3.91,2.07,2.07,0,0,1-1.13-.33A2.12,2.12,0,0,1,132.35,55.31Zm6.38-20.19a2.15,2.15,0,0,1-2.92.65l-.09-.06a2.11,2.11,0,0,1,1.22-3.83,2.12,2.12,0,0,1,1.79,3.24Z"/><path d="M151.61,73.64a6,6,0,0,0,2.11,2.65l.28.2a6.15,6.15,0,0,0,8.45-1.9,6.13,6.13,0,0,0-5.17-9.4l-.38,0a25.63,25.63,0,0,1,0-11.26l.33,0a6.12,6.12,0,0,0,3.27-11.3,6.18,6.18,0,0,0-3.26-.94,6.11,6.11,0,0,0-4.15,10.61l.07.06a28.64,28.64,0,0,0,0,14.42,5.25,5.25,0,0,0-.42.4,6.43,6.43,0,0,0-.64.82,6.35,6.35,0,0,0-.71,1.58,15.16,15.16,0,0,0-6.82,2.73c-2,1.33-4,2.57-9.64,2.67a32.77,32.77,0,0,0-5.29-.12c-1.43,0-2.91.11-4.85,0-1.33-.07-2.1-.88-3.45-2.42-1.81-2.06-4.22-4.65-9.37-5v4c3.29.3,4.79,1.88,6.35,3.66s3.18,3.62,6.26,3.79c2.12.11,3.76,0,5.21,0a24.35,24.35,0,0,1,7.85.68c2.61.64,12.1,9.67,14.78,14.32-.11.14-.22.29-.32.44a6.11,6.11,0,0,0,1.62,8.25l.28.19a6.12,6.12,0,0,0,8.45-1.9,6.12,6.12,0,0,0-5.17-9.39,6.15,6.15,0,0,0-1.55.19c-2.56-4.18-8.65-10.45-13.19-13.79a17.83,17.83,0,0,0,4.21-2.19A11.39,11.39,0,0,1,151.61,73.64Zm3.88-26.92a2.12,2.12,0,0,1,2.91-.66,2.16,2.16,0,0,1,.94,1.33,2.11,2.11,0,0,1-3.19,2.24l-.1-.06A2.11,2.11,0,0,1,155.49,46.72Zm0,23.46a2.12,2.12,0,0,1,1.79-1,2,2,0,0,1,1.12.33,2.1,2.1,0,0,1,.66,2.91,2.14,2.14,0,0,1-2.91.65l-.1-.06A2.1,2.1,0,0,1,155.49,70.18Zm0,26.31a2.12,2.12,0,0,1,2.91-.66,2.11,2.11,0,1,1-2.25,3.57l-.1-.06A2.11,2.11,0,0,1,155.49,96.49Z"/></g><path class="cls-5" d="M145.14,111.56a6.12,6.12,0,0,0-10.72,4.74,19.86,19.86,0,0,1-5.32,1.33,4.11,4.11,0,0,1-2.23-1,10.56,10.56,0,0,0-4.15-1.85A37.66,37.66,0,0,0,131.31,102a6.12,6.12,0,0,0,2.91-11.37,6.07,6.07,0,0,0-3.13-.86,6.15,6.15,0,0,0-5.26,3,6.13,6.13,0,0,0,1.62,8.07c-4,9.21-9.22,13.08-12.56,14.68a2,2,0,0,0-.36.17,11.77,11.77,0,0,1-2.56.81v4a12.54,12.54,0,0,0,4.24-1.2c5.35-1.35,6.84-.35,8.41.71a7.79,7.79,0,0,0,4.26,1.66h.31a23.61,23.61,0,0,0,7-1.72,6.18,6.18,0,0,0,4.29,1.75h0a6.12,6.12,0,0,0,4.64-10.11ZM129.27,94.79a2.1,2.1,0,0,1,1.82-1,2.17,2.17,0,0,1,1.08.3,2.12,2.12,0,0,1,.73,2.9,2.11,2.11,0,0,1-3.63-2.16Zm12.6,22.36a2.09,2.09,0,0,1-1.37.51,2.11,2.11,0,0,1-1.38-3.72,2.09,2.09,0,0,1,1.37-.51,2.11,2.11,0,0,1,1.61.74,2.06,2.06,0,0,1,.5,1.54A2.08,2.08,0,0,1,141.87,117.15Z"/><path d="M121,48.07l.21,0Z"/><path class="cls-5" d="M142.92,35.67a6.12,6.12,0,1,0-11,4.82A13.35,13.35,0,0,1,122,44.78a28.93,28.93,0,0,0-10-2.32v4a24.65,24.65,0,0,1,8.74,2.13h0a21.68,21.68,0,0,1,8.61,7,4,4,0,0,0-.38.54,6.12,6.12,0,1,0,8.44-1.91,6.2,6.2,0,0,0-4.66-.76A26.19,26.19,0,0,0,127.39,48a16.34,16.34,0,0,0,7.78-5.1,6.22,6.22,0,0,0,1.77.27,6.13,6.13,0,0,0,6-7.45ZM132.35,58.31a2.11,2.11,0,0,1,.67-.66,2.09,2.09,0,0,1,2.24,0,2.11,2.11,0,0,1-1.13,3.9,2.1,2.1,0,0,1-1.78-3.25Zm6.38-20.19a2.14,2.14,0,0,1-2.92.66l-.09-.06a2.12,2.12,0,0,1,1.22-3.84,2.16,2.16,0,0,1,1.13.33,2.09,2.09,0,0,1,.93,1.33A2,2,0,0,1,138.73,38.12Z"/><path class="cls-5" d="M151.61,76.64a6,6,0,0,0,2.11,2.65l.28.2a6.15,6.15,0,0,0,8.45-1.9,6.13,6.13,0,0,0-5.17-9.4l-.38,0a25.63,25.63,0,0,1,0-11.26l.33,0a6.12,6.12,0,0,0,3.27-11.3,6.18,6.18,0,0,0-3.26-.94,6.11,6.11,0,0,0-4.15,10.61l.07.06a28.64,28.64,0,0,0,0,14.42,5.25,5.25,0,0,0-.42.4,6.43,6.43,0,0,0-.64.82,6.35,6.35,0,0,0-.71,1.58,15.16,15.16,0,0,0-6.82,2.73c-2,1.33-4,2.57-9.64,2.67a32.77,32.77,0,0,0-5.29-.12c-1.43,0-2.91.11-4.85,0-1.33-.07-2.1-.88-3.45-2.42-1.81-2.06-4.22-4.65-9.37-5v4c3.29.3,4.79,1.88,6.35,3.66s3.18,3.62,6.26,3.79c2.12.11,3.76,0,5.21,0a24.35,24.35,0,0,1,7.85.68c2.61.64,12.1,9.67,14.78,14.32-.11.14-.22.29-.32.44a6.11,6.11,0,0,0,1.62,8.25l.28.19a6.12,6.12,0,0,0,8.45-1.9,6.12,6.12,0,0,0-5.17-9.39,6.15,6.15,0,0,0-1.55.19c-2.56-4.18-8.65-10.45-13.19-13.79a17.83,17.83,0,0,0,4.21-2.19A11.39,11.39,0,0,1,151.61,76.64Zm3.88-26.92a2.12,2.12,0,0,1,2.91-.66,2.16,2.16,0,0,1,.94,1.33,2.11,2.11,0,0,1-3.19,2.24l-.1-.06A2.11,2.11,0,0,1,155.49,49.72Zm0,23.46a2.12,2.12,0,0,1,1.79-1,2,2,0,0,1,1.12.33,2.1,2.1,0,0,1,.66,2.91,2.14,2.14,0,0,1-2.91.65l-.1-.06A2.1,2.1,0,0,1,155.49,73.18Zm0,26.31a2.12,2.12,0,0,1,2.91-.66,2.11,2.11,0,1,1-2.25,3.57l-.1-.06A2.11,2.11,0,0,1,155.49,99.49Z"/><path class="cls-6" d="M145.14,108.56a6.12,6.12,0,0,0-10.72,4.74,19.86,19.86,0,0,1-5.32,1.33,4.11,4.11,0,0,1-2.23-1,10.56,10.56,0,0,0-4.15-1.85A37.66,37.66,0,0,0,131.31,99a6.12,6.12,0,0,0,2.91-11.37,6.07,6.07,0,0,0-3.13-.86,6.15,6.15,0,0,0-5.26,3,6.13,6.13,0,0,0,1.62,8.07c-4,9.21-9.22,13.08-12.56,14.68a2,2,0,0,0-.36.17,11.77,11.77,0,0,1-2.56.81v4a12.54,12.54,0,0,0,4.24-1.2c5.35-1.35,6.84-.35,8.41.71a7.79,7.79,0,0,0,4.26,1.66h.31a23.61,23.61,0,0,0,7-1.72,6.18,6.18,0,0,0,4.29,1.75h0a6.12,6.12,0,0,0,4.64-10.11ZM129.27,91.79a2.1,2.1,0,0,1,1.82-1,2.17,2.17,0,0,1,1.08.3,2.12,2.12,0,0,1,.73,2.9,2.11,2.11,0,0,1-3.63-2.16Zm12.6,22.36a2.09,2.09,0,0,1-1.37.51,2.11,2.11,0,0,1-1.38-3.72,2.09,2.09,0,0,1,1.37-.51,2.11,2.11,0,0,1,1.61.74,2.06,2.06,0,0,1,.5,1.54A2.08,2.08,0,0,1,141.87,114.15Z"/><path class="cls-6" d="M121,45.66l.21.05Z"/><path class="cls-6" d="M142.92,32.66a6.12,6.12,0,1,0-11,4.82A13.31,13.31,0,0,1,122,41.77a29.12,29.12,0,0,0-10-2.31v4a24.91,24.91,0,0,1,8.74,2.14h0a21.76,21.76,0,0,1,8.61,7,5.93,5.93,0,0,0-.38.54,6.12,6.12,0,1,0,8.44-1.91,6.2,6.2,0,0,0-4.66-.75,26,26,0,0,0-5.35-5.57,16.39,16.39,0,0,0,7.78-5.09,6.21,6.21,0,0,0,1.77.26,6.13,6.13,0,0,0,6-7.45ZM132.35,55.31a2,2,0,0,1,.67-.66,2.12,2.12,0,0,1,2.24,0,2.12,2.12,0,0,1-1.13,3.91,2.07,2.07,0,0,1-1.13-.33A2.12,2.12,0,0,1,132.35,55.31Zm6.38-20.19a2.15,2.15,0,0,1-2.92.65l-.09-.06a2.11,2.11,0,0,1,1.22-3.83,2.12,2.12,0,0,1,1.79,3.24Z"/><path class="cls-6" d="M151.61,73.64a6,6,0,0,0,2.11,2.65l.28.2a6.15,6.15,0,0,0,8.45-1.9,6.13,6.13,0,0,0-5.17-9.4l-.38,0a25.63,25.63,0,0,1,0-11.26l.33,0a6.12,6.12,0,0,0,3.27-11.3,6.18,6.18,0,0,0-3.26-.94,6.11,6.11,0,0,0-4.15,10.61l.07.06a28.64,28.64,0,0,0,0,14.42,5.25,5.25,0,0,0-.42.4,6.43,6.43,0,0,0-.64.82,6.35,6.35,0,0,0-.71,1.58,15.16,15.16,0,0,0-6.82,2.73c-2,1.33-4,2.57-9.64,2.67a32.77,32.77,0,0,0-5.29-.12c-1.43,0-2.91.11-4.85,0-1.33-.07-2.1-.88-3.45-2.42-1.81-2.06-4.22-4.65-9.37-5v4c3.29.3,4.79,1.88,6.35,3.66s3.18,3.62,6.26,3.79c2.12.11,3.76,0,5.21,0a24.35,24.35,0,0,1,7.85.68c2.61.64,12.1,9.67,14.78,14.32-.11.14-.22.29-.32.44a6.11,6.11,0,0,0,1.62,8.25l.28.19a6.12,6.12,0,0,0,8.45-1.9,6.12,6.12,0,0,0-5.17-9.39,6.15,6.15,0,0,0-1.55.19c-2.56-4.18-8.65-10.45-13.19-13.79a17.83,17.83,0,0,0,4.21-2.19A11.39,11.39,0,0,1,151.61,73.64Zm3.88-26.92a2.12,2.12,0,0,1,2.91-.66,2.16,2.16,0,0,1,.94,1.33,2.11,2.11,0,0,1-3.19,2.24l-.1-.06A2.11,2.11,0,0,1,155.49,46.72Zm0,23.46a2.12,2.12,0,0,1,1.79-1,2,2,0,0,1,1.12.33,2.1,2.1,0,0,1,.66,2.91,2.14,2.14,0,0,1-2.91.65l-.1-.06A2.1,2.1,0,0,1,155.49,70.18Zm0,26.31a2.12,2.12,0,0,1,2.91-.66,2.11,2.11,0,1,1-2.25,3.57l-.1-.06A2.11,2.11,0,0,1,155.49,96.49Z"/><path class="cls-7" d="M105.7,42.93a12.79,12.79,0,0,1-2.63.83,2.7,2.7,0,0,0-.39.08c-3.64.68-10.07.61-18.77-4.42A6.09,6.09,0,0,0,80.47,32a6.11,6.11,0,1,0,1,10.67A37.49,37.49,0,0,0,96,47.92a10.73,10.73,0,0,0-2.26,3.93,4,4,0,0,1-1.21,2.09A19.75,19.75,0,0,1,87.43,56a6.11,6.11,0,1,0-10,7,6,6,0,0,0,4.17,2.11,6.1,6.1,0,0,0,4.07-1.16h0A6.09,6.09,0,0,0,88.12,60a23.82,23.82,0,0,0,6.67-2.75L95,57a7.87,7.87,0,0,0,2.45-3.84c.64-1.79,1.25-3.47,6.35-5.53A17.12,17.12,0,0,0,107,46.46v-4ZM80,38.41a2.1,2.1,0,0,1-2.77,1.12,2.11,2.11,0,0,1-1.11-2.76,2.14,2.14,0,0,1,.69-.88A2.12,2.12,0,0,1,80,36.8,2.09,2.09,0,0,1,80,38.41Zm3.32,22.27a2.11,2.11,0,1,1-1.08-3.8,2.1,2.1,0,0,1,1.08,3.8Z"/><path d="M100.5,111.28l-.18-.11Z"/><path class="cls-7" d="M100.93,112.08h0a21.49,21.49,0,0,1-5.6-9.59,6.49,6.49,0,0,0,.55-.36A6.15,6.15,0,0,0,97,93.55a6.12,6.12,0,0,0-8.56-1.16A6.11,6.11,0,0,0,87.3,101a6.24,6.24,0,0,0,4.1,2.34,26.15,26.15,0,0,0,3.06,7.07,16.16,16.16,0,0,0-9,2,6.29,6.29,0,0,0-1.56-.87,6.11,6.11,0,1,0,3.78,4.21,13.33,13.33,0,0,1,10.79-.54,27.09,27.09,0,0,0,8.55,5.25v-4A24.52,24.52,0,0,1,100.93,112.08Zm-18,6.86a2.1,2.1,0,0,1-2,.3,2.08,2.08,0,0,1-.93-.7,2.08,2.08,0,0,1,.4-3,2.14,2.14,0,0,1,3,.4l.06.09A2.1,2.1,0,0,1,83,118.94Zm7.5-20.41a2.12,2.12,0,0,1,2.43-3.26,2.15,2.15,0,0,1,.93.7,2.12,2.12,0,0,1-.4,3,1.93,1.93,0,0,1-.86.39,2.09,2.09,0,0,1-1.16-.1A2.16,2.16,0,0,1,90.48,98.53Z"/><path d="M100.5,108.88l-.18-.12Z"/><path d="M100.5,111.28l-.18-.11Z"/><path class="cls-7" d="M97.56,75.72c-1.35,1.54-2.12,2.35-3.45,2.42-1.93.11-3.41,0-4.84,0s-4-.82-8-2.6-12.07-9.66-14.74-14.3a4.25,4.25,0,0,0,.31-.43,6.08,6.08,0,0,0-1.61-8.23c-.08,0-.15-.11-.29-.19a6.11,6.11,0,1,0-1.72,11.07c2.55,4.18,10.25,12.06,13.16,13.76a18,18,0,0,0-4.2,2.19,11.46,11.46,0,0,1-4.85,2.06,6,6,0,0,0-2.1-2.64l-.29-.2a6.13,6.13,0,0,0-3.26-.94,6.11,6.11,0,1,0,0,12.21c.13,0,.25,0,.37,0a25.73,25.73,0,0,1,0,11.25l-.34,0a6.11,6.11,0,1,0,4.14,1.62l-.08-.06a28.44,28.44,0,0,0,0-14.37,5.62,5.62,0,0,0,.44-.41,6.37,6.37,0,0,0,.63-.82,6,6,0,0,0,.71-1.58,15,15,0,0,0,6.81-2.72,13.9,13.9,0,0,1,7.84-2.58,21.63,21.63,0,0,0,6.91,2,34.59,34.59,0,0,0,5.2,0c3.07-.17,4.75-2.09,6.24-3.78s3.05-3.48,6.4-3.9v-4C101.77,71,99.36,73.67,97.56,75.72ZM61.7,59.66a2.11,2.11,0,0,1-1.78-3.24,2.14,2.14,0,0,1,2.91-.65l.09.06a2.11,2.11,0,0,1-1.22,3.83ZM60.58,85.58a2.16,2.16,0,0,1-.94-1.33,2.1,2.1,0,0,1,.28-1.58A2.14,2.14,0,0,1,62.83,82l.09.06a2.11,2.11,0,0,1-2.34,3.5Zm2.9,22.76a2.11,2.11,0,1,1-3.56-2.26,2.14,2.14,0,0,1,2.91-.65l.09.06A2.11,2.11,0,0,1,63.48,108.34Z"/><path class="cls-6" d="M105.7,39.93a12.79,12.79,0,0,1-2.63.83,2.7,2.7,0,0,0-.39.08c-3.64.68-10.07.61-18.77-4.42A6.09,6.09,0,0,0,80.47,29a6.11,6.11,0,1,0,1,10.67A37.49,37.49,0,0,0,96,44.92a10.73,10.73,0,0,0-2.26,3.93,4,4,0,0,1-1.21,2.09A19.75,19.75,0,0,1,87.43,53a6.11,6.11,0,1,0-10,7,6,6,0,0,0,4.17,2.11,6.1,6.1,0,0,0,4.07-1.16h0A6.09,6.09,0,0,0,88.12,57a23.82,23.82,0,0,0,6.67-2.75L95,54a7.87,7.87,0,0,0,2.45-3.84c.64-1.79,1.25-3.47,6.35-5.53A17.12,17.12,0,0,0,107,43.46v-4ZM80,35.41a2.1,2.1,0,0,1-2.77,1.12,2.11,2.11,0,0,1-1.11-2.76,2.14,2.14,0,0,1,.69-.88A2.12,2.12,0,0,1,80,33.8,2.09,2.09,0,0,1,80,35.41Zm3.32,22.27a2.11,2.11,0,1,1-1.08-3.8,2.1,2.1,0,0,1,1.08,3.8Z"/><path class="cls-6" d="M100.5,108.88l-.18-.12Z"/><path class="cls-6" d="M100.93,109.08h0a21.49,21.49,0,0,1-5.6-9.59,6.49,6.49,0,0,0,.55-.36A6.15,6.15,0,0,0,97,90.55a6.12,6.12,0,0,0-8.56-1.16A6.11,6.11,0,0,0,87.3,98a6.24,6.24,0,0,0,4.1,2.34,26.15,26.15,0,0,0,3.06,7.07,16.16,16.16,0,0,0-9,2,6.29,6.29,0,0,0-1.56-.87,6.11,6.11,0,1,0,3.78,4.21,13.33,13.33,0,0,1,10.79-.54,27.09,27.09,0,0,0,8.55,5.25v-4A24.52,24.52,0,0,1,100.93,109.08Zm-18,6.86a2.1,2.1,0,0,1-2,.3,2.08,2.08,0,0,1-.93-.7,2.08,2.08,0,0,1,.4-3,2.14,2.14,0,0,1,3,.4l.06.09A2.1,2.1,0,0,1,83,115.94Zm7.5-20.41a2.12,2.12,0,0,1,2.43-3.26,2.15,2.15,0,0,1,.93.7,2.12,2.12,0,0,1-.4,3,1.93,1.93,0,0,1-.86.39,2.09,2.09,0,0,1-1.16-.1A2.16,2.16,0,0,1,90.48,95.53Z"/><path class="cls-6" d="M97.56,72.74c-1.35,1.54-2.12,2.35-3.45,2.42-1.93.1-3.41,0-4.84,0s-4-.82-8-2.61S69.22,62.9,66.55,58.26a4.25,4.25,0,0,0,.31-.43,6.1,6.1,0,0,0-1.61-8.24L65,49.4a6.11,6.11,0,0,0-6.52,10.33,6.18,6.18,0,0,0,3.26.94,6.49,6.49,0,0,0,1.54-.19c2.55,4.17,10.25,12.06,13.16,13.76a18.34,18.34,0,0,0-4.2,2.18,11.22,11.22,0,0,1-4.85,2.06,6,6,0,0,0-2.1-2.64L65,75.65A6.11,6.11,0,0,0,58.44,86a6.18,6.18,0,0,0,3.26.94c.13,0,.25,0,.37,0a25.73,25.73,0,0,1,0,11.25l-.34,0a6.11,6.11,0,0,0-3.26,11.27,6.18,6.18,0,0,0,3.26.94,6.1,6.1,0,0,0,4.14-10.59l-.08-.07a28.4,28.4,0,0,0,0-14.36c.15-.14.3-.26.44-.41a6.47,6.47,0,0,0,.63-.83,6.13,6.13,0,0,0,.71-1.57,15.24,15.24,0,0,0,6.81-2.72,13.82,13.82,0,0,1,7.84-2.59,21.13,21.13,0,0,0,6.91,2,33.32,33.32,0,0,0,5.2,0c3.07-.16,4.75-2.08,6.24-3.77s3.05-3.47,6.4-3.89v-4C101.77,68,99.36,70.69,97.56,72.74ZM61.7,56.67a2.09,2.09,0,0,1-1.12-.32A2.16,2.16,0,0,1,59.64,55a2.1,2.1,0,0,1,.28-1.58,2.14,2.14,0,0,1,2.91-.65l.09.06a2.1,2.1,0,0,1-1.22,3.82ZM60.58,82.59a2.09,2.09,0,0,1-.66-2.91A2.16,2.16,0,0,1,62.83,79l.09.07a2.1,2.1,0,0,1-2.34,3.49Zm2.9,22.76a2.11,2.11,0,0,1-2.9.66,2.16,2.16,0,0,1-.94-1.33,2.09,2.09,0,0,1,.28-1.58,2.14,2.14,0,0,1,2.91-.65l.09.06A2.09,2.09,0,0,1,63.48,105.35Z"/></g></g></svg>