<svg id="Layer_1" data-name="Layer 1" xmlns="http://www.w3.org/2000/svg" viewBox="0 0 196 30"><defs><style>.cls-1{fill:#5aa854;}.cls-2{fill:#eb743b;}</style></defs><polygon class="cls-1" points="14 1 2 8 2 22 14 29 14 1"/><polygon class="cls-2" points="15 1 27 8 27 22 15 29 15 1"/><path class="cls-1" d="M42.14,5.24l4.94,13.31L52,5.24h6.5V25H53.54V21l.51-10.39L48.71,25H45.43L40.11,10.67,40.62,21v4H35.68V5.24Z"/><path class="cls-1" d="M69.68,25.31A8.29,8.29,0,0,1,63.63,23,8.11,8.11,0,0,1,61.3,17v-.43a10.24,10.24,0,0,1,1-4.55,7.23,7.23,0,0,1,2.79-3.09A7.75,7.75,0,0,1,69.18,7.8,7,7,0,0,1,74.64,10a8.89,8.89,0,0,1,2,6.19V18H65.87a4.24,4.24,0,0,0,1.32,2.66,4,4,0,0,0,2.79,1,4.87,4.87,0,0,0,4.07-1.89l2.22,2.48a6.85,6.85,0,0,1-2.75,2.24A9.1,9.1,0,0,1,69.68,25.31Zm-.51-13.87a2.79,2.79,0,0,0-2.18.91A4.68,4.68,0,0,0,65.92,15h6.27v-.36a3.35,3.35,0,0,0-.81-2.33A2.9,2.9,0,0,0,69.17,11.44Z"/><path class="cls-1" d="M84.59,4V8.11h2.88v3.31H84.59v8.43a2.07,2.07,0,0,0,.35,1.34,1.82,1.82,0,0,0,1.38.41,7.32,7.32,0,0,0,1.32-.11v3.42a9.25,9.25,0,0,1-2.73.4q-4.74,0-4.83-4.79v-9.1H77.61V8.11h2.47V4Z"/><path class="cls-1" d="M99.77,25a4.9,4.9,0,0,1-.45-1.51,5.47,5.47,0,0,1-4.26,1.82A6,6,0,0,1,91,23.88a4.63,4.63,0,0,1-1.64-3.62,4.81,4.81,0,0,1,2-4.13,9.9,9.9,0,0,1,5.76-1.45h2.07v-1a2.81,2.81,0,0,0-.6-1.88,2.39,2.39,0,0,0-1.9-.7,2.63,2.63,0,0,0-1.78.55,1.85,1.85,0,0,0-.65,1.5H89.69a4.55,4.55,0,0,1,.9-2.72,6,6,0,0,1,2.56-2,9.45,9.45,0,0,1,3.72-.71,7.33,7.33,0,0,1,4.95,1.57,5.47,5.47,0,0,1,1.84,4.41V21.1a8,8,0,0,0,.67,3.63V25ZM96,21.86a3.93,3.93,0,0,0,1.84-.44,3,3,0,0,0,1.25-1.2v-2.9H97.45c-2.26,0-3.46.78-3.61,2.34l0,.27a1.81,1.81,0,0,0,.6,1.39A2.3,2.3,0,0,0,96,21.86Z"/><path class="cls-2" d="M107.07,25V5.24h7.63a11,11,0,0,1,6.08,1.4,4.58,4.58,0,0,1,2.12,4.07,4.5,4.5,0,0,1-.78,2.62A4.37,4.37,0,0,1,119.91,15a4.4,4.4,0,0,1,2.55,1.61,4.51,4.51,0,0,1,.88,2.74,4.81,4.81,0,0,1-2,4.3A10.48,10.48,0,0,1,115.45,25ZM112,13.46h3q3,0,3-2.07a1.93,1.93,0,0,0-.72-1.7,3.93,3.93,0,0,0-2.2-.5H112Zm0,3.35v4.24h3.46a3.8,3.8,0,0,0,2.21-.56,1.78,1.78,0,0,0,.78-1.49c0-1.42-.87-2.15-2.6-2.19Z"/><path class="cls-2" d="M135.83,12.34a12.62,12.62,0,0,0-1.62-.12c-1.71,0-2.83.57-3.36,1.73V25h-4.51V8.11h4.26l.13,2a4.18,4.18,0,0,1,3.76-2.33,4.83,4.83,0,0,1,1.4.2Z"/><path class="cls-2" d="M147.32,25a4.9,4.9,0,0,1-.45-1.51,5.5,5.5,0,0,1-4.26,1.82,6,6,0,0,1-4.12-1.43,4.65,4.65,0,0,1-1.63-3.62,4.81,4.81,0,0,1,2-4.13,9.89,9.89,0,0,1,5.75-1.45h2.08v-1a2.81,2.81,0,0,0-.6-1.88,2.4,2.4,0,0,0-1.9-.7,2.68,2.68,0,0,0-1.79.55,1.85,1.85,0,0,0-.64,1.5h-4.51a4.55,4.55,0,0,1,.9-2.72,6,6,0,0,1,2.56-2,9.38,9.38,0,0,1,3.72-.71,7.33,7.33,0,0,1,5,1.57,5.5,5.5,0,0,1,1.84,4.41V21.1a7.87,7.87,0,0,0,.67,3.63V25Zm-3.73-3.14a4,4,0,0,0,1.84-.44,3,3,0,0,0,1.25-1.2v-2.9H145c-2.25,0-3.46.78-3.6,2.34l0,.27a1.81,1.81,0,0,0,.6,1.39A2.3,2.3,0,0,0,143.59,21.86Z"/><path class="cls-2" d="M154.64,3.74a2.25,2.25,0,0,1,.68-1.67,2.94,2.94,0,0,1,3.69,0,2.22,2.22,0,0,1,.69,1.67,2.24,2.24,0,0,1-.7,1.69,2.53,2.53,0,0,1-1.83.65,2.57,2.57,0,0,1-1.84-.65A2.23,2.23,0,0,1,154.64,3.74ZM159.43,25H154.9V8.11h4.53Z"/><path class="cls-2" d="M167.3,8.11l.14,2a5.9,5.9,0,0,1,4.85-2.26,4.92,4.92,0,0,1,4,1.58,7.36,7.36,0,0,1,1.34,4.71V25h-4.51V14.17a2.91,2.91,0,0,0-.63-2.08,2.75,2.75,0,0,0-2.07-.65,3.11,3.11,0,0,0-2.86,1.62V25h-4.51V8.11Z"/><path class="cls-2" d="M186.23,21.36h8.25V25h-14V22.25l7.94-10.5H180.7V8.11h13.53v2.66Z"/></svg>