<svg id="Layer_1" data-name="Layer 1" xmlns="http://www.w3.org/2000/svg" viewBox="0 0 140 190"><defs><style>.cls-1{fill:#5aa854;}.cls-2{fill:#eb743b;}.cls-3{fill:#fffedb;}</style></defs><path class="cls-1" d="M27.87,106.7l6.24,23.7,6.24-23.7h11.3V142h-8.6v-7l.82-16.42L36.93,142H31.26l-6.91-23.33.82,16.3v7H16.6V106.7Z"/><path class="cls-1" d="M69.52,142.56q-6.07,0-9.48-3.63t-3.4-10.37v-2.39q0-7.14,3.13-11t8.94-3.88q5.69,0,8.56,3.64t2.93,10.75v3.87H64.5A8.27,8.27,0,0,0,66,134.45,5,5,0,0,0,70,136a8.86,8.86,0,0,0,6.61-2.71l3.09,4.77a10.16,10.16,0,0,1-4.21,3.25A14.53,14.53,0,0,1,69.52,142.56Zm-5-18.51h7.89v-.73a8.53,8.53,0,0,0-.89-4.09,3.11,3.11,0,0,0-2.9-1.4,3.29,3.29,0,0,0-3,1.48A10.22,10.22,0,0,0,64.56,124.05Z"/><path class="cls-1" d="M93.83,104.43v7.41h4v5.91h-4v15a4.4,4.4,0,0,0,.49,2.46,2.21,2.21,0,0,0,1.88.67,7.28,7.28,0,0,0,1.86-.2l0,6.13a12.13,12.13,0,0,1-4.35.76q-7.64,0-7.72-8.77v-16H82.46v-5.91h3.48v-7.41Z"/><path class="cls-1" d="M116.52,142a10.45,10.45,0,0,1-.67-2.34,6.75,6.75,0,0,1-5.74,2.9,8.51,8.51,0,0,1-6.29-2.51,8.83,8.83,0,0,1-2.49-6.5,9.13,9.13,0,0,1,3-7.33c2-1.72,4.92-2.61,8.71-2.64h2.4v-2.43a4.57,4.57,0,0,0-.7-2.87,2.48,2.48,0,0,0-2-.84c-2,0-3,1.16-3,3.46h-7.89A8.73,8.73,0,0,1,105,114a11.68,11.68,0,0,1,7.93-2.72q5,0,7.68,2.58t2.72,7.37v14.19a14.72,14.72,0,0,0,1.11,6.11V142Zm-4.66-5.63a4.43,4.43,0,0,0,2.23-.53,3.72,3.72,0,0,0,1.37-1.25v-6.28h-1.9a4,4,0,0,0-3.16,1.29,4.9,4.9,0,0,0-1.16,3.42C109.24,135.25,110.11,136.37,111.86,136.37Z"/><path class="cls-2" d="M1,188V152.7H13c4.12,0,7.27.84,9.44,2.5a8.61,8.61,0,0,1,3.26,7.26,9.07,9.07,0,0,1-1.19,4.7A6.91,6.91,0,0,1,21,170.09a6.74,6.74,0,0,1,3.85,2.78,8.81,8.81,0,0,1,1.36,5c0,3.52-1,6.08-3.06,7.7S18,188,13.92,188Zm8.58-20.63h4.12c2.28-.06,3.42-1.28,3.42-3.64a4.23,4.23,0,0,0-.85-3,3.4,3.4,0,0,0-2.6-.9H9.53Zm0,6v7.6h4.39a3.65,3.65,0,0,0,2.74-1,3.65,3.65,0,0,0,1-2.68q0-3.82-3.09-3.95Z"/><path class="cls-2" d="M46.31,165.45l-2.62-.22a4.3,4.3,0,0,0-4.38,2.84V188H31.4V157.84h7.44l.22,3.26c1.25-2.54,3-3.82,5.16-3.82a5.33,5.33,0,0,1,2.17.37Z"/><path class="cls-2" d="M63.84,188a11.67,11.67,0,0,1-.67-2.34,6.74,6.74,0,0,1-5.74,2.9,8.5,8.5,0,0,1-6.28-2.51,8.8,8.8,0,0,1-2.5-6.5,9.14,9.14,0,0,1,3-7.33c2-1.72,4.92-2.61,8.71-2.64h2.39v-2.43a4.57,4.57,0,0,0-.69-2.87,2.51,2.51,0,0,0-2-.84c-2,0-2.95,1.16-2.95,3.46H49.21a8.7,8.7,0,0,1,3.14-6.9,11.68,11.68,0,0,1,7.93-2.72q4.95,0,7.68,2.58t2.71,7.37v14.19a14.86,14.86,0,0,0,1.12,6.11V188Zm-4.65-5.63a4.43,4.43,0,0,0,2.23-.53,3.69,3.69,0,0,0,1.36-1.25v-6.28H60.89a4,4,0,0,0-3.16,1.29A4.86,4.86,0,0,0,56.57,179C56.57,181.25,57.44,182.37,59.19,182.37Z"/><path class="cls-2" d="M76.39,150a4.07,4.07,0,0,1,1.17-3,4.71,4.71,0,0,1,6.24,0A4.07,4.07,0,0,1,85,150a4.29,4.29,0,1,1-8.58,0Zm8.28,38H76.75V157.84h7.92Z"/><path class="cls-2" d="M98,157.84l.22,3a8.38,8.38,0,0,1,7-3.54q7.77,0,8,10.9V188h-7.92V168.77a6.94,6.94,0,0,0-.76-3.72,3,3,0,0,0-2.7-1.16,3.67,3.67,0,0,0-3.34,2.2V188H90.57V157.84Z"/><path class="cls-2" d="M127.59,181.45h11.93V188h-21.3v-4.93l11.66-18.65H118.5v-6.58h20.85v4.77Z"/><polygon class="cls-2" points="72 3 72 99 113 75 113 27 72 3"/><polygon class="cls-1" points="69 3 28 27 28 75 69 99 69 3"/><path class="cls-3" d="M104.28,59.09a6.75,6.75,0,0,0-7.67-2.86A18.09,18.09,0,0,0,88,50.6a28.62,28.62,0,0,0,5.91-6.16,6.91,6.91,0,0,0,5.17-.83,6.77,6.77,0,1,0-9.34-2.11,6.27,6.27,0,0,0,.42.59,23.88,23.88,0,0,1-9.52,7.79h0A18.45,18.45,0,0,1,72,52v5c4,0,5.93-1.12,10-2.9a14.78,14.78,0,0,1,11,4.75,6.76,6.76,0,1,0,12.16,5.32A6.64,6.64,0,0,0,104.28,59.09ZM94.06,35.67a2.57,2.57,0,0,1,1.4-.41,2.62,2.62,0,1,1,0,5.24,2.61,2.61,0,0,1-2.22-1.21A2.63,2.63,0,0,1,94.06,35.67Zm7.06,27.6A2.61,2.61,0,0,1,100,64.91a2.56,2.56,0,0,1-1.39.41,2.62,2.62,0,0,1-1.52-4.75l.12-.07a2.65,2.65,0,0,1,3.6.8A2.59,2.59,0,0,1,101.12,63.27Z"/><path class="cls-3" d="M36.72,42.91a6.75,6.75,0,0,0,7.67,2.86A18.09,18.09,0,0,0,53,51.4a28.62,28.62,0,0,0-5.91,6.16,6.91,6.91,0,0,0-5.17.83,6.77,6.77,0,1,0,9.34,2.11,6.27,6.27,0,0,0-.42-.59,23.88,23.88,0,0,1,9.52-7.79h0A18.45,18.45,0,0,1,69,50V45c-4,0-5.93,1.12-10,2.9a14.78,14.78,0,0,1-11-4.75,6.76,6.76,0,1,0-12.16-5.32A6.64,6.64,0,0,0,36.72,42.91ZM46.94,66.33a2.57,2.57,0,0,1-1.4.41,2.62,2.62,0,1,1,0-5.24,2.61,2.61,0,0,1,2.22,1.21A2.63,2.63,0,0,1,46.94,66.33Zm-7.06-27.6A2.61,2.61,0,0,1,41,37.09a2.56,2.56,0,0,1,1.39-.41A2.62,2.62,0,0,1,44,41.43l-.12.07a2.65,2.65,0,0,1-3.6-.8A2.59,2.59,0,0,1,39.88,38.73Z"/></svg>