<svg xmlns="http://www.w3.org/2000/svg" viewBox="0 0 598.63 150"><defs><style>.cls-1{isolation:isolate;}.cls-2{fill:#5aa854;}.cls-3{fill:#eb743b;}.cls-4{mix-blend-mode:multiply;opacity:0.07;}.cls-5{fill:#d3562c;}.cls-6{fill:#fffedb;}.cls-7{fill:#43883e;}</style></defs><g class="cls-1"><g id="Layer_1" data-name="Layer 1"><path class="cls-2" d="M173.83,48.22,187.47,85,201,48.22H219v54.6H205.33V91.76l1.41-28.69L192,102.82h-9L168.21,63.21l1.4,28.55v11.06H156V48.22Z"/><path class="cls-2" d="M249.92,103.69q-10.26,0-16.71-6.3t-6.45-16.78v-1.2a28.18,28.18,0,0,1,2.72-12.57,19.92,19.92,0,0,1,7.7-8.54,21.59,21.59,0,0,1,11.36-3q9.57,0,15.07,6t5.5,17.12v5.09H239.4A11.61,11.61,0,0,0,243,90.88a11,11,0,0,0,7.7,2.76A13.47,13.47,0,0,0,262,88.42l6.12,6.86a18.74,18.74,0,0,1-7.59,6.18A24.77,24.77,0,0,1,249.92,103.69ZM248.5,65.35a7.8,7.8,0,0,0-6,2.51,13,13,0,0,0-2.95,7.19h17.33v-1a9.24,9.24,0,0,0-2.24-6.43A8.06,8.06,0,0,0,248.5,65.35Z"/><path class="cls-2" d="M291.1,44.69V56.16h8v9.15h-8V88.59a5.51,5.51,0,0,0,1,3.71c.66.75,1.92,1.12,3.79,1.12a20.09,20.09,0,0,0,3.67-.3v9.44a25.62,25.62,0,0,1-7.55,1.13q-13.11,0-13.37-13.24V65.31h-6.81V56.16h6.81V44.69Z"/><path class="cls-2" d="M333.06,102.82a14,14,0,0,1-1.25-4.18,15.09,15.09,0,0,1-11.77,5,16.58,16.58,0,0,1-11.36-4,12.76,12.76,0,0,1-4.51-10q0-7.41,5.5-11.38t15.89-4h5.73V71.64a7.66,7.66,0,0,0-1.66-5.17q-1.65-1.93-5.24-1.94A7.39,7.39,0,0,0,319.46,66a5.12,5.12,0,0,0-1.79,4.14H305.21a12.55,12.55,0,0,1,2.5-7.51,16.55,16.55,0,0,1,7.07-5.41,25.92,25.92,0,0,1,10.26-2q8.63,0,13.69,4.33t5.07,12.19V92q0,6.64,1.85,10v.73Zm-10.3-8.66a10.69,10.69,0,0,0,5.08-1.23,8,8,0,0,0,3.45-3.3v-8h-4.65q-9.36,0-10,6.47l-.05.73a5,5,0,0,0,1.64,3.84A6.4,6.4,0,0,0,322.76,94.16Z"/><path class="cls-3" d="M353.23,102.82V48.22h21.09q10.92,0,16.78,3.87A12.64,12.64,0,0,1,397,63.33a12.59,12.59,0,0,1-2.13,7.26,12.21,12.21,0,0,1-6.12,4.57,12.16,12.16,0,0,1,7,4.45,12.32,12.32,0,0,1,2.44,7.58q0,8.1-5.58,11.87t-16.22,3.76ZM366.82,71h8.34q8.2,0,8.21-5.74c0-2.2-.67-3.76-2-4.68s-3.36-1.39-6.08-1.39h-8.48Zm0,9.23V91.9h9.56a10.36,10.36,0,0,0,6.1-1.55,4.82,4.82,0,0,0,2.15-4.1q0-5.88-7.17-6.07Z"/><path class="cls-3" d="M432.7,67.85a34,34,0,0,0-4.49-.35q-7.06,0-9.27,4.79v30.53H406.48V56.16h11.77l.35,5.57Q422.35,55.3,429,55.3a13.14,13.14,0,0,1,3.88.56Z"/><path class="cls-3" d="M464.44,102.82a13.68,13.68,0,0,1-1.25-4.18,15.09,15.09,0,0,1-11.77,5,16.6,16.6,0,0,1-11.37-4,12.78,12.78,0,0,1-4.5-10q0-7.41,5.49-11.38t15.9-4h5.73V71.64A7.66,7.66,0,0,0,461,66.47c-1.11-1.29-2.85-1.94-5.24-1.94A7.42,7.42,0,0,0,450.83,66,5.15,5.15,0,0,0,449,70.18H436.58a12.61,12.61,0,0,1,2.5-7.51,16.65,16.65,0,0,1,7.08-5.41,25.85,25.85,0,0,1,10.26-2q8.63,0,13.69,4.33t5.07,12.19V92c0,4.43.64,7.78,1.85,10v.73Zm-10.31-8.66a10.73,10.73,0,0,0,5.09-1.23,8.11,8.11,0,0,0,3.45-3.3v-8H458q-9.35,0-10,6.47l0,.73a5,5,0,0,0,1.64,3.84A6.39,6.39,0,0,0,454.13,94.16Z"/><path class="cls-3" d="M484.66,44.09a6.16,6.16,0,0,1,1.88-4.62,8.09,8.09,0,0,1,10.2,0,6.59,6.59,0,0,1,0,9.28,8,8,0,0,1-10.14,0A6.12,6.12,0,0,1,484.66,44.09Zm13.24,58.73H485.4V56.16h12.5Z"/><path class="cls-3" d="M519.64,56.16l.39,5.39a16.3,16.3,0,0,1,13.41-6.25q7.41,0,11,4.36t3.71,13v30.14H535.72V72.91q0-4-1.72-5.77t-5.74-1.79a8.57,8.57,0,0,0-7.89,4.49v33H507.91V56.16Z"/><path class="cls-3" d="M572,92.78h22.81v10H556V95.23l22-29h-21.3v-10h37.39v7.35Z"/><polygon class="cls-3" points="70.35 2.82 70.35 146.82 131.35 111.82 131.35 37.82 70.35 2.82"/><polygon class="cls-2" points="65.35 2.82 4.35 37.82 4.35 111.82 65.35 146.82 65.35 2.82"/><g class="cls-4"><path d="M87.66,94.56a2.08,2.08,0,0,1,1.82-1,2.11,2.11,0,1,1,0,4.22,2.13,2.13,0,0,1-2-1.59A2.13,2.13,0,0,1,87.66,94.56Zm12.6,22.36a2.11,2.11,0,1,1-1.38-3.72,2.11,2.11,0,0,1,2.11,2.28A2.08,2.08,0,0,1,100.26,116.92Z"/><path d="M79.36,48.43l.21,0Z"/><path d="M90.73,58.08a2,2,0,0,1,.68-.66,2.12,2.12,0,0,1,2.24,0,2.12,2.12,0,0,1-1.13,3.91A2.07,2.07,0,0,1,91.39,61,2.13,2.13,0,0,1,90.73,58.08Zm6.38-20.19a2.15,2.15,0,0,1-2.91.66l-.09-.07a2.11,2.11,0,0,1,1.22-3.83,2.16,2.16,0,0,1,1.13.33,2.11,2.11,0,0,1,.65,2.91Z"/><path d="M113.88,49.49a2.1,2.1,0,0,1,1.78-1,2.12,2.12,0,0,1,1.79,3.24,2.15,2.15,0,0,1-2.92.65l-.09-.06A2.11,2.11,0,0,1,113.88,49.49Zm0,23.46a2.1,2.1,0,0,1,1.78-1,2.16,2.16,0,0,1,1.13.33,2.12,2.12,0,0,1,.66,2.91,2.15,2.15,0,0,1-2.92.66l-.09-.07A2.1,2.1,0,0,1,113.88,73Zm0,26.31a2.08,2.08,0,0,1,1.78-1,2.15,2.15,0,0,1,1.13.32,2.11,2.11,0,0,1,.93,1.33,2.07,2.07,0,0,1-.27,1.59,2.15,2.15,0,0,1-2.92.65l-.09-.06A2.11,2.11,0,0,1,113.88,99.26Z"/><path d="M103.53,108.93a6.12,6.12,0,0,0-10.72,4.73A19.62,19.62,0,0,1,87.48,115a4,4,0,0,1-2.22-1,10.7,10.7,0,0,0-4.15-1.84A37.62,37.62,0,0,0,89.7,99.34a6.09,6.09,0,1,0-3.86-1.18c-4,9.22-9.22,13.08-12.57,14.69a2,2,0,0,0-.36.17,10.91,10.91,0,0,1-2.56.8v4a12.63,12.63,0,0,0,4.25-1.19c5.35-1.36,6.84-.35,8.41.71A7.94,7.94,0,0,0,87.27,119h.31a23.61,23.61,0,0,0,7-1.72A6.12,6.12,0,0,0,98.89,119h0a6.11,6.11,0,0,0,4.64-10.1ZM87.66,92.15a2.1,2.1,0,0,1,1.82-1,2,2,0,0,1,1.07.3,2.11,2.11,0,0,1-1.08,3.93,2.17,2.17,0,0,1-1.08-.3,2.09,2.09,0,0,1-1-1.3A2.14,2.14,0,0,1,87.66,92.15Zm12.6,22.36a2.09,2.09,0,0,1-1.37.51,2.11,2.11,0,0,1-1.38-3.71,2.06,2.06,0,0,1,1.37-.52,2.11,2.11,0,0,1,1.61.75,2.07,2.07,0,0,1,.5,1.53A2,2,0,0,1,100.26,114.51Z"/><path d="M79.36,46l.21,0Z"/><path d="M101.3,33a6.06,6.06,0,0,0-2.7-3.85,6.19,6.19,0,0,0-3.27-.94,6.12,6.12,0,0,0-5,9.61,13.35,13.35,0,0,1-9.94,4.29,29.44,29.44,0,0,0-10-2.32v4A24.65,24.65,0,0,1,79.1,46h0a21.58,21.58,0,0,1,8.6,7c-.13.17-.26.35-.38.54A6.14,6.14,0,0,0,89.25,62a6,6,0,0,0,3.27,1,6.12,6.12,0,0,0,3.27-11.3,6.22,6.22,0,0,0-4.67-.75,26,26,0,0,0-5.34-5.57,16.38,16.38,0,0,0,7.78-5.1,6.17,6.17,0,0,0,1.77.27,6.09,6.09,0,0,0,5.17-2.85A6,6,0,0,0,101.3,33ZM90.73,55.67a2.15,2.15,0,0,1,.68-.66,2.17,2.17,0,0,1,1.12-.31,2.09,2.09,0,0,1,1.12.32,2.12,2.12,0,0,1-1.13,3.91,2.13,2.13,0,0,1-1.79-3.26Zm6.38-20.18a2.14,2.14,0,0,1-2.91.65l-.09-.06a2.1,2.1,0,0,1-.56-2.85,2.07,2.07,0,0,1,1.78-1,2.15,2.15,0,0,1,1.13.32,2.11,2.11,0,0,1,.93,1.33A2.08,2.08,0,0,1,97.11,35.49Z"/><path d="M110,74a6,6,0,0,0,2.11,2.65l.28.19a6.12,6.12,0,1,0,6.54-10.35,6.19,6.19,0,0,0-3.27-.94l-.37,0a25.82,25.82,0,0,1,0-11.27l.34,0a6.12,6.12,0,1,0-4.15-1.63l.08.06a28.64,28.64,0,0,0,0,14.42c-.14.13-.29.25-.43.4a6.58,6.58,0,0,0-.63.82,6,6,0,0,0-.71,1.58A15.16,15.16,0,0,0,103,72.72c-2,1.32-4,2.57-9.64,2.66A32.72,32.72,0,0,0,88,75.27c-1.43,0-2.91.1-4.85,0-1.33-.07-2.1-.88-3.46-2.42-1.8-2.06-4.22-4.65-9.37-5v4c3.3.3,4.8,1.89,6.36,3.67s3.18,3.62,6.26,3.78c2.11.12,3.76,0,5.2,0A24.15,24.15,0,0,1,96,80c2.61.64,12.1,9.67,14.77,14.32-.1.14-.22.28-.31.43a6.1,6.1,0,0,0,1.62,8.25l.28.2a6.13,6.13,0,1,0,1.73-11.1c-2.56-4.19-8.65-10.46-13.19-13.79a18.42,18.42,0,0,0,4.21-2.19A11.39,11.39,0,0,1,110,74Zm3.88-26.92a2.08,2.08,0,0,1,1.78-1,2.15,2.15,0,0,1,1.13.32,2.09,2.09,0,0,1,.93,1.33,2,2,0,0,1-.27,1.58,2.14,2.14,0,0,1-2.92.66l-.09-.06A2.11,2.11,0,0,1,113.88,47.09Zm0,23.46a2.08,2.08,0,0,1,1.78-1,2.15,2.15,0,0,1,1.13.32,2.11,2.11,0,0,1,.93,1.33,2.07,2.07,0,0,1-.27,1.59,2.15,2.15,0,0,1-2.92.65l-.09-.06A2.11,2.11,0,0,1,113.88,70.55Zm0,26.3a2.1,2.1,0,0,1,1.78-1,2.12,2.12,0,0,1,1.79,3.24,2.15,2.15,0,0,1-2.92.65l-.09-.06A2.1,2.1,0,0,1,113.88,96.85Z"/></g><path class="cls-5" d="M103.53,111.93a6.12,6.12,0,0,0-10.72,4.73A19.62,19.62,0,0,1,87.48,118a4,4,0,0,1-2.22-1,10.7,10.7,0,0,0-4.15-1.84,37.62,37.62,0,0,0,8.59-12.84,6.09,6.09,0,1,0-3.86-1.18c-4,9.22-9.22,13.08-12.57,14.69a2,2,0,0,0-.36.17,10.91,10.91,0,0,1-2.56.8v4a12.63,12.63,0,0,0,4.25-1.19c5.35-1.36,6.84-.35,8.41.71A7.94,7.94,0,0,0,87.27,122h.31a23.61,23.61,0,0,0,7-1.72A6.12,6.12,0,0,0,98.89,122h0a6.11,6.11,0,0,0,4.64-10.1ZM87.66,95.15a2.1,2.1,0,0,1,1.82-1,2,2,0,0,1,1.07.3,2.11,2.11,0,0,1-1.08,3.93,2.17,2.17,0,0,1-1.08-.3,2.09,2.09,0,0,1-1-1.3A2.14,2.14,0,0,1,87.66,95.15Zm12.6,22.36a2.09,2.09,0,0,1-1.37.51,2.11,2.11,0,0,1-1.38-3.71,2.06,2.06,0,0,1,1.37-.52,2.11,2.11,0,0,1,1.61.75,2.07,2.07,0,0,1,.5,1.53A2,2,0,0,1,100.26,117.51Z"/><path d="M79.36,48.43l.21,0Z"/><path class="cls-5" d="M101.3,36a6,6,0,0,0-2.7-3.84,6.12,6.12,0,0,0-8.3,8.66,13.27,13.27,0,0,1-9.94,4.29,29.17,29.17,0,0,0-10-2.31v4A24.91,24.91,0,0,1,79.1,49h0a21.67,21.67,0,0,1,8.6,7l-.38.54a6.13,6.13,0,1,0,8.45-1.91,6.22,6.22,0,0,0-4.67-.75,26,26,0,0,0-5.34-5.57,16.43,16.43,0,0,0,7.78-5.09,6.16,6.16,0,0,0,1.77.26,6.06,6.06,0,0,0,5.17-2.85A6,6,0,0,0,101.3,36ZM90.73,58.68a2,2,0,0,1,.68-.66,2.12,2.12,0,0,1,2.24,0,2.12,2.12,0,0,1-1.13,3.91,2.07,2.07,0,0,1-1.13-.33A2.13,2.13,0,0,1,90.73,58.68Zm6.38-20.19a2.14,2.14,0,0,1-2.91.65l-.09-.06a2.11,2.11,0,0,1,1.22-3.83,2.11,2.11,0,0,1,1.78,3.24Z"/><path class="cls-5" d="M110,77a6,6,0,0,0,2.11,2.65l.28.19a6.12,6.12,0,1,0,6.54-10.35,6.19,6.19,0,0,0-3.27-.94l-.37,0a25.82,25.82,0,0,1,0-11.27l.34,0a6.12,6.12,0,1,0-4.15-1.63l.08.06a28.64,28.64,0,0,0,0,14.42c-.14.13-.29.25-.43.4a6.58,6.58,0,0,0-.63.82,6,6,0,0,0-.71,1.58A15.16,15.16,0,0,0,103,75.72c-2,1.32-4,2.57-9.64,2.66A32.72,32.72,0,0,0,88,78.27c-1.43,0-2.91.1-4.85,0-1.33-.07-2.1-.88-3.46-2.42-1.8-2.06-4.22-4.65-9.37-5v4c3.3.3,4.8,1.89,6.36,3.67s3.18,3.62,6.26,3.78c2.11.12,3.76,0,5.2,0A24.15,24.15,0,0,1,96,83c2.61.64,12.1,9.67,14.77,14.32-.1.14-.22.28-.31.43a6.1,6.1,0,0,0,1.62,8.25l.28.2a6.13,6.13,0,1,0,1.73-11.1c-2.56-4.19-8.65-10.46-13.19-13.79a18.42,18.42,0,0,0,4.21-2.19A11.39,11.39,0,0,1,110,77Zm3.88-26.92a2.08,2.08,0,0,1,1.78-1,2.15,2.15,0,0,1,1.13.32,2.09,2.09,0,0,1,.93,1.33,2,2,0,0,1-.27,1.58,2.14,2.14,0,0,1-2.92.66l-.09-.06A2.11,2.11,0,0,1,113.88,50.09Zm0,23.46a2.08,2.08,0,0,1,1.78-1,2.15,2.15,0,0,1,1.13.32,2.11,2.11,0,0,1,.93,1.33,2.07,2.07,0,0,1-.27,1.59,2.15,2.15,0,0,1-2.92.65l-.09-.06A2.11,2.11,0,0,1,113.88,73.55Zm0,26.3a2.1,2.1,0,0,1,1.78-1,2.12,2.12,0,0,1,1.79,3.24,2.15,2.15,0,0,1-2.92.65l-.09-.06A2.1,2.1,0,0,1,113.88,99.85Z"/><path class="cls-6" d="M103.53,108.93a6.12,6.12,0,0,0-10.72,4.73A19.62,19.62,0,0,1,87.48,115a4,4,0,0,1-2.22-1,10.7,10.7,0,0,0-4.15-1.84A37.62,37.62,0,0,0,89.7,99.34a6.09,6.09,0,1,0-3.86-1.18c-4,9.22-9.22,13.08-12.57,14.69a2,2,0,0,0-.36.17,10.91,10.91,0,0,1-2.56.8v4a12.63,12.63,0,0,0,4.25-1.19c5.35-1.36,6.84-.35,8.41.71A7.94,7.94,0,0,0,87.27,119h.31a23.61,23.61,0,0,0,7-1.72A6.12,6.12,0,0,0,98.89,119h0a6.11,6.11,0,0,0,4.64-10.1ZM87.66,92.15a2.1,2.1,0,0,1,1.82-1,2,2,0,0,1,1.07.3,2.11,2.11,0,0,1-1.08,3.93,2.17,2.17,0,0,1-1.08-.3,2.09,2.09,0,0,1-1-1.3A2.14,2.14,0,0,1,87.66,92.15Zm12.6,22.36a2.09,2.09,0,0,1-1.37.51,2.11,2.11,0,0,1-1.38-3.71,2.06,2.06,0,0,1,1.37-.52,2.11,2.11,0,0,1,1.61.75,2.07,2.07,0,0,1,.5,1.53A2,2,0,0,1,100.26,114.51Z"/><path class="cls-6" d="M79.36,46l.21,0Z"/><path class="cls-6" d="M101.3,33a6.06,6.06,0,0,0-2.7-3.85,6.19,6.19,0,0,0-3.27-.94,6.12,6.12,0,0,0-5,9.61,13.35,13.35,0,0,1-9.94,4.29,29.44,29.44,0,0,0-10-2.32v4A24.65,24.65,0,0,1,79.1,46h0a21.58,21.58,0,0,1,8.6,7c-.13.17-.26.35-.38.54A6.14,6.14,0,0,0,89.25,62a6,6,0,0,0,3.27,1,6.12,6.12,0,0,0,3.27-11.3,6.22,6.22,0,0,0-4.67-.75,26,26,0,0,0-5.34-5.57,16.38,16.38,0,0,0,7.78-5.1,6.17,6.17,0,0,0,1.77.27,6.09,6.09,0,0,0,5.17-2.85A6,6,0,0,0,101.3,33ZM90.73,55.67a2.15,2.15,0,0,1,.68-.66,2.17,2.17,0,0,1,1.12-.31,2.09,2.09,0,0,1,1.12.32,2.12,2.12,0,0,1-1.13,3.91,2.13,2.13,0,0,1-1.79-3.26Zm6.38-20.18a2.14,2.14,0,0,1-2.91.65l-.09-.06a2.1,2.1,0,0,1-.56-2.85,2.07,2.07,0,0,1,1.78-1,2.15,2.15,0,0,1,1.13.32,2.11,2.11,0,0,1,.93,1.33A2.08,2.08,0,0,1,97.11,35.49Z"/><path class="cls-6" d="M110,74a6,6,0,0,0,2.11,2.65l.28.19a6.12,6.12,0,1,0,6.54-10.35,6.19,6.19,0,0,0-3.27-.94l-.37,0a25.82,25.82,0,0,1,0-11.27l.34,0a6.12,6.12,0,1,0-4.15-1.63l.08.06a28.64,28.64,0,0,0,0,14.42c-.14.13-.29.25-.43.4a6.58,6.58,0,0,0-.63.82,6,6,0,0,0-.71,1.58A15.16,15.16,0,0,0,103,72.72c-2,1.32-4,2.57-9.64,2.66A32.72,32.72,0,0,0,88,75.27c-1.43,0-2.91.1-4.85,0-1.33-.07-2.1-.88-3.46-2.42-1.8-2.06-4.22-4.65-9.37-5v4c3.3.3,4.8,1.89,6.36,3.67s3.18,3.62,6.26,3.78c2.11.12,3.76,0,5.2,0A24.15,24.15,0,0,1,96,80c2.61.64,12.1,9.67,14.77,14.32-.1.14-.22.28-.31.43a6.1,6.1,0,0,0,1.62,8.25l.28.2a6.13,6.13,0,1,0,1.73-11.1c-2.56-4.19-8.65-10.46-13.19-13.79a18.42,18.42,0,0,0,4.21-2.19A11.39,11.39,0,0,1,110,74Zm3.88-26.92a2.08,2.08,0,0,1,1.78-1,2.15,2.15,0,0,1,1.13.32,2.09,2.09,0,0,1,.93,1.33,2,2,0,0,1-.27,1.58,2.14,2.14,0,0,1-2.92.66l-.09-.06A2.11,2.11,0,0,1,113.88,47.09Zm0,23.46a2.08,2.08,0,0,1,1.78-1,2.15,2.15,0,0,1,1.13.32,2.11,2.11,0,0,1,.93,1.33,2.07,2.07,0,0,1-.27,1.59,2.15,2.15,0,0,1-2.92.65l-.09-.06A2.11,2.11,0,0,1,113.88,70.55Zm0,26.3a2.1,2.1,0,0,1,1.78-1,2.12,2.12,0,0,1,1.79,3.24,2.15,2.15,0,0,1-2.92.65l-.09-.06A2.1,2.1,0,0,1,113.88,96.85Z"/><path class="cls-7" d="M64.08,43.3a13.07,13.07,0,0,1-2.62.83,1.8,1.8,0,0,0-.39.08c-3.64.68-10.08.61-18.77-4.43a6.12,6.12,0,0,0-3.45-7.45,6.11,6.11,0,1,0,1,10.68,37.77,37.77,0,0,0,14.48,5.28,10.65,10.65,0,0,0-2.26,3.93,4,4,0,0,1-1.22,2.09,19.9,19.9,0,0,1-5.07,2.06A6.11,6.11,0,0,0,34.4,58.88a6,6,0,0,0,1.45,4.44,6.1,6.1,0,0,0,8.24,1h0a6.09,6.09,0,0,0,2.42-3.94,23.5,23.5,0,0,0,6.67-2.74l.24-.19a7.92,7.92,0,0,0,2.46-3.85c.64-1.78,1.24-3.47,6.35-5.52a16.63,16.63,0,0,0,3.12-1.22v-4ZM38.41,38.78a2.08,2.08,0,0,1-.7.88,2.11,2.11,0,0,1-3.18-2.53,2,2,0,0,1,.69-.87A2.06,2.06,0,0,1,37.29,36a2.09,2.09,0,0,1,1.13,1.15A2,2,0,0,1,38.41,38.78Zm3.32,22.27a2.11,2.11,0,1,1-2.49-3.4,2,2,0,0,1,1.41-.4,2.11,2.11,0,0,1,1.94,2.26A2.13,2.13,0,0,1,41.73,61.05Z"/><path d="M58.89,111.65l-.18-.12Z"/><path class="cls-7" d="M59.31,112.44h0a21.58,21.58,0,0,1-5.59-9.59,4,4,0,0,0,.54-.37,6.18,6.18,0,1,0-4.46,1.17,26,26,0,0,0,3.06,7.07,16.38,16.38,0,0,0-9.06,2,5.92,5.92,0,0,0-1.56-.86,6.1,6.1,0,0,0-8.18,4.88,6.1,6.1,0,1,0,12-.67,13.32,13.32,0,0,1,10.8-.55,27,27,0,0,0,8.54,5.25v-4A24.63,24.63,0,0,1,59.31,112.44Zm-17.94,6.87a2.08,2.08,0,0,1-2,.29,2.16,2.16,0,0,1-.94-.69,2.11,2.11,0,0,1-.41-1.57,2.06,2.06,0,0,1,.82-1.39,2.14,2.14,0,0,1,3,.41l.06.09A2.1,2.1,0,0,1,41.37,119.31Zm7.5-20.41a2.11,2.11,0,1,1,3,.4,2.13,2.13,0,0,1-3-.4Z"/><path d="M58.89,109.25l-.18-.12Z"/><path d="M58.89,111.65l-.18-.12Z"/><path class="cls-7" d="M56,76.09c-1.35,1.54-2.12,2.35-3.45,2.42-1.93.1-3.41,0-4.84,0s-4-.82-8-2.61S27.61,66.25,24.94,61.61a4.25,4.25,0,0,0,.31-.43A6.09,6.09,0,0,0,23.64,53l-.29-.2A6.11,6.11,0,1,0,20.09,64a6.56,6.56,0,0,0,1.54-.19C24.18,68,31.88,75.89,34.79,77.59a18.34,18.34,0,0,0-4.2,2.18,11.22,11.22,0,0,1-4.85,2.06,6,6,0,0,0-2.1-2.64L23.35,79a6.11,6.11,0,0,0-6.52,10.33,6.15,6.15,0,0,0,3.26.94l.37,0a25.73,25.73,0,0,1,0,11.25l-.34,0a6.11,6.11,0,0,0-3.26,11.27,6.15,6.15,0,0,0,3.26.94,6.1,6.1,0,0,0,4.14-10.59.27.27,0,0,1-.08-.07,28.51,28.51,0,0,0,0-14.36c.15-.14.3-.26.44-.41a6.47,6.47,0,0,0,.63-.83A6.13,6.13,0,0,0,26,85.85a15.29,15.29,0,0,0,6.81-2.72,13.79,13.79,0,0,1,7.84-2.59,21.06,21.06,0,0,0,6.91,2,33.19,33.19,0,0,0,5.19,0c3.08-.16,4.76-2.08,6.25-3.77s3-3.48,6.39-3.91v-4C60.15,71.32,57.75,74,56,76.09ZM20.09,60A2.09,2.09,0,0,1,19,59.7,2.16,2.16,0,0,1,18,58.37a2.1,2.1,0,0,1,.28-1.58,2.14,2.14,0,0,1,2.91-.65l.09.06A2.1,2.1,0,0,1,21.87,59,2.08,2.08,0,0,1,20.09,60ZM19,85.94A2.12,2.12,0,0,1,18,84.62,2.09,2.09,0,0,1,18.31,83a2.15,2.15,0,0,1,2.91-.66l.09.07a2.1,2.1,0,0,1-1.22,3.82A2,2,0,0,1,19,85.94Zm2.9,22.76a2.11,2.11,0,0,1-2.9.66A2.16,2.16,0,0,1,18,108a2.09,2.09,0,0,1,.28-1.58,2.14,2.14,0,0,1,2.91-.65l.09.06A2.1,2.1,0,0,1,21.87,108.7Z"/><path class="cls-6" d="M64.08,40.3a13.07,13.07,0,0,1-2.62.83,1.8,1.8,0,0,0-.39.08c-3.64.68-10.08.61-18.77-4.43a6.12,6.12,0,0,0-3.45-7.45,6.11,6.11,0,1,0,1,10.68,37.77,37.77,0,0,0,14.48,5.28,10.65,10.65,0,0,0-2.26,3.93,4,4,0,0,1-1.22,2.09,19.9,19.9,0,0,1-5.07,2.06A6.11,6.11,0,0,0,34.4,55.88a6,6,0,0,0,1.45,4.44,6.1,6.1,0,0,0,8.24,1h0a6.09,6.09,0,0,0,2.42-3.94,23.5,23.5,0,0,0,6.67-2.74l.24-.19a7.92,7.92,0,0,0,2.46-3.85c.64-1.78,1.24-3.47,6.35-5.52a16.63,16.63,0,0,0,3.12-1.22v-4ZM38.41,35.78a2.08,2.08,0,0,1-.7.88,2.11,2.11,0,0,1-3.18-2.53,2,2,0,0,1,.69-.87A2.06,2.06,0,0,1,37.29,33a2.09,2.09,0,0,1,1.13,1.15A2,2,0,0,1,38.41,35.78Zm3.32,22.27a2.11,2.11,0,1,1-2.49-3.4,2,2,0,0,1,1.41-.4,2.11,2.11,0,0,1,1.94,2.26A2.13,2.13,0,0,1,41.73,58.05Z"/><path class="cls-6" d="M58.89,109.25l-.18-.12Z"/><path class="cls-6" d="M59.31,109.44h0a21.58,21.58,0,0,1-5.59-9.59,4,4,0,0,0,.54-.37,6.18,6.18,0,1,0-4.46,1.17,26,26,0,0,0,3.06,7.07,16.38,16.38,0,0,0-9.06,2,5.92,5.92,0,0,0-1.56-.86,6.1,6.1,0,0,0-8.18,4.88,6.1,6.1,0,1,0,12-.67,13.32,13.32,0,0,1,10.8-.55,27,27,0,0,0,8.54,5.25v-4A24.63,24.63,0,0,1,59.31,109.44Zm-17.94,6.87a2.08,2.08,0,0,1-2,.29,2.16,2.16,0,0,1-.94-.69,2.11,2.11,0,0,1-.41-1.57,2.06,2.06,0,0,1,.82-1.39,2.14,2.14,0,0,1,3,.41l.06.09A2.1,2.1,0,0,1,41.37,116.31Zm7.5-20.41a2.11,2.11,0,1,1,3,.4,2.13,2.13,0,0,1-3-.4Z"/><path class="cls-6" d="M56,73.1c-1.35,1.54-2.12,2.35-3.45,2.42-1.93.11-3.41,0-4.84,0s-4-.82-8-2.6S27.61,63.26,24.94,58.63a3.47,3.47,0,0,0,.31-.44A6.09,6.09,0,0,0,23.64,50l-.29-.19a6.11,6.11,0,1,0-1.72,11.07C24.18,65,31.88,72.9,34.79,74.6a18.33,18.33,0,0,0-4.2,2.19,11.34,11.34,0,0,1-4.85,2.06,6,6,0,0,0-2.1-2.64L23.35,76a6.1,6.1,0,1,0-3.26,11.26l.37,0a25.77,25.77,0,0,1,0,11.26l-.34,0a6.12,6.12,0,1,0,4.14,1.63l-.08-.07a28.55,28.55,0,0,0,0-14.37,5.62,5.62,0,0,0,.44-.41,5.74,5.74,0,0,0,.63-.82A6.13,6.13,0,0,0,26,82.87a15.17,15.17,0,0,0,6.81-2.73,13.87,13.87,0,0,1,7.84-2.58,21.56,21.56,0,0,0,6.91,2,34.46,34.46,0,0,0,5.19,0c3.08-.17,4.76-2.08,6.25-3.78s3-3.46,6.39-3.88v-4C60.15,68.34,57.75,71.05,56,73.1ZM20.09,57A2.14,2.14,0,0,1,18,55.39a2.12,2.12,0,0,1,.28-1.59,2.16,2.16,0,0,1,2.91-.65l.09.07A2.1,2.1,0,0,1,20.09,57ZM19,83a2.1,2.1,0,0,1-.66-2.91,2.14,2.14,0,0,1,2.91-.65l.09.06a2.1,2.1,0,0,1-1.22,3.82A2.09,2.09,0,0,1,19,83Zm2.9,22.76a2.11,2.11,0,1,1-3.56-2.26,2.14,2.14,0,0,1,2.91-.65l.09.07A2.1,2.1,0,0,1,21.87,105.72Z"/></g></g></svg>