<svg xmlns="http://www.w3.org/2000/svg" viewBox="0 0 150 150"><defs><style>.cls-1{isolation:isolate;}.cls-2{fill:#eb743b;}.cls-3{fill:#5aa854;}.cls-4{mix-blend-mode:multiply;opacity:0.07;}.cls-5{fill:#d3562c;}.cls-6{fill:#fffedb;}.cls-7{fill:#43883e;}</style></defs><g class="cls-1"><g id="Layer_1" data-name="Layer 1"><polygon class="cls-2" points="77.5 3 77.5 147 138.5 112 138.5 38 77.5 3"/><polygon class="cls-3" points="72.5 3 11.5 38 11.5 112 72.5 147 72.5 3"/><g class="cls-4"><path d="M94.8,94.73a2.12,2.12,0,0,1,1.82-1,2.17,2.17,0,0,1,1.08.3,2.12,2.12,0,0,1,.73,2.9,2.11,2.11,0,0,1-2.9.73,2.12,2.12,0,0,1-.73-2.9Zm12.6,22.37a2.06,2.06,0,0,1-1.37.5,2.1,2.1,0,1,1,2.11-1.94A2.14,2.14,0,0,1,107.4,117.1Z"/><path d="M86.5,48.61l.21,0Z"/><path d="M97.88,58.26a2,2,0,0,1,.67-.66,2.11,2.11,0,0,1,1.12-.32,2.12,2.12,0,1,1,0,4.23,2.12,2.12,0,0,1-1.78-3.25Zm6.38-20.19a2.14,2.14,0,0,1-2.91.65l-.1-.06a2.11,2.11,0,0,1,1.23-3.83,2,2,0,0,1,1.12.33,2.1,2.1,0,0,1,.66,2.91Z"/><path d="M121,49.67a2.11,2.11,0,0,1,2.9-.66,2.11,2.11,0,1,1-2.25,3.57l-.1-.06A2.1,2.1,0,0,1,121,49.67Zm0,23.46a2.09,2.09,0,0,1,1.78-1,2,2,0,0,1,1.12.33,2.07,2.07,0,0,1,.94,1.33,2.1,2.1,0,0,1-.28,1.58,2.14,2.14,0,0,1-2.91.65l-.1-.06A2.1,2.1,0,0,1,121,73.13Zm0,26.3a2.11,2.11,0,1,1,3.56,2.26,2.15,2.15,0,0,1-2.91.66l-.1-.07A2.1,2.1,0,0,1,121,99.43Z"/><path d="M110.68,109.1A6.12,6.12,0,0,0,100,113.84a20,20,0,0,1-5.33,1.33,4,4,0,0,1-2.22-1,10.78,10.78,0,0,0-4.15-1.85,37.66,37.66,0,0,0,8.58-12.83,6.12,6.12,0,1,0-5.48-9.24A6.12,6.12,0,0,0,93,98.34c-4,9.22-9.21,13.08-12.56,14.68a2,2,0,0,0-.36.17,11.22,11.22,0,0,1-2.56.81v4a12.69,12.69,0,0,0,4.25-1.19c5.34-1.36,6.84-.36,8.4.71a7.93,7.93,0,0,0,4.27,1.65h.31a23.69,23.69,0,0,0,7-1.72,6.14,6.14,0,0,0,4.28,1.75h0a6.11,6.11,0,0,0,4-1.48,6.13,6.13,0,0,0,.67-8.63ZM94.8,92.33a2.1,2.1,0,0,1,1.82-1,2.16,2.16,0,0,1,1.08.29,2.12,2.12,0,0,1,.73,2.9,2.08,2.08,0,0,1-1.81,1,2.12,2.12,0,0,1-1.09-.31,2.11,2.11,0,0,1-.73-2.89Zm12.6,22.36a2.07,2.07,0,0,1-1.37.51,2.11,2.11,0,1,1,2.11-2A2.14,2.14,0,0,1,107.4,114.69Z"/><path d="M86.5,46.21l.21,0Z"/><path d="M108.45,33.2a6.12,6.12,0,1,0-11,4.82,13.36,13.36,0,0,1-10,4.3A28.93,28.93,0,0,0,77.5,40v4a24.75,24.75,0,0,1,8.75,2.13h0a21.46,21.46,0,0,1,8.61,7,5.22,5.22,0,0,0-.38.54,6.12,6.12,0,1,0,8.45-1.91,6.24,6.24,0,0,0-4.67-.76,26,26,0,0,0-5.35-5.56,16.29,16.29,0,0,0,7.78-5.1,6.28,6.28,0,0,0,1.77.27,6.12,6.12,0,0,0,6-7.46ZM97.88,55.85a2,2,0,0,1,.67-.66,2.11,2.11,0,0,1,1.12-.32,2.16,2.16,0,0,1,1.13.33,2.12,2.12,0,1,1-2.92.65Zm6.38-20.19a2.13,2.13,0,0,1-2.91.66l-.1-.07a2.11,2.11,0,0,1,2.35-3.5,2.14,2.14,0,0,1,.94,1.33A2.09,2.09,0,0,1,104.26,35.66Z"/><path d="M117.15,74.19a6.05,6.05,0,0,0,2.1,2.65l.29.19a6.12,6.12,0,1,0,3.27-11.29h-.38a25.63,25.63,0,0,1,0-11.26l.34,0a6.12,6.12,0,1,0-4.15-1.62s0,0,.07.06a28.59,28.59,0,0,0,0,14.41c-.15.14-.3.26-.43.4a5.67,5.67,0,0,0-.63.83,5.73,5.73,0,0,0-.71,1.58,15.22,15.22,0,0,0-6.83,2.72c-2,1.33-4,2.58-9.63,2.67a32.82,32.82,0,0,0-5.29-.12,48.41,48.41,0,0,1-4.85,0c-1.34-.07-2.11-.89-3.46-2.43-1.8-2-4.22-4.65-9.37-5v4c3.29.3,4.8,1.89,6.36,3.67s3.17,3.61,6.25,3.78c2.12.11,3.76,0,5.21,0a24.43,24.43,0,0,1,7.86.68c2.6.65,12.09,9.68,14.77,14.33a4.25,4.25,0,0,0-.31.43,6.1,6.1,0,0,0,1.61,8.25l.29.19A6.12,6.12,0,1,0,126.07,93a6.18,6.18,0,0,0-3.26-.94,6,6,0,0,0-1.54.2c-2.56-4.19-8.66-10.46-13.19-13.8a17.66,17.66,0,0,0,4.21-2.19A11.33,11.33,0,0,1,117.15,74.19ZM121,47.26a2.11,2.11,0,1,1,3.56,2.26,2.14,2.14,0,0,1-2.91.65l-.1-.06A2.1,2.1,0,0,1,121,47.26Zm0,23.47a2.11,2.11,0,0,1,2.9-.66,2.11,2.11,0,1,1-2.25,3.57l-.1-.06A2.1,2.1,0,0,1,121,70.73ZM121,97a2.11,2.11,0,0,1,2.9-.66,2.11,2.11,0,1,1-2.25,3.57l-.1-.06A2.1,2.1,0,0,1,121,97Z"/></g><path class="cls-5" d="M110.68,112.1A6.12,6.12,0,0,0,100,116.84a20,20,0,0,1-5.33,1.33,4,4,0,0,1-2.22-1,10.78,10.78,0,0,0-4.15-1.85,37.66,37.66,0,0,0,8.58-12.83,6.12,6.12,0,1,0-5.48-9.24A6.12,6.12,0,0,0,93,101.34c-4,9.22-9.21,13.08-12.56,14.68a2,2,0,0,0-.36.17,11.22,11.22,0,0,1-2.56.81v4a12.69,12.69,0,0,0,4.25-1.19c5.34-1.36,6.84-.36,8.4.71a7.93,7.93,0,0,0,4.27,1.65h.31a23.69,23.69,0,0,0,7-1.72,6.14,6.14,0,0,0,4.28,1.75h0a6.11,6.11,0,0,0,4-1.48,6.13,6.13,0,0,0,.67-8.63ZM94.8,95.33a2.1,2.1,0,0,1,1.82-1,2.16,2.16,0,0,1,1.08.29,2.12,2.12,0,0,1,.73,2.9,2.08,2.08,0,0,1-1.81,1,2.12,2.12,0,0,1-1.09-.31,2.11,2.11,0,0,1-.73-2.89Zm12.6,22.36a2.07,2.07,0,0,1-1.37.51,2.11,2.11,0,1,1,2.11-2A2.14,2.14,0,0,1,107.4,117.69Z"/><path d="M86.5,48.61l.21,0Z"/><path class="cls-5" d="M108.45,36.21a6.12,6.12,0,0,0-2.71-3.85,6.18,6.18,0,0,0-3.26-.94,6.12,6.12,0,0,0-5,9.61,13.38,13.38,0,0,1-10,4.29A29.39,29.39,0,0,0,77.5,43v4a24.79,24.79,0,0,1,8.75,2.14h0a21.54,21.54,0,0,1,8.61,7,5.22,5.22,0,0,0-.38.54,6.14,6.14,0,0,0,1.9,8.44,6,6,0,0,0,3.27,1,6.13,6.13,0,0,0,3.28-11.31,6.23,6.23,0,0,0-4.67-.75,25.77,25.77,0,0,0-5.35-5.57,16.29,16.29,0,0,0,7.78-5.1,5.94,5.94,0,0,0,1.77.27,6.12,6.12,0,0,0,6-7.45ZM97.88,58.86a2.14,2.14,0,0,1,.67-.67,2.2,2.2,0,0,1,1.12-.31,2.12,2.12,0,1,1,0,4.23,2.12,2.12,0,0,1-1.78-3.25Zm6.38-20.19a2.14,2.14,0,0,1-2.91.65l-.1-.06a2.11,2.11,0,0,1,2.35-3.51,2.16,2.16,0,0,1,.94,1.33A2.12,2.12,0,0,1,104.26,38.67Z"/><path class="cls-5" d="M117.15,77.19a6.05,6.05,0,0,0,2.1,2.65l.29.19a6.12,6.12,0,1,0,3.27-11.29h-.38a25.63,25.63,0,0,1,0-11.26l.34,0a6.12,6.12,0,1,0-4.15-1.62s0,0,.07.06a28.59,28.59,0,0,0,0,14.41c-.15.14-.3.26-.43.4a5.67,5.67,0,0,0-.63.83,5.73,5.73,0,0,0-.71,1.58,15.22,15.22,0,0,0-6.83,2.72c-2,1.33-4,2.58-9.63,2.67a32.82,32.82,0,0,0-5.29-.12,48.41,48.41,0,0,1-4.85,0c-1.34-.07-2.11-.89-3.46-2.43-1.8-2-4.22-4.65-9.37-5v4c3.29.3,4.8,1.89,6.36,3.67s3.17,3.61,6.25,3.78c2.12.11,3.76,0,5.21,0a24.43,24.43,0,0,1,7.86.68c2.6.65,12.09,9.68,14.77,14.33a4.25,4.25,0,0,0-.31.43,6.1,6.1,0,0,0,1.61,8.25l.29.19A6.12,6.12,0,1,0,126.07,96a6.18,6.18,0,0,0-3.26-.94,6,6,0,0,0-1.54.2c-2.56-4.19-8.66-10.46-13.19-13.8a17.66,17.66,0,0,0,4.21-2.19A11.33,11.33,0,0,1,117.15,77.19ZM121,50.26a2.11,2.11,0,1,1,3.56,2.26,2.14,2.14,0,0,1-2.91.65l-.1-.06A2.1,2.1,0,0,1,121,50.26Zm0,23.47a2.11,2.11,0,0,1,2.9-.66,2.11,2.11,0,1,1-2.25,3.57l-.1-.06A2.1,2.1,0,0,1,121,73.73Zm0,26.3a2.11,2.11,0,0,1,2.9-.66,2.11,2.11,0,1,1-2.25,3.57l-.1-.06A2.1,2.1,0,0,1,121,100Z"/><path class="cls-6" d="M110.68,109.1A6.12,6.12,0,0,0,100,113.84a20,20,0,0,1-5.33,1.33,4,4,0,0,1-2.22-1,10.78,10.78,0,0,0-4.15-1.85,37.66,37.66,0,0,0,8.58-12.83,6.12,6.12,0,1,0-5.48-9.24A6.12,6.12,0,0,0,93,98.34c-4,9.22-9.21,13.08-12.56,14.68a2,2,0,0,0-.36.17,11.22,11.22,0,0,1-2.56.81v4a12.69,12.69,0,0,0,4.25-1.19c5.34-1.36,6.84-.36,8.4.71a7.93,7.93,0,0,0,4.27,1.65h.31a23.69,23.69,0,0,0,7-1.72,6.14,6.14,0,0,0,4.28,1.75h0a6.11,6.11,0,0,0,4-1.48,6.13,6.13,0,0,0,.67-8.63ZM94.8,92.33a2.1,2.1,0,0,1,1.82-1,2.16,2.16,0,0,1,1.08.29,2.12,2.12,0,0,1,.73,2.9,2.08,2.08,0,0,1-1.81,1,2.12,2.12,0,0,1-1.09-.31,2.11,2.11,0,0,1-.73-2.89Zm12.6,22.36a2.07,2.07,0,0,1-1.37.51,2.11,2.11,0,1,1,2.11-2A2.14,2.14,0,0,1,107.4,114.69Z"/><path class="cls-6" d="M86.5,46.21l.21,0Z"/><path class="cls-6" d="M108.45,33.2a6.12,6.12,0,1,0-11,4.82,13.36,13.36,0,0,1-10,4.3A28.93,28.93,0,0,0,77.5,40v4a24.75,24.75,0,0,1,8.75,2.13h0a21.46,21.46,0,0,1,8.61,7,5.22,5.22,0,0,0-.38.54,6.12,6.12,0,1,0,8.45-1.91,6.24,6.24,0,0,0-4.67-.76,26,26,0,0,0-5.35-5.56,16.29,16.29,0,0,0,7.78-5.1,6.28,6.28,0,0,0,1.77.27,6.12,6.12,0,0,0,6-7.46ZM97.88,55.85a2,2,0,0,1,.67-.66,2.11,2.11,0,0,1,1.12-.32,2.16,2.16,0,0,1,1.13.33,2.12,2.12,0,1,1-2.92.65Zm6.38-20.19a2.13,2.13,0,0,1-2.91.66l-.1-.07a2.11,2.11,0,0,1,2.35-3.5,2.14,2.14,0,0,1,.94,1.33A2.09,2.09,0,0,1,104.26,35.66Z"/><path class="cls-6" d="M117.15,74.19a6.05,6.05,0,0,0,2.1,2.65l.29.19a6.12,6.12,0,1,0,3.27-11.29h-.38a25.63,25.63,0,0,1,0-11.26l.34,0a6.12,6.12,0,1,0-4.15-1.62s0,0,.07.06a28.59,28.59,0,0,0,0,14.41c-.15.14-.3.26-.43.4a5.67,5.67,0,0,0-.63.83,5.73,5.73,0,0,0-.71,1.58,15.22,15.22,0,0,0-6.83,2.72c-2,1.33-4,2.58-9.63,2.67a32.82,32.82,0,0,0-5.29-.12,48.41,48.41,0,0,1-4.85,0c-1.34-.07-2.11-.89-3.46-2.43-1.8-2-4.22-4.65-9.37-5v4c3.29.3,4.8,1.89,6.36,3.67s3.17,3.61,6.25,3.78c2.12.11,3.76,0,5.21,0a24.43,24.43,0,0,1,7.86.68c2.6.65,12.09,9.68,14.77,14.33a4.25,4.25,0,0,0-.31.43,6.1,6.1,0,0,0,1.61,8.25l.29.19A6.12,6.12,0,1,0,126.07,93a6.18,6.18,0,0,0-3.26-.94,6,6,0,0,0-1.54.2c-2.56-4.19-8.66-10.46-13.19-13.8a17.66,17.66,0,0,0,4.21-2.19A11.33,11.33,0,0,1,117.15,74.19ZM121,47.26a2.11,2.11,0,1,1,3.56,2.26,2.14,2.14,0,0,1-2.91.65l-.1-.06A2.1,2.1,0,0,1,121,47.26Zm0,23.47a2.11,2.11,0,0,1,2.9-.66,2.11,2.11,0,1,1-2.25,3.57l-.1-.06A2.1,2.1,0,0,1,121,70.73ZM121,97a2.11,2.11,0,0,1,2.9-.66,2.11,2.11,0,1,1-2.25,3.57l-.1-.06A2.1,2.1,0,0,1,121,97Z"/><path class="cls-7" d="M71.23,43.47a12.5,12.5,0,0,1-2.62.84,2.66,2.66,0,0,0-.39.07c-3.64.69-10.08.62-18.78-4.42a6,6,0,0,0-.16-4.12A6.12,6.12,0,1,0,47,43.18a37.49,37.49,0,0,0,14.48,5.28,10.55,10.55,0,0,0-2.25,3.93A4.09,4.09,0,0,1,58,54.48,19.6,19.6,0,0,1,53,56.55a6.1,6.1,0,1,0-1.72,7.91h0a6.19,6.19,0,0,0,2.42-3.94,23.47,23.47,0,0,0,6.66-2.75l.25-.19A7.75,7.75,0,0,0,63,53.74c.64-1.78,1.25-3.47,6.36-5.53A16.29,16.29,0,0,0,72.5,47V43ZM45.56,39a2.05,2.05,0,0,1-.7.87,2.09,2.09,0,0,1-2.07.25,2.12,2.12,0,0,1-1.12-2.77,2.15,2.15,0,0,1,.7-.88A2.11,2.11,0,0,1,45.56,39Zm3.31,22.27a2.05,2.05,0,0,1-1.4.4A2.17,2.17,0,0,1,46,60.9a2.11,2.11,0,1,1,3.71-1.21A2.14,2.14,0,0,1,48.87,61.23Z"/><path d="M66,111.83l-.18-.12Z"/><path class="cls-7" d="M66.46,112.62h0a21.51,21.51,0,0,1-5.6-9.58l.55-.37a6.14,6.14,0,0,0,1.16-8.56A6.1,6.1,0,0,0,54,92.93a6.13,6.13,0,0,0-1.17,8.57,6.23,6.23,0,0,0,4.1,2.33A26.15,26.15,0,0,0,60,110.9a16.34,16.34,0,0,0-9.05,2,6.1,6.1,0,0,0-8.55,8.56,6.21,6.21,0,0,0,2.72,2,6.11,6.11,0,0,0,8-7.23A13.3,13.3,0,0,1,64,115.75,27,27,0,0,0,72.5,121v-4A24.26,24.26,0,0,1,66.46,112.62Zm-17.94,6.86a2.11,2.11,0,0,1-2,.3,2.05,2.05,0,0,1-.94-.7,2.1,2.1,0,0,1-.41-1.57,2,2,0,0,1,.81-1.38,2.14,2.14,0,0,1,3,.4l.07.1A2.1,2.1,0,0,1,48.52,119.48ZM56,99.07a2.09,2.09,0,0,1,.4-2.95,2.07,2.07,0,0,1,2-.3,2.16,2.16,0,0,1,.94.7,2.12,2.12,0,0,1-.41,3,2,2,0,0,1-.86.38A2.1,2.1,0,0,1,57,99.77,2,2,0,0,1,56,99.07Z"/><path d="M66,109.42l-.18-.12Z"/><path d="M66,111.83l-.18-.12Z"/><path class="cls-7" d="M63.1,76.27c-1.36,1.54-2.12,2.34-3.45,2.41-1.94.11-3.41,0-4.84,0s-4-.82-8-2.6S34.75,66.43,32.08,61.79c.11-.14.22-.28.32-.43a6.1,6.1,0,0,0-1.62-8.24l-.28-.19a6.09,6.09,0,0,0-8.42,1.9,6,6,0,0,0-.81,4.59,6.12,6.12,0,0,0,6,4.78,6,6,0,0,0,1.54-.2C31.33,68.18,39,76.06,41.93,77.77A18.16,18.16,0,0,0,37.73,80,11.17,11.17,0,0,1,32.88,82a6,6,0,0,0-2.1-2.64l-.28-.19a6.1,6.1,0,1,0-3.27,11.27c.13,0,.25,0,.38,0a25.63,25.63,0,0,1,0,11.26c-.11,0-.22,0-.33,0A6.11,6.11,0,0,0,24,112.92a6.11,6.11,0,0,0,7.4-9.65l-.09-.07a28.44,28.44,0,0,0,0-14.37,5.51,5.51,0,0,0,.43-.41,5.8,5.8,0,0,0,.64-.82A6.09,6.09,0,0,0,33.1,86a15.12,15.12,0,0,0,6.81-2.73,13.93,13.93,0,0,1,7.84-2.58,21.63,21.63,0,0,0,6.91,2,34.6,34.6,0,0,0,5.2,0c3.07-.17,4.76-2.08,6.24-3.77s3.05-3.49,6.4-3.91V71C67.3,71.5,64.89,74.22,63.1,76.27ZM27.23,60.2a2.12,2.12,0,0,1-2.05-1.65A2,2,0,0,1,25.46,57a2.14,2.14,0,0,1,2.9-.65l.1.07a2.11,2.11,0,0,1-1.23,3.82ZM26.11,86.12a2.06,2.06,0,0,1-.93-1.33,2,2,0,0,1,.28-1.58,2.13,2.13,0,0,1,2.9-.65l.1.06a2.11,2.11,0,0,1-1.23,3.83A2.15,2.15,0,0,1,26.11,86.12ZM29,108.88a2.09,2.09,0,0,1-1.78,1,2.12,2.12,0,0,1-2.05-1.65,2,2,0,0,1,.28-1.59,2.14,2.14,0,0,1,2.9-.65l.1.07A2.09,2.09,0,0,1,29,108.88Z"/><path class="cls-6" d="M71.23,40.47a12.5,12.5,0,0,1-2.62.84,2.66,2.66,0,0,0-.39.07c-3.64.69-10.08.62-18.78-4.42a6,6,0,0,0-.16-4.12A6.12,6.12,0,1,0,47,40.18a37.49,37.49,0,0,0,14.48,5.28,10.55,10.55,0,0,0-2.25,3.93A4.09,4.09,0,0,1,58,51.48,19.6,19.6,0,0,1,53,53.55a6.1,6.1,0,1,0-1.72,7.91h0a6.19,6.19,0,0,0,2.42-3.94,23.47,23.47,0,0,0,6.66-2.75l.25-.19A7.75,7.75,0,0,0,63,50.74c.64-1.78,1.25-3.47,6.36-5.53A16.29,16.29,0,0,0,72.5,44V40ZM45.56,36a2.05,2.05,0,0,1-.7.87,2.09,2.09,0,0,1-2.07.25,2.12,2.12,0,0,1-1.12-2.77,2.15,2.15,0,0,1,.7-.88A2.11,2.11,0,0,1,45.56,36Zm3.31,22.27a2.05,2.05,0,0,1-1.4.4A2.17,2.17,0,0,1,46,57.9a2.11,2.11,0,1,1,3.71-1.21A2.14,2.14,0,0,1,48.87,58.23Z"/><path class="cls-6" d="M66,109.42l-.18-.12Z"/><path class="cls-6" d="M66.46,109.62h0a21.51,21.51,0,0,1-5.6-9.58l.55-.37a6.14,6.14,0,0,0,1.16-8.56A6.1,6.1,0,0,0,54,89.93a6.13,6.13,0,0,0-1.17,8.57,6.23,6.23,0,0,0,4.1,2.33A26.15,26.15,0,0,0,60,107.9a16.34,16.34,0,0,0-9.05,2,6.1,6.1,0,0,0-8.55,8.56,6.21,6.21,0,0,0,2.72,2,6.11,6.11,0,0,0,8-7.23A13.3,13.3,0,0,1,64,112.75,27,27,0,0,0,72.5,118v-4A24.26,24.26,0,0,1,66.46,109.62Zm-17.94,6.86a2.11,2.11,0,0,1-2,.3,2.05,2.05,0,0,1-.94-.7,2.1,2.1,0,0,1-.41-1.57,2,2,0,0,1,.81-1.38,2.14,2.14,0,0,1,3,.4l.07.1A2.1,2.1,0,0,1,48.52,116.48ZM56,96.07a2.09,2.09,0,0,1,.4-2.95,2.07,2.07,0,0,1,2-.3,2.16,2.16,0,0,1,.94.7,2.12,2.12,0,0,1-.41,3,2,2,0,0,1-.86.38A2.1,2.1,0,0,1,57,96.77,2,2,0,0,1,56,96.07Z"/><path class="cls-6" d="M63.1,73.28c-1.36,1.54-2.12,2.35-3.45,2.42-1.94.1-3.41,0-4.84,0s-4-.82-8-2.6S34.75,63.44,32.08,58.8c.11-.14.22-.28.32-.43a6.09,6.09,0,0,0-1.62-8.23L30.5,50A6.1,6.1,0,1,0,24,60.27a6.16,6.16,0,0,0,4.79.75C31.33,65.2,39,73.08,41.93,74.78A18.55,18.55,0,0,0,37.73,77,11.29,11.29,0,0,1,32.88,79a6.05,6.05,0,0,0-2.1-2.65l-.28-.19a6.11,6.11,0,1,0-3.27,11.27c.13,0,.25,0,.38,0a25.58,25.58,0,0,1,0,11.25l-.33,0A6.11,6.11,0,1,0,32.4,108a6.11,6.11,0,0,0-1-7.75l-.09-.06a28.44,28.44,0,0,0,0-14.37c.14-.14.3-.26.43-.41a7.22,7.22,0,0,0,.64-.82A6,6,0,0,0,33.1,83a15.12,15.12,0,0,0,6.81-2.72,14,14,0,0,1,7.84-2.59,21.42,21.42,0,0,0,6.91,2,33.42,33.42,0,0,0,5.2,0c3.07-.16,4.76-2.08,6.24-3.77s3.05-3.46,6.4-3.89V68C67.3,68.51,64.89,71.23,63.1,73.28ZM27.23,57.21a2.14,2.14,0,0,1-1.12-.32,2.06,2.06,0,0,1-.93-1.33A2,2,0,0,1,25.46,54a2.13,2.13,0,0,1,2.9-.65l.1.06A2.1,2.1,0,0,1,29,56.24,2.08,2.08,0,0,1,27.23,57.21ZM26.11,83.14a2.11,2.11,0,0,1-.93-1.33,2,2,0,0,1,.28-1.58,2.13,2.13,0,0,1,2.9-.65l.1.06a2.11,2.11,0,0,1-1.23,3.82A2.14,2.14,0,0,1,26.11,83.14ZM29,105.89a2.07,2.07,0,0,1-1.78,1,2.14,2.14,0,0,1-1.12-.32,2.09,2.09,0,0,1-.93-1.33,2,2,0,0,1,.28-1.58,2.13,2.13,0,0,1,2.9-.65l.1.06A2.09,2.09,0,0,1,29,105.89Z"/></g></g></svg>