<svg id="Layer_1" data-name="Layer 1" xmlns="http://www.w3.org/2000/svg" viewBox="0 0 420 100"><defs><style>.cls-1{fill:#5aa854;}.cls-2{fill:#eb743b;}.cls-3{fill:#fffedb;}</style></defs><path class="cls-1" d="M119,28l7.75,29.54L135,28h14V72H138V63l.85-20.23L130,72h-7l-8.37-29.08L116,63v9H105V28Z"/><path class="cls-2" d="M243,72V28h15.21q7.85,0,12,3.1t4.13,9a11,11,0,0,1-1.5,5.83,8.77,8.77,0,0,1-4.42,3.65A8.53,8.53,0,0,1,273.27,53,10.85,10.85,0,0,1,275,59.26q0,6.54-3.88,9.55c-2.58,2-6.23,3.19-11.43,3.19Zm10.87-25.79h5.23c2.89-.08,4.34-1.58,4.34-4.52a5.19,5.19,0,0,0-1.08-3.7,4.42,4.42,0,0,0-3.3-1.11h-5.19Zm0,7.41v9.44h5.57a4.71,4.71,0,0,0,3.48-1.21,4.47,4.47,0,0,0,1.21-3.32c0-3.18-1.31-4.81-3.92-4.91Z"/><path class="cls-2" d="M300.07,44l-3.62-.7A5.39,5.39,0,0,0,291,46.87V71.82h-9.9V34.05h9.31l.28,4.09c1.56-3.19,2.85-4.32,5.59-4.32a13,13,0,0,1,3.82,1.27Z"/><path class="cls-2" d="M321,72V68.2c-1.76,2.41-5.84,3.8-8.84,3.8s-4.89-.53-7-2.61a11,11,0,0,1-3.1-8.1q0-5.91,3.76-9.13c2.51-2.16,5.38-2.91,10.09-3L320,49l-.34-3.17a5.69,5.69,0,0,0-.86-3.57A3.82,3.82,0,0,0,316,41c-2.45,0-4,1.13-4,4h-9a9.72,9.72,0,0,1,3.69-8.08C309.29,34.66,312,34,316,34s7.88.61,10.14,2.75a11.08,11.08,0,0,1,3.75,8.65V63.13c.05,3.25.28,5,1.16,6.87v2Zm-5.8-7.2a7.67,7.67,0,0,0,3.27-.4,2.73,2.73,0,0,0,1.27-1.27V54.27h-2.53a5.2,5.2,0,0,0-3.83,2.09,6.15,6.15,0,0,0-1.44,4.27C311.94,63.41,313,64.8,315.2,64.8Z"/><path class="cls-2" d="M363,34v4c2.21-2.94,5.34-4,8.91-4,6.43,0,9.9,3.61,10.09,12.67V72H372V48a9,9,0,0,0-1.33-4.79,3.7,3.7,0,0,0-3.34-1.44c-1.77,0-3.34.4-4.33,2.23V72H353V34Z"/><path class="cls-2" d="M399.86,63.13H414V72H387V64.4l14.14-21.53H387V34h27v7.6Z"/><rect class="cls-2" x="337" y="34" width="10" height="38"/><path class="cls-2" d="M346.93,26A5,5,0,1,0,337,26a5,5,0,0,0,9.93,0Z"/><path class="cls-1" d="M170,72q-7.55,0-11.76-4.5T154,54.64v-3q0-8.85,3.87-13.66c2.59-3.21,6.29-4,11.11-4s8.24.69,10.62,3.7S183,45.11,183,51v5H164c.14,2.8.52,4.7,1.61,6a6.17,6.17,0,0,0,5,1.94,10.9,10.9,0,0,0,8.2-3.42l3.84,5.91a12.61,12.61,0,0,1-5.22,4A17.92,17.92,0,0,1,170,72Zm-6.16-23h9.79v-.9A10.56,10.56,0,0,0,172.52,43a3.82,3.82,0,0,0-3.59-1.75,4.06,4.06,0,0,0-3.72,1.85A12.86,12.86,0,0,0,163.84,49Z"/><path class="cls-1" d="M200,25v9h5v7h-5V60c0,1.48,0,2.1.39,2.65a2.74,2.74,0,0,0,2.34.83A7.88,7.88,0,0,0,205,63v8a13.19,13.19,0,0,1-5,1c-6.32,0-9.93-2.75-10-10V41h-4V34h4V25Z"/><path class="cls-1" d="M228,72V68.2c-1.76,2.41-5.84,3.8-8.84,3.8s-4.89-.53-7-2.61a11,11,0,0,1-3.1-8.1q0-5.91,3.76-9.13c2.51-2.16,5.38-2.91,10.09-3L227,49l-.34-3.17a5.69,5.69,0,0,0-.86-3.57A3.82,3.82,0,0,0,223,41c-2.45,0-4,1.13-4,4h-9a9.72,9.72,0,0,1,3.69-8.08C216.29,34.66,219,34,223,34s7.88.61,10.14,2.75a11.08,11.08,0,0,1,3.75,8.65V63.13c0,3.25.28,5,1.16,6.87v2Zm-5.8-7.2a7.67,7.67,0,0,0,3.27-.4,2.73,2.73,0,0,0,1.27-1.27V54.27h-2.53a5.2,5.2,0,0,0-3.83,2.09,6.15,6.15,0,0,0-1.44,4.27C218.94,63.41,220,64.8,222.2,64.8Z"/><polygon class="cls-2" points="47 2 47 98 88 74 88 26 47 2"/><polygon class="cls-1" points="44 2 3 26 3 74 44 98 44 2"/><path class="cls-3" d="M79.28,58.09a6.75,6.75,0,0,0-7.67-2.86A18.09,18.09,0,0,0,63,49.6a28.62,28.62,0,0,0,5.91-6.16,6.91,6.91,0,0,0,5.17-.83,6.77,6.77,0,1,0-9.34-2.11,6.27,6.27,0,0,0,.42.59,23.88,23.88,0,0,1-9.52,7.79h0A18.45,18.45,0,0,1,47,51v5c4,0,5.93-1.12,10-2.9a14.78,14.78,0,0,1,11,4.75,6.76,6.76,0,1,0,12.16,5.32A6.64,6.64,0,0,0,79.28,58.09ZM69.06,34.67a2.57,2.57,0,0,1,1.4-.41,2.62,2.62,0,1,1,0,5.24,2.61,2.61,0,0,1-2.22-1.21A2.63,2.63,0,0,1,69.06,34.67Zm7.06,27.6A2.61,2.61,0,0,1,75,63.91a2.56,2.56,0,0,1-1.39.41,2.62,2.62,0,0,1-1.52-4.75l.12-.07a2.65,2.65,0,0,1,3.6.8A2.59,2.59,0,0,1,76.12,62.27Z"/><path class="cls-3" d="M11.72,41.91a6.75,6.75,0,0,0,7.67,2.86A18.09,18.09,0,0,0,28,50.4a28.62,28.62,0,0,0-5.91,6.16,6.91,6.91,0,0,0-5.17.83,6.77,6.77,0,1,0,9.34,2.11,6.27,6.27,0,0,0-.42-.59,23.88,23.88,0,0,1,9.52-7.79h0A18.45,18.45,0,0,1,44,49V44c-4,0-5.93,1.12-10,2.9a14.78,14.78,0,0,1-11-4.75,6.76,6.76,0,1,0-12.16-5.32A6.64,6.64,0,0,0,11.72,41.91ZM21.94,65.33a2.57,2.57,0,0,1-1.4.41,2.62,2.62,0,1,1,0-5.24,2.61,2.61,0,0,1,2.22,1.21A2.63,2.63,0,0,1,21.94,65.33Zm-7.06-27.6A2.61,2.61,0,0,1,16,36.09a2.56,2.56,0,0,1,1.39-.41A2.62,2.62,0,0,1,19,40.43l-.12.07a2.65,2.65,0,0,1-3.6-.8A2.59,2.59,0,0,1,14.88,37.73Z"/></svg>