<svg id="Layer_1" data-name="Layer 1" xmlns="http://www.w3.org/2000/svg" viewBox="0 0 458.82 100"><defs><style>.cls-1{fill:#5aa854;}.cls-2{fill:#eb743b;}.cls-3{fill:#fffedb;}</style></defs><path class="cls-1" d="M118.05,28,129,57.54,139.85,28h14.4v43.8H143.31V63l1.13-23L132.6,71.82h-7.26l-11.8-31.77L114.66,63v8.87H103.72V28Z"/><path class="cls-1" d="M179.08,72.51q-8.24,0-13.41-5.05T160.5,54V53A22.62,22.62,0,0,1,162.68,43a16,16,0,0,1,6.18-6.85,17.33,17.33,0,0,1,9.11-2.4q7.68,0,12.09,4.84t4.41,13.73v4.08H170.64a9.22,9.22,0,0,0,2.92,5.88,8.83,8.83,0,0,0,6.18,2.22,10.78,10.78,0,0,0,9-4.19l4.91,5.5a14.93,14.93,0,0,1-6.08,5A20,20,0,0,1,179.08,72.51Zm-1.14-30.75a6.26,6.26,0,0,0-4.83,2,10.49,10.49,0,0,0-2.37,5.77h13.91v-.8a7.45,7.45,0,0,0-1.8-5.16A6.44,6.44,0,0,0,177.94,41.76Z"/><path class="cls-1" d="M212.11,25.2v9.2h6.4v7.33h-6.4V60.41a4.45,4.45,0,0,0,.8,3,4,4,0,0,0,3,.9,16,16,0,0,0,2.94-.24v7.58a20.9,20.9,0,0,1-6,.89q-10.51,0-10.73-10.61V41.73h-5.46V34.4h5.46V25.2Z"/><path class="cls-1" d="M245.77,71.82a10.87,10.87,0,0,1-1-3.35,12.08,12.08,0,0,1-9.44,4,13.23,13.23,0,0,1-9.11-3.18,10.22,10.22,0,0,1-3.62-8A10.57,10.57,0,0,1,227,52.18Q231.41,49,239.75,49h4.6V46.82A6.24,6.24,0,0,0,243,42.66a5.27,5.27,0,0,0-4.21-1.55,6,6,0,0,0-4,1.21,4.13,4.13,0,0,0-1.43,3.32h-10a10,10,0,0,1,2-6,13.27,13.27,0,0,1,5.67-4.34,20.65,20.65,0,0,1,8.23-1.57q6.91,0,11,3.47T254.38,47V63.18c0,3.55.52,6.23,1.49,8.06v.58Zm-8.27-6.95a8.58,8.58,0,0,0,4.08-1,6.39,6.39,0,0,0,2.77-2.64V54.81h-3.74q-7.5,0-8,5.18l0,.59a4,4,0,0,0,1.31,3.08A5.11,5.11,0,0,0,237.5,64.87Z"/><path class="cls-2" d="M261.94,71.82V28h16.92q8.76,0,13.46,3.11a10.15,10.15,0,0,1,4.7,9A10.07,10.07,0,0,1,295.31,46a9.83,9.83,0,0,1-4.91,3.67A9.7,9.7,0,0,1,296,53.2a10,10,0,0,1,2,6.09c0,4.32-1.5,7.5-4.48,9.51s-7.32,3-13,3Zm10.9-25.56h6.7c4.38,0,6.58-1.54,6.58-4.61a4.25,4.25,0,0,0-1.6-3.75,8.53,8.53,0,0,0-4.87-1.12h-6.81Zm0,7.4v9.4h7.67a8.26,8.26,0,0,0,4.89-1.24,3.88,3.88,0,0,0,1.73-3.29c0-3.14-1.92-4.77-5.75-4.87Z"/><path class="cls-2" d="M325.69,43.77a28.13,28.13,0,0,0-3.6-.28q-5.67,0-7.44,3.84V71.82h-10V34.4h9.44l.27,4.46q3-5.16,8.34-5.15a10.39,10.39,0,0,1,3.11.45Z"/><path class="cls-2" d="M351.14,71.82a11.16,11.16,0,0,1-1-3.35,12.08,12.08,0,0,1-9.44,4,13.25,13.25,0,0,1-9.12-3.18,10.22,10.22,0,0,1-3.61-8,10.57,10.57,0,0,1,4.41-9.13Q336.79,49,345.12,49h4.6V46.82a6.18,6.18,0,0,0-1.33-4.16,5.25,5.25,0,0,0-4.2-1.55,6,6,0,0,0-4,1.21,4.11,4.11,0,0,0-1.44,3.32h-10a10.09,10.09,0,0,1,2-6,13.31,13.31,0,0,1,5.68-4.34,20.65,20.65,0,0,1,8.23-1.57q6.92,0,11,3.47T359.76,47V63.18c0,3.55.51,6.23,1.48,8.06v.58Zm-8.26-6.95a8.6,8.6,0,0,0,4.08-1,6.42,6.42,0,0,0,2.76-2.64V54.81H346q-7.5,0-8,5.18l0,.59a4,4,0,0,0,1.32,3.08A5.09,5.09,0,0,0,342.88,64.87Z"/><path class="cls-2" d="M367.37,24.71a4.93,4.93,0,0,1,1.5-3.7,6.49,6.49,0,0,1,8.18,0,4.87,4.87,0,0,1,1.52,3.7A4.91,4.91,0,0,1,377,28.45a6.41,6.41,0,0,1-8.12,0A4.91,4.91,0,0,1,367.37,24.71ZM378,71.82H368V34.4h10Z"/><path class="cls-2" d="M395.42,34.4l.31,4.32a13.07,13.07,0,0,1,10.76-5q5.94,0,8.85,3.49t3,10.45V71.82h-10v-24c0-2.12-.46-3.67-1.38-4.63s-2.46-1.44-4.6-1.44A6.87,6.87,0,0,0,396,45.37V71.82H386V34.4Z"/><path class="cls-2" d="M437.38,63.76h18.29v8.06H424.61V65.74l17.61-23.28H425.13V34.4h30v5.89Z"/><polygon class="cls-2" points="47 2 47 98 88 74 88 26 47 2"/><polygon class="cls-1" points="44 2 3 26 3 74 44 98 44 2"/><path class="cls-3" d="M79.28,58.09a6.75,6.75,0,0,0-7.67-2.86A18.09,18.09,0,0,0,63,49.6a28.62,28.62,0,0,0,5.91-6.16,6.91,6.91,0,0,0,5.17-.83,6.77,6.77,0,1,0-9.34-2.11,6.27,6.27,0,0,0,.42.59,23.88,23.88,0,0,1-9.52,7.79h0A18.45,18.45,0,0,1,47,51v5c4,0,5.93-1.12,10-2.9a14.78,14.78,0,0,1,11,4.75,6.76,6.76,0,1,0,12.16,5.32A6.64,6.64,0,0,0,79.28,58.09ZM69.06,34.67a2.57,2.57,0,0,1,1.4-.41,2.62,2.62,0,1,1,0,5.24,2.61,2.61,0,0,1-2.22-1.21A2.63,2.63,0,0,1,69.06,34.67Zm7.06,27.6A2.61,2.61,0,0,1,75,63.91a2.56,2.56,0,0,1-1.39.41,2.62,2.62,0,0,1-1.52-4.75l.12-.07a2.65,2.65,0,0,1,3.6.8A2.59,2.59,0,0,1,76.12,62.27Z"/><path class="cls-3" d="M11.72,41.91a6.75,6.75,0,0,0,7.67,2.86A18.09,18.09,0,0,0,28,50.4a28.62,28.62,0,0,0-5.91,6.16,6.91,6.91,0,0,0-5.17.83,6.77,6.77,0,1,0,9.34,2.11,6.27,6.27,0,0,0-.42-.59,23.88,23.88,0,0,1,9.52-7.79h0A18.45,18.45,0,0,1,44,49V44c-4,0-5.93,1.12-10,2.9a14.78,14.78,0,0,1-11-4.75,6.76,6.76,0,1,0-12.16-5.32A6.64,6.64,0,0,0,11.72,41.91ZM21.94,65.33a2.57,2.57,0,0,1-1.4.41,2.62,2.62,0,1,1,0-5.24,2.61,2.61,0,0,1,2.22,1.21A2.63,2.63,0,0,1,21.94,65.33Zm-7.06-27.6A2.61,2.61,0,0,1,16,36.09a2.56,2.56,0,0,1,1.39-.41A2.62,2.62,0,0,1,19,40.43l-.12.07a2.65,2.65,0,0,1-3.6-.8A2.59,2.59,0,0,1,14.88,37.73Z"/></svg>