<svg xmlns="http://www.w3.org/2000/svg" xmlns:xlink="http://www.w3.org/1999/xlink" width="145" height="160"><path fill="#EB743B" d="M75.354 7.823v144l61-35v-74z"/><path fill="#5AA854" d="M70.354 7.823l-61 35v74l61 35z"/><g opacity=".07"><defs><path id="a" d="M75.354 33.239h51.433v90.792H75.354z"/></defs><clipPath id="b"><use xlink:href="#a" overflow="visible"/></clipPath><path clip-path="url(#b)" d="M92.657 99.557a2.1 2.1 0 011.819-1.03c.378 0 .752.104 1.078.297a2.12 2.12 0 01.735 2.898 2.097 2.097 0 01-1.817 1.032c-.379 0-.755-.105-1.084-.301a2.092 2.092 0 01-.964-1.294 2.1 2.1 0 01.233-1.602m12.602 22.362a2.121 2.121 0 01-2.981-.225 2.116 2.116 0 01.231-2.981 2.08 2.08 0 011.373-.512 2.117 2.117 0 012.109 2.278 2.086 2.086 0 01-.732 1.44M95.734 63.08a2.128 2.128 0 012.916-.656 2.12 2.12 0 01.66 2.919 2.115 2.115 0 01-2.919.661 2.128 2.128 0 01-.657-2.924m6.379-20.187c-.6.951-1.937 1.271-2.912.653l-.096-.062a2.107 2.107 0 01-.557-2.851 2.093 2.093 0 011.784-.98 2.11 2.11 0 011.781 3.24M118.88 54.491a2.096 2.096 0 011.783-.98c.4 0 .79.113 1.125.325.481.304.813.775.937 1.33a2.08 2.08 0 01-.28 1.584c-.597.951-1.938 1.273-2.912.653l-.093-.062a2.105 2.105 0 01-.56-2.85m0 23.463a2.096 2.096 0 011.783-.98c.4 0 .79.112 1.125.326.481.304.813.774.937 1.329a2.083 2.083 0 01-.28 1.585c-.597.95-1.938 1.271-2.912.652l-.093-.062a2.105 2.105 0 01-.56-2.85m0 26.303a2.099 2.099 0 011.783-.98c.4 0 .79.113 1.125.326.481.304.813.775.937 1.33a2.08 2.08 0 01-.28 1.584c-.597.951-1.938 1.271-2.912.653l-.093-.062a2.107 2.107 0 01-.56-2.851"/><path clip-path="url(#b)" d="M108.53 113.927a6.11 6.11 0 00-8.631-.662 6.12 6.12 0 00-2.087 5.396c-1.949.701-4.258 1.366-5.328 1.332-.822-.043-1.302-.345-2.224-.971-1.172-.795-2.418-1.512-4.149-1.847 2.936-2.761 6.009-6.83 8.584-12.834a6.15 6.15 0 005.039-2.972c1.724-2.896.773-6.659-2.124-8.394a6.133 6.133 0 00-3.134-.864 6.154 6.154 0 00-5.261 2.986 6.079 6.079 0 00-.678 4.636 6.075 6.075 0 002.302 3.429c-4.053 9.218-9.219 13.08-12.565 14.685a2.016 2.016 0 00-.361.168c-1.186.531-2.05.704-2.558.808v4c.275-.03 1.884-.118 4.247-1.192 5.347-1.357 6.839-.354 8.407.709 1.021.692 2.291 1.554 4.263 1.655.099.006.204.009.308.009 2.11 0 5.172-1.022 7.021-1.723a6.132 6.132 0 004.285 1.75 6.112 6.112 0 003.983-1.476 6.072 6.072 0 002.119-4.176 6.072 6.072 0 00-1.458-4.452M92.657 97.151a2.114 2.114 0 013.632 2.165 2.097 2.097 0 01-1.817 1.032c-.379 0-.755-.105-1.084-.301a2.092 2.092 0 01-.964-1.294 2.101 2.101 0 01.233-1.602m12.602 22.363a2.121 2.121 0 01-2.981-.225 2.116 2.116 0 01.231-2.981 2.08 2.08 0 011.373-.512 2.117 2.117 0 012.109 2.278 2.086 2.086 0 01-.732 1.44M106.304 38.027a6.088 6.088 0 00-2.708-3.844 6.12 6.12 0 00-3.264-.944 6.076 6.076 0 00-5.174 2.85 6.108 6.108 0 00.144 6.758c-3.646 4.124-8.707 4.314-9.943 4.293-3.692-1.604-7.234-2.164-10.005-2.317v3.996c2.442.144 5.553.686 8.748 2.136.005.002.01.002.015.005 3.445 1.562 6.334 3.927 8.607 7.041a6.364 6.364 0 00-.381.538c-1.796 2.854-.943 6.643 1.903 8.444.98.622 2.111.951 3.269.951a6.105 6.105 0 005.183-2.851c1.806-2.851.951-6.642-1.908-8.453-1.384-.872-3.092-1.114-4.667-.755-1.538-2.155-3.323-4.017-5.345-5.567 2.517-.778 5.401-2.268 7.78-5.095a6.18 6.18 0 001.77.266 6.08 6.08 0 005.172-2.848 6.053 6.053 0 00.804-4.604m-10.57 22.647a2.128 2.128 0 012.916-.656 2.12 2.12 0 01.66 2.919 2.115 2.115 0 01-2.919.661 2.128 2.128 0 01-.657-2.924m6.379-20.187c-.6.951-1.937 1.271-2.912.653l-.096-.062a2.107 2.107 0 01-.557-2.851 2.093 2.093 0 011.784-.98 2.11 2.11 0 011.781 3.24"/><path clip-path="url(#b)" d="M115 79.011a6.036 6.036 0 002.11 2.649 6.098 6.098 0 003.55 1.14 6.083 6.083 0 005.173-2.848 6.064 6.064 0 00.805-4.605 6.103 6.103 0 00-2.709-3.844 6.128 6.128 0 00-3.266-.944c-.125 0-.25.008-.375.018-.71-3.158-.919-7.769.035-11.265.113.011.225.024.337.024a6.08 6.08 0 005.173-2.848 6.062 6.062 0 00.805-4.604 6.103 6.103 0 00-2.709-3.844 6.128 6.128 0 00-3.266-.944 6.079 6.079 0 00-5.173 2.85 6.104 6.104 0 001.025 7.764c.021.02.048.037.071.059-1.349 4.518-1.145 10.324-.036 14.417-.144.132-.294.254-.426.399a6.327 6.327 0 00-.634.825 6.2 6.2 0 00-.71 1.578c-3.371.488-5.198 1.671-6.824 2.729-2.035 1.324-3.961 2.572-9.636 2.666-1.963-.23-3.552-.178-5.29-.116-1.43.052-2.91.105-4.848.003-1.335-.071-2.104-.882-3.458-2.424-1.803-2.055-4.219-4.648-9.369-5.022v4c3.295.299 4.796 1.887 6.356 3.667 1.487 1.694 3.175 3.615 6.256 3.782 2.118.114 3.76.052 5.208.001 2.491-.092 4.453-.161 7.855.683 2.608.644 12.099 9.674 14.774 14.323-.109.142-.219.282-.314.434-1.743 2.755-1.026 6.385 1.62 8.251.072.052.151.104.283.191.981.621 2.11.948 3.267.948a6.081 6.081 0 005.173-2.849 6.06 6.06 0 00.805-4.603 6.1 6.1 0 00-2.709-3.845 6.128 6.128 0 00-4.809-.749c-2.56-4.188-8.652-10.455-13.189-13.792 1.813-.628 3.05-1.436 4.212-2.188 1.427-.93 2.614-1.69 4.857-2.067m3.88-26.926a2.096 2.096 0 011.783-.98c.4 0 .79.113 1.125.325.481.304.813.775.937 1.33a2.08 2.08 0 01-.28 1.584c-.597.951-1.938 1.273-2.912.653l-.093-.062a2.105 2.105 0 01-.56-2.85m0 23.463a2.096 2.096 0 011.783-.98c.4 0 .79.112 1.125.326.481.304.813.774.937 1.329a2.083 2.083 0 01-.28 1.585c-.597.95-1.938 1.272-2.912.652l-.093-.062a2.105 2.105 0 01-.56-2.85m0 26.304a2.099 2.099 0 011.783-.98c.4 0 .79.113 1.125.326.481.304.813.775.937 1.33a2.08 2.08 0 01-.28 1.584c-.597.951-1.938 1.271-2.912.653l-.093-.062a2.107 2.107 0 01-.56-2.851"/></g><path fill="#D3562C" d="M108.53 116.927a6.11 6.11 0 00-8.631-.662 6.12 6.12 0 00-2.087 5.396c-1.949.701-4.258 1.366-5.328 1.332-.822-.043-1.302-.345-2.224-.971-1.172-.795-2.418-1.512-4.149-1.847 2.936-2.761 6.009-6.83 8.584-12.834a6.15 6.15 0 005.039-2.972c1.724-2.896.773-6.659-2.124-8.394a6.133 6.133 0 00-3.134-.864 6.154 6.154 0 00-5.261 2.986 6.079 6.079 0 00-.678 4.636 6.075 6.075 0 002.302 3.429c-4.053 9.218-9.219 13.08-12.565 14.685a2.016 2.016 0 00-.361.168c-1.186.531-2.05.704-2.558.808v4c.275-.03 1.884-.118 4.247-1.192 5.347-1.357 6.839-.354 8.407.709 1.021.692 2.291 1.554 4.263 1.655.099.006.204.009.308.009 2.11 0 5.172-1.022 7.021-1.723a6.132 6.132 0 004.285 1.75 6.112 6.112 0 003.983-1.476 6.072 6.072 0 002.119-4.176 6.072 6.072 0 00-1.458-4.452m-15.873-16.776a2.114 2.114 0 013.632 2.165 2.097 2.097 0 01-1.817 1.032c-.379 0-.755-.105-1.084-.301a2.092 2.092 0 01-.964-1.294 2.101 2.101 0 01.233-1.602m12.602 22.363a2.121 2.121 0 01-2.981-.225 2.116 2.116 0 01.231-2.981 2.08 2.08 0 011.373-.512 2.117 2.117 0 012.109 2.278 2.086 2.086 0 01-.732 1.44"/><path d="M84.355 53.434"/><path fill="#D3562C" d="M106.304 41.031a6.088 6.088 0 00-2.708-3.844 6.12 6.12 0 00-3.264-.944 6.076 6.076 0 00-5.174 2.85 6.108 6.108 0 00.144 6.758c-3.646 4.124-8.707 4.314-9.943 4.293-3.692-1.604-7.234-2.164-10.005-2.317v3.996c2.442.144 5.553.686 8.748 2.136.005.002.01.002.015.005 3.445 1.562 6.334 3.927 8.607 7.041a6.206 6.206 0 00-.381.538c-1.796 2.854-.943 6.643 1.903 8.444.98.622 2.111.951 3.269.951a6.105 6.105 0 005.183-2.851c1.806-2.851.951-6.642-1.908-8.453-1.384-.872-3.092-1.114-4.667-.755-1.538-2.155-3.323-4.017-5.345-5.567 2.517-.778 5.401-2.268 7.78-5.095a6.18 6.18 0 001.77.266 6.08 6.08 0 005.172-2.849 6.05 6.05 0 00.804-4.603m-10.57 22.647a2.128 2.128 0 012.916-.656 2.12 2.12 0 01.66 2.919 2.115 2.115 0 01-2.919.661 2.128 2.128 0 01-.657-2.924m6.379-20.187c-.6.951-1.937 1.271-2.912.653l-.096-.062a2.107 2.107 0 01-.557-2.851 2.093 2.093 0 011.784-.98 2.11 2.11 0 011.781 3.24"/><path fill="#D3562C" d="M115 82.011a6.036 6.036 0 002.11 2.649 6.098 6.098 0 003.55 1.14 6.081 6.081 0 005.173-2.849 6.063 6.063 0 00.805-4.604 6.103 6.103 0 00-2.709-3.844 6.128 6.128 0 00-3.266-.944c-.125 0-.25.008-.375.018-.71-3.158-.919-7.769.035-11.265.113.011.225.024.337.024a6.08 6.08 0 005.173-2.848 6.062 6.062 0 00.805-4.604 6.103 6.103 0 00-2.709-3.844 6.128 6.128 0 00-3.266-.944 6.079 6.079 0 00-5.173 2.85 6.104 6.104 0 001.025 7.764c.021.02.048.037.071.059-1.349 4.518-1.145 10.324-.036 14.417-.144.132-.294.254-.426.399a6.327 6.327 0 00-.634.825 6.2 6.2 0 00-.71 1.578c-3.371.488-5.198 1.671-6.824 2.729-2.035 1.323-3.961 2.571-9.636 2.665-1.963-.23-3.552-.178-5.29-.116-1.43.052-2.91.105-4.848.003-1.335-.071-2.104-.882-3.458-2.424-1.803-2.055-4.219-4.648-9.369-5.022v4c3.295.298 4.796 1.887 6.356 3.667 1.487 1.694 3.175 3.615 6.256 3.782 2.118.114 3.76.052 5.208.001 2.491-.092 4.453-.161 7.855.683 2.608.644 12.099 9.674 14.774 14.323-.109.142-.219.282-.314.434-1.743 2.755-1.026 6.385 1.62 8.251.072.052.151.104.283.191.981.621 2.11.948 3.267.948a6.081 6.081 0 005.173-2.849 6.06 6.06 0 00.805-4.603 6.1 6.1 0 00-2.709-3.845 6.128 6.128 0 00-4.809-.749c-2.56-4.188-8.652-10.455-13.189-13.792 1.813-.628 3.05-1.436 4.212-2.188 1.427-.929 2.614-1.689 4.857-2.066m3.88-26.926a2.096 2.096 0 011.783-.98c.4 0 .79.113 1.125.325.481.304.813.775.937 1.33a2.08 2.08 0 01-.28 1.584c-.597.951-1.938 1.273-2.912.653l-.093-.062a2.105 2.105 0 01-.56-2.85m0 23.463a2.096 2.096 0 011.783-.98c.4 0 .79.112 1.125.326.481.304.813.774.937 1.329a2.084 2.084 0 01-.28 1.585c-.597.95-1.938 1.271-2.912.652l-.093-.062a2.105 2.105 0 01-.56-2.85m0 26.304a2.099 2.099 0 011.783-.98c.4 0 .79.113 1.125.326.481.304.813.775.937 1.33a2.08 2.08 0 01-.28 1.584c-.597.951-1.938 1.271-2.912.653l-.093-.062a2.107 2.107 0 01-.56-2.851"/><path fill="#FFFEDB" d="M108.53 113.927a6.11 6.11 0 00-8.631-.662 6.12 6.12 0 00-2.087 5.396c-1.949.701-4.258 1.366-5.328 1.332-.822-.043-1.302-.345-2.224-.971-1.172-.795-2.418-1.512-4.149-1.847 2.936-2.761 6.009-6.83 8.584-12.834a6.15 6.15 0 005.039-2.972c1.724-2.896.773-6.659-2.124-8.394a6.133 6.133 0 00-3.134-.864 6.154 6.154 0 00-5.261 2.986 6.079 6.079 0 00-.678 4.636 6.075 6.075 0 002.302 3.429c-4.053 9.218-9.219 13.08-12.565 14.685a2.016 2.016 0 00-.361.168c-1.186.531-2.05.704-2.558.808v4c.275-.03 1.884-.118 4.247-1.192 5.347-1.357 6.839-.354 8.407.709 1.021.692 2.291 1.554 4.263 1.655.099.006.204.009.308.009 2.11 0 5.172-1.022 7.021-1.723a6.132 6.132 0 004.285 1.75 6.112 6.112 0 003.983-1.476 6.072 6.072 0 002.119-4.176 6.072 6.072 0 00-1.458-4.452M92.657 97.151a2.114 2.114 0 013.632 2.165 2.097 2.097 0 01-1.817 1.032c-.379 0-.755-.105-1.084-.301a2.092 2.092 0 01-.964-1.294 2.101 2.101 0 01.233-1.602m12.602 22.363a2.121 2.121 0 01-2.981-.225 2.116 2.116 0 01.231-2.981 2.08 2.08 0 011.373-.512 2.117 2.117 0 012.109 2.278 2.086 2.086 0 01-.732 1.44M106.304 38.027a6.088 6.088 0 00-2.708-3.844 6.12 6.12 0 00-3.264-.944 6.076 6.076 0 00-5.174 2.85 6.108 6.108 0 00.144 6.758c-3.646 4.124-8.707 4.314-9.943 4.293-3.692-1.604-7.234-2.164-10.005-2.317v3.996c2.442.144 5.553.686 8.748 2.136.005.002.01.002.015.005 3.445 1.562 6.334 3.927 8.607 7.041a6.364 6.364 0 00-.381.538c-1.796 2.854-.943 6.643 1.903 8.444.98.622 2.111.951 3.269.951a6.105 6.105 0 005.183-2.851c1.806-2.851.951-6.642-1.908-8.453-1.384-.872-3.092-1.114-4.667-.755-1.538-2.155-3.323-4.017-5.345-5.567 2.517-.778 5.401-2.268 7.78-5.095a6.18 6.18 0 001.77.266 6.08 6.08 0 005.172-2.848 6.053 6.053 0 00.804-4.604m-10.57 22.647a2.128 2.128 0 012.916-.656 2.12 2.12 0 01.66 2.919 2.115 2.115 0 01-2.919.661 2.128 2.128 0 01-.657-2.924m6.379-20.187c-.6.951-1.937 1.271-2.912.653l-.096-.062a2.107 2.107 0 01-.557-2.851 2.093 2.093 0 011.784-.98 2.11 2.11 0 011.781 3.24"/><path fill="#FFFEDB" d="M115 79.011a6.036 6.036 0 002.11 2.649 6.098 6.098 0 003.55 1.14 6.083 6.083 0 005.173-2.848 6.064 6.064 0 00.805-4.605 6.103 6.103 0 00-2.709-3.844 6.128 6.128 0 00-3.266-.944c-.125 0-.25.008-.375.018-.71-3.158-.919-7.769.035-11.265.113.011.225.024.337.024a6.08 6.08 0 005.173-2.848 6.062 6.062 0 00.805-4.604 6.103 6.103 0 00-2.709-3.844 6.128 6.128 0 00-3.266-.944 6.079 6.079 0 00-5.173 2.85 6.104 6.104 0 001.025 7.764c.021.02.048.037.071.059-1.349 4.518-1.145 10.324-.036 14.417-.144.132-.294.254-.426.399a6.327 6.327 0 00-.634.825 6.2 6.2 0 00-.71 1.578c-3.371.488-5.198 1.671-6.824 2.729-2.035 1.324-3.961 2.572-9.636 2.666-1.963-.23-3.552-.178-5.29-.116-1.43.052-2.91.105-4.848.003-1.335-.071-2.104-.882-3.458-2.424-1.803-2.055-4.219-4.648-9.369-5.022v4c3.295.299 4.796 1.887 6.356 3.667 1.487 1.694 3.175 3.615 6.256 3.782 2.118.114 3.76.052 5.208.001 2.491-.092 4.453-.161 7.855.683 2.608.644 12.099 9.674 14.774 14.323-.109.142-.219.282-.314.434-1.743 2.755-1.026 6.385 1.62 8.251.072.052.151.104.283.191.981.621 2.11.948 3.267.948a6.081 6.081 0 005.173-2.849 6.06 6.06 0 00.805-4.603 6.1 6.1 0 00-2.709-3.845 6.128 6.128 0 00-4.809-.749c-2.56-4.188-8.652-10.455-13.189-13.792 1.813-.628 3.05-1.436 4.212-2.188 1.427-.93 2.614-1.69 4.857-2.067m3.88-26.926a2.096 2.096 0 011.783-.98c.4 0 .79.113 1.125.325.481.304.813.775.937 1.33a2.08 2.08 0 01-.28 1.584c-.597.951-1.938 1.273-2.912.653l-.093-.062a2.105 2.105 0 01-.56-2.85m0 23.463a2.096 2.096 0 011.783-.98c.4 0 .79.112 1.125.326.481.304.813.774.937 1.329a2.083 2.083 0 01-.28 1.585c-.597.95-1.938 1.272-2.912.652l-.093-.062a2.105 2.105 0 01-.56-2.85m0 26.304a2.099 2.099 0 011.783-.98c.4 0 .79.113 1.125.326.481.304.813.775.937 1.33a2.08 2.08 0 01-.28 1.584c-.597.951-1.938 1.271-2.912.653l-.093-.062a2.107 2.107 0 01-.56-2.851"/><path fill="#43883E" d="M69.083 48.297c-.472.216-1.355.563-2.623.834-.128.012-.26.039-.389.075-3.641.683-10.077.615-18.773-4.422a6.057 6.057 0 00-.166-4.117 6.076 6.076 0 00-3.279-3.333 6.137 6.137 0 00-5.995.696 6.116 6.116 0 00-2.013 2.542c-1.312 3.103.139 6.696 3.235 8.01a6.138 6.138 0 005.808-.575c5.611 3.315 10.485 4.785 14.477 5.278-1.198 1.288-1.778 2.602-2.253 3.932-.375 1.048-.583 1.571-1.218 2.091-.845.657-3.096 1.484-5.076 2.066a6.11 6.11 0 00-4.862-3.114 6.086 6.086 0 00-4.08 1.158 6.091 6.091 0 00-2.479 4.459 6.055 6.055 0 001.449 4.447 6.07 6.07 0 004.167 2.115 6.116 6.116 0 004.076-1.159l.002-.001a6.114 6.114 0 002.418-3.934c1.902-.527 4.97-1.506 6.669-2.748.084-.063.167-.127.244-.19 1.528-1.245 2.04-2.686 2.455-3.845.639-1.782 1.247-3.469 6.354-5.525 1.268-.264 2.409-.928 3.123-1.214v-4l-1.271.474zm-25.67-4.517a2.104 2.104 0 01-.698.878 2.095 2.095 0 01-2.072.243 2.114 2.114 0 01-.421-3.643 2.088 2.088 0 012.071-.24c.518.219.92.628 1.132 1.149a2.102 2.102 0 01-.012 1.613m3.316 22.27c-.287.21-.765.45-1.406.399a2.088 2.088 0 01-1.438-.727 2.099 2.099 0 01-.501-1.535 2.108 2.108 0 012.263-1.94 2.113 2.113 0 011.944 2.264 2.122 2.122 0 01-.862 1.539"/><path d="M63.888 116.65"/><path fill="#43883E" d="M64.314 117.444c-.005-.004-.009-.005-.011-.009-2.678-2.663-4.555-5.881-5.595-9.586.187-.112.369-.234.545-.368 2.675-2.044 3.196-5.884 1.163-8.562a6.082 6.082 0 00-2.724-2.026 6.09 6.09 0 00-5.839.858c-2.683 2.036-3.206 5.876-1.165 8.569.99 1.296 2.505 2.118 4.101 2.333.686 2.55 1.707 4.913 3.059 7.067-2.626-.15-5.842.238-9.053 2.051a6.07 6.07 0 00-7.391-.005 6.048 6.048 0 00-2.356 4.023 6.108 6.108 0 003.916 6.559 6.069 6.069 0 005.831-.861 6.098 6.098 0 002.22-6.369c4.846-2.586 9.643-.997 10.792-.548 2.895 2.787 6.012 4.142 8.547 5.251v-4a24.459 24.459 0 01-6.04-4.377m-17.944 6.864a2.088 2.088 0 01-2.009.295 2.098 2.098 0 01-.937-.696 2.097 2.097 0 01-.412-1.57 2.075 2.075 0 01.813-1.384c.891-.68 2.255-.513 2.95.405l.067.092a2.1 2.1 0 01-.472 2.858m7.501-20.411a2.115 2.115 0 01.4-2.958 2.106 2.106 0 012.959.399 2.12 2.12 0 01-.404 2.962 2.12 2.12 0 01-2.019.289 2.098 2.098 0 01-.936-.692"/><path d="M63.888 116.65"/><path fill="#43883E" d="M60.95 81.089c-1.352 1.54-2.119 2.348-3.45 2.419-1.935.104-3.41.048-4.838-.002-1.429-.051-3.984-.819-7.984-2.603s-12.072-9.654-14.74-14.293c.108-.14.217-.28.312-.431 1.74-2.75 1.023-6.372-1.614-8.234a6.09 6.09 0 00-3.545-1.138 6.067 6.067 0 00-5.161 2.843 6.04 6.04 0 00-.802 4.593 6.073 6.073 0 002.702 3.836 6.102 6.102 0 003.258.942c.528 0 1.045-.066 1.54-.194 2.554 4.178 10.25 12.059 13.161 13.762-1.809.627-3.044 1.431-4.202 2.184-1.425.928-2.609 1.687-4.848 2.062a6.042 6.042 0 00-2.388-2.834 6.09 6.09 0 00-3.26-.947 6.066 6.066 0 00-5.161 2.844 6.039 6.039 0 00-.802 4.593 6.073 6.073 0 002.702 3.836 6.102 6.102 0 003.258.942c.126 0 .248-.021.373-.031.709 3.15.92 7.761-.033 11.253-.113-.01-.224-.023-.337-.023a6.065 6.065 0 00-5.161 2.843 6.039 6.039 0 00-.802 4.593 6.07 6.07 0 002.702 3.836 6.102 6.102 0 003.258.942 6.065 6.065 0 005.162-2.843 6.092 6.092 0 00-1.021-7.748c-.025-.023-.055-.043-.081-.066 1.346-4.511 1.142-10.281.033-14.367.147-.135.301-.26.436-.409a6.25 6.25 0 00.633-.822 6.098 6.098 0 00.708-1.576c3.365-.486 5.187-1.667 6.81-2.723 1.802-1.172 3.525-2.283 7.841-2.584 2.397 1.036 4.935 1.884 6.908 1.961 1.707.151 3.083.113 5.197-.001 3.075-.165 4.757-2.082 6.242-3.773 1.559-1.775 3.049-3.481 6.398-3.905v-4c-5.201.494-7.605 3.213-9.404 5.263M25.088 65.021a2.107 2.107 0 01-1.779-3.233c.598-.948 1.935-1.269 2.907-.651l.094.063a2.1 2.1 0 01.557 2.843 2.09 2.09 0 01-1.779.978m-1.122 25.923a2.11 2.11 0 01-.935-1.327 2.083 2.083 0 01.278-1.582c.598-.948 1.935-1.27 2.907-.651l.094.063a2.1 2.1 0 01.557 2.843 2.107 2.107 0 01-2.901.654m2.901 22.758a2.088 2.088 0 01-1.779.979 2.105 2.105 0 01-1.779-3.232c.598-.949 1.935-1.27 2.907-.652l.094.063a2.099 2.099 0 01.557 2.842"/><path fill="#FFFEDB" d="M69.083 45.297c-.472.216-1.355.563-2.623.834-.128.012-.26.039-.389.075-3.641.683-10.077.615-18.773-4.422a6.057 6.057 0 00-.166-4.117 6.076 6.076 0 00-3.279-3.333 6.137 6.137 0 00-5.995.696 6.116 6.116 0 00-2.013 2.542c-1.312 3.103.139 6.696 3.235 8.01a6.138 6.138 0 005.808-.575c5.611 3.315 10.485 4.785 14.477 5.278-1.198 1.288-1.778 2.602-2.253 3.932-.375 1.048-.583 1.571-1.218 2.091-.845.657-3.096 1.484-5.076 2.066a6.11 6.11 0 00-4.862-3.114 6.086 6.086 0 00-4.08 1.158 6.091 6.091 0 00-2.479 4.459 6.055 6.055 0 001.449 4.447 6.07 6.07 0 004.167 2.115 6.116 6.116 0 004.076-1.159l.002-.001a6.114 6.114 0 002.418-3.934c1.902-.527 4.97-1.506 6.669-2.748.084-.063.167-.127.244-.19 1.528-1.245 2.04-2.686 2.455-3.845.639-1.782 1.247-3.469 6.354-5.525 1.268-.264 2.409-.928 3.123-1.214v-4l-1.271.474zm-25.67-4.517a2.104 2.104 0 01-.698.878 2.095 2.095 0 01-2.072.243 2.114 2.114 0 01-.421-3.643 2.088 2.088 0 012.071-.24c.518.219.92.628 1.132 1.149a2.102 2.102 0 01-.012 1.613m3.316 22.27c-.287.21-.765.45-1.406.399a2.088 2.088 0 01-1.438-.727 2.099 2.099 0 01-.501-1.535 2.108 2.108 0 012.263-1.94 2.113 2.113 0 011.944 2.264 2.122 2.122 0 01-.862 1.539M64.314 114.444c-.005-.004-.009-.005-.011-.009-2.678-2.663-4.555-5.881-5.595-9.586.187-.112.369-.234.545-.368 2.675-2.044 3.196-5.884 1.163-8.562a6.082 6.082 0 00-2.724-2.026 6.09 6.09 0 00-5.839.858c-2.683 2.036-3.206 5.876-1.165 8.569.99 1.296 2.505 2.118 4.101 2.333.686 2.55 1.707 4.913 3.059 7.067-2.626-.15-5.842.238-9.053 2.051a6.07 6.07 0 00-7.391-.005 6.048 6.048 0 00-2.356 4.023 6.108 6.108 0 003.916 6.559 6.069 6.069 0 005.831-.861 6.098 6.098 0 002.22-6.369c4.846-2.586 9.643-.997 10.792-.548 2.895 2.787 6.012 4.142 8.547 5.251v-4a24.459 24.459 0 01-6.04-4.377m-17.944 6.864a2.088 2.088 0 01-2.009.295 2.098 2.098 0 01-.937-.696 2.097 2.097 0 01-.412-1.57 2.075 2.075 0 01.813-1.384c.891-.68 2.255-.513 2.95.405l.067.092a2.1 2.1 0 01-.472 2.858m7.501-20.411a2.115 2.115 0 01.4-2.958 2.106 2.106 0 012.959.399 2.12 2.12 0 01-.404 2.962 2.12 2.12 0 01-2.019.289 2.098 2.098 0 01-.936-.692"/><path fill="#FFFEDB" d="M60.95 78.104c-1.352 1.54-2.119 2.348-3.45 2.419-1.935.104-3.41.048-4.838-.002-1.429-.051-3.984-.82-7.984-2.603-4-1.783-12.072-9.654-14.74-14.293.108-.14.217-.28.312-.431 1.74-2.749 1.023-6.372-1.614-8.234a6.09 6.09 0 00-3.545-1.138 6.067 6.067 0 00-5.161 2.843 6.04 6.04 0 00-.802 4.593 6.073 6.073 0 002.702 3.836 6.102 6.102 0 003.258.942c.528 0 1.045-.066 1.54-.194 2.554 4.178 10.25 12.059 13.161 13.762-1.809.627-3.044 1.431-4.202 2.184-1.425.928-2.609 1.687-4.848 2.062a6.042 6.042 0 00-2.388-2.834 6.09 6.09 0 00-3.26-.947 6.066 6.066 0 00-5.161 2.844 6.039 6.039 0 00-.802 4.593 6.073 6.073 0 002.702 3.836 6.102 6.102 0 003.258.942c.126 0 .248-.021.373-.031.709 3.15.92 7.761-.033 11.253-.113-.01-.224-.023-.337-.023a6.066 6.066 0 00-5.161 2.842 6.043 6.043 0 00-.802 4.594 6.07 6.07 0 002.702 3.836 6.102 6.102 0 003.258.942 6.065 6.065 0 005.162-2.843 6.092 6.092 0 00-1.021-7.748c-.025-.023-.055-.043-.081-.066 1.346-4.51 1.142-10.281.033-14.367.147-.135.301-.26.436-.409a6.25 6.25 0 00.633-.822 6.098 6.098 0 00.708-1.576c3.365-.486 5.187-1.667 6.81-2.723 1.802-1.172 3.525-2.283 7.841-2.584 2.397 1.036 4.935 1.884 6.908 1.961 1.707.151 3.083.113 5.197-.001 3.075-.165 4.757-2.082 6.242-3.773 1.559-1.775 3.049-3.464 6.398-3.887v-4.018c-5.201.495-7.605 3.214-9.404 5.263M25.088 62.037a2.107 2.107 0 01-1.779-3.233c.598-.948 1.935-1.269 2.907-.651l.094.063a2.1 2.1 0 01.557 2.843 2.09 2.09 0 01-1.779.978M23.966 87.96a2.11 2.11 0 01-.935-1.327 2.083 2.083 0 01.278-1.582c.598-.948 1.935-1.27 2.907-.651l.094.063a2.1 2.1 0 01.557 2.843 2.09 2.09 0 01-1.779.979 2.116 2.116 0 01-1.122-.325m2.901 22.758a2.088 2.088 0 01-1.779.979 2.105 2.105 0 01-1.779-3.232c.598-.949 1.935-1.27 2.907-.652l.094.063a2.099 2.099 0 01.557 2.842"/></svg>