<svg id="Layer_1" data-name="Layer 1" xmlns="http://www.w3.org/2000/svg" viewBox="0 0 261.35 100"><defs><style>.cls-1{fill:#5aa854;}.cls-2{fill:#eb743b;}.cls-3{fill:#fffedb;}</style></defs><path class="cls-1" d="M115.06,10.7l8.81,23.79,8.76-23.79h11.6V46h-8.81V38.85l.91-18.54L126.78,46h-5.84l-9.52-25.6.91,18.45V46h-8.82V10.7Z"/><path class="cls-1" d="M164.24,46.56a14.82,14.82,0,0,1-10.8-4.07q-4.17-4.07-4.17-10.85v-.78A18.24,18.24,0,0,1,151,22.74a12.89,12.89,0,0,1,5-5.52,14,14,0,0,1,7.35-1.94q6.18,0,9.74,3.91t3.55,11.06v3.29h-19.2a7.48,7.48,0,0,0,2.35,4.74,7.12,7.12,0,0,0,5,1.78A8.67,8.67,0,0,0,172,36.69l4,4.43a12,12,0,0,1-4.9,4A16.09,16.09,0,0,1,164.24,46.56Zm-.92-24.78a5,5,0,0,0-3.89,1.62,8.43,8.43,0,0,0-1.91,4.65h11.21v-.64a6,6,0,0,0-1.45-4.16A5.2,5.2,0,0,0,163.32,21.78Z"/><path class="cls-1" d="M190.86,8.43v7.41H196v5.91h-5.16v15a3.57,3.57,0,0,0,.64,2.4,3.23,3.23,0,0,0,2.45.72,12.93,12.93,0,0,0,2.37-.19v6.1a16.34,16.34,0,0,1-4.88.73q-8.48,0-8.64-8.56V21.75h-4.4V15.84h4.4V8.43Z"/><path class="cls-1" d="M218,46a9.07,9.07,0,0,1-.81-2.7,9.76,9.76,0,0,1-7.61,3.26A10.7,10.7,0,0,1,202.22,44a8.25,8.25,0,0,1-2.92-6.46,8.52,8.52,0,0,1,3.56-7.36q3.55-2.57,10.27-2.59h3.71V25.85a5,5,0,0,0-1.08-3.35,4.22,4.22,0,0,0-3.38-1.25,4.79,4.79,0,0,0-3.19,1A3.33,3.33,0,0,0,208,24.9H200a8.08,8.08,0,0,1,1.62-4.85,10.71,10.71,0,0,1,4.57-3.5,16.76,16.76,0,0,1,6.64-1.27c3.71,0,6.66.94,8.85,2.8A9.83,9.83,0,0,1,224.92,26V39a14.48,14.48,0,0,0,1.2,6.5V46Zm-6.66-5.6a7,7,0,0,0,3.29-.8,5.29,5.29,0,0,0,2.23-2.13V32.29h-3c-4,0-6.18,1.39-6.44,4.18l0,.47a3.22,3.22,0,0,0,1.06,2.48A4.1,4.1,0,0,0,211.32,40.4Z"/><path class="cls-2" d="M103.51,92V56.7h13.64q7,0,10.85,2.51a8.79,8.79,0,0,1,2.4,11.95,7.83,7.83,0,0,1-4,3A7.83,7.83,0,0,1,131,77a8,8,0,0,1,1.58,4.9c0,3.48-1.2,6-3.61,7.66S123.07,92,118.48,92Zm8.79-20.6h5.39q5.31,0,5.31-3.71a3.43,3.43,0,0,0-1.29-3,6.92,6.92,0,0,0-3.93-.9H112.3Zm0,6v7.57h6.18a6.65,6.65,0,0,0,3.94-1,3.11,3.11,0,0,0,1.39-2.65c0-2.54-1.54-3.84-4.63-3.92Z"/><path class="cls-2" d="M154.88,69.39a23.28,23.28,0,0,0-2.9-.22q-4.56,0-6,3.1V92h-8.05V61.84h7.6l.23,3.6q2.41-4.15,6.72-4.16a8.24,8.24,0,0,1,2.51.37Z"/><path class="cls-2" d="M175.4,92a9.07,9.07,0,0,1-.81-2.7A9.76,9.76,0,0,1,167,92.56,10.7,10.7,0,0,1,159.64,90a8.22,8.22,0,0,1-2.92-6.46,8.52,8.52,0,0,1,3.56-7.36q3.56-2.57,10.27-2.59h3.7V71.85a5,5,0,0,0-1.07-3.35,4.22,4.22,0,0,0-3.38-1.25,4.83,4.83,0,0,0-3.2,1,3.33,3.33,0,0,0-1.15,2.68h-8.06A8.08,8.08,0,0,1,159,66.05a10.71,10.71,0,0,1,4.57-3.5,16.75,16.75,0,0,1,6.63-1.27c3.72,0,6.67.94,8.85,2.8A9.8,9.8,0,0,1,182.34,72V85a14.48,14.48,0,0,0,1.2,6.5V92Zm-6.66-5.6a7,7,0,0,0,3.29-.8,5.2,5.2,0,0,0,2.22-2.13V78.29h-3c-4,0-6.18,1.39-6.44,4.18l0,.47a3.22,3.22,0,0,0,1.06,2.48A4.1,4.1,0,0,0,168.74,86.4Z"/><path class="cls-2" d="M188.47,54a4,4,0,0,1,1.21-3,5.24,5.24,0,0,1,6.6,0,4.27,4.27,0,0,1,0,6,5.17,5.17,0,0,1-6.55,0A4,4,0,0,1,188.47,54ZM197,92h-8.09V61.84H197Z"/><path class="cls-2" d="M211.08,61.84l.25,3.48a10.53,10.53,0,0,1,8.67-4q4.78,0,7.13,2.82c1.56,1.88,2.36,4.68,2.4,8.42V92h-8.06V72.67a5.25,5.25,0,0,0-1.11-3.73,5,5,0,0,0-3.71-1.16,5.54,5.54,0,0,0-5.1,2.9V92H203.5V61.84Z"/><path class="cls-2" d="M244.89,85.51h14.74V92h-25V87.09l14.19-18.76H235V61.84h24.17v4.75Z"/><polygon class="cls-2" points="46 2 46 98 87 74 87 26 46 2"/><polygon class="cls-1" points="43 2 2 26 2 74 43 98 43 2"/><path class="cls-3" d="M78.28,58.09a6.75,6.75,0,0,0-7.67-2.86A18.09,18.09,0,0,0,62,49.6a28.62,28.62,0,0,0,5.91-6.16,6.91,6.91,0,0,0,5.17-.83,6.77,6.77,0,1,0-9.34-2.11,6.27,6.27,0,0,0,.42.59,23.88,23.88,0,0,1-9.52,7.79h0A18.45,18.45,0,0,1,46,51v5c4,0,5.93-1.12,10-2.9a14.78,14.78,0,0,1,11,4.75,6.76,6.76,0,1,0,12.16,5.32A6.64,6.64,0,0,0,78.28,58.09ZM68.06,34.67a2.57,2.57,0,0,1,1.4-.41,2.62,2.62,0,1,1,0,5.24,2.61,2.61,0,0,1-2.22-1.21A2.63,2.63,0,0,1,68.06,34.67Zm7.06,27.6A2.61,2.61,0,0,1,74,63.91a2.56,2.56,0,0,1-1.39.41,2.62,2.62,0,0,1-1.52-4.75l.12-.07a2.65,2.65,0,0,1,3.6.8A2.59,2.59,0,0,1,75.12,62.27Z"/><path class="cls-3" d="M10.72,41.91a6.75,6.75,0,0,0,7.67,2.86A18.09,18.09,0,0,0,27,50.4a28.62,28.62,0,0,0-5.91,6.16,6.91,6.91,0,0,0-5.17.83,6.77,6.77,0,1,0,9.34,2.11,6.27,6.27,0,0,0-.42-.59,23.88,23.88,0,0,1,9.52-7.79h0A18.45,18.45,0,0,1,43,49V44c-4,0-5.93,1.12-10,2.9a14.78,14.78,0,0,1-11-4.75A6.76,6.76,0,1,0,9.83,36.83,6.64,6.64,0,0,0,10.72,41.91ZM20.94,65.33a2.57,2.57,0,0,1-1.4.41,2.62,2.62,0,1,1,0-5.24,2.61,2.61,0,0,1,2.22,1.21A2.63,2.63,0,0,1,20.94,65.33Zm-7.06-27.6A2.61,2.61,0,0,1,15,36.09a2.56,2.56,0,0,1,1.39-.41A2.62,2.62,0,0,1,18,40.43l-.12.07a2.65,2.65,0,0,1-3.6-.8A2.59,2.59,0,0,1,13.88,37.73Z"/></svg>