<svg xmlns="http://www.w3.org/2000/svg" viewBox="0 0 400.5 150"><defs><style>.cls-1{isolation:isolate;}.cls-2{fill:#5aa854;}.cls-3{fill:#eb743b;}.cls-4{mix-blend-mode:multiply;opacity:0.07;}.cls-5{fill:#d3562c;}.cls-6{fill:#fffedb;}.cls-7{fill:#43883e;}</style></defs><g class="cls-1"><g id="Layer_1" data-name="Layer 1"><path class="cls-2" d="M174.5,15.23,188.14,52l13.55-36.79h17.95v54.6H206V58.77l1.4-28.69L192.64,69.83h-9l-14.72-39.6,1.41,28.54V69.83H156.64V15.23Z"/><path class="cls-2" d="M250.59,70.7q-10.26,0-16.71-6.3t-6.45-16.77V46.42a28.18,28.18,0,0,1,2.72-12.57,19.9,19.9,0,0,1,7.69-8.54,21.62,21.62,0,0,1,11.37-3q9.57,0,15.07,6t5.5,17.12v5.09H240.07a11.54,11.54,0,0,0,3.64,7.33,11,11,0,0,0,7.7,2.76,13.44,13.44,0,0,0,11.25-5.22l6.13,6.86a18.76,18.76,0,0,1-7.59,6.19A25,25,0,0,1,250.59,70.7Zm-1.43-38.34a7.8,7.8,0,0,0-6,2.51,13.07,13.07,0,0,0-3,7.19h17.34v-1a9.34,9.34,0,0,0-2.24-6.44A8.07,8.07,0,0,0,249.16,32.36Z"/><path class="cls-2" d="M291.77,11.7V23.17h8v9.15h-8V55.6a5.57,5.57,0,0,0,1,3.71c.66.75,1.93,1.12,3.8,1.12a19.9,19.9,0,0,0,3.66-.3v9.45a25.88,25.88,0,0,1-7.54,1.12q-13.11,0-13.37-13.24V32.32H272.5V23.17h6.81V11.7Z"/><path class="cls-2" d="M333.73,69.83a13.68,13.68,0,0,1-1.25-4.18,15.09,15.09,0,0,1-11.77,5,16.6,16.6,0,0,1-11.37-4,12.78,12.78,0,0,1-4.5-10q0-7.41,5.49-11.38t15.9-4H332V38.66a7.67,7.67,0,0,0-1.66-5.18c-1.11-1.29-2.85-1.94-5.24-1.94a7.42,7.42,0,0,0-4.94,1.51,5.15,5.15,0,0,0-1.79,4.14H305.87a12.56,12.56,0,0,1,2.5-7.5,16.59,16.59,0,0,1,7.08-5.42,25.85,25.85,0,0,1,10.26-2q8.63,0,13.69,4.34t5.07,12.18V59.05c0,4.43.64,7.78,1.85,10v.73Zm-10.31-8.66a10.73,10.73,0,0,0,5.09-1.23,8.11,8.11,0,0,0,3.45-3.3v-8H327.3q-9.35,0-10,6.47l0,.73a5,5,0,0,0,1.64,3.84A6.39,6.39,0,0,0,323.42,61.17Z"/><path class="cls-3" d="M156.64,138.83V84.23h21.09q10.92,0,16.78,3.87a13.61,13.61,0,0,1,3.73,18.5,12.16,12.16,0,0,1-6.12,4.57,12.18,12.18,0,0,1,7,4.45,12.32,12.32,0,0,1,2.44,7.58q0,8.1-5.58,11.87t-16.21,3.76ZM170.23,107h8.35q8.19,0,8.2-5.74,0-3.3-2-4.68t-6.07-1.39h-8.49Zm0,9.23v11.72h9.57a10.27,10.27,0,0,0,6.09-1.55,4.81,4.81,0,0,0,2.16-4.1q0-5.88-7.18-6.07Z"/><path class="cls-3" d="M236.11,103.86a33.67,33.67,0,0,0-4.48-.34q-7.08,0-9.27,4.78v30.53H209.89V92.17h11.78l.34,5.57q3.75-6.43,10.39-6.43a13.25,13.25,0,0,1,3.89.56Z"/><path class="cls-3" d="M267.85,138.83a14,14,0,0,1-1.25-4.18,15.09,15.09,0,0,1-11.77,5,16.58,16.58,0,0,1-11.36-4,12.76,12.76,0,0,1-4.51-10q0-7.41,5.5-11.38t15.89-4h5.73v-2.67a7.67,7.67,0,0,0-1.66-5.18q-1.65-1.94-5.24-1.94a7.39,7.39,0,0,0-4.93,1.51,5.12,5.12,0,0,0-1.79,4.14H240a12.5,12.5,0,0,1,2.5-7.5,16.49,16.49,0,0,1,7.07-5.42,25.92,25.92,0,0,1,10.26-2q8.63,0,13.69,4.34t5.07,12.18v20.22q0,6.64,1.85,10v.73Zm-10.3-8.66a10.69,10.69,0,0,0,5.08-1.23,8,8,0,0,0,3.45-3.3v-8h-4.65q-9.36,0-10,6.47l-.05.73a5,5,0,0,0,1.64,3.84A6.4,6.4,0,0,0,257.55,130.17Z"/><path class="cls-3" d="M288.08,80.1A6.11,6.11,0,0,1,290,75.49a8.06,8.06,0,0,1,10.2,0,6.58,6.58,0,0,1,0,9.27,8,8,0,0,1-10.13,0A6.12,6.12,0,0,1,288.08,80.1Zm13.24,58.73H288.81V92.17h12.51Z"/><path class="cls-3" d="M323.05,92.17l.39,5.39a16.3,16.3,0,0,1,13.41-6.25q7.41,0,11,4.36t3.71,13v30.14H339.14V108.92q0-4-1.73-5.77t-5.74-1.79a8.59,8.59,0,0,0-7.89,4.49v33H311.32V92.17Z"/><path class="cls-3" d="M375.36,128.79h22.81v10H359.45v-7.59l21.95-29H360.09v-10h37.39v7.35Z"/><polygon class="cls-3" points="70.03 2.83 70.03 146.83 131.03 111.83 131.03 37.83 70.03 2.83"/><polygon class="cls-2" points="65.03 2.83 4.03 37.83 4.03 111.83 65.03 146.83 65.03 2.83"/><g class="cls-4"><path d="M87.33,94.57a2.1,2.1,0,0,1,1.82-1,2.16,2.16,0,0,1,1.08.29,2.12,2.12,0,0,1,.73,2.9,2.07,2.07,0,0,1-1.81,1,2.11,2.11,0,0,1-1.09-.3,2.11,2.11,0,0,1-.73-2.89Zm12.6,22.36a2.07,2.07,0,0,1-1.37.51,2.11,2.11,0,1,1,2.11-2A2.14,2.14,0,0,1,99.93,116.93Z"/><path d="M79,48.44l.21.05Z"/><path d="M90.41,58.09a2,2,0,0,1,.67-.66,2.11,2.11,0,0,1,1.12-.32,2.24,2.24,0,0,1,1.13.32,2.12,2.12,0,0,1-1.14,3.91A2,2,0,0,1,91.07,61,2.12,2.12,0,0,1,90.41,58.09ZM96.79,37.9a2.15,2.15,0,0,1-2.91.66l-.1-.07A2.11,2.11,0,0,1,95,34.66a2.15,2.15,0,0,1,1.12.33,2.11,2.11,0,0,1,.94,1.33A2.09,2.09,0,0,1,96.79,37.9Z"/><path d="M113.55,49.5a2.12,2.12,0,0,1,1.79-1,2,2,0,0,1,1.12.33,2.07,2.07,0,0,1,.94,1.33,2.1,2.1,0,0,1-.28,1.58,2.14,2.14,0,0,1-2.91.65l-.1-.06A2.11,2.11,0,0,1,113.55,49.5Zm0,23.46a2.12,2.12,0,0,1,1.79-1,2.11,2.11,0,0,1,1.78,3.24,2.14,2.14,0,0,1-2.91.66l-.1-.07A2.11,2.11,0,0,1,113.55,73Zm0,26.31a2.12,2.12,0,0,1,2.91-.66,2.11,2.11,0,1,1-2.25,3.57l-.1-.06A2.12,2.12,0,0,1,113.55,99.27Z"/><path d="M103.21,108.94a6.12,6.12,0,0,0-10.72,4.73A19.62,19.62,0,0,1,87.16,115a4,4,0,0,1-2.23-1,10.65,10.65,0,0,0-4.14-1.84,37.76,37.76,0,0,0,8.58-12.84,6.11,6.11,0,1,0-6.16-4.6,6,6,0,0,0,2.3,3.42c-4.05,9.22-9.22,13.08-12.56,14.69a1.49,1.49,0,0,0-.36.17,11,11,0,0,1-2.56.8v4a12.47,12.47,0,0,0,4.25-1.19c5.34-1.36,6.84-.35,8.4.71A8,8,0,0,0,87,119h.3a23.68,23.68,0,0,0,7-1.72A6.1,6.1,0,0,0,98.56,119h0a6.12,6.12,0,0,0,4.65-10.1ZM87.33,92.16a2.12,2.12,0,0,1,1.82-1,2.17,2.17,0,0,1,1.08.3,2.12,2.12,0,0,1,.73,2.9,2.09,2.09,0,0,1-1.81,1,2.21,2.21,0,0,1-1.09-.3,2.13,2.13,0,0,1-.73-2.9Zm12.6,22.36a2,2,0,0,1-1.37.51,2.11,2.11,0,0,1-1.38-3.71,2.11,2.11,0,0,1,3,.23,2.08,2.08,0,0,1-.23,3Z"/><path d="M79,46l.21.05Z"/><path d="M101,33a6.12,6.12,0,0,0-2.71-3.85A6.18,6.18,0,0,0,95,28.25a6.12,6.12,0,0,0-5,9.61,13.38,13.38,0,0,1-10,4.29,29.39,29.39,0,0,0-10-2.32v4A24.79,24.79,0,0,1,78.78,46h0a21.54,21.54,0,0,1,8.61,7,4,4,0,0,0-.38.54A6.14,6.14,0,0,0,88.92,62a6,6,0,0,0,3.27,1,6.13,6.13,0,0,0,3.27-11.31,6.2,6.2,0,0,0-4.66-.75,26,26,0,0,0-5.35-5.57,16.34,16.34,0,0,0,7.78-5.1,5.94,5.94,0,0,0,1.77.27,6.07,6.07,0,0,0,5.17-2.85A6,6,0,0,0,101,33ZM90.41,55.69a2.14,2.14,0,0,1,.67-.67,2.2,2.2,0,0,1,1.12-.31,2.12,2.12,0,1,1,0,4.23,2.12,2.12,0,0,1-1.78-3.25ZM96.79,35.5a2.14,2.14,0,0,1-2.91.65l-.1-.06A2.11,2.11,0,0,1,95,32.26a2.14,2.14,0,0,1,1.12.32,2.16,2.16,0,0,1,.94,1.33A2.12,2.12,0,0,1,96.79,35.5Z"/><path d="M109.67,74a6.09,6.09,0,0,0,2.11,2.65l.29.19a6.12,6.12,0,1,0,6.53-10.35,6.18,6.18,0,0,0-3.26-.94l-.38,0a25.67,25.67,0,0,1,0-11.27l.33,0a6.12,6.12,0,1,0-4.14-1.63l.07.06a28.75,28.75,0,0,0,0,14.42,5.25,5.25,0,0,0-.42.4,5.1,5.1,0,0,0-.63.82,5.73,5.73,0,0,0-.71,1.58,15.21,15.21,0,0,0-6.83,2.73c-2,1.32-4,2.57-9.63,2.66a32.76,32.76,0,0,0-5.29-.11c-1.44,0-2.92.1-4.85,0-1.34-.07-2.11-.88-3.46-2.42-1.8-2.06-4.22-4.65-9.37-5v4c3.29.3,4.8,1.89,6.36,3.67s3.17,3.62,6.25,3.78a49.83,49.83,0,0,0,5.21,0,24.19,24.19,0,0,1,7.86.69c2.6.64,12.09,9.67,14.77,14.32a4.25,4.25,0,0,0-.31.43,6.1,6.1,0,0,0,1.61,8.25l.29.2a6.12,6.12,0,1,0,3.27-11.3,6.16,6.16,0,0,0-1.55.2c-2.56-4.19-8.65-10.46-13.18-13.79a18.42,18.42,0,0,0,4.21-2.19A11.34,11.34,0,0,1,109.67,74Zm3.88-26.92a2.12,2.12,0,0,1,2.91-.66A2.11,2.11,0,1,1,114.21,50l-.1-.06A2.12,2.12,0,0,1,113.55,47.1Zm0,23.46a2.12,2.12,0,0,1,1.79-1,2,2,0,0,1,1.12.33,2.08,2.08,0,0,1,.94,1.32,2.11,2.11,0,0,1-3.19,2.24l-.1-.06A2.12,2.12,0,0,1,113.55,70.56Zm0,26.3a2.12,2.12,0,0,1,1.79-1,2.1,2.1,0,0,1,1.12.33,2.07,2.07,0,0,1,.94,1.33,2.1,2.1,0,0,1-.28,1.58,2.15,2.15,0,0,1-2.91.66l-.1-.07A2.11,2.11,0,0,1,113.55,96.86Z"/></g><path class="cls-5" d="M103.21,111.94a6.12,6.12,0,0,0-10.72,4.73A19.62,19.62,0,0,1,87.16,118a4,4,0,0,1-2.23-1,10.65,10.65,0,0,0-4.14-1.84,37.76,37.76,0,0,0,8.58-12.84,6.11,6.11,0,1,0-6.16-4.6,6,6,0,0,0,2.3,3.42c-4.05,9.22-9.22,13.08-12.56,14.69a1.49,1.49,0,0,0-.36.17,11,11,0,0,1-2.56.8v4a12.47,12.47,0,0,0,4.25-1.19c5.34-1.36,6.84-.35,8.4.71A8,8,0,0,0,87,122h.3a23.68,23.68,0,0,0,7-1.72A6.1,6.1,0,0,0,98.56,122h0a6.12,6.12,0,0,0,4.65-10.1ZM87.33,95.16a2.12,2.12,0,0,1,1.82-1,2.17,2.17,0,0,1,1.08.3,2.12,2.12,0,0,1,.73,2.9,2.09,2.09,0,0,1-1.81,1,2.21,2.21,0,0,1-1.09-.3,2.13,2.13,0,0,1-.73-2.9Zm12.6,22.36a2,2,0,0,1-1.37.51,2.11,2.11,0,0,1-1.38-3.71,2.11,2.11,0,0,1,3,.23,2.08,2.08,0,0,1-.23,3Z"/><path d="M79,48.44l.21.05Z"/><path class="cls-5" d="M101,36a6.12,6.12,0,1,0-11,4.82,13.36,13.36,0,0,1-10,4.3,28.93,28.93,0,0,0-10-2.32v4A25,25,0,0,1,78.78,49h0A21.57,21.57,0,0,1,87.4,56a4.7,4.7,0,0,0-.38.53,6.2,6.2,0,1,0,3.78-2.66,26.24,26.24,0,0,0-5.35-5.57,16.39,16.39,0,0,0,7.78-5.09,6.27,6.27,0,0,0,1.77.26A6.12,6.12,0,0,0,101,36ZM90.41,58.69a2,2,0,0,1,.67-.66,2.11,2.11,0,0,1,1.12-.32,2.12,2.12,0,1,1,0,4.23,2,2,0,0,1-1.12-.33A2.12,2.12,0,0,1,90.41,58.69ZM96.79,38.5a2.15,2.15,0,0,1-2.91.66l-.1-.07A2.11,2.11,0,0,1,95,35.26a2.15,2.15,0,0,1,1.12.33,2.1,2.1,0,0,1,.66,2.91Z"/><path class="cls-5" d="M109.67,77a6.09,6.09,0,0,0,2.11,2.65l.29.19a6.12,6.12,0,1,0,6.53-10.35,6.18,6.18,0,0,0-3.26-.94l-.38,0a25.67,25.67,0,0,1,0-11.27l.33,0a6.12,6.12,0,1,0-4.14-1.63l.07.06a28.75,28.75,0,0,0,0,14.42,5.25,5.25,0,0,0-.42.4,5.1,5.1,0,0,0-.63.82,5.73,5.73,0,0,0-.71,1.58,15.21,15.21,0,0,0-6.83,2.73c-2,1.32-4,2.57-9.63,2.66a32.76,32.76,0,0,0-5.29-.11c-1.44,0-2.92.1-4.85,0-1.34-.07-2.11-.88-3.46-2.42-1.8-2.06-4.22-4.65-9.37-5v4c3.29.3,4.8,1.89,6.36,3.67s3.17,3.62,6.25,3.78a49.83,49.83,0,0,0,5.21,0,24.19,24.19,0,0,1,7.86.69c2.6.64,12.09,9.67,14.77,14.32a4.25,4.25,0,0,0-.31.43,6.1,6.1,0,0,0,1.61,8.25l.29.2a6.12,6.12,0,1,0,3.27-11.3,6.16,6.16,0,0,0-1.55.2c-2.56-4.19-8.65-10.46-13.18-13.79a18.42,18.42,0,0,0,4.21-2.19A11.34,11.34,0,0,1,109.67,77Zm3.88-26.92a2.12,2.12,0,0,1,2.91-.66A2.11,2.11,0,1,1,114.21,53l-.1-.06A2.12,2.12,0,0,1,113.55,50.1Zm0,23.46a2.12,2.12,0,0,1,1.79-1,2,2,0,0,1,1.12.33,2.08,2.08,0,0,1,.94,1.32,2.11,2.11,0,0,1-3.19,2.24l-.1-.06A2.12,2.12,0,0,1,113.55,73.56Zm0,26.3a2.12,2.12,0,0,1,1.79-1,2.1,2.1,0,0,1,1.12.33,2.07,2.07,0,0,1,.94,1.33,2.1,2.1,0,0,1-.28,1.58,2.15,2.15,0,0,1-2.91.66l-.1-.07A2.11,2.11,0,0,1,113.55,99.86Z"/><path class="cls-6" d="M103.21,108.94a6.12,6.12,0,0,0-10.72,4.73A19.62,19.62,0,0,1,87.16,115a4,4,0,0,1-2.23-1,10.65,10.65,0,0,0-4.14-1.84,37.76,37.76,0,0,0,8.58-12.84,6.11,6.11,0,1,0-6.16-4.6,6,6,0,0,0,2.3,3.42c-4.05,9.22-9.22,13.08-12.56,14.69a1.49,1.49,0,0,0-.36.17,11,11,0,0,1-2.56.8v4a12.47,12.47,0,0,0,4.25-1.19c5.34-1.36,6.84-.35,8.4.71A8,8,0,0,0,87,119h.3a23.68,23.68,0,0,0,7-1.72A6.1,6.1,0,0,0,98.56,119h0a6.12,6.12,0,0,0,4.65-10.1ZM87.33,92.16a2.12,2.12,0,0,1,1.82-1,2.17,2.17,0,0,1,1.08.3,2.12,2.12,0,0,1,.73,2.9,2.09,2.09,0,0,1-1.81,1,2.21,2.21,0,0,1-1.09-.3,2.13,2.13,0,0,1-.73-2.9Zm12.6,22.36a2,2,0,0,1-1.37.51,2.11,2.11,0,0,1-1.38-3.71,2.11,2.11,0,0,1,3,.23,2.08,2.08,0,0,1-.23,3Z"/><path class="cls-6" d="M79,46l.21.05Z"/><path class="cls-6" d="M101,33a6.12,6.12,0,0,0-2.71-3.85A6.18,6.18,0,0,0,95,28.25a6.12,6.12,0,0,0-5,9.61,13.38,13.38,0,0,1-10,4.29,29.39,29.39,0,0,0-10-2.32v4A24.79,24.79,0,0,1,78.78,46h0a21.54,21.54,0,0,1,8.61,7,4,4,0,0,0-.38.54A6.14,6.14,0,0,0,88.92,62a6,6,0,0,0,3.27,1,6.13,6.13,0,0,0,3.27-11.31,6.2,6.2,0,0,0-4.66-.75,26,26,0,0,0-5.35-5.57,16.34,16.34,0,0,0,7.78-5.1,5.94,5.94,0,0,0,1.77.27,6.07,6.07,0,0,0,5.17-2.85A6,6,0,0,0,101,33ZM90.41,55.69a2.14,2.14,0,0,1,.67-.67,2.2,2.2,0,0,1,1.12-.31,2.12,2.12,0,1,1,0,4.23,2.12,2.12,0,0,1-1.78-3.25ZM96.79,35.5a2.14,2.14,0,0,1-2.91.65l-.1-.06A2.11,2.11,0,0,1,95,32.26a2.14,2.14,0,0,1,1.12.32,2.16,2.16,0,0,1,.94,1.33A2.12,2.12,0,0,1,96.79,35.5Z"/><path class="cls-6" d="M109.67,74a6.09,6.09,0,0,0,2.11,2.65l.29.19a6.12,6.12,0,1,0,6.53-10.35,6.18,6.18,0,0,0-3.26-.94l-.38,0a25.67,25.67,0,0,1,0-11.27l.33,0a6.12,6.12,0,1,0-4.14-1.63l.07.06a28.75,28.75,0,0,0,0,14.42,5.25,5.25,0,0,0-.42.4,5.1,5.1,0,0,0-.63.82,5.73,5.73,0,0,0-.71,1.58,15.21,15.21,0,0,0-6.83,2.73c-2,1.32-4,2.57-9.63,2.66a32.76,32.76,0,0,0-5.29-.11c-1.44,0-2.92.1-4.85,0-1.34-.07-2.11-.88-3.46-2.42-1.8-2.06-4.22-4.65-9.37-5v4c3.29.3,4.8,1.89,6.36,3.67s3.17,3.62,6.25,3.78a49.83,49.83,0,0,0,5.21,0,24.19,24.19,0,0,1,7.86.69c2.6.64,12.09,9.67,14.77,14.32a4.25,4.25,0,0,0-.31.43,6.1,6.1,0,0,0,1.61,8.25l.29.2a6.12,6.12,0,1,0,3.27-11.3,6.16,6.16,0,0,0-1.55.2c-2.56-4.19-8.65-10.46-13.18-13.79a18.42,18.42,0,0,0,4.21-2.19A11.34,11.34,0,0,1,109.67,74Zm3.88-26.92a2.12,2.12,0,0,1,2.91-.66A2.11,2.11,0,1,1,114.21,50l-.1-.06A2.12,2.12,0,0,1,113.55,47.1Zm0,23.46a2.12,2.12,0,0,1,1.79-1,2,2,0,0,1,1.12.33,2.08,2.08,0,0,1,.94,1.32,2.11,2.11,0,0,1-3.19,2.24l-.1-.06A2.12,2.12,0,0,1,113.55,70.56Zm0,26.3a2.12,2.12,0,0,1,1.79-1,2.1,2.1,0,0,1,1.12.33,2.07,2.07,0,0,1,.94,1.33,2.1,2.1,0,0,1-.28,1.58,2.15,2.15,0,0,1-2.91.66l-.1-.07A2.11,2.11,0,0,1,113.55,96.86Z"/><path class="cls-7" d="M63.76,43.31a13.3,13.3,0,0,1-2.62.83,1.8,1.8,0,0,0-.39.08c-3.64.68-10.08.61-18.78-4.43a6.1,6.1,0,0,0-3.44-7.45,6.11,6.11,0,1,0,1,10.68A37.82,37.82,0,0,0,54,48.3a10.48,10.48,0,0,0-2.25,3.93,4.09,4.09,0,0,1-1.22,2.09,19.79,19.79,0,0,1-5.08,2.06,6.11,6.11,0,1,0-1.73,7.91h0a6.12,6.12,0,0,0,2.41-3.93,23.7,23.7,0,0,0,6.67-2.75l.25-.19a7.89,7.89,0,0,0,2.45-3.85c.64-1.78,1.25-3.47,6.36-5.52A16.91,16.91,0,0,0,65,46.83v-4ZM38.09,38.79a2.08,2.08,0,0,1-.7.88,2.11,2.11,0,0,1-3.19-2.53A2.13,2.13,0,0,1,37,36a2.11,2.11,0,0,1,1.12,2.76ZM41.4,61.06a2.1,2.1,0,0,1-3.34-1.86,2.11,2.11,0,1,1,3.34,1.86Z"/><path d="M58.56,111.66l-.18-.12Z"/><path class="cls-7" d="M59,112.46h0a21.55,21.55,0,0,1-5.6-9.59,4.81,4.81,0,0,0,.55-.37,6.11,6.11,0,1,0-8.57-1.16,6.24,6.24,0,0,0,4.1,2.34,26.09,26.09,0,0,0,3.06,7.06,16.34,16.34,0,0,0-9.05,2,6.11,6.11,0,1,0,2.22,3.35,13.3,13.3,0,0,1,10.79-.55A27,27,0,0,0,65,120.83v-4A24.46,24.46,0,0,1,59,112.46Zm-18,6.86a2.05,2.05,0,0,1-2,.29,2.1,2.1,0,0,1-.94-.69,2.07,2.07,0,0,1-.41-1.57A2,2,0,0,1,38.5,116a2.14,2.14,0,0,1,3,.41l.07.09A2.1,2.1,0,0,1,41,119.32Zm7.51-20.41A2.11,2.11,0,0,1,51,95.65a2.16,2.16,0,0,1,.94.7,2.12,2.12,0,0,1-.41,3,2.18,2.18,0,0,1-.86.39,2.2,2.2,0,0,1-1.16-.1A2.07,2.07,0,0,1,48.55,98.91Z"/><path d="M58.56,109.26a1.88,1.88,0,0,0-.18-.12A1.88,1.88,0,0,1,58.56,109.26Z"/><path d="M58.56,111.66l-.18-.12Z"/><path class="cls-7" d="M55.62,76.1c-1.35,1.54-2.11,2.35-3.45,2.42-1.93.1-3.41,0-4.83,0s-4-.82-8-2.61S27.28,66.26,24.61,61.62a4.25,4.25,0,0,0,.31-.43A6.07,6.07,0,0,0,23.31,53l-.28-.2a6.18,6.18,0,0,0-3.26-.94,6.11,6.11,0,1,0,1.53,12C23.86,68,31.55,75.9,34.46,77.6a18.55,18.55,0,0,0-4.2,2.18,11.29,11.29,0,0,1-4.85,2.07,6,6,0,0,0-2.1-2.65L23,79A6.11,6.11,0,0,0,16.5,89.34a6.18,6.18,0,0,0,3.26.94c.13,0,.25,0,.38,0a25.73,25.73,0,0,1,0,11.25l-.33,0a6.11,6.11,0,1,0,4.13,1.62l-.08-.07a28.51,28.51,0,0,0,0-14.36c.14-.14.3-.26.43-.41a6.16,6.16,0,0,0,.63-.82,6,6,0,0,0,.71-1.58,15.24,15.24,0,0,0,6.81-2.72,13.85,13.85,0,0,1,7.84-2.59,21.13,21.13,0,0,0,6.91,2,32.14,32.14,0,0,0,5.2,0c3.07-.16,4.76-2.08,6.24-3.77s3-3.48,6.4-3.91v-4C59.83,71.33,57.42,74.05,55.62,76.1ZM19.76,60a2.14,2.14,0,0,1-1.12-.32,2.11,2.11,0,0,1-.93-1.33A2.05,2.05,0,0,1,18,56.8a2.14,2.14,0,0,1,2.91-.65l.1.06a2.1,2.1,0,0,1,.55,2.84A2.07,2.07,0,0,1,19.76,60ZM18.64,86a2.11,2.11,0,0,1-.93-1.33A2,2,0,0,1,18,83.05a2.15,2.15,0,0,1,2.91-.66l.1.07a2.11,2.11,0,0,1-1.23,3.82A2.14,2.14,0,0,1,18.64,86Zm2.9,22.75a2.07,2.07,0,0,1-1.78,1,2.14,2.14,0,0,1-1.12-.32,2.11,2.11,0,0,1-.93-1.33,2,2,0,0,1,.27-1.58,2.14,2.14,0,0,1,2.91-.65l.1.06A2.1,2.1,0,0,1,21.54,108.71Z"/><path class="cls-6" d="M63.76,40.31a13.3,13.3,0,0,1-2.62.83,1.8,1.8,0,0,0-.39.08c-3.64.68-10.08.61-18.78-4.43a6.1,6.1,0,0,0-3.44-7.45,6.11,6.11,0,1,0,1,10.68A37.82,37.82,0,0,0,54,45.3a10.48,10.48,0,0,0-2.25,3.93,4.09,4.09,0,0,1-1.22,2.09,19.79,19.79,0,0,1-5.08,2.06,6.11,6.11,0,1,0-1.73,7.91h0a6.12,6.12,0,0,0,2.41-3.93,23.7,23.7,0,0,0,6.67-2.75l.25-.19a7.89,7.89,0,0,0,2.45-3.85c.64-1.78,1.25-3.47,6.36-5.52A16.91,16.91,0,0,0,65,43.83v-4ZM38.09,35.79a2.08,2.08,0,0,1-.7.88,2.11,2.11,0,0,1-3.19-2.53A2.13,2.13,0,0,1,37,33a2.11,2.11,0,0,1,1.12,2.76ZM41.4,58.06a2.1,2.1,0,0,1-3.34-1.86,2.11,2.11,0,1,1,3.34,1.86Z"/><path class="cls-6" d="M58.56,109.26a1.88,1.88,0,0,0-.18-.12A1.88,1.88,0,0,1,58.56,109.26Z"/><path class="cls-6" d="M59,109.46h0a21.55,21.55,0,0,1-5.6-9.59,4.81,4.81,0,0,0,.55-.37,6.11,6.11,0,1,0-8.57-1.16,6.24,6.24,0,0,0,4.1,2.34,26.09,26.09,0,0,0,3.06,7.06,16.34,16.34,0,0,0-9.05,2,6.11,6.11,0,1,0,2.22,3.35,13.3,13.3,0,0,1,10.79-.55A27,27,0,0,0,65,117.83v-4A24.46,24.46,0,0,1,59,109.46Zm-18,6.86a2.05,2.05,0,0,1-2,.29,2.1,2.1,0,0,1-.94-.69,2.07,2.07,0,0,1-.41-1.57A2,2,0,0,1,38.5,113a2.14,2.14,0,0,1,3,.41l.07.09A2.1,2.1,0,0,1,41,116.32Zm7.51-20.41A2.11,2.11,0,0,1,51,92.65a2.16,2.16,0,0,1,.94.7,2.12,2.12,0,0,1-.41,3,2.18,2.18,0,0,1-.86.39,2.2,2.2,0,0,1-1.16-.1A2.07,2.07,0,0,1,48.55,95.91Z"/><path class="cls-6" d="M55.62,73.12c-1.35,1.54-2.11,2.34-3.45,2.41-1.93.11-3.41,0-4.83,0s-4-.82-8-2.6S27.28,63.28,24.61,58.64a4.25,4.25,0,0,0,.31-.43A6.09,6.09,0,0,0,23.31,50L23,49.78A6.11,6.11,0,0,0,16.5,60.11a6.18,6.18,0,0,0,3.26.94,6,6,0,0,0,1.54-.2C23.86,65,31.55,72.91,34.46,74.62a18.16,18.16,0,0,0-4.2,2.18,11.17,11.17,0,0,1-4.85,2.06,6,6,0,0,0-2.1-2.64L23,76a6.11,6.11,0,1,0-3.27,11.26c.13,0,.25,0,.38,0a25.78,25.78,0,0,1,0,11.26c-.11,0-.22,0-.33,0a6.12,6.12,0,1,0,4.13,1.63.27.27,0,0,0-.08-.07,28.55,28.55,0,0,0,0-14.37,5.51,5.51,0,0,0,.43-.41,5.1,5.1,0,0,0,.63-.82,5.81,5.81,0,0,0,.71-1.57,15.12,15.12,0,0,0,6.81-2.73,13.93,13.93,0,0,1,7.84-2.58,21.63,21.63,0,0,0,6.91,2,34.6,34.6,0,0,0,5.2,0c3.07-.17,4.76-2.08,6.24-3.78s3-3.46,6.4-3.88v-4C59.83,68.35,57.42,71.07,55.62,73.12ZM19.76,57.05A2.12,2.12,0,0,1,18,53.81a2.16,2.16,0,0,1,2.91-.65l.1.07a2.11,2.11,0,0,1-1.23,3.82ZM18.64,83A2.12,2.12,0,0,1,18,80.06a2.14,2.14,0,0,1,2.91-.65l.1.06a2.11,2.11,0,0,1,.55,2.85,2.08,2.08,0,0,1-1.78,1A2.14,2.14,0,0,1,18.64,83Zm2.9,22.76a2.09,2.09,0,0,1-1.78,1,2.15,2.15,0,0,1-1.12-.33,2.12,2.12,0,0,1-.66-2.91,2.16,2.16,0,0,1,2.91-.65l.1.07A2.1,2.1,0,0,1,21.54,105.73Z"/></g></g></svg>