<?xml version="1.0" encoding="utf-8"?>
<!-- Generator: Adobe Illustrator 16.0.0, SVG Export Plug-In . SVG Version: 6.00 Build 0)  -->
<!DOCTYPE svg PUBLIC "-//W3C//DTD SVG 1.1//EN" "http://www.w3.org/Graphics/SVG/1.1/DTD/svg11.dtd" [
	<!ENTITY ns_extend "http://ns.adobe.com/Extensibility/1.0/">
	<!ENTITY ns_ai "http://ns.adobe.com/AdobeIllustrator/10.0/">
	<!ENTITY ns_graphs "http://ns.adobe.com/Graphs/1.0/">
	<!ENTITY ns_vars "http://ns.adobe.com/Variables/1.0/">
	<!ENTITY ns_imrep "http://ns.adobe.com/ImageReplacement/1.0/">
	<!ENTITY ns_sfw "http://ns.adobe.com/SaveForWeb/1.0/">
	<!ENTITY ns_custom "http://ns.adobe.com/GenericCustomNamespace/1.0/">
	<!ENTITY ns_adobe_xpath "http://ns.adobe.com/XPath/1.0/">
]>
<svg version="1.1" id="Layer_1" xmlns:x="&ns_extend;" xmlns:i="&ns_ai;" xmlns:graph="&ns_graphs;"
	 xmlns="http://www.w3.org/2000/svg" xmlns:xlink="http://www.w3.org/1999/xlink" x="0px" y="0px" width="310px" height="290px"
	 viewBox="0 0 310 290" enable-background="new 0 0 310 290" xml:space="preserve">
<metadata>
	<sfw  xmlns="&ns_sfw;">
		<slices></slices>
		<sliceSourceBounds  height="283.862" width="305.083" y="-974.862" x="3442.558" bottomLeftOrigin="true"></sliceSourceBounds>
	</sfw>
</metadata>
<g>
</g>
<g>
	<g>
		<path fill="#4E7EC2" d="M33.9,206.098H17.775l-2.953,10.359H1.558l18.046-54.607h12.422l18.233,54.607H36.947L33.9,206.098z
			 M20.682,196.114h10.266l-5.203-17.625L20.682,196.114z"/>
		<path fill="#4E7EC2" d="M72.265,207.271c3.536,0,5.333-2.328,5.391-6.985h11.471c-0.058,5.088-1.624,9.2-4.7,12.333
			c-3.076,3.134-7.044,4.7-11.902,4.7c-6.009,0-10.594-1.868-13.756-5.605c-3.163-3.737-4.772-9.243-4.83-16.517v-3.709
			c0-7.331,1.56-12.922,4.679-16.774s7.726-5.779,13.821-5.779c5.146,0,9.199,1.589,12.161,4.766c2.96,3.177,4.47,7.684,4.527,13.52
			H77.655c-0.029-2.645-0.46-4.678-1.294-6.102c-0.834-1.423-2.214-2.136-4.14-2.136c-2.128,0-3.651,0.76-4.571,2.278
			s-1.408,4.462-1.466,8.83v4.772c0,3.818,0.187,6.486,0.561,8.005c0.373,1.519,0.992,2.632,1.854,3.341
			S70.684,207.271,72.265,207.271z"/>
		<path fill="#4E7EC2" d="M94.603,191.618c0-7.072,1.667-12.621,5.002-16.646c3.335-4.025,7.949-6.038,13.843-6.038
			c5.951,0,10.594,2.013,13.93,6.038c3.334,4.024,5.002,9.602,5.002,16.731v2.976c0,7.102-1.653,12.65-4.959,16.646
			c-3.307,3.996-7.935,5.994-13.886,5.994c-5.98,0-10.63-2.005-13.951-6.016c-3.32-4.011-4.98-9.58-4.98-16.71V191.618z
			 M106.85,194.689c0,8.389,2.228,12.582,6.685,12.582c4.11,0,6.324-3.499,6.641-10.5l0.043-5.163c0-4.28-0.59-7.455-1.768-9.523
			c-1.18-2.068-2.847-3.103-5.003-3.103c-2.069,0-3.687,1.034-4.851,3.103c-1.165,2.068-1.747,5.243-1.747,9.523V194.689z"/>
		<path fill="#4E7EC2" d="M162.91,212.188c-2.53,3.422-5.923,5.132-10.178,5.132c-4.284,0-7.532-1.473-9.746-4.42
			c-2.214-2.946-3.32-7.237-3.32-12.872v-30.229h12.204v30.531c0.058,4.543,1.566,6.813,4.528,6.813
			c2.788,0,4.801-1.208,6.037-3.623v-33.722h12.29v46.659h-11.471L162.91,212.188z"/>
		<path fill="#4E7EC2" d="M204.093,203.951c0-1.035-0.496-1.99-1.487-2.867c-0.992-0.877-3.199-2.063-6.62-3.559
			c-5.031-2.04-8.488-4.153-10.371-6.339c-1.883-2.185-2.824-4.901-2.824-8.15c0-4.082,1.473-7.453,4.42-10.112
			c2.946-2.659,6.85-3.989,11.708-3.989c5.117,0,9.214,1.323,12.29,3.968c3.076,2.646,4.614,6.195,4.614,10.651h-12.204
			c0-3.795-1.581-5.692-4.743-5.692c-1.294,0-2.357,0.403-3.191,1.208s-1.25,1.926-1.25,3.363c0,1.035,0.459,1.948,1.38,2.738
			c0.92,0.791,3.09,1.919,6.512,3.385c4.973,1.841,8.487,3.889,10.543,6.146s3.084,5.183,3.084,8.775
			c0,4.169-1.567,7.519-4.7,10.048c-3.135,2.53-7.245,3.795-12.334,3.795c-3.421,0-6.44-0.668-9.056-2.005
			c-2.616-1.337-4.665-3.198-6.146-5.585c-1.48-2.386-2.221-4.959-2.221-7.719h11.601c0.057,2.128,0.553,3.724,1.487,4.787
			s2.465,1.595,4.593,1.595C202.454,208.393,204.093,206.912,204.093,203.951z"/>
		<path fill="#4E7EC2" d="M237.729,158.326v11.472h6.253v9.142h-6.253v23.193c0,1.843,0.252,3.109,0.755,3.801
			s1.474,1.036,2.911,1.036c1.179,0,2.142-0.101,2.89-0.302l-0.087,9.487c-2.069,0.776-4.313,1.164-6.728,1.164
			c-7.877,0-11.858-4.519-11.944-13.556v-24.824h-5.391v-9.142h5.391v-11.472H237.729z"/>
		<path fill="#4E7EC2" d="M250.666,157.723c0-1.897,0.604-3.449,1.812-4.657c1.207-1.207,2.817-1.812,4.83-1.812
			c2.012,0,3.622,0.604,4.829,1.812c1.208,1.208,1.812,2.76,1.812,4.657c0,1.869-0.597,3.422-1.789,4.657
			c-1.193,1.236-2.811,1.854-4.852,1.854c-2.042,0-3.659-0.618-4.852-1.854C251.263,161.145,250.666,159.592,250.666,157.723z
			 M263.474,216.457h-12.247v-46.659h12.247V216.457z"/>
		<path fill="#4E7EC2" d="M289.779,207.271c3.536,0,5.333-2.328,5.391-6.985h11.471c-0.058,5.088-1.624,9.2-4.7,12.333
			c-3.076,3.134-7.044,4.7-11.902,4.7c-6.009,0-10.594-1.868-13.756-5.605c-3.163-3.737-4.772-9.243-4.83-16.517v-3.709
			c0-7.331,1.56-12.922,4.679-16.774s7.726-5.779,13.821-5.779c5.146,0,9.199,1.589,12.161,4.766c2.96,3.177,4.47,7.684,4.527,13.52
			H295.17c-0.029-2.645-0.46-4.678-1.294-6.102c-0.834-1.423-2.214-2.136-4.14-2.136c-2.128,0-3.651,0.76-4.571,2.278
			s-1.408,4.462-1.466,8.83v4.772c0,3.818,0.187,6.486,0.561,8.005c0.373,1.519,0.992,2.632,1.854,3.341
			S288.198,207.271,289.779,207.271z"/>
		<path fill="#EB743B" d="M48.179,285.457V230.85H66.74c6.375,0,11.242,1.289,14.602,3.867c3.358,2.578,5.038,6.32,5.038,11.226
			c0,2.782-0.609,5.203-1.827,7.266c-1.219,2.063-3.017,3.579-5.391,4.547c2.562,0.75,4.547,2.18,5.953,4.289
			c1.405,2.109,2.108,4.695,2.108,7.758c0,5.437-1.578,9.405-4.733,11.905c-3.157,2.501-7.906,3.75-14.25,3.75H48.179z
			 M61.443,253.536h6.375c3.531-0.094,5.297-1.969,5.297-5.625c0-2.156-0.438-3.694-1.313-4.616
			c-0.875-0.922-2.219-1.383-4.031-1.383h-6.328V253.536z M61.443,262.771v11.765h6.797c1.844,0,3.258-0.501,4.242-1.506
			c0.984-1.003,1.477-2.384,1.477-4.142c0-3.952-1.594-5.991-4.781-6.117H61.443z"/>
		<path fill="#EB743B" d="M118.35,250.57l-4.054-0.345c-3.335,0-5.592,1.466-6.771,4.398v30.833H95.278v-46.659h11.514l0.346,5.045
			c1.926-3.938,4.585-5.908,7.978-5.908c1.38,0,2.501,0.188,3.363,0.561L118.35,250.57z"/>
		<path fill="#EB743B" d="M145.475,285.457c-0.346-0.719-0.69-1.926-1.035-3.622c-2.186,2.99-5.146,4.484-8.884,4.484
			c-3.91,0-7.151-1.294-9.724-3.881c-2.573-2.588-3.86-5.937-3.86-10.048c0-4.887,1.56-8.668,4.68-11.342
			c3.118-2.674,7.611-4.038,13.476-4.097h3.709V253.2c0-2.098-0.36-3.579-1.078-4.441c-0.719-0.862-1.769-1.294-3.148-1.294
			c-3.048,0-4.571,1.783-4.571,5.348h-12.203c0-4.313,1.617-7.87,4.851-10.673c3.234-2.803,7.324-4.205,12.269-4.205
			c5.117,0,9.078,1.33,11.881,3.989s4.205,6.462,4.205,11.406v21.95c0.057,4.025,0.632,7.173,1.725,9.443v0.733H145.475z
			 M138.272,276.746c1.352,0,2.501-0.272,3.45-0.819c0.948-0.546,1.652-1.192,2.113-1.94v-9.703h-2.933
			c-2.07,0-3.702,0.662-4.895,1.983c-1.193,1.323-1.79,3.091-1.79,5.305C134.219,275.021,135.57,276.746,138.272,276.746z"/>
		<path fill="#EB743B" d="M164.88,226.723c0-1.897,0.604-3.449,1.812-4.657c1.207-1.207,2.817-1.812,4.83-1.812
			c2.012,0,3.622,0.604,4.829,1.812c1.208,1.208,1.812,2.76,1.812,4.657c0,1.869-0.597,3.422-1.789,4.657
			c-1.193,1.236-2.811,1.854-4.852,1.854c-2.042,0-3.659-0.618-4.852-1.854C165.477,230.145,164.88,228.592,164.88,226.723z
			 M177.688,285.457H165.44v-46.659h12.247V285.457z"/>
		<path fill="#EB743B" d="M198.301,238.798l0.346,4.614c2.76-3.651,6.367-5.478,10.823-5.478c8.021,0,12.146,5.621,12.377,16.861
			v30.661H209.6v-29.755c0-2.645-0.396-4.564-1.186-5.757c-0.792-1.193-2.178-1.79-4.162-1.79c-2.214,0-3.938,1.136-5.175,3.406
			v33.896H186.83v-46.659H198.301z"/>
		<path fill="#EB743B" d="M244.099,275.409h18.457v10.048h-32.946v-7.568l18.025-28.914H230.04v-10.177h32.257v7.374
			L244.099,275.409z"/>
	</g>
	<g>
		<g>
			<polygon fill="#EB743B" points="157,2.457 157,146.457 218,111.457 218,37.457 			"/>
			<polygon fill="#4E7EC2" points="152,2.457 91,37.457 91,111.457 152,146.457 			"/>
			<g>
				<g opacity="0.07">
					<path d="M174.302,94.19c0.386-0.645,1.066-1.03,1.819-1.03c0.378,0,0.752,0.104,1.078,0.297c1,0.601,1.331,1.899,0.735,2.898
						c-0.385,0.646-1.064,1.032-1.817,1.032c-0.379,0-0.755-0.104-1.084-0.301c-0.483-0.288-0.826-0.748-0.964-1.294
						C173.931,95.244,174.014,94.676,174.302,94.19z M186.904,116.553c-0.49,0.421-1.018,0.509-1.373,0.509
						c-0.621,0-1.207-0.269-1.608-0.734c-0.758-0.885-0.654-2.222,0.231-2.981c0.492-0.423,1.018-0.512,1.373-0.512
						c0.617,0,1.201,0.269,1.605,0.74c0.368,0.43,0.547,0.976,0.504,1.538S187.335,116.185,186.904,116.553z"/>
					<path d="M166.001,48.067c0.07,0.019,0.142,0.034,0.212,0.046C166.141,48.102,166.07,48.086,166.001,48.067z"/>
					<path d="M177.38,57.714c0.169-0.267,0.395-0.49,0.673-0.661c0.335-0.207,0.722-0.316,1.121-0.316c0.4,0,0.79,0.112,1.122,0.321
						c0.987,0.627,1.283,1.936,0.66,2.919c-0.392,0.618-1.063,0.988-1.795,0.988c-0.397,0-0.785-0.113-1.124-0.327
						C177.053,60.014,176.759,58.701,177.38,57.714z M183.759,37.526c-0.6,0.951-1.938,1.271-2.912,0.653l-0.096-0.063
						c-0.914-0.647-1.161-1.897-0.558-2.851c0.386-0.613,1.053-0.98,1.784-0.98c0.397,0,0.787,0.113,1.124,0.326
						c0.479,0.304,0.813,0.775,0.937,1.33C184.16,36.488,184.063,37.049,183.759,37.526z"/>
					<path d="M200.525,49.125c0.388-0.614,1.054-0.98,1.783-0.98c0.399,0,0.79,0.113,1.125,0.325c0.48,0.304,0.813,0.775,0.937,1.33
						c0.122,0.546,0.024,1.106-0.279,1.584c-0.598,0.951-1.938,1.272-2.912,0.653l-0.094-0.063
						C200.168,51.328,199.923,50.078,200.525,49.125z M200.525,72.588c0.388-0.614,1.054-0.98,1.783-0.98
						c0.399,0,0.79,0.112,1.125,0.326c0.48,0.304,0.813,0.774,0.937,1.329c0.122,0.546,0.024,1.107-0.279,1.585
						c-0.598,0.95-1.938,1.271-2.912,0.652l-0.094-0.063C200.168,74.791,199.923,73.541,200.525,72.588z M200.525,98.891
						c0.388-0.613,1.054-0.979,1.783-0.979c0.399,0,0.79,0.112,1.125,0.325c0.48,0.304,0.813,0.775,0.937,1.33
						c0.122,0.547,0.024,1.106-0.279,1.584c-0.598,0.951-1.938,1.271-2.912,0.653l-0.094-0.063
						C200.168,101.094,199.923,99.845,200.525,98.891z"/>
					<path d="M190.176,108.561c-1.165-1.36-2.858-2.139-4.648-2.139c-1.459,0-2.875,0.525-3.983,1.477
						c-1.612,1.383-2.326,3.429-2.087,5.397c-1.948,0.7-4.258,1.365-5.328,1.332c-0.821-0.044-1.302-0.346-2.224-0.972
						c-1.172-0.795-2.418-1.512-4.148-1.847c2.936-2.761,6.009-6.83,8.584-12.834c2.061-0.076,3.976-1.193,5.038-2.972
						c1.725-2.896,0.773-6.659-2.124-8.394c-0.949-0.565-2.032-0.864-3.134-0.864c-2.146,0-4.161,1.144-5.261,2.986
						c-0.838,1.405-1.079,3.05-0.678,4.636c0.351,1.393,1.16,2.59,2.302,3.429c-4.053,9.218-9.219,13.081-12.565,14.685
						c-0.128,0.045-0.248,0.101-0.36,0.168c-1.187,0.531-2.05,0.704-2.559,0.808v4c0.275-0.03,1.885-0.118,4.247-1.192
						c5.348-1.357,6.839-0.354,8.407,0.709c1.021,0.692,2.291,1.554,4.263,1.656c0.1,0.005,0.204,0.008,0.309,0.008
						c2.109,0,5.172-1.022,7.021-1.723c1.144,1.116,2.676,1.75,4.285,1.75l0,0c1.461,0,2.876-0.524,3.983-1.476
						c1.24-1.062,1.993-2.546,2.118-4.176C191.758,111.382,191.24,109.799,190.176,108.561z M174.302,91.785
						c0.386-0.645,1.066-1.03,1.819-1.03c0.378,0,0.752,0.104,1.078,0.297c1,0.601,1.331,1.899,0.735,2.898
						c-0.385,0.646-1.064,1.032-1.817,1.032c-0.379,0-0.755-0.104-1.084-0.301c-0.483-0.288-0.826-0.748-0.964-1.294
						C173.931,92.839,174.014,92.271,174.302,91.785z M186.904,114.147c-0.49,0.421-1.018,0.509-1.373,0.509
						c-0.621,0-1.207-0.269-1.608-0.734c-0.758-0.885-0.654-2.222,0.231-2.981c0.492-0.423,1.018-0.512,1.373-0.512
						c0.617,0,1.201,0.269,1.605,0.74c0.368,0.43,0.547,0.976,0.504,1.538S187.335,113.779,186.904,114.147z"/>
					<path d="M166.001,45.662c0.07,0.019,0.142,0.034,0.212,0.046C166.141,45.696,166.07,45.681,166.001,45.662z"/>
					<path d="M187.95,32.661c-0.357-1.599-1.317-2.964-2.708-3.844c-0.98-0.617-2.109-0.944-3.265-0.944
						c-2.117,0-4.053,1.066-5.174,2.85c-1.354,2.138-1.218,4.799,0.144,6.759c-3.646,4.124-8.706,4.313-9.942,4.293
						c-3.692-1.604-7.234-2.164-10.005-2.317v3.996c2.441,0.144,5.553,0.686,8.748,2.136c0.005,0.002,0.01,0.002,0.015,0.005
						c3.445,1.563,6.334,3.928,8.607,7.041c-0.136,0.173-0.265,0.352-0.382,0.538c-1.796,2.854-0.942,6.644,1.903,8.444
						c0.98,0.622,2.111,0.951,3.27,0.951c2.113,0,4.051-1.065,5.183-2.852c1.806-2.851,0.951-6.642-1.908-8.453
						c-1.384-0.871-3.092-1.113-4.667-0.755c-1.538-2.154-3.323-4.017-5.345-5.566c2.517-0.778,5.401-2.269,7.78-5.096
						c0.572,0.172,1.166,0.267,1.77,0.267c2.116,0,4.051-1.068,5.172-2.849C188.021,35.89,188.307,34.256,187.95,32.661z
						 M177.38,55.309c0.169-0.267,0.395-0.49,0.673-0.661c0.335-0.207,0.722-0.316,1.121-0.316c0.4,0,0.79,0.112,1.122,0.321
						c0.987,0.627,1.283,1.936,0.66,2.919c-0.392,0.618-1.063,0.988-1.795,0.988c-0.397,0-0.785-0.113-1.124-0.327
						C177.053,57.608,176.759,56.296,177.38,55.309z M183.759,35.121c-0.6,0.951-1.938,1.271-2.912,0.653l-0.096-0.063
						c-0.914-0.647-1.161-1.897-0.558-2.851c0.386-0.613,1.053-0.98,1.784-0.98c0.397,0,0.787,0.113,1.124,0.326
						c0.479,0.304,0.813,0.775,0.937,1.33C184.16,34.083,184.063,34.644,183.759,35.121z"/>
					<path d="M196.646,73.645c0.425,1.035,1.136,1.962,2.109,2.649c0.072,0.052,0.151,0.105,0.283,0.191
						c0.981,0.621,2.11,0.949,3.268,0.949c2.116,0,4.052-1.068,5.173-2.849c0.875-1.375,1.16-3.01,0.805-4.604
						c-0.358-1.598-1.318-2.964-2.709-3.844c-0.98-0.617-2.109-0.944-3.266-0.944c-0.125,0-0.25,0.008-0.375,0.018
						c-0.71-3.157-0.919-7.769,0.035-11.265c0.112,0.011,0.225,0.024,0.337,0.024c2.116,0,4.052-1.067,5.173-2.849
						c0.875-1.375,1.16-3.009,0.805-4.604c-0.358-1.599-1.318-2.964-2.709-3.844c-0.98-0.617-2.109-0.944-3.266-0.944
						c-2.114,0-4.051,1.066-5.173,2.85c-1.604,2.532-1.12,5.804,1.024,7.765c0.021,0.02,0.048,0.037,0.071,0.059
						c-1.349,4.518-1.146,10.324-0.036,14.417c-0.144,0.132-0.294,0.254-0.426,0.399c-0.229,0.255-0.445,0.526-0.634,0.824
						c-0.318,0.502-0.551,1.033-0.71,1.578c-3.371,0.488-5.198,1.671-6.824,2.729c-2.035,1.324-3.961,2.572-9.636,2.665
						c-1.964-0.23-3.553-0.177-5.29-0.116c-1.431,0.052-2.91,0.106-4.849,0.003c-1.335-0.071-2.104-0.882-3.458-2.424
						c-1.803-2.055-4.219-4.648-9.369-5.022v4c3.295,0.3,4.796,1.888,6.356,3.667c1.487,1.694,3.175,3.615,6.256,3.782
						c2.118,0.114,3.76,0.052,5.208,0.001c2.491-0.092,4.453-0.161,7.855,0.684c2.607,0.643,12.099,9.673,14.773,14.322
						c-0.108,0.142-0.219,0.282-0.313,0.434c-1.743,2.755-1.026,6.385,1.619,8.251c0.072,0.052,0.151,0.104,0.283,0.191
						c0.981,0.621,2.11,0.948,3.268,0.948c2.116,0,4.052-1.068,5.173-2.849c0.875-1.374,1.16-3.009,0.805-4.603
						c-0.358-1.6-1.318-2.965-2.709-3.845c-0.98-0.617-2.109-0.944-3.266-0.944c-0.528,0-1.047,0.067-1.543,0.195
						c-2.561-4.187-8.652-10.455-13.189-13.792c1.813-0.628,3.05-1.435,4.212-2.188C193.216,74.782,194.402,74.021,196.646,73.645z
						 M200.525,46.72c0.388-0.614,1.054-0.98,1.783-0.98c0.399,0,0.79,0.113,1.125,0.325c0.48,0.304,0.813,0.775,0.937,1.33
						c0.122,0.546,0.024,1.106-0.279,1.584c-0.598,0.951-1.938,1.272-2.912,0.653l-0.094-0.063
						C200.168,48.923,199.923,47.673,200.525,46.72z M200.525,70.183c0.388-0.614,1.054-0.98,1.783-0.98
						c0.399,0,0.79,0.112,1.125,0.326c0.48,0.304,0.813,0.774,0.937,1.329c0.122,0.546,0.024,1.107-0.279,1.585
						c-0.598,0.95-1.938,1.271-2.912,0.652l-0.094-0.063C200.168,72.386,199.923,71.136,200.525,70.183z M200.525,96.485
						c0.388-0.613,1.054-0.979,1.783-0.979c0.399,0,0.79,0.112,1.125,0.325c0.48,0.304,0.813,0.775,0.937,1.33
						c0.122,0.547,0.024,1.106-0.279,1.584c-0.598,0.951-1.938,1.271-2.912,0.653l-0.094-0.063
						C200.168,98.688,199.923,97.439,200.525,96.485z"/>
				</g>
				<g>
					<g>
						<path fill="#D3562C" d="M190.176,111.561c-1.165-1.36-2.858-2.139-4.648-2.139c-1.459,0-2.875,0.525-3.983,1.477
							c-1.612,1.383-2.326,3.429-2.087,5.397c-1.948,0.7-4.258,1.365-5.328,1.332c-0.821-0.044-1.302-0.346-2.224-0.972
							c-1.172-0.795-2.418-1.512-4.148-1.847c2.936-2.761,6.009-6.83,8.584-12.834c2.061-0.076,3.976-1.193,5.038-2.972
							c1.725-2.896,0.773-6.659-2.124-8.394c-0.949-0.565-2.032-0.864-3.134-0.864c-2.146,0-4.161,1.144-5.261,2.986
							c-0.838,1.405-1.079,3.05-0.678,4.636c0.351,1.393,1.16,2.59,2.302,3.429c-4.053,9.218-9.219,13.081-12.565,14.685
							c-0.128,0.045-0.248,0.101-0.36,0.168c-1.187,0.531-2.05,0.704-2.559,0.808v4c0.275-0.03,1.885-0.118,4.247-1.192
							c5.348-1.357,6.839-0.354,8.407,0.709c1.021,0.692,2.291,1.554,4.263,1.656c0.1,0.005,0.204,0.008,0.309,0.008
							c2.109,0,5.172-1.022,7.021-1.723c1.144,1.116,2.676,1.75,4.285,1.75l0,0c1.461,0,2.876-0.524,3.983-1.476
							c1.24-1.062,1.993-2.546,2.118-4.176C191.758,114.382,191.24,112.799,190.176,111.561z M174.302,94.785
							c0.386-0.645,1.066-1.03,1.819-1.03c0.378,0,0.752,0.104,1.078,0.297c1,0.601,1.331,1.899,0.735,2.898
							c-0.385,0.646-1.064,1.032-1.817,1.032c-0.379,0-0.755-0.104-1.084-0.301c-0.483-0.288-0.826-0.748-0.964-1.294
							C173.931,95.839,174.014,95.271,174.302,94.785z M186.904,117.147c-0.49,0.421-1.018,0.509-1.373,0.509
							c-0.621,0-1.207-0.269-1.608-0.734c-0.758-0.885-0.654-2.222,0.231-2.981c0.492-0.423,1.018-0.512,1.373-0.512
							c0.617,0,1.201,0.269,1.605,0.74c0.368,0.43,0.547,0.976,0.504,1.538S187.335,116.779,186.904,117.147z"/>
						<path d="M166.001,48.067c0.07,0.019,0.142,0.034,0.212,0.046C166.141,48.102,166.07,48.086,166.001,48.067z"/>
						<path fill="#D3562C" d="M187.95,35.665c-0.357-1.599-1.317-2.964-2.708-3.844c-0.98-0.617-2.109-0.944-3.265-0.944
							c-2.117,0-4.053,1.066-5.174,2.85c-1.354,2.138-1.218,4.799,0.144,6.759c-3.646,4.124-8.706,4.313-9.942,4.293
							c-3.692-1.604-7.234-2.164-10.005-2.317v3.996c2.441,0.144,5.553,0.686,8.748,2.136c0.005,0.002,0.01,0.002,0.015,0.005
							c3.445,1.563,6.334,3.928,8.607,7.041c-0.136,0.173-0.265,0.352-0.382,0.538c-1.796,2.854-0.942,6.644,1.903,8.444
							c0.98,0.622,2.111,0.951,3.27,0.951c2.113,0,4.051-1.065,5.183-2.852c1.806-2.851,0.951-6.642-1.908-8.453
							c-1.384-0.871-3.092-1.113-4.667-0.755c-1.538-2.154-3.323-4.017-5.345-5.566c2.517-0.778,5.401-2.269,7.78-5.096
							c0.572,0.172,1.166,0.267,1.77,0.267c2.116,0,4.051-1.068,5.172-2.849C188.021,38.894,188.307,37.26,187.95,35.665z
							 M177.38,58.313c0.169-0.267,0.395-0.49,0.673-0.661c0.335-0.207,0.722-0.316,1.121-0.316c0.4,0,0.79,0.112,1.122,0.321
							c0.987,0.627,1.283,1.936,0.66,2.919c-0.392,0.618-1.063,0.988-1.795,0.988c-0.397,0-0.785-0.113-1.124-0.327
							C177.053,60.612,176.759,59.3,177.38,58.313z M183.759,38.125c-0.6,0.951-1.938,1.271-2.912,0.653l-0.096-0.063
							c-0.914-0.647-1.161-1.897-0.558-2.851c0.386-0.613,1.053-0.98,1.784-0.98c0.397,0,0.787,0.113,1.124,0.326
							c0.479,0.304,0.813,0.775,0.937,1.33C184.16,37.087,184.063,37.647,183.759,38.125z"/>
						<path fill="#D3562C" d="M196.646,76.645c0.425,1.035,1.136,1.962,2.109,2.649c0.072,0.052,0.151,0.105,0.283,0.191
							c0.981,0.621,2.11,0.949,3.268,0.949c2.116,0,4.052-1.068,5.173-2.849c0.875-1.375,1.16-3.01,0.805-4.604
							c-0.358-1.598-1.318-2.964-2.709-3.844c-0.98-0.617-2.109-0.944-3.266-0.944c-0.125,0-0.25,0.008-0.375,0.018
							c-0.71-3.157-0.919-7.769,0.035-11.265c0.112,0.011,0.225,0.024,0.337,0.024c2.116,0,4.052-1.067,5.173-2.849
							c0.875-1.375,1.16-3.009,0.805-4.604c-0.358-1.599-1.318-2.964-2.709-3.844c-0.98-0.617-2.109-0.944-3.266-0.944
							c-2.114,0-4.051,1.066-5.173,2.85c-1.604,2.532-1.12,5.804,1.024,7.765c0.021,0.02,0.048,0.037,0.071,0.059
							c-1.349,4.518-1.146,10.324-0.036,14.417c-0.144,0.132-0.294,0.254-0.426,0.399c-0.229,0.255-0.445,0.526-0.634,0.824
							c-0.318,0.502-0.551,1.033-0.71,1.578c-3.371,0.488-5.198,1.671-6.824,2.729c-2.035,1.324-3.961,2.572-9.636,2.665
							c-1.964-0.23-3.553-0.177-5.29-0.116c-1.431,0.052-2.91,0.106-4.849,0.003c-1.335-0.071-2.104-0.882-3.458-2.424
							c-1.803-2.055-4.219-4.648-9.369-5.022v4c3.295,0.3,4.796,1.888,6.356,3.667c1.487,1.694,3.175,3.615,6.256,3.782
							c2.118,0.114,3.76,0.052,5.208,0.001c2.491-0.092,4.453-0.161,7.855,0.684c2.607,0.643,12.099,9.673,14.773,14.322
							c-0.108,0.142-0.219,0.282-0.313,0.434c-1.743,2.755-1.026,6.385,1.619,8.251c0.072,0.052,0.151,0.104,0.283,0.191
							c0.981,0.621,2.11,0.948,3.268,0.948c2.116,0,4.052-1.068,5.173-2.849c0.875-1.374,1.16-3.009,0.805-4.603
							c-0.358-1.6-1.318-2.965-2.709-3.845c-0.98-0.617-2.109-0.944-3.266-0.944c-0.528,0-1.047,0.067-1.543,0.195
							c-2.561-4.187-8.652-10.455-13.189-13.792c1.813-0.628,3.05-1.435,4.212-2.188C193.216,77.782,194.402,77.021,196.646,76.645z
							 M200.525,49.72c0.388-0.614,1.054-0.98,1.783-0.98c0.399,0,0.79,0.113,1.125,0.325c0.48,0.304,0.813,0.775,0.937,1.33
							c0.122,0.546,0.024,1.106-0.279,1.584c-0.598,0.951-1.938,1.272-2.912,0.653l-0.094-0.063
							C200.168,51.923,199.923,50.673,200.525,49.72z M200.525,73.183c0.388-0.614,1.054-0.98,1.783-0.98
							c0.399,0,0.79,0.112,1.125,0.326c0.48,0.304,0.813,0.774,0.937,1.329c0.122,0.546,0.024,1.107-0.279,1.585
							c-0.598,0.95-1.938,1.271-2.912,0.652l-0.094-0.063C200.168,75.386,199.923,74.136,200.525,73.183z M200.525,99.485
							c0.388-0.613,1.054-0.979,1.783-0.979c0.399,0,0.79,0.112,1.125,0.325c0.48,0.304,0.813,0.775,0.937,1.33
							c0.122,0.547,0.024,1.106-0.279,1.584c-0.598,0.951-1.938,1.271-2.912,0.653l-0.094-0.063
							C200.168,101.688,199.923,100.439,200.525,99.485z"/>
					</g>
					<g>
						<path fill="#FFFEDB" d="M190.176,108.561c-1.165-1.36-2.858-2.139-4.648-2.139c-1.459,0-2.875,0.525-3.983,1.477
							c-1.612,1.383-2.326,3.429-2.087,5.397c-1.948,0.7-4.258,1.365-5.328,1.332c-0.821-0.044-1.302-0.346-2.224-0.972
							c-1.172-0.795-2.418-1.512-4.148-1.847c2.936-2.761,6.009-6.83,8.584-12.834c2.061-0.076,3.976-1.193,5.038-2.972
							c1.725-2.896,0.773-6.659-2.124-8.394c-0.949-0.565-2.032-0.864-3.134-0.864c-2.146,0-4.161,1.144-5.261,2.986
							c-0.838,1.405-1.079,3.05-0.678,4.636c0.351,1.393,1.16,2.59,2.302,3.429c-4.053,9.218-9.219,13.081-12.565,14.685
							c-0.128,0.045-0.248,0.101-0.36,0.168c-1.187,0.531-2.05,0.704-2.559,0.808v4c0.275-0.03,1.885-0.118,4.247-1.192
							c5.348-1.357,6.839-0.354,8.407,0.709c1.021,0.692,2.291,1.554,4.263,1.656c0.1,0.005,0.204,0.008,0.309,0.008
							c2.109,0,5.172-1.022,7.021-1.723c1.144,1.116,2.676,1.75,4.285,1.75l0,0c1.461,0,2.876-0.524,3.983-1.476
							c1.24-1.062,1.993-2.546,2.118-4.176C191.758,111.382,191.24,109.799,190.176,108.561z M174.302,91.785
							c0.386-0.645,1.066-1.03,1.819-1.03c0.378,0,0.752,0.104,1.078,0.297c1,0.601,1.331,1.899,0.735,2.898
							c-0.385,0.646-1.064,1.032-1.817,1.032c-0.379,0-0.755-0.104-1.084-0.301c-0.483-0.288-0.826-0.748-0.964-1.294
							C173.931,92.839,174.014,92.271,174.302,91.785z M186.904,114.147c-0.49,0.421-1.018,0.509-1.373,0.509
							c-0.621,0-1.207-0.269-1.608-0.734c-0.758-0.885-0.654-2.222,0.231-2.981c0.492-0.423,1.018-0.512,1.373-0.512
							c0.617,0,1.201,0.269,1.605,0.74c0.368,0.43,0.547,0.976,0.504,1.538S187.335,113.779,186.904,114.147z"/>
						<path fill="#FFFEDB" d="M166.001,45.662c0.07,0.019,0.142,0.034,0.212,0.046C166.141,45.696,166.07,45.681,166.001,45.662z"/>
						<path fill="#FFFEDB" d="M187.95,32.661c-0.357-1.599-1.317-2.964-2.708-3.844c-0.98-0.617-2.109-0.944-3.265-0.944
							c-2.117,0-4.053,1.066-5.174,2.85c-1.354,2.138-1.218,4.799,0.144,6.759c-3.646,4.124-8.706,4.313-9.942,4.293
							c-3.692-1.604-7.234-2.164-10.005-2.317v3.996c2.441,0.144,5.553,0.686,8.748,2.136c0.005,0.002,0.01,0.002,0.015,0.005
							c3.445,1.563,6.334,3.928,8.607,7.041c-0.136,0.173-0.265,0.352-0.382,0.538c-1.796,2.854-0.942,6.644,1.903,8.444
							c0.98,0.622,2.111,0.951,3.27,0.951c2.113,0,4.051-1.065,5.183-2.852c1.806-2.851,0.951-6.642-1.908-8.453
							c-1.384-0.871-3.092-1.113-4.667-0.755c-1.538-2.154-3.323-4.017-5.345-5.566c2.517-0.778,5.401-2.269,7.78-5.096
							c0.572,0.172,1.166,0.267,1.77,0.267c2.116,0,4.051-1.068,5.172-2.849C188.021,35.89,188.307,34.256,187.95,32.661z
							 M177.38,55.309c0.169-0.267,0.395-0.49,0.673-0.661c0.335-0.207,0.722-0.316,1.121-0.316c0.4,0,0.79,0.112,1.122,0.321
							c0.987,0.627,1.283,1.936,0.66,2.919c-0.392,0.618-1.063,0.988-1.795,0.988c-0.397,0-0.785-0.113-1.124-0.327
							C177.053,57.608,176.759,56.296,177.38,55.309z M183.759,35.121c-0.6,0.951-1.938,1.271-2.912,0.653l-0.096-0.063
							c-0.914-0.647-1.161-1.897-0.558-2.851c0.386-0.613,1.053-0.98,1.784-0.98c0.397,0,0.787,0.113,1.124,0.326
							c0.479,0.304,0.813,0.775,0.937,1.33C184.16,34.083,184.063,34.644,183.759,35.121z"/>
						<path fill="#FFFEDB" d="M196.646,73.645c0.425,1.035,1.136,1.962,2.109,2.649c0.072,0.052,0.151,0.105,0.283,0.191
							c0.981,0.621,2.11,0.949,3.268,0.949c2.116,0,4.052-1.068,5.173-2.849c0.875-1.375,1.16-3.01,0.805-4.604
							c-0.358-1.598-1.318-2.964-2.709-3.844c-0.98-0.617-2.109-0.944-3.266-0.944c-0.125,0-0.25,0.008-0.375,0.018
							c-0.71-3.157-0.919-7.769,0.035-11.265c0.112,0.011,0.225,0.024,0.337,0.024c2.116,0,4.052-1.067,5.173-2.849
							c0.875-1.375,1.16-3.009,0.805-4.604c-0.358-1.599-1.318-2.964-2.709-3.844c-0.98-0.617-2.109-0.944-3.266-0.944
							c-2.114,0-4.051,1.066-5.173,2.85c-1.604,2.532-1.12,5.804,1.024,7.765c0.021,0.02,0.048,0.037,0.071,0.059
							c-1.349,4.518-1.146,10.324-0.036,14.417c-0.144,0.132-0.294,0.254-0.426,0.399c-0.229,0.255-0.445,0.526-0.634,0.824
							c-0.318,0.502-0.551,1.033-0.71,1.578c-3.371,0.488-5.198,1.671-6.824,2.729c-2.035,1.324-3.961,2.572-9.636,2.665
							c-1.964-0.23-3.553-0.177-5.29-0.116c-1.431,0.052-2.91,0.106-4.849,0.003c-1.335-0.071-2.104-0.882-3.458-2.424
							c-1.803-2.055-4.219-4.648-9.369-5.022v4c3.295,0.3,4.796,1.888,6.356,3.667c1.487,1.694,3.175,3.615,6.256,3.782
							c2.118,0.114,3.76,0.052,5.208,0.001c2.491-0.092,4.453-0.161,7.855,0.684c2.607,0.643,12.099,9.673,14.773,14.322
							c-0.108,0.142-0.219,0.282-0.313,0.434c-1.743,2.755-1.026,6.385,1.619,8.251c0.072,0.052,0.151,0.104,0.283,0.191
							c0.981,0.621,2.11,0.948,3.268,0.948c2.116,0,4.052-1.068,5.173-2.849c0.875-1.374,1.16-3.009,0.805-4.603
							c-0.358-1.6-1.318-2.965-2.709-3.845c-0.98-0.617-2.109-0.944-3.266-0.944c-0.528,0-1.047,0.067-1.543,0.195
							c-2.561-4.187-8.652-10.455-13.189-13.792c1.813-0.628,3.05-1.435,4.212-2.188C193.216,74.782,194.402,74.021,196.646,73.645z
							 M200.525,46.72c0.388-0.614,1.054-0.98,1.783-0.98c0.399,0,0.79,0.113,1.125,0.325c0.48,0.304,0.813,0.775,0.937,1.33
							c0.122,0.546,0.024,1.106-0.279,1.584c-0.598,0.951-1.938,1.272-2.912,0.653l-0.094-0.063
							C200.168,48.923,199.923,47.673,200.525,46.72z M200.525,70.183c0.388-0.614,1.054-0.98,1.783-0.98
							c0.399,0,0.79,0.112,1.125,0.326c0.48,0.304,0.813,0.774,0.937,1.329c0.122,0.546,0.024,1.107-0.279,1.585
							c-0.598,0.95-1.938,1.271-2.912,0.652l-0.094-0.063C200.168,72.386,199.923,71.136,200.525,70.183z M200.525,96.485
							c0.388-0.613,1.054-0.979,1.783-0.979c0.399,0,0.79,0.112,1.125,0.325c0.48,0.304,0.813,0.775,0.937,1.33
							c0.122,0.547,0.024,1.106-0.279,1.584c-0.598,0.951-1.938,1.271-2.912,0.653l-0.094-0.063
							C200.168,98.688,199.923,97.439,200.525,96.485z"/>
					</g>
				</g>
			</g>
		</g>
		<g>
			<rect x="141" y="19.457" fill="#FFFEDB" width="6" height="4"/>
			<rect x="141" y="26.457" fill="#FFFEDB" width="6" height="4"/>
			<rect x="141" y="33.457" fill="#FFFEDB" width="6" height="4"/>
			<rect x="141" y="40.457" fill="#FFFEDB" width="6" height="4"/>
			<rect x="141" y="47.457" fill="#FFFEDB" width="6" height="4"/>
			<rect x="141" y="54.457" fill="#FFFEDB" width="6" height="4"/>
			<rect x="141" y="61.457" fill="#FFFEDB" width="6" height="4"/>
			<rect x="141" y="68.457" fill="#FFFEDB" width="6" height="4"/>
			<rect x="141" y="75.457" fill="#8DB2E3" width="6" height="4"/>
			<rect x="141" y="82.457" fill="#8DB2E3" width="6" height="4"/>
			<rect x="141" y="89.457" fill="#8DB2E3" width="6" height="4"/>
			<rect x="141" y="96.457" fill="#8DB2E3" width="6" height="4"/>
			<rect x="141" y="103.457" fill="#8DB2E3" width="6" height="4"/>
			<rect x="141" y="110.457" fill="#8DB2E3" width="6" height="4"/>
			<rect x="141" y="117.457" fill="#8DB2E3" width="6" height="4"/>
			<rect x="141" y="124.457" fill="#8DB2E3" width="6" height="4"/>
			<rect x="132" y="33.457" fill="#FFFEDB" width="6" height="4"/>
			<rect x="132" y="40.457" fill="#FFFEDB" width="6" height="4"/>
			<rect x="132" y="47.457" fill="#FFFEDB" width="6" height="4"/>
			<rect x="132" y="54.457" fill="#FFFEDB" width="6" height="4"/>
			<rect x="132" y="61.457" fill="#FFFEDB" width="6" height="4"/>
			<rect x="132" y="68.457" fill="#FFFEDB" width="6" height="4"/>
			<rect x="132" y="75.457" fill="#8DB2E3" width="6" height="4"/>
			<rect x="132" y="82.457" fill="#8DB2E3" width="6" height="4"/>
			<rect x="132" y="89.457" fill="#8DB2E3" width="6" height="4"/>
			<rect x="132" y="96.457" fill="#8DB2E3" width="6" height="4"/>
			<rect x="132" y="103.457" fill="#8DB2E3" width="6" height="4"/>
			<rect x="132" y="110.457" fill="#8DB2E3" width="6" height="4"/>
			<rect x="123" y="61.457" fill="#FFFEDB" width="6" height="4"/>
			<rect x="123" y="68.457" fill="#FFFEDB" width="6" height="4"/>
			<rect x="123" y="75.457" fill="#8DB2E3" width="6" height="4"/>
			<rect x="123" y="82.457" fill="#8DB2E3" width="6" height="4"/>
			<rect x="114" y="47.457" fill="#FFFEDB" width="6" height="4"/>
			<rect x="114" y="54.457" fill="#FFFEDB" width="6" height="4"/>
			<rect x="114" y="61.457" fill="#FFFEDB" width="6" height="4"/>
			<rect x="114" y="68.457" fill="#FFFEDB" width="6" height="4"/>
			<rect x="114" y="75.457" fill="#8DB2E3" width="6" height="4"/>
			<rect x="114" y="82.457" fill="#8DB2E3" width="6" height="4"/>
			<rect x="114" y="89.457" fill="#8DB2E3" width="6" height="4"/>
			<rect x="114" y="96.457" fill="#8DB2E3" width="6" height="4"/>
			<rect x="105" y="68.457" fill="#FFFEDB" width="6" height="4"/>
			<rect x="105" y="75.457" fill="#8DB2E3" width="6" height="4"/>
			<rect x="96" y="61.457" fill="#FFFEDB" width="6" height="4"/>
			<rect x="96" y="68.457" fill="#FFFEDB" width="6" height="4"/>
			<rect x="96" y="75.457" fill="#8DB2E3" width="6" height="4"/>
			<rect x="96" y="82.457" fill="#8DB2E3" width="6" height="4"/>
		</g>
	</g>
</g>
</svg>
