<?xml version="1.0" encoding="utf-8"?>
<!-- Generator: Adobe Illustrator 16.0.0, SVG Export Plug-In . SVG Version: 6.00 Build 0)  -->
<!DOCTYPE svg PUBLIC "-//W3C//DTD SVG 1.1//EN" "http://www.w3.org/Graphics/SVG/1.1/DTD/svg11.dtd" [
	<!ENTITY ns_extend "http://ns.adobe.com/Extensibility/1.0/">
	<!ENTITY ns_ai "http://ns.adobe.com/AdobeIllustrator/10.0/">
	<!ENTITY ns_graphs "http://ns.adobe.com/Graphs/1.0/">
	<!ENTITY ns_vars "http://ns.adobe.com/Variables/1.0/">
	<!ENTITY ns_imrep "http://ns.adobe.com/ImageReplacement/1.0/">
	<!ENTITY ns_sfw "http://ns.adobe.com/SaveForWeb/1.0/">
	<!ENTITY ns_custom "http://ns.adobe.com/GenericCustomNamespace/1.0/">
	<!ENTITY ns_adobe_xpath "http://ns.adobe.com/XPath/1.0/">
]>
<svg version="1.1" id="Layer_1" xmlns:x="&ns_extend;" xmlns:i="&ns_ai;" xmlns:graph="&ns_graphs;"
	 xmlns="http://www.w3.org/2000/svg" xmlns:xlink="http://www.w3.org/1999/xlink" x="0px" y="0px" width="525px" height="100px"
	 viewBox="0 0 525 100" enable-background="new 0 0 525 100" xml:space="preserve">
<metadata>
	<sfw  xmlns="&ns_sfw;">
		<slices></slices>
		<sliceSourceBounds  height="96" width="522.487" y="-1358" x="2964" bottomLeftOrigin="true"></sliceSourceBounds>
	</sfw>
</metadata>
<g>
</g>
<g>
	<text transform="matrix(1 0 0 1 100 71.8232)"><tspan x="0" y="0" fill="#4E7EC2" font-family="'RobotoCondensed-Bold'" font-size="76.9991">a</tspan><tspan x="40.154" y="0" fill="#4E7EC2" font-family="'RobotoCondensed-Bold'" font-size="70.8392">coustic</tspan><tspan x="247.206" y="0" fill="#EB743B" font-family="'RobotoCondensed-Bold'" font-size="76.9991">b</tspan><tspan x="284.916" y="0" fill="#EB743B" font-family="'RobotoCondensed-Bold'" font-size="70.8392">rainz</tspan></text>
	<g>
		<polygon fill="#EB743B" points="47,2 47,98 88,74 88,26 		"/>
		<polygon fill="#4E7EC2" points="44,2 3,26 3,74 44,98 		"/>
		<rect x="35" y="16" fill="#FFFEDB" width="6" height="4"/>
		<rect x="35" y="23" fill="#FFFEDB" width="6" height="4"/>
		<rect x="35" y="30" fill="#FFFEDB" width="6" height="4"/>
		<rect x="35" y="37" fill="#FFFEDB" width="6" height="4"/>
		<rect x="35" y="44" fill="#FFFEDB" width="6" height="4"/>
		<rect x="35" y="51" fill="#8DB2E3" width="6" height="4"/>
		<rect x="35" y="58" fill="#8DB2E3" width="6" height="4"/>
		<rect x="35" y="65" fill="#8DB2E3" width="6" height="4"/>
		<rect x="35" y="72" fill="#8DB2E3" width="6" height="4"/>
		<rect x="35" y="79" fill="#8DB2E3" width="6" height="4"/>
		<rect x="26" y="30" fill="#FFFEDB" width="6" height="4"/>
		<rect x="26" y="37" fill="#FFFEDB" width="6" height="4"/>
		<rect x="26" y="44" fill="#FFFEDB" width="6" height="4"/>
		<rect x="26" y="51" fill="#8DB2E3" width="6" height="4"/>
		<rect x="26" y="58" fill="#8DB2E3" width="6" height="4"/>
		<rect x="26" y="65" fill="#8DB2E3" width="6" height="4"/>
		<rect x="17" y="44" fill="#FFFEDB" width="6" height="4"/>
		<rect x="17" y="51" fill="#8DB2E3" width="6" height="4"/>
		<rect x="8" y="37" fill="#FFFEDB" width="6" height="4"/>
		<rect x="8" y="44" fill="#FFFEDB" width="6" height="4"/>
		<rect x="8" y="51" fill="#8DB2E3" width="6" height="4"/>
		<rect x="8" y="58" fill="#8DB2E3" width="6" height="4"/>
		<path fill="#FFFEDB" d="M79.281,58.087c-1.239-1.97-3.38-3.148-5.718-3.148c-0.666,0-1.324,0.103-1.956,0.295
			c-2.632-3.125-5.819-4.775-8.603-5.636c2.235-1.714,4.208-3.771,5.909-6.153c1.74,0.394,3.63,0.127,5.162-0.832
			c3.158-2.006,4.103-6.197,2.104-9.348c-1.249-1.975-3.39-3.152-5.724-3.152c-1.283,0-2.533,0.363-3.616,1.05
			c-3.146,1.991-4.093,6.181-2.105,9.336c0.13,0.207,0.271,0.404,0.422,0.596c-2.514,3.442-5.708,6.056-9.519,7.785l-0.014,0.004
			C52.093,50.487,50,51,47,51v5c4,0,5.931-1.125,10.016-2.898c1.366-0.023,6.962,0.185,10.991,4.747
			c-1.507,2.164-1.655,5.108-0.16,7.471c1.241,1.97,3.382,3.15,5.721,3.15c1.278,0,2.524-0.36,3.607-1.044
			c1.538-0.975,2.599-2.482,2.995-4.252C80.566,61.413,80.248,59.606,79.281,58.087z M69.061,34.67
			c0.423-0.266,0.901-0.405,1.396-0.405c0.903,0,1.731,0.456,2.219,1.224c0.771,1.214,0.403,2.836-0.818,3.61
			c-0.41,0.261-0.896,0.398-1.387,0.398c-0.493,0-0.974-0.134-1.39-0.391c-0.343-0.213-0.625-0.489-0.832-0.817
			C67.478,37.064,67.842,35.443,69.061,34.67z M76.119,62.27c-0.154,0.687-0.564,1.27-1.161,1.645
			c-0.413,0.264-0.896,0.406-1.391,0.406c-0.906,0-1.731-0.457-2.21-1.218c-0.745-1.18-0.441-2.727,0.691-3.528l0.117-0.078
			c1.208-0.766,2.866-0.367,3.608,0.808C76.151,60.896,76.271,61.591,76.119,62.27z"/>
	</g>
</g>
</svg>
