<?xml version="1.0" encoding="utf-8"?>
<!-- Generator: Adobe Illustrator 17.0.0, SVG Export Plug-In . SVG Version: 6.00 Build 0)  -->
<!DOCTYPE svg PUBLIC "-//W3C//DTD SVG 1.1//EN" "http://www.w3.org/Graphics/SVG/1.1/DTD/svg11.dtd">
<svg version="1.1" id="Layer_1" xmlns="http://www.w3.org/2000/svg" xmlns:xlink="http://www.w3.org/1999/xlink" x="0px" y="0px"
	 width="180px" height="30px" viewBox="0 0 180 30" enable-background="new 0 0 180 30" xml:space="preserve">
<g>
</g>
<g>
	<g>
		<polygon fill="#754E37" points="14,1 2,8 2,22 14,29 		"/>
		<polygon fill="#EB743B" points="15,1 27,8 27,22 15,29 		"/>
	</g>
	<g>
		<path fill="#754E37" d="M35.561,25V5.236h6.718c2.308,0,4.068,0.467,5.285,1.399c1.215,0.934,1.823,2.288,1.823,4.063
			c0,1.007-0.221,1.883-0.662,2.629c-0.44,0.747-1.091,1.296-1.95,1.646c0.927,0.271,1.646,0.789,2.154,1.553
			c0.509,0.764,0.764,1.699,0.764,2.808c0,1.968-0.571,3.404-1.714,4.309C46.836,24.548,45.117,25,42.821,25H35.561z M40.361,13.447
			h2.308c1.277-0.034,1.917-0.713,1.917-2.036c0-0.78-0.159-1.337-0.475-1.671c-0.317-0.333-0.803-0.5-1.459-0.5h-2.29V13.447z
			 M40.361,16.789v4.258h2.46c0.667,0,1.179-0.181,1.535-0.545c0.356-0.362,0.534-0.862,0.534-1.499c0-1.43-0.576-2.168-1.729-2.214
			H40.361z"/>
		<path fill="#754E37" d="M52.108,16.01c0-2.56,0.604-4.567,1.811-6.023c1.206-1.457,2.877-2.186,5.01-2.186
			c2.153,0,3.834,0.728,5.041,2.186c1.207,1.456,1.811,3.475,1.811,6.055v1.077c0,2.57-0.599,4.578-1.795,6.024
			c-1.196,1.446-2.872,2.17-5.025,2.17c-2.164,0-3.848-0.727-5.049-2.178c-1.202-1.451-1.803-3.467-1.803-6.048V16.01z
			 M56.541,17.122c0,3.036,0.806,4.554,2.419,4.554c1.487,0,2.289-1.267,2.403-3.8l0.016-1.869c0-1.549-0.214-2.698-0.64-3.446
			c-0.427-0.749-1.03-1.123-1.811-1.123c-0.749,0-1.335,0.374-1.756,1.123c-0.422,0.748-0.632,1.898-0.632,3.446V17.122z"/>
		<path fill="#754E37" d="M68.012,16.01c0-2.56,0.603-4.567,1.811-6.023c1.206-1.457,2.877-2.186,5.01-2.186
			c2.153,0,3.834,0.728,5.041,2.186c1.207,1.456,1.811,3.475,1.811,6.055v1.077c0,2.57-0.599,4.578-1.795,6.024
			c-1.196,1.446-2.872,2.17-5.025,2.17c-2.164,0-3.848-0.727-5.049-2.178c-1.202-1.451-1.803-3.467-1.803-6.048V16.01z
			 M72.444,17.122c0,3.036,0.806,4.554,2.419,4.554c1.487,0,2.289-1.267,2.403-3.8l0.016-1.869c0-1.549-0.214-2.698-0.64-3.446
			c-0.427-0.749-1.03-1.123-1.811-1.123c-0.749,0-1.335,0.374-1.756,1.123c-0.422,0.748-0.632,1.898-0.632,3.446V17.122z"/>
		<path fill="#754E37" d="M90.033,18.492l-1.187,1.326V25H84.43V3h4.417v10.981l0.546-0.811l3.06-5.057h5.26l-4.901,6.961L98.18,25
			h-5.057L90.033,18.492z"/>
		<path fill="#EB743B" d="M99.679,25V5.236h6.718c2.308,0,4.068,0.467,5.285,1.399c1.215,0.934,1.823,2.288,1.823,4.063
			c0,1.007-0.221,1.883-0.662,2.629c-0.44,0.747-1.091,1.296-1.95,1.646c0.927,0.271,1.646,0.789,2.154,1.553
			c0.509,0.764,0.764,1.699,0.764,2.808c0,1.968-0.571,3.404-1.714,4.309c-1.143,0.905-2.861,1.357-5.157,1.357H99.679z
			 M104.479,13.447h2.308c1.277-0.034,1.917-0.713,1.917-2.036c0-0.78-0.159-1.337-0.476-1.671c-0.316-0.333-0.803-0.5-1.459-0.5
			h-2.29V13.447z M104.479,16.789v4.258h2.46c0.667,0,1.179-0.181,1.535-0.545c0.356-0.362,0.534-0.862,0.534-1.499
			c0-1.43-0.576-2.168-1.729-2.214H104.479z"/>
		<path fill="#EB743B" d="M125.074,12.374l-1.467-0.125c-1.207,0-2.023,0.53-2.45,1.592V25h-4.433V8.113h4.167l0.125,1.826
			c0.697-1.426,1.659-2.139,2.888-2.139c0.499,0,0.905,0.068,1.217,0.203L125.074,12.374z"/>
		<path fill="#EB743B" d="M134.892,25c-0.125-0.26-0.25-0.697-0.375-1.31c-0.791,1.082-1.862,1.623-3.215,1.623
			c-1.415,0-2.589-0.469-3.52-1.405c-0.932-0.937-1.397-2.148-1.397-3.636c0-1.769,0.565-3.138,1.693-4.105
			c1.129-0.968,2.754-1.461,4.877-1.482h1.342v-1.357c0-0.76-0.13-1.296-0.39-1.607c-0.261-0.313-0.64-0.469-1.14-0.469
			c-1.103,0-1.654,0.646-1.654,1.936h-4.417c0-1.561,0.586-2.849,1.756-3.863c1.171-1.015,2.65-1.522,4.441-1.522
			c1.852,0,3.285,0.481,4.3,1.443c1.015,0.963,1.521,2.339,1.521,4.129v7.943c0.021,1.457,0.23,2.597,0.625,3.418V25H134.892z
			 M132.285,21.848c0.488,0,0.905-0.099,1.248-0.297c0.344-0.197,0.599-0.432,0.765-0.702v-3.512h-1.061
			c-0.749,0-1.34,0.239-1.771,0.718c-0.432,0.478-0.647,1.119-0.647,1.92C130.818,21.223,131.307,21.848,132.285,21.848z"/>
		<path fill="#EB743B" d="M141.915,3.743c0-0.687,0.219-1.249,0.655-1.686c0.438-0.438,1.02-0.655,1.748-0.655
			c0.729,0,1.311,0.218,1.748,0.655c0.438,0.437,0.656,0.999,0.656,1.686c0,0.677-0.217,1.238-0.648,1.685
			c-0.432,0.447-1.017,0.671-1.756,0.671c-0.738,0-1.324-0.224-1.756-0.671S141.915,4.42,141.915,3.743z M146.551,25h-4.433V8.113
			h4.433V25z"/>
		<path fill="#EB743B" d="M154.01,8.113l0.125,1.67c0.999-1.321,2.305-1.982,3.918-1.982c2.902,0,4.395,2.034,4.479,6.103V25H158.1
			V14.231c0-0.958-0.143-1.652-0.43-2.084c-0.286-0.432-0.788-0.648-1.506-0.648c-0.802,0-1.426,0.411-1.873,1.232V25h-4.433V8.113
			H154.01z"/>
		<path fill="#EB743B" d="M170.585,21.363h6.681V25h-11.924v-2.739l6.523-10.465h-6.368V8.113h11.675v2.669L170.585,21.363z"/>
	</g>
</g>
</svg>
