<svg xmlns="http://www.w3.org/2000/svg" viewBox="0 0 243.41 276"><defs><style>.cls-1{fill:#eb753a;}.cls-2{fill:#4f7fc0;}.cls-3{opacity:0.07;}.cls-4{fill:#010101;}.cls-5{fill:#d4572b;}.cls-6{fill:#fefbdc;}.cls-7{fill:#8fb2de;}</style></defs><title>AccousticBrainz</title><g id="Layer_2" data-name="Layer 2"><g id="Layer_1-2" data-name="Layer 1"><polygon class="cls-1" points="126.5 0 126.5 276 243.41 208.91 243.41 67.08 126.5 0"/><polygon class="cls-2" points="116.91 0 0 67.08 0 208.91 116.91 276 116.91 0"/><g class="cls-3"><path class="cls-4" d="M159.69,175.83a4,4,0,1,1-.44,3.07A4,4,0,0,1,159.69,175.83Zm24.15,42.86a4,4,0,1,1-2.64-7.13,4.06,4.06,0,0,1,4.06,4.06h0v.3a4,4,0,0,1-1.44,2.76Z"/><path class="cls-4" d="M143.75,87.42Z"/><path class="cls-4" d="M165.56,105.91a4,4,0,1,1,0,4.24A4,4,0,0,1,165.56,105.91Zm12.23-38.7a4.1,4.1,0,0,1-5.58,1.25l-.19-.12a4,4,0,1,1,5.77-1.12Z"/><path class="cls-4" d="M209.92,89.45a4,4,0,0,1,6.84,4.33h0A4.1,4.1,0,0,1,211.17,95l-.17-.12A4,4,0,0,1,209.92,89.45Zm0,45a4,4,0,0,1,6.84,4.33h0a4.1,4.1,0,0,1-5.58,1.25l-.17-.11a4,4,0,0,1-1.09-5.37Zm0,50.41a4,4,0,0,1,6.84,4.33,4.1,4.1,0,0,1-5.58,1.25l-.17-.11a4,4,0,0,1-1.09-5.44Z"/><path class="cls-4" d="M190.07,203.37a11.73,11.73,0,0,0-20.55,9.08,38.06,38.06,0,0,1-10.2,2.55,7.67,7.67,0,0,1-4.25-1.92,20.53,20.53,0,0,0-8-3.55A72.14,72.14,0,0,0,163.53,185a11.7,11.7,0,1,0-7.4-2.26c-7.76,17.67-17.67,25.07-24.09,28.14a3.83,3.83,0,0,0-.69.33,21.58,21.58,0,0,1-4.91,1.55v7.67a24.13,24.13,0,0,0,8.15-2.28c10.25-2.61,13.11-.67,16.12,1.36a15.1,15.1,0,0,0,8.2,3.18h.59a45.25,45.25,0,0,0,13.42-3.3,11.75,11.75,0,0,0,8.26,3.3h0a11.73,11.73,0,0,0,8.89-19.36Zm-30.38-32.16a4,4,0,1,1-.44,3.07,4,4,0,0,1,.44-3.07Zm24.15,42.86a4,4,0,1,1-2.64-7.13,4.06,4.06,0,0,1,4.06,4.06h0v.3a4,4,0,0,1-1.44,2.76Z"/><path class="cls-4" d="M143.75,82.76Z"/><path class="cls-4" d="M185.82,57.84a11.73,11.73,0,1,0-21.08,9.24,25.59,25.59,0,0,1-19,8.22,55.87,55.87,0,0,0-19.17-4.45v7.67a47.53,47.53,0,0,1,16.75,4.24h0A41.38,41.38,0,0,1,159.7,96.18a12.11,12.11,0,0,0-.73,1,11.73,11.73,0,1,0,16.2-3.66,11.92,11.92,0,0,0-9-1.44A49.83,49.83,0,0,0,155.94,81.4a31.34,31.34,0,0,0,15-9.74A11.74,11.74,0,0,0,185.78,57.9Zm-20.26,43.45a4,4,0,1,1,0,4.24A4,4,0,0,1,165.56,101.29Zm12.23-38.7a4.1,4.1,0,0,1-5.58,1.25l-.19-.12a4.06,4.06,0,1,1,5.77-1.16Z"/><path class="cls-4" d="M202.47,136.43a11.5,11.5,0,0,0,4,5.08l.54.36a11.73,11.73,0,1,0,6.31-21.62h-.71a49.31,49.31,0,0,1,0-21.58h.65a11.73,11.73,0,1,0-8-3.12l.13.12a54.91,54.91,0,0,0,0,27.64c-.27.25-.56.48-.82.77a12,12,0,0,0-1.21,1.57,11.81,11.81,0,0,0-1.4,3.12A29.13,29.13,0,0,0,189,134c-3.83,2.53-7.67,4.93-18.48,5.12a62.56,62.56,0,0,0-10.14-.23,92.47,92.47,0,0,1-9.3,0c-2.55-.13-4-1.69-6.63-4.64-3.45-3.93-8.09-8.91-18-9.58v7.67c6.31.57,9.2,3.62,12.19,7s6.08,6.94,12,7.24c4.06.21,7.21.1,10,0a46.42,46.42,0,0,1,15.06,1.3c5,1.23,23.19,18.53,28.31,27.45a8.14,8.14,0,0,0-.59.82A11.69,11.69,0,0,0,206.5,192l.54.36A11.77,11.77,0,1,0,210.41,171c-4.91-8-16.58-20-25.28-26.43a34.84,34.84,0,0,0,8.07-4.2A21.68,21.68,0,0,1,202.47,136.43Zm7.45-51.6a4,4,0,0,1,6.84,4.33h0a4.1,4.1,0,0,1-5.58,1.25l-.17-.12a4,4,0,0,1-1.09-5.44Zm0,45a4,4,0,0,1,6.84,4.33,4.1,4.1,0,0,1-5.58,1.25l-.17-.11a4,4,0,0,1-1.09-5.44Zm0,50.41a4,4,0,0,1,6.84,4.33h0a4.1,4.1,0,0,1-5.58,1.25l-.17-.11a4,4,0,0,1-1.09-5.44Z"/></g><path class="cls-5" d="M190.07,209.12a11.73,11.73,0,0,0-20.55,9.08,38.06,38.06,0,0,1-10.2,2.55,7.67,7.67,0,0,1-4.25-1.92,20.53,20.53,0,0,0-8-3.55,72.14,72.14,0,0,0,16.41-24.55,11.7,11.7,0,1,0-7.4-2.26c-7.76,17.67-17.67,25.07-24.09,28.14a3.83,3.83,0,0,0-.69.33,21.58,21.58,0,0,1-4.91,1.55v7.67a24.13,24.13,0,0,0,8.15-2.28c10.25-2.61,13.11-.67,16.12,1.36a15.1,15.1,0,0,0,8.2,3.18h.59a45.25,45.25,0,0,0,13.42-3.3,11.75,11.75,0,0,0,8.26,3.3h0A11.73,11.73,0,0,0,190,209.06ZM159.69,177a4,4,0,1,1-.44,3.07A4,4,0,0,1,159.69,177Zm24.15,42.86a4,4,0,1,1-2.64-7.13,4.06,4.06,0,0,1,4.06,4.06h0v.3a4,4,0,0,1-1.44,2.76Z"/><path class="cls-4" d="M143.75,87.42Z"/><path class="cls-5" d="M185.82,63.59a11.73,11.73,0,1,0-21.08,9.24,25.59,25.59,0,0,1-19,8.22,55.87,55.87,0,0,0-19.17-4.45v7.67a47.55,47.55,0,0,1,16.75,4.24h0a41.38,41.38,0,0,1,16.43,13.42,12.11,12.11,0,0,0-.73,1,11.73,11.73,0,1,0,16.2-3.66,11.92,11.92,0,0,0-9-1.44,49.83,49.83,0,0,0-10.23-10.68,31.34,31.34,0,0,0,15-9.74,11.74,11.74,0,0,0,14.89-13.76Zm-20.26,43.47a4,4,0,1,1,0,4.24A4,4,0,0,1,165.56,107.06Zm12.23-38.7a4.1,4.1,0,0,1-5.58,1.25l-.19-.12a4,4,0,1,1,5.77-1.12Z"/><path class="cls-5" d="M202.47,142.18a11.5,11.5,0,0,0,4,5.08l.54.36A11.73,11.73,0,1,0,213.36,126h-.71a49.31,49.31,0,0,1,0-21.58h.65a11.73,11.73,0,1,0-8-3.12l.13.12a54.91,54.91,0,0,0,0,27.64c-.27.25-.56.48-.82.77a12,12,0,0,0-1.21,1.57,11.81,11.81,0,0,0-1.4,3.12,29.13,29.13,0,0,0-13.07,5.23c-3.83,2.53-7.67,4.93-18.48,5.12a62.56,62.56,0,0,0-10.14-.23,92.47,92.47,0,0,1-9.3,0c-2.55-.13-4-1.69-6.63-4.64-3.45-3.93-8.09-8.91-18-9.58v7.67c6.31.57,9.2,3.62,12.19,7s6.08,6.94,12,7.24c4.06.21,7.21.1,10,0a46.42,46.42,0,0,1,15.06,1.3c5,1.23,23.19,18.53,28.31,27.45a8.14,8.14,0,0,0-.59.82,11.69,11.69,0,0,0,3.1,15.81l.54.36a11.77,11.77,0,1,0,3.33-21.31c-4.91-8-16.58-20-25.28-26.43a34.84,34.84,0,0,0,8.07-4.2A21.68,21.68,0,0,1,202.47,142.18Zm7.45-51.6a4,4,0,0,1,6.84,4.33h0a4.1,4.1,0,0,1-5.58,1.25L211,96a4,4,0,0,1-1.09-5.44Zm0,45a4,4,0,0,1,6.84,4.33h0a4.1,4.1,0,0,1-5.58,1.25l-.17-.11a4,4,0,0,1-1.09-5.44Zm0,50.42a4,4,0,0,1,6.84,4.33h0a4.1,4.1,0,0,1-5.58,1.25l-.17-.11A4,4,0,0,1,209.92,186Z"/><path class="cls-6" d="M190.07,203.37a11.73,11.73,0,0,0-20.55,9.08,38.06,38.06,0,0,1-10.2,2.55,7.67,7.67,0,0,1-4.25-1.92,20.53,20.53,0,0,0-8-3.55A72.14,72.14,0,0,0,163.53,185a11.7,11.7,0,1,0-7.4-2.26c-7.76,17.67-17.67,25.07-24.09,28.14a3.83,3.83,0,0,0-.69.33,21.58,21.58,0,0,1-4.91,1.55v7.67a24.13,24.13,0,0,0,8.15-2.28c10.25-2.61,13.11-.67,16.12,1.36a15.1,15.1,0,0,0,8.2,3.18h.59a45.25,45.25,0,0,0,13.42-3.3,11.75,11.75,0,0,0,8.26,3.3h0a11.73,11.73,0,0,0,8.89-19.36Zm-30.38-32.16a4,4,0,1,1-.44,3.07,4,4,0,0,1,.44-3.07Zm24.15,42.86a4,4,0,1,1-2.64-7.13,4.06,4.06,0,0,1,4.06,4.06h0v.3a4,4,0,0,1-1.44,2.76Z"/><path class="cls-6" d="M143.75,82.76Z"/><path class="cls-6" d="M185.82,57.84a11.73,11.73,0,1,0-21.08,9.24,25.59,25.59,0,0,1-19,8.22,55.87,55.87,0,0,0-19.17-4.45v7.67a47.53,47.53,0,0,1,16.75,4.24h0A41.38,41.38,0,0,1,159.7,96.18a12.11,12.11,0,0,0-.73,1,11.73,11.73,0,1,0,16.2-3.66,11.92,11.92,0,0,0-9-1.44A49.83,49.83,0,0,0,155.94,81.4a31.34,31.34,0,0,0,15-9.74A11.74,11.74,0,0,0,185.78,57.9Zm-20.26,43.45a4,4,0,1,1,0,4.24A4,4,0,0,1,165.56,101.29Zm12.23-38.7a4.1,4.1,0,0,1-5.58,1.25l-.19-.12a4.06,4.06,0,1,1,5.77-1.16Z"/><path class="cls-6" d="M202.47,136.43a11.5,11.5,0,0,0,4,5.08l.54.36a11.73,11.73,0,1,0,6.31-21.62h-.71a49.31,49.31,0,0,1,0-21.58h.65a11.73,11.73,0,1,0-8-3.12l.13.12a54.91,54.91,0,0,0,0,27.64c-.27.25-.56.48-.82.77a12,12,0,0,0-1.21,1.57,11.81,11.81,0,0,0-1.4,3.12A29.13,29.13,0,0,0,189,134c-3.83,2.53-7.67,4.93-18.48,5.12a62.56,62.56,0,0,0-10.14-.23,92.47,92.47,0,0,1-9.3,0c-2.55-.13-4-1.69-6.63-4.64-3.45-3.93-8.09-8.91-18-9.58v7.67c6.31.57,9.2,3.62,12.19,7s6.08,6.94,12,7.24c4.06.21,7.21.1,10,0a46.42,46.42,0,0,1,15.06,1.3c5,1.23,23.19,18.53,28.31,27.45a8.14,8.14,0,0,0-.59.82A11.69,11.69,0,0,0,206.5,192l.54.36A11.77,11.77,0,1,0,210.41,171c-4.91-8-16.58-20-25.28-26.43a34.84,34.84,0,0,0,8.07-4.2A21.68,21.68,0,0,1,202.47,136.43Zm7.45-51.6a4,4,0,0,1,6.84,4.33h0a4.1,4.1,0,0,1-5.58,1.25l-.17-.12a4,4,0,0,1-1.09-5.44Zm0,45a4,4,0,0,1,6.84,4.33,4.1,4.1,0,0,1-5.58,1.25l-.17-.11a4,4,0,0,1-1.09-5.44Zm0,50.41a4,4,0,0,1,6.84,4.33h0a4.1,4.1,0,0,1-5.58,1.25l-.17-.11a4,4,0,0,1-1.09-5.44Z"/><rect class="cls-6" x="95.83" y="32.58" width="11.5" height="7.67"/><rect class="cls-6" x="95.83" y="46" width="11.5" height="7.67"/><rect class="cls-6" x="95.83" y="59.42" width="11.5" height="7.67"/><rect class="cls-6" x="95.83" y="72.83" width="11.5" height="7.67"/><rect class="cls-6" x="95.83" y="86.25" width="11.5" height="7.67"/><rect class="cls-6" x="95.83" y="99.67" width="11.5" height="7.67"/><rect class="cls-6" x="95.83" y="113.08" width="11.5" height="7.67"/><rect class="cls-6" x="95.83" y="126.5" width="11.5" height="7.67"/><rect class="cls-7" x="95.83" y="139.91" width="11.5" height="7.67"/><rect class="cls-7" x="95.83" y="153.33" width="11.5" height="7.67"/><rect class="cls-7" x="95.83" y="166.75" width="11.5" height="7.67"/><rect class="cls-7" x="95.83" y="180.16" width="11.5" height="7.67"/><rect class="cls-7" x="95.83" y="193.58" width="11.5" height="7.67"/><rect class="cls-6" x="78.58" y="59.42" width="11.5" height="7.67"/><rect class="cls-6" x="78.58" y="72.83" width="11.5" height="7.67"/><rect class="cls-6" x="78.58" y="86.25" width="11.5" height="7.67"/><rect class="cls-6" x="78.58" y="99.67" width="11.5" height="7.67"/><rect class="cls-6" x="78.58" y="113.08" width="11.5" height="7.67"/><rect class="cls-6" x="78.58" y="126.5" width="11.5" height="7.67"/><rect class="cls-7" x="78.58" y="139.91" width="11.5" height="7.67"/><rect class="cls-7" x="78.58" y="153.33" width="11.5" height="7.67"/><rect class="cls-7" x="78.58" y="166.75" width="11.5" height="7.67"/><rect class="cls-7" x="78.58" y="180.16" width="11.5" height="7.67"/><rect class="cls-7" x="78.58" y="193.58" width="11.5" height="7.67"/><rect class="cls-6" x="61.33" y="113.08" width="11.5" height="7.67"/><rect class="cls-6" x="61.33" y="126.5" width="11.5" height="7.67"/><rect class="cls-7" x="61.33" y="139.91" width="11.5" height="7.67"/><rect class="cls-7" x="61.33" y="153.33" width="11.5" height="7.67"/><rect class="cls-6" x="44.08" y="86.25" width="11.5" height="7.67"/><rect class="cls-6" x="44.08" y="99.67" width="11.5" height="7.67"/><rect class="cls-6" x="44.08" y="113.08" width="11.5" height="7.67"/><rect class="cls-6" x="44.08" y="126.5" width="11.5" height="7.67"/><rect class="cls-7" x="44.08" y="139.91" width="11.5" height="7.67"/><rect class="cls-7" x="44.08" y="153.33" width="11.5" height="7.67"/><rect class="cls-7" x="44.08" y="166.75" width="11.5" height="7.67"/><rect class="cls-7" x="44.08" y="180.16" width="11.5" height="7.67"/><rect class="cls-6" x="26.83" y="126.5" width="11.5" height="7.67"/><rect class="cls-7" x="26.83" y="139.91" width="11.5" height="7.67"/></g></g></svg>