<svg xmlns="http://www.w3.org/2000/svg" viewBox="0 0 245.18 278"><defs><style>.cls-1{fill:#eb743b;}.cls-2{fill:#353070;}.cls-3{opacity:0.07;}.cls-4{fill:#d3562c;}.cls-5{fill:#fffedb;}.cls-6{opacity:0.3;}</style></defs><title>ListenBrainz</title><g id="Layer_2" data-name="Layer 2"><g id="Layer_1-2" data-name="Layer 1"><g id="g3550"><g id="g3552"><polygon id="polygon3554" class="cls-1" points="245.18 210.43 245.18 67.57 127.42 0 127.42 278 245.18 210.43"/><polygon id="polygon3556" class="cls-2" points="0 210.43 117.76 278 117.76 0 0 67.57 0 210.43"/><g id="g3558"><g id="g3560" class="cls-3"><path id="path3562" d="M160.82,177.1a4.08,4.08,0,1,1-.45,3.09A4.06,4.06,0,0,1,160.82,177.1Zm24.33,43.17a4,4,0,0,1-2.65,1,4.07,4.07,0,0,1-2.66-7.17,4,4,0,0,1,2.65-1,4.08,4.08,0,0,1,2.66,7.18Z"/><path id="path3564" d="M144.79,88.05l.41.09Z"/><path id="path3566" d="M166.76,106.68a4,4,0,0,1,1.3-1.28A4.08,4.08,0,1,1,170.2,113a4.06,4.06,0,0,1-2.17-.63A4.11,4.11,0,0,1,166.76,106.68Zm12.32-39A4.14,4.14,0,0,1,173.45,69l-.19-.12a4.08,4.08,0,1,1,6.35-4.2A4,4,0,0,1,179.08,67.7Z"/><path id="path3568" d="M211.45,90.1a4.07,4.07,0,1,1,6.88,4.36,4.13,4.13,0,0,1-5.62,1.26l-.18-.12A4.06,4.06,0,0,1,211.45,90.1Zm0,45.3a4.08,4.08,0,1,1,6.88,4.36,4.14,4.14,0,0,1-5.62,1.26l-.18-.12A4.06,4.06,0,0,1,211.45,135.39Zm0,50.78a4.08,4.08,0,1,1,6.88,4.36,4.14,4.14,0,0,1-5.62,1.26l-.18-.12A4.06,4.06,0,0,1,211.45,186.17Z"/><path id="path3570" d="M191.46,204.84A11.81,11.81,0,0,0,170.77,214c-3.76,1.35-8.22,2.64-10.29,2.57-1.58-.08-2.51-.67-4.29-1.88a20.67,20.67,0,0,0-8-3.57c5.67-5.33,11.6-13.19,16.57-24.78a11.81,11.81,0,1,0-10.58-17.85,11.82,11.82,0,0,0,3.14,15.57c-7.82,17.8-17.8,25.25-24.26,28.35a3.81,3.81,0,0,0-.7.32,21.83,21.83,0,0,1-4.94,1.56V222a24.29,24.29,0,0,0,8.2-2.3c10.32-2.62,13.2-.68,16.23,1.37a15.2,15.2,0,0,0,8.23,3.2l.6,0c4.07,0,10-2,13.55-3.33a11.84,11.84,0,0,0,8.27,3.38h0a11.81,11.81,0,0,0,9-19.51Zm-30.65-32.39a4.08,4.08,0,1,1-.45,3.09A4.06,4.06,0,0,1,160.82,172.45Zm24.33,43.17a4,4,0,0,1-2.65,1,4.07,4.07,0,0,1-2.66-7.17,4,4,0,0,1,2.65-1,4.08,4.08,0,0,1,2.66,7.18Z"/><path id="path3572" d="M144.79,83.41l.41.09Z"/><path id="path3574" d="M187.17,58.31a11.82,11.82,0,1,0-21.24,9.31c-7,8-16.81,8.33-19.19,8.29a56.28,56.28,0,0,0-19.32-4.47v7.71a47.84,47.84,0,0,1,16.89,4.12h0A41.68,41.68,0,0,1,161,96.87a12.18,12.18,0,0,0-.74,1,11.82,11.82,0,1,0,16.31-3.69,12,12,0,0,0-9-1.46A50.16,50.16,0,0,0,157.2,82a31.55,31.55,0,0,0,15-9.84,11.86,11.86,0,0,0,3.42.52,11.82,11.82,0,0,0,11.54-14.39ZM166.76,102a4,4,0,0,1,1.3-1.28,4.08,4.08,0,1,1,2.14,7.55,4.06,4.06,0,0,1-2.17-.63A4.11,4.11,0,0,1,166.76,102Zm12.32-39a4.14,4.14,0,0,1-5.62,1.26l-.19-.12a4.08,4.08,0,1,1,6.35-4.2A4,4,0,0,1,179.08,63.06Z"/><path id="path3576" d="M204,137.43a11.66,11.66,0,0,0,4.07,5.11l.55.37a11.81,11.81,0,1,0,6.31-21.8c-.24,0-.48,0-.72,0-1.37-6.09-1.77-15,.07-21.75.22,0,.43,0,.65,0a11.82,11.82,0,1,0-8-3.14l.14.11c-2.6,8.72-2.21,19.93-.07,27.83-.28.25-.57.49-.82.77a12,12,0,0,0-1.22,1.59,11.9,11.9,0,0,0-1.37,3,29.36,29.36,0,0,0-13.17,5.27c-3.93,2.56-7.65,5-18.6,5.14a63,63,0,0,0-10.21-.22c-2.76.1-5.62.2-9.36,0-2.58-.14-4.06-1.7-6.68-4.68-3.48-4-8.15-9-18.09-9.7v7.72c6.36.58,9.26,3.64,12.27,7.08,2.87,3.27,6.13,7,12.08,7.3,4.09.22,7.26.1,10.05,0A46.72,46.72,0,0,1,177,148.91c5,1.24,23.36,18.67,28.52,27.65-.21.27-.42.54-.61.84A11.78,11.78,0,0,0,208,193.32l.55.37a11.82,11.82,0,1,0,6.31-21.8,11.93,11.93,0,0,0-3,.38c-4.94-8.08-16.7-20.18-25.46-26.63a35.18,35.18,0,0,0,8.13-4.22,21.93,21.93,0,0,1,9.38-4Zm7.49-52a4.07,4.07,0,1,1,6.88,4.36,4.13,4.13,0,0,1-5.62,1.26l-.18-.12A4.06,4.06,0,0,1,211.45,85.45Zm0,45.3a4.08,4.08,0,1,1,6.88,4.36,4.14,4.14,0,0,1-5.62,1.26l-.18-.12A4.06,4.06,0,0,1,211.45,130.75Zm0,50.78a4.08,4.08,0,1,1,6.88,4.36,4.14,4.14,0,0,1-5.62,1.26l-.18-.12A4.06,4.06,0,0,1,211.45,181.53Z"/></g><g id="g3578"><g id="g3580"><path id="path3582" class="cls-4" d="M191.46,210.63a11.81,11.81,0,0,0-20.69,9.14c-3.76,1.35-8.22,2.64-10.29,2.57-1.58-.08-2.51-.67-4.29-1.88a20.67,20.67,0,0,0-8-3.57c5.67-5.33,11.6-13.19,16.57-24.78a11.81,11.81,0,1,0-10.58-17.85,11.82,11.82,0,0,0,3.14,15.57c-7.82,17.8-17.8,25.25-24.26,28.35a3.81,3.81,0,0,0-.7.32,21.83,21.83,0,0,1-4.94,1.56v7.72a24.29,24.29,0,0,0,8.2-2.3c10.32-2.62,13.2-.68,16.23,1.37a15.2,15.2,0,0,0,8.23,3.2l.6,0c4.07,0,10-2,13.55-3.33a11.84,11.84,0,0,0,8.27,3.38h0a11.81,11.81,0,0,0,9-19.51Zm-30.65-32.39a4.08,4.08,0,1,1-.45,3.09A4.06,4.06,0,0,1,160.82,178.24Zm24.33,43.17a4,4,0,0,1-2.65,1,4.07,4.07,0,0,1-2.66-7.17,4,4,0,0,1,2.65-1,4.08,4.08,0,0,1,2.66,7.18Z"/><path id="path3584" d="M144.79,88.05l.41.09Z"/><path id="path3586" class="cls-4" d="M187.17,62.18a11.82,11.82,0,1,0-21.24,9.31c-7,8-16.81,8.33-19.19,8.29a56.28,56.28,0,0,0-19.32-4.47V83a47.92,47.92,0,0,1,16.89,4.12h0A41.68,41.68,0,0,1,161,100.74a12.18,12.18,0,0,0-.74,1,11.82,11.82,0,1,0,16.31-3.69,12,12,0,0,0-9-1.46A50.16,50.16,0,0,0,157.2,85.89a31.55,31.55,0,0,0,15-9.84,11.86,11.86,0,0,0,3.42.52,11.82,11.82,0,0,0,11.54-14.39ZM166.76,105.9a4,4,0,0,1,1.3-1.28,4.08,4.08,0,1,1,2.14,7.55,4.06,4.06,0,0,1-2.17-.63A4.11,4.11,0,0,1,166.76,105.9Zm12.32-39a4.14,4.14,0,0,1-5.62,1.26l-.19-.12a4.08,4.08,0,1,1,6.35-4.2A4,4,0,0,1,179.08,66.93Z"/><path id="path3588" class="cls-4" d="M204,143.22a11.66,11.66,0,0,0,4.07,5.11l.55.37a11.81,11.81,0,1,0,6.31-21.8c-.24,0-.48,0-.72,0-1.37-6.09-1.77-15,.07-21.75.22,0,.43,0,.65,0a11.82,11.82,0,1,0-8-3.14l.14.11c-2.6,8.72-2.21,19.93-.07,27.83-.28.25-.57.49-.82.77a12,12,0,0,0-1.22,1.59,11.9,11.9,0,0,0-1.37,3,29.36,29.36,0,0,0-13.17,5.27c-3.93,2.56-7.65,5-18.6,5.14a63,63,0,0,0-10.21-.22c-2.76.1-5.62.2-9.36,0-2.58-.14-4.06-1.7-6.68-4.68-3.48-4-8.15-9-18.09-9.7V139c6.36.58,9.26,3.64,12.27,7.08,2.87,3.27,6.13,7,12.08,7.3,4.09.22,7.26.1,10.05,0A46.72,46.72,0,0,1,177,154.7c5,1.24,23.36,18.67,28.52,27.65-.21.27-.42.54-.61.84A11.78,11.78,0,0,0,208,199.12l.55.37a11.82,11.82,0,1,0,6.31-21.8,11.93,11.93,0,0,0-3,.38c-4.94-8.08-16.7-20.18-25.46-26.63a35.18,35.18,0,0,0,8.13-4.22,21.93,21.93,0,0,1,9.38-4Zm7.49-52a4.07,4.07,0,1,1,6.88,4.36,4.13,4.13,0,0,1-5.62,1.26l-.18-.12A4.06,4.06,0,0,1,211.45,91.24Zm0,45.3a4.08,4.08,0,1,1,6.88,4.36,4.14,4.14,0,0,1-5.62,1.26l-.18-.12A4.06,4.06,0,0,1,211.45,136.54Zm0,50.78a4.08,4.08,0,1,1,6.88,4.36,4.14,4.14,0,0,1-5.62,1.26l-.18-.12A4.06,4.06,0,0,1,211.45,187.32Z"/></g><g id="g3590"><path id="path3592" class="cls-5" d="M191.46,204.84A11.81,11.81,0,0,0,170.77,214c-3.76,1.35-8.22,2.64-10.29,2.57-1.58-.08-2.51-.67-4.29-1.88a20.67,20.67,0,0,0-8-3.57c5.67-5.33,11.6-13.19,16.57-24.78a11.81,11.81,0,1,0-10.58-17.85,11.82,11.82,0,0,0,3.14,15.57c-7.82,17.8-17.8,25.25-24.26,28.35a3.81,3.81,0,0,0-.7.32,21.83,21.83,0,0,1-4.94,1.56V222a24.29,24.29,0,0,0,8.2-2.3c10.32-2.62,13.2-.68,16.23,1.37a15.2,15.2,0,0,0,8.23,3.2l.6,0c4.07,0,10-2,13.55-3.33a11.84,11.84,0,0,0,8.27,3.38h0a11.81,11.81,0,0,0,9-19.51Zm-30.65-32.39a4.08,4.08,0,1,1-.45,3.09A4.06,4.06,0,0,1,160.82,172.45Zm24.33,43.17a4,4,0,0,1-2.65,1,4.07,4.07,0,0,1-2.66-7.17,4,4,0,0,1,2.65-1,4.08,4.08,0,0,1,2.66,7.18Z"/><path id="path3594" class="cls-5" d="M144.79,83.41l.41.09Z"/><path id="path3596" class="cls-5" d="M187.17,58.31a11.82,11.82,0,1,0-21.24,9.31c-7,8-16.81,8.33-19.19,8.29a56.28,56.28,0,0,0-19.32-4.47v7.71a47.84,47.84,0,0,1,16.89,4.12h0A41.68,41.68,0,0,1,161,96.87a12.18,12.18,0,0,0-.74,1,11.82,11.82,0,1,0,16.31-3.69,12,12,0,0,0-9-1.46A50.16,50.16,0,0,0,157.2,82a31.55,31.55,0,0,0,15-9.84,11.86,11.86,0,0,0,3.42.52,11.82,11.82,0,0,0,11.54-14.39ZM166.76,102a4,4,0,0,1,1.3-1.28,4.08,4.08,0,1,1,2.14,7.55,4.06,4.06,0,0,1-2.17-.63A4.11,4.11,0,0,1,166.76,102Zm12.32-39a4.14,4.14,0,0,1-5.62,1.26l-.19-.12a4.08,4.08,0,1,1,6.35-4.2A4,4,0,0,1,179.08,63.06Z"/><path id="path3598" class="cls-5" d="M204,137.43a11.66,11.66,0,0,0,4.07,5.11l.55.37a11.81,11.81,0,1,0,6.31-21.8c-.24,0-.48,0-.72,0-1.37-6.09-1.77-15,.07-21.75.22,0,.43,0,.65,0a11.82,11.82,0,1,0-8-3.14l.14.11c-2.6,8.72-2.21,19.93-.07,27.83-.28.25-.57.49-.82.77a12,12,0,0,0-1.22,1.59,11.9,11.9,0,0,0-1.37,3,29.36,29.36,0,0,0-13.17,5.27c-3.93,2.56-7.65,5-18.6,5.14a63,63,0,0,0-10.21-.22c-2.76.1-5.62.2-9.36,0-2.58-.14-4.06-1.7-6.68-4.68-3.48-4-8.15-9-18.09-9.7v7.72c6.36.58,9.26,3.64,12.27,7.08,2.87,3.27,6.13,7,12.08,7.3,4.09.22,7.26.1,10.05,0A46.72,46.72,0,0,1,177,148.91c5,1.24,23.36,18.67,28.52,27.65-.21.27-.42.54-.61.84A11.78,11.78,0,0,0,208,193.32l.55.37a11.82,11.82,0,1,0,6.31-21.8,11.93,11.93,0,0,0-3,.38c-4.94-8.08-16.7-20.18-25.46-26.63a35.18,35.18,0,0,0,8.13-4.22,21.93,21.93,0,0,1,9.38-4Zm7.49-52a4.07,4.07,0,1,1,6.88,4.36,4.13,4.13,0,0,1-5.62,1.26l-.18-.12A4.06,4.06,0,0,1,211.45,85.45Zm0,45.3a4.08,4.08,0,1,1,6.88,4.36,4.14,4.14,0,0,1-5.62,1.26l-.18-.12A4.06,4.06,0,0,1,211.45,130.75Zm0,50.78a4.08,4.08,0,1,1,6.88,4.36,4.14,4.14,0,0,1-5.62,1.26l-.18-.12A4.06,4.06,0,0,1,211.45,181.53Z"/></g></g></g><g id="g3600"><g id="g3602" class="cls-6"><path id="path3604" d="M35.28,127.85a18.84,18.84,0,1,1,13-5.25A18.67,18.67,0,0,1,35.28,127.85Zm0-28a9.18,9.18,0,1,0,6.63,2.82A9.15,9.15,0,0,0,35.27,99.83Z"/><path id="path3606" d="M93.72,188.24H56.38a3.86,3.86,0,0,1,0-7.72H93.73a3.86,3.86,0,1,1,0,7.72Z"/><path id="path3608" d="M93.72,211.64H56.38a3.86,3.86,0,1,1,0-7.72H93.73a3.86,3.86,0,1,1,0,7.72Z"/><circle id="circle3610" cx="35.45" cy="184.38" r="5.79"/><circle id="circle3612" cx="35.45" cy="207.78" r="5.79"/><path id="path3614" d="M93.72,164.83H56.38a3.86,3.86,0,0,1,0-7.72H93.73a3.86,3.86,0,1,1,0,7.72Z"/><circle id="circle3616" cx="35.45" cy="160.97" r="5.79"/><path id="path3618" d="M79,131.32a3.86,3.86,0,0,1-3.16-6.08,29.74,29.74,0,0,0,2.32-3.93,28.89,28.89,0,0,0-1.71-28.66,3.86,3.86,0,0,1,6.48-4.2,37,37,0,0,1,2.16,36.26,37.58,37.58,0,0,1-2.93,5A3.85,3.85,0,0,1,79,131.32Z"/><path id="path3620" d="M94.08,140.46A3.86,3.86,0,0,1,91,134.33,43,43,0,0,0,94.77,128,42.35,42.35,0,0,0,90.6,83.74a3.86,3.86,0,0,1,6.18-4.64,50,50,0,0,1,4.93,52.3,50.94,50.94,0,0,1-4.49,7.46A3.86,3.86,0,0,1,94.08,140.46Z"/><path id="path3622" d="M65.09,121.62a3.86,3.86,0,0,1-3.36-5.75,15.35,15.35,0,0,0,.52-14,3.86,3.86,0,1,1,7-3.26,23.1,23.1,0,0,1-.79,21A3.86,3.86,0,0,1,65.09,121.62Z"/></g><g id="g3624"><path id="path3626" class="cls-5" d="M35.28,122.05a18.84,18.84,0,1,1,13-5.25A18.67,18.67,0,0,1,35.28,122.05Zm0-28a9.18,9.18,0,1,0,6.63,2.82A9.15,9.15,0,0,0,35.27,94Z"/><path id="path3628" class="cls-5" d="M93.72,182.45H56.38a3.86,3.86,0,0,1,0-7.72H93.73a3.86,3.86,0,1,1,0,7.72Z"/><path id="path3630" class="cls-5" d="M93.72,205.85H56.38a3.86,3.86,0,1,1,0-7.72H93.73a3.86,3.86,0,1,1,0,7.72Z"/><circle id="circle3632" class="cls-5" cx="35.45" cy="178.59" r="5.79"/><circle id="circle3634" class="cls-5" cx="35.45" cy="201.99" r="5.79"/><path id="path3636" class="cls-5" d="M93.72,159H56.38a3.86,3.86,0,0,1,0-7.72H93.73a3.86,3.86,0,1,1,0,7.72Z"/><circle id="circle3638" class="cls-5" cx="35.45" cy="155.18" r="5.79"/><path id="path3640" class="cls-1" d="M79,125.53a3.86,3.86,0,0,1-3.16-6.08,29.74,29.74,0,0,0,2.32-3.93,28.89,28.89,0,0,0-1.71-28.66,3.86,3.86,0,0,1,6.48-4.2,37,37,0,0,1,2.16,36.26,37.58,37.58,0,0,1-2.93,5A3.85,3.85,0,0,1,79,125.53Z"/><path id="path3642" class="cls-1" d="M94.08,134.67A3.86,3.86,0,0,1,91,128.53a43,43,0,0,0,3.81-6.32A42.35,42.35,0,0,0,90.6,78a3.86,3.86,0,1,1,6.18-4.64,50,50,0,0,1,4.93,52.3,50.94,50.94,0,0,1-4.49,7.46A3.86,3.86,0,0,1,94.08,134.67Z"/><path id="path3644" class="cls-1" d="M65.09,115.83a3.86,3.86,0,0,1-3.36-5.75,15.35,15.35,0,0,0,.52-14,3.86,3.86,0,1,1,7-3.26,23.1,23.1,0,0,1-.79,21A3.86,3.86,0,0,1,65.09,115.83Z"/></g></g></g></g></g></g></svg>