<svg xmlns="http://www.w3.org/2000/svg" viewBox="0 0 543.05 144"><title>MetaBrainz_logo</title><g style="isolation:isolate"><polygon points="66 0 66 144 127 109 127 35 66 0" style="fill:#eb743b"/><polygon points="61 0 0 35 0 109 61 144 61 0" style="fill:#5aa854"/><g style="opacity:0.07;mix-blend-mode:multiply"><path d="M87.66,94.56a2.11,2.11,0,1,1-.23,1.6A2.1,2.1,0,0,1,87.66,94.56Zm12.6,22.36a2.08,2.08,0,0,1-1.37.51,2.11,2.11,0,0,1-1.38-3.72,2.08,2.08,0,0,1,1.37-.51,2.12,2.12,0,0,1,2.11,2.28A2.09,2.09,0,0,1,100.26,116.92Z" transform="translate(-4.35 -2.82)"/><path d="M79.36,48.43l.21,0Z" transform="translate(-4.35 -2.82)"/><path d="M90.73,58.08a2.07,2.07,0,0,1,.67-.66,2.11,2.11,0,1,1,1.11,3.91A2.1,2.1,0,0,1,91.39,61,2.13,2.13,0,0,1,90.73,58.08Zm6.38-20.19a2.14,2.14,0,0,1-2.91.65l-.1-.06a2.11,2.11,0,1,1,3.29-2.17A2.08,2.08,0,0,1,97.11,37.89Z" transform="translate(-4.35 -2.82)"/><path d="M113.88,49.49a2.11,2.11,0,1,1,3.57,2.26,2.14,2.14,0,0,1-2.91.65l-.09-.06A2.1,2.1,0,0,1,113.88,49.49Zm0,23.46a2.11,2.11,0,1,1,3.57,2.26,2.14,2.14,0,0,1-2.91.65l-.09-.06A2.1,2.1,0,0,1,113.88,73Zm0,26.3a2.11,2.11,0,1,1,3.57,2.26,2.14,2.14,0,0,1-2.91.65l-.09-.06A2.11,2.11,0,0,1,113.88,99.26Z" transform="translate(-4.35 -2.82)"/><path d="M103.53,108.93a6.12,6.12,0,0,0-10.72,4.74A19.86,19.86,0,0,1,87.48,115a4,4,0,0,1-2.22-1,10.71,10.71,0,0,0-4.15-1.85A37.64,37.64,0,0,0,89.7,99.34a6.12,6.12,0,1,0-5.48-9.24,6.12,6.12,0,0,0,1.62,8.06c-4.05,9.22-9.22,13.08-12.57,14.68a2,2,0,0,0-.36.17,11.26,11.26,0,0,1-2.56.81v4a12.59,12.59,0,0,0,4.25-1.19c5.35-1.36,6.84-.35,8.41.71A7.88,7.88,0,0,0,87.27,119h.31a23.61,23.61,0,0,0,7-1.72A6.13,6.13,0,0,0,98.89,119h0a6.12,6.12,0,0,0,4.64-10.1ZM87.66,92.15a2.11,2.11,0,1,1-.23,1.6A2.1,2.1,0,0,1,87.66,92.15Zm12.6,22.36a2.08,2.08,0,0,1-1.37.51,2.11,2.11,0,0,1-1.38-3.72,2.08,2.08,0,0,1,1.37-.51,2.12,2.12,0,0,1,2.11,2.28A2.09,2.09,0,0,1,100.26,114.51Z" transform="translate(-4.35 -2.82)"/><path d="M79.36,46l.21,0Z" transform="translate(-4.35 -2.82)"/><path d="M101.3,33a6.12,6.12,0,1,0-11,4.82,13.35,13.35,0,0,1-9.94,4.29,29.15,29.15,0,0,0-10-2.32v4A24.8,24.8,0,0,1,79.1,46h0a21.59,21.59,0,0,1,8.61,7,6.32,6.32,0,0,0-.38.54,6.12,6.12,0,1,0,8.45-1.91,6.22,6.22,0,0,0-4.67-.75,26,26,0,0,0-5.34-5.57,16.35,16.35,0,0,0,7.78-5.1,6.15,6.15,0,0,0,1.77.27,6.13,6.13,0,0,0,6-7.45ZM90.73,55.67a2.07,2.07,0,0,1,.67-.66,2.11,2.11,0,1,1,1.11,3.91,2.1,2.1,0,0,1-1.12-.33A2.13,2.13,0,0,1,90.73,55.67Zm6.38-20.19a2.14,2.14,0,0,1-2.91.65l-.1-.06a2.11,2.11,0,1,1,3.29-2.17A2.08,2.08,0,0,1,97.11,35.49Z" transform="translate(-4.35 -2.82)"/><path d="M110,74a6,6,0,0,0,2.11,2.65l.28.19a6.12,6.12,0,1,0,3.27-11.29l-.37,0a25.73,25.73,0,0,1,0-11.26l.34,0a6.12,6.12,0,1,0-4.15-1.63l.07.06a28.65,28.65,0,0,0,0,14.42c-.14.13-.29.25-.43.4a6.24,6.24,0,0,0-.63.82,6.16,6.16,0,0,0-.71,1.58A15.2,15.2,0,0,0,103,72.72c-2,1.32-4,2.57-9.64,2.67A32.64,32.64,0,0,0,88,75.27c-1.43.05-2.91.11-4.85,0-1.33-.07-2.1-.88-3.46-2.42-1.8-2.05-4.22-4.65-9.37-5v4c3.29.3,4.8,1.89,6.36,3.67s3.17,3.62,6.26,3.78c2.12.11,3.76.05,5.21,0A24.22,24.22,0,0,1,96,80c2.61.64,12.1,9.67,14.77,14.32-.11.14-.22.28-.31.43a6.1,6.1,0,0,0,1.62,8.25l.28.19a6.12,6.12,0,1,0,3.27-11.29,6.18,6.18,0,0,0-1.54.2c-2.56-4.19-8.65-10.46-13.19-13.79a18.18,18.18,0,0,0,4.21-2.19A11.31,11.31,0,0,1,110,74Zm3.88-26.92a2.11,2.11,0,1,1,3.57,2.26,2.14,2.14,0,0,1-2.91.65l-.09-.06A2.1,2.1,0,0,1,113.88,47.09Zm0,23.46a2.11,2.11,0,1,1,3.57,2.26,2.14,2.14,0,0,1-2.91.65l-.09-.06A2.1,2.1,0,0,1,113.88,70.55Zm0,26.3a2.11,2.11,0,1,1,3.57,2.26,2.14,2.14,0,0,1-2.91.65l-.09-.06A2.11,2.11,0,0,1,113.88,96.85Z" transform="translate(-4.35 -2.82)"/></g><path d="M103.53,111.93a6.12,6.12,0,0,0-10.72,4.74A19.86,19.86,0,0,1,87.48,118a4,4,0,0,1-2.22-1,10.71,10.71,0,0,0-4.15-1.85,37.64,37.64,0,0,0,8.58-12.83,6.12,6.12,0,1,0-5.48-9.24,6.12,6.12,0,0,0,1.62,8.06c-4.05,9.22-9.22,13.08-12.57,14.68a2,2,0,0,0-.36.17,11.26,11.26,0,0,1-2.56.81v4a12.59,12.59,0,0,0,4.25-1.19c5.35-1.36,6.84-.35,8.41.71A7.88,7.88,0,0,0,87.27,122h.31a23.61,23.61,0,0,0,7-1.72A6.13,6.13,0,0,0,98.89,122h0a6.12,6.12,0,0,0,4.64-10.1ZM87.66,95.15a2.11,2.11,0,1,1-.23,1.6A2.1,2.1,0,0,1,87.66,95.15Zm12.6,22.36a2.08,2.08,0,0,1-1.37.51,2.11,2.11,0,0,1-1.38-3.72,2.08,2.08,0,0,1,1.37-.51,2.12,2.12,0,0,1,2.11,2.28A2.09,2.09,0,0,1,100.26,117.51Z" transform="translate(-4.35 -2.82)" style="fill:#d3562c"/><path d="M79.36,48.43l.21,0Z" transform="translate(-4.35 -2.82)"/><path d="M101.3,36a6.12,6.12,0,1,0-11,4.82,13.35,13.35,0,0,1-9.94,4.29,29.15,29.15,0,0,0-10-2.32v4A24.81,24.81,0,0,1,79.1,49h0a21.59,21.59,0,0,1,8.61,7,6.32,6.32,0,0,0-.38.54,6.12,6.12,0,1,0,8.45-1.91,6.22,6.22,0,0,0-4.67-.75,26,26,0,0,0-5.34-5.57,16.35,16.35,0,0,0,7.78-5.1,6.15,6.15,0,0,0,1.77.27,6.13,6.13,0,0,0,6-7.45ZM90.73,58.68a2.07,2.07,0,0,1,.67-.66,2.11,2.11,0,1,1,1.11,3.91,2.1,2.1,0,0,1-1.12-.33A2.13,2.13,0,0,1,90.73,58.68Zm6.38-20.19a2.14,2.14,0,0,1-2.91.65l-.1-.06a2.11,2.11,0,1,1,3.29-2.17A2.08,2.08,0,0,1,97.11,38.49Z" transform="translate(-4.35 -2.82)" style="fill:#d3562c"/><path d="M110,77a6,6,0,0,0,2.11,2.65l.28.19a6.12,6.12,0,1,0,3.27-11.29l-.37,0a25.73,25.73,0,0,1,0-11.26l.34,0a6.12,6.12,0,1,0-4.15-1.63l.07.06a28.65,28.65,0,0,0,0,14.42c-.14.13-.29.25-.43.4a6.24,6.24,0,0,0-.63.82,6.16,6.16,0,0,0-.71,1.58A15.2,15.2,0,0,0,103,75.72c-2,1.32-4,2.57-9.64,2.67A32.64,32.64,0,0,0,88,78.27c-1.43.05-2.91.11-4.85,0-1.33-.07-2.1-.88-3.46-2.42-1.8-2.05-4.22-4.65-9.37-5v4c3.29.3,4.8,1.89,6.36,3.67s3.17,3.62,6.26,3.78c2.12.11,3.76.05,5.21,0A24.22,24.22,0,0,1,96,83c2.61.64,12.1,9.67,14.77,14.32-.11.14-.22.28-.31.43a6.1,6.1,0,0,0,1.62,8.25l.28.19a6.12,6.12,0,1,0,3.27-11.29,6.18,6.18,0,0,0-1.54.2c-2.56-4.19-8.65-10.46-13.19-13.79a18.18,18.18,0,0,0,4.21-2.19A11.31,11.31,0,0,1,110,77Zm3.88-26.92a2.11,2.11,0,1,1,3.57,2.26,2.14,2.14,0,0,1-2.91.65l-.09-.06A2.1,2.1,0,0,1,113.88,50.09Zm0,23.46a2.11,2.11,0,1,1,3.57,2.26,2.14,2.14,0,0,1-2.91.65l-.09-.06A2.1,2.1,0,0,1,113.88,73.55Zm0,26.3a2.11,2.11,0,1,1,3.57,2.26,2.14,2.14,0,0,1-2.91.65l-.09-.06A2.11,2.11,0,0,1,113.88,99.85Z" transform="translate(-4.35 -2.82)" style="fill:#d3562c"/><path d="M103.53,108.93a6.12,6.12,0,0,0-10.72,4.74A19.86,19.86,0,0,1,87.48,115a4,4,0,0,1-2.22-1,10.71,10.71,0,0,0-4.15-1.85A37.64,37.64,0,0,0,89.7,99.34a6.12,6.12,0,1,0-5.48-9.24,6.12,6.12,0,0,0,1.62,8.06c-4.05,9.22-9.22,13.08-12.57,14.68a2,2,0,0,0-.36.17,11.26,11.26,0,0,1-2.56.81v4a12.59,12.59,0,0,0,4.25-1.19c5.35-1.36,6.84-.35,8.41.71A7.88,7.88,0,0,0,87.27,119h.31a23.61,23.61,0,0,0,7-1.72A6.13,6.13,0,0,0,98.89,119h0a6.12,6.12,0,0,0,4.64-10.1ZM87.66,92.15a2.11,2.11,0,1,1-.23,1.6A2.1,2.1,0,0,1,87.66,92.15Zm12.6,22.36a2.08,2.08,0,0,1-1.37.51,2.11,2.11,0,0,1-1.38-3.72,2.08,2.08,0,0,1,1.37-.51,2.12,2.12,0,0,1,2.11,2.28A2.09,2.09,0,0,1,100.26,114.51Z" transform="translate(-4.35 -2.82)" style="fill:#fffedb"/><path d="M79.36,46l.21,0Z" transform="translate(-4.35 -2.82)" style="fill:#fffedb"/><path d="M101.3,33a6.12,6.12,0,1,0-11,4.82,13.35,13.35,0,0,1-9.94,4.29,29.15,29.15,0,0,0-10-2.32v4A24.8,24.8,0,0,1,79.1,46h0a21.59,21.59,0,0,1,8.61,7,6.32,6.32,0,0,0-.38.54,6.12,6.12,0,1,0,8.45-1.91,6.22,6.22,0,0,0-4.67-.75,26,26,0,0,0-5.34-5.57,16.35,16.35,0,0,0,7.78-5.1,6.15,6.15,0,0,0,1.77.27,6.13,6.13,0,0,0,6-7.45ZM90.73,55.67a2.07,2.07,0,0,1,.67-.66,2.11,2.11,0,1,1,1.11,3.91,2.1,2.1,0,0,1-1.12-.33A2.13,2.13,0,0,1,90.73,55.67Zm6.38-20.19a2.14,2.14,0,0,1-2.91.65l-.1-.06a2.11,2.11,0,1,1,3.29-2.17A2.08,2.08,0,0,1,97.11,35.49Z" transform="translate(-4.35 -2.82)" style="fill:#fffedb"/><path d="M110,74a6,6,0,0,0,2.11,2.65l.28.19a6.12,6.12,0,1,0,3.27-11.29l-.37,0a25.73,25.73,0,0,1,0-11.26l.34,0a6.12,6.12,0,1,0-4.15-1.63l.07.06a28.65,28.65,0,0,0,0,14.42c-.14.13-.29.25-.43.4a6.24,6.24,0,0,0-.63.82,6.16,6.16,0,0,0-.71,1.58A15.2,15.2,0,0,0,103,72.72c-2,1.32-4,2.57-9.64,2.67A32.64,32.64,0,0,0,88,75.27c-1.43.05-2.91.11-4.85,0-1.33-.07-2.1-.88-3.46-2.42-1.8-2.05-4.22-4.65-9.37-5v4c3.29.3,4.8,1.89,6.36,3.67s3.17,3.62,6.26,3.78c2.12.11,3.76.05,5.21,0A24.22,24.22,0,0,1,96,80c2.61.64,12.1,9.67,14.77,14.32-.11.14-.22.28-.31.43a6.1,6.1,0,0,0,1.62,8.25l.28.19a6.12,6.12,0,1,0,3.27-11.29,6.18,6.18,0,0,0-1.54.2c-2.56-4.19-8.65-10.46-13.19-13.79a18.18,18.18,0,0,0,4.21-2.19A11.31,11.31,0,0,1,110,74Zm3.88-26.92a2.11,2.11,0,1,1,3.57,2.26,2.14,2.14,0,0,1-2.91.65l-.09-.06A2.1,2.1,0,0,1,113.88,47.09Zm0,23.46a2.11,2.11,0,1,1,3.57,2.26,2.14,2.14,0,0,1-2.91.65l-.09-.06A2.1,2.1,0,0,1,113.88,70.55Zm0,26.3a2.11,2.11,0,1,1,3.57,2.26,2.14,2.14,0,0,1-2.91.65l-.09-.06A2.11,2.11,0,0,1,113.88,96.85Z" transform="translate(-4.35 -2.82)" style="fill:#fffedb"/><path d="M64.08,43.3a12.88,12.88,0,0,1-2.62.83,2.19,2.19,0,0,0-.39.08c-3.64.68-10.08.62-18.77-4.42a6.11,6.11,0,0,0-3.45-7.45,6.11,6.11,0,1,0,1,10.67,37.59,37.59,0,0,0,14.48,5.28,10.66,10.66,0,0,0-2.25,3.93,4,4,0,0,1-1.22,2.09,19.81,19.81,0,0,1-5.08,2.07,6.11,6.11,0,1,0-1.73,7.91h0a6.11,6.11,0,0,0,2.42-3.93,23.64,23.64,0,0,0,6.67-2.75l.24-.19a7.86,7.86,0,0,0,2.45-3.85c.64-1.78,1.25-3.47,6.35-5.52a16.86,16.86,0,0,0,3.12-1.21v-4ZM38.41,38.78a2.11,2.11,0,1,1-3.88-1.65A2.11,2.11,0,0,1,37.29,36a2.11,2.11,0,0,1,1.12,2.76ZM41.73,61a2.11,2.11,0,0,1-3.34-1.86,2.11,2.11,0,0,1,.86-1.54,2.07,2.07,0,0,1,1.41-.4A2.1,2.1,0,0,1,41.73,61Z" transform="translate(-4.35 -2.82)" style="fill:#43883e"/><path d="M58.89,111.65l-.18-.12Z" transform="translate(-4.35 -2.82)"/><path d="M59.31,112.44h0a21.54,21.54,0,0,1-5.59-9.59,5.91,5.91,0,0,0,.54-.37,6.11,6.11,0,1,0-8.56-1.16,6.22,6.22,0,0,0,4.1,2.33,25.9,25.9,0,0,0,3.06,7.07,16.33,16.33,0,0,0-9.05,2.05A6.1,6.1,0,1,0,46,116.12a13.32,13.32,0,0,1,10.79-.55,27,27,0,0,0,8.55,5.25v-4A24.5,24.5,0,0,1,59.31,112.44Zm-17.94,6.86A2.11,2.11,0,1,1,38.83,116a2.14,2.14,0,0,1,3,.41l.07.09A2.1,2.1,0,0,1,41.37,119.31Zm7.5-20.41a2.11,2.11,0,1,1,3,.4,2.06,2.06,0,0,1-.86.38,2.13,2.13,0,0,1-2.1-.79Z" transform="translate(-4.35 -2.82)" style="fill:#43883e"/><path d="M58.89,109.25l-.18-.12Z" transform="translate(-4.35 -2.82)"/><path d="M58.89,111.65l-.18-.12Z" transform="translate(-4.35 -2.82)"/><path d="M56,76.09c-1.35,1.54-2.12,2.35-3.45,2.42-1.93.1-3.41,0-4.84,0s-4-.82-8-2.6S27.61,66.25,24.94,61.61c.11-.14.22-.28.31-.43a6.09,6.09,0,0,0-1.61-8.23l-.28-.19A6.11,6.11,0,1,0,20.09,64a6.15,6.15,0,0,0,1.54-.19C24.18,68,31.88,75.89,34.79,77.59a18.12,18.12,0,0,0-4.2,2.18,11.28,11.28,0,0,1-4.85,2.06,6,6,0,0,0-2.1-2.64L23.35,79a6.11,6.11,0,1,0-3.26,11.27c.13,0,.25,0,.37,0a25.71,25.71,0,0,1,0,11.25l-.34,0a6.11,6.11,0,1,0,4.14,1.62l-.08-.07a28.49,28.49,0,0,0,0-14.37c.15-.13.3-.26.44-.41a6.17,6.17,0,0,0,.63-.82A6.1,6.1,0,0,0,26,85.85a15.17,15.17,0,0,0,6.81-2.72,13.88,13.88,0,0,1,7.84-2.58,21.35,21.35,0,0,0,6.91,2,33.82,33.82,0,0,0,5.2,0c3.08-.17,4.76-2.08,6.24-3.77s3-3.48,6.4-3.91v-4C60.15,71.32,57.75,74,56,76.09ZM20.09,60a2.11,2.11,0,0,1-1.78-3.23,2.14,2.14,0,0,1,2.91-.65l.09.06A2.11,2.11,0,0,1,20.09,60ZM19,85.94A2.11,2.11,0,0,1,18,84.62,2.08,2.08,0,0,1,18.31,83a2.14,2.14,0,0,1,2.91-.65l.09.06A2.11,2.11,0,0,1,19,85.94Zm2.9,22.76a2.11,2.11,0,1,1-3.56-2.25,2.14,2.14,0,0,1,2.91-.65l.09.06A2.1,2.1,0,0,1,21.87,108.7Z" transform="translate(-4.35 -2.82)" style="fill:#43883e"/><path d="M64.08,40.3a12.88,12.88,0,0,1-2.62.83,2.19,2.19,0,0,0-.39.08c-3.64.68-10.08.62-18.77-4.42a6.11,6.11,0,0,0-3.45-7.45,6.11,6.11,0,1,0,1,10.67,37.59,37.59,0,0,0,14.48,5.28,10.66,10.66,0,0,0-2.25,3.93,4,4,0,0,1-1.22,2.09,19.81,19.81,0,0,1-5.08,2.07,6.11,6.11,0,1,0-1.73,7.91h0a6.11,6.11,0,0,0,2.42-3.93,23.64,23.64,0,0,0,6.67-2.75l.24-.19a7.86,7.86,0,0,0,2.45-3.85c.64-1.78,1.25-3.47,6.35-5.52a16.86,16.86,0,0,0,3.12-1.21v-4ZM38.41,35.78a2.11,2.11,0,1,1-3.88-1.65A2.11,2.11,0,0,1,37.29,33a2.11,2.11,0,0,1,1.12,2.76ZM41.73,58a2.11,2.11,0,0,1-3.34-1.86,2.11,2.11,0,0,1,.86-1.54,2.07,2.07,0,0,1,1.41-.4A2.1,2.1,0,0,1,41.73,58Z" transform="translate(-4.35 -2.82)" style="fill:#fffedb"/><path d="M58.89,109.25l-.18-.12Z" transform="translate(-4.35 -2.82)" style="fill:#fffedb"/><path d="M59.31,109.44h0a21.54,21.54,0,0,1-5.59-9.59,5.91,5.91,0,0,0,.54-.37,6.11,6.11,0,1,0-8.56-1.16,6.22,6.22,0,0,0,4.1,2.33,25.9,25.9,0,0,0,3.06,7.07,16.33,16.33,0,0,0-9.05,2.05A6.1,6.1,0,1,0,46,113.12a13.32,13.32,0,0,1,10.79-.55,27,27,0,0,0,8.55,5.25v-4A24.5,24.5,0,0,1,59.31,109.44Zm-17.94,6.86A2.11,2.11,0,1,1,38.83,113a2.14,2.14,0,0,1,3,.41l.07.09A2.1,2.1,0,0,1,41.37,116.31Zm7.5-20.41a2.11,2.11,0,1,1,3,.4,2.06,2.06,0,0,1-.86.38,2.13,2.13,0,0,1-2.1-.79Z" transform="translate(-4.35 -2.82)" style="fill:#fffedb"/><path d="M56,73.1c-1.35,1.54-2.12,2.35-3.45,2.42-1.93.1-3.41,0-4.84,0s-4-.82-8-2.6S27.61,63.26,24.94,58.63c.11-.14.22-.28.31-.43A6.09,6.09,0,0,0,23.64,50l-.28-.19a6.1,6.1,0,1,0-1.72,11.07C24.18,65,31.88,72.9,34.79,74.6a18.11,18.11,0,0,0-4.2,2.18,11.28,11.28,0,0,1-4.85,2.06,6,6,0,0,0-2.1-2.64L23.35,76a6.11,6.11,0,1,0-3.26,11.27c.13,0,.25,0,.37,0a25.71,25.71,0,0,1,0,11.25l-.34,0a6.11,6.11,0,1,0,4.14,1.62l-.08-.07a28.49,28.49,0,0,0,0-14.37c.15-.13.3-.26.44-.41a6.17,6.17,0,0,0,.63-.82A6.1,6.1,0,0,0,26,82.87a15.17,15.17,0,0,0,6.81-2.72,13.88,13.88,0,0,1,7.84-2.58,21.35,21.35,0,0,0,6.91,2,33.82,33.82,0,0,0,5.2,0c3.08-.16,4.76-2.08,6.24-3.77s3-3.46,6.4-3.89v-4C60.15,68.34,57.75,71.05,56,73.1ZM20.09,57a2.11,2.11,0,0,1-1.78-3.23,2.14,2.14,0,0,1,2.91-.65l.09.06A2.11,2.11,0,0,1,20.09,57ZM19,83A2.11,2.11,0,0,1,18,81.63a2.08,2.08,0,0,1,.28-1.58,2.14,2.14,0,0,1,2.91-.65l.09.06A2.11,2.11,0,0,1,19,83Zm2.9,22.76a2.11,2.11,0,1,1-3.56-2.25,2.14,2.14,0,0,1,2.91-.65l.09.06A2.1,2.1,0,0,1,21.87,105.72Z" transform="translate(-4.35 -2.82)" style="fill:#fffedb"/><path d="M176.83,48.79,188.9,86.38l12-37.59h17.14v54H205V90.21l1.26-25.83L193.2,102.82h-8.61l-13.1-38.48,1.26,25.87v12.62h-13v-54Z" transform="translate(-4.35 -2.82)" style="fill:#5aa854"/><path d="M245.19,103.57a23.22,23.22,0,0,1-8.76-1.56,18.93,18.93,0,0,1-6.49-4.23,18.3,18.3,0,0,1-4-6.2,20.23,20.23,0,0,1-1.39-7.5V82.67a26.91,26.91,0,0,1,1.21-8.18,18.26,18.26,0,0,1,3.64-6.59,17,17,0,0,1,6-4.38,20.77,20.77,0,0,1,8.44-1.6,20.3,20.3,0,0,1,7.66,1.37,15.7,15.7,0,0,1,5.75,3.93,17.28,17.28,0,0,1,3.6,6.2,25.16,25.16,0,0,1,1.24,8.16v5.08H237.25A9,9,0,0,0,240.18,92,8.72,8.72,0,0,0,246,93.92a13.7,13.7,0,0,0,5-1,10.11,10.11,0,0,0,4.25-3.19L261,96.51a14.58,14.58,0,0,1-2.47,2.6,17.19,17.19,0,0,1-3.51,2.25,22.22,22.22,0,0,1-4.49,1.6A22.47,22.47,0,0,1,245.19,103.57Zm-1.41-32a6.25,6.25,0,0,0-2.75.56,5.38,5.38,0,0,0-1.91,1.52,7.51,7.51,0,0,0-1.21,2.3,16.54,16.54,0,0,0-.67,2.89h12.62v-1a6.2,6.2,0,0,0-1.52-4.66A6.06,6.06,0,0,0,243.78,71.58Z" transform="translate(-4.35 -2.82)" style="fill:#5aa854"/><path d="M281.71,52.69v10h6.61v8.68h-6.61V89.72a7.9,7.9,0,0,0,.2,2,2.66,2.66,0,0,0,.67,1.24,2.54,2.54,0,0,0,1.24.65,8.47,8.47,0,0,0,1.93.19q1.08,0,1.78-.06t1.34-.17v8.94a23.55,23.55,0,0,1-3.34.8,23.11,23.11,0,0,1-3.71.28,19.21,19.21,0,0,1-5.36-.69,9.8,9.8,0,0,1-4-2.17A9.36,9.36,0,0,1,270,96.89a16.71,16.71,0,0,1-.83-5.6V71.35h-5.12V62.67h5.12v-10Z" transform="translate(-4.35 -2.82)" style="fill:#5aa854"/><path d="M315.85,102.82a8.66,8.66,0,0,1-.69-1.65q-.28-.91-.5-1.95a11.52,11.52,0,0,1-9.65,4.34,15.35,15.35,0,0,1-5.25-.89,13.86,13.86,0,0,1-4.32-2.47,11.7,11.7,0,0,1-3-3.8,10.94,10.94,0,0,1-1.09-4.9,13.12,13.12,0,0,1,1.13-5.57A10.54,10.54,0,0,1,296,81.8a17.11,17.11,0,0,1,5.86-2.6,34.16,34.16,0,0,1,8.41-.91h3.86V76.18a6.6,6.6,0,0,0-1.11-4,4.3,4.3,0,0,0-3.67-1.48,4.66,4.66,0,0,0-3.3,1.08,4.32,4.32,0,0,0-1.15,3.3H292.36a11.17,11.17,0,0,1,1.24-5.2,12.2,12.2,0,0,1,3.54-4.16,17.77,17.77,0,0,1,5.55-2.75,24.55,24.55,0,0,1,7.25-1,23.77,23.77,0,0,1,6.66.89,15,15,0,0,1,5.29,2.69A12.53,12.53,0,0,1,325.38,70a14.59,14.59,0,0,1,1.26,6.25V92.69q0,2,.11,3.41a21,21,0,0,0,.33,2.54,13.15,13.15,0,0,0,.54,1.95,11.64,11.64,0,0,0,.72,1.6v.63ZM308,94.66a7,7,0,0,0,3.88-1,6.28,6.28,0,0,0,2.21-2.26V85h-3.93a8,8,0,0,0-3,.48,5,5,0,0,0-1.93,1.3,4.9,4.9,0,0,0-1,1.87,7.66,7.66,0,0,0-.32,2.21,3.58,3.58,0,0,0,1.15,2.76A4.16,4.16,0,0,0,308,94.66Z" transform="translate(-4.35 -2.82)" style="fill:#5aa854"/><path d="M334.14,102.82v-54h19.41a40.17,40.17,0,0,1,9,.91,19.81,19.81,0,0,1,6.7,2.76,12.5,12.5,0,0,1,4.19,4.66,14.17,14.17,0,0,1,1.45,6.59,15.54,15.54,0,0,1-.41,3.58,11.44,11.44,0,0,1-1.32,3.25,10.66,10.66,0,0,1-2.36,2.73,12.07,12.07,0,0,1-3.53,2,12.42,12.42,0,0,1,4.08,1.82A10.58,10.58,0,0,1,374,79.82a11,11,0,0,1,1.5,3.36,14.62,14.62,0,0,1,.46,3.66q0,8-5.12,12t-15.18,4Zm13-31.51H354q4.27,0,6.09-1.56a5.52,5.52,0,0,0,1.82-4.49q0-3.41-2-4.92t-6.35-1.5h-6.38Zm0,8.54v13h8.54a10.29,10.29,0,0,0,3.36-.48A6.12,6.12,0,0,0,361.32,91a5.1,5.1,0,0,0,1.28-1.95,7,7,0,0,0,.41-2.41,10,10,0,0,0-.37-2.82,5.24,5.24,0,0,0-1.19-2.13,5.45,5.45,0,0,0-2.12-1.35,9.11,9.11,0,0,0-3.15-.48Z" transform="translate(-4.35 -2.82)" style="fill:#eb743b"/><path d="M406.88,74,406,73.9l-1.11-.09-1.13-.07c-.37,0-.69,0-1,0a11.11,11.11,0,0,0-4.86.91,5.58,5.58,0,0,0-2.71,2.8v25.42H382.68V62.67h11.73l.41,5.16a12.22,12.22,0,0,1,3.69-4.34,8.62,8.62,0,0,1,5.1-1.56,15.11,15.11,0,0,1,1.84.11,10,10,0,0,1,1.65.33Z" transform="translate(-4.35 -2.82)" style="fill:#eb743b"/><path d="M432.89,102.82a8.66,8.66,0,0,1-.69-1.65q-.28-.91-.5-1.95a11.52,11.52,0,0,1-9.65,4.34,15.35,15.35,0,0,1-5.25-.89,13.86,13.86,0,0,1-4.32-2.47,11.7,11.7,0,0,1-3-3.8,10.94,10.94,0,0,1-1.09-4.9,13.12,13.12,0,0,1,1.13-5.57A10.54,10.54,0,0,1,413,81.8a17.11,17.11,0,0,1,5.86-2.6,34.16,34.16,0,0,1,8.41-.91h3.86V76.18a6.6,6.6,0,0,0-1.11-4,4.3,4.3,0,0,0-3.67-1.48,4.66,4.66,0,0,0-3.3,1.08,4.32,4.32,0,0,0-1.15,3.3H409.4a11.17,11.17,0,0,1,1.24-5.2,12.2,12.2,0,0,1,3.54-4.16,17.77,17.77,0,0,1,5.55-2.75,24.55,24.55,0,0,1,7.25-1,23.77,23.77,0,0,1,6.66.89,15,15,0,0,1,5.29,2.69A12.53,12.53,0,0,1,442.43,70a14.59,14.59,0,0,1,1.26,6.25V92.69q0,2,.11,3.41a21,21,0,0,0,.33,2.54,13.15,13.15,0,0,0,.54,1.95,11.64,11.64,0,0,0,.72,1.6v.63Zm-7.83-8.16a7,7,0,0,0,3.88-1,6.28,6.28,0,0,0,2.21-2.26V85h-3.93a8,8,0,0,0-3,.48,5,5,0,0,0-1.93,1.3,4.9,4.9,0,0,0-1,1.87,7.66,7.66,0,0,0-.32,2.21,3.58,3.58,0,0,0,1.15,2.76A4.16,4.16,0,0,0,425.06,94.66Z" transform="translate(-4.35 -2.82)" style="fill:#eb743b"/><path d="M450.52,52.32a5.9,5.9,0,0,1,.5-2.45,5.61,5.61,0,0,1,1.43-1.93,6.59,6.59,0,0,1,2.19-1.26,9.15,9.15,0,0,1,5.64,0,6.61,6.61,0,0,1,2.19,1.26,5.62,5.62,0,0,1,1.43,1.93,6.24,6.24,0,0,1,0,4.9,5.61,5.61,0,0,1-1.43,1.93A6.6,6.6,0,0,1,460.28,58a9.15,9.15,0,0,1-5.64,0,6.58,6.58,0,0,1-2.19-1.26A5.6,5.6,0,0,1,451,54.77,5.9,5.9,0,0,1,450.52,52.32Zm13.29,50.51H451.26V62.67H463.8Z" transform="translate(-4.35 -2.82)" style="fill:#eb743b"/><path d="M483,62.67l.41,4.71a13.49,13.49,0,0,1,5-4.06,14.91,14.91,0,0,1,6.51-1.39,15.62,15.62,0,0,1,5.1.8,9.49,9.49,0,0,1,4,2.63,12.45,12.45,0,0,1,2.58,4.82,25.65,25.65,0,0,1,.91,7.37v25.27H494.9V77.51a9.44,9.44,0,0,0-.39-3,4.29,4.29,0,0,0-1.11-1.82,3.83,3.83,0,0,0-1.78-.91,10.84,10.84,0,0,0-2.39-.24,6.44,6.44,0,0,0-3.32.78,6.12,6.12,0,0,0-2.13,2.12v28.35H471.26V62.67Z" transform="translate(-4.35 -2.82)" style="fill:#eb743b"/><path d="M529.11,93.17h18.29v9.65h-34.1v-7l17.81-23.53h-17V62.67H547v6.75Z" transform="translate(-4.35 -2.82)" style="fill:#eb743b"/></g></svg>