<svg id="Layer_1" data-name="Layer 1" xmlns="http://www.w3.org/2000/svg" viewBox="0 0 525 100"><defs><style>.cls-1{fill:#4e7ec2;}.cls-2{fill:#eb743b;}.cls-3{fill:#fffedb;}.cls-4{fill:#8db2e3;}</style></defs><path class="cls-1" d="M126.47,63.51H113.54l-2.37,8.31H100.53L115,28h10l14.63,43.8H128.91Zm-10.6-8h8.23l-4.17-14.14Z"/><path class="cls-1" d="M157.24,64.39q4.26,0,4.33-5.54h9.2a13.83,13.83,0,0,1-3.77,9.9,12.81,12.81,0,0,1-9.55,3.76q-7.23,0-11-4.49t-3.88-13.25v-3q0-8.82,3.75-13.46t11.09-4.63q6.19,0,9.75,3.82t3.64,10.84h-9.2a9.86,9.86,0,0,0-1-4.84,3.56,3.56,0,0,0-3.32-1.7,4,4,0,0,0-3.67,1.82q-1.11,1.82-1.18,7v3.8a30.57,30.57,0,0,0,.45,6.39,4.83,4.83,0,0,0,1.49,2.66A4.56,4.56,0,0,0,157.24,64.39Z"/><path class="cls-1" d="M175.16,51.9q0-8.51,4-13.35t11.1-4.84q7.17,0,11.18,4.84t4,13.42v2.39q0,8.53-4,13.35t-11.14,4.8q-7.18,0-11.19-4.82t-4-13.4ZM185,54.36q0,10,5.36,10,4.95,0,5.33-8.37l0-4.12c0-3.41-.48-5.94-1.42-7.59a4.44,4.44,0,0,0-4-2.48,4.32,4.32,0,0,0-3.89,2.48Q185,46.79,185,51.9Z"/><path class="cls-1" d="M230,68.4a9.65,9.65,0,0,1-8.17,4.11c-3.43,0-6-1.18-7.81-3.54s-2.67-5.81-2.67-10.33V34.4h9.79V58.89q.07,5.46,3.63,5.46a5.06,5.06,0,0,0,4.85-2.9V34.4h9.85V71.82h-9.2Z"/><path class="cls-1" d="M263,61.79a3.08,3.08,0,0,0-1.19-2.3,24,24,0,0,0-5.31-2.85q-6.06-2.46-8.32-5.09A9.65,9.65,0,0,1,245.89,45a10.45,10.45,0,0,1,3.55-8.11q3.54-3.21,9.39-3.2,6.15,0,9.86,3.18a10.68,10.68,0,0,1,3.7,8.54H262.6q0-4.56-3.81-4.56a3.53,3.53,0,0,0-2.55,1,3.59,3.59,0,0,0-1,2.7,2.85,2.85,0,0,0,1.11,2.2,24.43,24.43,0,0,0,5.22,2.71q6,2.22,8.46,4.93a10,10,0,0,1,2.47,7,9.82,9.82,0,0,1-3.77,8.06q-3.77,3-9.89,3a15.75,15.75,0,0,1-7.26-1.6,12.23,12.23,0,0,1-4.93-4.48,11.53,11.53,0,0,1-1.78-6.19h9.3a6,6,0,0,0,1.19,3.84A4.7,4.7,0,0,0,259,65.36Q263,65.36,263,61.79Z"/><path class="cls-1" d="M290,25.2v9.2h5v7.33h-5v18.6a5.41,5.41,0,0,0,.61,3.05,2.71,2.71,0,0,0,2.33.83,9.22,9.22,0,0,0,2.32-.24l-.07,7.61a15.31,15.31,0,0,1-5.4.93q-9.48,0-9.58-10.87V41.73h-4.32V34.4h4.32V25.2Z"/><path class="cls-1" d="M300.34,24.71A5,5,0,0,1,301.79,21a5.87,5.87,0,0,1,7.75,0A5,5,0,0,1,311,24.71a5.33,5.33,0,1,1-10.65,0Zm10.27,47.11h-9.82V34.4h9.82Z"/><path class="cls-1" d="M331.71,64.39q4.26,0,4.32-5.54h9.2a13.74,13.74,0,0,1-3.77,9.9,12.78,12.78,0,0,1-9.54,3.76q-7.23,0-11-4.49T317,54.77v-3q0-8.82,3.75-13.46t11.09-4.63q6.19,0,9.75,3.82t3.63,10.84H336a9.76,9.76,0,0,0-1-4.84,3.56,3.56,0,0,0-3.32-1.7A4,4,0,0,0,328,43.65q-1.11,1.82-1.18,7v3.8a30.57,30.57,0,0,0,.45,6.39,4.83,4.83,0,0,0,1.49,2.66A4.56,4.56,0,0,0,331.71,64.39Z"/><path class="cls-2" d="M350.67,71.82V28h14.88q7.68,0,11.71,3.1t4.05,9A11.25,11.25,0,0,1,379.84,46a8.64,8.64,0,0,1-4.32,3.64A8.42,8.42,0,0,1,380.29,53,11,11,0,0,1,382,59.27q0,6.54-3.79,9.55t-11.43,3Zm10.63-25.6h5.12q4.24-.12,4.25-4.51A5.27,5.27,0,0,0,369.61,38a4.29,4.29,0,0,0-3.23-1.1H361.3Zm0,7.41v9.43h5.46a4.14,4.14,0,0,0,4.58-4.53c0-3.17-1.27-4.8-3.83-4.9Z"/><path class="cls-2" d="M407,43.84l-3.25-.28a5.34,5.34,0,0,0-5.43,3.53V71.82h-9.83V34.4h9.24l.28,4q2.31-4.72,6.4-4.73a6.83,6.83,0,0,1,2.69.45Z"/><path class="cls-2" d="M428.71,71.82a12.93,12.93,0,0,1-.83-2.9,8.37,8.37,0,0,1-7.13,3.59A10.53,10.53,0,0,1,413,69.4a10.94,10.94,0,0,1-3.09-8.06q0-5.88,3.75-9.09T424.42,49h3V46a5.68,5.68,0,0,0-.86-3.56,3.12,3.12,0,0,0-2.53-1q-3.66,0-3.66,4.29h-9.79a10.81,10.81,0,0,1,3.89-8.56,14.46,14.46,0,0,1,9.84-3.37q6.15,0,9.53,3.2t3.37,9.14V63.66a18.65,18.65,0,0,0,1.38,7.58v.58Zm-5.78-7a5.46,5.46,0,0,0,2.77-.66,4.67,4.67,0,0,0,1.69-1.56V54.84H425a5,5,0,0,0-3.93,1.59,6.15,6.15,0,0,0-1.43,4.26C419.68,63.45,420.76,64.84,422.93,64.84Z"/><path class="cls-2" d="M444.27,24.71A5.08,5.08,0,0,1,445.72,21a5.87,5.87,0,0,1,7.75,0,5,5,0,0,1,1.45,3.73,5.33,5.33,0,1,1-10.65,0Zm10.27,47.11h-9.82V34.4h9.82Z"/><path class="cls-2" d="M471.08,34.4l.27,3.7A10.39,10.39,0,0,1,480,33.71q9.65,0,9.92,13.52V71.82h-9.82V48a8.64,8.64,0,0,0-.95-4.62,3.71,3.71,0,0,0-3.34-1.44,4.57,4.57,0,0,0-4.15,2.74V71.82h-9.82V34.4Z"/><path class="cls-2" d="M507.81,63.69h14.81v8.13H496.19V65.7l14.46-23.14H496.54V34.4h25.87v5.91Z"/><polygon class="cls-2" points="47 2 47 98 88 74 88 26 47 2"/><polygon class="cls-1" points="44 2 3 26 3 74 44 98 44 2"/><rect class="cls-3" x="35" y="16" width="6" height="4"/><rect class="cls-3" x="35" y="23" width="6" height="4"/><rect class="cls-3" x="35" y="30" width="6" height="4"/><rect class="cls-3" x="35" y="37" width="6" height="4"/><rect class="cls-3" x="35" y="44" width="6" height="4"/><rect class="cls-4" x="35" y="51" width="6" height="4"/><rect class="cls-4" x="35" y="58" width="6" height="4"/><rect class="cls-4" x="35" y="65" width="6" height="4"/><rect class="cls-4" x="35" y="72" width="6" height="4"/><rect class="cls-4" x="35" y="79" width="6" height="4"/><rect class="cls-3" x="26" y="30" width="6" height="4"/><rect class="cls-3" x="26" y="37" width="6" height="4"/><rect class="cls-3" x="26" y="44" width="6" height="4"/><rect class="cls-4" x="26" y="51" width="6" height="4"/><rect class="cls-4" x="26" y="58" width="6" height="4"/><rect class="cls-4" x="26" y="65" width="6" height="4"/><rect class="cls-3" x="17" y="44" width="6" height="4"/><rect class="cls-4" x="17" y="51" width="6" height="4"/><rect class="cls-3" x="8" y="37" width="6" height="4"/><rect class="cls-3" x="8" y="44" width="6" height="4"/><rect class="cls-4" x="8" y="51" width="6" height="4"/><rect class="cls-4" x="8" y="58" width="6" height="4"/><path class="cls-3" d="M79.28,58.09a6.75,6.75,0,0,0-7.67-2.86A18.09,18.09,0,0,0,63,49.6a28.62,28.62,0,0,0,5.91-6.16,6.91,6.91,0,0,0,5.17-.83,6.77,6.77,0,1,0-9.34-2.11,6.27,6.27,0,0,0,.42.59,23.88,23.88,0,0,1-9.52,7.79h0A18.45,18.45,0,0,1,47,51v5c4,0,5.93-1.12,10-2.9a14.78,14.78,0,0,1,11,4.75,6.76,6.76,0,1,0,12.16,5.32A6.64,6.64,0,0,0,79.28,58.09ZM69.06,34.67a2.57,2.57,0,0,1,1.4-.41,2.62,2.62,0,1,1,0,5.24,2.61,2.61,0,0,1-2.22-1.21A2.63,2.63,0,0,1,69.06,34.67Zm7.06,27.6A2.61,2.61,0,0,1,75,63.91a2.56,2.56,0,0,1-1.39.41,2.62,2.62,0,0,1-1.52-4.75l.12-.07a2.65,2.65,0,0,1,3.6.8A2.59,2.59,0,0,1,76.12,62.27Z"/></svg>