<svg id="Layer_1" data-name="Layer 1" xmlns="http://www.w3.org/2000/svg" viewBox="0 0 326 100"><defs><style>.cls-1{fill:#eb743b;}.cls-2{fill:#4e7ec2;}.cls-3{fill:#fffedb;}.cls-4{fill:#8db2e3;}</style></defs><polygon class="cls-1" points="46 2 46 98 87 74 87 26 46 2"/><polygon class="cls-2" points="43 2 2 26 2 74 43 98 43 2"/><rect class="cls-3" x="34" y="16" width="6" height="4"/><rect class="cls-3" x="34" y="23" width="6" height="4"/><rect class="cls-3" x="34" y="30" width="6" height="4"/><rect class="cls-3" x="34" y="37" width="6" height="4"/><rect class="cls-3" x="34" y="44" width="6" height="4"/><rect class="cls-4" x="34" y="51" width="6" height="4"/><rect class="cls-4" x="34" y="58" width="6" height="4"/><rect class="cls-4" x="34" y="65" width="6" height="4"/><rect class="cls-4" x="34" y="72" width="6" height="4"/><rect class="cls-4" x="34" y="79" width="6" height="4"/><rect class="cls-3" x="25" y="30" width="6" height="4"/><rect class="cls-3" x="25" y="37" width="6" height="4"/><rect class="cls-3" x="25" y="44" width="6" height="4"/><rect class="cls-4" x="25" y="51" width="6" height="4"/><rect class="cls-4" x="25" y="58" width="6" height="4"/><rect class="cls-4" x="25" y="65" width="6" height="4"/><rect class="cls-3" x="16" y="44" width="6" height="4"/><rect class="cls-4" x="16" y="51" width="6" height="4"/><rect class="cls-3" x="7" y="37" width="6" height="4"/><rect class="cls-3" x="7" y="44" width="6" height="4"/><rect class="cls-4" x="7" y="51" width="6" height="4"/><rect class="cls-4" x="7" y="58" width="6" height="4"/><path class="cls-3" d="M78.28,58.09a6.75,6.75,0,0,0-7.67-2.86A18.09,18.09,0,0,0,62,49.6a28.62,28.62,0,0,0,5.91-6.16,6.91,6.91,0,0,0,5.17-.83,6.77,6.77,0,1,0-9.34-2.11,6.27,6.27,0,0,0,.42.59,23.88,23.88,0,0,1-9.52,7.79h0A18.45,18.45,0,0,1,46,51v5c4,0,5.93-1.12,10-2.9a14.78,14.78,0,0,1,11,4.75,6.76,6.76,0,1,0,12.16,5.32A6.64,6.64,0,0,0,78.28,58.09ZM68.06,34.67a2.57,2.57,0,0,1,1.4-.41,2.62,2.62,0,1,1,0,5.24,2.61,2.61,0,0,1-2.22-1.21A2.63,2.63,0,0,1,68.06,34.67Zm7.06,27.6A2.61,2.61,0,0,1,74,63.91a2.56,2.56,0,0,1-1.39.41,2.62,2.62,0,0,1-1.52-4.75l.12-.07a2.65,2.65,0,0,1,3.6.8A2.59,2.59,0,0,1,75.12,62.27Z"/><path class="cls-2" d="M125.42,39.27H111.75L109.27,46h-8.79l14-35.3h8.24L136.78,46h-8.85Zm-11.3-6.42H123l-4.46-11.94Z"/><path class="cls-2" d="M152.39,40.06A5.3,5.3,0,0,0,156,38.84a4.32,4.32,0,0,0,1.45-3.26H165a10.22,10.22,0,0,1-1.67,5.61,11,11,0,0,1-4.5,4,14.05,14.05,0,0,1-6.31,1.41q-6.47,0-10.2-4.11t-3.74-11.36v-.53q0-7,3.71-11.12t10.17-4.16a12.7,12.7,0,0,1,9.07,3.22A11.37,11.37,0,0,1,165,27.07h-7.55A5.53,5.53,0,0,0,156,23.25a5.39,5.39,0,0,0-7.93.58c-1,1.37-1.43,3.59-1.43,6.66v.84c0,3.1.47,5.34,1.42,6.7A4.93,4.93,0,0,0,152.39,40.06Z"/><path class="cls-2" d="M168.36,30.64a17.92,17.92,0,0,1,1.73-8,12.64,12.64,0,0,1,5-5.43,14.46,14.46,0,0,1,7.54-1.93,13.74,13.74,0,0,1,10,3.74,15,15,0,0,1,4.31,10.14l.05,2.07c0,4.62-1.29,8.34-3.87,11.13a15,15,0,0,1-20.81,0Q168.37,38.2,168.36,31Zm8.06.57c0,2.87.53,5.06,1.61,6.58a5.82,5.82,0,0,0,9.2,0q1.65-2.25,1.65-7.19a11.17,11.17,0,0,0-1.65-6.54,5.36,5.36,0,0,0-4.63-2.31,5.25,5.25,0,0,0-4.57,2.3C177,25.62,176.42,28,176.42,31.21Z"/><path class="cls-2" d="M220,42.93a10.1,10.1,0,0,1-8.26,3.63q-4.84,0-7.4-2.79t-2.6-8.17V15.84h8.05V35.35q0,4.71,4.3,4.71c2.73,0,4.6-1,5.63-2.84V15.84h8.08V46h-7.58Z"/><path class="cls-2" d="M250.17,37.67a2.6,2.6,0,0,0-1.46-2.33,16.35,16.35,0,0,0-4.7-1.52q-10.75-2.26-10.76-9.14A8.3,8.3,0,0,1,236.58,18a13.46,13.46,0,0,1,8.71-2.69q5.75,0,9.19,2.71a8.52,8.52,0,0,1,3.44,7h-8.06a3.93,3.93,0,0,0-1.11-2.86A4.75,4.75,0,0,0,245.26,21a4.86,4.86,0,0,0-3.15.91A2.93,2.93,0,0,0,241,24.29a2.48,2.48,0,0,0,1.27,2.16,13,13,0,0,0,4.28,1.42,35.63,35.63,0,0,1,5.07,1.35Q258,31.56,258,37.33A7.87,7.87,0,0,1,254.46,44a15.25,15.25,0,0,1-9.14,2.55,16,16,0,0,1-6.73-1.35A11.33,11.33,0,0,1,234,41.5a8.6,8.6,0,0,1-1.68-5.09h7.64a4.18,4.18,0,0,0,1.59,3.29,6.3,6.3,0,0,0,4,1.14A5.81,5.81,0,0,0,249,40,2.71,2.71,0,0,0,250.17,37.67Z"/><path class="cls-2" d="M272.83,8.43v7.41H278v5.91h-5.16v15a3.63,3.63,0,0,0,.64,2.4,3.25,3.25,0,0,0,2.46.72,12.93,12.93,0,0,0,2.37-.19v6.1a16.39,16.39,0,0,1-4.88.73q-8.48,0-8.64-8.56V21.75h-4.41V15.84h4.41V8.43Z"/><path class="cls-2" d="M282.42,8a4,4,0,0,1,1.21-3,5.24,5.24,0,0,1,6.6,0,4,4,0,0,1,1.22,3,4,4,0,0,1-1.24,3,5.17,5.17,0,0,1-6.55,0A4,4,0,0,1,282.42,8ZM291,46h-8.09V15.84H291Z"/><path class="cls-2" d="M310.16,40.06a5.32,5.32,0,0,0,3.62-1.22,4.32,4.32,0,0,0,1.45-3.26h7.55a10.3,10.3,0,0,1-1.67,5.61,11.1,11.1,0,0,1-4.5,4,14.1,14.1,0,0,1-6.32,1.41q-6.46,0-10.2-4.11t-3.73-11.36v-.53q0-7,3.71-11.12t10.17-4.16a12.7,12.7,0,0,1,9.07,3.22,11.37,11.37,0,0,1,3.47,8.57h-7.55a5.53,5.53,0,0,0-1.45-3.82,5.39,5.39,0,0,0-7.93.58q-1.44,2.05-1.44,6.66v.84c0,3.1.48,5.34,1.42,6.7A4.94,4.94,0,0,0,310.16,40.06Z"/><path class="cls-1" d="M103.51,92V56.7h13.64q7,0,10.85,2.51a8.79,8.79,0,0,1,2.4,11.95,7.83,7.83,0,0,1-4,3A7.83,7.83,0,0,1,131,77a8,8,0,0,1,1.58,4.9c0,3.48-1.2,6-3.61,7.66S123.07,92,118.48,92Zm8.79-20.6h5.39q5.31,0,5.31-3.71a3.43,3.43,0,0,0-1.29-3,6.92,6.92,0,0,0-3.93-.9H112.3Zm0,6v7.57h6.18a6.65,6.65,0,0,0,3.94-1,3.11,3.11,0,0,0,1.39-2.65c0-2.54-1.54-3.84-4.63-3.92Z"/><path class="cls-1" d="M154.88,69.39a23.28,23.28,0,0,0-2.9-.22q-4.56,0-6,3.1V92h-8.05V61.84h7.6l.23,3.6q2.41-4.15,6.72-4.16a8.24,8.24,0,0,1,2.51.37Z"/><path class="cls-1" d="M175.4,92a9.07,9.07,0,0,1-.81-2.7A9.76,9.76,0,0,1,167,92.56,10.7,10.7,0,0,1,159.64,90a8.22,8.22,0,0,1-2.92-6.46,8.52,8.52,0,0,1,3.56-7.36q3.56-2.57,10.27-2.59h3.71V71.85a5,5,0,0,0-1.08-3.35,4.22,4.22,0,0,0-3.38-1.25,4.83,4.83,0,0,0-3.2,1,3.33,3.33,0,0,0-1.15,2.68h-8.06A8.08,8.08,0,0,1,159,66.05a10.71,10.71,0,0,1,4.57-3.5,16.75,16.75,0,0,1,6.63-1.27c3.72,0,6.67.94,8.85,2.8A9.8,9.8,0,0,1,182.34,72V85a14.48,14.48,0,0,0,1.2,6.5V92Zm-6.66-5.6a7,7,0,0,0,3.29-.8,5.29,5.29,0,0,0,2.23-2.13V78.29h-3c-4,0-6.18,1.39-6.44,4.18l0,.47a3.22,3.22,0,0,0,1.06,2.48A4.1,4.1,0,0,0,168.74,86.4Z"/><path class="cls-1" d="M188.47,54a4,4,0,0,1,1.21-3,5.24,5.24,0,0,1,6.6,0,4.27,4.27,0,0,1,0,6,5.17,5.17,0,0,1-6.55,0A4,4,0,0,1,188.47,54ZM197,92H189V61.84H197Z"/><path class="cls-1" d="M211.08,61.84l.25,3.48a10.53,10.53,0,0,1,8.67-4q4.78,0,7.13,2.82c1.56,1.88,2.36,4.68,2.4,8.42V92h-8.06V72.67a5.25,5.25,0,0,0-1.11-3.73,5,5,0,0,0-3.71-1.16,5.54,5.54,0,0,0-5.1,2.9V92H203.5V61.84Z"/><path class="cls-1" d="M244.89,85.51h14.74V92h-25V87.09l14.19-18.76H235V61.84h24.17v4.75Z"/></svg>