<svg id="Layer_1" data-name="Layer 1" xmlns="http://www.w3.org/2000/svg" viewBox="0 0 579 100"><defs><style>.cls-1{fill:#4e7ec2;}.cls-2{fill:#eb743b;}.cls-3{fill:#fffedb;}.cls-4{fill:#8db2e3;}</style></defs><path class="cls-1" d="M130.91,63.48H114l-3.08,8.34H100L117.29,28h10.23L145,71.82H134Zm-14-8h11l-5.53-14.82Z"/><path class="cls-1" d="M164.37,64.46a6.56,6.56,0,0,0,4.5-1.53,5.34,5.34,0,0,0,1.8-4H180a12.82,12.82,0,0,1-2.08,7,13.73,13.73,0,0,1-5.58,4.91,17.58,17.58,0,0,1-7.84,1.74q-8,0-12.66-5.1t-4.63-14.09v-.66q0-8.64,4.6-13.8t12.62-5.15q7,0,11.26,4A14.14,14.14,0,0,1,180,48.34h-9.37a6.91,6.91,0,0,0-1.8-4.75,6.68,6.68,0,0,0-9.84.72q-1.78,2.55-1.78,8.26v1c0,3.86.58,6.63,1.76,8.32A6.11,6.11,0,0,0,164.37,64.46Z"/><path class="cls-1" d="M184.19,52.76a22.15,22.15,0,0,1,2.14-9.92,15.67,15.67,0,0,1,6.18-6.75,18,18,0,0,1,9.36-2.38,17,17,0,0,1,12.36,4.63Q219,43,219.58,50.93l.06,2.56q0,8.61-4.8,13.82t-12.91,5.2q-8.09,0-12.91-5.18t-4.83-14.12Zm10,.71q0,5.34,2,8.16a7.21,7.21,0,0,0,11.42,0c1.36-1.86,2-4.84,2-8.92q0-5.23-2-8.11a6.64,6.64,0,0,0-5.74-2.88,6.55,6.55,0,0,0-5.68,2.86Q194.2,47.49,194.19,53.47Z"/><path class="cls-1" d="M248.21,68c-2.46,3-5.88,4.49-10.23,4.49q-6,0-9.19-3.45t-3.23-10.14V34.4h10V58.6c0,3.9,1.77,5.86,5.32,5.86q5.09,0,7-3.54V34.4h10V71.82h-9.41Z"/><path class="cls-1" d="M285.71,61.48a3.22,3.22,0,0,0-1.82-2.89,20.62,20.62,0,0,0-5.82-1.88q-13.35-2.8-13.36-11.35A10.29,10.29,0,0,1,268.85,37q4.13-3.33,10.81-3.33,7.13,0,11.39,3.35a10.58,10.58,0,0,1,4.28,8.72h-10A4.86,4.86,0,0,0,284,42.23a5.9,5.9,0,0,0-4.33-1.4A6,6,0,0,0,275.71,42a3.61,3.61,0,0,0-1.38,2.91,3.07,3.07,0,0,0,1.57,2.68,16.09,16.09,0,0,0,5.31,1.76,44.46,44.46,0,0,1,6.3,1.68q7.92,2.91,7.92,10.07A9.75,9.75,0,0,1,291,69.35q-4.4,3.16-11.35,3.16a19.76,19.76,0,0,1-8.35-1.67,14.09,14.09,0,0,1-5.73-4.6,10.73,10.73,0,0,1-2.07-6.32H273A5.23,5.23,0,0,0,275,64a7.85,7.85,0,0,0,4.91,1.41,7.22,7.22,0,0,0,4.34-1.09A3.37,3.37,0,0,0,285.71,61.48Z"/><path class="cls-1" d="M313.83,25.2v9.2h6.4v7.33h-6.4V60.41a4.45,4.45,0,0,0,.8,3,4,4,0,0,0,3,.9,16,16,0,0,0,2.94-.24v7.58a20.9,20.9,0,0,1-6.05.89q-10.51,0-10.73-10.61V41.73h-5.46V34.4h5.46V25.2Z"/><path class="cls-1" d="M325.73,24.71a4.93,4.93,0,0,1,1.5-3.7,6.51,6.51,0,0,1,8.19,0,4.91,4.91,0,0,1,1.52,3.7,5,5,0,0,1-1.54,3.74,6.42,6.42,0,0,1-8.13,0A4.91,4.91,0,0,1,325.73,24.71Zm10.62,47.11h-10V34.4h10Z"/><path class="cls-1" d="M360.15,64.46a6.52,6.52,0,0,0,4.49-1.53,5.27,5.27,0,0,0,1.8-4h9.38a12.91,12.91,0,0,1-2.08,7,13.7,13.7,0,0,1-5.59,4.91,17.51,17.51,0,0,1-7.83,1.74q-8,0-12.66-5.1T343,53.32v-.66q0-8.64,4.59-13.8t12.63-5.15q7,0,11.26,4a14.18,14.18,0,0,1,4.31,10.64h-9.38a6.82,6.82,0,0,0-1.8-4.75,6.68,6.68,0,0,0-9.84.72C353.62,46,353,48.76,353,52.57v1q0,5.79,1.77,8.32A6.1,6.1,0,0,0,360.15,64.46Z"/><path class="cls-2" d="M381.41,71.82V28h16.91q8.76,0,13.46,3.11a10.13,10.13,0,0,1,4.7,9A10.07,10.07,0,0,1,414.77,46a9.8,9.8,0,0,1-4.9,3.67,9.76,9.76,0,0,1,5.64,3.56,10,10,0,0,1,1.95,6.09c0,4.32-1.49,7.5-4.47,9.51s-7.32,3-13,3Zm10.9-25.56H399q6.58,0,6.58-4.61A4.23,4.23,0,0,0,404,37.9a8.51,8.51,0,0,0-4.87-1.12h-6.8Zm0,7.4v9.4H400a8.3,8.3,0,0,0,4.89-1.24,3.88,3.88,0,0,0,1.73-3.29c0-3.14-1.92-4.77-5.76-4.87Z"/><path class="cls-2" d="M445.15,43.77a28,28,0,0,0-3.6-.28q-5.67,0-7.43,3.84V71.82h-10V34.4h9.44l.28,4.46c2-3.44,4.78-5.15,8.34-5.15a10.49,10.49,0,0,1,3.11.45Z"/><path class="cls-2" d="M470.61,71.82a11.15,11.15,0,0,1-1-3.35,12.07,12.07,0,0,1-9.44,4,13.25,13.25,0,0,1-9.11-3.18,10.22,10.22,0,0,1-3.62-8,10.57,10.57,0,0,1,4.41-9.13Q456.25,49,464.59,49h4.6V46.82a6.18,6.18,0,0,0-1.33-4.16,5.26,5.26,0,0,0-4.2-1.55,5.91,5.91,0,0,0-4,1.21,4.11,4.11,0,0,0-1.44,3.32h-10a10,10,0,0,1,2-6,13.34,13.34,0,0,1,5.67-4.34,20.68,20.68,0,0,1,8.23-1.57q6.93,0,11,3.47T479.22,47V63.18c0,3.55.52,6.23,1.49,8.06v.58Zm-8.27-6.95a8.55,8.55,0,0,0,4.08-1,6.39,6.39,0,0,0,2.77-2.64V54.81h-3.74q-7.5,0-8,5.18l0,.59a4,4,0,0,0,1.31,3.08A5.11,5.11,0,0,0,462.34,64.87Z"/><path class="cls-2" d="M486.83,24.71a4.93,4.93,0,0,1,1.5-3.7,6.51,6.51,0,0,1,8.19,0,4.91,4.91,0,0,1,1.52,3.7,5,5,0,0,1-1.54,3.74,6.42,6.42,0,0,1-8.13,0A4.91,4.91,0,0,1,486.83,24.71Zm10.62,47.11h-10V34.4h10Z"/><path class="cls-2" d="M514.88,34.4l.31,4.32a13.09,13.09,0,0,1,10.76-5q6,0,8.86,3.49t3,10.45V71.82h-10v-24a6.54,6.54,0,0,0-1.39-4.63c-.92-1-2.45-1.44-4.6-1.44a6.89,6.89,0,0,0-6.33,3.61V71.82h-10V34.4Z"/><path class="cls-2" d="M556.84,63.76h18.3v8.06H544.08V65.74l17.6-23.28H544.59V34.4h30v5.89Z"/><polygon class="cls-2" points="47 2 47 98 88 74 88 26 47 2"/><polygon class="cls-1" points="44 2 3 26 3 74 44 98 44 2"/><rect class="cls-3" x="35" y="16" width="6" height="4"/><rect class="cls-3" x="35" y="23" width="6" height="4"/><rect class="cls-3" x="35" y="30" width="6" height="4"/><rect class="cls-3" x="35" y="37" width="6" height="4"/><rect class="cls-3" x="35" y="44" width="6" height="4"/><rect class="cls-4" x="35" y="51" width="6" height="4"/><rect class="cls-4" x="35" y="58" width="6" height="4"/><rect class="cls-4" x="35" y="65" width="6" height="4"/><rect class="cls-4" x="35" y="72" width="6" height="4"/><rect class="cls-4" x="35" y="79" width="6" height="4"/><rect class="cls-3" x="26" y="30" width="6" height="4"/><rect class="cls-3" x="26" y="37" width="6" height="4"/><rect class="cls-3" x="26" y="44" width="6" height="4"/><rect class="cls-4" x="26" y="51" width="6" height="4"/><rect class="cls-4" x="26" y="58" width="6" height="4"/><rect class="cls-4" x="26" y="65" width="6" height="4"/><rect class="cls-3" x="17" y="44" width="6" height="4"/><rect class="cls-4" x="17" y="51" width="6" height="4"/><rect class="cls-3" x="8" y="37" width="6" height="4"/><rect class="cls-3" x="8" y="44" width="6" height="4"/><rect class="cls-4" x="8" y="51" width="6" height="4"/><rect class="cls-4" x="8" y="58" width="6" height="4"/><path class="cls-3" d="M79.28,58.09a6.75,6.75,0,0,0-7.67-2.86A18.09,18.09,0,0,0,63,49.6a28.62,28.62,0,0,0,5.91-6.16,6.91,6.91,0,0,0,5.17-.83,6.77,6.77,0,1,0-9.34-2.11,6.27,6.27,0,0,0,.42.59,23.88,23.88,0,0,1-9.52,7.79h0A18.45,18.45,0,0,1,47,51v5c4,0,5.93-1.12,10-2.9a14.78,14.78,0,0,1,11,4.75,6.76,6.76,0,1,0,12.16,5.32A6.64,6.64,0,0,0,79.28,58.09ZM69.06,34.67a2.57,2.57,0,0,1,1.4-.41,2.62,2.62,0,1,1,0,5.24,2.61,2.61,0,0,1-2.22-1.21A2.63,2.63,0,0,1,69.06,34.67Zm7.06,27.6A2.61,2.61,0,0,1,75,63.91a2.56,2.56,0,0,1-1.39.41,2.62,2.62,0,0,1-1.52-4.75l.12-.07a2.65,2.65,0,0,1,3.6.8A2.59,2.59,0,0,1,76.12,62.27Z"/></svg>