<svg id="Layer_1" data-name="Layer 1" xmlns="http://www.w3.org/2000/svg" viewBox="0 0 250 30"><defs><style>.cls-1{fill:#4e7ec2;}.cls-2{fill:#eb743b;}</style></defs><polygon class="cls-1" points="14 1 2 8 2 22 14 29 14 1"/><polygon class="cls-2" points="15 1 27 8 27 22 15 29 15 1"/><path class="cls-1" d="M47.94,21.23H40.29L38.9,25H34L41.8,5.24h4.62L54.31,25h-5Zm-6.32-3.59h5L44.09,11Z"/><path class="cls-1" d="M63,21.68a2.94,2.94,0,0,0,2-.69,2.41,2.41,0,0,0,.81-1.83h4.24a5.9,5.9,0,0,1-.94,3.15,6.22,6.22,0,0,1-2.52,2.21,7.86,7.86,0,0,1-3.54.79A7.34,7.34,0,0,1,57.41,23a9.11,9.11,0,0,1-2.09-6.36v-.3a9,9,0,0,1,2.07-6.22,7.27,7.27,0,0,1,5.7-2.33,7.1,7.1,0,0,1,5.08,1.8,6.43,6.43,0,0,1,2,4.8H65.88a3.09,3.09,0,0,0-.81-2.14,3,3,0,0,0-4.44.33,6.67,6.67,0,0,0-.8,3.72v.47a6.65,6.65,0,0,0,.8,3.75A2.72,2.72,0,0,0,63,21.68Z"/><path class="cls-1" d="M72,16.4a10,10,0,0,1,1-4.48,7.06,7.06,0,0,1,2.78-3A8.1,8.1,0,0,1,80,7.8a7.7,7.7,0,0,1,5.58,2.09A8.38,8.38,0,0,1,88,15.57l0,1.16A8.83,8.83,0,0,1,85.82,23a8.41,8.41,0,0,1-11.65,0A8.94,8.94,0,0,1,72,16.6Zm4.51.32a6.33,6.33,0,0,0,.9,3.68,3.25,3.25,0,0,0,5.15,0,6.87,6.87,0,0,0,.92-4,6.23,6.23,0,0,0-.92-3.66,3.21,3.21,0,0,0-5.15,0A7,7,0,0,0,76.5,16.72Z"/><path class="cls-1" d="M100.88,23.28a5.65,5.65,0,0,1-4.62,2,5.36,5.36,0,0,1-4.15-1.56,6.66,6.66,0,0,1-1.46-4.57V8.11h4.52V19q0,2.64,2.4,2.64a3.26,3.26,0,0,0,3.15-1.6v-12h4.53V25H101Z"/><path class="cls-1" d="M117.79,20.33A1.45,1.45,0,0,0,117,19a9.36,9.36,0,0,0-2.63-.85q-6-1.26-6-5.12a4.61,4.61,0,0,1,1.87-3.75,7.48,7.48,0,0,1,4.87-1.51,8.17,8.17,0,0,1,5.15,1.51,4.78,4.78,0,0,1,1.92,3.94h-4.51a2.16,2.16,0,0,0-.62-1.6,2.66,2.66,0,0,0-2-.63,2.7,2.7,0,0,0-1.76.51,1.61,1.61,0,0,0-.63,1.31,1.39,1.39,0,0,0,.71,1.21,7.31,7.31,0,0,0,2.4.8,19.41,19.41,0,0,1,2.84.75c2.38.88,3.57,2.39,3.57,4.55a4.39,4.39,0,0,1-2,3.73,8.5,8.5,0,0,1-5.12,1.43,9,9,0,0,1-3.77-.75,6.32,6.32,0,0,1-2.58-2.08,4.79,4.79,0,0,1-.94-2.85h4.28a2.34,2.34,0,0,0,.89,1.84,3.5,3.5,0,0,0,2.21.64,3.24,3.24,0,0,0,2-.49A1.54,1.54,0,0,0,117.79,20.33Z"/><path class="cls-1" d="M130.48,4V8.11h2.89v3.31h-2.89v8.43a2,2,0,0,0,.36,1.34,1.82,1.82,0,0,0,1.38.41,7.32,7.32,0,0,0,1.32-.11v3.42a9.25,9.25,0,0,1-2.73.4q-4.74,0-4.84-4.79v-9.1h-2.46V8.11H126V4Z"/><path class="cls-1" d="M135.85,3.74a2.25,2.25,0,0,1,.68-1.67,2.94,2.94,0,0,1,3.69,0,2.22,2.22,0,0,1,.69,1.67,2.2,2.2,0,0,1-.7,1.69,2.9,2.9,0,0,1-3.66,0A2.2,2.2,0,0,1,135.85,3.74ZM140.64,25h-4.52V8.11h4.52Z"/><path class="cls-1" d="M151.38,21.68a3,3,0,0,0,2-.69,2.41,2.41,0,0,0,.81-1.83h4.23a5.81,5.81,0,0,1-.93,3.15A6.22,6.22,0,0,1,155,24.52a7.86,7.86,0,0,1-3.54.79,7.34,7.34,0,0,1-5.71-2.3,9.07,9.07,0,0,1-2.09-6.36v-.3a9,9,0,0,1,2.07-6.22,7.26,7.26,0,0,1,5.7-2.33,7.12,7.12,0,0,1,5.08,1.8,6.42,6.42,0,0,1,1.94,4.8h-4.23a3.09,3.09,0,0,0-.81-2.14,3,3,0,0,0-4.44.33,6.58,6.58,0,0,0-.8,3.72v.47a6.75,6.75,0,0,0,.79,3.75A2.74,2.74,0,0,0,151.38,21.68Z"/><path class="cls-2" d="M161,25V5.24h7.64a11,11,0,0,1,6.07,1.4,4.58,4.58,0,0,1,2.12,4.07,4.56,4.56,0,0,1-.77,2.62A4.37,4.37,0,0,1,173.82,15a4.32,4.32,0,0,1,3.42,4.35,4.81,4.81,0,0,1-2,4.3A10.46,10.46,0,0,1,169.35,25Zm4.92-11.54h3q3,0,3-2.07a1.93,1.93,0,0,0-.72-1.7,3.91,3.91,0,0,0-2.2-.5h-3.07Zm0,3.35v4.24h3.46a3.78,3.78,0,0,0,2.21-.56,1.76,1.76,0,0,0,.78-1.49c0-1.42-.86-2.15-2.59-2.19Z"/><path class="cls-2" d="M189.74,12.34a12.89,12.89,0,0,0-1.63-.12c-1.7,0-2.82.57-3.35,1.73V25h-4.51V8.11h4.26l.12,2a4.19,4.19,0,0,1,3.76-2.33,5,5,0,0,1,1.41.2Z"/><path class="cls-2" d="M201.22,25a5.51,5.51,0,0,1-.45-1.51,5.47,5.47,0,0,1-4.26,1.82,6,6,0,0,1-4.11-1.43,4.62,4.62,0,0,1-1.63-3.62,4.78,4.78,0,0,1,2-4.13,9.85,9.85,0,0,1,5.75-1.45h2.07v-1a2.81,2.81,0,0,0-.6-1.88,2.38,2.38,0,0,0-1.89-.7,2.66,2.66,0,0,0-1.79.55,1.85,1.85,0,0,0-.65,1.5h-4.51a4.5,4.5,0,0,1,.91-2.72,5.92,5.92,0,0,1,2.56-2,9.37,9.37,0,0,1,3.71-.71,7.38,7.38,0,0,1,5,1.57,5.49,5.49,0,0,1,1.83,4.41V21.1a8,8,0,0,0,.67,3.63V25Zm-3.73-3.14a4,4,0,0,0,1.85-.44,2.94,2.94,0,0,0,1.24-1.2v-2.9H198.9c-2.26,0-3.46.78-3.61,2.34v.27a1.84,1.84,0,0,0,.59,1.39A2.33,2.33,0,0,0,197.49,21.86Z"/><path class="cls-2" d="M208.54,3.74a2.25,2.25,0,0,1,.68-1.67,2.94,2.94,0,0,1,3.69,0,2.22,2.22,0,0,1,.69,1.67,2.23,2.23,0,0,1-.69,1.69,2.57,2.57,0,0,1-1.84.65,2.53,2.53,0,0,1-1.83-.65A2.24,2.24,0,0,1,208.54,3.74ZM213.33,25h-4.52V8.11h4.52Z"/><path class="cls-2" d="M221.2,8.11l.14,2A5.93,5.93,0,0,1,226.2,7.8a4.89,4.89,0,0,1,4,1.58,7.31,7.31,0,0,1,1.34,4.71V25H227V14.17a3,3,0,0,0-.62-2.08,2.77,2.77,0,0,0-2.08-.65,3.09,3.09,0,0,0-2.85,1.62V25H217V8.11Z"/><path class="cls-2" d="M240.13,21.36h8.26V25h-14V22.25l7.95-10.5h-7.71V8.11h13.53v2.66Z"/></svg>