<svg xmlns="http://www.w3.org/2000/svg" viewBox="0 0 460 150"><defs><style>.cls-1{isolation:isolate;}.cls-2{fill:#4e7ec2;}.cls-3{fill:#eb743b;}.cls-4{mix-blend-mode:multiply;opacity:0.07;}.cls-5{fill:#d3562c;}.cls-6{fill:#fffedb;}.cls-7{fill:#8db2e3;}</style></defs><g class="cls-1"><g id="Layer_1" data-name="Layer 1"><path class="cls-2" d="M185,59.47H168.87l-3,10.36H152.66l18-54.6h12.42l18.24,54.6H188.05Zm-13.22-10h10.27l-5.21-17.62Z"/><path class="cls-2" d="M223.36,60.56q5.31,0,5.39-6.9h11.47q-.08,7.64-4.7,12.34a16,16,0,0,1-11.9,4.7q-9,0-13.75-5.61T205,48.57v-3.7q0-11,4.67-16.78t13.83-5.78q7.71,0,12.16,4.77t4.52,13.52H228.75a12.3,12.3,0,0,0-1.29-6,4.42,4.42,0,0,0-4.14-2.11,4.92,4.92,0,0,0-4.57,2.26c-.92,1.51-1.41,4.43-1.47,8.78v4.74a38.43,38.43,0,0,0,.56,8,6.1,6.1,0,0,0,1.86,3.32A5.66,5.66,0,0,0,223.36,60.56Z"/><path class="cls-2" d="M245.7,45q0-10.62,5-16.65t13.85-6q8.93,0,13.93,6t5,16.73v3q0,10.65-5,16.64t-13.89,6q-9,0-13.95-6T245.7,48ZM258,48.06q0,12.49,6.68,12.5,6.17,0,6.64-10.43l.05-5.13q0-6.39-1.77-9.47a5.5,5.5,0,0,0-5-3.08,5.35,5.35,0,0,0-4.85,3.08Q257.94,38.6,258,45Z"/><path class="cls-2" d="M314,65.56a12,12,0,0,1-10.18,5.14q-6.42,0-9.75-4.42T290.76,53.4V23.17H303V53.71q.09,6.81,4.53,6.81a6.28,6.28,0,0,0,6-3.62V23.17h12.29V69.83H314.35Z"/><path class="cls-2" d="M355.19,57.33a3.79,3.79,0,0,0-1.49-2.87,29.43,29.43,0,0,0-6.62-3.56q-7.54-3.06-10.37-6.34a12,12,0,0,1-2.82-8.15,13,13,0,0,1,4.42-10.11q4.41-4,11.71-4,7.67,0,12.29,4a13.33,13.33,0,0,1,4.61,10.65h-12.2q0-5.68-4.75-5.69a4.4,4.4,0,0,0-3.19,1.21,4.45,4.45,0,0,0-1.25,3.36,3.54,3.54,0,0,0,1.38,2.74,30.15,30.15,0,0,0,6.51,3.38q7.47,2.76,10.55,6.15a12.53,12.53,0,0,1,3.08,8.77,12.28,12.28,0,0,1-4.7,10.05q-4.69,3.8-12.33,3.8a19.63,19.63,0,0,1-9.06-2,15.22,15.22,0,0,1-6.14-5.58,14.32,14.32,0,0,1-2.23-7.72H344.2a7.34,7.34,0,0,0,1.48,4.78q1.41,1.61,4.6,1.6Q355.19,61.77,355.19,57.33Z"/><path class="cls-2" d="M388.83,11.7V23.17h6.25v9.15h-6.25V55.51a6.88,6.88,0,0,0,.75,3.8,3.41,3.41,0,0,0,2.91,1,11,11,0,0,0,2.89-.31l-.08,9.49a19,19,0,0,1-6.73,1.17q-11.82,0-11.95-13.56V32.32h-5.39V23.17h5.39V11.7Z"/><path class="cls-2" d="M401.76,11.1a6.31,6.31,0,0,1,1.82-4.66,7.35,7.35,0,0,1,9.66,0,6.34,6.34,0,0,1,1.81,4.66,6.46,6.46,0,0,1-1.79,4.66,7.3,7.3,0,0,1-9.71,0A6.46,6.46,0,0,1,401.76,11.1Zm12.81,58.73H402.33V23.17h12.24Z"/><path class="cls-2" d="M440.88,60.56q5.3,0,5.39-6.9h11.47Q457.65,61.3,453,66a16,16,0,0,1-11.9,4.7q-9,0-13.76-5.61t-4.83-16.52v-3.7q0-11,4.68-16.78t13.82-5.78q7.72,0,12.16,4.77t4.53,13.52H446.27a12.18,12.18,0,0,0-1.3-6,4.42,4.42,0,0,0-4.14-2.11,4.93,4.93,0,0,0-4.57,2.26c-.92,1.51-1.4,4.43-1.46,8.78v4.74a37.73,37.73,0,0,0,.56,8,6,6,0,0,0,1.85,3.32A5.71,5.71,0,0,0,440.88,60.56Z"/><path class="cls-3" d="M156.31,138.83V84.23h18.56q9.57,0,14.61,3.86t5,11.23a14.08,14.08,0,0,1-1.82,7.26,10.77,10.77,0,0,1-5.39,4.55,10.43,10.43,0,0,1,5.95,4.29,13.74,13.74,0,0,1,2.11,7.76q0,8.16-4.74,11.9t-14.25,3.75Zm13.27-31.92H176c3.53-.09,5.3-2,5.3-5.62,0-2.16-.44-3.7-1.31-4.62a5.33,5.33,0,0,0-4-1.38h-6.33Zm0,9.24v11.76h6.79a5.17,5.17,0,0,0,5.72-5.65q0-5.92-4.78-6.11Z"/><path class="cls-3" d="M226.48,104l-4-.35c-3.34,0-5.59,1.47-6.77,4.4v30.83H203.41V92.17h11.52l.34,5q2.89-5.91,8-5.91a8.59,8.59,0,0,1,3.36.56Z"/><path class="cls-3" d="M253.61,138.83a16.73,16.73,0,0,1-1-3.62,10.42,10.42,0,0,1-8.88,4.49,13.16,13.16,0,0,1-9.72-3.88,13.62,13.62,0,0,1-3.86-10q0-7.33,4.68-11.34c3.11-2.68,7.61-4,13.47-4.1H252v-3.75q0-3.15-1.08-4.44a3.85,3.85,0,0,0-3.15-1.3c-3,0-4.57,1.79-4.57,5.35H231a13.51,13.51,0,0,1,4.85-10.67,18,18,0,0,1,12.27-4.21q7.68,0,11.88,4t4.2,11.41v22a23,23,0,0,0,1.73,9.44v.73Zm-7.2-8.71a6.78,6.78,0,0,0,3.45-.82,5.78,5.78,0,0,0,2.11-1.94v-9.7H249a6.27,6.27,0,0,0-4.9,2,7.65,7.65,0,0,0-1.79,5.31Q242.35,130.13,246.41,130.12Z"/><path class="cls-3" d="M273,80.1a6.31,6.31,0,0,1,1.82-4.66,7.34,7.34,0,0,1,9.65,0,6.31,6.31,0,0,1,1.82,4.66,6.65,6.65,0,1,1-13.29,0Zm12.81,58.73H273.57V92.17h12.25Z"/><path class="cls-3" d="M306.43,92.17l.35,4.62a13,13,0,0,1,10.82-5.48q12,0,12.38,16.86v30.66H317.73V109.08q0-4-1.18-5.76c-.79-1.19-2.18-1.79-4.16-1.79-2.22,0-3.94,1.14-5.18,3.41v33.89H295V92.17Z"/><path class="cls-3" d="M352.23,128.7h18.46v10.13H337.74V131.2l18-28.85h-17.6V92.17h32.26v7.38Z"/><polygon class="cls-3" points="70 2.83 70 146.83 131 111.83 131 37.83 70 2.83"/><polygon class="cls-2" points="65 2.83 4 37.83 4 111.83 65 146.83 65 2.83"/><g class="cls-4"><path d="M87.3,94.57a2.1,2.1,0,0,1,1.82-1,2.16,2.16,0,0,1,1.08.29,2.12,2.12,0,0,1,.73,2.9,2.07,2.07,0,0,1-1.81,1,2.11,2.11,0,0,1-1.09-.3,2.11,2.11,0,0,1-.73-2.89Zm12.6,22.36a2.07,2.07,0,0,1-1.37.51,2.11,2.11,0,1,1,2.11-2A2.14,2.14,0,0,1,99.9,116.93Z"/><path d="M79,48.44l.21.05Z"/><path d="M90.38,58.09a2,2,0,0,1,.67-.66,2.11,2.11,0,0,1,1.12-.32,2.24,2.24,0,0,1,1.13.32,2.12,2.12,0,0,1-1.14,3.91A2,2,0,0,1,91,61,2.12,2.12,0,0,1,90.38,58.09ZM96.76,37.9a2.15,2.15,0,0,1-2.91.66l-.1-.07A2.11,2.11,0,1,1,97,36.32,2.09,2.09,0,0,1,96.76,37.9Z"/><path d="M113.53,49.5a2.09,2.09,0,0,1,1.78-1,2,2,0,0,1,1.12.33,2.07,2.07,0,0,1,.94,1.33,2.1,2.1,0,0,1-.28,1.58,2.14,2.14,0,0,1-2.91.65l-.1-.06A2.1,2.1,0,0,1,113.53,49.5Zm0,23.46a2.11,2.11,0,1,1,3.56,2.26,2.14,2.14,0,0,1-2.91.66l-.1-.07A2.1,2.1,0,0,1,113.53,73Zm0,26.31a2.11,2.11,0,0,1,2.9-.66,2.11,2.11,0,1,1-2.25,3.57l-.1-.06A2.1,2.1,0,0,1,113.53,99.27Z"/><path d="M103.18,108.94a6.12,6.12,0,0,0-10.72,4.73A19.62,19.62,0,0,1,87.13,115a4,4,0,0,1-2.22-1,10.77,10.77,0,0,0-4.15-1.84,37.61,37.61,0,0,0,8.58-12.84A6.11,6.11,0,0,0,92.25,88a6.05,6.05,0,0,0-3.13-.87,6.16,6.16,0,0,0-5.26,3,6.11,6.11,0,0,0,1.62,8.06c-4,9.22-9.21,13.08-12.56,14.69a1.49,1.49,0,0,0-.36.17,11,11,0,0,1-2.56.8v4a12.41,12.41,0,0,0,4.25-1.19c5.34-1.36,6.84-.35,8.4.71A8,8,0,0,0,86.92,119h.31a23.69,23.69,0,0,0,7-1.72A6.1,6.1,0,0,0,98.53,119h0a6.12,6.12,0,0,0,4.65-10.1ZM87.3,92.16a2.12,2.12,0,0,1,1.82-1,2.17,2.17,0,0,1,1.08.3,2.12,2.12,0,0,1,.73,2.9,2.09,2.09,0,0,1-1.81,1,2.21,2.21,0,0,1-1.09-.3,2.13,2.13,0,0,1-.73-2.9Zm12.6,22.36a2,2,0,0,1-1.37.51,2.11,2.11,0,0,1-1.38-3.71,2.11,2.11,0,0,1,3,.23,2.08,2.08,0,0,1-.23,3Z"/><path d="M79,46l.21.05Z"/><path d="M101,33a6.12,6.12,0,0,0-2.71-3.85A6.18,6.18,0,0,0,95,28.25a6.12,6.12,0,0,0-5,9.61,13.38,13.38,0,0,1-10,4.29,29.39,29.39,0,0,0-10-2.32v4A24.79,24.79,0,0,1,78.75,46h0a21.54,21.54,0,0,1,8.61,7,5.22,5.22,0,0,0-.38.54A6.14,6.14,0,0,0,88.89,62a6,6,0,0,0,3.27,1,6.13,6.13,0,0,0,3.28-11.31,6.23,6.23,0,0,0-4.67-.75,25.77,25.77,0,0,0-5.35-5.57,16.29,16.29,0,0,0,7.78-5.1,5.94,5.94,0,0,0,1.77.27A6.12,6.12,0,0,0,101,33ZM90.38,55.69a2.14,2.14,0,0,1,.67-.67,2.2,2.2,0,0,1,1.12-.31,2.12,2.12,0,1,1,0,4.23,2.12,2.12,0,0,1-1.78-3.25ZM96.76,35.5a2.14,2.14,0,0,1-2.91.65l-.1-.06a2.11,2.11,0,0,1,2.35-3.51A2.16,2.16,0,0,1,97,33.91,2.12,2.12,0,0,1,96.76,35.5Z"/><path d="M109.65,74a6,6,0,0,0,2.1,2.65l.29.19a6.12,6.12,0,1,0,6.53-10.35,6.18,6.18,0,0,0-3.26-.94l-.38,0a25.67,25.67,0,0,1,0-11.27c.11,0,.22,0,.34,0a6.12,6.12,0,1,0-4.15-1.63l.07.06a28.63,28.63,0,0,0,0,14.42,4.07,4.07,0,0,0-.43.4,5.1,5.1,0,0,0-.63.82,5.73,5.73,0,0,0-.71,1.58,15.21,15.21,0,0,0-6.83,2.73c-2,1.32-4,2.57-9.63,2.66a32.76,32.76,0,0,0-5.29-.11c-1.43,0-2.91.1-4.85,0-1.34-.07-2.11-.88-3.46-2.42-1.8-2.06-4.22-4.65-9.37-5v4c3.29.3,4.8,1.89,6.36,3.67s3.17,3.62,6.25,3.78a49.83,49.83,0,0,0,5.21,0,24.19,24.19,0,0,1,7.86.69c2.6.64,12.09,9.67,14.77,14.32a4.25,4.25,0,0,0-.31.43,6.1,6.1,0,0,0,1.61,8.25l.29.2a6.12,6.12,0,1,0,3.27-11.3,6,6,0,0,0-1.54.2c-2.56-4.19-8.66-10.46-13.19-13.79a18.42,18.42,0,0,0,4.21-2.19A11.33,11.33,0,0,1,109.65,74Zm3.88-26.92a2.11,2.11,0,0,1,2.9-.66A2.11,2.11,0,1,1,114.18,50l-.1-.06A2.1,2.1,0,0,1,113.53,47.1Zm0,23.46a2.09,2.09,0,0,1,1.78-1,2,2,0,0,1,1.12.33,2.08,2.08,0,0,1,.94,1.32,2.11,2.11,0,0,1-3.19,2.24l-.1-.06A2.1,2.1,0,0,1,113.53,70.56Zm0,26.3a2.11,2.11,0,1,1,3.56,2.26,2.15,2.15,0,0,1-2.91.66l-.1-.07A2.1,2.1,0,0,1,113.53,96.86Z"/></g><path class="cls-5" d="M103.18,111.94a6.12,6.12,0,0,0-10.72,4.73A19.62,19.62,0,0,1,87.13,118a4,4,0,0,1-2.22-1,10.77,10.77,0,0,0-4.15-1.84,37.61,37.61,0,0,0,8.58-12.84A6.11,6.11,0,0,0,92.25,91a6.05,6.05,0,0,0-3.13-.87,6.16,6.16,0,0,0-5.26,3,6.11,6.11,0,0,0,1.62,8.06c-4,9.22-9.21,13.08-12.56,14.69a1.49,1.49,0,0,0-.36.17,11,11,0,0,1-2.56.8v4a12.41,12.41,0,0,0,4.25-1.19c5.34-1.36,6.84-.35,8.4.71A8,8,0,0,0,86.92,122h.31a23.69,23.69,0,0,0,7-1.72A6.1,6.1,0,0,0,98.53,122h0a6.12,6.12,0,0,0,4.65-10.1ZM87.3,95.16a2.12,2.12,0,0,1,1.82-1,2.17,2.17,0,0,1,1.08.3,2.12,2.12,0,0,1,.73,2.9,2.09,2.09,0,0,1-1.81,1,2.21,2.21,0,0,1-1.09-.3,2.13,2.13,0,0,1-.73-2.9Zm12.6,22.36a2,2,0,0,1-1.37.51,2.11,2.11,0,0,1-1.38-3.71,2.11,2.11,0,0,1,3,.23,2.08,2.08,0,0,1-.23,3Z"/><path d="M79,48.44l.21.05Z"/><path class="cls-5" d="M101,36a6.12,6.12,0,1,0-11,4.82,13.36,13.36,0,0,1-10,4.3,28.93,28.93,0,0,0-10-2.32v4A25,25,0,0,1,78.75,49h0A21.57,21.57,0,0,1,87.37,56a6.42,6.42,0,0,0-.38.53,6.12,6.12,0,1,0,8.45-1.91,6.23,6.23,0,0,0-4.67-.75,26,26,0,0,0-5.35-5.57,16.34,16.34,0,0,0,7.78-5.09,6.27,6.27,0,0,0,1.77.26A6.11,6.11,0,0,0,101,36ZM90.38,58.69a2,2,0,0,1,.67-.66,2.11,2.11,0,0,1,1.12-.32,2.12,2.12,0,1,1,0,4.23A2,2,0,0,1,91,61.61,2.12,2.12,0,0,1,90.38,58.69ZM96.76,38.5a2.15,2.15,0,0,1-2.91.66l-.1-.07a2.11,2.11,0,1,1,3-.59Z"/><path class="cls-5" d="M109.65,77a6,6,0,0,0,2.1,2.65l.29.19a6.12,6.12,0,1,0,6.53-10.35,6.18,6.18,0,0,0-3.26-.94l-.38,0a25.67,25.67,0,0,1,0-11.27c.11,0,.22,0,.34,0a6.12,6.12,0,1,0-4.15-1.63l.07.06a28.63,28.63,0,0,0,0,14.42,4.07,4.07,0,0,0-.43.4,5.1,5.1,0,0,0-.63.82,5.73,5.73,0,0,0-.71,1.58,15.21,15.21,0,0,0-6.83,2.73c-2,1.32-4,2.57-9.63,2.66a32.76,32.76,0,0,0-5.29-.11c-1.43,0-2.91.1-4.85,0-1.34-.07-2.11-.88-3.46-2.42-1.8-2.06-4.22-4.65-9.37-5v4c3.29.3,4.8,1.89,6.36,3.67s3.17,3.62,6.25,3.78a49.83,49.83,0,0,0,5.21,0,24.19,24.19,0,0,1,7.86.69c2.6.64,12.09,9.67,14.77,14.32a4.25,4.25,0,0,0-.31.43,6.1,6.1,0,0,0,1.61,8.25l.29.2a6.12,6.12,0,1,0,3.27-11.3,6,6,0,0,0-1.54.2c-2.56-4.19-8.66-10.46-13.19-13.79a18.42,18.42,0,0,0,4.21-2.19A11.33,11.33,0,0,1,109.65,77Zm3.88-26.92a2.11,2.11,0,0,1,2.9-.66A2.11,2.11,0,1,1,114.18,53l-.1-.06A2.1,2.1,0,0,1,113.53,50.1Zm0,23.46a2.09,2.09,0,0,1,1.78-1,2,2,0,0,1,1.12.33,2.08,2.08,0,0,1,.94,1.32,2.11,2.11,0,0,1-3.19,2.24l-.1-.06A2.1,2.1,0,0,1,113.53,73.56Zm0,26.3a2.11,2.11,0,1,1,3.56,2.26,2.15,2.15,0,0,1-2.91.66l-.1-.07A2.1,2.1,0,0,1,113.53,99.86Z"/><path class="cls-6" d="M103.18,108.94a6.12,6.12,0,0,0-10.72,4.73A19.62,19.62,0,0,1,87.13,115a4,4,0,0,1-2.22-1,10.77,10.77,0,0,0-4.15-1.84,37.61,37.61,0,0,0,8.58-12.84A6.11,6.11,0,0,0,92.25,88a6.05,6.05,0,0,0-3.13-.87,6.16,6.16,0,0,0-5.26,3,6.11,6.11,0,0,0,1.62,8.06c-4,9.22-9.21,13.08-12.56,14.69a1.49,1.49,0,0,0-.36.17,11,11,0,0,1-2.56.8v4a12.41,12.41,0,0,0,4.25-1.19c5.34-1.36,6.84-.35,8.4.71A8,8,0,0,0,86.92,119h.31a23.69,23.69,0,0,0,7-1.72A6.1,6.1,0,0,0,98.53,119h0a6.12,6.12,0,0,0,4.65-10.1ZM87.3,92.16a2.12,2.12,0,0,1,1.82-1,2.17,2.17,0,0,1,1.08.3,2.12,2.12,0,0,1,.73,2.9,2.09,2.09,0,0,1-1.81,1,2.21,2.21,0,0,1-1.09-.3,2.13,2.13,0,0,1-.73-2.9Zm12.6,22.36a2,2,0,0,1-1.37.51,2.11,2.11,0,0,1-1.38-3.71,2.11,2.11,0,0,1,3,.23,2.08,2.08,0,0,1-.23,3Z"/><path class="cls-6" d="M79,46l.21.05Z"/><path class="cls-6" d="M101,33a6.12,6.12,0,0,0-2.71-3.85A6.18,6.18,0,0,0,95,28.25a6.12,6.12,0,0,0-5,9.61,13.38,13.38,0,0,1-10,4.29,29.39,29.39,0,0,0-10-2.32v4A24.79,24.79,0,0,1,78.75,46h0a21.54,21.54,0,0,1,8.61,7,5.22,5.22,0,0,0-.38.54A6.14,6.14,0,0,0,88.89,62a6,6,0,0,0,3.27,1,6.13,6.13,0,0,0,3.28-11.31,6.23,6.23,0,0,0-4.67-.75,25.77,25.77,0,0,0-5.35-5.57,16.29,16.29,0,0,0,7.78-5.1,5.94,5.94,0,0,0,1.77.27A6.12,6.12,0,0,0,101,33ZM90.38,55.69a2.14,2.14,0,0,1,.67-.67,2.2,2.2,0,0,1,1.12-.31,2.12,2.12,0,1,1,0,4.23,2.12,2.12,0,0,1-1.78-3.25ZM96.76,35.5a2.14,2.14,0,0,1-2.91.65l-.1-.06a2.11,2.11,0,0,1,2.35-3.51A2.16,2.16,0,0,1,97,33.91,2.12,2.12,0,0,1,96.76,35.5Z"/><path class="cls-6" d="M109.65,74a6,6,0,0,0,2.1,2.65l.29.19a6.12,6.12,0,1,0,6.53-10.35,6.18,6.18,0,0,0-3.26-.94l-.38,0a25.67,25.67,0,0,1,0-11.27c.11,0,.22,0,.34,0a6.12,6.12,0,1,0-4.15-1.63l.07.06a28.63,28.63,0,0,0,0,14.42,4.07,4.07,0,0,0-.43.4,5.1,5.1,0,0,0-.63.82,5.73,5.73,0,0,0-.71,1.58,15.21,15.21,0,0,0-6.83,2.73c-2,1.32-4,2.57-9.63,2.66a32.76,32.76,0,0,0-5.29-.11c-1.43,0-2.91.1-4.85,0-1.34-.07-2.11-.88-3.46-2.42-1.8-2.06-4.22-4.65-9.37-5v4c3.29.3,4.8,1.89,6.36,3.67s3.17,3.62,6.25,3.78a49.83,49.83,0,0,0,5.21,0,24.19,24.19,0,0,1,7.86.69c2.6.64,12.09,9.67,14.77,14.32a4.25,4.25,0,0,0-.31.43,6.1,6.1,0,0,0,1.61,8.25l.29.2a6.12,6.12,0,1,0,3.27-11.3,6,6,0,0,0-1.54.2c-2.56-4.19-8.66-10.46-13.19-13.79a18.42,18.42,0,0,0,4.21-2.19A11.33,11.33,0,0,1,109.65,74Zm3.88-26.92a2.11,2.11,0,0,1,2.9-.66A2.11,2.11,0,1,1,114.18,50l-.1-.06A2.1,2.1,0,0,1,113.53,47.1Zm0,23.46a2.09,2.09,0,0,1,1.78-1,2,2,0,0,1,1.12.33,2.08,2.08,0,0,1,.94,1.32,2.11,2.11,0,0,1-3.19,2.24l-.1-.06A2.1,2.1,0,0,1,113.53,70.56Zm0,26.3a2.11,2.11,0,1,1,3.56,2.26,2.15,2.15,0,0,1-2.91.66l-.1-.07A2.1,2.1,0,0,1,113.53,96.86Z"/><rect class="cls-6" x="54" y="19.83" width="6" height="4"/><rect class="cls-6" x="54" y="26.83" width="6" height="4"/><rect class="cls-6" x="54" y="33.83" width="6" height="4"/><rect class="cls-6" x="54" y="40.83" width="6" height="4"/><rect class="cls-6" x="54" y="47.83" width="6" height="4"/><rect class="cls-6" x="54" y="54.83" width="6" height="4"/><rect class="cls-6" x="54" y="61.83" width="6" height="4"/><rect class="cls-6" x="54" y="68.83" width="6" height="4"/><rect class="cls-7" x="54" y="75.83" width="6" height="4"/><rect class="cls-7" x="54" y="82.83" width="6" height="4"/><rect class="cls-7" x="54" y="89.83" width="6" height="4"/><rect class="cls-7" x="54" y="96.83" width="6" height="4"/><rect class="cls-7" x="54" y="103.83" width="6" height="4"/><rect class="cls-7" x="54" y="110.83" width="6" height="4"/><rect class="cls-7" x="54" y="117.83" width="6" height="4"/><rect class="cls-7" x="54" y="124.83" width="6" height="4"/><rect class="cls-6" x="45" y="33.83" width="6" height="4"/><rect class="cls-6" x="45" y="40.83" width="6" height="4"/><rect class="cls-6" x="45" y="47.83" width="6" height="4"/><rect class="cls-6" x="45" y="54.83" width="6" height="4"/><rect class="cls-6" x="45" y="61.83" width="6" height="4"/><rect class="cls-6" x="45" y="68.83" width="6" height="4"/><rect class="cls-7" x="45" y="75.83" width="6" height="4"/><rect class="cls-7" x="45" y="82.83" width="6" height="4"/><rect class="cls-7" x="45" y="89.83" width="6" height="4"/><rect class="cls-7" x="45" y="96.83" width="6" height="4"/><rect class="cls-7" x="45" y="103.83" width="6" height="4"/><rect class="cls-7" x="45" y="110.83" width="6" height="4"/><rect class="cls-6" x="36" y="61.83" width="6" height="4"/><rect class="cls-6" x="36" y="68.83" width="6" height="4"/><rect class="cls-7" x="36" y="75.83" width="6" height="4"/><rect class="cls-7" x="36" y="82.83" width="6" height="4"/><rect class="cls-6" x="27" y="47.83" width="6" height="4"/><rect class="cls-6" x="27" y="54.83" width="6" height="4"/><rect class="cls-6" x="27" y="61.83" width="6" height="4"/><rect class="cls-6" x="27" y="68.83" width="6" height="4"/><rect class="cls-7" x="27" y="75.83" width="6" height="4"/><rect class="cls-7" x="27" y="82.83" width="6" height="4"/><rect class="cls-7" x="27" y="89.83" width="6" height="4"/><rect class="cls-7" x="27" y="96.83" width="6" height="4"/><rect class="cls-6" x="18" y="68.83" width="6" height="4"/><rect class="cls-7" x="18" y="75.83" width="6" height="4"/><rect class="cls-6" x="9" y="61.83" width="6" height="4"/><rect class="cls-6" x="9" y="68.83" width="6" height="4"/><rect class="cls-7" x="9" y="75.83" width="6" height="4"/><rect class="cls-7" x="9" y="82.83" width="6" height="4"/></g></g></svg>