<svg id="Layer_1" data-name="Layer 1" xmlns="http://www.w3.org/2000/svg" viewBox="0 0 70 30"><defs><style>.cls-1{fill:#4e7ec2;}.cls-2{fill:#eb743b;}</style></defs><polygon class="cls-1" points="14 1 2 8 2 22 14 29 14 1"/><polygon class="cls-2" points="15 1 27 8 27 22 15 29 15 1"/><path class="cls-1" d="M43.54,21.23H35.89L34.5,25H29.58L37.4,5.24H42L49.91,25H45Zm-6.32-3.59h5L39.69,11Z"/><path class="cls-2" d="M51.57,25V5.24H59.2a11,11,0,0,1,6.08,1.4,4.58,4.58,0,0,1,2.12,4.07,4.5,4.5,0,0,1-.78,2.62A4.37,4.37,0,0,1,64.41,15,4.4,4.4,0,0,1,67,16.6a4.51,4.51,0,0,1,.88,2.74,4.83,4.83,0,0,1-2,4.3A10.48,10.48,0,0,1,60,25Zm4.92-11.54h3q3,0,3-2.07a1.91,1.91,0,0,0-.73-1.7,3.89,3.89,0,0,0-2.19-.5H56.49Zm0,3.35v4.24H60a3.74,3.74,0,0,0,2.2-.56A1.76,1.76,0,0,0,62.93,19c0-1.42-.86-2.15-2.59-2.19Z"/></svg>