<svg id="Layer_1" data-name="Layer 1" xmlns="http://www.w3.org/2000/svg" viewBox="0 0 200 190"><defs><style>.cls-1{fill:#4e7ec2;}.cls-2{fill:#eb743b;}.cls-3{fill:#fffedb;}.cls-4{fill:#8db2e3;}</style></defs><path class="cls-1" d="M22.72,135.3H12.3L10.39,142H1.82l11.66-35.3h8L33.3,142H24.69Zm-8.54-6.45h6.64l-3.37-11.39Z"/><path class="cls-1" d="M47.52,136Q51,136,51,131.55h7.41a11.09,11.09,0,0,1-3,8,10.33,10.33,0,0,1-7.69,3q-5.84,0-8.89-3.63t-3.13-10.67v-2.4q0-7.11,3-10.84t8.93-3.74a10.22,10.22,0,0,1,7.86,3.08c1.92,2.06,2.89,5,2.93,8.74H51a7.9,7.9,0,0,0-.84-3.9,2.87,2.87,0,0,0-2.68-1.37,3.18,3.18,0,0,0-3,1.47c-.6,1-.91,2.86-.95,5.67V128a24.79,24.79,0,0,0,.36,5.14,3.89,3.89,0,0,0,1.2,2.14A3.64,3.64,0,0,0,47.52,136Z"/><path class="cls-1" d="M62,125.94q0-6.85,3.23-10.75a11,11,0,0,1,9-3.91,11,11,0,0,1,9,3.91q3.24,3.9,3.24,10.81v1.92q0,6.88-3.21,10.76a11,11,0,0,1-9,3.88,11.07,11.07,0,0,1-9-3.89Q62,134.79,62,127.87Zm7.92,2q0,8.08,4.32,8.09,4,0,4.29-6.75l0-3.32a12.55,12.55,0,0,0-1.15-6.11,3.56,3.56,0,0,0-3.23-2,3.49,3.49,0,0,0-3.14,2,12.84,12.84,0,0,0-1.12,6.11Z"/><path class="cls-1" d="M106.11,139.24a7.77,7.77,0,0,1-6.58,3.32,7.39,7.39,0,0,1-6.3-2.86c-1.43-1.9-2.14-4.68-2.14-8.32V111.84H99v19.74c0,2.93,1,4.4,2.92,4.4a4.07,4.07,0,0,0,3.91-2.34v-21.8h7.94V142h-7.42Z"/><path class="cls-1" d="M132.73,133.92a2.48,2.48,0,0,0-1-1.86,19.46,19.46,0,0,0-4.28-2.3c-3.25-1.32-5.49-2.68-6.7-4.09A7.79,7.79,0,0,1,119,120.4a8.41,8.41,0,0,1,2.86-6.54,10.86,10.86,0,0,1,7.57-2.58,11.77,11.77,0,0,1,7.94,2.57,8.6,8.6,0,0,1,3,6.88h-7.89q0-3.67-3.06-3.68a2.82,2.82,0,0,0-2.06.78,2.89,2.89,0,0,0-.81,2.18,2.29,2.29,0,0,0,.89,1.77,19.68,19.68,0,0,0,4.21,2.19c3.21,1.19,5.49,2.51,6.81,4a8.1,8.1,0,0,1,2,5.67,7.94,7.94,0,0,1-3,6.49,12.28,12.28,0,0,1-8,2.46,12.74,12.74,0,0,1-5.86-1.3,9.84,9.84,0,0,1-4-3.61,9.25,9.25,0,0,1-1.44-5h7.5a4.83,4.83,0,0,0,1,3.1,3.81,3.81,0,0,0,3,1Q132.73,136.79,132.73,133.92Z"/><path class="cls-1" d="M154.47,104.43v7.41h4v5.91h-4v15a4.49,4.49,0,0,0,.49,2.46,2.22,2.22,0,0,0,1.88.67,7.36,7.36,0,0,0,1.87-.2l-.06,6.13a12,12,0,0,1-4.34.76q-7.65,0-7.73-8.77v-16H143.1v-5.91h3.48v-7.41Z"/><path class="cls-1" d="M162.83,104a4.08,4.08,0,0,1,1.18-3,4.71,4.71,0,0,1,6.24,0,4.07,4.07,0,0,1,1.17,3,4.18,4.18,0,0,1-1.16,3,4.7,4.7,0,0,1-6.27,0A4.18,4.18,0,0,1,162.83,104Zm8.28,38H163.2V111.84h7.91Z"/><path class="cls-1" d="M188.12,136q3.42,0,3.48-4.46H199a11.08,11.08,0,0,1-3,8,10.35,10.35,0,0,1-7.7,3q-5.82,0-8.89-3.63t-3.12-10.67v-2.4q0-7.11,3-10.84t8.94-3.74a10.25,10.25,0,0,1,7.86,3.08c1.91,2.06,2.89,5,2.92,8.74H191.6a7.9,7.9,0,0,0-.84-3.9,2.85,2.85,0,0,0-2.67-1.37,3.19,3.19,0,0,0-3,1.47c-.59,1-.91,2.86-.94,5.67V128a24.79,24.79,0,0,0,.36,5.14,3.83,3.83,0,0,0,1.2,2.14A3.6,3.6,0,0,0,188.12,136Z"/><path class="cls-2" d="M32,188V152.7H44c4.12,0,7.27.84,9.44,2.5a8.61,8.61,0,0,1,3.26,7.26,9.07,9.07,0,0,1-1.19,4.7A6.91,6.91,0,0,1,52,170.09a6.74,6.74,0,0,1,3.85,2.78,8.81,8.81,0,0,1,1.36,5c0,3.52-1,6.08-3.06,7.7S49,188,44.92,188Zm8.58-20.63h4.12c2.28-.06,3.42-1.28,3.42-3.64a4.23,4.23,0,0,0-.85-3,3.4,3.4,0,0,0-2.6-.9H40.53Zm0,6v7.6h4.39a3.35,3.35,0,0,0,3.7-3.65q0-3.82-3.09-3.95Z"/><path class="cls-2" d="M77.31,165.45l-2.62-.22a4.3,4.3,0,0,0-4.38,2.84V188H62.4V157.84h7.44l.22,3.26c1.25-2.54,3-3.82,5.16-3.82a5.33,5.33,0,0,1,2.17.37Z"/><path class="cls-2" d="M94.84,188a11.67,11.67,0,0,1-.67-2.34,6.74,6.74,0,0,1-5.74,2.9,8.5,8.5,0,0,1-6.28-2.51,8.8,8.8,0,0,1-2.5-6.5,9.14,9.14,0,0,1,3-7.33c2-1.72,4.92-2.61,8.71-2.64h2.39v-2.43a4.57,4.57,0,0,0-.69-2.87,2.51,2.51,0,0,0-2-.84c-2,0-3,1.16-3,3.46H80.21a8.7,8.7,0,0,1,3.14-6.9,11.68,11.68,0,0,1,7.93-2.72q4.95,0,7.68,2.58t2.71,7.37v14.19a14.86,14.86,0,0,0,1.12,6.11V188Zm-4.65-5.63a4.43,4.43,0,0,0,2.23-.53,3.69,3.69,0,0,0,1.36-1.25v-6.28H91.89a4,4,0,0,0-3.16,1.29A4.86,4.86,0,0,0,87.57,179C87.57,181.25,88.44,182.37,90.19,182.37Z"/><path class="cls-2" d="M107.39,150a4.07,4.07,0,0,1,1.17-3,4.71,4.71,0,0,1,6.24,0,4.07,4.07,0,0,1,1.17,3,4.29,4.29,0,1,1-8.58,0Zm8.28,38h-7.92V157.84h7.92Z"/><path class="cls-2" d="M129,157.84l.22,3a8.38,8.38,0,0,1,7-3.54q7.77,0,8,10.9V188h-7.92V168.77a6.94,6.94,0,0,0-.76-3.72,3,3,0,0,0-2.7-1.16,3.67,3.67,0,0,0-3.34,2.2V188h-7.92V157.84Z"/><path class="cls-2" d="M158.59,181.45h11.93V188h-21.3v-4.93l11.66-18.65H149.5v-6.58h20.85v4.77Z"/><polygon class="cls-2" points="102 3 102 99 143 75 143 27 102 3"/><polygon class="cls-1" points="99 3 58 27 58 75 99 99 99 3"/><rect class="cls-3" x="90" y="17" width="6" height="4"/><rect class="cls-3" x="90" y="24" width="6" height="4"/><rect class="cls-3" x="90" y="31" width="6" height="4"/><rect class="cls-3" x="90" y="38" width="6" height="4"/><rect class="cls-3" x="90" y="45" width="6" height="4"/><rect class="cls-4" x="90" y="52" width="6" height="4"/><rect class="cls-4" x="90" y="59" width="6" height="4"/><rect class="cls-4" x="90" y="66" width="6" height="4"/><rect class="cls-4" x="90" y="73" width="6" height="4"/><rect class="cls-4" x="90" y="80" width="6" height="4"/><rect class="cls-3" x="81" y="31" width="6" height="4"/><rect class="cls-3" x="81" y="38" width="6" height="4"/><rect class="cls-3" x="81" y="45" width="6" height="4"/><rect class="cls-4" x="81" y="52" width="6" height="4"/><rect class="cls-4" x="81" y="59" width="6" height="4"/><rect class="cls-4" x="81" y="66" width="6" height="4"/><rect class="cls-3" x="72" y="45" width="6" height="4"/><rect class="cls-4" x="72" y="52" width="6" height="4"/><rect class="cls-3" x="63" y="38" width="6" height="4"/><rect class="cls-3" x="63" y="45" width="6" height="4"/><rect class="cls-4" x="63" y="52" width="6" height="4"/><rect class="cls-4" x="63" y="59" width="6" height="4"/><path class="cls-3" d="M134.28,59.09a6.75,6.75,0,0,0-7.67-2.86A18.09,18.09,0,0,0,118,50.6a28.62,28.62,0,0,0,5.91-6.16,6.91,6.91,0,0,0,5.17-.83,6.77,6.77,0,1,0-9.34-2.11,6.27,6.27,0,0,0,.42.59,23.88,23.88,0,0,1-9.52,7.79h0A18.45,18.45,0,0,1,102,52v5c4,0,5.93-1.12,10-2.9a14.78,14.78,0,0,1,11,4.75,6.76,6.76,0,1,0,12.16,5.32A6.64,6.64,0,0,0,134.28,59.09ZM124.06,35.67a2.57,2.57,0,0,1,1.4-.41,2.62,2.62,0,1,1,0,5.24,2.61,2.61,0,0,1-2.22-1.21A2.63,2.63,0,0,1,124.06,35.67Zm7.06,27.6A2.61,2.61,0,0,1,130,64.91a2.56,2.56,0,0,1-1.39.41,2.62,2.62,0,0,1-1.52-4.75l.12-.07a2.65,2.65,0,0,1,3.6.8A2.59,2.59,0,0,1,131.12,63.27Z"/></svg>