<svg xmlns="http://www.w3.org/2000/svg" viewBox="0 0 310 290"><defs><style>.cls-1{isolation:isolate;}.cls-2{fill:#4e7ec2;}.cls-3{fill:#eb743b;}.cls-4{mix-blend-mode:multiply;opacity:0.07;}.cls-5{fill:#d3562c;}.cls-6{fill:#fffedb;}.cls-7{fill:#8db2e3;}</style></defs><g class="cls-1"><g id="Layer_1" data-name="Layer 1"><path class="cls-2" d="M33.9,206.1H17.78l-3,10.36H1.56l18-54.61H32l18.23,54.61H37Zm-13.22-10H31l-5.21-17.62Z"/><path class="cls-2" d="M72.26,207.19q5.31,0,5.4-6.9H89.13c-.06,5.08-1.63,9.2-4.7,12.33a16,16,0,0,1-11.91,4.7q-9,0-13.75-5.61T53.94,195.2v-3.71q0-11,4.68-16.78t13.82-5.78q7.71,0,12.16,4.77t4.53,13.52H77.66a12.18,12.18,0,0,0-1.3-6,4.42,4.42,0,0,0-4.14-2.11,4.92,4.92,0,0,0-4.57,2.26q-1.38,2.26-1.47,8.78v4.74a37.48,37.48,0,0,0,.57,8,6,6,0,0,0,1.85,3.32A5.66,5.66,0,0,0,72.26,207.19Z"/><path class="cls-2" d="M94.6,191.62q0-10.6,5-16.65t13.85-6q8.92,0,13.93,6t5,16.73v3q0,10.65-5,16.65t-13.89,6q-9,0-14-6t-5-16.71Zm12.25,3.06q0,12.51,6.68,12.51,6.16,0,6.64-10.44l0-5.13c0-4.26-.59-7.41-1.77-9.47a5.52,5.52,0,0,0-5-3.08,5.37,5.37,0,0,0-4.85,3.08c-1.17,2.06-1.75,5.21-1.75,9.47Z"/><path class="cls-2" d="M162.91,212.19a12,12,0,0,1-10.18,5.13q-6.42,0-9.74-4.42T139.67,200V169.8h12.2v30.53q.09,6.81,4.53,6.81a6.31,6.31,0,0,0,6-3.62V169.8h12.29v46.66H163.25Z"/><path class="cls-2" d="M204.09,204a3.82,3.82,0,0,0-1.48-2.87,29.77,29.77,0,0,0-6.62-3.55c-5-2-8.49-4.16-10.38-6.34a12.06,12.06,0,0,1-2.82-8.15,13,13,0,0,1,4.42-10.12q4.42-4,11.71-4,7.68,0,12.29,4a13.36,13.36,0,0,1,4.61,10.65h-12.2q0-5.69-4.74-5.69a4.41,4.41,0,0,0-3.2,1.21,4.47,4.47,0,0,0-1.25,3.36,3.53,3.53,0,0,0,1.38,2.74,30.4,30.4,0,0,0,6.52,3.39q7.46,2.76,10.54,6.14a12.56,12.56,0,0,1,3.08,8.78,12.25,12.25,0,0,1-4.7,10q-4.69,3.79-12.33,3.8a19.63,19.63,0,0,1-9.06-2,15.14,15.14,0,0,1-6.14-5.58A14.39,14.39,0,0,1,181.5,202h11.6a7.39,7.39,0,0,0,1.48,4.79q1.41,1.59,4.6,1.59Q204.08,208.39,204.09,204Z"/><path class="cls-2" d="M237.73,158.33V169.8H244v9.14h-6.25v23.19a6.85,6.85,0,0,0,.75,3.8,3.43,3.43,0,0,0,2.91,1,11.43,11.43,0,0,0,2.89-.3l-.08,9.49a19.18,19.18,0,0,1-6.73,1.16q-11.82,0-11.94-13.56V178.94h-5.4V169.8h5.4V158.33Z"/><path class="cls-2" d="M250.67,157.72a6.28,6.28,0,0,1,1.81-4.65,7.32,7.32,0,0,1,9.66,0,6.32,6.32,0,0,1,1.81,4.65,6.64,6.64,0,1,1-13.28,0Zm12.8,58.74H251.23V169.8h12.24Z"/><path class="cls-2" d="M289.78,207.19q5.31,0,5.39-6.9h11.47c-.06,5.08-1.62,9.2-4.7,12.33a16,16,0,0,1-11.9,4.7q-9,0-13.76-5.61t-4.83-16.51v-3.71q0-11,4.68-16.78T290,168.93q7.73,0,12.16,4.77t4.53,13.52H295.17a12.3,12.3,0,0,0-1.29-6,4.44,4.44,0,0,0-4.14-2.11,4.91,4.91,0,0,0-4.57,2.26q-1.38,2.26-1.47,8.78v4.74a38.37,38.37,0,0,0,.56,8,6,6,0,0,0,1.85,3.32A5.71,5.71,0,0,0,289.78,207.19Z"/><path class="cls-3" d="M48.18,285.46V230.85H66.74q9.57,0,14.6,3.87c3.36,2.57,5,6.32,5,11.22a14,14,0,0,1-1.83,7.27,10.72,10.72,0,0,1-5.39,4.54,10.45,10.45,0,0,1,6,4.29,13.73,13.73,0,0,1,2.1,7.76q0,8.16-4.73,11.91t-14.25,3.75Zm13.26-31.92h6.38c3.53-.1,5.3-2,5.3-5.63,0-2.16-.44-3.69-1.32-4.62a5.32,5.32,0,0,0-4-1.38H61.44Zm0,9.23v11.77h6.8A5.69,5.69,0,0,0,72.48,273,5.62,5.62,0,0,0,74,268.89q0-5.92-4.78-6.12Z"/><path class="cls-3" d="M118.35,250.57l-4-.34q-5,0-6.77,4.39v30.84H95.28V238.8h11.51l.35,5q2.88-5.91,8-5.91a8.39,8.39,0,0,1,3.36.57Z"/><path class="cls-3" d="M145.47,285.46a17.17,17.17,0,0,1-1-3.63,10.42,10.42,0,0,1-8.88,4.49,13.14,13.14,0,0,1-9.73-3.88A13.66,13.66,0,0,1,122,272.39q0-7.33,4.68-11.34t13.48-4.1h3.71V253.2q0-3.15-1.08-4.44a3.88,3.88,0,0,0-3.15-1.3c-3.05,0-4.57,1.79-4.57,5.35H122.83a13.49,13.49,0,0,1,4.86-10.67A18.06,18.06,0,0,1,140,237.93q7.68,0,11.88,4T156,253.33v21.95a23,23,0,0,0,1.72,9.44v.74Zm-7.2-8.71a6.88,6.88,0,0,0,3.45-.82,5.91,5.91,0,0,0,2.12-1.94v-9.71H140.9a6.26,6.26,0,0,0-4.89,2,7.62,7.62,0,0,0-1.79,5.3Q134.22,276.75,138.27,276.75Z"/><path class="cls-3" d="M164.88,226.72a6.28,6.28,0,0,1,1.81-4.65,7.32,7.32,0,0,1,9.66,0,6.28,6.28,0,0,1,1.81,4.65,6.64,6.64,0,1,1-13.28,0Zm12.81,58.74H165.44V238.8h12.25Z"/><path class="cls-3" d="M198.3,238.8l.35,4.61a12.94,12.94,0,0,1,10.82-5.48q12,0,12.38,16.87v30.66H209.6V255.7q0-4-1.19-5.75c-.79-1.2-2.17-1.79-4.16-1.79-2.21,0-3.94,1.13-5.17,3.4v33.9H186.83V238.8Z"/><path class="cls-3" d="M244.1,275.32h18.46v10.14H229.61v-7.64l18-28.85H230V238.8H262.3v7.37Z"/><polygon class="cls-3" points="157 2.46 157 146.46 218 111.46 218 37.46 157 2.46"/><polygon class="cls-2" points="152 2.46 91 37.46 91 111.46 152 146.46 152 2.46"/><g class="cls-4"><path d="M174.3,94.19a2.12,2.12,0,0,1,1.82-1,2.07,2.07,0,0,1,1.08.3,2.12,2.12,0,0,1,.73,2.9,2.09,2.09,0,0,1-1.81,1,2.21,2.21,0,0,1-1.09-.3,2.11,2.11,0,0,1-1-1.3A2.09,2.09,0,0,1,174.3,94.19Zm12.6,22.36a2.07,2.07,0,0,1-1.37.51,2.11,2.11,0,0,1-1.38-3.71,2.08,2.08,0,0,1,1.38-.52,2.13,2.13,0,0,1,2.11,2.28A2.14,2.14,0,0,1,186.9,116.55Z"/><path d="M166,48.07l.21,0Z"/><path d="M177.38,57.71a2.11,2.11,0,0,1,.67-.66,2.2,2.2,0,0,1,1.12-.31,2.11,2.11,0,1,1,0,4.22,2.11,2.11,0,0,1-1.78-3.25Zm6.38-20.18a2.14,2.14,0,0,1-2.91.65l-.1-.06a2.11,2.11,0,0,1,2.35-3.51,2.16,2.16,0,0,1,.94,1.33A2.12,2.12,0,0,1,183.76,37.53Z"/><path d="M200.53,49.12a2.11,2.11,0,1,1,3.56,2.26,2.14,2.14,0,0,1-2.91.66l-.1-.07A2.1,2.1,0,0,1,200.53,49.12Zm0,23.47a2.11,2.11,0,0,1,2.9-.66,2.11,2.11,0,1,1-2.25,3.57l-.1-.06A2.1,2.1,0,0,1,200.53,72.59Zm0,26.3a2.09,2.09,0,0,1,1.78-1,2,2,0,0,1,1.12.33,2.07,2.07,0,0,1,.94,1.33,2.1,2.1,0,0,1-.28,1.58,2.14,2.14,0,0,1-2.91.65l-.1-.06A2.1,2.1,0,0,1,200.53,98.89Z"/><path d="M190.18,108.56a6.12,6.12,0,0,0-10.72,4.74,20,20,0,0,1-5.33,1.33,4.11,4.11,0,0,1-2.22-1,10.63,10.63,0,0,0-4.15-1.85A37.66,37.66,0,0,0,176.34,99a6.12,6.12,0,0,0,2.91-11.37,6,6,0,0,0-3.13-.86,6.15,6.15,0,0,0-5.26,3,6.13,6.13,0,0,0,1.62,8.07c-4,9.21-9.21,13.08-12.56,14.68a2,2,0,0,0-.36.17,11.77,11.77,0,0,1-2.56.81v4a12.57,12.57,0,0,0,4.25-1.2c5.34-1.35,6.84-.35,8.4.71a7.86,7.86,0,0,0,4.27,1.66h.31a23.69,23.69,0,0,0,7-1.72,6.14,6.14,0,0,0,4.28,1.75h0a6.13,6.13,0,0,0,4.65-10.11ZM174.3,91.79a2.11,2.11,0,0,1,1.82-1,2.17,2.17,0,0,1,1.08.3,2.12,2.12,0,0,1,.73,2.9,2.07,2.07,0,0,1-1.81,1,2.11,2.11,0,0,1-2.05-1.59A2.08,2.08,0,0,1,174.3,91.79Zm12.6,22.36a2.07,2.07,0,0,1-1.37.51,2.11,2.11,0,1,1,2.11-2A2.14,2.14,0,0,1,186.9,114.15Z"/><path d="M166,45.66l.21.05Z"/><path d="M188,32.66a6.12,6.12,0,1,0-11,4.82A13.34,13.34,0,0,1,167,41.77a29.12,29.12,0,0,0-10-2.31v4a25,25,0,0,1,8.75,2.14h0a21.63,21.63,0,0,1,8.61,7c-.14.18-.26.36-.38.54a6.12,6.12,0,1,0,8.45-1.91,6.23,6.23,0,0,0-4.67-.75,25.77,25.77,0,0,0-5.35-5.57,16.34,16.34,0,0,0,7.78-5.09,6.27,6.27,0,0,0,1.77.26,6.12,6.12,0,0,0,6-7.45ZM177.38,55.31a2,2,0,0,1,.67-.66,2.11,2.11,0,0,1,1.12-.32,2.12,2.12,0,1,1,0,4.23,2,2,0,0,1-1.12-.33A2.12,2.12,0,0,1,177.38,55.31Zm6.38-20.19a2.14,2.14,0,0,1-2.91.65l-.1-.06A2.11,2.11,0,0,1,182,31.88a2,2,0,0,1,1.12.33,2.1,2.1,0,0,1,.66,2.91Z"/><path d="M196.65,73.64a5.94,5.94,0,0,0,2.1,2.65l.29.2a6.12,6.12,0,1,0,3.27-11.3l-.38,0A25.63,25.63,0,0,1,202,54l.34,0a6.12,6.12,0,0,0,3.26-11.3,6.18,6.18,0,0,0-3.26-.94,6.12,6.12,0,0,0-4.15,10.61l.07.06a28.63,28.63,0,0,0,0,14.42,4.07,4.07,0,0,0-.43.4,5.58,5.58,0,0,0-.63.82,6,6,0,0,0-.71,1.58,15.21,15.21,0,0,0-6.83,2.73c-2,1.33-4,2.57-9.63,2.67a32.82,32.82,0,0,0-5.29-.12c-1.43,0-2.91.11-4.85,0-1.34-.07-2.11-.88-3.46-2.42-1.8-2.06-4.22-4.65-9.37-5v4c3.29.3,4.8,1.88,6.36,3.66s3.17,3.62,6.25,3.79c2.12.11,3.76,0,5.21,0a24.43,24.43,0,0,1,7.86.68c2.6.64,12.09,9.67,14.77,14.32a4.37,4.37,0,0,0-.31.44,6.1,6.1,0,0,0,1.61,8.25l.29.19a6.12,6.12,0,1,0,3.27-11.29,6,6,0,0,0-1.54.19c-2.56-4.18-8.66-10.45-13.19-13.79a18,18,0,0,0,4.21-2.19A11.33,11.33,0,0,1,196.65,73.64Zm3.88-26.92a2.11,2.11,0,0,1,2.9-.66,2.11,2.11,0,1,1-2.25,3.57l-.1-.06A2.1,2.1,0,0,1,200.53,46.72Zm0,23.46a2.09,2.09,0,0,1,1.78-1,2,2,0,0,1,1.12.33,2.07,2.07,0,0,1,.94,1.33,2.1,2.1,0,0,1-.28,1.58,2.14,2.14,0,0,1-2.91.65l-.1-.06A2.1,2.1,0,0,1,200.53,70.18Zm0,26.31a2.11,2.11,0,0,1,2.9-.66,2.11,2.11,0,0,1,.66,2.92,2.14,2.14,0,0,1-2.91.65l-.1-.06A2.1,2.1,0,0,1,200.53,96.49Z"/></g><path class="cls-5" d="M190.18,111.56a6.12,6.12,0,0,0-10.72,4.74,20,20,0,0,1-5.33,1.33,4.11,4.11,0,0,1-2.22-1,10.63,10.63,0,0,0-4.15-1.85A37.66,37.66,0,0,0,176.34,102a6.12,6.12,0,0,0,2.91-11.37,6,6,0,0,0-3.13-.86,6.15,6.15,0,0,0-5.26,3,6.13,6.13,0,0,0,1.62,8.07c-4,9.21-9.21,13.08-12.56,14.68a2,2,0,0,0-.36.17,11.77,11.77,0,0,1-2.56.81v4a12.57,12.57,0,0,0,4.25-1.2c5.34-1.35,6.84-.35,8.4.71a7.86,7.86,0,0,0,4.27,1.66h.31a23.69,23.69,0,0,0,7-1.72,6.14,6.14,0,0,0,4.28,1.75h0a6.13,6.13,0,0,0,4.65-10.11ZM174.3,94.79a2.11,2.11,0,0,1,1.82-1,2.17,2.17,0,0,1,1.08.3,2.12,2.12,0,0,1,.73,2.9,2.07,2.07,0,0,1-1.81,1,2.11,2.11,0,0,1-2.05-1.59A2.08,2.08,0,0,1,174.3,94.79Zm12.6,22.36a2.07,2.07,0,0,1-1.37.51,2.11,2.11,0,1,1,2.11-2A2.14,2.14,0,0,1,186.9,117.15Z"/><path d="M166,48.07l.21,0Z"/><path class="cls-5" d="M188,35.67a6.12,6.12,0,1,0-11,4.82A13.38,13.38,0,0,1,167,44.78a28.93,28.93,0,0,0-10-2.32v4a24.75,24.75,0,0,1,8.75,2.13h0a21.54,21.54,0,0,1,8.61,7,5.22,5.22,0,0,0-.38.54,6.12,6.12,0,1,0,8.45-1.91,6.24,6.24,0,0,0-4.67-.76A26,26,0,0,0,172.42,48a16.29,16.29,0,0,0,7.78-5.1,6.28,6.28,0,0,0,1.77.27,6.12,6.12,0,0,0,6-7.45ZM177.38,58.31a2.13,2.13,0,0,1,1.79-1,2.16,2.16,0,0,1,1.13.33,2.13,2.13,0,0,1,.66,2.92,2.15,2.15,0,0,1-1.8,1,2.11,2.11,0,0,1-1.78-3.25Zm6.38-20.19a2.13,2.13,0,0,1-2.91.66l-.1-.06A2.11,2.11,0,1,1,184,36.54,2.09,2.09,0,0,1,183.76,38.12Z"/><path class="cls-5" d="M196.65,76.64a5.94,5.94,0,0,0,2.1,2.65l.29.2a6.12,6.12,0,1,0,3.27-11.3l-.38,0A25.63,25.63,0,0,1,202,57l.34,0a6.12,6.12,0,0,0,3.26-11.3,6.18,6.18,0,0,0-3.26-.94,6.12,6.12,0,0,0-4.15,10.61l.07.06a28.63,28.63,0,0,0,0,14.42,4.07,4.07,0,0,0-.43.4,5.58,5.58,0,0,0-.63.82,6,6,0,0,0-.71,1.58,15.21,15.21,0,0,0-6.83,2.73c-2,1.33-4,2.57-9.63,2.67a32.82,32.82,0,0,0-5.29-.12c-1.43,0-2.91.11-4.85,0-1.34-.07-2.11-.88-3.46-2.42-1.8-2.06-4.22-4.65-9.37-5v4c3.29.3,4.8,1.88,6.36,3.66s3.17,3.62,6.25,3.79c2.12.11,3.76,0,5.21,0a24.43,24.43,0,0,1,7.86.68c2.6.64,12.09,9.67,14.77,14.32a4.37,4.37,0,0,0-.31.44,6.1,6.1,0,0,0,1.61,8.25l.29.19a6.12,6.12,0,1,0,3.27-11.29,6,6,0,0,0-1.54.19c-2.56-4.18-8.66-10.45-13.19-13.79a18,18,0,0,0,4.21-2.19A11.33,11.33,0,0,1,196.65,76.64Zm3.88-26.92a2.11,2.11,0,0,1,2.9-.66,2.11,2.11,0,1,1-2.25,3.57l-.1-.06A2.1,2.1,0,0,1,200.53,49.72Zm0,23.46a2.09,2.09,0,0,1,1.78-1,2,2,0,0,1,1.12.33,2.07,2.07,0,0,1,.94,1.33,2.1,2.1,0,0,1-.28,1.58,2.14,2.14,0,0,1-2.91.65l-.1-.06A2.1,2.1,0,0,1,200.53,73.18Zm0,26.31a2.11,2.11,0,0,1,2.9-.66,2.11,2.11,0,0,1,.66,2.92,2.14,2.14,0,0,1-2.91.65l-.1-.06A2.1,2.1,0,0,1,200.53,99.49Z"/><path class="cls-6" d="M190.18,108.56a6.12,6.12,0,0,0-10.72,4.74,20,20,0,0,1-5.33,1.33,4.11,4.11,0,0,1-2.22-1,10.63,10.63,0,0,0-4.15-1.85A37.66,37.66,0,0,0,176.34,99a6.12,6.12,0,0,0,2.91-11.37,6,6,0,0,0-3.13-.86,6.15,6.15,0,0,0-5.26,3,6.13,6.13,0,0,0,1.62,8.07c-4,9.21-9.21,13.08-12.56,14.68a2,2,0,0,0-.36.17,11.77,11.77,0,0,1-2.56.81v4a12.57,12.57,0,0,0,4.25-1.2c5.34-1.35,6.84-.35,8.4.71a7.86,7.86,0,0,0,4.27,1.66h.31a23.69,23.69,0,0,0,7-1.72,6.14,6.14,0,0,0,4.28,1.75h0a6.13,6.13,0,0,0,4.65-10.11ZM174.3,91.79a2.11,2.11,0,0,1,1.82-1,2.17,2.17,0,0,1,1.08.3,2.12,2.12,0,0,1,.73,2.9,2.07,2.07,0,0,1-1.81,1,2.11,2.11,0,0,1-2.05-1.59A2.08,2.08,0,0,1,174.3,91.79Zm12.6,22.36a2.07,2.07,0,0,1-1.37.51,2.11,2.11,0,1,1,2.11-2A2.14,2.14,0,0,1,186.9,114.15Z"/><path class="cls-6" d="M166,45.66l.21.05Z"/><path class="cls-6" d="M188,32.66a6.12,6.12,0,1,0-11,4.82A13.34,13.34,0,0,1,167,41.77a29.12,29.12,0,0,0-10-2.31v4a25,25,0,0,1,8.75,2.14h0a21.63,21.63,0,0,1,8.61,7c-.14.18-.26.36-.38.54a6.12,6.12,0,1,0,8.45-1.91,6.23,6.23,0,0,0-4.67-.75,25.77,25.77,0,0,0-5.35-5.57,16.34,16.34,0,0,0,7.78-5.09,6.27,6.27,0,0,0,1.77.26,6.12,6.12,0,0,0,6-7.45ZM177.38,55.31a2,2,0,0,1,.67-.66,2.11,2.11,0,0,1,1.12-.32,2.12,2.12,0,1,1,0,4.23,2,2,0,0,1-1.12-.33A2.12,2.12,0,0,1,177.38,55.31Zm6.38-20.19a2.14,2.14,0,0,1-2.91.65l-.1-.06A2.11,2.11,0,0,1,182,31.88a2,2,0,0,1,1.12.33,2.1,2.1,0,0,1,.66,2.91Z"/><path class="cls-6" d="M196.65,73.64a5.94,5.94,0,0,0,2.1,2.65l.29.2a6.12,6.12,0,1,0,3.27-11.3l-.38,0A25.63,25.63,0,0,1,202,54l.34,0a6.12,6.12,0,0,0,3.26-11.3,6.18,6.18,0,0,0-3.26-.94,6.12,6.12,0,0,0-4.15,10.61l.07.06a28.63,28.63,0,0,0,0,14.42,4.07,4.07,0,0,0-.43.4,5.58,5.58,0,0,0-.63.82,6,6,0,0,0-.71,1.58,15.21,15.21,0,0,0-6.83,2.73c-2,1.33-4,2.57-9.63,2.67a32.82,32.82,0,0,0-5.29-.12c-1.43,0-2.91.11-4.85,0-1.34-.07-2.11-.88-3.46-2.42-1.8-2.06-4.22-4.65-9.37-5v4c3.29.3,4.8,1.88,6.36,3.66s3.17,3.62,6.25,3.79c2.12.11,3.76,0,5.21,0a24.43,24.43,0,0,1,7.86.68c2.6.64,12.09,9.67,14.77,14.32a4.37,4.37,0,0,0-.31.44,6.1,6.1,0,0,0,1.61,8.25l.29.19a6.12,6.12,0,1,0,3.27-11.29,6,6,0,0,0-1.54.19c-2.56-4.18-8.66-10.45-13.19-13.79a18,18,0,0,0,4.21-2.19A11.33,11.33,0,0,1,196.65,73.64Zm3.88-26.92a2.11,2.11,0,0,1,2.9-.66,2.11,2.11,0,1,1-2.25,3.57l-.1-.06A2.1,2.1,0,0,1,200.53,46.72Zm0,23.46a2.09,2.09,0,0,1,1.78-1,2,2,0,0,1,1.12.33,2.07,2.07,0,0,1,.94,1.33,2.1,2.1,0,0,1-.28,1.58,2.14,2.14,0,0,1-2.91.65l-.1-.06A2.1,2.1,0,0,1,200.53,70.18Zm0,26.31a2.11,2.11,0,0,1,2.9-.66,2.11,2.11,0,0,1,.66,2.92,2.14,2.14,0,0,1-2.91.65l-.1-.06A2.1,2.1,0,0,1,200.53,96.49Z"/><rect class="cls-6" x="141" y="19.46" width="6" height="4"/><rect class="cls-6" x="141" y="26.46" width="6" height="4"/><rect class="cls-6" x="141" y="33.46" width="6" height="4"/><rect class="cls-6" x="141" y="40.46" width="6" height="4"/><rect class="cls-6" x="141" y="47.46" width="6" height="4"/><rect class="cls-6" x="141" y="54.46" width="6" height="4"/><rect class="cls-6" x="141" y="61.46" width="6" height="4"/><rect class="cls-6" x="141" y="68.46" width="6" height="4"/><rect class="cls-7" x="141" y="75.46" width="6" height="4"/><rect class="cls-7" x="141" y="82.46" width="6" height="4"/><rect class="cls-7" x="141" y="89.46" width="6" height="4"/><rect class="cls-7" x="141" y="96.46" width="6" height="4"/><rect class="cls-7" x="141" y="103.46" width="6" height="4"/><rect class="cls-7" x="141" y="110.46" width="6" height="4"/><rect class="cls-7" x="141" y="117.46" width="6" height="4"/><rect class="cls-7" x="141" y="124.46" width="6" height="4"/><rect class="cls-6" x="132" y="33.46" width="6" height="4"/><rect class="cls-6" x="132" y="40.46" width="6" height="4"/><rect class="cls-6" x="132" y="47.46" width="6" height="4"/><rect class="cls-6" x="132" y="54.46" width="6" height="4"/><rect class="cls-6" x="132" y="61.46" width="6" height="4"/><rect class="cls-6" x="132" y="68.46" width="6" height="4"/><rect class="cls-7" x="132" y="75.46" width="6" height="4"/><rect class="cls-7" x="132" y="82.46" width="6" height="4"/><rect class="cls-7" x="132" y="89.46" width="6" height="4"/><rect class="cls-7" x="132" y="96.46" width="6" height="4"/><rect class="cls-7" x="132" y="103.46" width="6" height="4"/><rect class="cls-7" x="132" y="110.46" width="6" height="4"/><rect class="cls-6" x="123" y="61.46" width="6" height="4"/><rect class="cls-6" x="123" y="68.46" width="6" height="4"/><rect class="cls-7" x="123" y="75.46" width="6" height="4"/><rect class="cls-7" x="123" y="82.46" width="6" height="4"/><rect class="cls-6" x="114" y="47.46" width="6" height="4"/><rect class="cls-6" x="114" y="54.46" width="6" height="4"/><rect class="cls-6" x="114" y="61.46" width="6" height="4"/><rect class="cls-6" x="114" y="68.46" width="6" height="4"/><rect class="cls-7" x="114" y="75.46" width="6" height="4"/><rect class="cls-7" x="114" y="82.46" width="6" height="4"/><rect class="cls-7" x="114" y="89.46" width="6" height="4"/><rect class="cls-7" x="114" y="96.46" width="6" height="4"/><rect class="cls-6" x="105" y="68.46" width="6" height="4"/><rect class="cls-7" x="105" y="75.46" width="6" height="4"/><rect class="cls-6" x="96" y="61.46" width="6" height="4"/><rect class="cls-6" x="96" y="68.46" width="6" height="4"/><rect class="cls-7" x="96" y="75.46" width="6" height="4"/><rect class="cls-7" x="96" y="82.46" width="6" height="4"/></g></g></svg>