<svg xmlns="http://www.w3.org/2000/svg" viewBox="0 0 747 150"><defs><style>.cls-1{isolation:isolate;}.cls-2{fill:#eb743b;}.cls-3{fill:#4e7ec2;}.cls-4{mix-blend-mode:multiply;opacity:0.07;}.cls-5{fill:#d3562c;}.cls-6{fill:#fffedb;}.cls-7{fill:#8db2e3;}</style></defs><g class="cls-1"><g id="Layer_1" data-name="Layer 1"><polygon class="cls-2" points="68.68 2.82 68.68 146.82 129.68 111.82 129.68 37.82 68.68 2.82"/><polygon class="cls-3" points="63.68 2.82 2.68 37.82 2.68 111.82 63.68 146.82 63.68 2.82"/><g class="cls-4"><path d="M86,94.56a2.1,2.1,0,0,1,1.82-1,2.16,2.16,0,0,1,1.08.29,2.12,2.12,0,0,1,.73,2.9A2.11,2.11,0,0,1,86,94.56Zm12.6,22.36a2.09,2.09,0,0,1-1.37.51,2.11,2.11,0,0,1-1.38-3.72,2.09,2.09,0,0,1,1.37-.51,2.11,2.11,0,0,1,1.61.74,2.12,2.12,0,0,1-.23,3Z"/><path d="M77.68,48.43l.21,0Z"/><path d="M89.06,58.08a2,2,0,0,1,.67-.66,2.11,2.11,0,0,1,1.12-.32,2.09,2.09,0,0,1,1.12.32,2.12,2.12,0,0,1-1.13,3.91A2.07,2.07,0,0,1,89.71,61,2.12,2.12,0,0,1,89.06,58.08Zm6.38-20.19a2.16,2.16,0,0,1-2.92.66l-.09-.07a2.11,2.11,0,0,1,1.23-3.83,2.15,2.15,0,0,1,1.12.33,2.1,2.1,0,0,1,.66,2.91Z"/><path d="M112.2,49.49a2.12,2.12,0,0,1,1.79-1,2,2,0,0,1,1.12.33,2.1,2.1,0,0,1,.66,2.91,2.14,2.14,0,0,1-2.91.65l-.1-.06A2.12,2.12,0,0,1,112.2,49.49Zm0,23.46A2.12,2.12,0,0,1,114,72a2.11,2.11,0,0,1,1.78,3.24,2.14,2.14,0,0,1-2.91.66l-.1-.07A2.11,2.11,0,0,1,112.2,73Zm0,26.31a2.12,2.12,0,0,1,2.91-.66,2.16,2.16,0,0,1,.94,1.33,2.11,2.11,0,0,1-3.19,2.24l-.1-.06A2.12,2.12,0,0,1,112.2,99.26Z"/><path d="M101.85,108.93a6.12,6.12,0,0,0-8.63-.67,6.16,6.16,0,0,0-2.09,5.4A19.49,19.49,0,0,1,85.81,115a4,4,0,0,1-2.23-1,10.63,10.63,0,0,0-4.15-1.84A37.62,37.62,0,0,0,88,99.34,6.11,6.11,0,0,0,90.93,88a6.08,6.08,0,0,0-3.13-.87,6.16,6.16,0,0,0-5.26,3,6.12,6.12,0,0,0,1.62,8.06c-4,9.22-9.22,13.08-12.56,14.69a1.49,1.49,0,0,0-.36.17,11,11,0,0,1-2.56.8v4a12.66,12.66,0,0,0,4.24-1.19c5.35-1.36,6.84-.35,8.41.71A7.94,7.94,0,0,0,85.59,119h.31a23.54,23.54,0,0,0,7-1.72A6.14,6.14,0,0,0,97.21,119h0a6.11,6.11,0,0,0,6.1-5.65A6,6,0,0,0,101.85,108.93ZM86,92.15a2.12,2.12,0,0,1,1.82-1,2.07,2.07,0,0,1,1.08.3,2.11,2.11,0,0,1-1.09,3.93,2.2,2.2,0,0,1-1.08-.3,2.13,2.13,0,0,1-.73-2.9Zm12.6,22.36a2.09,2.09,0,0,1-1.37.51,2.11,2.11,0,0,1-1.38-3.71,2.06,2.06,0,0,1,1.37-.52,2.09,2.09,0,0,1,1.61.75,2.11,2.11,0,0,1-.23,3Z"/><path d="M77.68,46l.21,0Z"/><path d="M99.63,33a6.12,6.12,0,0,0-2.71-3.85,6.18,6.18,0,0,0-3.26-.94,6.12,6.12,0,0,0-5,9.61,13.35,13.35,0,0,1-9.94,4.29,29.39,29.39,0,0,0-10-2.32v4A24.75,24.75,0,0,1,77.43,46h0a21.61,21.61,0,0,1,8.61,7,4,4,0,0,0-.38.54A6.13,6.13,0,0,0,87.57,62a6,6,0,0,0,3.27,1,6.12,6.12,0,0,0,3.27-11.3,6.2,6.2,0,0,0-4.66-.75,26,26,0,0,0-5.35-5.57,16.34,16.34,0,0,0,7.78-5.1,6.22,6.22,0,0,0,1.77.27,6.13,6.13,0,0,0,6-7.45ZM89.06,55.67a2.11,2.11,0,0,1,.67-.66,2.2,2.2,0,0,1,1.12-.31A2.09,2.09,0,0,1,92,55a2.12,2.12,0,0,1-1.13,3.91,2.12,2.12,0,0,1-1.78-3.26Zm6.38-20.18a2.15,2.15,0,0,1-2.92.65l-.09-.06a2.11,2.11,0,0,1-.56-2.85,2.08,2.08,0,0,1,1.79-1,2.14,2.14,0,0,1,1.12.32,2.16,2.16,0,0,1,.94,1.33A2.12,2.12,0,0,1,95.44,35.49Z"/><path d="M108.32,74a6.09,6.09,0,0,0,2.11,2.65,2.94,2.94,0,0,0,.29.19,6.12,6.12,0,1,0,6.53-10.35,6.18,6.18,0,0,0-3.26-.94l-.38,0a25.67,25.67,0,0,1,0-11.27l.33,0a6.13,6.13,0,1,0-4.14-1.63l.07.06a28.64,28.64,0,0,0,0,14.42,5.25,5.25,0,0,0-.42.4,5.8,5.8,0,0,0-.64.82A6.39,6.39,0,0,0,108.1,70a15.21,15.21,0,0,0-6.82,2.73c-2,1.32-4,2.57-9.64,2.66a32.72,32.72,0,0,0-5.29-.11c-1.43,0-2.91.1-4.85,0-1.33-.07-2.1-.88-3.45-2.42-1.81-2.06-4.22-4.65-9.37-5v4c3.29.3,4.79,1.89,6.35,3.67s3.18,3.62,6.26,3.78c2.12.12,3.76,0,5.21,0a24.11,24.11,0,0,1,7.85.69c2.61.64,12.1,9.67,14.78,14.32-.11.14-.22.28-.32.43a6.11,6.11,0,0,0,1.62,8.25,2.68,2.68,0,0,0,.29.2A6.12,6.12,0,1,0,114,91.86a6.16,6.16,0,0,0-1.55.2c-2.56-4.19-8.65-10.46-13.19-13.79a18.51,18.51,0,0,0,4.22-2.19A11.29,11.29,0,0,1,108.32,74Zm3.88-26.92a2.12,2.12,0,0,1,2.91-.66,2.14,2.14,0,0,1,.94,1.33,2.09,2.09,0,0,1-.28,1.58,2.13,2.13,0,0,1-2.91.66l-.1-.06A2.12,2.12,0,0,1,112.2,47.09Zm0,23.46a2.12,2.12,0,0,1,2.91-.66,2.16,2.16,0,0,1,.94,1.33,2.11,2.11,0,0,1-3.19,2.24l-.1-.06A2.12,2.12,0,0,1,112.2,70.55Zm0,26.3a2.12,2.12,0,0,1,1.79-1,2,2,0,0,1,1.12.33,2.1,2.1,0,0,1,.66,2.91,2.14,2.14,0,0,1-2.91.65l-.1-.06A2.11,2.11,0,0,1,112.2,96.85Z"/></g><path class="cls-5" d="M101.85,111.93a6.12,6.12,0,0,0-8.63-.67,6.16,6.16,0,0,0-2.09,5.4A19.49,19.49,0,0,1,85.81,118a4,4,0,0,1-2.23-1,10.63,10.63,0,0,0-4.15-1.84A37.62,37.62,0,0,0,88,102.34,6.11,6.11,0,0,0,90.93,91a6.08,6.08,0,0,0-3.13-.87,6.16,6.16,0,0,0-5.26,3,6.12,6.12,0,0,0,1.62,8.06c-4,9.22-9.22,13.08-12.56,14.69a1.49,1.49,0,0,0-.36.17,11,11,0,0,1-2.56.8v4a12.66,12.66,0,0,0,4.24-1.19c5.35-1.36,6.84-.35,8.41.71A7.94,7.94,0,0,0,85.59,122h.31a23.54,23.54,0,0,0,7-1.72A6.14,6.14,0,0,0,97.21,122h0a6.11,6.11,0,0,0,6.1-5.65A6,6,0,0,0,101.85,111.93ZM86,95.15a2.12,2.12,0,0,1,1.82-1,2.07,2.07,0,0,1,1.08.3,2.11,2.11,0,0,1-1.09,3.93,2.2,2.2,0,0,1-1.08-.3,2.13,2.13,0,0,1-.73-2.9Zm12.6,22.36a2.09,2.09,0,0,1-1.37.51,2.11,2.11,0,0,1-1.38-3.71,2.06,2.06,0,0,1,1.37-.52,2.09,2.09,0,0,1,1.61.75,2.11,2.11,0,0,1-.23,3Z"/><path d="M77.68,48.43l.21,0Z"/><path class="cls-5" d="M99.63,36a6.12,6.12,0,1,0-11,4.82,13.27,13.27,0,0,1-9.94,4.29,29.12,29.12,0,0,0-10-2.31v4A25,25,0,0,1,77.43,49h0a21.69,21.69,0,0,1,8.61,7,5.93,5.93,0,0,0-.38.54,6.12,6.12,0,1,0,8.44-1.91,6.2,6.2,0,0,0-4.66-.75,26,26,0,0,0-5.35-5.57,16.39,16.39,0,0,0,7.78-5.09,6.21,6.21,0,0,0,1.77.26,6.13,6.13,0,0,0,6-7.45ZM89.06,58.68a2,2,0,0,1,.67-.66,2.11,2.11,0,0,1,1.12-.32A2.09,2.09,0,0,1,92,58a2.12,2.12,0,0,1-1.13,3.91,2.07,2.07,0,0,1-1.13-.33A2.12,2.12,0,0,1,89.06,58.68Zm6.38-20.19a2.15,2.15,0,0,1-2.92.65l-.09-.06a2.11,2.11,0,0,1,1.23-3.83,2.06,2.06,0,0,1,1.12.33,2.1,2.1,0,0,1,.66,2.91Z"/><path class="cls-5" d="M108.32,77a6.09,6.09,0,0,0,2.11,2.65,2.94,2.94,0,0,0,.29.19,6.12,6.12,0,1,0,6.53-10.35,6.18,6.18,0,0,0-3.26-.94l-.38,0a25.67,25.67,0,0,1,0-11.27l.33,0a6.13,6.13,0,1,0-4.14-1.63l.07.06a28.64,28.64,0,0,0,0,14.42,5.25,5.25,0,0,0-.42.4,5.8,5.8,0,0,0-.64.82A6.39,6.39,0,0,0,108.1,73a15.21,15.21,0,0,0-6.82,2.73c-2,1.32-4,2.57-9.64,2.66a32.72,32.72,0,0,0-5.29-.11c-1.43,0-2.91.1-4.85,0-1.33-.07-2.1-.88-3.45-2.42-1.81-2.06-4.22-4.65-9.37-5v4c3.29.3,4.79,1.89,6.35,3.67s3.18,3.62,6.26,3.78c2.12.12,3.76,0,5.21,0a24.11,24.11,0,0,1,7.85.69c2.61.64,12.1,9.67,14.78,14.32-.11.14-.22.28-.32.43a6.11,6.11,0,0,0,1.62,8.25,2.68,2.68,0,0,0,.29.2A6.12,6.12,0,1,0,114,94.86a6.16,6.16,0,0,0-1.55.2c-2.56-4.19-8.65-10.46-13.19-13.79a18.51,18.51,0,0,0,4.22-2.19A11.29,11.29,0,0,1,108.32,77Zm3.88-26.92a2.12,2.12,0,0,1,2.91-.66,2.14,2.14,0,0,1,.94,1.33,2.09,2.09,0,0,1-.28,1.58,2.13,2.13,0,0,1-2.91.66l-.1-.06A2.12,2.12,0,0,1,112.2,50.09Zm0,23.46a2.12,2.12,0,0,1,2.91-.66,2.16,2.16,0,0,1,.94,1.33,2.11,2.11,0,0,1-3.19,2.24l-.1-.06A2.12,2.12,0,0,1,112.2,73.55Zm0,26.3a2.12,2.12,0,0,1,1.79-1,2,2,0,0,1,1.12.33,2.1,2.1,0,0,1,.66,2.91,2.14,2.14,0,0,1-2.91.65l-.1-.06A2.11,2.11,0,0,1,112.2,99.85Z"/><path class="cls-6" d="M101.85,108.93a6.12,6.12,0,0,0-8.63-.67,6.16,6.16,0,0,0-2.09,5.4A19.49,19.49,0,0,1,85.81,115a4,4,0,0,1-2.23-1,10.63,10.63,0,0,0-4.15-1.84A37.62,37.62,0,0,0,88,99.34,6.11,6.11,0,0,0,90.93,88a6.08,6.08,0,0,0-3.13-.87,6.16,6.16,0,0,0-5.26,3,6.12,6.12,0,0,0,1.62,8.06c-4,9.22-9.22,13.08-12.56,14.69a1.49,1.49,0,0,0-.36.17,11,11,0,0,1-2.56.8v4a12.66,12.66,0,0,0,4.24-1.19c5.35-1.36,6.84-.35,8.41.71A7.94,7.94,0,0,0,85.59,119h.31a23.54,23.54,0,0,0,7-1.72A6.14,6.14,0,0,0,97.21,119h0a6.11,6.11,0,0,0,6.1-5.65A6,6,0,0,0,101.85,108.93ZM86,92.15a2.12,2.12,0,0,1,1.82-1,2.07,2.07,0,0,1,1.08.3,2.11,2.11,0,0,1-1.09,3.93,2.2,2.2,0,0,1-1.08-.3,2.13,2.13,0,0,1-.73-2.9Zm12.6,22.36a2.09,2.09,0,0,1-1.37.51,2.11,2.11,0,0,1-1.38-3.71,2.06,2.06,0,0,1,1.37-.52,2.09,2.09,0,0,1,1.61.75,2.11,2.11,0,0,1-.23,3Z"/><path class="cls-6" d="M77.68,46l.21,0Z"/><path class="cls-6" d="M99.63,33a6.12,6.12,0,0,0-2.71-3.85,6.18,6.18,0,0,0-3.26-.94,6.12,6.12,0,0,0-5,9.61,13.35,13.35,0,0,1-9.94,4.29,29.39,29.39,0,0,0-10-2.32v4A24.75,24.75,0,0,1,77.43,46h0a21.61,21.61,0,0,1,8.61,7,4,4,0,0,0-.38.54A6.13,6.13,0,0,0,87.57,62a6,6,0,0,0,3.27,1,6.12,6.12,0,0,0,3.27-11.3,6.2,6.2,0,0,0-4.66-.75,26,26,0,0,0-5.35-5.57,16.34,16.34,0,0,0,7.78-5.1,6.22,6.22,0,0,0,1.77.27,6.13,6.13,0,0,0,6-7.45ZM89.06,55.67a2.11,2.11,0,0,1,.67-.66,2.2,2.2,0,0,1,1.12-.31A2.09,2.09,0,0,1,92,55a2.12,2.12,0,0,1-1.13,3.91,2.12,2.12,0,0,1-1.78-3.26Zm6.38-20.18a2.15,2.15,0,0,1-2.92.65l-.09-.06a2.11,2.11,0,0,1-.56-2.85,2.08,2.08,0,0,1,1.79-1,2.14,2.14,0,0,1,1.12.32,2.16,2.16,0,0,1,.94,1.33A2.12,2.12,0,0,1,95.44,35.49Z"/><path class="cls-6" d="M108.32,74a6.09,6.09,0,0,0,2.11,2.65,2.94,2.94,0,0,0,.29.19,6.12,6.12,0,1,0,6.53-10.35,6.18,6.18,0,0,0-3.26-.94l-.38,0a25.67,25.67,0,0,1,0-11.27l.33,0a6.13,6.13,0,1,0-4.14-1.63l.07.06a28.64,28.64,0,0,0,0,14.42,5.25,5.25,0,0,0-.42.4,5.8,5.8,0,0,0-.64.82A6.39,6.39,0,0,0,108.1,70a15.21,15.21,0,0,0-6.82,2.73c-2,1.32-4,2.57-9.64,2.66a32.72,32.72,0,0,0-5.29-.11c-1.43,0-2.91.1-4.85,0-1.33-.07-2.1-.88-3.45-2.42-1.81-2.06-4.22-4.65-9.37-5v4c3.29.3,4.79,1.89,6.35,3.67s3.18,3.62,6.26,3.78c2.12.12,3.76,0,5.21,0a24.11,24.11,0,0,1,7.85.69c2.61.64,12.1,9.67,14.78,14.32-.11.14-.22.28-.32.43a6.11,6.11,0,0,0,1.62,8.25,2.68,2.68,0,0,0,.29.2A6.12,6.12,0,1,0,114,91.86a6.16,6.16,0,0,0-1.55.2c-2.56-4.19-8.65-10.46-13.19-13.79a18.51,18.51,0,0,0,4.22-2.19A11.29,11.29,0,0,1,108.32,74Zm3.88-26.92a2.12,2.12,0,0,1,2.91-.66,2.14,2.14,0,0,1,.94,1.33,2.09,2.09,0,0,1-.28,1.58,2.13,2.13,0,0,1-2.91.66l-.1-.06A2.12,2.12,0,0,1,112.2,47.09Zm0,23.46a2.12,2.12,0,0,1,2.91-.66,2.16,2.16,0,0,1,.94,1.33,2.11,2.11,0,0,1-3.19,2.24l-.1-.06A2.12,2.12,0,0,1,112.2,70.55Zm0,26.3a2.12,2.12,0,0,1,1.79-1,2,2,0,0,1,1.12.33,2.1,2.1,0,0,1,.66,2.91,2.14,2.14,0,0,1-2.91.65l-.1-.06A2.11,2.11,0,0,1,112.2,96.85Z"/><rect class="cls-6" x="52.68" y="19.82" width="6" height="4"/><rect class="cls-6" x="52.68" y="26.82" width="6" height="4"/><rect class="cls-6" x="52.68" y="33.82" width="6" height="4"/><rect class="cls-6" x="52.68" y="40.82" width="6" height="4"/><rect class="cls-6" x="52.68" y="47.82" width="6" height="4"/><rect class="cls-6" x="52.68" y="54.82" width="6" height="4"/><rect class="cls-6" x="52.68" y="61.82" width="6" height="4"/><rect class="cls-6" x="52.68" y="68.82" width="6" height="4"/><rect class="cls-7" x="52.68" y="75.82" width="6" height="4"/><rect class="cls-7" x="52.68" y="82.82" width="6" height="4"/><rect class="cls-7" x="52.68" y="89.82" width="6" height="4"/><rect class="cls-7" x="52.68" y="96.82" width="6" height="4"/><rect class="cls-7" x="52.68" y="103.82" width="6" height="4"/><rect class="cls-7" x="52.68" y="110.82" width="6" height="4"/><rect class="cls-7" x="52.68" y="117.82" width="6" height="4"/><rect class="cls-7" x="52.68" y="124.82" width="6" height="4"/><rect class="cls-6" x="43.68" y="33.82" width="6" height="4"/><rect class="cls-6" x="43.68" y="40.82" width="6" height="4"/><rect class="cls-6" x="43.68" y="47.82" width="6" height="4"/><rect class="cls-6" x="43.68" y="54.82" width="6" height="4"/><rect class="cls-6" x="43.68" y="61.82" width="6" height="4"/><rect class="cls-6" x="43.68" y="68.82" width="6" height="4"/><rect class="cls-7" x="43.68" y="75.82" width="6" height="4"/><rect class="cls-7" x="43.68" y="82.82" width="6" height="4"/><rect class="cls-7" x="43.68" y="89.82" width="6" height="4"/><rect class="cls-7" x="43.68" y="96.82" width="6" height="4"/><rect class="cls-7" x="43.68" y="103.82" width="6" height="4"/><rect class="cls-7" x="43.68" y="110.82" width="6" height="4"/><rect class="cls-6" x="34.68" y="61.82" width="6" height="4"/><rect class="cls-6" x="34.68" y="68.82" width="6" height="4"/><rect class="cls-7" x="34.68" y="75.82" width="6" height="4"/><rect class="cls-7" x="34.68" y="82.82" width="6" height="4"/><rect class="cls-6" x="25.68" y="47.82" width="6" height="4"/><rect class="cls-6" x="25.68" y="54.82" width="6" height="4"/><rect class="cls-6" x="25.68" y="61.82" width="6" height="4"/><rect class="cls-6" x="25.68" y="68.82" width="6" height="4"/><rect class="cls-7" x="25.68" y="75.82" width="6" height="4"/><rect class="cls-7" x="25.68" y="82.82" width="6" height="4"/><rect class="cls-7" x="25.68" y="89.82" width="6" height="4"/><rect class="cls-7" x="25.68" y="96.82" width="6" height="4"/><rect class="cls-6" x="16.68" y="68.82" width="6" height="4"/><rect class="cls-7" x="16.68" y="75.82" width="6" height="4"/><rect class="cls-6" x="7.68" y="61.82" width="6" height="4"/><rect class="cls-6" x="7.68" y="68.82" width="6" height="4"/><rect class="cls-7" x="7.68" y="75.82" width="6" height="4"/><rect class="cls-7" x="7.68" y="82.82" width="6" height="4"/><path class="cls-3" d="M188.19,92.42H167.05l-3.85,10.4H149.61l21.61-54.6H184l21.79,54.6H192.08ZM170.7,82.48h13.74L177.55,64Z"/><path class="cls-3" d="M229.91,93.64a8.12,8.12,0,0,0,5.6-1.9,6.65,6.65,0,0,0,2.25-5h11.68a15.93,15.93,0,0,1-2.58,8.68,17.1,17.1,0,0,1-7,6.13,21.8,21.8,0,0,1-9.77,2.18q-10,0-15.78-6.36t-5.78-17.58v-.82q0-10.77,5.74-17.2T230,55.3q8.75,0,14,5t5.36,13.26H237.76a8.59,8.59,0,0,0-2.25-5.92,8.34,8.34,0,0,0-12.26.9Q221,71.7,221,78.82v1.3q0,7.22,2.19,10.37A7.62,7.62,0,0,0,229.91,93.64Z"/><path class="cls-3" d="M254.62,79.06a27.66,27.66,0,0,1,2.67-12.37,19.5,19.5,0,0,1,7.7-8.41,22.4,22.4,0,0,1,11.66-3q9.45,0,15.42,5.78t6.66,15.7l.09,3.19q0,10.74-6,17.23t-16.09,6.49q-10.1,0-16.11-6.47t-6-17.6Zm12.46.89q0,6.64,2.5,10.17a9,9,0,0,0,14.23,0q2.55-3.48,2.55-11.12,0-6.53-2.55-10.11a8.26,8.26,0,0,0-7.16-3.58,8.15,8.15,0,0,0-7.07,3.56Q267.09,72.48,267.08,80Z"/><path class="cls-3" d="M334.44,98.08q-4.62,5.61-12.77,5.61-7.5,0-11.44-4.32t-4-12.63V56.16h12.47V86.34q0,7.3,6.64,7.3,6.33,0,8.71-4.41V56.16h12.5v46.66H334.79Z"/><path class="cls-3" d="M381.19,89.93a4,4,0,0,0-2.27-3.6A25.62,25.62,0,0,0,371.66,84Q355,80.49,355,69.83a12.84,12.84,0,0,1,5.15-10.37q5.16-4.16,13.48-4.16,8.88,0,14.21,4.18a13.19,13.19,0,0,1,5.32,10.87H380.71A6,6,0,0,0,379,65.93c-1.15-1.16-2.95-1.75-5.39-1.75a7.47,7.47,0,0,0-4.88,1.43A4.48,4.48,0,0,0,367,69.23a3.83,3.83,0,0,0,2,3.34,20.16,20.16,0,0,0,6.62,2.2,55.45,55.45,0,0,1,7.85,2.09q9.87,3.63,9.87,12.55a12.16,12.16,0,0,1-5.47,10.33q-5.47,3.95-14.15,4a24.56,24.56,0,0,1-10.41-2.1,17.42,17.42,0,0,1-7.14-5.73A13.36,13.36,0,0,1,353.54,88h11.82a6.48,6.48,0,0,0,2.46,5.09,9.72,9.72,0,0,0,6.12,1.77,9,9,0,0,0,5.41-1.36A4.22,4.22,0,0,0,381.19,89.93Z"/><path class="cls-3" d="M416.25,44.69V56.16h8v9.15h-8V88.59a5.57,5.57,0,0,0,1,3.71c.66.75,1.92,1.12,3.79,1.12a20.09,20.09,0,0,0,3.67-.3v9.44a25.62,25.62,0,0,1-7.55,1.13q-13.11,0-13.37-13.24V65.31H397V56.16h6.81V44.69Z"/><path class="cls-3" d="M431.08,44.09A6.16,6.16,0,0,1,433,39.47a8.09,8.09,0,0,1,10.2,0,6.6,6.6,0,0,1,0,9.28,8,8,0,0,1-10.13,0A6.12,6.12,0,0,1,431.08,44.09Zm13.24,58.73H431.81V56.16h12.51Z"/><path class="cls-3" d="M474,93.64a8.12,8.12,0,0,0,5.6-1.9,6.65,6.65,0,0,0,2.25-5h11.68a16,16,0,0,1-2.58,8.68,17.1,17.1,0,0,1-7,6.13,21.83,21.83,0,0,1-9.77,2.18q-10,0-15.78-6.36t-5.78-17.58v-.82q0-10.77,5.74-17.2t15.74-6.43q8.75,0,14,5t5.37,13.26H481.84a8.59,8.59,0,0,0-2.25-5.92,8.34,8.34,0,0,0-12.26.9q-2.24,3.18-2.23,10.3v1.3q0,7.22,2.2,10.37A7.62,7.62,0,0,0,474,93.64Z"/><path class="cls-2" d="M500.49,102.82V48.22h21.09q10.93,0,16.79,3.87a12.65,12.65,0,0,1,5.85,11.24,12.59,12.59,0,0,1-2.13,7.26A12.23,12.23,0,0,1,536,75.16a12.19,12.19,0,0,1,7,4.45,12.37,12.37,0,0,1,2.43,7.58q0,8.1-5.57,11.87t-16.22,3.76ZM514.08,71h8.35q8.21,0,8.2-5.74,0-3.3-2-4.68t-6.07-1.39h-8.49Zm0,9.23V91.9h9.57a10.34,10.34,0,0,0,6.09-1.55,4.81,4.81,0,0,0,2.16-4.1q0-5.88-7.17-6.07Z"/><path class="cls-2" d="M580,67.85a33.84,33.84,0,0,0-4.48-.35q-7.08,0-9.27,4.79v30.53H553.75V56.16h11.77l.34,5.57q3.75-6.43,10.4-6.43a13.19,13.19,0,0,1,3.88.56Z"/><path class="cls-2" d="M611.7,102.82a14,14,0,0,1-1.25-4.18,15.09,15.09,0,0,1-11.77,5,16.58,16.58,0,0,1-11.36-4,12.76,12.76,0,0,1-4.51-10q0-7.41,5.5-11.38t15.89-4h5.73V71.64a7.66,7.66,0,0,0-1.66-5.17c-1.1-1.29-2.85-1.94-5.23-1.94A7.4,7.4,0,0,0,598.1,66a5.12,5.12,0,0,0-1.79,4.14H583.85a12.55,12.55,0,0,1,2.5-7.51,16.55,16.55,0,0,1,7.07-5.41,25.92,25.92,0,0,1,10.26-2q8.63,0,13.69,4.33t5.07,12.19V92q0,6.64,1.85,10v.73Zm-10.3-8.66a10.75,10.75,0,0,0,5.09-1.23,8,8,0,0,0,3.44-3.3v-8h-4.65q-9.36,0-10,6.47l-.05.73a5,5,0,0,0,1.64,3.84A6.4,6.4,0,0,0,601.4,94.16Z"/><path class="cls-2" d="M631.93,44.09a6.15,6.15,0,0,1,1.87-4.62,8.09,8.09,0,0,1,10.2,0,6.59,6.59,0,0,1,0,9.28,8,8,0,0,1-10.13,0A6.12,6.12,0,0,1,631.93,44.09Zm13.24,58.73H632.66V56.16h12.51Z"/><path class="cls-2" d="M666.9,56.16l.39,5.39A16.3,16.3,0,0,1,680.7,55.3c4.94,0,8.63,1.45,11,4.36s3.65,7.24,3.71,13v30.14H683V72.91q0-4-1.73-5.77t-5.73-1.79a8.59,8.59,0,0,0-7.9,4.49v33H655.17V56.16Z"/><path class="cls-2" d="M719.21,92.78H742v10H703.3V95.23l22-29H703.94v-10h37.39v7.35Z"/></g></g></svg>