<svg xmlns="http://www.w3.org/2000/svg" viewBox="0 0 150 150"><defs><style>.cls-1{isolation:isolate;}.cls-2{fill:#eb743b;}.cls-3{fill:#4e7ec2;}.cls-4{mix-blend-mode:multiply;opacity:0.07;}.cls-5{fill:#d3562c;}.cls-6{fill:#fffedb;}.cls-7{fill:#8db2e3;}</style></defs><g class="cls-1"><g id="Layer_1" data-name="Layer 1"><polygon class="cls-2" points="77.5 3 77.5 147 138.5 112 138.5 38 77.5 3"/><polygon class="cls-3" points="72.5 3 11.5 38 11.5 112 72.5 147 72.5 3"/><g class="cls-4"><path d="M94.8,94.73a2.12,2.12,0,0,1,1.82-1,2.17,2.17,0,0,1,1.08.3,2.12,2.12,0,0,1,.73,2.9,2.11,2.11,0,0,1-2.9.73,2.12,2.12,0,0,1-.73-2.9Zm12.6,22.37a2.06,2.06,0,0,1-1.37.5,2.1,2.1,0,0,1-1.61-.73,2.11,2.11,0,1,1,3.21-2.75,2.09,2.09,0,0,1-.23,3Z"/><path d="M86.5,48.61l.21,0Z"/><path d="M97.88,58.26a2,2,0,0,1,.67-.66,2.11,2.11,0,0,1,1.12-.32,2.12,2.12,0,1,1,0,4.23,2.12,2.12,0,0,1-1.78-3.25Zm6.38-20.19a2.14,2.14,0,0,1-2.91.65l-.1-.06a2.11,2.11,0,0,1,1.23-3.83,2,2,0,0,1,1.12.33,2.1,2.1,0,0,1,.66,2.91Z"/><path d="M121,49.67a2.11,2.11,0,0,1,2.9-.66,2.11,2.11,0,1,1-2.25,3.57l-.09-.06A2.1,2.1,0,0,1,121,49.67Zm0,23.46a2.09,2.09,0,0,1,1.78-1,2,2,0,0,1,1.12.33,2.07,2.07,0,0,1,.94,1.33,2.1,2.1,0,0,1-.28,1.58,2.14,2.14,0,0,1-2.91.65l-.09-.06A2.1,2.1,0,0,1,121,73.13Zm0,26.3a2.11,2.11,0,1,1,3.56,2.26,2.15,2.15,0,0,1-2.91.66l-.09-.07A2.09,2.09,0,0,1,121,99.43Z"/><path d="M110.68,109.1A6.12,6.12,0,0,0,100,113.84a20,20,0,0,1-5.33,1.33,4,4,0,0,1-2.22-1,10.78,10.78,0,0,0-4.15-1.85,37.66,37.66,0,0,0,8.58-12.83,6.12,6.12,0,1,0-5.48-9.24A6.12,6.12,0,0,0,93,98.34c-4,9.22-9.21,13.08-12.56,14.68a2,2,0,0,0-.36.17,11.22,11.22,0,0,1-2.56.81v4a12.69,12.69,0,0,0,4.25-1.19c5.34-1.36,6.84-.36,8.4.71a7.93,7.93,0,0,0,4.27,1.65h.31a23.61,23.61,0,0,0,7-1.72,6.14,6.14,0,0,0,4.28,1.75h0a6.11,6.11,0,0,0,4-1.48,6.13,6.13,0,0,0,.67-8.63ZM94.8,92.33a2.1,2.1,0,0,1,1.82-1,2.16,2.16,0,0,1,1.08.29,2.12,2.12,0,0,1,.73,2.9,2.08,2.08,0,0,1-1.81,1,2.12,2.12,0,0,1-1.09-.31,2.11,2.11,0,0,1-.73-2.89Zm12.6,22.36a2.07,2.07,0,0,1-1.37.51,2.13,2.13,0,1,1,1.37-.51Z"/><path d="M86.5,46.21l.21,0Z"/><path d="M108.45,33.2a6.12,6.12,0,1,0-11,4.82,13.36,13.36,0,0,1-10,4.3A28.93,28.93,0,0,0,77.5,40v4a24.75,24.75,0,0,1,8.75,2.13h0a21.46,21.46,0,0,1,8.61,7,5.22,5.22,0,0,0-.38.54,6.12,6.12,0,1,0,8.45-1.91,6.24,6.24,0,0,0-4.67-.76,26,26,0,0,0-5.35-5.56,16.29,16.29,0,0,0,7.78-5.1,6.28,6.28,0,0,0,1.77.27,6.12,6.12,0,0,0,6-7.46ZM97.88,55.85a2.13,2.13,0,0,1,1.79-1,2.16,2.16,0,0,1,1.13.33,2.12,2.12,0,1,1-2.92.65Zm6.38-20.19a2.13,2.13,0,0,1-2.91.66l-.1-.07a2.11,2.11,0,0,1,2.35-3.5,2.14,2.14,0,0,1,.94,1.33A2.09,2.09,0,0,1,104.26,35.66Z"/><path d="M117.15,74.19a6.05,6.05,0,0,0,2.1,2.65l.29.19a6.12,6.12,0,1,0,3.27-11.29h-.38a25.63,25.63,0,0,1,0-11.26l.34,0a6.12,6.12,0,1,0-4.15-1.62s0,0,.07.06a28.59,28.59,0,0,0,0,14.41c-.15.14-.3.26-.43.4a5.67,5.67,0,0,0-.63.83,6,6,0,0,0-.71,1.58,15.22,15.22,0,0,0-6.83,2.72c-2,1.33-4,2.58-9.63,2.67a32.82,32.82,0,0,0-5.29-.12,48.41,48.41,0,0,1-4.85,0c-1.34-.07-2.11-.89-3.46-2.43-1.8-2-4.22-4.65-9.37-5v4c3.29.3,4.8,1.89,6.36,3.67s3.17,3.61,6.25,3.78c2.12.11,3.76,0,5.21,0a24.43,24.43,0,0,1,7.86.68c2.6.65,12.09,9.68,14.77,14.33a4.25,4.25,0,0,0-.31.43,6.1,6.1,0,0,0,1.61,8.25l.29.19A6.12,6.12,0,1,0,126.07,93a6.18,6.18,0,0,0-3.26-.94,6,6,0,0,0-1.54.2c-2.56-4.19-8.66-10.46-13.19-13.8a17.66,17.66,0,0,0,4.21-2.19A11.33,11.33,0,0,1,117.15,74.19ZM121,47.26a2.11,2.11,0,1,1,3.56,2.26,2.14,2.14,0,0,1-2.91.65l-.09-.06A2.09,2.09,0,0,1,121,47.26Zm0,23.47a2.11,2.11,0,0,1,2.9-.66,2.11,2.11,0,1,1-2.25,3.57l-.09-.06A2.1,2.1,0,0,1,121,70.73ZM121,97a2.11,2.11,0,0,1,2.9-.66,2.11,2.11,0,1,1-2.25,3.57l-.09-.06A2.1,2.1,0,0,1,121,97Z"/></g><path class="cls-5" d="M110.68,112.1A6.12,6.12,0,0,0,100,116.84a20,20,0,0,1-5.33,1.33,4,4,0,0,1-2.22-1,10.78,10.78,0,0,0-4.15-1.85,37.66,37.66,0,0,0,8.58-12.83,6.12,6.12,0,1,0-5.48-9.24A6.12,6.12,0,0,0,93,101.34c-4,9.22-9.21,13.08-12.56,14.68a2,2,0,0,0-.36.17,11.22,11.22,0,0,1-2.56.81v4a12.69,12.69,0,0,0,4.25-1.19c5.34-1.36,6.84-.36,8.4.71a7.93,7.93,0,0,0,4.27,1.65h.31a23.61,23.61,0,0,0,7-1.72,6.14,6.14,0,0,0,4.28,1.75h0a6.11,6.11,0,0,0,4-1.48,6.13,6.13,0,0,0,.67-8.63ZM94.8,95.33a2.1,2.1,0,0,1,1.82-1,2.16,2.16,0,0,1,1.08.29,2.12,2.12,0,0,1,.73,2.9,2.08,2.08,0,0,1-1.81,1,2.12,2.12,0,0,1-1.09-.31,2.11,2.11,0,0,1-.73-2.89Zm12.6,22.36a2.07,2.07,0,0,1-1.37.51,2.13,2.13,0,1,1,1.37-.51Z"/><path d="M86.5,48.61l.21,0Z"/><path class="cls-5" d="M108.45,36.21a6.12,6.12,0,0,0-2.71-3.85,6.18,6.18,0,0,0-3.26-.94,6.12,6.12,0,0,0-5,9.61,13.38,13.38,0,0,1-10,4.29A29.39,29.39,0,0,0,77.5,43v4a24.79,24.79,0,0,1,8.75,2.14h0a21.54,21.54,0,0,1,8.61,7,5.22,5.22,0,0,0-.38.54,6.14,6.14,0,0,0,1.9,8.44,6,6,0,0,0,3.27,1,6.13,6.13,0,0,0,3.28-11.31,6.23,6.23,0,0,0-4.67-.75,25.77,25.77,0,0,0-5.35-5.57,16.29,16.29,0,0,0,7.78-5.1,5.94,5.94,0,0,0,1.77.27,6.12,6.12,0,0,0,6-7.45ZM97.88,58.86a2.14,2.14,0,0,1,.67-.67,2.2,2.2,0,0,1,1.12-.31,2.12,2.12,0,1,1,0,4.23,2.12,2.12,0,0,1-1.78-3.25Zm6.38-20.19a2.14,2.14,0,0,1-2.91.65l-.1-.06a2.11,2.11,0,0,1,2.35-3.51,2.16,2.16,0,0,1,.94,1.33A2.12,2.12,0,0,1,104.26,38.67Z"/><path class="cls-5" d="M117.15,77.19a6.05,6.05,0,0,0,2.1,2.65l.29.19a6.12,6.12,0,1,0,3.27-11.29h-.38a25.63,25.63,0,0,1,0-11.26l.34,0a6.12,6.12,0,1,0-4.15-1.62s0,0,.07.06a28.59,28.59,0,0,0,0,14.41c-.15.14-.3.26-.43.4a5.67,5.67,0,0,0-.63.83,6,6,0,0,0-.71,1.58,15.22,15.22,0,0,0-6.83,2.72c-2,1.33-4,2.58-9.63,2.67a32.82,32.82,0,0,0-5.29-.12,48.41,48.41,0,0,1-4.85,0c-1.34-.07-2.11-.89-3.46-2.43-1.8-2-4.22-4.65-9.37-5v4c3.29.3,4.8,1.89,6.36,3.67s3.17,3.61,6.25,3.78c2.12.11,3.76,0,5.21,0a24.43,24.43,0,0,1,7.86.68c2.6.65,12.09,9.68,14.77,14.33a4.25,4.25,0,0,0-.31.43,6.1,6.1,0,0,0,1.61,8.25l.29.19A6.12,6.12,0,1,0,126.07,96a6.18,6.18,0,0,0-3.26-.94,6,6,0,0,0-1.54.2c-2.56-4.19-8.66-10.46-13.19-13.8a17.66,17.66,0,0,0,4.21-2.19A11.33,11.33,0,0,1,117.15,77.19ZM121,50.26a2.11,2.11,0,1,1,3.56,2.26,2.14,2.14,0,0,1-2.91.65l-.09-.06A2.09,2.09,0,0,1,121,50.26Zm0,23.47a2.11,2.11,0,0,1,2.9-.66,2.11,2.11,0,1,1-2.25,3.57l-.09-.06A2.1,2.1,0,0,1,121,73.73Zm0,26.3a2.11,2.11,0,0,1,2.9-.66,2.11,2.11,0,1,1-2.25,3.57l-.09-.06A2.1,2.1,0,0,1,121,100Z"/><path class="cls-6" d="M110.68,109.1A6.12,6.12,0,0,0,100,113.84a20,20,0,0,1-5.33,1.33,4,4,0,0,1-2.22-1,10.78,10.78,0,0,0-4.15-1.85,37.66,37.66,0,0,0,8.58-12.83,6.12,6.12,0,1,0-5.48-9.24A6.12,6.12,0,0,0,93,98.34c-4,9.22-9.21,13.08-12.56,14.68a2,2,0,0,0-.36.17,11.22,11.22,0,0,1-2.56.81v4a12.69,12.69,0,0,0,4.25-1.19c5.34-1.36,6.84-.36,8.4.71a7.93,7.93,0,0,0,4.27,1.65h.31a23.61,23.61,0,0,0,7-1.72,6.14,6.14,0,0,0,4.28,1.75h0a6.11,6.11,0,0,0,4-1.48,6.13,6.13,0,0,0,.67-8.63ZM94.8,92.33a2.1,2.1,0,0,1,1.82-1,2.16,2.16,0,0,1,1.08.29,2.12,2.12,0,0,1,.73,2.9,2.08,2.08,0,0,1-1.81,1,2.12,2.12,0,0,1-1.09-.31,2.11,2.11,0,0,1-.73-2.89Zm12.6,22.36a2.07,2.07,0,0,1-1.37.51,2.13,2.13,0,1,1,1.37-.51Z"/><path class="cls-6" d="M86.5,46.21l.21,0Z"/><path class="cls-6" d="M108.45,33.2a6.12,6.12,0,1,0-11,4.82,13.36,13.36,0,0,1-10,4.3A28.93,28.93,0,0,0,77.5,40v4a24.75,24.75,0,0,1,8.75,2.13h0a21.46,21.46,0,0,1,8.61,7,5.22,5.22,0,0,0-.38.54,6.12,6.12,0,1,0,8.45-1.91,6.24,6.24,0,0,0-4.67-.76,26,26,0,0,0-5.35-5.56,16.29,16.29,0,0,0,7.78-5.1,6.28,6.28,0,0,0,1.77.27,6.12,6.12,0,0,0,6-7.46ZM97.88,55.85a2.13,2.13,0,0,1,1.79-1,2.16,2.16,0,0,1,1.13.33,2.12,2.12,0,1,1-2.92.65Zm6.38-20.19a2.13,2.13,0,0,1-2.91.66l-.1-.07a2.11,2.11,0,0,1,2.35-3.5,2.14,2.14,0,0,1,.94,1.33A2.09,2.09,0,0,1,104.26,35.66Z"/><path class="cls-6" d="M117.15,74.19a6.05,6.05,0,0,0,2.1,2.65l.29.19a6.12,6.12,0,1,0,3.27-11.29h-.38a25.63,25.63,0,0,1,0-11.26l.34,0a6.12,6.12,0,1,0-4.15-1.62s0,0,.07.06a28.59,28.59,0,0,0,0,14.41c-.15.14-.3.26-.43.4a5.67,5.67,0,0,0-.63.83,6,6,0,0,0-.71,1.58,15.22,15.22,0,0,0-6.83,2.72c-2,1.33-4,2.58-9.63,2.67a32.82,32.82,0,0,0-5.29-.12,48.41,48.41,0,0,1-4.85,0c-1.34-.07-2.11-.89-3.46-2.43-1.8-2-4.22-4.65-9.37-5v4c3.29.3,4.8,1.89,6.36,3.67s3.17,3.61,6.25,3.78c2.12.11,3.76,0,5.21,0a24.43,24.43,0,0,1,7.86.68c2.6.65,12.09,9.68,14.77,14.33a4.25,4.25,0,0,0-.31.43,6.1,6.1,0,0,0,1.61,8.25l.29.19A6.12,6.12,0,1,0,126.07,93a6.18,6.18,0,0,0-3.26-.94,6,6,0,0,0-1.54.2c-2.56-4.19-8.66-10.46-13.19-13.8a17.66,17.66,0,0,0,4.21-2.19A11.33,11.33,0,0,1,117.15,74.19ZM121,47.26a2.11,2.11,0,1,1,3.56,2.26,2.14,2.14,0,0,1-2.91.65l-.09-.06A2.09,2.09,0,0,1,121,47.26Zm0,23.47a2.11,2.11,0,0,1,2.9-.66,2.11,2.11,0,1,1-2.25,3.57l-.09-.06A2.1,2.1,0,0,1,121,70.73ZM121,97a2.11,2.11,0,0,1,2.9-.66,2.11,2.11,0,1,1-2.25,3.57l-.09-.06A2.1,2.1,0,0,1,121,97Z"/><rect class="cls-6" x="61.5" y="20" width="6" height="4"/><rect class="cls-6" x="61.5" y="27" width="6" height="4"/><rect class="cls-6" x="61.5" y="34" width="6" height="4"/><rect class="cls-6" x="61.5" y="41" width="6" height="4"/><rect class="cls-6" x="61.5" y="48" width="6" height="4"/><rect class="cls-6" x="61.5" y="55" width="6" height="4"/><rect class="cls-6" x="61.5" y="62" width="6" height="4"/><rect class="cls-6" x="61.5" y="69" width="6" height="4"/><rect class="cls-7" x="61.5" y="76" width="6" height="4"/><rect class="cls-7" x="61.5" y="83" width="6" height="4"/><rect class="cls-7" x="61.5" y="90" width="6" height="4"/><rect class="cls-7" x="61.5" y="97" width="6" height="4"/><rect class="cls-7" x="61.5" y="104" width="6" height="4"/><rect class="cls-7" x="61.5" y="111" width="6" height="4"/><rect class="cls-7" x="61.5" y="118" width="6" height="4"/><rect class="cls-7" x="61.5" y="125" width="6" height="4"/><rect class="cls-6" x="52.5" y="34" width="6" height="4"/><rect class="cls-6" x="52.5" y="41" width="6" height="4"/><rect class="cls-6" x="52.5" y="48" width="6" height="4"/><rect class="cls-6" x="52.5" y="55" width="6" height="4"/><rect class="cls-6" x="52.5" y="62" width="6" height="4"/><rect class="cls-6" x="52.5" y="69" width="6" height="4"/><rect class="cls-7" x="52.5" y="76" width="6" height="4"/><rect class="cls-7" x="52.5" y="83" width="6" height="4"/><rect class="cls-7" x="52.5" y="90" width="6" height="4"/><rect class="cls-7" x="52.5" y="97" width="6" height="4"/><rect class="cls-7" x="52.5" y="104" width="6" height="4"/><rect class="cls-7" x="52.5" y="111" width="6" height="4"/><rect class="cls-6" x="43.5" y="62" width="6" height="4"/><rect class="cls-6" x="43.5" y="69" width="6" height="4"/><rect class="cls-7" x="43.5" y="76" width="6" height="4"/><rect class="cls-7" x="43.5" y="83" width="6" height="4"/><rect class="cls-6" x="34.5" y="48" width="6" height="4"/><rect class="cls-6" x="34.5" y="55" width="6" height="4"/><rect class="cls-6" x="34.5" y="62" width="6" height="4"/><rect class="cls-6" x="34.5" y="69" width="6" height="4"/><rect class="cls-7" x="34.5" y="76" width="6" height="4"/><rect class="cls-7" x="34.5" y="83" width="6" height="4"/><rect class="cls-7" x="34.5" y="90" width="6" height="4"/><rect class="cls-7" x="34.5" y="97" width="6" height="4"/><rect class="cls-6" x="25.5" y="69" width="6" height="4"/><rect class="cls-7" x="25.5" y="76" width="6" height="4"/><rect class="cls-6" x="16.5" y="62" width="6" height="4"/><rect class="cls-6" x="16.5" y="69" width="6" height="4"/><rect class="cls-7" x="16.5" y="76" width="6" height="4"/><rect class="cls-7" x="16.5" y="83" width="6" height="4"/></g></g></svg>