<svg xmlns="http://www.w3.org/2000/svg" xmlns:xlink="http://www.w3.org/1999/xlink" viewBox="0 0 632.38 144"><defs><clipPath id="a" transform="translate(31.67 -2.82)"><polygon points="9.35 108.93 9.35 40.72 65.35 8.51 65.35 141.01 9.35 108.93" style="fill:none"/></clipPath></defs><title>MessyBrainz_logo</title><g style="isolation:isolate"><polygon points="102.02 0 102.02 144 163.02 109 163.02 35 102.02 0" style="fill:#eb743b"/><polygon points="97.02 0 36.02 35 36.02 109 97.02 144 97.02 0" style="fill:#b50437"/><g style="clip-path:url(#a)"><polyline points="35.12 42.53 34.19 43.23 33.37 44.05 32.67 44.97 32.1 45.98 31.67 47.06 31.38 48.18 31.26 49.33 31.28 50.49 31.47 51.64 31.8 52.74 32.29 53.8 32.91 54.78 33.65 55.66 34.51 56.44 35.47 57.1 36.5 57.62 37.6 57.99 38.74 58.22 39.89 58.29 41.05 58.2 42.18 57.96 43.27 57.57 44.3 57.04 45.25 56.37 46.1 55.58 46.83 54.68 47.44 53.69 47.9 52.63 48.21 50.98 48.57 49.69 51.15 50.4 50.79 51.69 50.49 53.35 49.9 54.75 49.13 56.06 48.19 57.25 47.09 58.31 45.87 59.21 44.53 59.94 43.11 60.48 41.63 60.82 40.12 60.96 38.6 60.9 37.11 60.63 35.66 60.16 34.29 59.5 33.02 58.67 31.88 57.67 30.88 56.52 30.04 55.26 29.38 53.89 28.91 52.44 28.64 50.94 28.58 49.43 28.72 47.91 29.06 46.43 29.6 45.01 30.33 43.68 31.23 42.45 32.28 41.36 33.47 40.42" style="fill:#8e0324;stroke:#8e0324;stroke-width:1.5px"/><polyline points="35.12 39.53 34.19 40.23 33.37 41.05 32.67 41.97 32.1 42.98 31.67 44.06 31.38 45.18 31.26 46.33 31.28 47.49 31.47 48.64 31.8 49.74 32.29 50.8 32.91 51.78 33.65 52.66 34.51 53.44 35.47 54.1 36.5 54.62 37.6 54.99 38.74 55.22 39.89 55.29 41.05 55.2 42.18 54.96 43.27 54.57 44.3 54.04 45.25 53.37 46.1 52.58 46.83 51.68 47.44 50.69 47.9 49.63 48.21 47.98 48.57 46.69 51.15 47.4 50.79 48.69 50.49 50.35 49.9 51.75 49.13 53.06 48.19 54.25 47.09 55.31 45.87 56.21 44.53 56.94 43.11 57.48 41.63 57.82 40.12 57.96 38.6 57.9 37.11 57.63 35.66 57.16 34.29 56.5 33.02 55.67 31.88 54.67 30.88 53.52 30.04 52.26 29.38 50.89 28.91 49.44 28.64 47.94 28.58 46.43 28.72 44.91 29.06 43.43 29.6 42.01 30.33 40.68 31.23 39.45 32.28 38.36 33.47 37.42" style="fill:#fffedb;stroke:#fffedb;stroke-width:1.5px"/><polyline points="48.22 55.26 49.24 54.14 50.1 52.88 50.78 51.53 51.28 50.09 51.57 48.6 51.67 47.08 51.56 45.57 51.24 44.08 50.73 42.65 50.03 41.3 49.16 40.06 48.12 38.95 46.95 37.98 45.65 37.19 44.26 36.57 42.8 36.15 41.3 35.93 22.55 35.56 21.21 35.54 21.16 38.21 22.5 38.24 41.25 38.6 42.39 38.79 43.5 39.14 44.55 39.63 45.52 40.25 46.41 41 47.18 41.87 47.83 42.83 48.34 43.86 48.71 44.96 48.93 46.1 48.99 47.26 48.9 48.41 48.66 49.55 48.26 50.63 47.72 51.66 47.04 52.6 46.25 53.45" style="fill:#8e0324;stroke:#8e0324;stroke-width:1.5px"/><polyline points="48.22 52.26 49.24 51.14 50.1 49.88 50.78 48.53 51.28 47.09 51.57 45.6 51.67 44.08 51.56 42.57 51.24 41.08 50.73 39.65 50.03 38.3 49.16 37.06 48.12 35.95 46.95 34.98 45.65 34.19 44.26 33.57 42.8 33.15 41.3 32.93 22.55 32.56 21.21 32.54 21.16 35.21 22.5 35.24 41.25 35.6 42.39 35.79 43.5 36.14 44.55 36.63 45.52 37.25 46.41 38 47.18 38.87 47.83 39.83 48.34 40.86 48.71 41.96 48.93 43.1 48.99 44.26 48.9 45.41 48.66 46.55 48.26 47.63 47.72 48.66 47.04 49.6 46.25 50.45" style="fill:#fffedb;stroke:#fffedb;stroke-width:1.5px"/><polyline points="77.39 74.97 77.59 74.82 77.81 74.67 78.04 74.51 78.29 74.36 79.53 73.64 79.83 73.49 80.14 73.34 80.47 73.19 80.84 73.05 81.13 72.94 81.33 72.87 81.43 72.84 81.54 72.81 81.64 72.78 81.76 72.74 81.88 72.71 82 72.68 82.13 72.65 84.08 72.21 84.26 72.17 84.44 72.14 84.62 72.11 84.82 72.08 85.02 72.05 85.24 72.03 85.46 72.01 85.69 72 85.93 71.99 101.4 71.98 102.03 71.98 102.02 68 101.4 68 85.93 68.01 85.58 68.02 85.25 68.03 84.93 68.06 84.63 68.09 84.33 68.12 84.05 68.16 83.78 68.21 83.53 68.26 83.28 68.31 81.25 68.76 81.07 68.81 80.89 68.85 80.72 68.9 80.56 68.94 80.41 68.99 80.26 69.03 80.11 69.08 79.87 69.16 79.5 69.3 79.02 69.48 78.54 69.69 78.09 69.9 77.67 70.12 76.31 70.91 75.95 71.12 75.62 71.34 75.31 71.56 75.01 71.78" style="fill:#8e0324"/><polyline points="77.39 71.97 77.59 71.82 77.81 71.67 78.04 71.51 78.29 71.36 79.53 70.64 79.83 70.49 80.14 70.34 80.47 70.19 80.84 70.05 81.13 69.94 81.33 69.87 81.43 69.84 81.54 69.81 81.64 69.78 81.76 69.74 81.88 69.71 82 69.68 82.13 69.65 84.08 69.21 84.26 69.17 84.44 69.14 84.62 69.11 84.82 69.08 85.02 69.05 85.24 69.03 85.46 69.01 85.69 69 85.93 68.99 101.4 68.98 102.03 68.98 102.02 65 101.4 65 85.93 65.01 85.58 65.02 85.25 65.03 84.93 65.06 84.63 65.09 84.33 65.12 84.05 65.16 83.78 65.21 83.53 65.26 83.28 65.31 81.25 65.76 81.07 65.81 80.89 65.85 80.72 65.9 80.56 65.94 80.41 65.99 80.26 66.03 80.11 66.08 79.87 66.16 79.5 66.3 79.02 66.48 78.54 66.69 78.09 66.9 77.67 67.12 76.31 67.91 75.95 68.12 75.62 68.34 75.31 68.56 75.01 68.78" style="fill:#fffedb"/><polyline points="74.32 78.39 74.36 78.32 74.4 78.25 74.44 78.17 74.48 78.09 74.53 78.01 74.58 77.93 74.63 77.84 74.69 77.75 74.75 77.66 74.81 77.57 74.88 77.47 74.95 77.37 75.02 77.26 75.1 77.16 75.19 77.04 75.28 76.93 75.37 76.81 75.47 76.69 75.58 76.57 75.69 76.44 75.82 76.31 75.94 76.18 76.08 76.04 76.23 75.91 76.38 75.77 76.55 75.62 76.72 75.48 76.91 75.33 77.14 75.16 77.39 74.97 75.01 71.78 74.77 71.96 74.53 72.14 74.26 72.34 74.01 72.55 73.78 72.75 73.56 72.95 73.34 73.15 73.15 73.34 72.96 73.53 72.79 73.72 72.63 73.9 72.47 74.08 72.33 74.25 72.19 74.42 72.06 74.58 71.94 74.74 71.82 74.89 71.72 75.04 71.61 75.19 71.52 75.33 71.43 75.46 71.34 75.59 71.26 75.72 71.19 75.84 71.12 75.96 71.05 76.08 70.98 76.19 70.92 76.3 70.87 76.4 70.81 76.5" style="fill:#8e0324"/><polyline points="74.32 75.39 74.36 75.32 74.4 75.25 74.44 75.17 74.48 75.09 74.53 75.01 74.58 74.93 74.63 74.84 74.69 74.75 74.75 74.66 74.81 74.57 74.88 74.47 74.95 74.37 75.02 74.26 75.1 74.16 75.19 74.04 75.28 73.93 75.37 73.81 75.47 73.69 75.58 73.57 75.69 73.44 75.82 73.31 75.94 73.18 76.08 73.04 76.23 72.91 76.38 72.77 76.55 72.62 76.72 72.48 76.91 72.33 77.14 72.16 77.39 71.97 75.01 68.78 74.77 68.96 74.53 69.14 74.26 69.34 74.01 69.55 73.78 69.75 73.56 69.95 73.34 70.15 73.15 70.34 72.96 70.53 72.79 70.72 72.63 70.9 72.47 71.08 72.33 71.25 72.19 71.42 72.06 71.58 71.94 71.74 71.82 71.89 71.72 72.04 71.61 72.19 71.52 72.33 71.43 72.46 71.34 72.59 71.26 72.72 71.19 72.84 71.12 72.96 71.05 73.08 70.98 73.19 70.92 73.3 70.87 73.4 70.81 73.5" style="fill:#fffedb"/><polyline points="0.36 50.5 59.18 82.72 60.6 83.26 62.08 83.6 63.59 83.75 65.11 83.69 66.6 83.42 68.05 82.96 69.42 82.3 70.69 81.47 71.84 80.47 72.84 79.33 73.68 78.06 71.28 76.88 70.62 77.83 69.84 78.69 68.95 79.43 67.97 80.05 66.92 80.53 65.81 80.86 64.66 81.05 63.5 81.07 62.35 80.94 61.23 80.66 60.15 80.22 1.66 48.16" style="fill:#8e0324;stroke:#8e0324;stroke-width:1.5px"/><polyline points="0.36 47.5 59.18 79.72 60.6 80.26 62.08 80.6 63.59 80.75 65.11 80.69 66.6 80.42 68.05 79.96 69.42 79.3 70.69 78.47 71.84 77.47 72.84 76.33 73.68 75.06 71.28 73.88 70.62 74.83 69.84 75.69 68.95 76.43 67.97 77.05 66.92 77.53 65.81 77.86 64.66 78.05 63.5 78.07 62.35 77.94 61.23 77.66 60.15 77.22 1.66 45.16" style="fill:#fffedb;stroke:#fffedb;stroke-width:1.5px"/><path d="M3.63,99.82l.94,5.46L5,106.72l.66,1.37.84,1.27,1,1.15,1.14,1,1.27.84,1.37.66,1.45.47,1.5.27,1.52.07,1.51-.14,1.48-.34,1.42-.54,1.34-.73c4.4-2.17,2.53-4.48,8.74-4.45l-.16-2.9c-5.31-.76-7.11,3.68-10.15,5.18l-1,.53-1.09.39L16.7,111l-1.16.09-1.16-.07-1.14-.23-1.1-.38-1-.52-1-.66-.86-.78-.75-.89-.62-1-.48-1.05-.34-1.11L3.19,92.32" transform="translate(31.67 -2.82)" style="fill:#8e0324;stroke:#8e0324;stroke-width:1.5px"/><path d="M3.63,96.82l.94,5.46L5,103.72l.66,1.37.84,1.27,1,1.15,1.14,1,1.27.84,1.37.66,1.45.47,1.5.27,1.52.07,1.51-.14,1.48-.34,1.42-.54,1.34-.73c4.4-2.17,2.53-4.48,8.74-4.45l-.16-2.9c-5.31-.76-7.11,3.68-10.15,5.18l-1,.53-1.09.39L16.7,108l-1.16.09-1.16-.07-1.14-.23-1.1-.38-1-.52-1-.66-.86-.78-.75-.89-.62-1-.48-1.05-.34-1.11L3.19,89.32" transform="translate(31.67 -2.82)" style="fill:#fffedb;stroke:#fffedb;stroke-width:1.5px"/><polyline points="61.77 101.88 63.19 102.42 64.53 103.14 65.75 104.04 66.85 105.1 67.79 106.29 68.56 107.6 69.15 109 69.54 110.47 69.74 111.98 69.72 113.5 69.51 115 69.09 116.46 68.48 117.85 67.69 119.15 66.73 120.33 65.62 121.37 64.39 122.25 63.04 122.95 61.61 123.47 60.12 123.79 58.61 123.91 40.06 122.97 38.91 123.06 37.77 123.3 36.68 123.69 35.66 124.23 34.71 124.9 27.78 131.48 26.54 132.36 25.2 133.06 23.77 133.58 22.28 133.9 20.77 134.02 19.25 133.93 17.76 133.64 16.32 133.15 14.96 132.47 13.7 131.62 12.57 130.6 11.59 129.44 10.78 128.16 10.14 126.78 9.69 125.32 12.33 124.87 12.69 125.97 13.2 127.02 13.84 127.98 14.6 128.85 15.48 129.61 16.45 130.25 17.5 130.74 18.6 131.1 19.74 131.3 20.9 131.34 22.05 131.23 23.18 130.97 24.26 130.55 25.28 130 26.21 129.31 32.86 122.96 34.09 122.06 35.42 121.33 36.84 120.79 38.32 120.45 39.84 120.31 58.74 121.23 59.9 121.12 61.02 120.86 62.11 120.44 63.12 119.89 64.06 119.2 64.89 118.39 65.6 117.48 66.19 116.48 66.63 115.41 66.93 114.29 67.07 113.14 67.06 111.98 66.89 110.83 66.57 109.72 66.1 108.66 65.49 107.67 64.76 106.77 63.91 105.98 62.96 105.32 61.93 104.78 60.84 104.39" style="fill:#8e0324;stroke:#8e0324;stroke-width:1.5px"/><polyline points="61.77 98.88 63.19 99.42 64.53 100.14 65.75 101.04 66.85 102.1 67.79 103.29 68.56 104.6 69.15 106 69.54 107.47 69.74 108.98 69.72 110.5 69.51 112 69.09 113.46 68.48 114.85 67.69 116.15 66.73 117.33 65.62 118.37 64.39 119.25 63.04 119.95 61.61 120.47 60.12 120.79 58.61 120.91 40.06 119.97 38.91 120.06 37.77 120.3 36.68 120.69 35.66 121.23 34.71 121.9 27.78 128.48 26.54 129.36 25.2 130.06 23.77 130.58 22.28 130.9 20.77 131.02 19.25 130.93 17.76 130.64 16.32 130.15 14.96 129.47 13.7 128.62 12.57 127.6 11.59 126.44 10.78 125.16 10.14 123.78 9.69 122.32 12.33 121.87 12.69 122.97 13.2 124.02 13.84 124.98 14.6 125.85 15.48 126.61 16.45 127.25 17.5 127.74 18.6 128.1 19.74 128.3 20.9 128.34 22.05 128.23 23.18 127.97 24.26 127.55 25.28 127 26.21 126.31 32.86 119.96 34.09 119.06 35.42 118.33 36.84 117.79 38.32 117.45 39.84 117.31 58.74 118.23 59.9 118.12 61.02 117.86 62.11 117.44 63.12 116.89 64.06 116.2 64.89 115.39 65.6 114.48 66.19 113.48 66.63 112.41 66.93 111.29 67.07 110.14 67.06 108.98 66.89 107.83 66.57 106.72 66.1 105.66 65.49 104.67 64.76 103.77 63.91 102.98 62.96 102.32 61.93 101.78 60.84 101.39" style="fill:#fffedb;stroke:#fffedb;stroke-width:1.5px"/><polyline points="27.14 93.91 45.02 84.37 46.25 83.47 47.34 82.41 48.28 81.22 49.06 79.91 49.65 78.51 50.04 77.04 50.23 75.53 50.22 74.02 50.01 72.51 49.59 71.05 48.98 69.66 48.19 68.36 47.23 67.18 46.12 66.14 35.41 58.41 34.56 57.63 32.47 59.3 33.56 60.35 44.55 68.31 45.38 69.12 46.1 70.03 46.68 71.03 47.13 72.11 47.42 73.22 47.57 74.38 47.55 75.53 47.39 76.68 47.06 77.79 46.6 78.85 45.99 79.84 45.26 80.74 44.41 81.53 43.46 82.19 25.88 91.55" style="fill:#8e0324;stroke:#8e0324;stroke-width:1.5px"/><polyline points="27.14 90.91 45.02 81.37 46.25 80.47 47.34 79.41 48.28 78.22 49.06 76.91 49.65 75.51 50.04 74.04 50.23 72.53 50.22 71.02 50.01 69.51 49.59 68.05 48.98 66.66 48.19 65.36 47.23 64.18 46.12 63.14 35.41 55.41 34.56 54.63 32.47 56.3 33.56 57.35 44.55 65.31 45.38 66.12 46.1 67.03 46.68 68.03 47.13 69.11 47.42 70.22 47.57 71.38 47.55 72.53 47.39 73.68 47.06 74.79 46.6 75.85 45.99 76.84 45.26 77.74 44.41 78.53 43.46 79.19 25.88 88.55" style="fill:#fffedb;stroke:#fffedb;stroke-width:1.5px"/><polyline points="78.88 136.78 70.83 118.18 70.04 116.89 69.07 115.71 67.96 114.67 66.72 113.8 65.37 113.1 63.94 112.58 62.45 112.27 60.94 112.16 59.42 112.25 57.93 112.54 56.49 113.04 55.14 113.72 53.88 114.58 52.76 115.6 44.18 125.65 43.32 126.43 44.82 128.65 45.96 127.65 54.79 117.34 55.67 116.58 56.63 115.94 57.68 115.44 58.78 115.08 59.92 114.88 61.08 114.83 62.23 114.94 63.36 115.2 64.45 115.61 65.47 116.17 66.4 116.85 67.23 117.66 67.95 118.57 68.54 119.57 76.42 137.85" style="fill:#8e0324;stroke:#8e0324;stroke-width:1.5px"/><polyline points="78.88 133.78 70.83 115.18 70.04 113.89 69.07 112.71 67.96 111.67 66.72 110.8 65.37 110.1 63.94 109.58 62.45 109.27 60.94 109.16 59.42 109.25 57.93 109.54 56.49 110.04 55.14 110.72 53.88 111.58 52.76 112.6 44.18 122.65 43.32 123.43 44.82 125.65 45.96 124.65 54.79 114.34 55.67 113.58 56.63 112.94 57.68 112.44 58.78 112.08 59.92 111.88 61.08 111.83 62.23 111.94 63.36 112.2 64.45 112.61 65.47 113.17 66.4 113.85 67.23 114.66 67.95 115.57 68.54 116.57 76.42 134.85" style="fill:#fffedb;stroke:#fffedb;stroke-width:1.5px"/><polyline points="19.85 81.56 21 81.37 22.15 81.34 23.3 81.47 68.48 93.3 69.55 93.73 70.56 94.3 71.48 95 72.3 95.82 73 96.75 73.57 97.75 74 98.83 81.42 129.92 81.54 131.07 81.51 132.23 81.33 133.38 80.99 134.48 80.5 135.54 79.88 136.51 79.14 137.4 78.28 138.18 77.32 138.83 76.28 139.35 75.19 139.72 74.05 139.95 72.89 140.01 71.73 139.93 70.6 139.68 69.51 139.29 68.48 138.75 67.54 138.08 65.69 140.02 66.91 140.92 68.25 141.65 69.67 142.19 71.15 142.54 72.66 142.68 74.18 142.62 75.67 142.36 77.12 141.89 78.49 141.24 79.76 140.4 80.91 139.41 81.91 138.26 82.75 137 83.41 135.63 83.88 134.18 84.15 132.69 84.22 131.17 84.08 129.66 76.61 98.21 76.07 96.79 75.35 95.45 74.45 94.22 73.4 93.13 72.21 92.19 70.9 91.41 69.5 90.82 23.98 78.88 22.48 78.68 20.96 78.69 19.45 78.91" style="fill:#8e0324;stroke:#8e0324;stroke-width:1.5px"/><polyline points="19.85 78.56 21 78.37 22.15 78.34 23.3 78.47 68.48 90.3 69.55 90.73 70.56 91.3 71.48 92 72.3 92.82 73 93.75 73.57 94.75 74 95.83 81.42 126.92 81.54 128.07 81.51 129.23 81.33 130.38 80.99 131.48 80.5 132.54 79.88 133.51 79.14 134.4 78.28 135.18 77.32 135.83 76.28 136.35 75.19 136.72 74.05 136.95 72.89 137.01 71.73 136.93 70.6 136.68 69.51 136.29 68.48 135.75 67.54 135.08 65.69 137.02 66.91 137.92 68.25 138.65 69.67 139.19 71.15 139.54 72.66 139.68 74.18 139.62 75.67 139.36 77.12 138.89 78.49 138.24 79.76 137.4 80.91 136.41 81.91 135.26 82.75 134 83.41 132.63 83.88 131.18 84.15 129.69 84.22 128.17 84.08 126.66 76.61 95.21 76.07 93.79 75.35 92.45 74.45 91.22 73.4 90.13 72.21 89.19 70.9 88.41 69.5 87.82 23.98 75.88 22.48 75.68 20.96 75.69 19.45 75.91" style="fill:#fffedb;stroke:#fffedb;stroke-width:1.5px"/><polygon points="48.79 57.07 61.68 59.98 62.77 60.38 63.79 60.91 64.74 61.59 65.58 62.38 66.32 63.28 66.92 64.27 67.38 65.33 67.7 66.44 67.87 67.59 67.88 68.75 67.73 69.9 67.43 71.02 66.98 72.09 66.39 73.08 65.67 73.99 64.84 74.8 63.9 75.48 62.88 76.04 61.8 76.45 60.67 76.71 60.89 79.38 62.38 79.06 63.81 78.55 65.16 77.85 66.4 76.98 67.51 75.94 68.47 74.77 69.27 73.47 69.89 72.08 70.31 70.62 70.53 69.12 70.55 67.6 70.36 66.09 69.97 64.62 69.38 63.22 68.62 61.91 67.68 60.71 66.59 59.65 65.37 58.75 64.03 58.02 62.62 57.47 49.38 54.46 48.27 54.14 47.21 53.67 46.22 53.07 45.32 52.34 44.53 51.49 43.86 50.55 43.32 49.52 42.93 48.43 42.69 47.29 42.6 46.14 42.67 44.98 42.89 43.84 43.27 42.75 43.78 41.71 44.44 40.76 45.22 39.9 46.1 39.15 47.08 38.53 48.13 38.04 49.24 37.7 50.38 37.52 51.54 37.49 52.7 37.62 53.82 37.9 54.9 38.33 55.91 38.9 56.83 39.6 57.65 40.41 58.35 41.34 60.69 40.04 59.8 38.81 58.74 37.72 57.55 36.78 56.24 36.01 54.84 35.42 53.37 35.02 51.86 34.83 50.34 34.84 48.84 35.05 47.38 35.47 45.99 36.08 44.69 36.87 43.51 37.83 42.47 38.94 41.59 40.18 40.88 41.52 40.37 42.95 40.04 44.44 39.93 45.95 40.01 47.47 40.3 48.96 40.79 50.4 41.47 51.76 42.33 53.02 43.34 54.15 44.5 55.13 45.78 55.95 47.16 56.58 48.62 57.03 48.79 57.07" style="fill:#8e0324"/><polygon points="48.79 57.07 61.68 59.98 62.77 60.38 63.79 60.91 64.74 61.59 65.58 62.38 66.32 63.28 66.92 64.27 67.38 65.33 67.7 66.44 67.87 67.59 67.88 68.75 67.73 69.9 67.43 71.02 66.98 72.09 66.39 73.08 65.67 73.99 64.84 74.8 63.9 75.48 62.88 76.04 61.8 76.45 60.67 76.71 60.89 79.38 62.38 79.06 63.81 78.55 65.16 77.85 66.4 76.98 67.51 75.94 68.47 74.77 69.27 73.47 69.89 72.08 70.31 70.62 70.53 69.12 70.55 67.6 70.36 66.09 69.97 64.62 69.38 63.22 68.62 61.91 67.68 60.71 66.59 59.65 65.37 58.75 64.03 58.02 62.62 57.47 49.38 54.46 48.27 54.14 47.21 53.67 46.22 53.07 45.32 52.34 44.53 51.49 43.86 50.55 43.32 49.52 42.93 48.43 42.69 47.29 42.6 46.14 42.67 44.98 42.89 43.84 43.27 42.75 43.78 41.71 44.44 40.76 45.22 39.9 46.1 39.15 47.08 38.53 48.13 38.04 49.24 37.7 50.38 37.52 51.54 37.49 52.7 37.62 53.82 37.9 54.9 38.33 55.91 38.9 56.83 39.6 57.65 40.41 58.35 41.34 60.69 40.04 59.8 38.81 58.74 37.72 57.55 36.78 56.24 36.01 54.84 35.42 53.37 35.02 51.86 34.83 50.34 34.84 48.84 35.05 47.38 35.47 45.99 36.08 44.69 36.87 43.51 37.83 42.47 38.94 41.59 40.18 40.88 41.52 40.37 42.95 40.04 44.44 39.93 45.95 40.01 47.47 40.3 48.96 40.79 50.4 41.47 51.76 42.33 53.02 43.34 54.15 44.5 55.13 45.78 55.95 47.16 56.58 48.62 57.03 48.79 57.07" style="fill:none;stroke:#8e0324;stroke-width:1.5px"/><polygon points="48.79 54.07 61.68 56.98 62.77 57.38 63.79 57.91 64.74 58.59 65.58 59.38 66.32 60.28 66.92 61.27 67.38 62.33 67.7 63.44 67.87 64.59 67.88 65.75 67.73 66.9 67.43 68.02 66.98 69.09 66.39 70.08 65.67 70.99 64.84 71.8 63.9 72.48 62.88 73.04 61.8 73.45 60.67 73.71 60.89 76.38 62.38 76.06 63.81 75.55 65.16 74.85 66.4 73.98 67.51 72.94 68.47 71.77 69.27 70.47 69.89 69.08 70.31 67.62 70.53 66.12 70.55 64.6 70.36 63.09 69.97 61.62 69.38 60.22 68.62 58.91 67.68 57.71 66.59 56.65 65.37 55.75 64.03 55.02 62.62 54.47 49.38 51.46 48.27 51.14 47.21 50.67 46.22 50.07 45.32 49.34 44.53 48.49 43.86 47.55 43.32 46.52 42.93 45.43 42.69 44.29 42.6 43.14 42.67 41.98 42.89 40.84 43.27 39.75 43.78 38.71 44.44 37.76 45.22 36.9 46.1 36.15 47.08 35.53 48.13 35.04 49.24 34.7 50.38 34.52 51.54 34.49 52.7 34.62 53.82 34.9 54.9 35.33 55.91 35.9 56.83 36.6 57.65 37.41 58.35 38.34 60.69 37.04 59.8 35.81 58.74 34.72 57.55 33.78 56.24 33.01 54.84 32.42 53.37 32.02 51.86 31.83 50.34 31.84 48.84 32.05 47.38 32.47 45.99 33.08 44.69 33.87 43.51 34.83 42.47 35.94 41.59 37.18 40.88 38.52 40.37 39.95 40.04 41.44 39.93 42.95 40.01 44.47 40.3 45.96 40.79 47.4 41.47 48.76 42.33 50.02 43.34 51.15 44.5 52.13 45.78 52.95 47.16 53.58 48.62 54.03 48.79 54.07" style="fill:#fffedb"/><polygon points="48.79 54.07 61.68 56.98 62.77 57.38 63.79 57.91 64.74 58.59 65.58 59.38 66.32 60.28 66.92 61.27 67.38 62.33 67.7 63.44 67.87 64.59 67.88 65.75 67.73 66.9 67.43 68.02 66.98 69.09 66.39 70.08 65.67 70.99 64.84 71.8 63.9 72.48 62.88 73.04 61.8 73.45 60.67 73.71 60.89 76.38 62.38 76.06 63.81 75.55 65.16 74.85 66.4 73.98 67.51 72.94 68.47 71.77 69.27 70.47 69.89 69.08 70.31 67.62 70.53 66.12 70.55 64.6 70.36 63.09 69.97 61.62 69.38 60.22 68.62 58.91 67.68 57.71 66.59 56.65 65.37 55.75 64.03 55.02 62.62 54.47 49.38 51.46 48.27 51.14 47.21 50.67 46.22 50.07 45.32 49.34 44.53 48.49 43.86 47.55 43.32 46.52 42.93 45.43 42.69 44.29 42.6 43.14 42.67 41.98 42.89 40.84 43.27 39.75 43.78 38.71 44.44 37.76 45.22 36.9 46.1 36.15 47.08 35.53 48.13 35.04 49.24 34.7 50.38 34.52 51.54 34.49 52.7 34.62 53.82 34.9 54.9 35.33 55.91 35.9 56.83 36.6 57.65 37.41 58.35 38.34 60.69 37.04 59.8 35.81 58.74 34.72 57.55 33.78 56.24 33.01 54.84 32.42 53.37 32.02 51.86 31.83 50.34 31.84 48.84 32.05 47.38 32.47 45.99 33.08 44.69 33.87 43.51 34.83 42.47 35.94 41.59 37.18 40.88 38.52 40.37 39.95 40.04 41.44 39.93 42.95 40.01 44.47 40.3 45.96 40.79 47.4 41.47 48.76 42.33 50.02 43.34 51.15 44.5 52.13 45.78 52.95 47.16 53.58 48.62 54.03 48.79 54.07" style="fill:none;stroke:#fffedb;stroke-width:1.5px"/><path d="M55,41.79l-.42-1.46-.62-1.39-.8-1.29-5.65-7.14-1.11-1-1.24-.87-1.35-.7-1.43-.51-1.49-.31L39.34,27l-1.52.1-1.49.3-1.44.5-1.36.69-1.25.86-1.12,1-1,1.16-2.06,3.24-.74.89-.86.78-1,.66-1,.53-1.09.38-1.14.23-1.16.08L20,38.29a7.59,7.59,0,0,1-3.59-2.85c-1.67-2.3-4.56-2.59-2.25,1.42s5.27,4.05,5.27,4.05l1.51.13L22.46,41,24,40.7l1.44-.47,1.37-.66L28,38.72l1.14-1,1-1.15L32.44,33l.76-.87.87-.76,1-.64,1-.5,1.1-.36,1.14-.21,1.16-.05,1.15.11,1.13.26,1.08.41,1,.55.94.68.83.8L51,39.34l.59,1,.45,1.07.3,1.12" transform="translate(31.67 -2.82)" style="fill:#8e0324;stroke:#8e0324;stroke-width:1.5px"/><path d="M55,38.79l-.42-1.46-.62-1.39-.8-1.29-5.65-7.14-1.11-1-1.24-.87-1.35-.7-1.43-.51-1.49-.31L39.34,24l-1.52.1-1.49.3-1.44.5-1.36.69-1.25.86-1.12,1-1,1.16-2.06,3.24-.74.89-.86.78-1,.66-1,.53-1.09.38-1.14.23-1.16.08L20,35.29a7.59,7.59,0,0,1-3.59-2.85c-1.67-2.3-4.56-2.59-2.25,1.42s5.27,4.05,5.27,4.05l1.51.13L22.46,38,24,37.7l1.44-.47,1.37-.66L28,35.72l1.14-1,1-1.15L32.44,30l.76-.87.87-.76,1-.64,1-.5,1.1-.36,1.14-.21,1.16-.05,1.15.11,1.13.26,1.08.41,1,.55.94.68.83.8L51,36.34l.59,1,.45,1.07.3,1.12" transform="translate(31.67 -2.82)" style="fill:#fffedb;stroke:#fffedb;stroke-width:1.5px"/><polyline points="60.5 55.95 69.19 34.9 80.3 5.5 77.82 4.48 66.72 33.88 58.02 54.92" style="fill:#8e0324;stroke:#8e0324;stroke-width:1.5px"/><polyline points="60.5 52.95 69.19 31.9 80.3 2.5 77.82 1.48 66.72 30.88 58.02 51.92" style="fill:#fffedb;stroke:#fffedb;stroke-width:1.5px"/><polyline points="63.16 100.51 64.58 99.95 65.9 99.21 67.12 98.29 68.19 97.22 69.12 96.01 69.87 94.69 70.44 93.28 70.82 91.81 70.99 90.3 70.95 88.78 70.72 87.28 70.28 85.83 69.65 84.44 68.84 83.16 67.87 81.99 66.74 80.97 65.49 80.11 59.7 77.13 58.74 76.47 57.88 75.69 57.14 74.81 56.52 73.83 56.03 72.77 55.7 71.66 55.52 70.52 55.49 69.36 55.62 68.21 55.9 67.09 59.99 57.18 60.5 55.95 58.02 54.92 57.51 56.16 53.42 66.06 53.02 67.53 52.83 69.04 52.84 70.56 53.05 72.06 53.46 73.52 54.07 74.92 54.86 76.22 55.81 77.4 56.92 78.44 58.16 79.32 64.26 82.49 65.21 83.16 66.05 83.96 66.78 84.86 67.37 85.85 67.83 86.92 68.15 88.03 68.31 89.18 68.31 90.34 68.16 91.49 67.85 92.61 67.4 93.67 66.8 94.67 66.08 95.57 65.25 96.37 64.31 97.06 63.29 97.6 62.2 98.01" style="fill:#8e0324;stroke:#8e0324;stroke-width:1.5px"/><polyline points="63.16 97.51 64.58 96.95 65.9 96.21 67.12 95.29 68.19 94.22 69.12 93.01 69.87 91.69 70.44 90.28 70.82 88.81 70.99 87.3 70.95 85.78 70.72 84.28 70.28 82.83 69.65 81.44 68.84 80.16 67.87 78.99 66.74 77.97 65.49 77.11 59.7 74.13 58.74 73.47 57.88 72.69 57.14 71.81 56.52 70.83 56.03 69.77 55.7 68.66 55.52 67.52 55.49 66.36 55.62 65.21 55.9 64.09 59.99 54.18 60.5 52.95 58.02 51.92 57.51 53.16 53.42 63.06 53.02 64.53 52.83 66.04 52.84 67.56 53.05 69.06 53.46 70.52 54.07 71.92 54.86 73.22 55.81 74.4 56.92 75.44 58.16 76.32 64.26 79.49 65.21 80.16 66.05 80.96 66.78 81.86 67.37 82.85 67.83 83.92 68.15 85.03 68.31 86.18 68.31 87.34 68.16 88.49 67.85 89.61 67.4 90.67 66.8 91.67 66.08 92.57 65.25 93.37 64.31 94.06 63.29 94.6 62.2 95.01" style="fill:#fffedb;stroke:#fffedb;stroke-width:1.5px"/><path d="M-6.71,62.53l.93,26.95.27,1.5L-5,92.43l.66,1.37.84,1.27,1,1.14,1.14,1L-.14,98l1.37.66,1.45.47,25.19,4.72a8.08,8.08,0,0,0,3.63-.56l-1-2.5a6.41,6.41,0,0,1-2.53.39L3.17,96.54l-1.1-.38-1-.52L.09,95l-.86-.78-.75-.89-.62-1-.48-1.05L-3,90.18-3.14,89-4,62.44" transform="translate(31.67 -2.82)" style="fill:#8e0324;stroke:#8e0324;stroke-linecap:square;stroke-linejoin:round;stroke-width:1.5px"/><path d="M-6.71,59.53l.93,26.95.27,1.5L-5,89.43l.66,1.37.84,1.27,1,1.14,1.14,1L-.14,95l1.37.66,1.45.47,25.19,4.72a8.08,8.08,0,0,0,3.63-.56l-1-2.5a6.41,6.41,0,0,1-2.53.39L3.17,93.54l-1.1-.38-1-.52L.09,92l-.86-.78-.75-.89-.62-1-.48-1.05L-3,87.18-3.14,86-4,59.44" transform="translate(31.67 -2.82)" style="fill:#fffedb;stroke:#fffedb;stroke-linecap:square;stroke-linejoin:round;stroke-width:1.5px"/><polyline points="48.86 92.9 50.32 92.46 51.7 91.83 52.98 91.02 54.15 90.04 55.17 88.92 56.03 87.67 56.71 86.31 57.21 84.87 59.88 71.93 60.26 70.84 60.78 69.8 61.43 68.84 73.35 55.91 74.21 54.65 74.89 53.3 75.39 51.86 75.69 50.37 75.78 48.85 75.67 47.34 75.35 45.85 74.84 44.42 74.14 43.07 73.27 41.83 72.23 40.71 71.06 39.75 69.76 38.95 68.37 38.34 66.91 37.92 65.41 37.7 63.89 37.68 62.38 37.87 60.91 38.25 61.92 40.74 63.05 40.46 64.2 40.34 65.36 40.37 66.5 40.56 67.61 40.91 68.66 41.4 69.63 42.02 70.52 42.77 71.29 43.63 71.94 44.59 72.45 45.63 72.82 46.73 73.04 47.87 73.11 49.03 73.01 50.18 72.77 51.31 72.37 52.4 71.83 53.43 71.15 54.37 59.46 67.03 58.58 68.27 57.88 69.61 57.36 71.04 54.59 84.33 54.19 85.42 53.65 86.44 52.97 87.38 52.18 88.23 51.28 88.96 50.29 89.56 49.22 90.02 48.11 90.33" style="fill:#8e0324"/><polyline points="48.86 92.9 50.32 92.46 51.7 91.83 52.98 91.02 54.15 90.04 55.17 88.92 56.03 87.67 56.71 86.31 57.21 84.87 59.88 71.93 60.26 70.84 60.78 69.8 61.43 68.84 73.35 55.91 74.21 54.65 74.89 53.3 75.39 51.86 75.69 50.37 75.78 48.85 75.67 47.34 75.35 45.85 74.84 44.42 74.14 43.07 73.27 41.83 72.23 40.71 71.06 39.75 69.76 38.95 68.37 38.34 66.91 37.92 65.41 37.7 63.89 37.68 62.38 37.87 60.91 38.25 61.92 40.74 63.05 40.46 64.2 40.34 65.36 40.37 66.5 40.56 67.61 40.91 68.66 41.4 69.63 42.02 70.52 42.77 71.29 43.63 71.94 44.59 72.45 45.63 72.82 46.73 73.04 47.87 73.11 49.03 73.01 50.18 72.77 51.31 72.37 52.4 71.83 53.43 71.15 54.37 59.46 67.03 58.58 68.27 57.88 69.61 57.36 71.04 54.59 84.33 54.19 85.42 53.65 86.44 52.97 87.38 52.18 88.23 51.28 88.96 50.29 89.56 49.22 90.02 48.11 90.33" style="fill:none;stroke:#8e0324;stroke-width:1.5px"/><polyline points="48.86 89.9 50.32 89.46 51.7 88.83 52.98 88.02 54.15 87.04 55.17 85.92 56.03 84.67 56.71 83.31 57.21 81.87 59.88 68.93 60.26 67.84 60.78 66.8 61.43 65.84 73.35 52.91 74.21 51.65 74.89 50.3 75.39 48.86 75.69 47.37 75.78 45.85 75.67 44.34 75.35 42.85 74.84 41.42 74.14 40.07 73.27 38.83 72.23 37.71 71.06 36.75 69.76 35.95 68.37 35.34 66.91 34.92 65.41 34.7 63.89 34.68 62.38 34.87 60.91 35.25 61.92 37.74 63.05 37.46 64.2 37.34 65.36 37.37 66.5 37.56 67.61 37.91 68.66 38.4 69.63 39.02 70.52 39.77 71.29 40.63 71.94 41.59 72.45 42.63 72.82 43.73 73.04 44.87 73.11 46.03 73.01 47.18 72.77 48.31 72.37 49.4 71.83 50.43 71.15 51.37 59.46 64.03 58.58 65.27 57.88 66.61 57.36 68.04 54.59 81.33 54.19 82.42 53.65 83.44 52.97 84.38 52.18 85.23 51.28 85.96 50.29 86.56 49.22 87.02 48.11 87.33" style="fill:#fffedb"/><polyline points="48.86 89.9 50.32 89.46 51.7 88.83 52.98 88.02 54.15 87.04 55.17 85.92 56.03 84.67 56.71 83.31 57.21 81.87 59.88 68.93 60.26 67.84 60.78 66.8 61.43 65.84 73.35 52.91 74.21 51.65 74.89 50.3 75.39 48.86 75.69 47.37 75.78 45.85 75.67 44.34 75.35 42.85 74.84 41.42 74.14 40.07 73.27 38.83 72.23 37.71 71.06 36.75 69.76 35.95 68.37 35.34 66.91 34.92 65.41 34.7 63.89 34.68 62.38 34.87 60.91 35.25 61.92 37.74 63.05 37.46 64.2 37.34 65.36 37.37 66.5 37.56 67.61 37.91 68.66 38.4 69.63 39.02 70.52 39.77 71.29 40.63 71.94 41.59 72.45 42.63 72.82 43.73 73.04 44.87 73.11 46.03 73.01 47.18 72.77 48.31 72.37 49.4 71.83 50.43 71.15 51.37 59.46 64.03 58.58 65.27 57.88 66.61 57.36 68.04 54.59 81.33 54.19 82.42 53.65 83.44 52.97 84.38 52.18 85.23 51.28 85.96 50.29 86.56 49.22 87.02 48.11 87.33" style="fill:none;stroke:#fffedb;stroke-width:1.5px"/><polyline points="84.03 39.59 84.31 40.72 84.44 41.87 84.41 43.03 84.22 44.17 83.89 45.28 83.41 46.34 82.78 47.31 82.04 48.2 81.18 48.98 80.22 49.63 79.19 50.16 78.09 50.53 76.95 50.76 75.8 50.83 74.64 50.74 73.51 50.5 72.42 50.1 70.44 48.9 70.44 48.9 61.45 40.93 59.1 42.08 68.59 50.84 69.82 51.74 71.16 52.47 72.58 53.01 74.06 53.35 75.57 53.49 77.09 53.43 78.58 53.16 80.03 52.7 81.4 52.04 82.67 51.2 83.81 50.21 84.81 49.06 85.65 47.79 86.31 46.42 86.78 44.98 87.05 43.48 87.11 41.97 86.97 40.45 86.63 38.97" style="fill:#8e0324;stroke:#8e0324;stroke-width:1.5px"/><polyline points="84.03 36.59 84.31 37.72 84.44 38.87 84.41 40.03 84.22 41.17 83.89 42.28 83.41 43.34 82.78 44.31 82.04 45.2 81.18 45.98 80.22 46.63 79.19 47.16 78.09 47.53 76.95 47.76 75.8 47.83 74.64 47.74 73.51 47.5 72.42 47.1 70.44 45.9 70.44 45.9 61.45 37.93 59.1 39.08 68.59 47.84 69.82 48.74 71.16 49.47 72.58 50.01 74.06 50.35 75.57 50.49 77.09 50.43 78.58 50.16 80.03 49.7 81.4 49.04 82.67 48.2 83.81 47.21 84.81 46.06 85.65 44.79 86.31 43.42 86.78 41.98 87.05 40.48 87.11 38.97 86.97 37.45 86.63 35.97" style="fill:#fffedb;stroke:#fffedb;stroke-width:1.5px"/><polyline points="34.56 102.46 40.81 96.26 41.69 95.52 42.67 94.89 43.72 94.41 47.58 93.28 48.86 92.9 48.11 90.33 46.82 90.71 42.97 91.84 41.58 92.45 40.28 93.24 39.1 94.2 32.59 100.65" style="fill:#8e0324;stroke:#8e0324;stroke-width:1.5px"/><polyline points="34.56 99.46 40.81 93.26 41.69 92.52 42.67 91.89 43.72 91.41 47.58 90.28 48.86 89.9 48.11 87.33 46.82 87.71 42.97 88.84 41.58 89.45 40.28 90.24 39.1 91.2 32.59 97.65" style="fill:#fffedb;stroke:#fffedb;stroke-width:1.5px"/><path d="M32.22,40.5l-1.51.19-1.47.39-12.41,5-1.24.5L2.39,52l.66,2.59L16.6,49.1l1.24-.5,12.41-5,1.13-.28,1.15-.12a8.9,8.9,0,0,1,2.73.36" transform="translate(31.67 -2.82)" style="fill:#8e0324"/><path d="M32.22,40.5l-1.51.19-1.47.39-12.41,5-1.24.5L2.39,52l.66,2.59L16.6,49.1l1.24-.5,12.41-5,1.13-.28,1.15-.12a8.9,8.9,0,0,1,2.73.36" transform="translate(31.67 -2.82)" style="fill:none;stroke:#8e0324;stroke-width:1.5px"/><path d="M32.22,37.5l-1.51.19-1.47.39-12.41,5-1.24.5L2.39,49l.66,2.59L16.6,46.1l1.24-.5,12.41-5,1.13-.28,1.15-.12a8.9,8.9,0,0,1,2.73.36" transform="translate(31.67 -2.82)" style="fill:#fffedb"/><path d="M32.22,37.5l-1.51.19-1.47.39-12.41,5-1.24.5L2.39,49l.66,2.59L16.6,46.1l1.24-.5,12.41-5,1.13-.28,1.15-.12a8.9,8.9,0,0,1,2.73.36" transform="translate(31.67 -2.82)" style="fill:none;stroke:#fffedb;stroke-width:1.5px"/></g><g style="opacity:0.07;mix-blend-mode:multiply"><path d="M87.66,94.56a2.11,2.11,0,1,1-.23,1.6A2.1,2.1,0,0,1,87.66,94.56Zm12.6,22.36a2.08,2.08,0,0,1-1.37.51,2.11,2.11,0,0,1-1.38-3.72,2.08,2.08,0,0,1,1.37-.51,2.12,2.12,0,0,1,2.11,2.28A2.09,2.09,0,0,1,100.26,116.92Z" transform="translate(31.67 -2.82)"/><path d="M79.36,48.43l.21,0Z" transform="translate(31.67 -2.82)"/><path d="M90.73,58.08a2.07,2.07,0,0,1,.67-.66,2.11,2.11,0,1,1,1.11,3.91A2.1,2.1,0,0,1,91.39,61,2.13,2.13,0,0,1,90.73,58.08Zm6.38-20.19a2.14,2.14,0,0,1-2.91.65l-.1-.06a2.11,2.11,0,1,1,3.29-2.17A2.08,2.08,0,0,1,97.11,37.89Z" transform="translate(31.67 -2.82)"/><path d="M113.88,49.49a2.11,2.11,0,1,1,3.57,2.26,2.14,2.14,0,0,1-2.91.65l-.09-.06A2.1,2.1,0,0,1,113.88,49.49Zm0,23.46a2.11,2.11,0,1,1,3.57,2.26,2.14,2.14,0,0,1-2.91.65l-.09-.06A2.1,2.1,0,0,1,113.88,73Zm0,26.3a2.11,2.11,0,1,1,3.57,2.26,2.14,2.14,0,0,1-2.91.65l-.09-.06A2.11,2.11,0,0,1,113.88,99.26Z" transform="translate(31.67 -2.82)"/><path d="M103.53,108.93a6.12,6.12,0,0,0-10.72,4.74A19.86,19.86,0,0,1,87.48,115a4,4,0,0,1-2.22-1,10.71,10.71,0,0,0-4.15-1.85A37.64,37.64,0,0,0,89.7,99.34a6.12,6.12,0,1,0-5.48-9.24,6.12,6.12,0,0,0,1.62,8.06c-4.05,9.22-9.22,13.08-12.57,14.68a2,2,0,0,0-.36.17,11.26,11.26,0,0,1-2.56.81v4a12.59,12.59,0,0,0,4.25-1.19c5.35-1.36,6.84-.35,8.41.71A7.88,7.88,0,0,0,87.27,119h.31a23.61,23.61,0,0,0,7-1.72A6.13,6.13,0,0,0,98.89,119h0a6.12,6.12,0,0,0,4.64-10.1ZM87.66,92.15a2.11,2.11,0,1,1-.23,1.6A2.1,2.1,0,0,1,87.66,92.15Zm12.6,22.36a2.08,2.08,0,0,1-1.37.51,2.11,2.11,0,0,1-1.38-3.72,2.08,2.08,0,0,1,1.37-.51,2.12,2.12,0,0,1,2.11,2.28A2.09,2.09,0,0,1,100.26,114.51Z" transform="translate(31.67 -2.82)"/><path d="M79.36,46l.21,0Z" transform="translate(31.67 -2.82)"/><path d="M101.3,33a6.12,6.12,0,1,0-11,4.82,13.35,13.35,0,0,1-9.94,4.29,29.15,29.15,0,0,0-10-2.32v4A24.8,24.8,0,0,1,79.1,46h0a21.59,21.59,0,0,1,8.61,7,6.32,6.32,0,0,0-.38.54,6.12,6.12,0,1,0,8.45-1.91,6.22,6.22,0,0,0-4.67-.75,26,26,0,0,0-5.34-5.57,16.35,16.35,0,0,0,7.78-5.1,6.15,6.15,0,0,0,1.77.27,6.13,6.13,0,0,0,6-7.45ZM90.73,55.67a2.07,2.07,0,0,1,.67-.66,2.11,2.11,0,1,1,1.11,3.91,2.1,2.1,0,0,1-1.12-.33A2.13,2.13,0,0,1,90.73,55.67Zm6.38-20.19a2.14,2.14,0,0,1-2.91.65l-.1-.06a2.11,2.11,0,1,1,3.29-2.17A2.08,2.08,0,0,1,97.11,35.49Z" transform="translate(31.67 -2.82)"/><path d="M110,74a6,6,0,0,0,2.11,2.65l.28.19a6.12,6.12,0,1,0,3.27-11.29l-.37,0a25.73,25.73,0,0,1,0-11.26l.34,0a6.12,6.12,0,1,0-4.15-1.63l.07.06a28.65,28.65,0,0,0,0,14.42c-.14.13-.29.25-.43.4a6.24,6.24,0,0,0-.63.82,6.16,6.16,0,0,0-.71,1.58A15.2,15.2,0,0,0,103,72.72c-2,1.32-4,2.57-9.64,2.67A32.64,32.64,0,0,0,88,75.27c-1.43.05-2.91.11-4.85,0-1.33-.07-2.1-.88-3.46-2.42-1.8-2.05-4.22-4.65-9.37-5v4c3.29.3,4.8,1.89,6.36,3.67s3.17,3.62,6.26,3.78c2.12.11,3.76.05,5.21,0A24.22,24.22,0,0,1,96,80c2.61.64,12.1,9.67,14.77,14.32-.11.14-.22.28-.31.43a6.1,6.1,0,0,0,1.62,8.25l.28.19a6.12,6.12,0,1,0,3.27-11.29,6.18,6.18,0,0,0-1.54.2c-2.56-4.19-8.65-10.46-13.19-13.79a18.18,18.18,0,0,0,4.21-2.19A11.31,11.31,0,0,1,110,74Zm3.88-26.92a2.11,2.11,0,1,1,3.57,2.26,2.14,2.14,0,0,1-2.91.65l-.09-.06A2.1,2.1,0,0,1,113.88,47.09Zm0,23.46a2.11,2.11,0,1,1,3.57,2.26,2.14,2.14,0,0,1-2.91.65l-.09-.06A2.1,2.1,0,0,1,113.88,70.55Zm0,26.3a2.11,2.11,0,1,1,3.57,2.26,2.14,2.14,0,0,1-2.91.65l-.09-.06A2.11,2.11,0,0,1,113.88,96.85Z" transform="translate(31.67 -2.82)"/></g><path d="M103.53,111.93a6.12,6.12,0,0,0-10.72,4.74A19.86,19.86,0,0,1,87.48,118a4,4,0,0,1-2.22-1,10.71,10.71,0,0,0-4.15-1.85,37.64,37.64,0,0,0,8.58-12.83,6.12,6.12,0,1,0-5.48-9.24,6.12,6.12,0,0,0,1.62,8.06c-4.05,9.22-9.22,13.08-12.57,14.68a2,2,0,0,0-.36.17,11.26,11.26,0,0,1-2.56.81v4a12.59,12.59,0,0,0,4.25-1.19c5.35-1.36,6.84-.35,8.41.71A7.88,7.88,0,0,0,87.27,122h.31a23.61,23.61,0,0,0,7-1.72A6.13,6.13,0,0,0,98.89,122h0a6.12,6.12,0,0,0,4.64-10.1ZM87.66,95.15a2.11,2.11,0,1,1-.23,1.6A2.1,2.1,0,0,1,87.66,95.15Zm12.6,22.36a2.08,2.08,0,0,1-1.37.51,2.11,2.11,0,0,1-1.38-3.72,2.08,2.08,0,0,1,1.37-.51,2.12,2.12,0,0,1,2.11,2.28A2.09,2.09,0,0,1,100.26,117.51Z" transform="translate(31.67 -2.82)" style="fill:#d3562c"/><path d="M79.36,48.43l.21,0Z" transform="translate(31.67 -2.82)"/><path d="M101.3,35a6.12,6.12,0,1,0-11,4.82,13.35,13.35,0,0,1-9.94,4.29,29.15,29.15,0,0,0-10-2.32v4A24.81,24.81,0,0,1,79.1,48h0a21.59,21.59,0,0,1,8.61,7,6.32,6.32,0,0,0-.38.54,6.12,6.12,0,1,0,8.45-1.91,6.22,6.22,0,0,0-4.67-.75,26,26,0,0,0-5.34-5.57,16.35,16.35,0,0,0,7.78-5.1,6.15,6.15,0,0,0,1.77.27,6.13,6.13,0,0,0,6-7.45ZM90.73,57.68a2.07,2.07,0,0,1,.67-.66,2.11,2.11,0,1,1,1.11,3.91,2.1,2.1,0,0,1-1.12-.33A2.13,2.13,0,0,1,90.73,57.68Zm6.38-20.19a2.14,2.14,0,0,1-2.91.65l-.1-.06a2.11,2.11,0,1,1,3.29-2.17A2.08,2.08,0,0,1,97.11,37.49Z" transform="translate(31.67 -2.82)" style="fill:#d3562c"/><path d="M110,77a6,6,0,0,0,2.11,2.65l.28.19a6.12,6.12,0,1,0,3.27-11.29l-.37,0a25.73,25.73,0,0,1,0-11.26l.34,0a6.12,6.12,0,1,0-4.15-1.63l.07.06a28.65,28.65,0,0,0,0,14.42c-.14.13-.29.25-.43.4a6.24,6.24,0,0,0-.63.82,6.16,6.16,0,0,0-.71,1.58A15.2,15.2,0,0,0,103,75.72c-2,1.32-4,2.57-9.64,2.67A32.64,32.64,0,0,0,88,78.27c-1.43.05-2.91.11-4.85,0-1.33-.07-2.1-.88-3.46-2.42-1.8-2.05-4.22-4.65-9.37-5v4c3.29.3,4.8,1.89,6.36,3.67s3.17,3.62,6.26,3.78c2.12.11,3.76.05,5.21,0A24.22,24.22,0,0,1,96,83c2.61.64,12.1,9.67,14.77,14.32-.11.14-.22.28-.31.43a6.1,6.1,0,0,0,1.62,8.25l.28.19a6.12,6.12,0,1,0,3.27-11.29,6.18,6.18,0,0,0-1.54.2c-2.56-4.19-8.65-10.46-13.19-13.79a18.18,18.18,0,0,0,4.21-2.19A11.31,11.31,0,0,1,110,77Zm3.88-26.92a2.11,2.11,0,1,1,3.57,2.26,2.14,2.14,0,0,1-2.91.65l-.09-.06A2.1,2.1,0,0,1,113.88,50.09Zm0,23.46a2.11,2.11,0,1,1,3.57,2.26,2.14,2.14,0,0,1-2.91.65l-.09-.06A2.1,2.1,0,0,1,113.88,73.55Zm0,26.3a2.11,2.11,0,1,1,3.57,2.26,2.14,2.14,0,0,1-2.91.65l-.09-.06A2.11,2.11,0,0,1,113.88,99.85Z" transform="translate(31.67 -2.82)" style="fill:#d3562c"/><path d="M103.53,108.93a6.12,6.12,0,0,0-10.72,4.74A19.86,19.86,0,0,1,87.48,115a4,4,0,0,1-2.22-1,10.71,10.71,0,0,0-4.15-1.85A37.64,37.64,0,0,0,89.7,99.34a6.12,6.12,0,1,0-5.48-9.24,6.12,6.12,0,0,0,1.62,8.06c-4.05,9.22-9.22,13.08-12.57,14.68a2,2,0,0,0-.36.17,11.26,11.26,0,0,1-2.56.81v4a12.59,12.59,0,0,0,4.25-1.19c5.35-1.36,6.84-.35,8.41.71A7.88,7.88,0,0,0,87.27,119h.31a23.61,23.61,0,0,0,7-1.72A6.13,6.13,0,0,0,98.89,119h0a6.12,6.12,0,0,0,4.64-10.1ZM87.66,92.15a2.11,2.11,0,1,1-.23,1.6A2.1,2.1,0,0,1,87.66,92.15Zm12.6,22.36a2.08,2.08,0,0,1-1.37.51,2.11,2.11,0,0,1-1.38-3.72,2.08,2.08,0,0,1,1.37-.51,2.12,2.12,0,0,1,2.11,2.28A2.09,2.09,0,0,1,100.26,114.51Z" transform="translate(31.67 -2.82)" style="fill:#fffedb"/><path d="M79.36,46l.21,0Z" transform="translate(31.67 -2.82)" style="fill:#fffedb"/><path d="M101.3,33a6.12,6.12,0,1,0-11,4.82,13.35,13.35,0,0,1-9.94,4.29,29.15,29.15,0,0,0-10-2.32v4A24.8,24.8,0,0,1,79.1,46h0a21.59,21.59,0,0,1,8.61,7,6.32,6.32,0,0,0-.38.54,6.12,6.12,0,1,0,8.45-1.91,6.22,6.22,0,0,0-4.67-.75,26,26,0,0,0-5.34-5.57,16.35,16.35,0,0,0,7.78-5.1,6.15,6.15,0,0,0,1.77.27,6.13,6.13,0,0,0,6-7.45ZM90.73,55.67a2.07,2.07,0,0,1,.67-.66,2.11,2.11,0,1,1,1.11,3.91,2.1,2.1,0,0,1-1.12-.33A2.13,2.13,0,0,1,90.73,55.67Zm6.38-20.19a2.14,2.14,0,0,1-2.91.65l-.1-.06a2.11,2.11,0,1,1,3.29-2.17A2.08,2.08,0,0,1,97.11,35.49Z" transform="translate(31.67 -2.82)" style="fill:#fffedb"/><path d="M110,74a6,6,0,0,0,2.11,2.65l.28.19a6.12,6.12,0,1,0,3.27-11.29l-.37,0a25.73,25.73,0,0,1,0-11.26l.34,0a6.12,6.12,0,1,0-4.15-1.63l.07.06a28.65,28.65,0,0,0,0,14.42c-.14.13-.29.25-.43.4a6.24,6.24,0,0,0-.63.82,6.16,6.16,0,0,0-.71,1.58A15.2,15.2,0,0,0,103,72.72c-2,1.32-4,2.57-9.64,2.67A32.64,32.64,0,0,0,88,75.27c-1.43.05-2.91.11-4.85,0-1.33-.07-2.1-.88-3.46-2.42-1.8-2.05-4.22-4.65-9.37-5v4c3.29.3,4.8,1.89,6.36,3.67s3.17,3.62,6.26,3.78c2.12.11,3.76.05,5.21,0A24.22,24.22,0,0,1,96,80c2.61.64,12.1,9.67,14.77,14.32-.11.14-.22.28-.31.43a6.1,6.1,0,0,0,1.62,8.25l.28.19a6.12,6.12,0,1,0,3.27-11.29,6.18,6.18,0,0,0-1.54.2c-2.56-4.19-8.65-10.46-13.19-13.79a18.18,18.18,0,0,0,4.21-2.19A11.31,11.31,0,0,1,110,74Zm3.88-26.92a2.11,2.11,0,1,1,3.57,2.26,2.14,2.14,0,0,1-2.91.65l-.09-.06A2.1,2.1,0,0,1,113.88,47.09Zm0,23.46a2.11,2.11,0,1,1,3.57,2.26,2.14,2.14,0,0,1-2.91.65l-.09-.06A2.1,2.1,0,0,1,113.88,70.55Zm0,26.3a2.11,2.11,0,1,1,3.57,2.26,2.14,2.14,0,0,1-2.91.65l-.09-.06A2.11,2.11,0,0,1,113.88,96.85Z" transform="translate(31.67 -2.82)" style="fill:#fffedb"/><path d="M173.79,48.08,186,86.17l12.18-38.09h17.37v54.74H202.33V90l1.28-26.17-13.23,39h-8.72l-13.27-39L169.65,90v12.78h-13.2V48.08Z" transform="translate(31.67 -2.82)" style="fill:#b50437"/><path d="M243,103.58a23.53,23.53,0,0,1-8.87-1.58,19.18,19.18,0,0,1-6.58-4.29,18.54,18.54,0,0,1-4.08-6.28,20.5,20.5,0,0,1-1.41-7.59V82.41a27.26,27.26,0,0,1,1.22-8.29A18.49,18.49,0,0,1,227,67.44,17.24,17.24,0,0,1,233.14,63a21.05,21.05,0,0,1,8.55-1.62,20.55,20.55,0,0,1,7.76,1.39,15.9,15.9,0,0,1,5.83,4A17.52,17.52,0,0,1,258.93,73a25.47,25.47,0,0,1,1.26,8.27v5.15H235a9.13,9.13,0,0,0,3,5.38,8.83,8.83,0,0,0,5.94,2,13.87,13.87,0,0,0,5.09-1,10.24,10.24,0,0,0,4.31-3.23l5.79,6.84a14.71,14.71,0,0,1-2.5,2.63,17.42,17.42,0,0,1-3.55,2.27A22.53,22.53,0,0,1,248.5,103,22.79,22.79,0,0,1,243,103.58Zm-1.43-32.41a6.34,6.34,0,0,0-2.78.56,5.46,5.46,0,0,0-1.94,1.54,7.63,7.63,0,0,0-1.22,2.33,16.76,16.76,0,0,0-.68,2.93h12.78v-1a6.28,6.28,0,0,0-1.54-4.72A6.14,6.14,0,0,0,241.62,71.17Z" transform="translate(31.67 -2.82)" style="fill:#b50437"/><path d="M286.58,91.39a2.68,2.68,0,0,0-.36-1.39A3.57,3.57,0,0,0,285,88.86a11.62,11.62,0,0,0-2.44-1q-1.54-.49-3.91-1A35.35,35.35,0,0,1,273,85.13a18,18,0,0,1-4.55-2.56,11.39,11.39,0,0,1-3-3.59,9.86,9.86,0,0,1-1.11-4.74,11.33,11.33,0,0,1,1.11-4.93,12,12,0,0,1,3.25-4.1,16.2,16.2,0,0,1,5.26-2.8,22.55,22.55,0,0,1,7.11-1,26.13,26.13,0,0,1,7.41,1,17.42,17.42,0,0,1,5.62,2.73,12.13,12.13,0,0,1,3.55,4.17,11.6,11.6,0,0,1,1.24,5.36H286.17A5.17,5.17,0,0,0,285,71q-1.17-1.28-4-1.28a5.72,5.72,0,0,0-1.82.28,4.82,4.82,0,0,0-1.49.79,3.82,3.82,0,0,0-1,1.22,3.34,3.34,0,0,0-.38,1.58,3.14,3.14,0,0,0,1.6,2.71A14.87,14.87,0,0,0,283.09,78,50.74,50.74,0,0,1,289,79.49a18.8,18.8,0,0,1,5,2.37,11.42,11.42,0,0,1,3.48,3.7A10.65,10.65,0,0,1,298.8,91a10.33,10.33,0,0,1-1.24,5,11.83,11.83,0,0,1-3.55,4,18.12,18.12,0,0,1-5.58,2.63,26.17,26.17,0,0,1-7.37,1,22.4,22.4,0,0,1-7.76-1.24,18,18,0,0,1-5.64-3.21,13.53,13.53,0,0,1-3.44-4.44A11.38,11.38,0,0,1,263,89.78h11.84a4.89,4.89,0,0,0,1.88,4.12,7.73,7.73,0,0,0,4.63,1.3,6.08,6.08,0,0,0,3.89-1.05A3.36,3.36,0,0,0,286.58,91.39Z" transform="translate(31.67 -2.82)" style="fill:#b50437"/><path d="M326,91.39a2.68,2.68,0,0,0-.36-1.39,3.57,3.57,0,0,0-1.26-1.15,11.62,11.62,0,0,0-2.44-1q-1.54-.49-3.91-1a35.35,35.35,0,0,1-5.58-1.67,18,18,0,0,1-4.55-2.56,11.39,11.39,0,0,1-3-3.59,9.86,9.86,0,0,1-1.11-4.74,11.33,11.33,0,0,1,1.11-4.93,12,12,0,0,1,3.25-4.1,16.2,16.2,0,0,1,5.26-2.8,22.55,22.55,0,0,1,7.11-1,26.13,26.13,0,0,1,7.41,1,17.42,17.42,0,0,1,5.62,2.73,12.13,12.13,0,0,1,3.55,4.17,11.6,11.6,0,0,1,1.24,5.36H325.61A5.17,5.17,0,0,0,324.45,71q-1.17-1.28-4-1.28a5.72,5.72,0,0,0-1.82.28,4.82,4.82,0,0,0-1.49.79,3.82,3.82,0,0,0-1,1.22,3.34,3.34,0,0,0-.38,1.58,3.14,3.14,0,0,0,1.6,2.71A14.87,14.87,0,0,0,322.53,78a50.74,50.74,0,0,1,5.92,1.45,18.8,18.8,0,0,1,5,2.37,11.42,11.42,0,0,1,3.48,3.7,10.65,10.65,0,0,1,1.3,5.45A10.33,10.33,0,0,1,337,96a11.83,11.83,0,0,1-3.55,4,18.12,18.12,0,0,1-5.58,2.63,26.17,26.17,0,0,1-7.37,1,22.4,22.4,0,0,1-7.76-1.24,18,18,0,0,1-5.64-3.21,13.53,13.53,0,0,1-3.44-4.44,11.38,11.38,0,0,1-1.17-4.91h11.84a4.89,4.89,0,0,0,1.88,4.12,7.73,7.73,0,0,0,4.63,1.3,6.08,6.08,0,0,0,3.89-1.05A3.36,3.36,0,0,0,326,91.39Z" transform="translate(31.67 -2.82)" style="fill:#b50437"/><path d="M360.43,85.08l6.77-22.93h13.57l-16.32,46.73a31,31,0,0,1-1.39,3.35,12.65,12.65,0,0,1-2.39,3.37,12.49,12.49,0,0,1-3.85,2.61,14.17,14.17,0,0,1-5.83,1.05q-.94,0-1.56,0a10.08,10.08,0,0,1-1.15-.13l-1.11-.23q-.58-.13-1.41-.36v-9.06h1.62a12.41,12.41,0,0,0,2.56-.23,5.43,5.43,0,0,0,1.77-.68,3.75,3.75,0,0,0,1.15-1.11,6.87,6.87,0,0,0,.73-1.52l1-2.71L340.46,62.14H354Z" transform="translate(31.67 -2.82)" style="fill:#b50437"/><path d="M384.64,102.82V48.08H404.3a40.7,40.7,0,0,1,9.08.92,20,20,0,0,1,6.79,2.8,12.65,12.65,0,0,1,4.25,4.72,14.36,14.36,0,0,1,1.47,6.67,15.72,15.72,0,0,1-.41,3.63,11.57,11.57,0,0,1-1.33,3.29,10.78,10.78,0,0,1-2.39,2.76,12.2,12.2,0,0,1-3.57,2,12.58,12.58,0,0,1,4.14,1.84,10.7,10.7,0,0,1,2.74,2.78,11.08,11.08,0,0,1,1.52,3.4,14.82,14.82,0,0,1,.47,3.7q0,8.12-5.19,12.16t-15.38,4Zm13.2-31.92h6.88q4.32,0,6.17-1.58a5.59,5.59,0,0,0,1.84-4.55q0-3.46-2-5t-6.43-1.52h-6.47Zm0,8.65V92.67h8.65a10.43,10.43,0,0,0,3.4-.49,6.19,6.19,0,0,0,2.29-1.33,5.17,5.17,0,0,0,1.3-2,7,7,0,0,0,.41-2.44,10.14,10.14,0,0,0-.38-2.86,5.31,5.31,0,0,0-1.2-2.16A5.5,5.5,0,0,0,410.17,80a9.23,9.23,0,0,0-3.2-.49Z" transform="translate(31.67 -2.82)" style="fill:#eb743b"/><path d="M458.33,73.61l-.92-.09-1.13-.09-1.15-.08q-.56,0-1,0a11.24,11.24,0,0,0-4.92.92,5.65,5.65,0,0,0-2.75,2.84v25.75H433.82V62.14H445.7l.41,5.23a12.38,12.38,0,0,1,3.74-4.4A8.74,8.74,0,0,1,455,61.39a15.5,15.5,0,0,1,1.86.11,10.23,10.23,0,0,1,1.67.34Z" transform="translate(31.67 -2.82)" style="fill:#eb743b"/><path d="M484.69,102.82a8.73,8.73,0,0,1-.7-1.67q-.28-.92-.51-2a11.67,11.67,0,0,1-9.78,4.4,15.55,15.55,0,0,1-5.32-.9,14,14,0,0,1-4.38-2.5,11.87,11.87,0,0,1-3-3.85,11.1,11.1,0,0,1-1.11-5,13.3,13.3,0,0,1,1.15-5.64,10.68,10.68,0,0,1,3.5-4.19,17.32,17.32,0,0,1,5.94-2.63A34.58,34.58,0,0,1,479,78h3.91V75.83a6.69,6.69,0,0,0-1.13-4.1,4.36,4.36,0,0,0-3.72-1.5,4.72,4.72,0,0,0-3.35,1.09,4.38,4.38,0,0,0-1.17,3.35H460.89a11.32,11.32,0,0,1,1.26-5.26,12.35,12.35,0,0,1,3.59-4.21,18,18,0,0,1,5.62-2.78,24.9,24.9,0,0,1,7.35-1,24.08,24.08,0,0,1,6.75.9A15.15,15.15,0,0,1,490.81,65a12.67,12.67,0,0,1,3.53,4.55,14.77,14.77,0,0,1,1.28,6.33V92.56q0,2,.11,3.46a21.24,21.24,0,0,0,.34,2.58,13.34,13.34,0,0,0,.54,2,12,12,0,0,0,.73,1.62v.64Zm-7.93-8.27a7.06,7.06,0,0,0,3.93-1,6.35,6.35,0,0,0,2.24-2.29v-6.5h-4a8.08,8.08,0,0,0-3,.49,5.07,5.07,0,0,0-2,1.32,5,5,0,0,0-1.05,1.9,7.75,7.75,0,0,0-.32,2.24,3.63,3.63,0,0,0,1.17,2.8A4.22,4.22,0,0,0,476.75,94.55Z" transform="translate(31.67 -2.82)" style="fill:#eb743b"/><path d="M502.54,51.65a6,6,0,0,1,.51-2.48,5.68,5.68,0,0,1,1.45-2,6.69,6.69,0,0,1,2.22-1.28,9.27,9.27,0,0,1,5.71,0,6.7,6.7,0,0,1,2.22,1.28,5.69,5.69,0,0,1,1.45,2,6.32,6.32,0,0,1,0,5,5.68,5.68,0,0,1-1.45,2,6.69,6.69,0,0,1-2.22,1.28,9.27,9.27,0,0,1-5.71,0,6.67,6.67,0,0,1-2.22-1.28,5.67,5.67,0,0,1-1.45-2A6,6,0,0,1,502.54,51.65ZM516,102.82H503.3V62.14H516Z" transform="translate(31.67 -2.82)" style="fill:#eb743b"/><path d="M535.44,62.14l.41,4.77a13.66,13.66,0,0,1,5-4.12,15.11,15.11,0,0,1,6.6-1.41,15.81,15.81,0,0,1,5.17.81,9.61,9.61,0,0,1,4,2.67,12.6,12.6,0,0,1,2.61,4.89,26,26,0,0,1,.92,7.46v25.6H547.51V77.18a9.55,9.55,0,0,0-.39-3A4.34,4.34,0,0,0,546,72.33a3.87,3.87,0,0,0-1.8-.92,11,11,0,0,0-2.42-.24,6.51,6.51,0,0,0-3.37.79,6.2,6.2,0,0,0-2.16,2.14v28.72H523.56V62.14Z" transform="translate(31.67 -2.82)" style="fill:#eb743b"/><path d="M582.18,93h18.54v9.78H566.16V95.75l18-23.84H566.95V62.14H600.3V69Z" transform="translate(31.67 -2.82)" style="fill:#eb743b"/></g></svg>