<svg xmlns="http://www.w3.org/2000/svg" xmlns:xlink="http://www.w3.org/1999/xlink" viewBox="0 0 150 150"><defs><style>.cls-1,.cls-10,.cls-11{fill:none;}.cls-2{isolation:isolate;}.cls-3{fill:#eb743b;}.cls-4{fill:#b50437;}.cls-5{clip-path:url(#clip-path);}.cls-12,.cls-6,.cls-8{fill:#8e0324;}.cls-10,.cls-12,.cls-6{stroke:#8e0324;}.cls-10,.cls-11,.cls-12,.cls-13,.cls-6,.cls-7{stroke-width:1.5px;}.cls-13,.cls-7,.cls-9{fill:#fffedb;}.cls-11,.cls-13,.cls-7{stroke:#fffedb;}.cls-12,.cls-13{stroke-linecap:square;stroke-linejoin:round;}.cls-14{mix-blend-mode:multiply;opacity:0.07;}.cls-15{fill:#d3562c;}</style><clipPath id="clip-path"><polygon class="cls-1" points="16.5 109.11 16.5 40.9 72.5 8.69 72.5 141.19 16.5 109.11"/></clipPath></defs><g class="cls-2"><g id="Layer_1" data-name="Layer 1"><polygon class="cls-3" points="77.5 3 77.5 147 138.5 112 138.5 38 77.5 3"/><polygon class="cls-4" points="72.5 3 11.5 38 11.5 112 72.5 147 72.5 3"/><g class="cls-5"><g id="section"><polyline id="background" class="cls-6" points="10.59 45.53 9.67 46.23 8.85 47.05 8.15 47.97 7.57 48.98 7.14 50.06 6.86 51.18 6.73 52.33 6.76 53.49 6.94 54.64 7.28 55.74 7.76 56.8 8.38 57.78 9.13 58.66 9.99 59.44 10.94 60.1 11.98 60.62 13.07 60.99 14.21 61.22 15.37 61.29 16.52 61.2 17.66 60.96 18.75 60.57 19.78 60.04 20.72 59.37 21.57 58.58 22.31 57.68 22.91 56.69 23.38 55.63 23.69 53.98 24.05 52.69 26.63 53.4 26.27 54.69 25.96 56.35 25.37 57.75 24.6 59.06 23.66 60.25 22.57 61.31 21.34 62.21 20.01 62.94 18.59 63.48 17.11 63.82 15.6 63.96 14.08 63.9 12.58 63.63 11.14 63.16 9.77 62.5 8.5 61.67 7.35 60.67 6.35 59.52 5.51 58.26 4.86 56.89 4.39 55.44 4.12 53.94 4.05 52.43 4.2 50.91 4.54 49.43 5.08 48.01 5.8 46.68 6.7 45.45 7.76 44.36 8.95 43.42"/><polyline id="background-2" data-name="background" class="cls-7" points="10.59 42.53 9.67 43.23 8.85 44.05 8.15 44.97 7.57 45.98 7.14 47.06 6.86 48.18 6.73 49.33 6.76 50.49 6.94 51.64 7.28 52.74 7.76 53.8 8.38 54.78 9.13 55.66 9.99 56.44 10.94 57.1 11.98 57.62 13.07 57.99 14.21 58.22 15.37 58.29 16.52 58.2 17.66 57.96 18.75 57.57 19.78 57.04 20.72 56.37 21.57 55.58 22.31 54.68 22.91 53.69 23.38 52.63 23.69 50.98 24.05 49.69 26.63 50.4 26.27 51.69 25.96 53.35 25.37 54.75 24.6 56.06 23.66 57.25 22.57 58.31 21.34 59.21 20.01 59.94 18.59 60.48 17.11 60.82 15.6 60.96 14.08 60.9 12.58 60.63 11.14 60.16 9.77 59.5 8.5 58.67 7.35 57.67 6.35 56.52 5.51 55.26 4.86 53.89 4.39 52.44 4.12 50.94 4.05 49.43 4.2 47.91 4.54 46.43 5.08 45.01 5.8 43.68 6.7 42.45 7.76 41.36 8.95 40.42"/></g><g id="section-2" data-name="section"><polyline id="background-3" data-name="background" class="cls-6" points="23.69 58.26 24.71 57.14 25.57 55.88 26.26 54.53 26.75 53.09 27.05 51.6 27.14 50.08 27.03 48.57 26.72 47.08 26.21 45.65 25.51 44.3 24.63 43.06 23.6 41.95 22.42 40.98 21.13 40.19 19.74 39.57 18.28 39.15 16.77 38.93 -1.97 38.56 -3.31 38.54 -3.36 41.21 -2.02 41.24 16.72 41.6 17.86 41.79 18.97 42.14 20.02 42.63 21 43.25 21.88 44 22.66 44.87 23.3 45.83 23.82 46.86 24.19 47.96 24.41 49.1 24.47 50.26 24.38 51.41 24.13 52.55 23.73 53.63 23.19 54.66 22.52 55.6 21.72 56.45"/><polyline id="background-4" data-name="background" class="cls-7" points="23.69 55.26 24.71 54.14 25.57 52.88 26.26 51.53 26.75 50.09 27.05 48.6 27.14 47.08 27.03 45.57 26.72 44.08 26.21 42.65 25.51 41.3 24.63 40.06 23.6 38.95 22.42 37.98 21.13 37.19 19.74 36.57 18.28 36.15 16.77 35.93 -1.97 35.56 -3.31 35.54 -3.36 38.21 -2.02 38.24 16.72 38.6 17.86 38.79 18.97 39.14 20.02 39.63 21 40.25 21.88 41 22.66 41.87 23.3 42.83 23.82 43.86 24.19 44.96 24.41 46.1 24.47 47.26 24.38 48.41 24.13 49.55 23.73 50.63 23.19 51.66 22.52 52.6 21.72 53.45"/></g><polyline id="background-5" data-name="background" class="cls-8" points="52.87 77.97 53.07 77.82 53.29 77.67 53.52 77.51 53.76 77.36 55.01 76.64 55.3 76.49 55.61 76.34 55.94 76.19 56.31 76.05 56.6 75.94 56.81 75.87 56.91 75.84 57.01 75.81 57.12 75.78 57.23 75.74 57.35 75.71 57.48 75.68 57.6 75.65 59.56 75.21 59.73 75.17 59.91 75.14 60.1 75.11 60.3 75.08 60.5 75.05 60.71 75.03 60.94 75.01 61.17 75 61.41 74.99 76.88 74.98 77.5 74.98 77.5 71 76.88 71 61.41 71.01 61.06 71.02 60.73 71.03 60.41 71.06 60.1 71.09 59.81 71.12 59.53 71.16 59.26 71.21 59 71.26 58.76 71.31 56.73 71.76 56.54 71.81 56.37 71.85 56.2 71.9 56.04 71.94 55.88 71.99 55.73 72.03 55.59 72.08 55.34 72.16 54.97 72.3 54.49 72.48 54.02 72.69 53.57 72.9 53.15 73.12 51.78 73.91 51.43 74.12 51.1 74.34 50.78 74.56 50.49 74.78"/><polyline id="background-6" data-name="background" class="cls-9" points="52.87 74.97 53.07 74.82 53.29 74.67 53.52 74.51 53.76 74.36 55.01 73.64 55.3 73.49 55.61 73.34 55.94 73.19 56.31 73.05 56.6 72.94 56.81 72.87 56.91 72.84 57.01 72.81 57.12 72.78 57.23 72.74 57.35 72.71 57.48 72.68 57.6 72.65 59.56 72.21 59.73 72.17 59.91 72.14 60.1 72.11 60.3 72.08 60.5 72.05 60.71 72.03 60.94 72.01 61.17 72 61.41 71.99 76.88 71.98 77.5 71.98 77.5 68 76.88 68 61.41 68.01 61.06 68.02 60.73 68.03 60.41 68.06 60.1 68.09 59.81 68.12 59.53 68.16 59.26 68.21 59 68.26 58.76 68.31 56.73 68.76 56.54 68.81 56.37 68.85 56.2 68.9 56.04 68.94 55.88 68.99 55.73 69.03 55.59 69.08 55.34 69.16 54.97 69.3 54.49 69.48 54.02 69.69 53.57 69.9 53.15 70.12 51.78 70.91 51.43 71.12 51.1 71.34 50.78 71.56 50.49 71.78"/><polyline id="background-7" data-name="background" class="cls-8" points="49.8 81.39 49.84 81.32 49.88 81.25 49.92 81.17 49.96 81.09 50.01 81.01 50.06 80.93 50.11 80.84 50.17 80.75 50.23 80.66 50.29 80.57 50.35 80.47 50.42 80.37 50.5 80.26 50.58 80.16 50.66 80.04 50.75 79.93 50.85 79.81 50.95 79.69 51.06 79.57 51.17 79.44 51.29 79.31 51.42 79.18 51.56 79.04 51.7 78.91 51.86 78.77 52.02 78.62 52.2 78.48 52.38 78.33 52.62 78.16 52.87 77.97 50.49 74.78 50.25 74.96 50.01 75.14 49.74 75.34 49.49 75.55 49.25 75.75 49.03 75.95 48.82 76.15 48.63 76.34 48.44 76.53 48.27 76.72 48.1 76.9 47.95 77.08 47.8 77.25 47.66 77.42 47.53 77.58 47.41 77.74 47.3 77.89 47.19 78.04 47.09 78.19 46.99 78.33 46.9 78.46 46.82 78.59 46.74 78.72 46.66 78.84 46.59 78.96 46.52 79.08 46.46 79.19 46.4 79.3 46.34 79.4 46.29 79.5"/><polyline id="background-8" data-name="background" class="cls-9" points="49.8 78.39 49.84 78.32 49.88 78.25 49.92 78.17 49.96 78.09 50.01 78.01 50.06 77.93 50.11 77.84 50.17 77.75 50.23 77.66 50.29 77.57 50.35 77.47 50.42 77.37 50.5 77.26 50.58 77.16 50.66 77.04 50.75 76.93 50.85 76.81 50.95 76.69 51.06 76.57 51.17 76.44 51.29 76.31 51.42 76.18 51.56 76.04 51.7 75.91 51.86 75.77 52.02 75.62 52.2 75.48 52.38 75.33 52.62 75.16 52.87 74.97 50.49 71.78 50.25 71.96 50.01 72.14 49.74 72.34 49.49 72.55 49.25 72.75 49.03 72.95 48.82 73.15 48.63 73.34 48.44 73.53 48.27 73.72 48.1 73.9 47.95 74.08 47.8 74.25 47.66 74.42 47.53 74.58 47.41 74.74 47.3 74.89 47.19 75.04 47.09 75.19 46.99 75.33 46.9 75.46 46.82 75.59 46.74 75.72 46.66 75.84 46.59 75.96 46.52 76.08 46.46 76.19 46.4 76.3 46.34 76.4 46.29 76.5"/><g id="section-3" data-name="section"><polyline id="background-9" data-name="background" class="cls-6" points="-24.16 53.5 34.65 85.72 36.07 86.26 37.55 86.6 39.06 86.75 40.58 86.69 42.08 86.42 43.53 85.96 44.9 85.3 46.17 84.47 47.31 83.47 48.32 82.33 49.16 81.06 46.75 79.88 46.1 80.83 45.32 81.69 44.43 82.43 43.45 83.05 42.39 83.53 41.28 83.86 40.14 84.05 38.98 84.07 37.83 83.94 36.7 83.66 35.63 83.22 -22.86 51.16"/><polyline id="background-10" data-name="background" class="cls-7" points="-24.16 50.5 34.65 82.72 36.07 83.26 37.55 83.6 39.06 83.75 40.58 83.69 42.08 83.42 43.53 82.96 44.9 82.3 46.17 81.47 47.31 80.47 48.32 79.33 49.16 78.06 46.75 76.88 46.1 77.83 45.32 78.69 44.43 79.43 43.45 80.05 42.39 80.53 41.28 80.86 40.14 81.05 38.98 81.07 37.83 80.94 36.7 80.66 35.63 80.22 -22.86 48.16"/></g><g id="section-4" data-name="section"><path id="background-11" data-name="background" class="cls-6" d="M10.77,100l.94,5.45.47,1.45.66,1.37.83,1.27,1,1.14,1.15,1,1.27.84,1.37.66,1.44.47,1.5.26,1.52.07,1.51-.14,1.48-.34,1.42-.54,1.34-.73c4.39-2.17,2.52-4.48,8.74-4.45l-.16-2.9c-5.31-.76-7.11,3.68-10.15,5.18l-1,.53L25,111l-1.13.24-1.16.09-1.16-.07L20.4,111l-1.1-.37-1-.53-1-.65-.86-.78-.74-.89-.62-1-.48-1-.34-1.11L10.34,92.5"/><path id="background-12" data-name="background" class="cls-7" d="M10.77,97l.94,5.45.47,1.45.66,1.37.83,1.27,1,1.14,1.15,1,1.27.84,1.37.66,1.44.47,1.5.26,1.52.07,1.51-.14,1.48-.34,1.42-.54,1.34-.73c4.39-2.17,2.52-4.48,8.74-4.45l-.16-2.9c-5.31-.76-7.11,3.68-10.15,5.18l-1,.53L25,108l-1.13.24-1.16.09-1.16-.07L20.4,108l-1.1-.37-1-.53-1-.65-.86-.78-.74-.89-.62-1-.48-1-.34-1.11L10.34,89.5"/></g><g id="section-5" data-name="section"><polyline id="background-13" data-name="background" class="cls-6" points="37.25 104.88 38.67 105.42 40 106.14 41.23 107.04 42.32 108.1 43.26 109.29 44.04 110.6 44.63 112 45.02 113.47 45.21 114.98 45.2 116.5 44.98 118 44.57 119.46 43.96 120.85 43.17 122.15 42.21 123.33 41.1 124.37 39.86 125.25 38.52 125.95 37.09 126.47 35.6 126.79 34.09 126.91 15.54 125.97 14.38 126.06 13.25 126.3 12.16 126.69 11.13 127.23 10.19 127.9 3.26 134.48 2.02 135.36 0.67 136.06 -0.76 136.58 -2.24 136.9 -3.76 137.02 -5.28 136.93 -6.77 136.64 -8.21 136.15 -9.56 135.47 -10.82 134.62 -11.95 133.6 -12.93 132.44 -13.75 131.16 -14.39 129.78 -14.83 128.32 -12.19 127.87 -11.83 128.97 -11.33 130.01 -10.69 130.98 -9.92 131.85 -9.04 132.61 -8.07 133.25 -7.03 133.74 -5.92 134.1 -4.78 134.3 -3.63 134.34 -2.47 134.23 -1.34 133.97 -0.26 133.55 0.76 133 1.69 132.31 8.34 125.96 9.56 125.06 10.9 124.33 12.32 123.79 13.8 123.45 15.31 123.31 34.22 124.23 35.37 124.12 36.5 123.86 37.58 123.44 38.6 122.89 39.53 122.2 40.36 121.39 41.08 120.48 41.66 119.48 42.11 118.41 42.4 117.29 42.55 116.14 42.53 114.98 42.37 113.83 42.04 112.72 41.58 111.66 40.97 110.67 40.23 109.77 39.38 108.98 38.44 108.32 37.41 107.78 36.32 107.39"/><polyline id="background-14" data-name="background" class="cls-7" points="37.25 101.88 38.67 102.42 40 103.14 41.23 104.04 42.32 105.1 43.26 106.29 44.04 107.6 44.63 109 45.02 110.47 45.21 111.98 45.2 113.5 44.98 115 44.57 116.46 43.96 117.85 43.17 119.15 42.21 120.33 41.1 121.37 39.86 122.25 38.52 122.95 37.09 123.47 35.6 123.79 34.09 123.91 15.54 122.97 14.38 123.06 13.25 123.3 12.16 123.69 11.13 124.23 10.19 124.9 3.26 131.48 2.02 132.36 0.67 133.06 -0.76 133.58 -2.24 133.9 -3.76 134.02 -5.28 133.93 -6.77 133.64 -8.21 133.15 -9.56 132.47 -10.82 131.62 -11.95 130.6 -12.93 129.44 -13.75 128.16 -14.39 126.78 -14.83 125.32 -12.19 124.87 -11.83 125.97 -11.33 127.02 -10.69 127.98 -9.92 128.85 -9.04 129.61 -8.07 130.25 -7.03 130.74 -5.92 131.1 -4.78 131.3 -3.63 131.34 -2.47 131.23 -1.34 130.97 -0.26 130.55 0.76 130 1.69 129.31 8.34 122.96 9.56 122.06 10.9 121.33 12.32 120.79 13.8 120.45 15.31 120.31 34.22 121.23 35.37 121.12 36.5 120.86 37.58 120.44 38.6 119.89 39.53 119.2 40.36 118.39 41.08 117.48 41.66 116.48 42.11 115.41 42.4 114.29 42.55 113.14 42.53 111.98 42.37 110.83 42.04 109.72 41.58 108.66 40.97 107.67 40.23 106.77 39.38 105.98 38.44 105.32 37.41 104.78 36.32 104.39"/></g><g id="section-6" data-name="section"><polyline id="background-15" data-name="background" class="cls-6" points="2.62 96.91 20.5 87.37 21.73 86.47 22.82 85.41 23.76 84.22 24.53 82.91 25.12 81.51 25.52 80.04 25.71 78.53 25.7 77.02 25.48 75.51 25.07 74.05 24.46 72.66 23.66 71.36 22.71 70.18 21.6 69.14 10.88 61.41 10.03 60.63 7.94 62.3 9.03 63.35 20.03 71.31 20.86 72.12 21.57 73.03 22.16 74.03 22.6 75.11 22.9 76.22 23.04 77.38 23.03 78.53 22.86 79.68 22.54 80.79 22.07 81.85 21.47 82.84 20.73 83.74 19.88 84.53 18.93 85.19 1.36 94.55"/><polyline id="background-16" data-name="background" class="cls-7" points="2.62 93.91 20.5 84.37 21.73 83.47 22.82 82.41 23.76 81.22 24.53 79.91 25.12 78.51 25.52 77.04 25.71 75.53 25.7 74.02 25.48 72.51 25.07 71.05 24.46 69.66 23.66 68.36 22.71 67.18 21.6 66.14 10.88 58.41 10.03 57.63 7.94 59.3 9.03 60.35 20.03 68.31 20.86 69.12 21.57 70.03 22.16 71.03 22.6 72.11 22.9 73.22 23.04 74.38 23.03 75.53 22.86 76.68 22.54 77.79 22.07 78.85 21.47 79.84 20.73 80.74 19.88 81.53 18.93 82.19 1.36 91.55"/></g><g id="section-7" data-name="section"><polyline id="background-17" data-name="background" class="cls-6" points="54.36 139.78 46.31 121.18 45.51 119.89 44.55 118.71 43.44 117.68 42.2 116.8 40.85 116.1 39.42 115.58 37.93 115.27 36.42 115.16 34.9 115.25 33.41 115.54 31.97 116.04 30.61 116.72 29.36 117.58 28.23 118.6 19.66 128.65 18.8 129.43 20.3 131.65 21.44 130.65 30.27 120.34 31.14 119.58 32.11 118.94 33.16 118.44 34.26 118.08 35.4 117.88 36.56 117.83 37.71 117.94 38.84 118.2 39.92 118.61 40.94 119.17 41.88 119.85 42.71 120.66 43.43 121.57 44.02 122.57 51.9 140.85"/><polyline id="background-18" data-name="background" class="cls-7" points="54.36 136.78 46.31 118.18 45.51 116.89 44.55 115.71 43.44 114.68 42.2 113.8 40.85 113.1 39.42 112.58 37.93 112.27 36.42 112.16 34.9 112.25 33.41 112.54 31.97 113.04 30.61 113.72 29.36 114.58 28.23 115.6 19.66 125.65 18.8 126.43 20.3 128.65 21.44 127.65 30.27 117.34 31.14 116.58 32.11 115.94 33.16 115.44 34.26 115.08 35.4 114.88 36.56 114.83 37.71 114.94 38.84 115.2 39.92 115.61 40.94 116.17 41.88 116.85 42.71 117.66 43.43 118.57 44.02 119.57 51.9 137.85"/></g><g id="section-8" data-name="section"><polyline id="background-19" data-name="background" class="cls-6" points="-4.67 84.56 -3.53 84.37 -2.37 84.34 -1.22 84.47 43.95 96.3 45.03 96.73 46.04 97.3 46.96 98 47.78 98.82 48.48 99.75 49.05 100.75 49.48 101.83 56.89 132.92 57.02 134.07 56.99 135.23 56.8 136.38 56.47 137.48 55.98 138.54 55.36 139.51 54.61 140.4 53.75 141.18 52.79 141.83 51.76 142.35 50.66 142.72 49.52 142.95 48.37 143.01 47.21 142.93 46.08 142.68 44.99 142.29 43.96 141.75 43.02 141.08 41.17 143.02 42.39 143.92 43.72 144.65 45.14 145.19 46.62 145.54 48.13 145.68 49.65 145.62 51.15 145.36 52.6 144.89 53.97 144.24 55.24 143.4 56.38 142.41 57.39 141.26 58.23 140 58.89 138.63 59.36 137.18 59.63 135.69 59.7 134.17 59.56 132.66 52.08 101.21 51.55 99.79 50.82 98.45 49.93 97.22 48.87 96.13 47.68 95.19 46.37 94.41 44.97 93.82 -0.54 81.88 -2.05 81.68 -3.57 81.69 -5.07 81.91"/><polyline id="background-20" data-name="background" class="cls-7" points="-4.67 81.56 -3.53 81.37 -2.37 81.34 -1.22 81.47 43.95 93.3 45.03 93.73 46.04 94.3 46.96 95 47.78 95.82 48.48 96.75 49.05 97.75 49.48 98.83 56.89 129.92 57.02 131.07 56.99 132.23 56.8 133.38 56.47 134.48 55.98 135.54 55.36 136.51 54.61 137.4 53.75 138.18 52.79 138.83 51.76 139.35 50.66 139.72 49.52 139.95 48.37 140.01 47.21 139.93 46.08 139.68 44.99 139.29 43.96 138.75 43.02 138.08 41.17 140.02 42.39 140.92 43.72 141.65 45.14 142.19 46.62 142.54 48.13 142.68 49.65 142.62 51.15 142.36 52.6 141.89 53.97 141.24 55.24 140.4 56.38 139.41 57.39 138.26 58.23 137 58.89 135.63 59.36 134.18 59.63 132.69 59.7 131.17 59.56 129.66 52.08 98.21 51.55 96.79 50.82 95.45 49.93 94.22 48.87 93.13 47.68 92.19 46.37 91.41 44.97 90.82 -0.54 78.88 -2.05 78.68 -3.57 78.69 -5.07 78.91"/></g><g id="background-21" data-name="background"><polygon class="cls-8" points="24.27 60.07 37.15 62.98 38.24 63.38 39.27 63.91 40.22 64.59 41.06 65.38 41.79 66.28 42.4 67.27 42.86 68.33 43.18 69.44 43.34 70.59 43.35 71.75 43.2 72.9 42.9 74.02 42.45 75.09 41.87 76.08 41.15 76.99 40.31 77.8 39.38 78.48 38.36 79.04 37.28 79.45 36.15 79.71 36.37 82.38 37.85 82.06 39.28 81.55 40.63 80.85 41.88 79.98 42.99 78.94 43.95 77.77 44.75 76.47 45.36 75.08 45.78 73.62 46.01 72.12 46.02 70.6 45.83 69.09 45.44 67.62 44.86 66.22 44.09 64.91 43.16 63.71 42.07 62.65 40.84 61.75 39.51 61.02 38.09 60.47 24.86 57.46 23.74 57.14 22.68 56.67 21.69 56.07 20.8 55.34 20 54.49 19.34 53.55 18.8 52.52 18.41 51.43 18.16 50.29 18.07 49.14 18.14 47.98 18.37 46.84 18.74 45.75 19.26 44.71 19.91 43.76 20.69 42.9 21.58 42.15 22.55 41.53 23.61 41.04 24.72 40.7 25.86 40.52 27.02 40.49 28.17 40.62 29.3 40.9 30.37 41.33 31.38 41.9 32.3 42.6 33.12 43.42 33.83 44.34 36.17 43.04 35.27 41.81 34.22 40.72 33.02 39.78 31.71 39.01 30.31 38.42 28.85 38.02 27.34 37.83 25.82 37.84 24.32 38.05 22.85 38.47 21.46 39.08 20.16 39.87 18.98 40.83 17.95 41.94 17.07 43.18 16.36 44.52 15.84 45.95 15.52 47.44 15.4 48.95 15.49 50.47 15.78 51.96 16.27 53.4 16.95 54.76 17.8 56.02 18.82 57.15 19.98 58.13 21.26 58.95 22.64 59.58 24.09 60.03 24.27 60.07"/><polygon class="cls-10" points="24.27 60.07 37.15 62.98 38.24 63.38 39.27 63.91 40.22 64.59 41.06 65.38 41.79 66.28 42.4 67.27 42.86 68.33 43.18 69.44 43.34 70.59 43.35 71.75 43.2 72.9 42.9 74.02 42.45 75.09 41.87 76.08 41.15 76.99 40.31 77.8 39.38 78.48 38.36 79.04 37.28 79.45 36.15 79.71 36.37 82.38 37.85 82.06 39.28 81.55 40.63 80.85 41.88 79.98 42.99 78.94 43.95 77.77 44.75 76.47 45.36 75.08 45.78 73.62 46.01 72.12 46.02 70.6 45.83 69.09 45.44 67.62 44.86 66.22 44.09 64.91 43.16 63.71 42.07 62.65 40.84 61.75 39.51 61.02 38.09 60.47 24.86 57.46 23.74 57.14 22.68 56.67 21.69 56.07 20.8 55.34 20 54.49 19.34 53.55 18.8 52.52 18.41 51.43 18.16 50.29 18.07 49.14 18.14 47.98 18.37 46.84 18.74 45.75 19.26 44.71 19.91 43.76 20.69 42.9 21.58 42.15 22.55 41.53 23.61 41.04 24.72 40.7 25.86 40.52 27.02 40.49 28.17 40.62 29.3 40.9 30.37 41.33 31.38 41.9 32.3 42.6 33.12 43.42 33.83 44.34 36.17 43.04 35.27 41.81 34.22 40.72 33.02 39.78 31.71 39.01 30.31 38.42 28.85 38.02 27.34 37.83 25.82 37.84 24.32 38.05 22.85 38.47 21.46 39.08 20.16 39.87 18.98 40.83 17.95 41.94 17.07 43.18 16.36 44.52 15.84 45.95 15.52 47.44 15.4 48.95 15.49 50.47 15.78 51.96 16.27 53.4 16.95 54.76 17.8 56.02 18.82 57.15 19.98 58.13 21.26 58.95 22.64 59.58 24.09 60.03 24.27 60.07"/><polygon class="cls-9" points="24.27 57.07 37.15 59.98 38.24 60.38 39.27 60.91 40.22 61.59 41.06 62.38 41.79 63.28 42.4 64.27 42.86 65.33 43.18 66.44 43.34 67.59 43.35 68.75 43.2 69.9 42.9 71.02 42.45 72.09 41.87 73.08 41.15 73.99 40.31 74.8 39.38 75.48 38.36 76.04 37.28 76.45 36.15 76.71 36.37 79.38 37.85 79.06 39.28 78.55 40.63 77.85 41.88 76.98 42.99 75.94 43.95 74.77 44.75 73.47 45.36 72.08 45.78 70.62 46.01 69.12 46.02 67.6 45.83 66.09 45.44 64.62 44.86 63.22 44.09 61.91 43.16 60.71 42.07 59.65 40.84 58.75 39.51 58.02 38.09 57.47 24.86 54.46 23.74 54.14 22.68 53.67 21.69 53.07 20.8 52.34 20 51.49 19.34 50.55 18.8 49.52 18.41 48.43 18.16 47.29 18.07 46.14 18.14 44.98 18.37 43.84 18.74 42.75 19.26 41.71 19.91 40.76 20.69 39.9 21.58 39.15 22.55 38.53 23.61 38.04 24.72 37.7 25.86 37.52 27.02 37.49 28.17 37.62 29.3 37.9 30.37 38.33 31.38 38.9 32.3 39.6 33.12 40.42 33.83 41.34 36.17 40.04 35.27 38.81 34.22 37.72 33.02 36.78 31.71 36.01 30.31 35.42 28.85 35.02 27.34 34.83 25.82 34.84 24.32 35.05 22.85 35.47 21.46 36.08 20.16 36.87 18.98 37.83 17.95 38.94 17.07 40.18 16.36 41.52 15.84 42.95 15.52 44.44 15.4 45.95 15.49 47.47 15.78 48.96 16.27 50.4 16.95 51.76 17.8 53.02 18.82 54.15 19.98 55.13 21.26 55.95 22.64 56.58 24.09 57.03 24.27 57.07"/><polygon class="cls-11" points="24.27 57.07 37.15 59.98 38.24 60.38 39.27 60.91 40.22 61.59 41.06 62.38 41.79 63.28 42.4 64.27 42.86 65.33 43.18 66.44 43.34 67.59 43.35 68.75 43.2 69.9 42.9 71.02 42.45 72.09 41.87 73.08 41.15 73.99 40.31 74.8 39.38 75.48 38.36 76.04 37.28 76.45 36.15 76.71 36.37 79.38 37.85 79.06 39.28 78.55 40.63 77.85 41.88 76.98 42.99 75.94 43.95 74.77 44.75 73.47 45.36 72.08 45.78 70.62 46.01 69.12 46.02 67.6 45.83 66.09 45.44 64.62 44.86 63.22 44.09 61.91 43.16 60.71 42.07 59.65 40.84 58.75 39.51 58.02 38.09 57.47 24.86 54.46 23.74 54.14 22.68 53.67 21.69 53.07 20.8 52.34 20 51.49 19.34 50.55 18.8 49.52 18.41 48.43 18.16 47.29 18.07 46.14 18.14 44.98 18.37 43.84 18.74 42.75 19.26 41.71 19.91 40.76 20.69 39.9 21.58 39.15 22.55 38.53 23.61 38.04 24.72 37.7 25.86 37.52 27.02 37.49 28.17 37.62 29.3 37.9 30.37 38.33 31.38 38.9 32.3 39.6 33.12 40.42 33.83 41.34 36.17 40.04 35.27 38.81 34.22 37.72 33.02 36.78 31.71 36.01 30.31 35.42 28.85 35.02 27.34 34.83 25.82 34.84 24.32 35.05 22.85 35.47 21.46 36.08 20.16 36.87 18.98 37.83 17.95 38.94 17.07 40.18 16.36 41.52 15.84 42.95 15.52 44.44 15.4 45.95 15.49 47.47 15.78 48.96 16.27 50.4 16.95 51.76 17.8 53.02 18.82 54.15 19.98 55.13 21.26 55.95 22.64 56.58 24.09 57.03 24.27 57.07"/></g><g id="section-9" data-name="section"><path id="background-22" data-name="background" class="cls-6" d="M62.11,42l-.43-1.46-.61-1.39-.8-1.29-5.65-7.14-1.11-1-1.24-.87-1.35-.7-1.43-.51L48,27.26l-1.52-.11L45,27.24l-1.49.3L42,28l-1.35.68-1.26.86-1.12,1-1,1.16L35.27,35l-.74.89-.86.78-1,.66-1,.52-1.1.38-1.13.24-1.16.07-1.16-.08a7.54,7.54,0,0,1-3.59-2.86C21.88,33.31,19,33,21.3,37s5.27,4.06,5.27,4.06l1.51.13,1.52-.07,1.5-.27,1.44-.48,1.37-.66,1.26-.84,1.14-1,1-1.15,2.28-3.52.76-.88.87-.76,1-.64,1-.5,1.1-.36,1.14-.21,1.16-.05,1.15.11,1.13.26L50,30.6l1,.55.93.68.84.81,5.4,6.87.59,1,.45,1.07.3,1.12"/><path id="background-23" data-name="background" class="cls-7" d="M62.11,39l-.43-1.46-.61-1.39-.8-1.29-5.65-7.14-1.11-1-1.24-.87-1.35-.7-1.43-.51L48,24.26l-1.52-.11L45,24.24l-1.49.3L42,25l-1.35.68-1.26.86-1.12,1-1,1.16L35.27,32l-.74.89-.86.78-1,.66-1,.52-1.1.38-1.13.24-1.16.07-1.16-.08a7.54,7.54,0,0,1-3.59-2.86C21.88,30.31,19,30,21.3,34s5.27,4.06,5.27,4.06l1.51.13,1.52-.07,1.5-.27,1.44-.48,1.37-.66,1.26-.84,1.14-1,1-1.15,2.28-3.52.76-.88.87-.76,1-.64,1-.5,1.1-.36,1.14-.21,1.16-.05,1.15.11,1.13.26L50,27.6l1,.55.93.68.84.81,5.4,6.87.59,1,.45,1.07.3,1.12"/></g><g id="section-10" data-name="section"><polyline id="background-24" data-name="background" class="cls-6" points="35.98 58.95 44.67 37.9 55.77 8.5 53.3 7.48 42.19 36.88 33.5 57.92"/><polyline id="background-25" data-name="background" class="cls-7" points="35.98 55.95 44.67 34.9 55.77 5.5 53.3 4.48 42.19 33.88 33.5 54.92"/></g><g id="section-11" data-name="section"><polyline id="background-26" data-name="background" class="cls-6" points="38.64 103.51 40.05 102.95 41.38 102.21 42.59 101.29 43.67 100.22 44.6 99.01 45.35 97.69 45.92 96.28 46.29 94.81 46.46 93.3 46.43 91.78 46.2 90.28 45.76 88.83 45.13 87.44 44.32 86.16 43.34 84.99 42.22 83.97 40.97 83.11 35.17 80.13 34.22 79.47 33.36 78.69 32.61 77.81 31.99 76.83 31.51 75.77 31.18 74.66 30.99 73.52 30.96 72.36 31.09 71.21 31.37 70.09 35.47 60.18 35.98 58.95 33.5 57.92 32.99 59.16 28.9 69.06 28.5 70.53 28.3 72.04 28.31 73.56 28.53 75.06 28.94 76.52 29.55 77.92 30.34 79.22 31.29 80.4 32.4 81.44 33.64 82.32 39.74 85.49 40.68 86.16 41.52 86.96 42.25 87.86 42.85 88.85 43.31 89.92 43.62 91.03 43.78 92.18 43.79 93.34 43.63 94.49 43.33 95.61 42.87 96.67 42.28 97.67 41.56 98.57 40.72 99.37 39.78 100.06 38.76 100.6 37.68 101.01"/><polyline id="background-27" data-name="background" class="cls-7" points="38.64 100.51 40.05 99.95 41.38 99.21 42.59 98.29 43.67 97.22 44.6 96.01 45.35 94.69 45.92 93.28 46.29 91.81 46.46 90.3 46.43 88.78 46.2 87.28 45.76 85.83 45.13 84.44 44.32 83.16 43.34 81.99 42.22 80.97 40.97 80.11 35.17 77.13 34.22 76.47 33.36 75.69 32.61 74.81 31.99 73.83 31.51 72.77 31.18 71.66 30.99 70.52 30.96 69.36 31.09 68.21 31.37 67.09 35.47 57.18 35.98 55.95 33.5 54.92 32.99 56.16 28.9 66.06 28.5 67.53 28.3 69.04 28.31 70.56 28.53 72.06 28.94 73.52 29.55 74.92 30.34 76.22 31.29 77.4 32.4 78.44 33.64 79.32 39.74 82.49 40.68 83.16 41.52 83.96 42.25 84.86 42.85 85.85 43.31 86.92 43.62 88.03 43.78 89.18 43.79 90.34 43.63 91.49 43.33 92.61 42.87 93.67 42.28 94.67 41.56 95.57 40.72 96.37 39.78 97.06 38.76 97.6 37.68 98.01"/></g><g id="section-12" data-name="section"><path id="background-28" data-name="background" class="cls-12" d="M.44,62.71l.93,26.95.27,1.5L2.1,92.6,2.76,94l.84,1.27,1,1.15,1.14,1L7,98.22l1.37.66,1.44.47L35,104.07a8.05,8.05,0,0,0,3.63-.56l-1-2.5a6.41,6.41,0,0,1-2.53.39L10.32,96.72l-1.1-.38-1-.52-1-.66-.86-.78-.74-.88-.62-1-.48-1.06-.34-1.11L4,89.21,3.12,62.62"/><path id="background-29" data-name="background" class="cls-13" d="M.44,59.71l.93,26.95.27,1.5L2.1,89.6,2.76,91l.84,1.27,1,1.15,1.14,1L7,95.22l1.37.66,1.44.47L35,101.07a8.05,8.05,0,0,0,3.63-.56l-1-2.5a6.41,6.41,0,0,1-2.53.39L10.32,93.72l-1.1-.38-1-.52-1-.66-.86-.78-.74-.88-.62-1-.48-1.06-.34-1.11L4,86.21,3.12,59.62"/></g><g id="background-30" data-name="background"><polyline class="cls-8" points="24.34 95.9 25.79 95.46 27.18 94.83 28.46 94.02 29.62 93.04 30.65 91.92 31.51 90.67 32.19 89.31 32.69 87.87 35.36 74.93 35.73 73.84 36.25 72.8 36.91 71.84 48.83 58.91 49.69 57.65 50.37 56.3 50.87 54.86 51.16 53.37 51.26 51.85 51.14 50.34 50.83 48.85 50.32 47.42 49.62 46.07 48.74 44.83 47.71 43.71 46.53 42.75 45.24 41.95 43.85 41.34 42.39 40.92 40.88 40.7 39.37 40.68 37.86 40.87 36.39 41.26 37.4 43.74 38.52 43.46 39.67 43.34 40.83 43.37 41.98 43.56 43.08 43.91 44.13 44.4 45.11 45.02 45.99 45.77 46.77 46.63 47.42 47.59 47.93 48.63 48.3 49.73 48.52 50.87 48.58 52.03 48.49 53.18 48.24 54.31 47.84 55.4 47.3 56.43 46.63 57.37 34.94 70.03 34.06 71.27 33.35 72.61 32.83 74.04 30.06 87.33 29.66 88.42 29.12 89.44 28.45 90.38 27.66 91.23 26.75 91.96 25.76 92.56 24.7 93.02 23.59 93.33"/><polyline class="cls-10" points="24.34 95.9 25.79 95.46 27.18 94.83 28.46 94.02 29.62 93.04 30.65 91.92 31.51 90.67 32.19 89.31 32.69 87.87 35.36 74.93 35.73 73.84 36.25 72.8 36.91 71.84 48.83 58.91 49.69 57.65 50.37 56.3 50.87 54.86 51.16 53.37 51.26 51.85 51.14 50.34 50.83 48.85 50.32 47.42 49.62 46.07 48.74 44.83 47.71 43.71 46.53 42.75 45.24 41.95 43.85 41.34 42.39 40.92 40.88 40.7 39.37 40.68 37.86 40.87 36.39 41.26 37.4 43.74 38.52 43.46 39.67 43.34 40.83 43.37 41.98 43.56 43.08 43.91 44.13 44.4 45.11 45.02 45.99 45.77 46.77 46.63 47.42 47.59 47.93 48.63 48.3 49.73 48.52 50.87 48.58 52.03 48.49 53.18 48.24 54.31 47.84 55.4 47.3 56.43 46.63 57.37 34.94 70.03 34.06 71.27 33.35 72.61 32.83 74.04 30.06 87.33 29.66 88.42 29.12 89.44 28.45 90.38 27.66 91.23 26.75 91.96 25.76 92.56 24.7 93.02 23.59 93.33"/><polyline class="cls-9" points="24.34 92.9 25.79 92.46 27.18 91.83 28.46 91.02 29.62 90.04 30.65 88.92 31.51 87.67 32.19 86.31 32.69 84.87 35.36 71.93 35.73 70.84 36.25 69.8 36.91 68.84 48.83 55.91 49.69 54.65 50.37 53.3 50.87 51.86 51.16 50.37 51.26 48.85 51.14 47.34 50.83 45.85 50.32 44.42 49.62 43.07 48.74 41.83 47.71 40.71 46.53 39.75 45.24 38.95 43.85 38.34 42.39 37.92 40.88 37.7 39.37 37.68 37.86 37.87 36.39 38.26 37.4 40.74 38.52 40.46 39.67 40.34 40.83 40.37 41.98 40.56 43.08 40.91 44.13 41.4 45.11 42.02 45.99 42.77 46.77 43.63 47.42 44.59 47.93 45.63 48.3 46.73 48.52 47.87 48.58 49.03 48.49 50.18 48.24 51.31 47.84 52.4 47.3 53.43 46.63 54.37 34.94 67.03 34.06 68.27 33.35 69.61 32.83 71.04 30.06 84.33 29.66 85.42 29.12 86.44 28.45 87.38 27.66 88.23 26.75 88.96 25.76 89.56 24.7 90.02 23.59 90.33"/><polyline class="cls-11" points="24.34 92.9 25.79 92.46 27.18 91.83 28.46 91.02 29.62 90.04 30.65 88.92 31.51 87.67 32.19 86.31 32.69 84.87 35.36 71.93 35.73 70.84 36.25 69.8 36.91 68.84 48.83 55.91 49.69 54.65 50.37 53.3 50.87 51.86 51.16 50.37 51.26 48.85 51.14 47.34 50.83 45.85 50.32 44.42 49.62 43.07 48.74 41.83 47.71 40.71 46.53 39.75 45.24 38.95 43.85 38.34 42.39 37.92 40.88 37.7 39.37 37.68 37.86 37.87 36.39 38.26 37.4 40.74 38.52 40.46 39.67 40.34 40.83 40.37 41.98 40.56 43.08 40.91 44.13 41.4 45.11 42.02 45.99 42.77 46.77 43.63 47.42 44.59 47.93 45.63 48.3 46.73 48.52 47.87 48.58 49.03 48.49 50.18 48.24 51.31 47.84 52.4 47.3 53.43 46.63 54.37 34.94 67.03 34.06 68.27 33.35 69.61 32.83 71.04 30.06 84.33 29.66 85.42 29.12 86.44 28.45 87.38 27.66 88.23 26.75 88.96 25.76 89.56 24.7 90.02 23.59 90.33"/></g><g id="section-13" data-name="section"><polyline id="background-31" data-name="background" class="cls-6" points="59.5 42.59 59.78 43.72 59.91 44.87 59.88 46.03 59.7 47.17 59.36 48.28 58.88 49.34 58.26 50.31 57.51 51.2 56.66 51.98 55.7 52.63 54.66 53.16 53.57 53.53 52.43 53.76 51.27 53.83 50.12 53.74 48.98 53.5 47.89 53.1 45.92 51.9 45.92 51.9 36.93 43.93 34.58 45.08 44.07 53.84 45.3 54.74 46.63 55.47 48.05 56.01 49.53 56.35 51.04 56.49 52.56 56.43 54.06 56.16 55.51 55.7 56.88 55.04 58.15 54.2 59.29 53.21 60.29 52.06 61.13 50.79 61.79 49.42 62.26 47.98 62.52 46.48 62.59 44.97 62.45 43.45 62.11 41.97"/><polyline id="background-32" data-name="background" class="cls-7" points="59.5 39.59 59.78 40.72 59.91 41.87 59.88 43.03 59.7 44.17 59.36 45.28 58.88 46.34 58.26 47.31 57.51 48.2 56.66 48.98 55.7 49.63 54.66 50.16 53.57 50.53 52.43 50.76 51.27 50.83 50.12 50.74 48.98 50.5 47.89 50.1 45.92 48.9 45.92 48.9 36.93 40.93 34.58 42.08 44.07 50.84 45.3 51.74 46.63 52.47 48.05 53.01 49.53 53.35 51.04 53.49 52.56 53.43 54.06 53.16 55.51 52.7 56.88 52.04 58.15 51.2 59.29 50.21 60.29 49.06 61.13 47.79 61.79 46.42 62.26 44.98 62.52 43.48 62.59 41.97 62.45 40.45 62.11 38.97"/></g><g id="section-14" data-name="section"><polyline id="background-33" data-name="background" class="cls-6" points="10.03 105.46 16.28 99.26 17.17 98.52 18.15 97.89 19.2 97.41 23.05 96.28 24.34 95.9 23.59 93.33 22.3 93.71 18.45 94.84 17.05 95.45 15.76 96.24 14.58 97.2 8.07 103.65"/><polyline id="background-34" data-name="background" class="cls-7" points="10.03 102.46 16.28 96.26 17.17 95.52 18.15 94.89 19.2 94.41 23.05 93.28 24.34 92.9 23.59 90.33 22.3 90.71 18.45 91.84 17.05 92.45 15.76 93.24 14.58 94.2 8.07 100.65"/></g><g id="background-35" data-name="background"><path class="cls-8" d="M39.37,40.68l-1.51.19-1.47.38L24,46.3l-1.24.5L9.54,52.22l.66,2.6,13.55-5.54,1.24-.5,12.41-5,1.12-.28,1.15-.12a9,9,0,0,1,2.73.36"/><path class="cls-10" d="M39.37,40.68l-1.51.19-1.47.38L24,46.3l-1.24.5L9.54,52.22l.66,2.6,13.55-5.54,1.24-.5,12.41-5,1.12-.28,1.15-.12a9,9,0,0,1,2.73.36"/><path class="cls-9" d="M39.37,37.68l-1.51.19-1.47.38L24,43.3l-1.24.5L9.54,49.22l.66,2.6,13.55-5.54,1.24-.5,12.41-5,1.12-.28,1.15-.12a9,9,0,0,1,2.73.36"/><path class="cls-11" d="M39.37,37.68l-1.51.19-1.47.38L24,43.3l-1.24.5L9.54,49.22l.66,2.6,13.55-5.54,1.24-.5,12.41-5,1.12-.28,1.15-.12a9,9,0,0,1,2.73.36"/></g></g><g class="cls-14"><path d="M94.8,94.73a2.12,2.12,0,0,1,1.82-1,2.17,2.17,0,0,1,1.08.3,2.12,2.12,0,0,1,.73,2.9,2.11,2.11,0,0,1-2.9.73,2.12,2.12,0,0,1-.73-2.9Zm12.6,22.37a2.06,2.06,0,0,1-1.37.5,2.1,2.1,0,0,1-1.61-.73,2.11,2.11,0,1,1,3.21-2.75,2.09,2.09,0,0,1-.23,3Z"/><path d="M86.5,48.61l.21,0Z"/><path d="M97.88,58.26a2,2,0,0,1,.67-.66,2.11,2.11,0,0,1,1.12-.32,2.12,2.12,0,1,1,0,4.23,2.12,2.12,0,0,1-1.78-3.25Zm6.38-20.19a2.14,2.14,0,0,1-2.91.65l-.1-.06a2.11,2.11,0,0,1,1.23-3.83,2,2,0,0,1,1.12.33,2.1,2.1,0,0,1,.66,2.91Z"/><path d="M121,49.67a2.11,2.11,0,0,1,2.9-.66,2.11,2.11,0,1,1-2.25,3.57l-.09-.06A2.1,2.1,0,0,1,121,49.67Zm0,23.46a2.09,2.09,0,0,1,1.78-1,2,2,0,0,1,1.12.33,2.07,2.07,0,0,1,.94,1.33,2.1,2.1,0,0,1-.28,1.58,2.14,2.14,0,0,1-2.91.65l-.09-.06A2.1,2.1,0,0,1,121,73.13Zm0,26.3a2.11,2.11,0,1,1,3.56,2.26,2.15,2.15,0,0,1-2.91.66l-.09-.07A2.09,2.09,0,0,1,121,99.43Z"/><path d="M110.68,109.1A6.12,6.12,0,0,0,100,113.84a20,20,0,0,1-5.33,1.33,4,4,0,0,1-2.22-1,10.78,10.78,0,0,0-4.15-1.85,37.66,37.66,0,0,0,8.58-12.83,6.12,6.12,0,1,0-5.48-9.24A6.12,6.12,0,0,0,93,98.34c-4,9.22-9.21,13.08-12.56,14.68a2,2,0,0,0-.36.17,11.22,11.22,0,0,1-2.56.81v4a12.69,12.69,0,0,0,4.25-1.19c5.34-1.36,6.84-.36,8.4.71a7.93,7.93,0,0,0,4.27,1.65h.31a23.61,23.61,0,0,0,7-1.72,6.14,6.14,0,0,0,4.28,1.75h0a6.11,6.11,0,0,0,4-1.48,6.13,6.13,0,0,0,.67-8.63ZM94.8,92.33a2.1,2.1,0,0,1,1.82-1,2.16,2.16,0,0,1,1.08.29,2.12,2.12,0,0,1,.73,2.9,2.08,2.08,0,0,1-1.81,1,2.12,2.12,0,0,1-1.09-.31,2.11,2.11,0,0,1-.73-2.89Zm12.6,22.36a2.07,2.07,0,0,1-1.37.51,2.13,2.13,0,1,1,1.37-.51Z"/><path d="M86.5,46.21l.21,0Z"/><path d="M108.45,33.2a6.12,6.12,0,1,0-11,4.82,13.36,13.36,0,0,1-10,4.3A28.93,28.93,0,0,0,77.5,40v4a24.75,24.75,0,0,1,8.75,2.13h0a21.46,21.46,0,0,1,8.61,7,5.22,5.22,0,0,0-.38.54,6.12,6.12,0,1,0,8.45-1.91,6.24,6.24,0,0,0-4.67-.76,26,26,0,0,0-5.35-5.56,16.29,16.29,0,0,0,7.78-5.1,6.28,6.28,0,0,0,1.77.27,6.12,6.12,0,0,0,6-7.46ZM97.88,55.85a2.13,2.13,0,0,1,1.79-1,2.16,2.16,0,0,1,1.13.33,2.12,2.12,0,1,1-2.92.65Zm6.38-20.19a2.13,2.13,0,0,1-2.91.66l-.1-.07a2.11,2.11,0,0,1,2.35-3.5,2.14,2.14,0,0,1,.94,1.33A2.09,2.09,0,0,1,104.26,35.66Z"/><path d="M117.15,74.19a6.05,6.05,0,0,0,2.1,2.65l.29.19a6.12,6.12,0,1,0,3.27-11.29h-.38a25.63,25.63,0,0,1,0-11.26l.34,0a6.12,6.12,0,1,0-4.15-1.62s0,0,.07.06a28.59,28.59,0,0,0,0,14.41c-.15.14-.3.26-.43.4a5.67,5.67,0,0,0-.63.83,6,6,0,0,0-.71,1.58,15.22,15.22,0,0,0-6.83,2.72c-2,1.33-4,2.58-9.63,2.67a32.82,32.82,0,0,0-5.29-.12,48.41,48.41,0,0,1-4.85,0c-1.34-.07-2.11-.89-3.46-2.43-1.8-2-4.22-4.65-9.37-5v4c3.29.3,4.8,1.89,6.36,3.67s3.17,3.61,6.25,3.78c2.12.11,3.76,0,5.21,0a24.43,24.43,0,0,1,7.86.68c2.6.65,12.09,9.68,14.77,14.33a4.25,4.25,0,0,0-.31.43,6.1,6.1,0,0,0,1.61,8.25l.29.19A6.12,6.12,0,1,0,126.07,93a6.18,6.18,0,0,0-3.26-.94,6,6,0,0,0-1.54.2c-2.56-4.19-8.66-10.46-13.19-13.8a17.66,17.66,0,0,0,4.21-2.19A11.33,11.33,0,0,1,117.15,74.19ZM121,47.26a2.11,2.11,0,1,1,3.56,2.26,2.14,2.14,0,0,1-2.91.65l-.09-.06A2.09,2.09,0,0,1,121,47.26Zm0,23.47a2.11,2.11,0,0,1,2.9-.66,2.11,2.11,0,1,1-2.25,3.57l-.09-.06A2.1,2.1,0,0,1,121,70.73ZM121,97a2.11,2.11,0,0,1,2.9-.66,2.11,2.11,0,1,1-2.25,3.57l-.09-.06A2.1,2.1,0,0,1,121,97Z"/></g><path class="cls-15" d="M110.68,112.1A6.12,6.12,0,0,0,100,116.84a20,20,0,0,1-5.33,1.33,4,4,0,0,1-2.22-1,10.78,10.78,0,0,0-4.15-1.85,37.66,37.66,0,0,0,8.58-12.83,6.12,6.12,0,1,0-5.48-9.24A6.12,6.12,0,0,0,93,101.34c-4,9.22-9.21,13.08-12.56,14.68a2,2,0,0,0-.36.17,11.22,11.22,0,0,1-2.56.81v4a12.69,12.69,0,0,0,4.25-1.19c5.34-1.36,6.84-.36,8.4.71a7.93,7.93,0,0,0,4.27,1.65h.31a23.61,23.61,0,0,0,7-1.72,6.14,6.14,0,0,0,4.28,1.75h0a6.11,6.11,0,0,0,4-1.48,6.13,6.13,0,0,0,.67-8.63ZM94.8,95.33a2.1,2.1,0,0,1,1.82-1,2.16,2.16,0,0,1,1.08.29,2.12,2.12,0,0,1,.73,2.9,2.08,2.08,0,0,1-1.81,1,2.12,2.12,0,0,1-1.09-.31,2.11,2.11,0,0,1-.73-2.89Zm12.6,22.36a2.07,2.07,0,0,1-1.37.51,2.13,2.13,0,1,1,1.37-.51Z"/><path d="M86.5,48.61l.21,0Z"/><path class="cls-15" d="M108.45,35.21a6.12,6.12,0,0,0-2.71-3.85,6.18,6.18,0,0,0-3.26-.94,6.12,6.12,0,0,0-5,9.61,13.38,13.38,0,0,1-10,4.29A29.39,29.39,0,0,0,77.5,42v4a24.79,24.79,0,0,1,8.75,2.14h0a21.54,21.54,0,0,1,8.61,7,5.22,5.22,0,0,0-.38.54,6.14,6.14,0,0,0,1.9,8.44,6,6,0,0,0,3.27,1,6.13,6.13,0,0,0,3.28-11.31,6.23,6.23,0,0,0-4.67-.75,25.77,25.77,0,0,0-5.35-5.57,16.29,16.29,0,0,0,7.78-5.1,5.94,5.94,0,0,0,1.77.27,6.12,6.12,0,0,0,6-7.45ZM97.88,57.86a2.14,2.14,0,0,1,.67-.67,2.2,2.2,0,0,1,1.12-.31,2.12,2.12,0,1,1,0,4.23,2.12,2.12,0,0,1-1.78-3.25Zm6.38-20.19a2.14,2.14,0,0,1-2.91.65l-.1-.06a2.11,2.11,0,0,1,2.35-3.51,2.16,2.16,0,0,1,.94,1.33A2.12,2.12,0,0,1,104.26,37.67Z"/><path class="cls-15" d="M117.15,77.19a6.05,6.05,0,0,0,2.1,2.65l.29.19a6.12,6.12,0,1,0,3.27-11.29h-.38a25.63,25.63,0,0,1,0-11.26l.34,0a6.12,6.12,0,1,0-4.15-1.62s0,0,.07.06a28.59,28.59,0,0,0,0,14.41c-.15.14-.3.26-.43.4a5.67,5.67,0,0,0-.63.83,6,6,0,0,0-.71,1.58,15.22,15.22,0,0,0-6.83,2.72c-2,1.33-4,2.58-9.63,2.67a32.82,32.82,0,0,0-5.29-.12,48.41,48.41,0,0,1-4.85,0c-1.34-.07-2.11-.89-3.46-2.43-1.8-2-4.22-4.65-9.37-5v4c3.29.3,4.8,1.89,6.36,3.67s3.17,3.61,6.25,3.78c2.12.11,3.76,0,5.21,0a24.43,24.43,0,0,1,7.86.68c2.6.65,12.09,9.68,14.77,14.33a4.25,4.25,0,0,0-.31.43,6.1,6.1,0,0,0,1.61,8.25l.29.19A6.12,6.12,0,1,0,126.07,96a6.18,6.18,0,0,0-3.26-.94,6,6,0,0,0-1.54.2c-2.56-4.19-8.66-10.46-13.19-13.8a17.66,17.66,0,0,0,4.21-2.19A11.33,11.33,0,0,1,117.15,77.19ZM121,50.26a2.11,2.11,0,1,1,3.56,2.26,2.14,2.14,0,0,1-2.91.65l-.09-.06A2.09,2.09,0,0,1,121,50.26Zm0,23.47a2.11,2.11,0,0,1,2.9-.66,2.11,2.11,0,1,1-2.25,3.57l-.09-.06A2.1,2.1,0,0,1,121,73.73Zm0,26.3a2.11,2.11,0,0,1,2.9-.66,2.11,2.11,0,1,1-2.25,3.57l-.09-.06A2.1,2.1,0,0,1,121,100Z"/><path class="cls-9" d="M110.68,109.1A6.12,6.12,0,0,0,100,113.84a20,20,0,0,1-5.33,1.33,4,4,0,0,1-2.22-1,10.78,10.78,0,0,0-4.15-1.85,37.66,37.66,0,0,0,8.58-12.83,6.12,6.12,0,1,0-5.48-9.24A6.12,6.12,0,0,0,93,98.34c-4,9.22-9.21,13.08-12.56,14.68a2,2,0,0,0-.36.17,11.22,11.22,0,0,1-2.56.81v4a12.69,12.69,0,0,0,4.25-1.19c5.34-1.36,6.84-.36,8.4.71a7.93,7.93,0,0,0,4.27,1.65h.31a23.61,23.61,0,0,0,7-1.72,6.14,6.14,0,0,0,4.28,1.75h0a6.11,6.11,0,0,0,4-1.48,6.13,6.13,0,0,0,.67-8.63ZM94.8,92.33a2.1,2.1,0,0,1,1.82-1,2.16,2.16,0,0,1,1.08.29,2.12,2.12,0,0,1,.73,2.9,2.08,2.08,0,0,1-1.81,1,2.12,2.12,0,0,1-1.09-.31,2.11,2.11,0,0,1-.73-2.89Zm12.6,22.36a2.07,2.07,0,0,1-1.37.51,2.13,2.13,0,1,1,1.37-.51Z"/><path class="cls-9" d="M86.5,46.21l.21,0Z"/><path class="cls-9" d="M108.45,33.2a6.12,6.12,0,1,0-11,4.82,13.36,13.36,0,0,1-10,4.3A28.93,28.93,0,0,0,77.5,40v4a24.75,24.75,0,0,1,8.75,2.13h0a21.46,21.46,0,0,1,8.61,7,5.22,5.22,0,0,0-.38.54,6.12,6.12,0,1,0,8.45-1.91,6.24,6.24,0,0,0-4.67-.76,26,26,0,0,0-5.35-5.56,16.29,16.29,0,0,0,7.78-5.1,6.28,6.28,0,0,0,1.77.27,6.12,6.12,0,0,0,6-7.46ZM97.88,55.85a2.13,2.13,0,0,1,1.79-1,2.16,2.16,0,0,1,1.13.33,2.12,2.12,0,1,1-2.92.65Zm6.38-20.19a2.13,2.13,0,0,1-2.91.66l-.1-.07a2.11,2.11,0,0,1,2.35-3.5,2.14,2.14,0,0,1,.94,1.33A2.09,2.09,0,0,1,104.26,35.66Z"/><path class="cls-9" d="M117.15,74.19a6.05,6.05,0,0,0,2.1,2.65l.29.19a6.12,6.12,0,1,0,3.27-11.29h-.38a25.63,25.63,0,0,1,0-11.26l.34,0a6.12,6.12,0,1,0-4.15-1.62s0,0,.07.06a28.59,28.59,0,0,0,0,14.41c-.15.14-.3.26-.43.4a5.67,5.67,0,0,0-.63.83,6,6,0,0,0-.71,1.58,15.22,15.22,0,0,0-6.83,2.72c-2,1.33-4,2.58-9.63,2.67a32.82,32.82,0,0,0-5.29-.12,48.41,48.41,0,0,1-4.85,0c-1.34-.07-2.11-.89-3.46-2.43-1.8-2-4.22-4.65-9.37-5v4c3.29.3,4.8,1.89,6.36,3.67s3.17,3.61,6.25,3.78c2.12.11,3.76,0,5.21,0a24.43,24.43,0,0,1,7.86.68c2.6.65,12.09,9.68,14.77,14.33a4.25,4.25,0,0,0-.31.43,6.1,6.1,0,0,0,1.61,8.25l.29.19A6.12,6.12,0,1,0,126.07,93a6.18,6.18,0,0,0-3.26-.94,6,6,0,0,0-1.54.2c-2.56-4.19-8.66-10.46-13.19-13.8a17.66,17.66,0,0,0,4.21-2.19A11.33,11.33,0,0,1,117.15,74.19ZM121,47.26a2.11,2.11,0,1,1,3.56,2.26,2.14,2.14,0,0,1-2.91.65l-.09-.06A2.09,2.09,0,0,1,121,47.26Zm0,23.47a2.11,2.11,0,0,1,2.9-.66,2.11,2.11,0,1,1-2.25,3.57l-.09-.06A2.1,2.1,0,0,1,121,70.73ZM121,97a2.11,2.11,0,0,1,2.9-.66,2.11,2.11,0,1,1-2.25,3.57l-.09-.06A2.1,2.1,0,0,1,121,97Z"/></g></g></svg>