<svg id="Layer_1" data-name="Layer 1" xmlns="http://www.w3.org/2000/svg" xmlns:xlink="http://www.w3.org/1999/xlink" viewBox="0 0 148 190"><defs><style>.cls-1,.cls-8,.cls-9{fill:none;}.cls-2{fill:#b50437;}.cls-3{clip-path:url(#clip-path);}.cls-10,.cls-4,.cls-6{fill:#8e0324;}.cls-10,.cls-4,.cls-8{stroke:#8e0324;}.cls-10,.cls-11,.cls-4,.cls-5,.cls-8,.cls-9{stroke-width:1.5px;}.cls-11,.cls-5,.cls-7{fill:#fffedb;}.cls-11,.cls-5,.cls-9{stroke:#fffedb;}.cls-10,.cls-11{stroke-linecap:square;stroke-linejoin:round;}.cls-12{fill:#eb743b;}</style><clipPath id="clip-path"><polygon class="cls-1" points="34.86 73.74 34.86 28.26 72.5 6.79 72.5 95.13 34.86 73.74"/></clipPath></defs><polygon class="cls-2" points="72.5 3 31.5 26.33 31.5 75.67 72.5 99 72.5 3"/><g class="cls-3"><g id="section"><polyline id="background" class="cls-4" points="30.89 32.35 30.27 32.82 29.72 33.37 29.25 33.98 28.86 34.65 28.57 35.37 28.38 36.12 28.3 36.89 28.31 37.66 28.44 38.42 28.66 39.16 28.99 39.87 29.41 40.52 29.91 41.11 30.48 41.63 31.13 42.06 31.82 42.41 32.56 42.66 33.32 42.81 34.1 42.86 34.88 42.8 35.64 42.64 36.37 42.38 37.06 42.02 37.7 41.58 38.27 41.05 38.76 40.45 39.17 39.8 39.48 39.09 39.69 37.98 39.93 37.12 41.67 37.6 41.43 38.46 41.22 39.57 40.83 40.5 40.31 41.37 39.67 42.17 38.94 42.87 38.12 43.47 37.22 43.96 36.27 44.32 35.27 44.55 34.25 44.64 33.23 44.6 32.23 44.42 31.25 44.11 30.33 43.67 29.48 43.11 28.71 42.45 28.04 41.68 27.48 40.84 27.04 39.92 26.72 38.96 26.54 37.96 26.5 36.95 26.59 35.94 26.82 34.95 27.18 34.01 27.67 33.12 28.27 32.3 28.98 31.57 29.79 30.94"/><polyline id="background-2" data-name="background" class="cls-5" points="30.89 29.36 30.27 29.82 29.72 30.37 29.25 30.98 28.86 31.65 28.57 32.37 28.38 33.12 28.3 33.89 28.31 34.66 28.44 35.42 28.66 36.16 28.99 36.87 29.41 37.52 29.91 38.11 30.48 38.63 31.13 39.06 31.82 39.41 32.56 39.66 33.32 39.81 34.1 39.86 34.88 39.8 35.64 39.64 36.37 39.38 37.06 39.02 37.7 38.58 38.27 38.05 38.76 37.45 39.17 36.8 39.48 36.09 39.69 34.98 39.93 34.12 41.67 34.6 41.43 35.46 41.22 36.57 40.83 37.5 40.31 38.37 39.67 39.17 38.94 39.87 38.12 40.47 37.22 40.96 36.27 41.32 35.27 41.55 34.25 41.64 33.23 41.6 32.23 41.42 31.25 41.11 30.33 40.67 29.48 40.11 28.71 39.45 28.04 38.68 27.48 37.84 27.04 36.92 26.72 35.96 26.54 34.96 26.5 33.95 26.59 32.94 26.82 31.95 27.18 31.01 27.67 30.12 28.27 29.3 28.98 28.57 29.79 27.94"/></g><g id="section-2" data-name="section"><polyline id="background-3" data-name="background" class="cls-4" points="39.7 40.84 40.38 40.09 40.96 39.26 41.42 38.35 41.75 37.39 41.95 36.4 42.02 35.39 41.94 34.38 41.73 33.39 41.38 32.43 40.91 31.53 40.33 30.71 39.63 29.96 38.84 29.32 37.97 28.79 37.04 28.38 36.06 28.1 35.05 27.95 22.45 27.71 21.55 27.69 21.51 29.48 22.41 29.49 35.01 29.74 35.78 29.86 36.52 30.09 37.23 30.42 37.88 30.83 38.48 31.34 39 31.91 39.43 32.55 39.78 33.24 40.03 33.98 40.18 34.73 40.22 35.51 40.16 36.27 39.99 37.03 39.72 37.76 39.36 38.44 38.91 39.07 38.37 39.63"/><polyline id="background-4" data-name="background" class="cls-5" points="39.7 37.84 40.38 37.09 40.96 36.26 41.42 35.35 41.75 34.39 41.95 33.4 42.02 32.39 41.94 31.38 41.73 30.39 41.38 29.43 40.91 28.53 40.33 27.71 39.63 26.96 38.84 26.32 37.97 25.79 37.04 25.38 36.06 25.1 35.05 24.95 22.45 24.71 21.55 24.69 21.51 26.48 22.41 26.49 35.01 26.74 35.78 26.86 36.52 27.09 37.23 27.42 37.88 27.83 38.48 28.34 39 28.91 39.43 29.55 39.78 30.24 40.03 30.98 40.18 31.73 40.22 32.51 40.16 33.27 39.99 34.03 39.72 34.76 39.36 35.44 38.91 36.07 38.37 36.63"/></g><polyline id="background-5" data-name="background" class="cls-6" points="59.3 53.98 59.44 53.88 59.59 53.78 59.74 53.68 59.91 53.57 60.74 53.1 60.94 52.99 61.15 52.89 61.37 52.79 61.62 52.7 61.82 52.63 61.95 52.58 62.02 52.56 62.09 52.54 62.16 52.52 62.24 52.5 62.32 52.48 62.4 52.45 62.49 52.43 63.8 52.14 63.92 52.11 64.04 52.09 64.17 52.07 64.3 52.05 64.43 52.03 64.58 52.02 64.73 52.01 64.88 52 65.05 51.99 75.44 51.99 75.86 51.99 75.86 49.33 75.44 49.33 65.05 49.34 64.81 49.34 64.59 49.36 64.37 49.37 64.17 49.39 63.97 49.42 63.78 49.44 63.6 49.47 63.43 49.5 63.26 49.54 61.9 49.84 61.77 49.87 61.66 49.9 61.54 49.93 61.43 49.96 61.33 49.99 61.23 50.02 61.13 50.05 60.97 50.11 60.72 50.2 60.4 50.32 60.08 50.46 59.78 50.6 59.49 50.75 58.58 51.27 58.34 51.41 58.12 51.56 57.91 51.7 57.71 51.85"/><polyline id="background-6" data-name="background" class="cls-7" points="59.3 50.98 59.44 50.88 59.59 50.78 59.74 50.68 59.91 50.57 60.74 50.1 60.94 49.99 61.15 49.89 61.37 49.79 61.62 49.7 61.82 49.63 61.95 49.58 62.02 49.56 62.09 49.54 62.16 49.52 62.24 49.5 62.32 49.48 62.4 49.45 62.49 49.43 63.8 49.14 63.92 49.11 64.04 49.09 64.17 49.07 64.3 49.05 64.43 49.03 64.58 49.02 64.73 49.01 64.88 49 65.05 48.99 75.44 48.99 75.86 48.99 75.86 46.33 75.44 46.33 65.05 46.34 64.81 46.34 64.59 46.36 64.37 46.37 64.17 46.39 63.97 46.42 63.78 46.44 63.6 46.47 63.43 46.5 63.26 46.54 61.9 46.84 61.77 46.87 61.66 46.9 61.54 46.93 61.43 46.96 61.33 46.99 61.23 47.02 61.13 47.05 60.97 47.11 60.72 47.2 60.4 47.32 60.08 47.46 59.78 47.6 59.49 47.75 58.58 48.27 58.34 48.41 58.12 48.56 57.91 48.7 57.71 48.85"/><polyline id="background-7" data-name="background" class="cls-6" points="57.24 56.26 57.27 56.21 57.29 56.16 57.32 56.11 57.35 56.06 57.38 56.01 57.42 55.95 57.45 55.9 57.49 55.84 57.53 55.77 57.57 55.71 57.62 55.65 57.66 55.58 57.71 55.51 57.77 55.44 57.82 55.36 57.88 55.29 57.95 55.21 58.02 55.13 58.09 55.05 58.16 54.96 58.25 54.88 58.33 54.79 58.42 54.7 58.52 54.6 58.63 54.51 58.74 54.41 58.85 54.32 58.98 54.22 59.14 54.1 59.3 53.98 57.71 51.85 57.54 51.97 57.38 52.09 57.2 52.23 57.03 52.37 56.88 52.5 56.73 52.63 56.59 52.77 56.45 52.9 56.33 53.02 56.21 53.15 56.1 53.27 56 53.38 55.9 53.5 55.81 53.61 55.72 53.72 55.64 53.83 55.56 53.93 55.49 54.03 55.42 54.12 55.36 54.22 55.3 54.31 55.24 54.4 55.19 54.48 55.13 54.56 55.09 54.64 55.04 54.72 55 54.79 54.96 54.87 54.92 54.93 54.88 55"/><polyline id="background-8" data-name="background" class="cls-7" points="57.24 53.26 57.27 53.21 57.29 53.16 57.32 53.11 57.35 53.06 57.38 53.01 57.42 52.95 57.45 52.9 57.49 52.84 57.53 52.77 57.57 52.71 57.62 52.65 57.66 52.58 57.71 52.51 57.77 52.44 57.82 52.36 57.88 52.29 57.95 52.21 58.02 52.13 58.09 52.05 58.16 51.96 58.25 51.88 58.33 51.79 58.42 51.7 58.52 51.6 58.63 51.51 58.74 51.41 58.85 51.32 58.98 51.22 59.14 51.1 59.3 50.98 57.71 48.85 57.54 48.97 57.38 49.09 57.2 49.23 57.03 49.37 56.88 49.5 56.73 49.63 56.59 49.77 56.45 49.9 56.33 50.02 56.21 50.15 56.1 50.27 56 50.38 55.9 50.5 55.81 50.61 55.72 50.72 55.64 50.83 55.56 50.93 55.49 51.03 55.42 51.12 55.36 51.22 55.3 51.31 55.24 51.4 55.19 51.48 55.13 51.56 55.09 51.64 55.04 51.72 55 51.79 54.96 51.87 54.92 51.93 54.88 52"/><g id="section-3" data-name="section"><polyline id="background-9" data-name="background" class="cls-4" points="7.53 37.66 47.06 59.14 48.02 59.51 49.01 59.74 50.03 59.83 51.05 59.79 52.05 59.61 53.03 59.3 53.95 58.87 54.8 58.31 55.57 57.65 56.25 56.89 56.81 56.04 55.2 55.25 54.75 55.89 54.23 56.46 53.63 56.96 52.97 57.37 52.26 57.69 51.52 57.91 50.75 58.03 49.97 58.05 49.2 57.96 48.44 57.77 47.72 57.48 8.4 36.1"/><polyline id="background-10" data-name="background" class="cls-5" points="7.53 34.66 47.06 56.14 48.02 56.51 49.01 56.74 50.03 56.83 51.05 56.79 52.05 56.61 53.03 56.3 53.95 55.87 54.8 55.31 55.57 54.65 56.25 53.89 56.81 53.04 55.2 52.25 54.75 52.89 54.23 53.46 53.63 53.96 52.97 54.37 52.26 54.69 51.52 54.91 50.75 55.03 49.97 55.05 49.2 54.96 48.44 54.77 47.72 54.48 8.4 33.1"/></g><g id="section-4" data-name="section"><path id="background-11" data-name="background" class="cls-4" d="M31,68.66l.63,3.64.32,1,.44.91L33,75l.67.77.77.66.85.56.93.44,1,.31,1,.18,1,0,1-.1,1-.23,1-.35.9-.49c3-1.44,1.7-3,5.87-3l-.1-1.94c-3.57-.5-4.78,2.45-6.82,3.45l-.7.36-.73.26-.76.16-.78.06-.78,0L37.48,76l-.74-.25-.69-.35L35.41,75l-.58-.52-.5-.59-.42-.65-.32-.7-.23-.74-2.64-8.11"/><path id="background-12" data-name="background" class="cls-5" d="M31,65.66l.63,3.64.32,1,.44.91L33,72l.67.77.77.66.85.56.93.44,1,.31,1,.18,1,0,1-.1,1-.23,1-.35.9-.49c3-1.44,1.7-3,5.87-3l-.1-1.94c-3.57-.5-4.78,2.45-6.82,3.45l-.7.36-.73.26-.76.16-.78.06-.78,0L37.48,73l-.74-.25-.69-.35L35.41,72l-.58-.52-.5-.59-.42-.65-.32-.7-.23-.74-2.64-8.11"/></g><g id="section-5" data-name="section"><polyline id="background-13" data-name="background" class="cls-4" points="48.81 71.92 49.76 72.28 50.66 72.76 51.48 73.36 52.22 74.07 52.85 74.86 53.37 75.73 53.76 76.67 54.03 77.65 54.16 78.65 54.15 79.66 54.01 80.67 53.73 81.64 53.32 82.57 52.78 83.43 52.14 84.22 51.4 84.91 50.56 85.5 49.66 85.97 48.7 86.31 47.7 86.53 46.68 86.61 34.22 85.98 33.44 86.04 32.68 86.2 31.94 86.46 31.25 86.82 30.62 87.27 25.96 91.65 25.13 92.24 24.22 92.71 23.26 93.05 22.26 93.27 21.25 93.35 20.23 93.29 19.22 93.09 18.25 92.77 17.34 92.31 16.5 91.74 15.74 91.07 15.08 90.29 14.53 89.44 14.1 88.52 13.8 87.55 15.58 87.25 15.82 87.98 16.16 88.68 16.59 89.32 17.1 89.9 17.69 90.41 18.34 90.83 19.05 91.16 19.79 91.4 20.56 91.53 21.33 91.56 22.11 91.49 22.87 91.31 23.59 91.03 24.28 90.66 24.91 90.2 29.38 85.97 30.2 85.37 31.09 84.89 32.05 84.53 33.05 84.3 34.06 84.2 46.77 84.82 47.55 84.75 48.3 84.57 49.03 84.3 49.71 83.92 50.34 83.47 50.9 82.93 51.38 82.32 51.77 81.65 52.07 80.94 52.27 80.19 52.37 79.42 52.36 78.65 52.25 77.89 52.03 77.14 51.71 76.44 51.31 75.78 50.81 75.18 50.24 74.66 49.61 74.21 48.91 73.86 48.18 73.59"/><polyline id="background-14" data-name="background" class="cls-5" points="48.81 68.92 49.76 69.28 50.66 69.76 51.48 70.36 52.22 71.07 52.85 71.86 53.37 72.73 53.76 73.67 54.03 74.65 54.16 75.65 54.15 76.66 54.01 77.67 53.73 78.64 53.32 79.57 52.78 80.43 52.14 81.22 51.4 81.91 50.56 82.5 49.66 82.97 48.7 83.31 47.7 83.53 46.68 83.61 34.22 82.98 33.44 83.04 32.68 83.2 31.94 83.46 31.25 83.82 30.62 84.27 25.96 88.65 25.13 89.24 24.22 89.71 23.26 90.05 22.26 90.27 21.25 90.35 20.23 90.29 19.22 90.09 18.25 89.77 17.34 89.31 16.5 88.74 15.74 88.07 15.08 87.29 14.53 86.44 14.1 85.52 13.8 84.55 15.58 84.25 15.82 84.98 16.16 85.68 16.59 86.32 17.1 86.9 17.69 87.41 18.34 87.83 19.05 88.16 19.79 88.4 20.56 88.53 21.33 88.56 22.11 88.49 22.87 88.31 23.59 88.03 24.28 87.66 24.91 87.2 29.38 82.97 30.2 82.37 31.09 81.89 32.05 81.53 33.05 81.3 34.06 81.2 46.77 81.82 47.55 81.75 48.3 81.57 49.03 81.3 49.71 80.92 50.34 80.47 50.9 79.93 51.38 79.32 51.77 78.65 52.07 77.94 52.27 77.19 52.37 76.42 52.36 75.65 52.25 74.89 52.03 74.14 51.71 73.44 51.31 72.78 50.81 72.18 50.24 71.66 49.61 71.21 48.91 70.86 48.18 70.59"/></g><g id="section-6" data-name="section"><polyline id="background-15" data-name="background" class="cls-4" points="25.53 66.61 37.55 60.24 38.37 59.65 39.11 58.94 39.74 58.15 40.26 57.27 40.66 56.34 40.92 55.36 41.05 54.36 41.04 53.34 40.9 52.34 40.62 51.37 40.21 50.44 39.68 49.57 39.03 48.79 38.29 48.09 31.08 42.94 30.51 42.42 29.11 43.53 29.84 44.24 37.23 49.54 37.79 50.08 38.27 50.69 38.66 51.36 38.96 52.07 39.16 52.82 39.26 53.58 39.25 54.36 39.14 55.12 38.92 55.86 38.61 56.57 38.2 57.23 37.7 57.83 37.13 58.35 36.5 58.8 24.68 65.03"/><polyline id="background-16" data-name="background" class="cls-5" points="25.53 63.61 37.55 57.24 38.37 56.65 39.11 55.94 39.74 55.15 40.26 54.27 40.66 53.34 40.92 52.36 41.05 51.36 41.04 50.34 40.9 49.34 40.62 48.37 40.21 47.44 39.68 46.57 39.03 45.79 38.29 45.09 31.08 39.94 30.51 39.42 29.11 40.53 29.84 41.24 37.23 46.54 37.79 47.08 38.27 47.69 38.66 48.36 38.96 49.07 39.16 49.82 39.26 50.58 39.25 51.36 39.14 52.12 38.92 52.86 38.61 53.57 38.2 54.23 37.7 54.83 37.13 55.35 36.5 55.8 24.68 62.03"/></g><g id="section-7" data-name="section"><polyline id="background-17" data-name="background" class="cls-4" points="60.3 95.19 54.9 82.79 54.36 81.92 53.71 81.14 52.97 80.45 52.13 79.87 51.23 79.4 50.27 79.06 49.27 78.85 48.25 78.77 47.23 78.83 46.23 79.03 45.26 79.36 44.35 79.81 43.51 80.39 42.75 81.07 36.98 87.77 36.41 88.29 37.41 89.77 38.18 89.1 44.12 82.23 44.7 81.72 45.35 81.29 46.05 80.96 46.8 80.72 47.56 80.59 48.34 80.55 49.12 80.63 49.88 80.8 50.6 81.07 51.29 81.44 51.92 81.9 52.48 82.44 52.96 83.05 53.35 83.71 58.65 95.9"/><polyline id="background-18" data-name="background" class="cls-5" points="60.3 92.19 54.9 79.79 54.36 78.92 53.71 78.14 52.97 77.45 52.13 76.87 51.23 76.4 50.27 76.06 49.27 75.85 48.25 75.77 47.23 75.83 46.23 76.03 45.26 76.36 44.35 76.81 43.51 77.39 42.75 78.07 36.98 84.77 36.41 85.29 37.41 86.77 38.18 86.1 44.12 79.23 44.7 78.72 45.35 78.29 46.05 77.96 46.8 77.72 47.56 77.59 48.34 77.55 49.12 77.63 49.88 77.8 50.6 78.07 51.29 78.44 51.92 78.9 52.48 79.44 52.96 80.05 53.35 80.71 58.65 92.9"/></g><g id="section-8" data-name="section"><polyline id="background-19" data-name="background" class="cls-4" points="20.63 58.37 21.4 58.25 22.18 58.23 22.95 58.31 53.31 66.2 54.03 66.48 54.71 66.87 55.33 67.33 55.88 67.88 56.35 68.5 56.74 69.17 57.03 69.89 62.01 90.61 62.09 91.38 62.08 92.15 61.95 92.92 61.72 93.66 61.4 94.36 60.98 95.01 60.48 95.6 59.9 96.12 59.26 96.55 58.56 96.9 57.82 97.15 57.06 97.3 56.28 97.34 55.5 97.28 54.74 97.12 54.01 96.86 53.32 96.5 52.68 96.06 51.44 97.35 52.26 97.95 53.16 98.43 54.11 98.8 55.11 99.03 56.12 99.12 57.14 99.08 58.15 98.91 59.12 98.59 60.04 98.16 60.9 97.6 61.67 96.94 62.34 96.18 62.91 95.33 63.35 94.42 63.67 93.45 63.85 92.46 63.89 91.45 63.8 90.44 58.78 69.47 58.42 68.53 57.93 67.63 57.33 66.82 56.62 66.09 55.82 65.46 54.94 64.94 54 64.55 23.41 56.59 22.39 56.46 21.37 56.46 20.36 56.6"/><polyline id="background-20" data-name="background" class="cls-5" points="20.63 55.37 21.4 55.25 22.18 55.23 22.95 55.31 53.31 63.2 54.03 63.48 54.71 63.87 55.33 64.33 55.88 64.88 56.35 65.5 56.74 66.17 57.03 66.89 62.01 87.61 62.09 88.38 62.08 89.15 61.95 89.92 61.72 90.66 61.4 91.36 60.98 92.01 60.48 92.6 59.9 93.12 59.26 93.55 58.56 93.9 57.82 94.15 57.06 94.3 56.28 94.34 55.5 94.28 54.74 94.12 54.01 93.86 53.32 93.5 52.68 93.06 51.44 94.35 52.26 94.95 53.16 95.43 54.11 95.8 55.11 96.03 56.12 96.12 57.14 96.08 58.15 95.91 59.12 95.59 60.04 95.16 60.9 94.6 61.67 93.94 62.34 93.18 62.91 92.33 63.35 91.42 63.67 90.45 63.85 89.46 63.89 88.45 63.8 87.44 58.78 66.47 58.42 65.53 57.93 64.63 57.33 63.82 56.62 63.09 55.82 62.46 54.94 61.94 54 61.55 23.41 53.59 22.39 53.46 21.37 53.46 20.36 53.6"/></g><g id="background-21" data-name="background"><polygon class="cls-6" points="40.08 42.05 48.74 43.99 49.48 44.25 50.16 44.61 50.8 45.06 51.37 45.59 51.86 46.19 52.27 46.84 52.58 47.55 52.79 48.3 52.9 49.06 52.91 49.83 52.81 50.6 52.61 51.34 52.31 52.06 51.91 52.72 51.43 53.33 50.87 53.87 50.24 54.32 49.55 54.69 48.83 54.97 48.07 55.14 48.21 56.92 49.21 56.71 50.17 56.37 51.08 55.9 51.92 55.32 52.66 54.63 53.31 53.84 53.85 52.98 54.26 52.05 54.54 51.08 54.69 50.08 54.7 49.06 54.58 48.06 54.31 47.08 53.92 46.15 53.41 45.27 52.78 44.47 52.05 43.77 51.22 43.16 50.33 42.68 49.37 42.32 40.48 40.31 39.73 40.09 39.02 39.78 38.35 39.38 37.75 38.89 37.22 38.33 36.77 37.7 36.41 37.01 36.14 36.28 35.98 35.53 35.92 34.76 35.97 33.99 36.12 33.23 36.37 32.5 36.72 31.81 37.16 31.17 37.68 30.6 38.27 30.1 38.93 29.68 39.64 29.36 40.38 29.14 41.15 29.01 41.93 28.99 42.7 29.08 43.46 29.26 44.19 29.55 44.86 29.93 45.48 30.4 46.03 30.94 46.51 31.56 48.08 30.69 47.48 29.88 46.77 29.15 45.97 28.52 45.09 28 44.15 27.61 43.16 27.35 42.15 27.22 41.13 27.23 40.11 27.37 39.13 27.65 38.2 28.05 37.32 28.58 36.53 29.22 35.83 29.96 35.24 30.79 34.77 31.68 34.42 32.63 34.2 33.63 34.12 34.63 34.18 35.65 34.38 36.64 34.71 37.6 35.16 38.51 35.74 39.34 36.42 40.1 37.2 40.75 38.06 41.3 38.99 41.72 39.96 42.02 40.08 42.05"/><polygon class="cls-8" points="40.08 42.05 48.74 43.99 49.48 44.25 50.16 44.61 50.8 45.06 51.37 45.59 51.86 46.19 52.27 46.84 52.58 47.55 52.79 48.3 52.9 49.06 52.91 49.83 52.81 50.6 52.61 51.34 52.31 52.06 51.91 52.72 51.43 53.33 50.87 53.87 50.24 54.32 49.55 54.69 48.83 54.97 48.07 55.14 48.21 56.92 49.21 56.71 50.17 56.37 51.08 55.9 51.92 55.32 52.66 54.63 53.31 53.84 53.85 52.98 54.26 52.05 54.54 51.08 54.69 50.08 54.7 49.06 54.58 48.06 54.31 47.08 53.92 46.15 53.41 45.27 52.78 44.47 52.05 43.77 51.22 43.16 50.33 42.68 49.37 42.32 40.48 40.31 39.73 40.09 39.02 39.78 38.35 39.38 37.75 38.89 37.22 38.33 36.77 37.7 36.41 37.01 36.14 36.28 35.98 35.53 35.92 34.76 35.97 33.99 36.12 33.23 36.37 32.5 36.72 31.81 37.16 31.17 37.68 30.6 38.27 30.1 38.93 29.68 39.64 29.36 40.38 29.14 41.15 29.01 41.93 28.99 42.7 29.08 43.46 29.26 44.19 29.55 44.86 29.93 45.48 30.4 46.03 30.94 46.51 31.56 48.08 30.69 47.48 29.88 46.77 29.15 45.97 28.52 45.09 28 44.15 27.61 43.16 27.35 42.15 27.22 41.13 27.23 40.11 27.37 39.13 27.65 38.2 28.05 37.32 28.58 36.53 29.22 35.83 29.96 35.24 30.79 34.77 31.68 34.42 32.63 34.2 33.63 34.12 34.63 34.18 35.65 34.38 36.64 34.71 37.6 35.16 38.51 35.74 39.34 36.42 40.1 37.2 40.75 38.06 41.3 38.99 41.72 39.96 42.02 40.08 42.05"/><polygon class="cls-7" points="40.08 39.05 48.74 40.99 49.48 41.25 50.16 41.61 50.8 42.06 51.37 42.59 51.86 43.19 52.27 43.84 52.58 44.55 52.79 45.3 52.9 46.06 52.91 46.83 52.81 47.6 52.61 48.34 52.31 49.06 51.91 49.72 51.43 50.33 50.87 50.87 50.24 51.32 49.55 51.69 48.83 51.97 48.07 52.14 48.21 53.92 49.21 53.71 50.17 53.37 51.08 52.9 51.92 52.32 52.66 51.63 53.31 50.84 53.85 49.98 54.26 49.05 54.54 48.08 54.69 47.08 54.7 46.06 54.58 45.06 54.31 44.08 53.92 43.15 53.41 42.27 52.78 41.47 52.05 40.77 51.22 40.16 50.33 39.68 49.37 39.32 40.48 37.31 39.73 37.09 39.02 36.78 38.35 36.38 37.75 35.89 37.22 35.33 36.77 34.7 36.41 34.01 36.14 33.28 35.98 32.53 35.92 31.76 35.97 30.99 36.12 30.23 36.37 29.5 36.72 28.81 37.16 28.17 37.68 27.6 38.27 27.1 38.93 26.68 39.64 26.36 40.38 26.14 41.15 26.01 41.93 25.99 42.7 26.08 43.46 26.26 44.19 26.55 44.86 26.93 45.48 27.4 46.03 27.94 46.51 28.56 48.08 27.69 47.48 26.88 46.77 26.15 45.97 25.52 45.09 25 44.15 24.61 43.16 24.35 42.15 24.22 41.13 24.23 40.11 24.37 39.13 24.65 38.2 25.05 37.32 25.58 36.53 26.22 35.83 26.96 35.24 27.79 34.77 28.68 34.42 29.64 34.2 30.63 34.12 31.64 34.18 32.65 34.38 33.64 34.71 34.6 35.16 35.51 35.74 36.34 36.42 37.1 37.2 37.75 38.06 38.3 38.99 38.72 39.96 39.02 40.08 39.05"/><polygon class="cls-9" points="40.08 39.05 48.74 40.99 49.48 41.25 50.16 41.61 50.8 42.06 51.37 42.59 51.86 43.19 52.27 43.84 52.58 44.55 52.79 45.3 52.9 46.06 52.91 46.83 52.81 47.6 52.61 48.34 52.31 49.06 51.91 49.72 51.43 50.33 50.87 50.87 50.24 51.32 49.55 51.69 48.83 51.97 48.07 52.14 48.21 53.92 49.21 53.71 50.17 53.37 51.08 52.9 51.92 52.32 52.66 51.63 53.31 50.84 53.85 49.98 54.26 49.05 54.54 48.08 54.69 47.08 54.7 46.06 54.58 45.06 54.31 44.08 53.92 43.15 53.41 42.27 52.78 41.47 52.05 40.77 51.22 40.16 50.33 39.68 49.37 39.32 40.48 37.31 39.73 37.09 39.02 36.78 38.35 36.38 37.75 35.89 37.22 35.33 36.77 34.7 36.41 34.01 36.14 33.28 35.98 32.53 35.92 31.76 35.97 30.99 36.12 30.23 36.37 29.5 36.72 28.81 37.16 28.17 37.68 27.6 38.27 27.1 38.93 26.68 39.64 26.36 40.38 26.14 41.15 26.01 41.93 25.99 42.7 26.08 43.46 26.26 44.19 26.55 44.86 26.93 45.48 27.4 46.03 27.94 46.51 28.56 48.08 27.69 47.48 26.88 46.77 26.15 45.97 25.52 45.09 25 44.15 24.61 43.16 24.35 42.15 24.22 41.13 24.23 40.11 24.37 39.13 24.65 38.2 25.05 37.32 25.58 36.53 26.22 35.83 26.96 35.24 27.79 34.77 28.68 34.42 29.64 34.2 30.63 34.12 31.64 34.18 32.65 34.38 33.64 34.71 34.6 35.16 35.51 35.74 36.34 36.42 37.1 37.2 37.75 38.06 38.3 38.99 38.72 39.96 39.02 40.08 39.05"/></g><g id="section-9" data-name="section"><path id="background-22" data-name="background" class="cls-4" d="M65.52,30l-.29-1-.41-.93-.54-.86-3.79-4.76-.75-.69-.84-.58L58,20.72l-1-.34-1-.21-1-.07-1,.06-1,.2-1,.33-.91.46-.85.57-.75.68-.66.78-1.38,2.16-.5.59-.58.52-.64.44-.69.35-.74.26-.76.15-.78.05L42,27.65a5.07,5.07,0,0,1-2.41-1.91c-1.13-1.53-3.07-1.72-1.51,1s3.54,2.7,3.54,2.7l1,.09,1-.05,1-.18,1-.32.92-.44.85-.56.77-.67.67-.76,1.53-2.35.51-.59.59-.51.65-.42.7-.34.74-.24.76-.13.78,0,.78.07.76.17.73.28.68.37.63.45.56.54,3.63,4.58.4.67.3.71.2.74"/><path id="background-23" data-name="background" class="cls-5" d="M65.52,27l-.29-1-.41-.93-.54-.86-3.79-4.76-.75-.69-.84-.58L58,17.72l-1-.34-1-.21-1-.07-1,.06-1,.2-1,.33-.91.46-.85.57-.75.68-.66.78-1.38,2.16-.5.59-.58.52-.64.44-.69.35-.74.26-.76.15-.78.05L42,24.65a5.07,5.07,0,0,1-2.41-1.91c-1.13-1.53-3.07-1.72-1.51,1s3.54,2.7,3.54,2.7l1,.09,1-.05,1-.18,1-.32.92-.44.85-.56.77-.67.67-.76,1.53-2.35.51-.59.59-.51.65-.42.7-.34.74-.24.76-.13.78,0,.78.07.76.17.73.28.68.37.63.45.56.54,3.63,4.58.4.67.3.71.2.74"/></g><g id="section-10" data-name="section"><polyline id="background-24" data-name="background" class="cls-4" points="47.95 41.3 53.79 27.27 61.26 7.67 59.59 6.99 52.13 26.59 46.29 40.62"/><polyline id="background-25" data-name="background" class="cls-5" points="47.95 38.3 53.79 24.27 61.26 4.67 59.59 3.98 52.13 23.59 46.29 37.62"/></g><g id="section-11" data-name="section"><polyline id="background-26" data-name="background" class="cls-4" points="49.74 71.01 50.69 70.63 51.58 70.14 52.4 69.53 53.12 68.81 53.74 68.01 54.25 67.13 54.63 66.19 54.88 65.21 55 64.2 54.98 63.19 54.82 62.19 54.53 61.22 54.1 60.3 53.56 59.44 52.9 58.66 52.15 57.98 51.31 57.4 47.41 55.42 46.77 54.98 46.19 54.46 45.69 53.87 45.27 53.22 44.95 52.52 44.72 51.78 44.6 51.01 44.58 50.24 44.67 49.47 44.86 48.72 47.61 42.12 47.95 41.3 46.29 40.62 45.94 41.44 43.19 48.04 42.93 49.02 42.8 50.02 42.8 51.04 42.94 52.04 43.22 53.02 43.63 53.94 44.16 54.81 44.8 55.6 45.55 56.29 46.38 56.88 50.48 58.99 51.11 59.44 51.68 59.97 52.17 60.57 52.57 61.23 52.88 61.94 53.09 62.69 53.2 63.45 53.2 64.22 53.1 64.99 52.89 65.74 52.59 66.45 52.19 67.11 51.7 67.72 51.14 68.25 50.51 68.7 49.82 69.07 49.09 69.34"/><polyline id="background-27" data-name="background" class="cls-5" points="49.74 68.01 50.69 67.63 51.58 67.14 52.4 66.53 53.12 65.81 53.74 65.01 54.25 64.13 54.63 63.19 54.88 62.21 55 61.2 54.98 60.19 54.82 59.19 54.53 58.22 54.1 57.3 53.56 56.44 52.9 55.66 52.15 54.98 51.31 54.4 47.41 52.42 46.77 51.98 46.19 51.46 45.69 50.87 45.27 50.22 44.95 49.52 44.72 48.78 44.6 48.01 44.58 47.24 44.67 46.47 44.86 45.72 47.61 39.12 47.95 38.3 46.29 37.62 45.94 38.44 43.19 45.04 42.93 46.02 42.8 47.02 42.8 48.04 42.94 49.04 43.22 50.02 43.63 50.94 44.16 51.81 44.8 52.6 45.55 53.29 46.38 53.88 50.48 55.99 51.11 56.44 51.68 56.97 52.17 57.57 52.57 58.23 52.88 58.94 53.09 59.69 53.2 60.45 53.2 61.23 53.1 61.99 52.89 62.74 52.59 63.45 52.19 64.11 51.7 64.72 51.14 65.25 50.51 65.7 49.82 66.07 49.09 66.34"/></g><g id="section-12" data-name="section"><path id="background-28" data-name="background" class="cls-10" d="M24.07,43.81l.62,18,.18,1,.31,1,.45.92.56.84.67.77.77.66.85.56.92.44,1,.31L47.3,71.38A5.48,5.48,0,0,0,49.74,71l-.65-1.67a4.26,4.26,0,0,1-1.7.26L30.71,66.48,30,66.23l-.7-.35-.64-.44-.58-.52-.5-.59-.41-.65-.33-.7-.22-.74-.13-.77-.6-17.72"/><path id="background-29" data-name="background" class="cls-11" d="M24.07,40.81l.62,18,.18,1,.31,1,.45.92.56.84.67.77.77.66.85.56.92.44,1,.31L47.3,68.38A5.48,5.48,0,0,0,49.74,68l-.65-1.67a4.26,4.26,0,0,1-1.7.26L30.71,63.48,30,63.23l-.7-.35-.64-.44-.58-.52-.5-.59-.41-.65-.33-.7-.22-.74-.13-.77-.6-17.72"/></g><g id="background-30" data-name="background"><polyline class="cls-6" points="40.13 65.94 41.11 65.64 42.04 65.22 42.9 64.68 43.68 64.03 44.37 63.28 44.95 62.44 45.41 61.54 45.74 60.58 47.54 51.95 47.79 51.22 48.14 50.53 48.58 49.9 56.59 41.27 57.17 40.44 57.63 39.53 57.96 38.57 58.16 37.58 58.22 36.57 58.15 35.56 57.93 34.57 57.59 33.61 57.12 32.71 56.53 31.89 55.84 31.14 55.05 30.5 54.18 29.97 53.24 29.56 52.26 29.28 51.25 29.13 50.23 29.12 49.22 29.24 48.23 29.5 48.91 31.16 49.66 30.97 50.44 30.89 51.22 30.91 51.98 31.04 52.73 31.27 53.44 31.6 54.09 32.01 54.68 32.52 55.2 33.09 55.64 33.73 55.99 34.42 56.23 35.15 56.38 35.91 56.42 36.68 56.36 37.45 56.2 38.21 55.93 38.94 55.56 39.62 55.11 40.25 47.25 48.69 46.66 49.51 46.19 50.41 45.84 51.36 43.98 60.22 43.71 60.94 43.35 61.63 42.89 62.26 42.36 62.82 41.75 63.3 41.09 63.7 40.37 64.01 39.62 64.22"/><polyline class="cls-8" points="40.13 65.94 41.11 65.64 42.04 65.22 42.9 64.68 43.68 64.03 44.37 63.28 44.95 62.44 45.41 61.54 45.74 60.58 47.54 51.95 47.79 51.22 48.14 50.53 48.58 49.9 56.59 41.27 57.17 40.44 57.63 39.53 57.96 38.57 58.16 37.58 58.22 36.57 58.15 35.56 57.93 34.57 57.59 33.61 57.12 32.71 56.53 31.89 55.84 31.14 55.05 30.5 54.18 29.97 53.24 29.56 52.26 29.28 51.25 29.13 50.23 29.12 49.22 29.24 48.23 29.5 48.91 31.16 49.66 30.97 50.44 30.89 51.22 30.91 51.98 31.04 52.73 31.27 53.44 31.6 54.09 32.01 54.68 32.52 55.2 33.09 55.64 33.73 55.99 34.42 56.23 35.15 56.38 35.91 56.42 36.68 56.36 37.45 56.2 38.21 55.93 38.94 55.56 39.62 55.11 40.25 47.25 48.69 46.66 49.51 46.19 50.41 45.84 51.36 43.98 60.22 43.71 60.94 43.35 61.63 42.89 62.26 42.36 62.82 41.75 63.3 41.09 63.7 40.37 64.01 39.62 64.22"/><polyline class="cls-7" points="40.13 62.94 41.11 62.64 42.04 62.22 42.9 61.68 43.68 61.03 44.37 60.28 44.95 59.44 45.41 58.54 45.74 57.58 47.54 48.95 47.79 48.22 48.14 47.53 48.58 46.9 56.59 38.27 57.17 37.44 57.63 36.53 57.96 35.57 58.16 34.58 58.22 33.57 58.15 32.56 57.93 31.57 57.59 30.61 57.12 29.71 56.53 28.89 55.84 28.14 55.05 27.5 54.18 26.97 53.24 26.56 52.26 26.28 51.25 26.13 50.23 26.12 49.22 26.24 48.23 26.5 48.91 28.16 49.66 27.97 50.44 27.89 51.22 27.91 51.98 28.04 52.73 28.27 53.44 28.6 54.09 29.01 54.68 29.52 55.2 30.09 55.64 30.73 55.99 31.42 56.23 32.15 56.38 32.91 56.42 33.68 56.36 34.45 56.2 35.21 55.93 35.94 55.56 36.62 55.11 37.25 47.25 45.69 46.66 46.51 46.19 47.41 45.84 48.36 43.98 57.22 43.71 57.94 43.35 58.63 42.89 59.26 42.36 59.82 41.75 60.3 41.09 60.7 40.37 61.01 39.62 61.22"/><polyline class="cls-9" points="40.13 62.94 41.11 62.64 42.04 62.22 42.9 61.68 43.68 61.03 44.37 60.28 44.95 59.44 45.41 58.54 45.74 57.58 47.54 48.95 47.79 48.22 48.14 47.53 48.58 46.9 56.59 38.27 57.17 37.44 57.63 36.53 57.96 35.57 58.16 34.58 58.22 33.57 58.15 32.56 57.93 31.57 57.59 30.61 57.12 29.71 56.53 28.89 55.84 28.14 55.05 27.5 54.18 26.97 53.24 26.56 52.26 26.28 51.25 26.13 50.23 26.12 49.22 26.24 48.23 26.5 48.91 28.16 49.66 27.97 50.44 27.89 51.22 27.91 51.98 28.04 52.73 28.27 53.44 28.6 54.09 29.01 54.68 29.52 55.2 30.09 55.64 30.73 55.99 31.42 56.23 32.15 56.38 32.91 56.42 33.68 56.36 34.45 56.2 35.21 55.93 35.94 55.56 36.62 55.11 37.25 47.25 45.69 46.66 46.51 46.19 47.41 45.84 48.36 43.98 57.22 43.71 57.94 43.35 58.63 42.89 59.26 42.36 59.82 41.75 60.3 41.09 60.7 40.37 61.01 39.62 61.22"/></g><g id="section-13" data-name="section"><polyline id="background-31" data-name="background" class="cls-4" points="63.77 30.4 63.95 31.15 64.04 31.91 64.02 32.69 63.9 33.45 63.67 34.19 63.35 34.89 62.93 35.54 62.43 36.13 61.85 36.65 61.21 37.09 60.51 37.44 59.77 37.69 59.01 37.84 58.23 37.88 57.46 37.83 56.69 37.66 55.96 37.4 54.63 36.6 54.63 36.6 48.59 31.28 47.01 32.05 53.39 37.89 54.22 38.49 55.11 38.98 56.07 39.34 57.06 39.57 58.08 39.66 59.1 39.62 60.1 39.44 61.08 39.13 62 38.69 62.85 38.14 63.62 37.47 64.29 36.71 64.86 35.86 65.3 34.95 65.61 33.99 65.8 32.99 65.84 31.98 65.75 30.97 65.52 29.98"/><polyline id="background-32" data-name="background" class="cls-5" points="63.77 27.4 63.95 28.15 64.04 28.91 64.02 29.69 63.9 30.45 63.67 31.19 63.35 31.89 62.93 32.54 62.43 33.13 61.85 33.65 61.21 34.09 60.51 34.44 59.77 34.69 59.01 34.84 58.23 34.88 57.46 34.83 56.69 34.66 55.96 34.4 54.63 33.6 54.63 33.6 48.59 28.28 47.01 29.05 53.39 34.89 54.22 35.49 55.11 35.98 56.07 36.34 57.06 36.57 58.08 36.66 59.1 36.62 60.1 36.44 61.08 36.13 62 35.69 62.85 35.14 63.62 34.47 64.29 33.71 64.86 32.86 65.3 31.95 65.61 30.99 65.8 29.99 65.84 28.98 65.75 27.97 65.52 26.98"/></g><g id="section-14" data-name="section"><polyline id="background-33" data-name="background" class="cls-4" points="30.52 72.31 34.71 68.18 35.31 67.68 35.97 67.26 36.67 66.94 39.27 66.19 40.13 65.94 39.62 64.22 38.76 64.47 36.17 65.23 35.23 65.63 34.36 66.16 33.57 66.8 29.19 71.1"/><polyline id="background-34" data-name="background" class="cls-5" points="30.52 69.31 34.71 65.18 35.31 64.68 35.97 64.26 36.67 63.94 39.27 63.19 40.13 62.94 39.62 61.22 38.76 61.47 36.17 62.23 35.23 62.63 34.36 63.16 33.57 63.8 29.19 68.1"/></g><g id="background-35" data-name="background"><path class="cls-6" d="M50.23,29.12l-1,.12-1,.26-8.34,3.36-.84.34-8.87,3.62.45,1.72,9.1-3.69.84-.33,8.34-3.36.75-.19.78-.08a6.15,6.15,0,0,1,1.83.24"/><path class="cls-8" d="M50.23,29.12l-1,.12-1,.26-8.34,3.36-.84.34-8.87,3.62.45,1.72,9.1-3.69.84-.33,8.34-3.36.75-.19.78-.08a6.15,6.15,0,0,1,1.83.24"/><path class="cls-7" d="M50.23,26.12l-1,.12-1,.26-8.34,3.36-.84.34-8.87,3.62.45,1.72,9.1-3.69.84-.33,8.34-3.36.75-.19.78-.08a6.15,6.15,0,0,1,1.83.24"/><path class="cls-9" d="M50.23,26.12l-1,.12-1,.26-8.34,3.36-.84.34-8.87,3.62.45,1.72,9.1-3.69.84-.33,8.34-3.36.75-.19.78-.08a6.15,6.15,0,0,1,1.83.24"/></g></g><polygon class="cls-12" points="75.5 3 75.5 99 116.5 75 116.5 27 75.5 3"/><path class="cls-7" d="M107.78,59.09a6.75,6.75,0,0,0-7.67-2.86A18.09,18.09,0,0,0,91.5,50.6a28.62,28.62,0,0,0,5.91-6.16,6.91,6.91,0,0,0,5.17-.83,6.77,6.77,0,1,0-9.34-2.11,6.27,6.27,0,0,0,.42.59,23.88,23.88,0,0,1-9.52,7.79h0A18.45,18.45,0,0,1,75.5,52v5c4,0,5.93-1.12,10-2.9a14.78,14.78,0,0,1,11,4.75,6.76,6.76,0,1,0,12.16,5.32A6.64,6.64,0,0,0,107.78,59.09ZM97.56,35.67a2.57,2.57,0,0,1,1.4-.41,2.62,2.62,0,1,1,0,5.24,2.61,2.61,0,0,1-2.22-1.21A2.63,2.63,0,0,1,97.56,35.67Zm7.06,27.6a2.61,2.61,0,0,1-1.16,1.64,2.56,2.56,0,0,1-1.39.41,2.62,2.62,0,0,1-1.52-4.75l.12-.07a2.65,2.65,0,0,1,3.6.8A2.59,2.59,0,0,1,104.62,63.27Z"/><path class="cls-2" d="M15.91,106.7l6.24,23.7,6.24-23.7h11.3V142h-8.6v-7l.82-16.42L25,142H19.3l-6.91-23.33.82,16.3v7H4.64V106.7Z"/><path class="cls-2" d="M57.56,142.56q-6.08,0-9.47-3.63t-3.41-10.37v-2.39q0-7.14,3.13-11t8.94-3.88q5.69,0,8.56,3.64t2.93,10.75v3.87H52.54A8.27,8.27,0,0,0,54,134.45a5,5,0,0,0,4,1.56,8.85,8.85,0,0,0,6.61-2.71l3.09,4.77a10.13,10.13,0,0,1-4.2,3.25A14.58,14.58,0,0,1,57.56,142.56Zm-5-18.51h7.89v-.73a8.41,8.41,0,0,0-.89-4.09,3.11,3.11,0,0,0-2.9-1.4,3.29,3.29,0,0,0-3,1.48A10.22,10.22,0,0,0,52.6,124.05Z"/><path class="cls-2" d="M86.05,133.92a2.48,2.48,0,0,0-1-1.86,19.46,19.46,0,0,0-4.28-2.3c-3.25-1.32-5.49-2.68-6.7-4.09a7.79,7.79,0,0,1-1.83-5.27,8.41,8.41,0,0,1,2.86-6.54,10.84,10.84,0,0,1,7.57-2.58,11.77,11.77,0,0,1,7.94,2.57,8.6,8.6,0,0,1,3,6.88H85.74q0-3.67-3.06-3.68a2.86,2.86,0,0,0-2.07.78,2.92,2.92,0,0,0-.8,2.18,2.26,2.26,0,0,0,.89,1.77A19.68,19.68,0,0,0,84.91,124q4.82,1.78,6.81,4a8.09,8.09,0,0,1,2,5.67,7.93,7.93,0,0,1-3,6.49,12.3,12.3,0,0,1-8,2.46,12.74,12.74,0,0,1-5.86-1.3,9.84,9.84,0,0,1-4-3.61,9.25,9.25,0,0,1-1.44-5h7.5a4.83,4.83,0,0,0,1,3.1,3.81,3.81,0,0,0,3,1Q86,136.79,86.05,133.92Z"/><path class="cls-2" d="M112,133.92a2.48,2.48,0,0,0-1-1.86,19.46,19.46,0,0,0-4.28-2.3q-4.87-2-6.7-4.09a7.79,7.79,0,0,1-1.83-5.27,8.45,8.45,0,0,1,2.86-6.54,10.86,10.86,0,0,1,7.57-2.58,11.75,11.75,0,0,1,7.94,2.57,8.6,8.6,0,0,1,3,6.88h-7.88c0-2.45-1-3.68-3.07-3.68a2.84,2.84,0,0,0-2.06.78,2.89,2.89,0,0,0-.81,2.18,2.29,2.29,0,0,0,.89,1.77,19.68,19.68,0,0,0,4.21,2.19c3.21,1.19,5.49,2.51,6.81,4a8.1,8.1,0,0,1,2,5.67,7.94,7.94,0,0,1-3,6.49,12.28,12.28,0,0,1-8,2.46,12.77,12.77,0,0,1-5.86-1.3,9.84,9.84,0,0,1-4-3.61,9.24,9.24,0,0,1-1.43-5h7.5a4.72,4.72,0,0,0,1,3.1,3.78,3.78,0,0,0,3,1Q112,136.79,112,133.92Z"/><path class="cls-2" d="M134.22,128.87l4-17h8.42l-9.93,34.68q-2.22,7.66-8.39,7.66a11.83,11.83,0,0,1-3.23-.53v-6.16l.92,0a4.54,4.54,0,0,0,2.77-.71,4.41,4.41,0,0,0,1.41-2.47l.62-2-8.7-30.47h8.47Z"/><path class="cls-12" d="M5.45,188V152.7h12c4.12,0,7.27.84,9.44,2.5a8.61,8.61,0,0,1,3.26,7.26,9.07,9.07,0,0,1-1.19,4.7,6.91,6.91,0,0,1-3.48,2.93,6.74,6.74,0,0,1,3.85,2.78,8.81,8.81,0,0,1,1.36,5c0,3.52-1,6.08-3.06,7.7S22.52,188,18.42,188ZM14,167.37h4.12c2.28-.06,3.42-1.28,3.42-3.64a4.23,4.23,0,0,0-.85-3,3.4,3.4,0,0,0-2.6-.9H14Zm0,6v7.6h4.39a3.65,3.65,0,0,0,2.74-1,3.65,3.65,0,0,0,1-2.68q0-3.82-3.09-3.95Z"/><path class="cls-12" d="M50.81,165.45l-2.62-.22a4.3,4.3,0,0,0-4.38,2.84V188H35.9V157.84h7.44l.22,3.26c1.25-2.54,3-3.82,5.16-3.82a5.33,5.33,0,0,1,2.17.37Z"/><path class="cls-12" d="M68.34,188a11.67,11.67,0,0,1-.67-2.34,6.74,6.74,0,0,1-5.74,2.9,8.5,8.5,0,0,1-6.28-2.51,8.8,8.8,0,0,1-2.5-6.5,9.14,9.14,0,0,1,3-7.33c2-1.72,4.92-2.61,8.71-2.64h2.39v-2.43a4.57,4.57,0,0,0-.69-2.87,2.51,2.51,0,0,0-2-.84c-2,0-2.95,1.16-2.95,3.46H53.71a8.7,8.7,0,0,1,3.14-6.9,11.68,11.68,0,0,1,7.93-2.72q4.95,0,7.68,2.58t2.71,7.37v14.19a14.86,14.86,0,0,0,1.12,6.11V188Zm-4.65-5.63a4.43,4.43,0,0,0,2.23-.53,3.69,3.69,0,0,0,1.36-1.25v-6.28H65.39a4,4,0,0,0-3.16,1.29A4.86,4.86,0,0,0,61.07,179C61.07,181.25,61.94,182.37,63.69,182.37Z"/><path class="cls-12" d="M80.89,150a4.07,4.07,0,0,1,1.17-3,4.71,4.71,0,0,1,6.24,0,4.07,4.07,0,0,1,1.17,3,4.29,4.29,0,1,1-8.58,0Zm8.28,38H81.25V157.84h7.92Z"/><path class="cls-12" d="M102.49,157.84l.22,3a8.38,8.38,0,0,1,7-3.54q7.77,0,8,10.9V188h-7.92V168.77a6.94,6.94,0,0,0-.76-3.72,3,3,0,0,0-2.7-1.16,3.67,3.67,0,0,0-3.34,2.2V188H95.07V157.84Z"/><path class="cls-12" d="M132.09,181.45H144V188h-21.3v-4.93l11.66-18.65H123v-6.58h20.85v4.77Z"/></svg>