<svg xmlns="http://www.w3.org/2000/svg" xmlns:xlink="http://www.w3.org/1999/xlink" viewBox="0 0 145 160"><defs><style>.cls-1,.cls-10,.cls-11{fill:none;}.cls-2{isolation:isolate;}.cls-3{fill:#eb743b;}.cls-4{fill:#b50437;}.cls-5{clip-path:url(#clip-path);}.cls-12,.cls-6,.cls-8{fill:#8e0324;}.cls-10,.cls-12,.cls-6{stroke:#8e0324;}.cls-10,.cls-11,.cls-12,.cls-13,.cls-6,.cls-7{stroke-width:1.5px;}.cls-13,.cls-7,.cls-9{fill:#fffedb;}.cls-11,.cls-13,.cls-7{stroke:#fffedb;}.cls-12,.cls-13{stroke-linecap:square;stroke-linejoin:round;}.cls-14{mix-blend-mode:multiply;opacity:0.07;}.cls-15{fill:#d3562c;}</style><clipPath id="clip-path"><polygon class="cls-1" points="14 114.11 14 45.9 70 13.69 70 146.19 14 114.11"/></clipPath></defs><g class="cls-2"><g id="Layer_1" data-name="Layer 1"><polygon class="cls-3" points="75 8 75 152 136 117 136 43 75 8"/><polygon class="cls-4" points="70 8 9 43 9 117 70 152 70 8"/><g class="cls-5"><g id="section"><polyline id="background" class="cls-6" points="8.09 50.53 7.17 51.23 6.35 52.05 5.65 52.97 5.07 53.98 4.64 55.06 4.36 56.18 4.23 57.33 4.26 58.49 4.44 59.64 4.78 60.74 5.26 61.8 5.88 62.78 6.63 63.66 7.49 64.44 8.44 65.1 9.48 65.62 10.57 66 11.71 66.22 12.87 66.29 14.03 66.2 15.16 65.96 16.25 65.57 17.28 65.04 18.22 64.37 19.07 63.58 19.81 62.68 20.41 61.69 20.88 60.63 21.19 58.98 21.55 57.69 24.13 58.4 23.77 59.69 23.46 61.35 22.87 62.75 22.1 64.06 21.16 65.25 20.07 66.31 18.84 67.21 17.51 67.94 16.09 68.47 14.61 68.82 13.1 68.96 11.58 68.89 10.08 68.63 8.64 68.16 7.27 67.5 6 66.67 4.85 65.67 3.85 64.52 3.02 63.26 2.36 61.89 1.89 60.44 1.62 58.94 1.55 57.43 1.7 55.91 2.04 54.43 2.58 53.01 3.3 51.68 4.2 50.45 5.26 49.36 6.45 48.42"/><polyline id="background-2" data-name="background" class="cls-7" points="8.09 47.53 7.17 48.23 6.35 49.05 5.65 49.97 5.07 50.98 4.64 52.06 4.36 53.18 4.23 54.33 4.26 55.49 4.44 56.64 4.78 57.74 5.26 58.8 5.88 59.78 6.63 60.66 7.49 61.44 8.44 62.1 9.48 62.62 10.57 62.99 11.71 63.22 12.87 63.29 14.03 63.2 15.16 62.96 16.25 62.57 17.28 62.04 18.22 61.37 19.07 60.58 19.81 59.68 20.41 58.69 20.88 57.63 21.19 55.98 21.55 54.69 24.13 55.4 23.77 56.69 23.46 58.35 22.87 59.75 22.1 61.06 21.16 62.25 20.07 63.31 18.84 64.21 17.51 64.94 16.09 65.47 14.61 65.82 13.1 65.96 11.58 65.89 10.08 65.63 8.64 65.16 7.27 64.5 6 63.67 4.85 62.67 3.85 61.52 3.02 60.26 2.36 58.89 1.89 57.44 1.62 55.94 1.55 54.43 1.7 52.91 2.04 51.43 2.58 50.01 3.3 48.68 4.2 47.45 5.26 46.36 6.45 45.42"/></g><g id="section-2" data-name="section"><polyline id="background-3" data-name="background" class="cls-6" points="21.19 63.26 22.21 62.14 23.07 60.88 23.76 59.53 24.25 58.09 24.55 56.6 24.64 55.08 24.53 53.57 24.22 52.08 23.71 50.65 23.01 49.3 22.13 48.06 21.1 46.95 19.92 45.98 18.63 45.19 17.24 44.57 15.78 44.15 14.27 43.93 -4.47 43.56 -5.81 43.54 -5.86 46.21 -4.52 46.24 14.22 46.6 15.37 46.79 16.47 47.14 17.52 47.63 18.5 48.25 19.38 49 20.16 49.87 20.8 50.83 21.32 51.86 21.69 52.96 21.91 54.1 21.97 55.26 21.88 56.41 21.63 57.55 21.23 58.63 20.69 59.66 20.02 60.6 19.22 61.45"/><polyline id="background-4" data-name="background" class="cls-7" points="21.19 60.26 22.21 59.14 23.07 57.88 23.76 56.53 24.25 55.09 24.55 53.6 24.64 52.08 24.53 50.57 24.22 49.08 23.71 47.65 23.01 46.3 22.13 45.06 21.1 43.95 19.92 42.98 18.63 42.19 17.24 41.57 15.78 41.15 14.27 40.93 -4.47 40.56 -5.81 40.54 -5.86 43.21 -4.52 43.24 14.22 43.6 15.37 43.79 16.47 44.14 17.52 44.63 18.5 45.25 19.38 46 20.16 46.87 20.8 47.83 21.32 48.86 21.69 49.96 21.91 51.1 21.97 52.26 21.88 53.41 21.63 54.55 21.23 55.63 20.69 56.66 20.02 57.6 19.22 58.45"/></g><polyline id="background-5" data-name="background" class="cls-8" points="50.37 82.97 50.57 82.82 50.79 82.67 51.02 82.51 51.26 82.36 52.51 81.64 52.8 81.49 53.11 81.34 53.44 81.19 53.81 81.05 54.1 80.94 54.31 80.87 54.41 80.84 54.51 80.81 54.62 80.78 54.73 80.74 54.85 80.71 54.98 80.68 55.1 80.65 57.06 80.21 57.23 80.17 57.41 80.14 57.6 80.11 57.8 80.08 58 80.05 58.21 80.03 58.44 80.01 58.67 80 58.91 79.99 74.38 79.98 75 79.98 75 76 74.38 76 58.91 76.01 58.56 76.02 58.23 76.03 57.91 76.06 57.6 76.09 57.31 76.12 57.03 76.16 56.76 76.21 56.5 76.26 56.26 76.31 54.23 76.76 54.04 76.81 53.87 76.85 53.7 76.9 53.54 76.94 53.38 76.99 53.23 77.03 53.09 77.08 52.84 77.16 52.47 77.3 51.99 77.48 51.52 77.69 51.07 77.9 50.65 78.12 49.28 78.91 48.93 79.12 48.6 79.34 48.28 79.56 47.99 79.78"/><polyline id="background-6" data-name="background" class="cls-9" points="50.37 79.97 50.57 79.82 50.79 79.67 51.02 79.51 51.26 79.36 52.51 78.64 52.8 78.49 53.11 78.34 53.44 78.19 53.81 78.05 54.1 77.94 54.31 77.87 54.41 77.84 54.51 77.81 54.62 77.78 54.73 77.74 54.85 77.71 54.98 77.68 55.1 77.65 57.06 77.21 57.23 77.17 57.41 77.14 57.6 77.11 57.8 77.08 58 77.05 58.21 77.03 58.44 77.01 58.67 77 58.91 76.99 74.38 76.98 75 76.98 75 73 74.38 73 58.91 73.01 58.56 73.02 58.23 73.03 57.91 73.06 57.6 73.09 57.31 73.12 57.03 73.16 56.76 73.21 56.5 73.26 56.26 73.31 54.23 73.76 54.04 73.81 53.87 73.85 53.7 73.9 53.54 73.94 53.38 73.99 53.23 74.03 53.09 74.08 52.84 74.16 52.47 74.3 51.99 74.48 51.52 74.69 51.07 74.9 50.65 75.12 49.28 75.91 48.93 76.12 48.6 76.34 48.28 76.56 47.99 76.78"/><polyline id="background-7" data-name="background" class="cls-8" points="47.3 86.39 47.34 86.32 47.38 86.25 47.42 86.17 47.46 86.09 47.51 86.01 47.56 85.93 47.61 85.84 47.67 85.75 47.73 85.66 47.79 85.57 47.85 85.47 47.92 85.37 48 85.26 48.08 85.16 48.16 85.04 48.25 84.93 48.35 84.81 48.45 84.69 48.56 84.57 48.67 84.44 48.79 84.31 48.92 84.18 49.06 84.04 49.2 83.91 49.36 83.77 49.52 83.62 49.7 83.48 49.88 83.33 50.12 83.16 50.37 82.97 47.99 79.78 47.75 79.96 47.51 80.14 47.24 80.34 46.99 80.55 46.75 80.75 46.53 80.95 46.32 81.15 46.13 81.34 45.94 81.53 45.77 81.72 45.6 81.9 45.45 82.08 45.3 82.25 45.16 82.42 45.03 82.58 44.91 82.74 44.8 82.89 44.69 83.04 44.59 83.19 44.49 83.33 44.4 83.46 44.32 83.59 44.24 83.72 44.16 83.84 44.09 83.96 44.02 84.08 43.96 84.19 43.9 84.3 43.84 84.4 43.79 84.5"/><polyline id="background-8" data-name="background" class="cls-9" points="47.3 83.39 47.34 83.32 47.38 83.25 47.42 83.17 47.46 83.09 47.51 83.01 47.56 82.93 47.61 82.84 47.67 82.75 47.73 82.66 47.79 82.57 47.85 82.47 47.92 82.37 48 82.26 48.08 82.16 48.16 82.04 48.25 81.93 48.35 81.81 48.45 81.69 48.56 81.57 48.67 81.44 48.79 81.31 48.92 81.18 49.06 81.04 49.2 80.91 49.36 80.77 49.52 80.62 49.7 80.48 49.88 80.33 50.12 80.16 50.37 79.97 47.99 76.78 47.75 76.96 47.51 77.14 47.24 77.34 46.99 77.55 46.75 77.75 46.53 77.95 46.32 78.15 46.13 78.34 45.94 78.53 45.77 78.72 45.6 78.9 45.45 79.08 45.3 79.25 45.16 79.42 45.03 79.58 44.91 79.74 44.8 79.89 44.69 80.04 44.59 80.19 44.49 80.33 44.4 80.46 44.32 80.59 44.24 80.72 44.16 80.84 44.09 80.96 44.02 81.08 43.96 81.19 43.9 81.3 43.84 81.4 43.79 81.5"/><g id="section-3" data-name="section"><polyline id="background-9" data-name="background" class="cls-6" points="-26.66 58.5 32.15 90.72 33.57 91.26 35.05 91.6 36.56 91.75 38.08 91.69 39.58 91.42 41.03 90.96 42.4 90.3 43.67 89.47 44.81 88.47 45.82 87.33 46.66 86.06 44.25 84.88 43.6 85.83 42.82 86.69 41.93 87.43 40.95 88.05 39.89 88.53 38.78 88.86 37.64 89.05 36.48 89.07 35.33 88.94 34.2 88.66 33.13 88.22 -25.36 56.16"/><polyline id="background-10" data-name="background" class="cls-7" points="-26.66 55.5 32.15 87.72 33.57 88.26 35.05 88.6 36.56 88.75 38.08 88.69 39.58 88.42 41.03 87.96 42.4 87.3 43.67 86.47 44.81 85.47 45.82 84.33 46.66 83.06 44.25 81.88 43.6 82.83 42.82 83.69 41.93 84.43 40.95 85.05 39.89 85.53 38.78 85.86 37.64 86.05 36.48 86.07 35.33 85.94 34.2 85.66 33.13 85.22 -25.36 53.16"/></g><g id="section-4" data-name="section"><path id="background-11" data-name="background" class="cls-6" d="M8.27,105l.94,5.45.47,1.45.66,1.37.83,1.27,1,1.14,1.15,1,1.27.84,1.37.66,1.44.47,1.5.26,1.52.07,1.51-.14,1.48-.34,1.42-.54,1.34-.73c4.39-2.17,2.52-4.48,8.74-4.45l-.16-2.9c-5.31-.76-7.11,3.68-10.15,5.18l-1,.53-1.09.39-1.13.24-1.16.09L19,116.24,17.9,116l-1.1-.37-1-.53-1-.65-.86-.78-.74-.89-.62-1-.48-1-.34-1.11L7.84,97.5"/><path id="background-12" data-name="background" class="cls-7" d="M8.27,102l.94,5.45.47,1.45.66,1.37.83,1.27,1,1.14,1.15,1,1.27.84,1.37.66,1.44.47,1.5.26,1.52.07,1.51-.14,1.48-.34,1.42-.54,1.34-.73c4.39-2.17,2.52-4.48,8.74-4.45l-.16-2.9c-5.31-.76-7.11,3.68-10.15,5.18l-1,.53-1.09.39-1.13.24-1.16.09L19,113.24,17.9,113l-1.1-.37-1-.53-1-.65-.86-.78-.74-.89-.62-1-.48-1-.34-1.11L7.84,94.5"/></g><g id="section-5" data-name="section"><polyline id="background-13" data-name="background" class="cls-6" points="34.75 109.88 36.17 110.42 37.5 111.14 38.73 112.04 39.82 113.1 40.76 114.29 41.54 115.6 42.13 117 42.52 118.47 42.71 119.98 42.7 121.5 42.48 123 42.07 124.46 41.46 125.85 40.67 127.15 39.71 128.33 38.6 129.37 37.36 130.25 36.02 130.95 34.59 131.47 33.1 131.79 31.59 131.91 13.04 130.97 11.88 131.06 10.75 131.3 9.66 131.69 8.63 132.23 7.68 132.9 0.76 139.48 -0.48 140.36 -1.83 141.06 -3.26 141.58 -4.74 141.9 -6.26 142.02 -7.78 141.93 -9.27 141.64 -10.71 141.15 -12.06 140.47 -13.32 139.62 -14.45 138.6 -15.43 137.44 -16.25 136.16 -16.89 134.78 -17.33 133.32 -14.69 132.87 -14.33 133.97 -13.83 135.01 -13.19 135.98 -12.42 136.85 -11.54 137.61 -10.57 138.25 -9.53 138.74 -8.42 139.1 -7.28 139.3 -6.13 139.34 -4.97 139.23 -3.84 138.97 -2.76 138.55 -1.75 138 -0.81 137.31 5.84 130.96 7.06 130.06 8.4 129.33 9.82 128.79 11.3 128.45 12.81 128.31 31.72 129.23 32.87 129.12 34 128.86 35.08 128.44 36.1 127.89 37.03 127.2 37.86 126.39 38.58 125.48 39.16 124.48 39.61 123.41 39.9 122.29 40.05 121.14 40.03 119.98 39.87 118.83 39.54 117.72 39.08 116.66 38.47 115.67 37.73 114.77 36.88 113.98 35.94 113.32 34.91 112.78 33.82 112.39"/><polyline id="background-14" data-name="background" class="cls-7" points="34.75 106.88 36.17 107.42 37.5 108.14 38.73 109.04 39.82 110.1 40.76 111.29 41.54 112.6 42.13 114 42.52 115.47 42.71 116.98 42.7 118.5 42.48 120 42.07 121.46 41.46 122.85 40.67 124.15 39.71 125.33 38.6 126.37 37.36 127.25 36.02 127.95 34.59 128.47 33.1 128.79 31.59 128.91 13.04 127.97 11.88 128.06 10.75 128.3 9.66 128.69 8.63 129.23 7.68 129.9 0.76 136.48 -0.48 137.36 -1.83 138.06 -3.26 138.58 -4.74 138.9 -6.26 139.02 -7.78 138.93 -9.27 138.64 -10.71 138.15 -12.06 137.47 -13.32 136.62 -14.45 135.6 -15.43 134.44 -16.25 133.16 -16.89 131.78 -17.33 130.32 -14.69 129.87 -14.33 130.97 -13.83 132.01 -13.19 132.98 -12.42 133.85 -11.54 134.61 -10.57 135.25 -9.53 135.74 -8.42 136.1 -7.28 136.3 -6.13 136.34 -4.97 136.23 -3.84 135.97 -2.76 135.55 -1.75 135 -0.81 134.31 5.84 127.96 7.06 127.06 8.4 126.33 9.82 125.79 11.3 125.45 12.81 125.31 31.72 126.23 32.87 126.12 34 125.86 35.08 125.44 36.1 124.89 37.03 124.2 37.86 123.39 38.58 122.48 39.16 121.48 39.61 120.41 39.9 119.29 40.05 118.14 40.03 116.98 39.87 115.83 39.54 114.72 39.08 113.66 38.47 112.67 37.73 111.77 36.88 110.98 35.94 110.32 34.91 109.78 33.82 109.39"/></g><g id="section-6" data-name="section"><polyline id="background-15" data-name="background" class="cls-6" points="0.12 101.91 18 92.37 19.23 91.47 20.32 90.41 21.26 89.22 22.03 87.91 22.62 86.51 23.02 85.04 23.21 83.53 23.2 82.02 22.98 80.51 22.57 79.05 21.96 77.66 21.16 76.36 20.21 75.18 19.1 74.14 8.38 66.42 7.53 65.63 5.44 67.3 6.53 68.36 17.53 76.31 18.36 77.12 19.07 78.03 19.66 79.03 20.1 80.11 20.4 81.22 20.54 82.38 20.53 83.53 20.36 84.68 20.04 85.79 19.57 86.85 18.97 87.84 18.23 88.74 17.38 89.53 16.43 90.19 -1.14 99.55"/><polyline id="background-16" data-name="background" class="cls-7" points="0.12 98.91 18 89.37 19.23 88.47 20.32 87.41 21.26 86.22 22.03 84.91 22.62 83.51 23.02 82.04 23.21 80.53 23.2 79.02 22.98 77.51 22.57 76.05 21.96 74.66 21.16 73.36 20.21 72.18 19.1 71.14 8.38 63.41 7.53 62.63 5.44 64.3 6.53 65.36 17.53 73.31 18.36 74.12 19.07 75.03 19.66 76.03 20.1 77.11 20.4 78.22 20.54 79.38 20.53 80.53 20.36 81.68 20.04 82.79 19.57 83.85 18.97 84.84 18.23 85.74 17.38 86.53 16.43 87.19 -1.14 96.55"/></g><g id="section-7" data-name="section"><polyline id="background-17" data-name="background" class="cls-6" points="51.86 144.78 43.81 126.18 43.01 124.89 42.05 123.71 40.94 122.68 39.7 121.8 38.35 121.1 36.92 120.58 35.43 120.27 33.92 120.16 32.4 120.25 30.91 120.54 29.47 121.04 28.11 121.72 26.86 122.58 25.73 123.6 17.16 133.65 16.3 134.43 17.8 136.65 18.94 135.65 27.77 125.34 28.64 124.58 29.61 123.94 30.66 123.44 31.76 123.08 32.9 122.88 34.06 122.83 35.21 122.94 36.34 123.2 37.42 123.61 38.44 124.17 39.38 124.85 40.21 125.66 40.93 126.57 41.52 127.57 49.4 145.85"/><polyline id="background-18" data-name="background" class="cls-7" points="51.86 141.78 43.81 123.18 43.01 121.89 42.05 120.71 40.94 119.68 39.7 118.8 38.35 118.1 36.92 117.58 35.43 117.27 33.92 117.16 32.4 117.25 30.91 117.54 29.47 118.04 28.11 118.72 26.86 119.58 25.73 120.6 17.16 130.65 16.3 131.43 17.8 133.65 18.94 132.65 27.77 122.34 28.64 121.58 29.61 120.94 30.66 120.44 31.76 120.08 32.9 119.88 34.06 119.83 35.21 119.94 36.34 120.2 37.42 120.61 38.44 121.17 39.38 121.85 40.21 122.66 40.93 123.57 41.52 124.57 49.4 142.85"/></g><g id="section-8" data-name="section"><polyline id="background-19" data-name="background" class="cls-6" points="-7.17 89.56 -6.03 89.37 -4.87 89.34 -3.72 89.47 41.45 101.3 42.53 101.73 43.54 102.3 44.46 103 45.28 103.82 45.98 104.75 46.55 105.75 46.98 106.83 54.39 137.92 54.52 139.07 54.49 140.23 54.3 141.38 53.97 142.48 53.48 143.54 52.86 144.51 52.11 145.4 51.25 146.18 50.29 146.83 49.26 147.35 48.16 147.72 47.02 147.95 45.87 148.01 44.71 147.93 43.58 147.68 42.49 147.29 41.46 146.75 40.52 146.08 38.67 148.02 39.89 148.92 41.22 149.65 42.64 150.19 44.12 150.54 45.63 150.68 47.15 150.62 48.65 150.36 50.1 149.89 51.47 149.24 52.74 148.4 53.88 147.41 54.89 146.26 55.73 145 56.39 143.63 56.86 142.18 57.13 140.69 57.2 139.17 57.06 137.66 49.58 106.21 49.05 104.79 48.32 103.45 47.43 102.22 46.37 101.13 45.18 100.19 43.87 99.41 42.47 98.82 -3.04 86.88 -4.55 86.68 -6.07 86.69 -7.57 86.91"/><polyline id="background-20" data-name="background" class="cls-7" points="-7.17 86.56 -6.03 86.37 -4.87 86.34 -3.72 86.47 41.45 98.3 42.53 98.73 43.54 99.3 44.46 100 45.28 100.82 45.98 101.75 46.55 102.75 46.98 103.83 54.39 134.92 54.52 136.07 54.49 137.23 54.3 138.38 53.97 139.48 53.48 140.54 52.86 141.51 52.11 142.4 51.25 143.18 50.29 143.83 49.26 144.35 48.16 144.72 47.02 144.95 45.87 145.01 44.71 144.93 43.58 144.68 42.49 144.29 41.46 143.75 40.52 143.08 38.67 145.02 39.89 145.92 41.22 146.65 42.64 147.19 44.12 147.54 45.63 147.68 47.15 147.62 48.65 147.36 50.1 146.89 51.47 146.24 52.74 145.4 53.88 144.41 54.89 143.26 55.73 142 56.39 140.63 56.86 139.18 57.13 137.69 57.2 136.17 57.06 134.66 49.58 103.21 49.05 101.79 48.32 100.45 47.43 99.22 46.37 98.13 45.18 97.19 43.87 96.41 42.47 95.82 -3.04 83.88 -4.55 83.68 -6.07 83.69 -7.57 83.91"/></g><g id="background-21" data-name="background"><polygon class="cls-8" points="21.77 65.07 34.65 67.98 35.74 68.38 36.77 68.91 37.72 69.59 38.56 70.38 39.29 71.28 39.9 72.27 40.36 73.33 40.68 74.44 40.84 75.59 40.85 76.75 40.7 77.9 40.4 79.02 39.95 80.09 39.37 81.08 38.65 81.99 37.81 82.8 36.88 83.48 35.86 84.04 34.78 84.45 33.65 84.71 33.87 87.38 35.35 87.06 36.78 86.55 38.13 85.85 39.38 84.98 40.49 83.94 41.45 82.77 42.25 81.47 42.86 80.08 43.28 78.62 43.51 77.12 43.52 75.6 43.33 74.09 42.94 72.62 42.36 71.22 41.59 69.91 40.66 68.71 39.57 67.65 38.34 66.75 37.01 66.02 35.59 65.47 22.36 62.46 21.24 62.14 20.18 61.67 19.19 61.07 18.3 60.34 17.5 59.49 16.84 58.55 16.3 57.52 15.91 56.43 15.66 55.29 15.57 54.14 15.64 52.98 15.87 51.84 16.24 50.75 16.76 49.71 17.41 48.76 18.19 47.9 19.08 47.15 20.05 46.53 21.11 46.04 22.22 45.7 23.36 45.52 24.52 45.49 25.67 45.62 26.8 45.9 27.87 46.33 28.88 46.9 29.8 47.6 30.62 48.42 31.33 49.34 33.67 48.04 32.77 46.81 31.72 45.72 30.52 44.78 29.21 44.01 27.81 43.42 26.35 43.02 24.84 42.83 23.32 42.84 21.82 43.05 20.35 43.47 18.96 44.08 17.66 44.87 16.48 45.83 15.45 46.94 14.56 48.18 13.86 49.52 13.34 50.95 13.02 52.44 12.9 53.95 12.99 55.47 13.28 56.96 13.77 58.4 14.45 59.76 15.3 61.02 16.32 62.15 17.48 63.13 18.76 63.95 20.14 64.58 21.59 65.03 21.77 65.07"/><polygon class="cls-10" points="21.77 65.07 34.65 67.98 35.74 68.38 36.77 68.91 37.72 69.59 38.56 70.38 39.29 71.28 39.9 72.27 40.36 73.33 40.68 74.44 40.84 75.59 40.85 76.75 40.7 77.9 40.4 79.02 39.95 80.09 39.37 81.08 38.65 81.99 37.81 82.8 36.88 83.48 35.86 84.04 34.78 84.45 33.65 84.71 33.87 87.38 35.35 87.06 36.78 86.55 38.13 85.85 39.38 84.98 40.49 83.94 41.45 82.77 42.25 81.47 42.86 80.08 43.28 78.62 43.51 77.12 43.52 75.6 43.33 74.09 42.94 72.62 42.36 71.22 41.59 69.91 40.66 68.71 39.57 67.65 38.34 66.75 37.01 66.02 35.59 65.47 22.36 62.46 21.24 62.14 20.18 61.67 19.19 61.07 18.3 60.34 17.5 59.49 16.84 58.55 16.3 57.52 15.91 56.43 15.66 55.29 15.57 54.14 15.64 52.98 15.87 51.84 16.24 50.75 16.76 49.71 17.41 48.76 18.19 47.9 19.08 47.15 20.05 46.53 21.11 46.04 22.22 45.7 23.36 45.52 24.52 45.49 25.67 45.62 26.8 45.9 27.87 46.33 28.88 46.9 29.8 47.6 30.62 48.42 31.33 49.34 33.67 48.04 32.77 46.81 31.72 45.72 30.52 44.78 29.21 44.01 27.81 43.42 26.35 43.02 24.84 42.83 23.32 42.84 21.82 43.05 20.35 43.47 18.96 44.08 17.66 44.87 16.48 45.83 15.45 46.94 14.56 48.18 13.86 49.52 13.34 50.95 13.02 52.44 12.9 53.95 12.99 55.47 13.28 56.96 13.77 58.4 14.45 59.76 15.3 61.02 16.32 62.15 17.48 63.13 18.76 63.95 20.14 64.58 21.59 65.03 21.77 65.07"/><polygon class="cls-9" points="21.77 62.07 34.65 64.98 35.74 65.38 36.77 65.91 37.72 66.59 38.56 67.38 39.29 68.28 39.9 69.27 40.36 70.33 40.68 71.44 40.84 72.59 40.85 73.75 40.7 74.9 40.4 76.02 39.95 77.09 39.37 78.08 38.65 78.99 37.81 79.8 36.88 80.48 35.86 81.04 34.78 81.45 33.65 81.71 33.87 84.38 35.35 84.06 36.78 83.55 38.13 82.85 39.38 81.98 40.49 80.94 41.45 79.77 42.25 78.47 42.86 77.08 43.28 75.62 43.51 74.12 43.52 72.6 43.33 71.09 42.94 69.62 42.36 68.22 41.59 66.91 40.66 65.71 39.57 64.65 38.34 63.75 37.01 63.02 35.59 62.47 22.36 59.46 21.24 59.14 20.18 58.67 19.19 58.07 18.3 57.34 17.5 56.49 16.84 55.55 16.3 54.52 15.91 53.43 15.66 52.29 15.57 51.14 15.64 49.98 15.87 48.84 16.24 47.75 16.76 46.71 17.41 45.76 18.19 44.9 19.08 44.15 20.05 43.53 21.11 43.04 22.22 42.7 23.36 42.52 24.52 42.49 25.67 42.62 26.8 42.9 27.87 43.33 28.88 43.9 29.8 44.6 30.62 45.42 31.33 46.34 33.67 45.04 32.77 43.81 31.72 42.72 30.52 41.78 29.21 41.01 27.81 40.42 26.35 40.02 24.84 39.83 23.32 39.84 21.82 40.05 20.35 40.47 18.96 41.08 17.66 41.87 16.48 42.83 15.45 43.94 14.56 45.18 13.86 46.52 13.34 47.95 13.02 49.44 12.9 50.95 12.99 52.47 13.28 53.96 13.77 55.4 14.45 56.76 15.3 58.02 16.32 59.15 17.48 60.13 18.76 60.95 20.14 61.58 21.59 62.03 21.77 62.07"/><polygon class="cls-11" points="21.77 62.07 34.65 64.98 35.74 65.38 36.77 65.91 37.72 66.59 38.56 67.38 39.29 68.28 39.9 69.27 40.36 70.33 40.68 71.44 40.84 72.59 40.85 73.75 40.7 74.9 40.4 76.02 39.95 77.09 39.37 78.08 38.65 78.99 37.81 79.8 36.88 80.48 35.86 81.04 34.78 81.45 33.65 81.71 33.87 84.38 35.35 84.06 36.78 83.55 38.13 82.85 39.38 81.98 40.49 80.94 41.45 79.77 42.25 78.47 42.86 77.08 43.28 75.62 43.51 74.12 43.52 72.6 43.33 71.09 42.94 69.62 42.36 68.22 41.59 66.91 40.66 65.71 39.57 64.65 38.34 63.75 37.01 63.02 35.59 62.47 22.36 59.46 21.24 59.14 20.18 58.67 19.19 58.07 18.3 57.34 17.5 56.49 16.84 55.55 16.3 54.52 15.91 53.43 15.66 52.29 15.57 51.14 15.64 49.98 15.87 48.84 16.24 47.75 16.76 46.71 17.41 45.76 18.19 44.9 19.08 44.15 20.05 43.53 21.11 43.04 22.22 42.7 23.36 42.52 24.52 42.49 25.67 42.62 26.8 42.9 27.87 43.33 28.88 43.9 29.8 44.6 30.62 45.42 31.33 46.34 33.67 45.04 32.77 43.81 31.72 42.72 30.52 41.78 29.21 41.01 27.81 40.42 26.35 40.02 24.84 39.83 23.32 39.84 21.82 40.05 20.35 40.47 18.96 41.08 17.66 41.87 16.48 42.83 15.45 43.94 14.56 45.18 13.86 46.52 13.34 47.95 13.02 49.44 12.9 50.95 12.99 52.47 13.28 53.96 13.77 55.4 14.45 56.76 15.3 58.02 16.32 59.15 17.48 60.13 18.76 60.95 20.14 61.58 21.59 62.03 21.77 62.07"/></g><g id="section-9" data-name="section"><path id="background-22" data-name="background" class="cls-6" d="M59.61,47l-.43-1.46-.61-1.39-.8-1.29-5.65-7.14-1.11-1-1.24-.87-1.35-.7L47,32.57l-1.49-.31L44,32.15l-1.51.09-1.49.3-1.44.5-1.35.68-1.26.86-1.12,1-1,1.16L32.77,40,32,40.9l-.86.78-1,.66-1,.52-1.1.38L27,43.48l-1.16.07-1.16-.08a7.54,7.54,0,0,1-3.59-2.86C19.38,38.31,16.49,38,18.8,42s5.27,4.06,5.27,4.06l1.51.13,1.52-.07,1.5-.27L30,45.4l1.37-.66,1.26-.84,1.14-1,1-1.15,2.28-3.52.76-.88.87-.76,1-.64,1-.5,1.1-.36L43,34.87l1.16,0,1.15.11,1.13.26,1.09.41,1,.55.93.68.84.81,5.4,6.87.59,1,.45,1.07L57,47.7"/><path id="background-23" data-name="background" class="cls-7" d="M59.61,44l-.43-1.46-.61-1.39-.8-1.29-5.65-7.14-1.11-1-1.24-.87-1.35-.7L47,29.57l-1.49-.31L44,29.15l-1.51.09-1.49.3-1.44.5-1.35.68-1.26.86-1.12,1-1,1.16L32.77,37,32,37.9l-.86.78-1,.66-1,.52-1.1.38L27,40.48l-1.16.07-1.16-.08a7.54,7.54,0,0,1-3.59-2.86C19.38,35.31,16.49,35,18.8,39s5.27,4.06,5.27,4.06l1.51.13,1.52-.07,1.5-.27L30,42.4l1.37-.66,1.26-.84,1.14-1,1-1.15,2.28-3.52.76-.88.87-.76,1-.64,1-.5,1.1-.36L43,31.87l1.16-.05,1.15.11,1.13.26,1.09.41,1,.55.93.68.84.81,5.4,6.87.59,1,.45,1.07L57,44.7"/></g><g id="section-10" data-name="section"><polyline id="background-24" data-name="background" class="cls-6" points="33.48 63.95 42.17 42.9 53.27 13.5 50.8 12.48 39.69 41.88 31 62.92"/><polyline id="background-25" data-name="background" class="cls-7" points="33.48 60.95 42.17 39.9 53.27 10.5 50.8 9.48 39.69 38.88 31 59.92"/></g><g id="section-11" data-name="section"><polyline id="background-26" data-name="background" class="cls-6" points="36.14 108.51 37.55 107.95 38.88 107.21 40.09 106.29 41.17 105.22 42.1 104.01 42.85 102.69 43.42 101.28 43.79 99.81 43.96 98.3 43.93 96.78 43.7 95.28 43.26 93.83 42.63 92.44 41.82 91.16 40.84 89.99 39.72 88.97 38.47 88.11 32.67 85.13 31.72 84.47 30.86 83.69 30.11 82.81 29.49 81.83 29.01 80.77 28.68 79.66 28.49 78.52 28.46 77.36 28.59 76.21 28.87 75.09 32.97 65.18 33.48 63.95 31 62.92 30.49 64.16 26.4 74.06 26 75.53 25.8 77.04 25.81 78.56 26.03 80.06 26.44 81.52 27.05 82.92 27.84 84.22 28.79 85.4 29.9 86.44 31.14 87.32 37.24 90.49 38.18 91.16 39.02 91.96 39.75 92.86 40.35 93.85 40.81 94.92 41.12 96.03 41.28 97.18 41.29 98.34 41.13 99.49 40.83 100.61 40.37 101.67 39.78 102.67 39.06 103.57 38.22 104.37 37.28 105.06 36.26 105.6 35.18 106.01"/><polyline id="background-27" data-name="background" class="cls-7" points="36.14 105.51 37.55 104.95 38.88 104.21 40.09 103.29 41.17 102.22 42.1 101.01 42.85 99.69 43.42 98.28 43.79 96.81 43.96 95.3 43.93 93.78 43.7 92.28 43.26 90.83 42.63 89.44 41.82 88.16 40.84 86.99 39.72 85.97 38.47 85.11 32.67 82.13 31.72 81.47 30.86 80.69 30.11 79.81 29.49 78.83 29.01 77.77 28.68 76.66 28.49 75.52 28.46 74.36 28.59 73.21 28.87 72.09 32.97 62.18 33.48 60.95 31 59.92 30.49 61.16 26.4 71.06 26 72.53 25.8 74.04 25.81 75.56 26.03 77.06 26.44 78.52 27.05 79.92 27.84 81.22 28.79 82.4 29.9 83.44 31.14 84.32 37.24 87.49 38.18 88.16 39.02 88.96 39.75 89.86 40.35 90.85 40.81 91.92 41.12 93.03 41.28 94.18 41.29 95.34 41.13 96.49 40.83 97.61 40.37 98.67 39.78 99.67 39.06 100.57 38.22 101.37 37.28 102.06 36.26 102.6 35.18 103.01"/></g><g id="section-12" data-name="section"><path id="background-28" data-name="background" class="cls-12" d="M-2.06,67.71l.93,27,.27,1.5L-.4,97.6.26,99l.84,1.27,1,1.15,1.14,1,1.27.83,1.37.66,1.44.47,25.19,4.72a8.05,8.05,0,0,0,3.63-.56l-1-2.5a6.41,6.41,0,0,1-2.53.39L7.82,101.72l-1.1-.38-1-.52-1-.66-.86-.78-.74-.88-.62-1L2,96.46l-.34-1.11-.18-1.14L.62,67.62"/><path id="background-29" data-name="background" class="cls-13" d="M-2.06,64.71l.93,27,.27,1.5L-.4,94.6.26,96l.84,1.27,1,1.15,1.14,1,1.27.83,1.37.66,1.44.47,25.19,4.72a8.05,8.05,0,0,0,3.63-.56l-1-2.5a6.41,6.41,0,0,1-2.53.39L7.82,98.72l-1.1-.38-1-.52-1-.66-.86-.78-.74-.88-.62-1L2,93.46l-.34-1.11-.18-1.14L.62,64.62"/></g><g id="background-30" data-name="background"><polyline class="cls-8" points="21.84 100.9 23.29 100.46 24.68 99.83 25.96 99.02 27.12 98.04 28.15 96.92 29.01 95.67 29.69 94.31 30.18 92.87 32.86 79.93 33.23 78.84 33.75 77.8 34.41 76.84 46.33 63.91 47.19 62.65 47.87 61.3 48.37 59.86 48.66 58.37 48.76 56.85 48.64 55.34 48.33 53.85 47.82 52.42 47.12 51.07 46.24 49.83 45.21 48.71 44.03 47.75 42.74 46.95 41.35 46.34 39.89 45.92 38.38 45.7 36.87 45.68 35.36 45.87 33.89 46.26 34.9 48.74 36.02 48.46 37.17 48.34 38.33 48.37 39.48 48.56 40.58 48.91 41.63 49.4 42.61 50.02 43.49 50.77 44.27 51.63 44.92 52.59 45.43 53.63 45.8 54.73 46.02 55.87 46.08 57.03 45.99 58.18 45.74 59.31 45.34 60.4 44.8 61.43 44.13 62.37 32.44 75.03 31.56 76.27 30.85 77.61 30.33 79.04 27.56 92.33 27.16 93.42 26.62 94.44 25.95 95.38 25.16 96.23 24.25 96.96 23.26 97.56 22.2 98.02 21.09 98.33"/><polyline class="cls-10" points="21.84 100.9 23.29 100.46 24.68 99.83 25.96 99.02 27.12 98.04 28.15 96.92 29.01 95.67 29.69 94.31 30.18 92.87 32.86 79.93 33.23 78.84 33.75 77.8 34.41 76.84 46.33 63.91 47.19 62.65 47.87 61.3 48.37 59.86 48.66 58.37 48.76 56.85 48.64 55.34 48.33 53.85 47.82 52.42 47.12 51.07 46.24 49.83 45.21 48.71 44.03 47.75 42.74 46.95 41.35 46.34 39.89 45.92 38.38 45.7 36.87 45.68 35.36 45.87 33.89 46.26 34.9 48.74 36.02 48.46 37.17 48.34 38.33 48.37 39.48 48.56 40.58 48.91 41.63 49.4 42.61 50.02 43.49 50.77 44.27 51.63 44.92 52.59 45.43 53.63 45.8 54.73 46.02 55.87 46.08 57.03 45.99 58.18 45.74 59.31 45.34 60.4 44.8 61.43 44.13 62.37 32.44 75.03 31.56 76.27 30.85 77.61 30.33 79.04 27.56 92.33 27.16 93.42 26.62 94.44 25.95 95.38 25.16 96.23 24.25 96.96 23.26 97.56 22.2 98.02 21.09 98.33"/><polyline class="cls-9" points="21.84 97.9 23.29 97.46 24.68 96.83 25.96 96.02 27.12 95.04 28.15 93.92 29.01 92.67 29.69 91.31 30.18 89.87 32.86 76.93 33.23 75.84 33.75 74.8 34.41 73.84 46.33 60.91 47.19 59.65 47.87 58.3 48.37 56.86 48.66 55.37 48.76 53.85 48.64 52.34 48.33 50.85 47.82 49.42 47.12 48.07 46.24 46.83 45.21 45.71 44.03 44.75 42.74 43.95 41.35 43.34 39.89 42.92 38.38 42.7 36.87 42.68 35.36 42.87 33.89 43.26 34.9 45.74 36.02 45.46 37.17 45.34 38.33 45.37 39.48 45.56 40.58 45.91 41.63 46.4 42.61 47.02 43.49 47.77 44.27 48.63 44.92 49.59 45.43 50.63 45.8 51.73 46.02 52.87 46.08 54.03 45.99 55.18 45.74 56.31 45.34 57.4 44.8 58.43 44.13 59.37 32.44 72.03 31.56 73.27 30.85 74.61 30.33 76.04 27.56 89.33 27.16 90.42 26.62 91.44 25.95 92.38 25.16 93.23 24.25 93.96 23.26 94.56 22.2 95.02 21.09 95.33"/><polyline class="cls-11" points="21.84 97.9 23.29 97.46 24.68 96.83 25.96 96.02 27.12 95.04 28.15 93.92 29.01 92.67 29.69 91.31 30.18 89.87 32.86 76.93 33.23 75.84 33.75 74.8 34.41 73.84 46.33 60.91 47.19 59.65 47.87 58.3 48.37 56.86 48.66 55.37 48.76 53.85 48.64 52.34 48.33 50.85 47.82 49.42 47.12 48.07 46.24 46.83 45.21 45.71 44.03 44.75 42.74 43.95 41.35 43.34 39.89 42.92 38.38 42.7 36.87 42.68 35.36 42.87 33.89 43.26 34.9 45.74 36.02 45.46 37.17 45.34 38.33 45.37 39.48 45.56 40.58 45.91 41.63 46.4 42.61 47.02 43.49 47.77 44.27 48.63 44.92 49.59 45.43 50.63 45.8 51.73 46.02 52.87 46.08 54.03 45.99 55.18 45.74 56.31 45.34 57.4 44.8 58.43 44.13 59.37 32.44 72.03 31.56 73.27 30.85 74.61 30.33 76.04 27.56 89.33 27.16 90.42 26.62 91.44 25.95 92.38 25.16 93.23 24.25 93.96 23.26 94.56 22.2 95.02 21.09 95.33"/></g><g id="section-13" data-name="section"><polyline id="background-31" data-name="background" class="cls-6" points="57 47.59 57.28 48.72 57.41 49.87 57.38 51.03 57.2 52.17 56.86 53.28 56.38 54.34 55.76 55.31 55.01 56.2 54.16 56.98 53.2 57.63 52.16 58.16 51.07 58.53 49.93 58.76 48.77 58.83 47.62 58.74 46.48 58.5 45.39 58.1 43.42 56.9 43.42 56.9 34.43 48.93 32.08 50.08 41.57 58.84 42.8 59.74 44.13 60.47 45.55 61.01 47.03 61.35 48.54 61.49 50.06 61.43 51.56 61.16 53.01 60.7 54.38 60.04 55.65 59.2 56.79 58.21 57.79 57.06 58.63 55.79 59.29 54.42 59.76 52.98 60.02 51.48 60.09 49.97 59.95 48.45 59.61 46.97"/><polyline id="background-32" data-name="background" class="cls-7" points="57 44.59 57.28 45.72 57.41 46.87 57.38 48.03 57.2 49.17 56.86 50.28 56.38 51.34 55.76 52.31 55.01 53.2 54.16 53.98 53.2 54.63 52.16 55.16 51.07 55.53 49.93 55.76 48.77 55.83 47.62 55.74 46.48 55.5 45.39 55.1 43.42 53.9 43.42 53.9 34.43 45.93 32.08 47.08 41.57 55.84 42.8 56.74 44.13 57.47 45.55 58.01 47.03 58.35 48.54 58.49 50.06 58.43 51.56 58.16 53.01 57.7 54.38 57.04 55.65 56.2 56.79 55.21 57.79 54.06 58.63 52.79 59.29 51.42 59.76 49.98 60.02 48.48 60.09 46.97 59.95 45.45 59.61 43.97"/></g><g id="section-14" data-name="section"><polyline id="background-33" data-name="background" class="cls-6" points="7.53 110.46 13.78 104.26 14.67 103.52 15.65 102.89 16.7 102.41 20.55 101.28 21.84 100.9 21.09 98.33 19.8 98.71 15.95 99.84 14.55 100.45 13.26 101.24 12.08 102.2 5.57 108.65"/><polyline id="background-34" data-name="background" class="cls-7" points="7.53 107.46 13.78 101.26 14.67 100.52 15.65 99.89 16.7 99.41 20.55 98.28 21.84 97.9 21.09 95.33 19.8 95.71 15.95 96.84 14.55 97.45 13.26 98.24 12.08 99.2 5.57 105.65"/></g><g id="background-35" data-name="background"><path class="cls-8" d="M36.87,45.68l-1.51.19-1.47.38-12.41,5-1.24.5L7,57.22l.66,2.6,13.55-5.54,1.24-.5,12.41-5L36,48.46l1.15-.12a9,9,0,0,1,2.73.36"/><path class="cls-10" d="M36.87,45.68l-1.51.19-1.47.38-12.41,5-1.24.5L7,57.22l.66,2.6,13.55-5.54,1.24-.5,12.41-5L36,48.46l1.15-.12a9,9,0,0,1,2.73.36"/><path class="cls-9" d="M36.87,42.68l-1.51.19-1.47.38-12.41,5-1.24.5L7,54.22l.66,2.6,13.55-5.54,1.24-.5,12.41-5L36,45.46l1.15-.12a9,9,0,0,1,2.73.36"/><path class="cls-11" d="M36.87,42.68l-1.51.19-1.47.38-12.41,5-1.24.5L7,54.22l.66,2.6,13.55-5.54,1.24-.5,12.41-5L36,45.46l1.15-.12a9,9,0,0,1,2.73.36"/></g></g><g class="cls-14"><path d="M92.3,99.73a2.12,2.12,0,0,1,1.82-1,2.17,2.17,0,0,1,1.08.3,2.12,2.12,0,0,1,.73,2.9,2.11,2.11,0,0,1-2.9.73,2.12,2.12,0,0,1-.73-2.9Zm12.6,22.37a2.06,2.06,0,0,1-1.37.5,2.1,2.1,0,0,1-1.61-.73,2.11,2.11,0,1,1,3.21-2.75,2.09,2.09,0,0,1-.23,3Z"/><path d="M84,53.61l.21,0Z"/><path d="M95.38,63.26a2,2,0,0,1,.67-.66,2.11,2.11,0,0,1,1.12-.32,2.12,2.12,0,1,1,0,4.23,2.12,2.12,0,0,1-1.78-3.25Zm6.38-20.19a2.14,2.14,0,0,1-2.91.65l-.1-.06A2.11,2.11,0,0,1,100,39.83a2,2,0,0,1,1.12.33,2.1,2.1,0,0,1,.66,2.91Z"/><path d="M118.53,54.67a2.11,2.11,0,0,1,2.9-.66,2.11,2.11,0,1,1-2.25,3.57l-.09-.06A2.1,2.1,0,0,1,118.53,54.67Zm0,23.46a2.09,2.09,0,0,1,1.78-1,2,2,0,0,1,1.12.33,2.07,2.07,0,0,1,.94,1.33,2.1,2.1,0,0,1-.28,1.58,2.14,2.14,0,0,1-2.91.65l-.09-.06A2.1,2.1,0,0,1,118.53,78.13Zm0,26.3a2.11,2.11,0,1,1,3.56,2.26,2.15,2.15,0,0,1-2.91.66l-.09-.07A2.09,2.09,0,0,1,118.53,104.43Z"/><path d="M108.18,114.1a6.12,6.12,0,0,0-10.72,4.74,20,20,0,0,1-5.33,1.33,4,4,0,0,1-2.22-1,10.78,10.78,0,0,0-4.15-1.85,37.66,37.66,0,0,0,8.58-12.83,6.12,6.12,0,1,0-5.48-9.24,6.12,6.12,0,0,0,1.62,8.06c-4,9.22-9.21,13.08-12.56,14.68a2,2,0,0,0-.36.17A11.22,11.22,0,0,1,75,119v4a12.69,12.69,0,0,0,4.25-1.19c5.34-1.36,6.84-.36,8.4.71a7.93,7.93,0,0,0,4.27,1.65h.31a23.61,23.61,0,0,0,7-1.72,6.14,6.14,0,0,0,4.28,1.75h0a6.11,6.11,0,0,0,4-1.48,6.13,6.13,0,0,0,.67-8.63ZM92.3,97.33a2.1,2.1,0,0,1,1.82-1,2.16,2.16,0,0,1,1.08.29,2.12,2.12,0,0,1,.73,2.9,2.08,2.08,0,0,1-1.81,1,2.12,2.12,0,0,1-1.09-.31,2.11,2.11,0,0,1-.73-2.89Zm12.6,22.36a2.07,2.07,0,0,1-1.37.51,2.13,2.13,0,1,1,1.37-.51Z"/><path d="M84,51.21l.21,0Z"/><path d="M106,38.2A6.12,6.12,0,1,0,95,43a13.36,13.36,0,0,1-10,4.3A28.93,28.93,0,0,0,75,45v4a24.75,24.75,0,0,1,8.75,2.13h0a21.46,21.46,0,0,1,8.61,7,5.22,5.22,0,0,0-.38.54,6.12,6.12,0,1,0,8.45-1.91,6.24,6.24,0,0,0-4.67-.76,26,26,0,0,0-5.35-5.56,16.29,16.29,0,0,0,7.78-5.1,6.28,6.28,0,0,0,1.77.27,6.12,6.12,0,0,0,6-7.46ZM95.38,60.85a2.13,2.13,0,0,1,1.79-1,2.16,2.16,0,0,1,1.13.33,2.12,2.12,0,1,1-2.92.65Zm6.38-20.19a2.13,2.13,0,0,1-2.91.66l-.1-.07a2.11,2.11,0,0,1,2.35-3.5,2.14,2.14,0,0,1,.94,1.33A2.09,2.09,0,0,1,101.76,40.66Z"/><path d="M114.65,79.19a6.05,6.05,0,0,0,2.1,2.65L117,82a6.12,6.12,0,1,0,3.27-11.29h-.38a25.63,25.63,0,0,1,0-11.26l.34,0a6.12,6.12,0,1,0-4.15-1.62s0,0,.07.06a28.59,28.59,0,0,0,0,14.41c-.15.14-.3.26-.43.4a5.67,5.67,0,0,0-.63.83,6,6,0,0,0-.71,1.58,15.22,15.22,0,0,0-6.83,2.72c-2,1.33-4,2.58-9.63,2.67a32.82,32.82,0,0,0-5.29-.12,48.41,48.41,0,0,1-4.85,0c-1.34-.07-2.11-.89-3.46-2.43-1.8-2-4.22-4.65-9.37-5v4c3.29.3,4.8,1.89,6.36,3.67s3.17,3.61,6.25,3.78c2.12.11,3.76,0,5.21,0a24.43,24.43,0,0,1,7.86.68c2.6.65,12.09,9.68,14.77,14.33a4.25,4.25,0,0,0-.31.43,6.1,6.1,0,0,0,1.61,8.25l.29.19A6.12,6.12,0,1,0,123.57,98a6.18,6.18,0,0,0-3.26-.94,6,6,0,0,0-1.54.2c-2.56-4.19-8.66-10.46-13.19-13.8a17.66,17.66,0,0,0,4.21-2.19A11.33,11.33,0,0,1,114.65,79.19Zm3.88-26.93a2.11,2.11,0,1,1,3.56,2.26,2.14,2.14,0,0,1-2.91.65l-.09-.06A2.09,2.09,0,0,1,118.53,52.26Zm0,23.47a2.11,2.11,0,0,1,2.9-.66,2.11,2.11,0,1,1-2.25,3.57l-.09-.06A2.1,2.1,0,0,1,118.53,75.73Zm0,26.3a2.11,2.11,0,0,1,2.9-.66,2.11,2.11,0,1,1-2.25,3.57l-.09-.06A2.1,2.1,0,0,1,118.53,102Z"/></g><path class="cls-15" d="M108.18,117.1a6.12,6.12,0,0,0-10.72,4.74,20,20,0,0,1-5.33,1.33,4,4,0,0,1-2.22-1,10.78,10.78,0,0,0-4.15-1.85,37.66,37.66,0,0,0,8.58-12.83,6.12,6.12,0,1,0-5.48-9.24,6.12,6.12,0,0,0,1.62,8.06c-4,9.22-9.21,13.08-12.56,14.68a2,2,0,0,0-.36.17A11.22,11.22,0,0,1,75,122v4a12.69,12.69,0,0,0,4.25-1.19c5.34-1.36,6.84-.36,8.4.71a7.93,7.93,0,0,0,4.27,1.65h.31a23.61,23.61,0,0,0,7-1.72,6.14,6.14,0,0,0,4.28,1.75h0a6.11,6.11,0,0,0,4-1.48,6.13,6.13,0,0,0,.67-8.63ZM92.3,100.33a2.1,2.1,0,0,1,1.82-1,2.16,2.16,0,0,1,1.08.29,2.12,2.12,0,0,1,.73,2.9,2.08,2.08,0,0,1-1.81,1,2.12,2.12,0,0,1-1.09-.31,2.11,2.11,0,0,1-.73-2.89Zm12.6,22.36a2.07,2.07,0,0,1-1.37.51,2.13,2.13,0,1,1,1.37-.51Z"/><path d="M84,53.61l.21,0Z"/><path class="cls-15" d="M106,40.21a6.12,6.12,0,0,0-2.71-3.85,6.18,6.18,0,0,0-3.26-.94A6.12,6.12,0,0,0,95,45a13.38,13.38,0,0,1-10,4.29A29.39,29.39,0,0,0,75,47v4a24.79,24.79,0,0,1,8.75,2.14h0a21.54,21.54,0,0,1,8.61,7,5.22,5.22,0,0,0-.38.54,6.14,6.14,0,0,0,1.9,8.44,6,6,0,0,0,3.27,1,6.13,6.13,0,0,0,3.28-11.31,6.23,6.23,0,0,0-4.67-.75,25.77,25.77,0,0,0-5.35-5.57,16.29,16.29,0,0,0,7.78-5.1,5.94,5.94,0,0,0,1.77.27,6.12,6.12,0,0,0,6-7.45ZM95.38,62.86a2.14,2.14,0,0,1,.67-.67,2.2,2.2,0,0,1,1.12-.31,2.12,2.12,0,1,1,0,4.23,2.12,2.12,0,0,1-1.78-3.25Zm6.38-20.19a2.14,2.14,0,0,1-2.91.65l-.1-.06a2.11,2.11,0,0,1,2.35-3.51,2.16,2.16,0,0,1,.94,1.33A2.12,2.12,0,0,1,101.76,42.67Z"/><path class="cls-15" d="M114.65,82.19a6.05,6.05,0,0,0,2.1,2.65L117,85a6.12,6.12,0,1,0,3.27-11.29h-.38a25.63,25.63,0,0,1,0-11.26l.34,0a6.12,6.12,0,1,0-4.15-1.62s0,0,.07.06a28.59,28.59,0,0,0,0,14.41c-.15.14-.3.26-.43.4a5.67,5.67,0,0,0-.63.83,6,6,0,0,0-.71,1.58,15.22,15.22,0,0,0-6.83,2.72c-2,1.33-4,2.58-9.63,2.67a32.82,32.82,0,0,0-5.29-.12,48.41,48.41,0,0,1-4.85,0c-1.34-.07-2.11-.89-3.46-2.43-1.8-2-4.22-4.65-9.37-5v4c3.29.3,4.8,1.89,6.36,3.67s3.17,3.61,6.25,3.78c2.12.11,3.76,0,5.21,0a24.43,24.43,0,0,1,7.86.68c2.6.65,12.09,9.68,14.77,14.33a4.25,4.25,0,0,0-.31.43,6.1,6.1,0,0,0,1.61,8.25l.29.19A6.12,6.12,0,1,0,123.57,101a6.18,6.18,0,0,0-3.26-.94,6,6,0,0,0-1.54.2c-2.56-4.19-8.66-10.46-13.19-13.8a17.66,17.66,0,0,0,4.21-2.19A11.33,11.33,0,0,1,114.65,82.19Zm3.88-26.93a2.11,2.11,0,1,1,3.56,2.26,2.14,2.14,0,0,1-2.91.65l-.09-.06A2.09,2.09,0,0,1,118.53,55.26Zm0,23.47a2.11,2.11,0,0,1,2.9-.66,2.11,2.11,0,1,1-2.25,3.57l-.09-.06A2.1,2.1,0,0,1,118.53,78.73Zm0,26.3a2.11,2.11,0,0,1,2.9-.66,2.11,2.11,0,1,1-2.25,3.57l-.09-.06A2.1,2.1,0,0,1,118.53,105Z"/><path class="cls-9" d="M108.18,114.1a6.12,6.12,0,0,0-10.72,4.74,20,20,0,0,1-5.33,1.33,4,4,0,0,1-2.22-1,10.78,10.78,0,0,0-4.15-1.85,37.66,37.66,0,0,0,8.58-12.83,6.12,6.12,0,1,0-5.48-9.24,6.12,6.12,0,0,0,1.62,8.06c-4,9.22-9.21,13.08-12.56,14.68a2,2,0,0,0-.36.17A11.22,11.22,0,0,1,75,119v4a12.69,12.69,0,0,0,4.25-1.19c5.34-1.36,6.84-.36,8.4.71a7.93,7.93,0,0,0,4.27,1.65h.31a23.61,23.61,0,0,0,7-1.72,6.14,6.14,0,0,0,4.28,1.75h0a6.11,6.11,0,0,0,4-1.48,6.13,6.13,0,0,0,.67-8.63ZM92.3,97.33a2.1,2.1,0,0,1,1.82-1,2.16,2.16,0,0,1,1.08.29,2.12,2.12,0,0,1,.73,2.9,2.08,2.08,0,0,1-1.81,1,2.12,2.12,0,0,1-1.09-.31,2.11,2.11,0,0,1-.73-2.89Zm12.6,22.36a2.07,2.07,0,0,1-1.37.51,2.13,2.13,0,1,1,1.37-.51Z"/><path class="cls-9" d="M84,51.21l.21,0Z"/><path class="cls-9" d="M106,38.2A6.12,6.12,0,1,0,95,43a13.36,13.36,0,0,1-10,4.3A28.93,28.93,0,0,0,75,45v4a24.75,24.75,0,0,1,8.75,2.13h0a21.46,21.46,0,0,1,8.61,7,5.22,5.22,0,0,0-.38.54,6.12,6.12,0,1,0,8.45-1.91,6.24,6.24,0,0,0-4.67-.76,26,26,0,0,0-5.35-5.56,16.29,16.29,0,0,0,7.78-5.1,6.28,6.28,0,0,0,1.77.27,6.12,6.12,0,0,0,6-7.46ZM95.38,60.85a2.13,2.13,0,0,1,1.79-1,2.16,2.16,0,0,1,1.13.33,2.12,2.12,0,1,1-2.92.65Zm6.38-20.19a2.13,2.13,0,0,1-2.91.66l-.1-.07a2.11,2.11,0,0,1,2.35-3.5,2.14,2.14,0,0,1,.94,1.33A2.09,2.09,0,0,1,101.76,40.66Z"/><path class="cls-9" d="M114.65,79.19a6.05,6.05,0,0,0,2.1,2.65L117,82a6.12,6.12,0,1,0,3.27-11.29h-.38a25.63,25.63,0,0,1,0-11.26l.34,0a6.12,6.12,0,1,0-4.15-1.62s0,0,.07.06a28.59,28.59,0,0,0,0,14.41c-.15.14-.3.26-.43.4a5.67,5.67,0,0,0-.63.83,6,6,0,0,0-.71,1.58,15.22,15.22,0,0,0-6.83,2.72c-2,1.33-4,2.58-9.63,2.67a32.82,32.82,0,0,0-5.29-.12,48.41,48.41,0,0,1-4.85,0c-1.34-.07-2.11-.89-3.46-2.43-1.8-2-4.22-4.65-9.37-5v4c3.29.3,4.8,1.89,6.36,3.67s3.17,3.61,6.25,3.78c2.12.11,3.76,0,5.21,0a24.43,24.43,0,0,1,7.86.68c2.6.65,12.09,9.68,14.77,14.33a4.25,4.25,0,0,0-.31.43,6.1,6.1,0,0,0,1.61,8.25l.29.19A6.12,6.12,0,1,0,123.57,98a6.18,6.18,0,0,0-3.26-.94,6,6,0,0,0-1.54.2c-2.56-4.19-8.66-10.46-13.19-13.8a17.66,17.66,0,0,0,4.21-2.19A11.33,11.33,0,0,1,114.65,79.19Zm3.88-26.93a2.11,2.11,0,1,1,3.56,2.26,2.14,2.14,0,0,1-2.91.65l-.09-.06A2.09,2.09,0,0,1,118.53,52.26Zm0,23.47a2.11,2.11,0,0,1,2.9-.66,2.11,2.11,0,1,1-2.25,3.57l-.09-.06A2.1,2.1,0,0,1,118.53,75.73Zm0,26.3a2.11,2.11,0,0,1,2.9-.66,2.11,2.11,0,1,1-2.25,3.57l-.09-.06A2.1,2.1,0,0,1,118.53,102Z"/></g></g></svg>