<svg id="Layer_1" data-name="Layer 1" xmlns="http://www.w3.org/2000/svg" viewBox="0 0 217 30"><defs><style>.cls-1{fill:#b50437;}.cls-2{fill:#eb743b;}</style></defs><polygon class="cls-1" points="14 1 2 8 2 22 14 29 14 1"/><polygon class="cls-2" points="15 1 27 8 27 22 15 29 15 1"/><path class="cls-1" d="M42.14,5.24l4.94,13.31L52,5.24h6.5V25H53.54V21l.51-10.39L48.71,25H45.43L40.11,10.67,40.62,21v4H35.68V5.24Z"/><path class="cls-1" d="M69.68,25.31A8.29,8.29,0,0,1,63.63,23,8.11,8.11,0,0,1,61.3,17v-.43a10.24,10.24,0,0,1,1-4.55,7.23,7.23,0,0,1,2.79-3.09A7.75,7.75,0,0,1,69.18,7.8,7,7,0,0,1,74.64,10a8.89,8.89,0,0,1,2,6.19V18H65.87a4.24,4.24,0,0,0,1.32,2.66,4,4,0,0,0,2.79,1,4.87,4.87,0,0,0,4.07-1.89l2.22,2.48a6.85,6.85,0,0,1-2.75,2.24A9.1,9.1,0,0,1,69.68,25.31Zm-.51-13.87a2.79,2.79,0,0,0-2.18.91A4.68,4.68,0,0,0,65.92,15h6.27v-.36a3.35,3.35,0,0,0-.81-2.33A2.9,2.9,0,0,0,69.17,11.44Z"/><path class="cls-1" d="M88.33,20.33a1.45,1.45,0,0,0-.82-1.3,9.13,9.13,0,0,0-2.63-.85q-6-1.26-6-5.12a4.63,4.63,0,0,1,1.86-3.75A7.51,7.51,0,0,1,85.6,7.8a8.14,8.14,0,0,1,5.14,1.51,4.76,4.76,0,0,1,1.93,3.94H88.16a2.19,2.19,0,0,0-.62-1.6,2.67,2.67,0,0,0-2-.63,2.73,2.73,0,0,0-1.76.51,1.61,1.61,0,0,0-.62,1.31,1.37,1.37,0,0,0,.71,1.21,7.33,7.33,0,0,0,2.39.8,19.07,19.07,0,0,1,2.84.75c2.39.88,3.58,2.39,3.58,4.55a4.38,4.38,0,0,1-2,3.73,8.47,8.47,0,0,1-5.11,1.43,9,9,0,0,1-3.77-.75,6.42,6.42,0,0,1-2.59-2.08,4.85,4.85,0,0,1-.93-2.85H82.6a2.34,2.34,0,0,0,.89,1.84,3.51,3.51,0,0,0,2.22.64,3.26,3.26,0,0,0,2-.49A1.54,1.54,0,0,0,88.33,20.33Z"/><path class="cls-1" d="M104.77,20.33A1.47,1.47,0,0,0,104,19a9.36,9.36,0,0,0-2.63-.85q-6-1.26-6-5.12a4.61,4.61,0,0,1,1.87-3.75A7.48,7.48,0,0,1,102,7.8a8.17,8.17,0,0,1,5.15,1.51,4.78,4.78,0,0,1,1.92,3.94h-4.51a2.16,2.16,0,0,0-.62-1.6,2.66,2.66,0,0,0-2-.63,2.7,2.7,0,0,0-1.76.51,1.61,1.61,0,0,0-.63,1.31,1.39,1.39,0,0,0,.71,1.21,7.31,7.31,0,0,0,2.4.8,19.41,19.41,0,0,1,2.84.75c2.38.88,3.57,2.39,3.57,4.55a4.39,4.39,0,0,1-2,3.73,8.5,8.5,0,0,1-5.12,1.43,9,9,0,0,1-3.77-.75,6.32,6.32,0,0,1-2.58-2.08,4.79,4.79,0,0,1-.94-2.85H99a2.34,2.34,0,0,0,.89,1.84,3.5,3.5,0,0,0,2.21.64,3.24,3.24,0,0,0,2-.49A1.55,1.55,0,0,0,104.77,20.33Z"/><path class="cls-1" d="M118.36,18.62l3.12-10.51h4.84l-6.79,19.51-.37.89a5.15,5.15,0,0,1-5,3.31,7.08,7.08,0,0,1-2-.3V28.11h.69a3.71,3.71,0,0,0,1.91-.39,2.57,2.57,0,0,0,1-1.29l.53-1.39L110.37,8.11h4.85Z"/><path class="cls-2" d="M128.05,25V5.24h7.63a11,11,0,0,1,6.07,1.4,4.56,4.56,0,0,1,2.12,4.07,4.49,4.49,0,0,1-.77,2.62A4.37,4.37,0,0,1,140.89,15a4.38,4.38,0,0,1,2.54,1.61,4.44,4.44,0,0,1,.88,2.74,4.82,4.82,0,0,1-2,4.3A10.51,10.51,0,0,1,136.43,25ZM133,13.46h3c2,0,3-.69,3-2.07a1.93,1.93,0,0,0-.72-1.7,3.89,3.89,0,0,0-2.19-.5H133Zm0,3.35v4.24h3.46a3.74,3.74,0,0,0,2.2-.56,1.76,1.76,0,0,0,.78-1.49c0-1.42-.86-2.15-2.59-2.19Z"/><path class="cls-2" d="M156.81,12.34a12.88,12.88,0,0,0-1.62-.12c-1.71,0-2.83.57-3.36,1.73V25h-4.51V8.11h4.26l.13,2a4.17,4.17,0,0,1,3.76-2.33,4.88,4.88,0,0,1,1.4.2Z"/><path class="cls-2" d="M168.3,25a5.18,5.18,0,0,1-.46-1.51,5.47,5.47,0,0,1-4.26,1.82,6,6,0,0,1-4.11-1.43,4.62,4.62,0,0,1-1.63-3.62,4.78,4.78,0,0,1,2-4.13,9.87,9.87,0,0,1,5.75-1.45h2.08v-1a2.76,2.76,0,0,0-.61-1.88,2.38,2.38,0,0,0-1.89-.7,2.66,2.66,0,0,0-1.79.55,1.85,1.85,0,0,0-.65,1.5h-4.51a4.5,4.5,0,0,1,.91-2.72,6,6,0,0,1,2.56-2,9.37,9.37,0,0,1,3.71-.71,7.38,7.38,0,0,1,5,1.57,5.49,5.49,0,0,1,1.83,4.41V21.1a8.14,8.14,0,0,0,.67,3.63V25Zm-3.73-3.14a4,4,0,0,0,1.84-.44,3,3,0,0,0,1.25-1.2v-2.9H166c-2.26,0-3.46.78-3.61,2.34v.27a1.84,1.84,0,0,0,.59,1.39A2.34,2.34,0,0,0,164.57,21.86Z"/><path class="cls-2" d="M175.62,3.74a2.24,2.24,0,0,1,.67-1.67,3,3,0,0,1,3.7,0,2.25,2.25,0,0,1,.68,1.67A2.23,2.23,0,0,1,180,5.43a2.57,2.57,0,0,1-1.84.65,2.53,2.53,0,0,1-1.83-.65A2.23,2.23,0,0,1,175.62,3.74ZM180.41,25h-4.53V8.11h4.53Z"/><path class="cls-2" d="M188.27,8.11l.14,2a5.93,5.93,0,0,1,4.86-2.26,4.89,4.89,0,0,1,4,1.58,7.31,7.31,0,0,1,1.34,4.71V25h-4.51V14.17a2.91,2.91,0,0,0-.62-2.08,2.77,2.77,0,0,0-2.08-.65,3.09,3.09,0,0,0-2.85,1.62V25H184V8.11Z"/><path class="cls-2" d="M207.2,21.36h8.26V25h-14V22.25l7.94-10.5h-7.71V8.11h13.53v2.66Z"/></svg>