<svg id="Layer_1" data-name="Layer 1" xmlns="http://www.w3.org/2000/svg" xmlns:xlink="http://www.w3.org/1999/xlink" viewBox="0 0 505 100"><defs><style>.cls-1,.cls-8,.cls-9{fill:none;}.cls-2{fill:#b50437;}.cls-3{clip-path:url(#clip-path);}.cls-10,.cls-4,.cls-6{fill:#8e0324;}.cls-10,.cls-4,.cls-8{stroke:#8e0324;}.cls-10,.cls-11,.cls-4,.cls-5,.cls-8,.cls-9{stroke-width:1.5px;}.cls-11,.cls-5,.cls-7{fill:#fffedb;}.cls-11,.cls-5,.cls-9{stroke:#fffedb;}.cls-10,.cls-11{stroke-linecap:square;stroke-linejoin:round;}.cls-12{fill:#eb743b;}</style><clipPath id="clip-path"><polygon class="cls-1" points="6.36 72.74 6.36 27.26 44 5.79 44 94.13 6.36 72.74"/></clipPath></defs><polygon class="cls-2" points="44 2 3 25.33 3 74.67 44 98 44 2"/><g class="cls-3"><g id="section"><polyline id="background" class="cls-4" points="2.39 31.36 1.77 31.82 1.22 32.37 0.74 32.98 0.36 33.65 0.07 34.37 -0.12 35.12 -0.2 35.89 -0.19 36.66 -0.06 37.42 0.16 38.16 0.49 38.87 0.91 39.52 1.41 40.11 1.98 40.63 2.63 41.06 3.32 41.41 4.06 41.66 4.82 41.81 5.6 41.86 6.38 41.8 7.14 41.64 7.87 41.38 8.56 41.02 9.2 40.58 9.77 40.05 10.26 39.45 10.67 38.8 10.98 38.09 11.19 36.98 11.43 36.12 13.17 36.6 12.93 37.46 12.72 38.57 12.32 39.5 11.81 40.37 11.18 41.17 10.44 41.87 9.62 42.47 8.72 42.96 7.76 43.32 6.77 43.55 5.75 43.64 4.73 43.6 3.73 43.42 2.75 43.11 1.83 42.67 0.98 42.11 0.21 41.45 -0.46 40.68 -1.02 39.84 -1.47 38.92 -1.78 37.96 -1.96 36.96 -2 35.95 -1.91 34.94 -1.68 33.95 -1.32 33.01 -0.83 32.12 -0.23 31.3 0.48 30.57 1.29 29.94"/><polyline id="background-2" data-name="background" class="cls-5" points="2.39 28.36 1.77 28.82 1.22 29.37 0.74 29.98 0.36 30.65 0.07 31.37 -0.12 32.12 -0.2 32.89 -0.19 33.66 -0.06 34.42 0.16 35.16 0.49 35.87 0.91 36.52 1.41 37.11 1.98 37.63 2.63 38.06 3.32 38.41 4.06 38.66 4.82 38.81 5.6 38.86 6.38 38.8 7.14 38.64 7.87 38.38 8.56 38.02 9.2 37.58 9.77 37.05 10.26 36.45 10.67 35.8 10.98 35.09 11.19 33.98 11.43 33.12 13.17 33.6 12.93 34.46 12.72 35.57 12.32 36.5 11.81 37.37 11.18 38.17 10.44 38.87 9.62 39.47 8.72 39.96 7.76 40.32 6.77 40.55 5.75 40.64 4.73 40.6 3.73 40.42 2.75 40.11 1.83 39.67 0.98 39.11 0.21 38.45 -0.46 37.68 -1.02 36.84 -1.47 35.92 -1.78 34.96 -1.96 33.96 -2 32.95 -1.91 31.94 -1.68 30.95 -1.32 30.01 -0.83 29.12 -0.23 28.3 0.48 27.57 1.29 26.94"/></g><g id="section-2" data-name="section"><polyline id="background-3" data-name="background" class="cls-4" points="11.2 39.84 11.88 39.09 12.46 38.26 12.92 37.35 13.25 36.39 13.45 35.4 13.52 34.39 13.44 33.38 13.23 32.39 12.88 31.43 12.41 30.53 11.83 29.71 11.13 28.96 10.34 28.32 9.47 27.79 8.54 27.38 7.56 27.1 6.54 26.95 -6.05 26.71 -6.96 26.69 -6.99 28.48 -6.09 28.49 6.51 28.74 7.28 28.86 8.02 29.09 8.73 29.42 9.38 29.83 9.98 30.34 10.5 30.91 10.93 31.55 11.28 32.24 11.53 32.98 11.68 33.73 11.72 34.51 11.66 35.27 11.49 36.03 11.22 36.76 10.86 37.44 10.41 38.07 9.87 38.63"/><polyline id="background-4" data-name="background" class="cls-5" points="11.2 36.84 11.88 36.09 12.46 35.26 12.92 34.35 13.25 33.39 13.45 32.4 13.52 31.39 13.44 30.38 13.23 29.39 12.88 28.43 12.41 27.53 11.83 26.71 11.13 25.96 10.34 25.32 9.47 24.79 8.54 24.38 7.56 24.1 6.54 23.95 -6.05 23.71 -6.96 23.69 -6.99 25.48 -6.09 25.49 6.51 25.74 7.28 25.86 8.02 26.09 8.73 26.42 9.38 26.83 9.98 27.34 10.5 27.91 10.93 28.55 11.28 29.24 11.53 29.98 11.68 30.73 11.72 31.5 11.66 32.27 11.49 33.03 11.22 33.76 10.86 34.44 10.41 35.07 9.87 35.63"/></g><polyline id="background-5" data-name="background" class="cls-6" points="30.8 52.98 30.94 52.88 31.09 52.78 31.24 52.68 31.41 52.57 32.24 52.1 32.44 51.99 32.65 51.89 32.87 51.79 33.12 51.7 33.32 51.63 33.45 51.58 33.52 51.56 33.59 51.54 33.66 51.52 33.74 51.5 33.82 51.48 33.9 51.45 33.99 51.43 35.3 51.14 35.42 51.11 35.54 51.09 35.66 51.07 35.8 51.05 35.93 51.03 36.08 51.02 36.23 51.01 36.38 51 36.55 50.99 46.94 50.99 47.36 50.99 47.36 48.33 46.94 48.33 36.55 48.34 36.31 48.34 36.09 48.36 35.87 48.37 35.67 48.39 35.47 48.42 35.28 48.44 35.1 48.47 34.93 48.5 34.76 48.54 33.4 48.84 33.27 48.87 33.16 48.9 33.04 48.93 32.93 48.96 32.83 48.99 32.73 49.02 32.63 49.05 32.47 49.11 32.22 49.2 31.9 49.32 31.58 49.46 31.28 49.6 30.99 49.75 30.07 50.27 29.84 50.41 29.61 50.56 29.41 50.7 29.21 50.85"/><polyline id="background-6" data-name="background" class="cls-7" points="30.8 49.98 30.94 49.88 31.09 49.78 31.24 49.68 31.41 49.57 32.24 49.1 32.44 48.99 32.65 48.89 32.87 48.79 33.12 48.7 33.32 48.63 33.45 48.58 33.52 48.56 33.59 48.54 33.66 48.52 33.74 48.5 33.82 48.48 33.9 48.45 33.99 48.43 35.3 48.14 35.42 48.11 35.54 48.09 35.66 48.07 35.8 48.05 35.93 48.03 36.08 48.02 36.23 48.01 36.38 48 36.55 47.99 46.94 47.99 47.36 47.99 47.36 45.33 46.94 45.33 36.55 45.34 36.31 45.34 36.09 45.36 35.87 45.37 35.67 45.39 35.47 45.42 35.28 45.44 35.1 45.47 34.93 45.5 34.76 45.54 33.4 45.84 33.27 45.87 33.16 45.9 33.04 45.93 32.93 45.96 32.83 45.99 32.73 46.02 32.63 46.05 32.47 46.11 32.22 46.2 31.9 46.32 31.58 46.46 31.28 46.6 30.99 46.75 30.07 47.27 29.84 47.41 29.61 47.56 29.41 47.7 29.21 47.85"/><polyline id="background-7" data-name="background" class="cls-6" points="28.74 55.26 28.77 55.21 28.79 55.16 28.82 55.11 28.85 55.06 28.88 55.01 28.92 54.95 28.95 54.9 28.99 54.84 29.03 54.77 29.07 54.71 29.12 54.65 29.16 54.58 29.21 54.51 29.27 54.44 29.32 54.36 29.38 54.29 29.45 54.21 29.52 54.13 29.59 54.05 29.66 53.96 29.75 53.88 29.83 53.79 29.92 53.7 30.02 53.6 30.13 53.51 30.24 53.41 30.35 53.32 30.48 53.22 30.64 53.1 30.8 52.98 29.21 50.85 29.04 50.97 28.88 51.09 28.7 51.23 28.53 51.37 28.38 51.5 28.23 51.63 28.09 51.77 27.95 51.9 27.83 52.02 27.71 52.15 27.6 52.27 27.5 52.38 27.4 52.5 27.31 52.61 27.22 52.72 27.14 52.83 27.06 52.93 26.99 53.03 26.92 53.12 26.86 53.22 26.8 53.31 26.74 53.4 26.68 53.48 26.63 53.56 26.59 53.64 26.54 53.72 26.5 53.79 26.46 53.87 26.42 53.93 26.38 54"/><polyline id="background-8" data-name="background" class="cls-7" points="28.74 52.26 28.77 52.21 28.79 52.16 28.82 52.11 28.85 52.06 28.88 52.01 28.92 51.95 28.95 51.9 28.99 51.84 29.03 51.77 29.07 51.71 29.12 51.65 29.16 51.58 29.21 51.51 29.27 51.44 29.32 51.36 29.38 51.29 29.45 51.21 29.52 51.13 29.59 51.05 29.66 50.96 29.75 50.88 29.83 50.79 29.92 50.7 30.02 50.6 30.13 50.51 30.24 50.41 30.35 50.32 30.48 50.22 30.64 50.1 30.8 49.98 29.21 47.85 29.04 47.97 28.88 48.09 28.7 48.23 28.53 48.37 28.38 48.5 28.23 48.63 28.09 48.77 27.95 48.9 27.83 49.02 27.71 49.15 27.6 49.27 27.5 49.38 27.4 49.5 27.31 49.61 27.22 49.72 27.14 49.83 27.06 49.93 26.99 50.03 26.92 50.12 26.86 50.22 26.8 50.31 26.74 50.4 26.68 50.48 26.63 50.56 26.59 50.64 26.54 50.72 26.5 50.79 26.46 50.87 26.42 50.93 26.38 51"/><g id="section-3" data-name="section"><polyline id="background-9" data-name="background" class="cls-4" points="-20.97 36.66 18.56 58.14 19.52 58.51 20.51 58.74 21.53 58.83 22.55 58.79 23.55 58.61 24.53 58.3 25.45 57.87 26.3 57.31 27.07 56.65 27.75 55.89 28.31 55.04 26.7 54.25 26.25 54.89 25.73 55.46 25.13 55.96 24.47 56.37 23.76 56.69 23.02 56.91 22.25 57.03 21.47 57.05 20.7 56.96 19.94 56.77 19.22 56.48 -20.09 35.1"/><polyline id="background-10" data-name="background" class="cls-5" points="-20.97 33.66 18.56 55.14 19.52 55.51 20.51 55.74 21.53 55.83 22.55 55.79 23.55 55.61 24.53 55.3 25.45 54.87 26.3 54.31 27.07 53.65 27.75 52.89 28.31 52.04 26.7 51.25 26.25 51.89 25.73 52.46 25.13 52.96 24.47 53.37 23.76 53.69 23.02 53.91 22.25 54.03 21.47 54.05 20.7 53.96 19.94 53.77 19.22 53.48 -20.09 32.1"/></g><g id="section-4" data-name="section"><path id="background-11" data-name="background" class="cls-4" d="M2.51,67.66l.63,3.64.32,1,.44.91.56.84.67.77.77.66.85.56.93.44,1,.31,1,.18,1,0,1-.1,1-.23,1-.35.9-.49c2.95-1.44,1.7-3,5.87-3l-.1-1.94c-3.57-.5-4.78,2.45-6.82,3.45l-.7.36-.73.26-.76.16-.78.06-.78,0L9,75l-.74-.25-.69-.35L6.91,74l-.58-.52-.5-.59-.42-.65-.32-.7-.23-.74L2.22,62.66"/><path id="background-12" data-name="background" class="cls-5" d="M2.51,64.66l.63,3.64.32,1,.44.91.56.84.67.77.77.66.85.56.93.44,1,.31,1,.18,1,0,1-.1,1-.23,1-.35.9-.49c2.95-1.44,1.7-3,5.87-3l-.1-1.94c-3.57-.5-4.78,2.45-6.82,3.45l-.7.36-.73.26-.76.16-.78.06-.78,0L9,72l-.74-.25-.69-.35L6.91,71l-.58-.52-.5-.59-.42-.65-.32-.7-.23-.74L2.22,59.66"/></g><g id="section-5" data-name="section"><polyline id="background-13" data-name="background" class="cls-4" points="20.31 70.92 21.26 71.28 22.16 71.76 22.98 72.36 23.72 73.07 24.35 73.86 24.87 74.73 25.26 75.67 25.53 76.65 25.66 77.65 25.65 78.66 25.51 79.67 25.23 80.64 24.82 81.57 24.29 82.43 23.64 83.22 22.89 83.91 22.06 84.5 21.16 84.97 20.2 85.31 19.2 85.53 18.18 85.61 5.71 84.98 4.94 85.04 4.18 85.2 3.44 85.46 2.75 85.82 2.12 86.27 -2.54 90.65 -3.37 91.24 -4.28 91.71 -5.24 92.05 -6.24 92.27 -7.25 92.35 -8.28 92.29 -9.28 92.09 -10.24 91.77 -11.16 91.31 -12 90.74 -12.76 90.07 -13.42 89.29 -13.97 88.44 -14.4 87.52 -14.7 86.55 -12.92 86.25 -12.68 86.98 -12.34 87.68 -11.91 88.32 -11.4 88.9 -10.81 89.41 -10.16 89.83 -9.45 90.16 -8.71 90.4 -7.94 90.53 -7.17 90.56 -6.39 90.49 -5.63 90.31 -4.91 90.03 -4.22 89.66 -3.6 89.2 0.88 84.97 1.7 84.37 2.6 83.89 3.55 83.53 4.54 83.3 5.56 83.2 18.27 83.82 19.05 83.75 19.8 83.57 20.53 83.3 21.21 82.92 21.84 82.47 22.4 81.93 22.88 81.32 23.27 80.65 23.57 79.94 23.77 79.19 23.87 78.42 23.86 77.65 23.75 76.89 23.53 76.14 23.21 75.44 22.81 74.78 22.31 74.18 21.74 73.66 21.11 73.21 20.41 72.86 19.68 72.59"/><polyline id="background-14" data-name="background" class="cls-5" points="20.31 67.92 21.26 68.28 22.16 68.76 22.98 69.36 23.72 70.07 24.35 70.86 24.87 71.73 25.26 72.67 25.53 73.65 25.66 74.65 25.65 75.66 25.51 76.67 25.23 77.64 24.82 78.57 24.29 79.43 23.64 80.22 22.89 80.91 22.06 81.5 21.16 81.97 20.2 82.31 19.2 82.53 18.18 82.61 5.71 81.98 4.94 82.04 4.18 82.2 3.44 82.46 2.75 82.82 2.12 83.27 -2.54 87.65 -3.37 88.24 -4.28 88.71 -5.24 89.05 -6.24 89.27 -7.25 89.35 -8.28 89.29 -9.28 89.09 -10.24 88.77 -11.16 88.31 -12 87.74 -12.76 87.07 -13.42 86.29 -13.97 85.44 -14.4 84.52 -14.7 83.55 -12.92 83.25 -12.68 83.98 -12.34 84.68 -11.91 85.32 -11.4 85.9 -10.81 86.41 -10.16 86.83 -9.45 87.16 -8.71 87.4 -7.94 87.53 -7.17 87.56 -6.39 87.49 -5.63 87.31 -4.91 87.03 -4.22 86.66 -3.6 86.2 0.88 81.97 1.7 81.37 2.6 80.89 3.55 80.53 4.54 80.3 5.56 80.2 18.27 80.82 19.05 80.75 19.8 80.57 20.53 80.3 21.21 79.92 21.84 79.47 22.4 78.93 22.88 78.32 23.27 77.65 23.57 76.94 23.77 76.19 23.87 75.42 23.86 74.65 23.75 73.89 23.53 73.14 23.21 72.44 22.81 71.78 22.31 71.18 21.74 70.66 21.11 70.21 20.41 69.86 19.68 69.59"/></g><g id="section-6" data-name="section"><polyline id="background-15" data-name="background" class="cls-4" points="-2.97 65.61 9.05 59.24 9.87 58.65 10.61 57.94 11.24 57.15 11.76 56.27 12.16 55.34 12.42 54.36 12.55 53.36 12.54 52.34 12.4 51.34 12.12 50.37 11.71 49.44 11.18 48.57 10.53 47.79 9.79 47.09 2.58 41.94 2.01 41.42 0.61 42.53 1.34 43.24 8.73 48.54 9.29 49.08 9.77 49.69 10.16 50.36 10.46 51.07 10.66 51.82 10.76 52.58 10.75 53.36 10.64 54.12 10.42 54.86 10.11 55.57 9.7 56.23 9.2 56.83 8.63 57.35 8 57.8 -3.82 64.03"/><polyline id="background-16" data-name="background" class="cls-5" points="-2.97 62.61 9.05 56.24 9.87 55.65 10.61 54.94 11.24 54.15 11.76 53.27 12.16 52.34 12.42 51.36 12.55 50.36 12.54 49.34 12.4 48.34 12.12 47.37 11.71 46.44 11.18 45.57 10.53 44.79 9.79 44.09 2.58 38.94 2.01 38.42 0.61 39.53 1.34 40.24 8.73 45.54 9.29 46.08 9.77 46.69 10.16 47.36 10.46 48.07 10.66 48.82 10.76 49.58 10.75 50.36 10.64 51.12 10.42 51.86 10.11 52.57 9.7 53.23 9.2 53.83 8.63 54.35 8 54.8 -3.82 61.03"/></g><g id="section-7" data-name="section"><polyline id="background-17" data-name="background" class="cls-4" points="31.8 94.19 26.4 81.79 25.86 80.92 25.21 80.14 24.47 79.45 23.63 78.87 22.73 78.4 21.77 78.06 20.77 77.85 19.75 77.77 18.73 77.83 17.73 78.03 16.76 78.36 15.85 78.81 15.01 79.39 14.25 80.07 8.48 86.77 7.91 87.29 8.91 88.77 9.68 88.1 15.62 81.23 16.2 80.72 16.85 80.29 17.55 79.96 18.3 79.72 19.06 79.59 19.84 79.55 20.62 79.63 21.38 79.8 22.1 80.07 22.79 80.44 23.42 80.9 23.98 81.44 24.46 82.05 24.85 82.71 30.15 94.9"/><polyline id="background-18" data-name="background" class="cls-5" points="31.8 91.19 26.4 78.79 25.86 77.92 25.21 77.14 24.47 76.45 23.63 75.87 22.73 75.4 21.77 75.06 20.77 74.85 19.75 74.77 18.73 74.83 17.73 75.03 16.76 75.36 15.85 75.81 15.01 76.39 14.25 77.07 8.48 83.77 7.91 84.29 8.91 85.77 9.68 85.1 15.62 78.23 16.2 77.72 16.85 77.29 17.55 76.96 18.3 76.72 19.06 76.59 19.84 76.55 20.62 76.63 21.38 76.8 22.1 77.07 22.79 77.44 23.42 77.9 23.98 78.44 24.46 79.05 24.85 79.71 30.15 91.9"/></g><g id="section-8" data-name="section"><polyline id="background-19" data-name="background" class="cls-4" points="-7.87 57.37 -7.1 57.25 -6.32 57.23 -5.55 57.31 24.81 65.2 25.54 65.48 26.21 65.87 26.83 66.33 27.38 66.88 27.85 67.5 28.24 68.17 28.53 68.89 33.51 89.61 33.59 90.38 33.58 91.15 33.45 91.92 33.22 92.66 32.9 93.36 32.48 94.01 31.98 94.6 31.4 95.12 30.75 95.55 30.06 95.9 29.32 96.15 28.56 96.3 27.78 96.34 27 96.28 26.24 96.12 25.51 95.86 24.82 95.5 24.18 95.06 22.94 96.35 23.76 96.95 24.66 97.43 25.61 97.8 26.61 98.03 27.62 98.12 28.64 98.08 29.65 97.91 30.62 97.59 31.54 97.16 32.4 96.6 33.17 95.94 33.84 95.18 34.41 94.33 34.85 93.42 35.17 92.45 35.35 91.46 35.39 90.45 35.3 89.44 30.28 68.47 29.92 67.53 29.43 66.63 28.83 65.82 28.12 65.09 27.32 64.46 26.44 63.94 25.5 63.55 -5.09 55.59 -6.11 55.46 -7.13 55.46 -8.14 55.6"/><polyline id="background-20" data-name="background" class="cls-5" points="-7.87 54.37 -7.1 54.25 -6.32 54.23 -5.55 54.31 24.81 62.2 25.54 62.48 26.21 62.87 26.83 63.34 27.38 63.88 27.85 64.5 28.24 65.17 28.53 65.89 33.51 86.61 33.59 87.38 33.58 88.15 33.45 88.92 33.22 89.66 32.9 90.36 32.48 91.01 31.98 91.6 31.4 92.12 30.75 92.55 30.06 92.9 29.32 93.15 28.56 93.3 27.78 93.34 27 93.28 26.24 93.12 25.51 92.86 24.82 92.5 24.18 92.06 22.94 93.35 23.76 93.95 24.66 94.43 25.61 94.8 26.61 95.03 27.62 95.12 28.64 95.08 29.65 94.91 30.62 94.59 31.54 94.16 32.4 93.6 33.17 92.94 33.84 92.18 34.41 91.33 34.85 90.42 35.17 89.45 35.35 88.46 35.39 87.45 35.3 86.44 30.28 65.47 29.92 64.53 29.43 63.63 28.83 62.82 28.12 62.09 27.32 61.46 26.44 60.94 25.5 60.55 -5.09 52.59 -6.11 52.46 -7.13 52.46 -8.14 52.6"/></g><g id="background-21" data-name="background"><polygon class="cls-6" points="11.58 41.05 20.24 42.99 20.98 43.25 21.66 43.61 22.3 44.06 22.87 44.59 23.36 45.19 23.77 45.84 24.08 46.55 24.29 47.3 24.4 48.06 24.41 48.83 24.31 49.6 24.11 50.34 23.81 51.06 23.41 51.72 22.93 52.33 22.37 52.87 21.74 53.32 21.05 53.69 20.33 53.97 19.57 54.14 19.71 55.92 20.71 55.71 21.68 55.37 22.58 54.9 23.42 54.32 24.16 53.63 24.81 52.84 25.35 51.98 25.76 51.05 26.04 50.08 26.19 49.08 26.2 48.06 26.08 47.06 25.82 46.08 25.42 45.15 24.91 44.27 24.28 43.47 23.55 42.77 22.72 42.16 21.83 41.68 20.87 41.32 11.98 39.31 11.23 39.09 10.52 38.78 9.85 38.38 9.25 37.89 8.72 37.33 8.27 36.7 7.91 36.01 7.64 35.28 7.48 34.53 7.42 33.76 7.46 32.99 7.62 32.23 7.87 31.5 8.22 30.81 8.66 30.17 9.18 29.6 9.77 29.1 10.43 28.68 11.14 28.36 11.88 28.14 12.65 28.01 13.43 27.99 14.21 28.08 14.96 28.26 15.69 28.55 16.36 28.93 16.98 29.4 17.53 29.94 18.01 30.56 19.58 29.69 18.98 28.88 18.27 28.15 17.47 27.52 16.59 27 15.65 26.61 14.66 26.35 13.65 26.22 12.63 26.23 11.61 26.37 10.63 26.65 9.7 27.05 8.82 27.58 8.03 28.22 7.33 28.96 6.74 29.79 6.27 30.68 5.92 31.64 5.7 32.63 5.62 33.63 5.68 34.65 5.88 35.64 6.21 36.6 6.66 37.51 7.24 38.34 7.92 39.1 8.7 39.75 9.56 40.3 10.49 40.72 11.46 41.02 11.58 41.05"/><polygon class="cls-8" points="11.58 41.05 20.24 42.99 20.98 43.25 21.66 43.61 22.3 44.06 22.87 44.59 23.36 45.19 23.77 45.84 24.08 46.55 24.29 47.3 24.4 48.06 24.41 48.83 24.31 49.6 24.11 50.34 23.81 51.06 23.41 51.72 22.93 52.33 22.37 52.87 21.74 53.32 21.05 53.69 20.33 53.97 19.57 54.14 19.71 55.92 20.71 55.71 21.68 55.37 22.58 54.9 23.42 54.32 24.16 53.63 24.81 52.84 25.35 51.98 25.76 51.05 26.04 50.08 26.19 49.08 26.2 48.06 26.08 47.06 25.82 46.08 25.42 45.15 24.91 44.27 24.28 43.47 23.55 42.77 22.72 42.16 21.83 41.68 20.87 41.32 11.98 39.31 11.23 39.09 10.52 38.78 9.85 38.38 9.25 37.89 8.72 37.33 8.27 36.7 7.91 36.01 7.64 35.28 7.48 34.53 7.42 33.76 7.46 32.99 7.62 32.23 7.87 31.5 8.22 30.81 8.66 30.17 9.18 29.6 9.77 29.1 10.43 28.68 11.14 28.36 11.88 28.14 12.65 28.01 13.43 27.99 14.21 28.08 14.96 28.26 15.69 28.55 16.36 28.93 16.98 29.4 17.53 29.94 18.01 30.56 19.58 29.69 18.98 28.88 18.27 28.15 17.47 27.52 16.59 27 15.65 26.61 14.66 26.35 13.65 26.22 12.63 26.23 11.61 26.37 10.63 26.65 9.7 27.05 8.82 27.58 8.03 28.22 7.33 28.96 6.74 29.79 6.27 30.68 5.92 31.64 5.7 32.63 5.62 33.63 5.68 34.65 5.88 35.64 6.21 36.6 6.66 37.51 7.24 38.34 7.92 39.1 8.7 39.75 9.56 40.3 10.49 40.72 11.46 41.02 11.58 41.05"/><polygon class="cls-7" points="11.58 38.05 20.24 39.99 20.98 40.25 21.66 40.61 22.3 41.06 22.87 41.59 23.36 42.19 23.77 42.84 24.08 43.55 24.29 44.3 24.4 45.06 24.41 45.83 24.31 46.6 24.11 47.34 23.81 48.06 23.41 48.72 22.93 49.33 22.37 49.87 21.74 50.32 21.05 50.69 20.33 50.97 19.57 51.14 19.71 52.92 20.71 52.71 21.68 52.37 22.58 51.9 23.42 51.32 24.16 50.63 24.81 49.84 25.35 48.98 25.76 48.05 26.04 47.08 26.19 46.08 26.2 45.06 26.08 44.06 25.82 43.08 25.42 42.15 24.91 41.27 24.28 40.47 23.55 39.77 22.72 39.16 21.83 38.68 20.87 38.32 11.98 36.31 11.23 36.09 10.52 35.78 9.85 35.38 9.25 34.89 8.72 34.33 8.27 33.7 7.91 33.01 7.64 32.28 7.48 31.53 7.42 30.76 7.46 29.99 7.62 29.23 7.87 28.5 8.22 27.81 8.66 27.17 9.18 26.6 9.77 26.1 10.43 25.68 11.14 25.36 11.88 25.14 12.65 25.01 13.43 24.99 14.21 25.08 14.96 25.26 15.69 25.55 16.36 25.93 16.98 26.4 17.53 26.94 18.01 27.56 19.58 26.69 18.98 25.88 18.27 25.15 17.47 24.52 16.59 24 15.65 23.61 14.66 23.35 13.65 23.22 12.63 23.23 11.61 23.37 10.63 23.65 9.7 24.05 8.82 24.58 8.03 25.22 7.33 25.96 6.74 26.79 6.27 27.68 5.92 28.64 5.7 29.63 5.62 30.64 5.68 31.65 5.88 32.64 6.21 33.6 6.66 34.51 7.24 35.34 7.92 36.1 8.7 36.75 9.56 37.3 10.49 37.72 11.46 38.02 11.58 38.05"/><polygon class="cls-9" points="11.58 38.05 20.24 39.99 20.98 40.25 21.66 40.61 22.3 41.06 22.87 41.59 23.36 42.19 23.77 42.84 24.08 43.55 24.29 44.3 24.4 45.06 24.41 45.83 24.31 46.6 24.11 47.34 23.81 48.06 23.41 48.72 22.93 49.33 22.37 49.87 21.74 50.32 21.05 50.69 20.33 50.97 19.57 51.14 19.71 52.92 20.71 52.71 21.68 52.37 22.58 51.9 23.42 51.32 24.16 50.63 24.81 49.84 25.35 48.98 25.76 48.05 26.04 47.08 26.19 46.08 26.2 45.06 26.08 44.06 25.82 43.08 25.42 42.15 24.91 41.27 24.28 40.47 23.55 39.77 22.72 39.16 21.83 38.68 20.87 38.32 11.98 36.31 11.23 36.09 10.52 35.78 9.85 35.38 9.25 34.89 8.72 34.33 8.27 33.7 7.91 33.01 7.64 32.28 7.48 31.53 7.42 30.76 7.46 29.99 7.62 29.23 7.87 28.5 8.22 27.81 8.66 27.17 9.18 26.6 9.77 26.1 10.43 25.68 11.14 25.36 11.88 25.14 12.65 25.01 13.43 24.99 14.21 25.08 14.96 25.26 15.69 25.55 16.36 25.93 16.98 26.4 17.53 26.94 18.01 27.56 19.58 26.69 18.98 25.88 18.27 25.15 17.47 24.52 16.59 24 15.65 23.61 14.66 23.35 13.65 23.22 12.63 23.23 11.61 23.37 10.63 23.65 9.7 24.05 8.82 24.58 8.03 25.22 7.33 25.96 6.74 26.79 6.27 27.68 5.92 28.64 5.7 29.63 5.62 30.64 5.68 31.65 5.88 32.64 6.21 33.6 6.66 34.51 7.24 35.34 7.92 36.1 8.7 36.75 9.56 37.3 10.49 37.72 11.46 38.02 11.58 38.05"/></g><g id="section-9" data-name="section"><path id="background-22" data-name="background" class="cls-4" d="M37,29l-.29-1-.41-.93-.54-.86L32,21.46l-.75-.69-.84-.58-.91-.47-1-.34-1-.21-1-.07-1,.06-1,.2-1,.33-.91.46-.85.57L21,21.4l-.66.78L19,24.34l-.5.59-.58.52-.64.44-.69.35-.74.26-.76.15-.78.05-.78-.05a5.07,5.07,0,0,1-2.41-1.91C10,23.21,8,23,9.59,25.69s3.54,2.7,3.54,2.7l1,.09,1-.05,1-.18,1-.32.92-.44.85-.56.77-.67.67-.76,1.53-2.35.51-.59.59-.51.65-.42.7-.34.74-.24.76-.13.78,0,.78.07.76.17.73.28.68.37.63.45.56.54,3.63,4.58.4.67.3.71.2.74"/><path id="background-23" data-name="background" class="cls-5" d="M37,26l-.29-1-.41-.93-.54-.86L32,18.46l-.75-.69-.84-.58-.91-.47-1-.34-1-.21-1-.07-1,.06-1,.2-1,.33-.91.46-.85.57L21,18.4l-.66.78L19,21.34l-.5.59-.58.52-.64.44-.69.35-.74.26-.76.15-.78.05-.78-.05a5.07,5.07,0,0,1-2.41-1.91C10,20.21,8,20,9.59,22.69s3.54,2.7,3.54,2.7l1,.09,1-.05,1-.18,1-.32.92-.44.85-.56.77-.67.67-.76,1.53-2.35.51-.59.59-.51.65-.42.7-.34.74-.24.76-.13.78,0,.78.07.76.17.73.28.68.37.63.45.56.54,3.63,4.58.4.67.3.71.2.74"/></g><g id="section-10" data-name="section"><polyline id="background-24" data-name="background" class="cls-4" points="19.45 40.3 25.29 26.27 32.76 6.67 31.09 5.99 23.63 25.59 17.79 39.62"/><polyline id="background-25" data-name="background" class="cls-5" points="19.45 37.3 25.29 23.27 32.76 3.67 31.09 2.98 23.63 22.59 17.79 36.62"/></g><g id="section-11" data-name="section"><polyline id="background-26" data-name="background" class="cls-4" points="21.24 70.01 22.19 69.63 23.08 69.14 23.9 68.53 24.62 67.81 25.25 67.01 25.75 66.13 26.13 65.19 26.39 64.21 26.5 63.2 26.48 62.19 26.32 61.19 26.03 60.22 25.6 59.3 25.06 58.44 24.4 57.66 23.65 56.98 22.81 56.4 18.91 54.42 18.27 53.98 17.69 53.46 17.19 52.87 16.77 52.22 16.45 51.52 16.22 50.78 16.1 50.01 16.08 49.24 16.17 48.47 16.36 47.72 19.11 41.12 19.45 40.3 17.79 39.62 17.44 40.44 14.69 47.04 14.43 48.02 14.29 49.02 14.3 50.04 14.44 51.04 14.72 52.02 15.13 52.94 15.66 53.81 16.3 54.6 17.05 55.29 17.88 55.88 21.98 57.99 22.61 58.44 23.18 58.97 23.67 59.57 24.07 60.23 24.38 60.94 24.59 61.69 24.7 62.45 24.7 63.23 24.6 63.99 24.39 64.74 24.09 65.45 23.69 66.11 23.2 66.72 22.64 67.25 22.01 67.7 21.32 68.07 20.59 68.34"/><polyline id="background-27" data-name="background" class="cls-5" points="21.24 67.01 22.19 66.63 23.08 66.14 23.9 65.53 24.62 64.81 25.25 64.01 25.75 63.13 26.13 62.19 26.39 61.21 26.5 60.2 26.48 59.19 26.32 58.19 26.03 57.22 25.6 56.3 25.06 55.44 24.4 54.66 23.65 53.98 22.81 53.4 18.91 51.42 18.27 50.98 17.69 50.46 17.19 49.87 16.77 49.22 16.45 48.52 16.22 47.78 16.1 47.01 16.08 46.24 16.17 45.47 16.36 44.72 19.11 38.12 19.45 37.3 17.79 36.62 17.44 37.44 14.69 44.04 14.43 45.02 14.29 46.02 14.3 47.04 14.44 48.04 14.72 49.02 15.13 49.94 15.66 50.81 16.3 51.6 17.05 52.29 17.88 52.88 21.98 54.99 22.61 55.44 23.18 55.97 23.67 56.57 24.07 57.23 24.38 57.94 24.59 58.69 24.7 59.45 24.7 60.23 24.6 60.99 24.39 61.74 24.09 62.45 23.69 63.11 23.2 63.72 22.64 64.25 22.01 64.7 21.32 65.07 20.59 65.34"/></g><g id="section-12" data-name="section"><path id="background-28" data-name="background" class="cls-10" d="M-4.43,42.81l.62,18,.18,1,.31,1,.45.92.56.84.67.77.77.66.85.56.92.44,1,.31L18.8,70.38A5.48,5.48,0,0,0,21.24,70l-.65-1.67a4.26,4.26,0,0,1-1.7.26L2.21,65.48l-.74-.25-.7-.35-.64-.44-.58-.52-.5-.59-.41-.65-.33-.7-.22-.74L-2,60.47l-.6-17.72"/><path id="background-29" data-name="background" class="cls-11" d="M-4.43,39.81l.62,18,.18,1,.31,1,.45.92.56.84.67.77.77.66.85.56.92.44,1,.31L18.8,67.38A5.48,5.48,0,0,0,21.24,67l-.65-1.67a4.26,4.26,0,0,1-1.7.26L2.21,62.48l-.74-.25-.7-.35-.64-.44-.58-.52-.5-.59-.41-.65-.33-.7-.22-.74L-2,57.47l-.6-17.72"/></g><g id="background-30" data-name="background"><polyline class="cls-6" points="11.63 64.94 12.61 64.64 13.54 64.22 14.4 63.68 15.18 63.03 15.87 62.28 16.45 61.44 16.91 60.54 17.24 59.58 19.04 50.95 19.29 50.22 19.64 49.53 20.08 48.9 28.09 40.27 28.67 39.44 29.13 38.53 29.46 37.57 29.66 36.58 29.72 35.57 29.65 34.56 29.43 33.57 29.09 32.61 28.62 31.71 28.03 30.89 27.34 30.14 26.55 29.5 25.68 28.97 24.74 28.56 23.76 28.28 22.75 28.13 21.73 28.12 20.72 28.24 19.73 28.5 20.41 30.16 21.16 29.97 21.94 29.89 22.72 29.91 23.48 30.04 24.23 30.27 24.93 30.6 25.59 31.01 26.18 31.52 26.7 32.09 27.14 32.73 27.49 33.42 27.73 34.15 27.88 34.91 27.93 35.68 27.86 36.45 27.7 37.21 27.43 37.94 27.07 38.62 26.61 39.25 18.75 47.69 18.16 48.51 17.69 49.41 17.34 50.36 15.48 59.22 15.21 59.94 14.85 60.63 14.39 61.26 13.86 61.82 13.25 62.3 12.59 62.7 11.87 63.01 11.12 63.22"/><polyline class="cls-8" points="11.63 64.94 12.61 64.64 13.54 64.22 14.4 63.68 15.18 63.03 15.87 62.28 16.45 61.44 16.91 60.54 17.24 59.58 19.04 50.95 19.29 50.22 19.64 49.53 20.08 48.9 28.09 40.27 28.67 39.44 29.13 38.53 29.46 37.57 29.66 36.58 29.72 35.57 29.65 34.56 29.43 33.57 29.09 32.61 28.62 31.71 28.03 30.89 27.34 30.14 26.55 29.5 25.68 28.97 24.74 28.56 23.76 28.28 22.75 28.13 21.73 28.12 20.72 28.24 19.73 28.5 20.41 30.16 21.16 29.97 21.94 29.89 22.72 29.91 23.48 30.04 24.23 30.27 24.93 30.6 25.59 31.01 26.18 31.52 26.7 32.09 27.14 32.73 27.49 33.42 27.73 34.15 27.88 34.91 27.93 35.68 27.86 36.45 27.7 37.21 27.43 37.94 27.07 38.62 26.61 39.25 18.75 47.69 18.16 48.51 17.69 49.41 17.34 50.36 15.48 59.22 15.21 59.94 14.85 60.63 14.39 61.26 13.86 61.82 13.25 62.3 12.59 62.7 11.87 63.01 11.12 63.22"/><polyline class="cls-7" points="11.63 61.94 12.61 61.64 13.54 61.22 14.4 60.68 15.18 60.03 15.87 59.28 16.45 58.44 16.91 57.54 17.24 56.58 19.04 47.95 19.29 47.22 19.64 46.53 20.08 45.9 28.09 37.27 28.67 36.44 29.13 35.53 29.46 34.57 29.66 33.58 29.72 32.57 29.65 31.56 29.43 30.57 29.09 29.61 28.62 28.71 28.03 27.89 27.34 27.14 26.55 26.5 25.68 25.97 24.74 25.56 23.76 25.28 22.75 25.13 21.73 25.12 20.72 25.24 19.73 25.5 20.41 27.16 21.16 26.97 21.94 26.89 22.72 26.91 23.48 27.04 24.23 27.27 24.93 27.6 25.59 28.01 26.18 28.52 26.7 29.09 27.14 29.73 27.49 30.42 27.73 31.15 27.88 31.91 27.93 32.68 27.86 33.45 27.7 34.21 27.43 34.94 27.07 35.62 26.61 36.25 18.75 44.69 18.16 45.51 17.69 46.41 17.34 47.36 15.48 56.22 15.21 56.94 14.85 57.63 14.39 58.26 13.86 58.82 13.25 59.3 12.59 59.7 11.87 60.01 11.12 60.22"/><polyline class="cls-9" points="11.63 61.94 12.61 61.64 13.54 61.22 14.4 60.68 15.18 60.03 15.87 59.28 16.45 58.44 16.91 57.54 17.24 56.58 19.04 47.95 19.29 47.22 19.64 46.53 20.08 45.9 28.09 37.27 28.67 36.44 29.13 35.53 29.46 34.57 29.66 33.58 29.72 32.57 29.65 31.56 29.43 30.57 29.09 29.61 28.62 28.71 28.03 27.89 27.34 27.14 26.55 26.5 25.68 25.97 24.74 25.56 23.76 25.28 22.75 25.13 21.73 25.12 20.72 25.24 19.73 25.5 20.41 27.16 21.16 26.97 21.94 26.89 22.72 26.91 23.48 27.04 24.23 27.27 24.93 27.6 25.59 28.01 26.18 28.52 26.7 29.09 27.14 29.73 27.49 30.42 27.73 31.15 27.88 31.91 27.93 32.68 27.86 33.45 27.7 34.21 27.43 34.94 27.07 35.62 26.61 36.25 18.75 44.69 18.16 45.51 17.69 46.41 17.34 47.36 15.48 56.22 15.21 56.94 14.85 57.63 14.39 58.26 13.86 58.82 13.25 59.3 12.59 59.7 11.87 60.01 11.12 60.22"/></g><g id="section-13" data-name="section"><polyline id="background-31" data-name="background" class="cls-4" points="35.27 29.4 35.45 30.15 35.54 30.91 35.52 31.69 35.4 32.45 35.17 33.19 34.85 33.89 34.43 34.54 33.93 35.13 33.35 35.65 32.71 36.09 32.01 36.44 31.27 36.69 30.51 36.84 29.73 36.88 28.96 36.83 28.19 36.66 27.46 36.4 26.13 35.6 26.13 35.6 20.09 30.28 18.51 31.05 24.89 36.89 25.72 37.49 26.61 37.98 27.57 38.34 28.56 38.57 29.58 38.66 30.6 38.62 31.61 38.44 32.58 38.13 33.5 37.69 34.35 37.14 35.12 36.47 35.79 35.71 36.36 34.86 36.8 33.95 37.11 32.99 37.3 31.99 37.34 30.98 37.24 29.97 37.02 28.98"/><polyline id="background-32" data-name="background" class="cls-5" points="35.27 26.4 35.45 27.15 35.54 27.91 35.52 28.69 35.4 29.45 35.17 30.19 34.85 30.89 34.43 31.54 33.93 32.13 33.35 32.65 32.71 33.09 32.01 33.44 31.27 33.69 30.51 33.84 29.73 33.88 28.96 33.83 28.19 33.66 27.46 33.4 26.13 32.6 26.13 32.6 20.09 27.28 18.51 28.05 24.89 33.89 25.72 34.49 26.61 34.98 27.57 35.34 28.56 35.57 29.58 35.66 30.6 35.62 31.61 35.44 32.58 35.13 33.5 34.69 34.35 34.14 35.12 33.47 35.79 32.71 36.36 31.86 36.8 30.95 37.11 29.99 37.3 28.99 37.34 27.98 37.24 26.97 37.02 25.98"/></g><g id="section-14" data-name="section"><polyline id="background-33" data-name="background" class="cls-4" points="2.02 71.31 6.21 67.18 6.81 66.68 7.47 66.26 8.18 65.94 10.77 65.19 11.63 64.94 11.12 63.22 10.26 63.47 7.67 64.23 6.73 64.63 5.86 65.16 5.07 65.8 0.69 70.1"/><polyline id="background-34" data-name="background" class="cls-5" points="2.02 68.31 6.21 64.18 6.81 63.68 7.47 63.26 8.18 62.94 10.77 62.19 11.63 61.94 11.12 60.22 10.26 60.47 7.67 61.23 6.73 61.63 5.86 62.16 5.07 62.8 0.69 67.1"/></g><g id="background-35" data-name="background"><path class="cls-6" d="M21.73,28.12l-1,.12-1,.26-8.34,3.36-.84.34L1.68,35.82l.45,1.72,9.1-3.69.84-.33,8.34-3.36.75-.19.78-.08a6.15,6.15,0,0,1,1.83.24"/><path class="cls-8" d="M21.73,28.12l-1,.12-1,.26-8.34,3.36-.84.34L1.68,35.82l.45,1.72,9.1-3.69.84-.33,8.34-3.36.75-.19.78-.08a6.15,6.15,0,0,1,1.83.24"/><path class="cls-7" d="M21.73,25.12l-1,.12-1,.26-8.34,3.36-.84.34L1.68,32.82l.45,1.72,9.1-3.69.84-.33,8.34-3.36.75-.19.78-.08a6.15,6.15,0,0,1,1.83.24"/><path class="cls-9" d="M21.73,25.12l-1,.12-1,.26-8.34,3.36-.84.34L1.68,32.82l.45,1.72,9.1-3.69.84-.33,8.34-3.36.75-.19.78-.08a6.15,6.15,0,0,1,1.83.24"/></g></g><polygon class="cls-12" points="47 2 47 98 88 74 88 26 47 2"/><path class="cls-7" d="M79.28,58.09a6.75,6.75,0,0,0-7.67-2.86A18.09,18.09,0,0,0,63,49.6a28.62,28.62,0,0,0,5.91-6.16,6.91,6.91,0,0,0,5.17-.83,6.77,6.77,0,1,0-9.34-2.11,6.27,6.27,0,0,0,.42.59,23.88,23.88,0,0,1-9.52,7.79h0A18.45,18.45,0,0,1,47,51v5c4,0,5.93-1.12,10-2.9a14.78,14.78,0,0,1,11,4.75,6.76,6.76,0,1,0,12.16,5.32A6.64,6.64,0,0,0,79.28,58.09ZM69.06,34.67a2.57,2.57,0,0,1,1.4-.41,2.62,2.62,0,1,1,0,5.24,2.61,2.61,0,0,1-2.22-1.21A2.63,2.63,0,0,1,69.06,34.67Zm7.06,27.6A2.61,2.61,0,0,1,75,63.91a2.56,2.56,0,0,1-1.39.41,2.62,2.62,0,0,1-1.52-4.75l.12-.07a2.65,2.65,0,0,1,3.6.8A2.59,2.59,0,0,1,76.12,62.27Z"/><path class="cls-2" d="M118.05,28,129,57.54,139.85,28h14.4v43.8H143.31V63l1.13-23L132.6,71.82h-7.26l-11.8-31.77L114.66,63v8.87H103.72V28Z"/><path class="cls-2" d="M179.08,72.51q-8.24,0-13.41-5.05T160.5,54V53A22.62,22.62,0,0,1,162.68,43a16,16,0,0,1,6.18-6.85,17.33,17.33,0,0,1,9.11-2.4q7.68,0,12.09,4.84t4.41,13.73v4.08H170.64a9.22,9.22,0,0,0,2.92,5.88,8.83,8.83,0,0,0,6.18,2.22,10.78,10.78,0,0,0,9-4.19l4.91,5.5a14.93,14.93,0,0,1-6.08,5A20,20,0,0,1,179.08,72.51Zm-1.14-30.75a6.26,6.26,0,0,0-4.83,2,10.49,10.49,0,0,0-2.37,5.77h13.91v-.8a7.45,7.45,0,0,0-1.8-5.16A6.44,6.44,0,0,0,177.94,41.76Z"/><path class="cls-2" d="M220.41,61.48a3.23,3.23,0,0,0-1.81-2.89,20.83,20.83,0,0,0-5.83-1.88q-13.35-2.8-13.35-11.35A10.28,10.28,0,0,1,203.55,37q4.13-3.33,10.81-3.33,7.13,0,11.4,3.35A10.6,10.6,0,0,1,230,45.78H220a4.86,4.86,0,0,0-1.38-3.55,5.9,5.9,0,0,0-4.33-1.4,6,6,0,0,0-3.9,1.14A3.59,3.59,0,0,0,209,44.88a3.08,3.08,0,0,0,1.58,2.68,15.92,15.92,0,0,0,5.31,1.76A44.29,44.29,0,0,1,222.21,51q7.92,2.91,7.92,10.07a9.75,9.75,0,0,1-4.39,8.28q-4.4,3.16-11.35,3.16A19.76,19.76,0,0,1,206,70.84a14,14,0,0,1-5.72-4.6,10.68,10.68,0,0,1-2.08-6.32h9.48a5.23,5.23,0,0,0,2,4.09,7.85,7.85,0,0,0,4.91,1.41,7.22,7.22,0,0,0,4.34-1.09A3.37,3.37,0,0,0,220.41,61.48Z"/><path class="cls-2" d="M256.83,61.48A3.23,3.23,0,0,0,255,58.59a20.6,20.6,0,0,0-5.83-1.88q-13.35-2.8-13.35-11.35A10.31,10.31,0,0,1,240,37q4.14-3.33,10.81-3.33,7.12,0,11.4,3.35a10.57,10.57,0,0,1,4.27,8.72h-10a4.86,4.86,0,0,0-1.38-3.55,5.86,5.86,0,0,0-4.32-1.4A6,6,0,0,0,246.84,42a3.62,3.62,0,0,0-1.39,2.91A3.08,3.08,0,0,0,247,47.56a16.09,16.09,0,0,0,5.31,1.76A43.93,43.93,0,0,1,258.63,51q7.92,2.91,7.92,10.07a9.75,9.75,0,0,1-4.39,8.28q-4.4,3.16-11.34,3.16a19.81,19.81,0,0,1-8.36-1.67,14,14,0,0,1-5.72-4.6,10.68,10.68,0,0,1-2.08-6.32h9.48a5.23,5.23,0,0,0,2,4.09A7.85,7.85,0,0,0,251,65.42a7.2,7.2,0,0,0,4.34-1.09A3.37,3.37,0,0,0,256.83,61.48Z"/><path class="cls-2" d="M287,57.68l6.92-23.28H304.6l-15,43.23-.83,2q-3.36,7.32-11.07,7.33a15.7,15.7,0,0,1-4.43-.66V78.71l1.52,0a8.3,8.3,0,0,0,4.24-.86,5.75,5.75,0,0,0,2.2-2.87l1.17-3.08L269.25,34.4H280Z"/><path class="cls-12" d="M308.43,71.82V28h16.92q8.76,0,13.46,3.11a10.15,10.15,0,0,1,4.7,9A10.07,10.07,0,0,1,341.8,46a9.83,9.83,0,0,1-4.91,3.67,9.7,9.7,0,0,1,5.64,3.56,10,10,0,0,1,2,6.09c0,4.32-1.49,7.5-4.47,9.51s-7.32,3-13,3Zm10.9-25.56H326q6.59,0,6.58-4.61A4.23,4.23,0,0,0,331,37.9a8.47,8.47,0,0,0-4.86-1.12h-6.81Zm0,7.4v9.4H327a8.26,8.26,0,0,0,4.89-1.24,3.88,3.88,0,0,0,1.73-3.29c0-3.14-1.92-4.77-5.75-4.87Z"/><path class="cls-12" d="M372.17,43.77a28,28,0,0,0-3.59-.28c-3.79,0-6.26,1.28-7.44,3.84V71.82h-10V34.4h9.45l.27,4.46q3-5.16,8.34-5.15a10.44,10.44,0,0,1,3.11.45Z"/><path class="cls-12" d="M397.63,71.82a11.16,11.16,0,0,1-1-3.35,12.08,12.08,0,0,1-9.44,4,13.25,13.25,0,0,1-9.12-3.18,10.22,10.22,0,0,1-3.61-8,10.57,10.57,0,0,1,4.41-9.13Q383.28,49,391.61,49h4.6V46.82a6.18,6.18,0,0,0-1.33-4.16,5.26,5.26,0,0,0-4.2-1.55,5.93,5.93,0,0,0-4,1.21,4.11,4.11,0,0,0-1.44,3.32h-10a10.09,10.09,0,0,1,2-6A13.31,13.31,0,0,1,383,35.28a20.61,20.61,0,0,1,8.23-1.57q6.92,0,11,3.47T406.24,47V63.18c0,3.55.52,6.23,1.49,8.06v.58Zm-8.27-6.95a8.62,8.62,0,0,0,4.09-1,6.42,6.42,0,0,0,2.76-2.64V54.81h-3.73q-7.51,0-8,5.18l0,.59a4,4,0,0,0,1.32,3.08A5.07,5.07,0,0,0,389.36,64.87Z"/><path class="cls-12" d="M413.85,24.71a4.94,4.94,0,0,1,1.51-3.7,6.49,6.49,0,0,1,8.18,0,4.91,4.91,0,0,1,1.52,3.7,4.91,4.91,0,0,1-1.54,3.74,6.42,6.42,0,0,1-8.13,0A5,5,0,0,1,413.85,24.71Zm10.62,47.11h-10V34.4h10Z"/><path class="cls-12" d="M441.91,34.4l.31,4.32a13.06,13.06,0,0,1,10.75-5q6,0,8.86,3.49t3,10.45V71.82h-10v-24c0-2.12-.46-3.67-1.39-4.63s-2.45-1.44-4.6-1.44a6.89,6.89,0,0,0-6.33,3.61V71.82h-10V34.4Z"/><path class="cls-12" d="M483.86,63.76h18.3v8.06H471.1V65.74l17.61-23.28H471.62V34.4h30v5.89Z"/></svg>