<svg xmlns="http://www.w3.org/2000/svg" xmlns:xlink="http://www.w3.org/1999/xlink" viewBox="0 0 232 290"><defs><style>.cls-1,.cls-10,.cls-11{fill:none;}.cls-2{isolation:isolate;}.cls-3{fill:#eb743b;}.cls-4{fill:#b50437;}.cls-5{clip-path:url(#clip-path);}.cls-12,.cls-6,.cls-8{fill:#8e0324;}.cls-10,.cls-12,.cls-6{stroke:#8e0324;}.cls-10,.cls-11,.cls-12,.cls-13,.cls-6,.cls-7{stroke-width:1.5px;}.cls-13,.cls-7,.cls-9{fill:#fffedb;}.cls-11,.cls-13,.cls-7{stroke:#fffedb;}.cls-12,.cls-13{stroke-linecap:square;stroke-linejoin:round;}.cls-14{mix-blend-mode:multiply;opacity:0.07;}.cls-15{fill:#d3562c;}</style><clipPath id="clip-path"><polygon class="cls-1" points="57 108.56 57 40.35 113 8.14 113 140.65 57 108.56"/></clipPath></defs><g class="cls-2"><g id="Layer_1" data-name="Layer 1"><polygon class="cls-3" points="118 2.46 118 146.46 179 111.46 179 37.46 118 2.46"/><polygon class="cls-4" points="113 2.46 52 37.46 52 111.46 113 146.46 113 2.46"/><g class="cls-5"><g id="section"><polyline id="background" class="cls-6" points="51.09 44.99 50.17 45.69 49.35 46.51 48.65 47.43 48.07 48.44 47.64 49.51 47.36 50.64 47.23 51.79 47.26 52.95 47.44 54.09 47.78 55.2 48.26 56.26 48.88 57.23 49.63 58.12 50.49 58.9 51.44 59.55 52.48 60.08 53.58 60.45 54.71 60.68 55.87 60.75 57.02 60.66 58.16 60.42 59.25 60.03 60.28 59.49 61.22 58.83 62.07 58.04 62.81 57.14 63.41 56.15 63.88 55.09 64.19 53.43 64.55 52.14 67.13 52.86 66.77 54.15 66.46 55.8 65.87 57.21 65.1 58.52 64.16 59.71 63.07 60.77 61.84 61.67 60.51 62.39 59.09 62.93 57.61 63.27 56.1 63.42 54.58 63.35 53.08 63.09 51.64 62.62 50.27 61.96 49 61.12 47.85 60.13 46.85 58.98 46.02 57.71 45.36 56.34 44.89 54.9 44.62 53.4 44.55 51.88 44.7 50.37 45.04 48.89 45.58 47.47 46.3 46.13 47.2 44.91 48.26 43.81 49.45 42.87"/><polyline id="background-2" data-name="background" class="cls-7" points="51.09 41.99 50.17 42.69 49.35 43.51 48.65 44.43 48.07 45.44 47.64 46.51 47.36 47.64 47.23 48.79 47.26 49.95 47.44 51.09 47.78 52.2 48.26 53.26 48.88 54.23 49.63 55.12 50.49 55.9 51.44 56.55 52.48 57.08 53.58 57.45 54.71 57.68 55.87 57.75 57.02 57.66 58.16 57.42 59.25 57.03 60.28 56.49 61.22 55.83 62.07 55.04 62.81 54.14 63.41 53.15 63.88 52.09 64.19 50.43 64.55 49.14 67.13 49.86 66.77 51.15 66.46 52.8 65.87 54.21 65.1 55.52 64.16 56.71 63.07 57.77 61.84 58.67 60.51 59.39 59.09 59.93 57.61 60.27 56.1 60.42 54.58 60.35 53.08 60.09 51.64 59.62 50.27 58.96 49 58.12 47.85 57.13 46.85 55.98 46.02 54.71 45.36 53.34 44.89 51.9 44.62 50.4 44.55 48.88 44.7 47.37 45.04 45.89 45.58 44.47 46.3 43.13 47.2 41.91 48.26 40.81 49.45 39.87"/></g><g id="section-2" data-name="section"><polyline id="background-3" data-name="background" class="cls-6" points="64.19 57.72 65.21 56.59 66.07 55.34 66.76 53.98 67.25 52.55 67.55 51.06 67.64 49.54 67.53 48.02 67.22 46.54 66.71 45.11 66.01 43.76 65.13 42.52 64.1 41.4 62.92 40.44 61.63 39.64 60.24 39.03 58.78 38.6 57.27 38.38 38.53 38.02 37.19 37.99 37.14 40.67 38.48 40.7 57.22 41.06 58.37 41.25 59.47 41.59 60.52 42.08 61.5 42.71 62.38 43.46 63.16 44.32 63.8 45.28 64.32 46.32 64.69 47.42 64.91 48.56 64.97 49.72 64.88 50.87 64.63 52 64.23 53.09 63.69 54.12 63.02 55.06 62.22 55.9"/><polyline id="background-4" data-name="background" class="cls-7" points="64.19 54.72 65.21 53.59 66.07 52.34 66.76 50.98 67.25 49.55 67.55 48.06 67.64 46.54 67.53 45.02 67.22 43.54 66.71 42.11 66.01 40.76 65.13 39.52 64.1 38.4 62.92 37.44 61.63 36.64 60.24 36.03 58.78 35.6 57.27 35.38 38.53 35.02 37.19 34.99 37.14 37.67 38.48 37.7 57.22 38.06 58.37 38.25 59.47 38.59 60.52 39.08 61.5 39.71 62.38 40.46 63.16 41.32 63.8 42.28 64.32 43.32 64.69 44.42 64.91 45.56 64.97 46.72 64.88 47.87 64.63 49 64.23 50.09 63.69 51.12 63.02 52.06 62.22 52.9"/></g><polyline id="background-5" data-name="background" class="cls-8" points="93.37 77.43 93.57 77.28 93.79 77.12 94.02 76.97 94.26 76.82 95.51 76.1 95.8 75.95 96.11 75.79 96.44 75.65 96.81 75.5 97.1 75.4 97.31 75.33 97.41 75.3 97.51 75.27 97.62 75.23 97.73 75.2 97.85 75.17 97.97 75.14 98.1 75.11 100.06 74.66 100.23 74.63 100.41 74.59 100.6 74.56 100.8 74.53 101 74.51 101.21 74.49 101.44 74.47 101.67 74.46 101.91 74.45 117.38 74.44 118 74.44 118 70.46 117.38 70.46 101.91 70.47 101.56 70.47 101.23 70.49 100.91 70.52 100.6 70.55 100.31 70.58 100.03 70.62 99.76 70.67 99.5 70.71 99.25 70.76 97.23 71.22 97.04 71.27 96.87 71.31 96.7 71.36 96.54 71.4 96.38 71.45 96.23 71.49 96.09 71.54 95.84 71.62 95.47 71.75 94.99 71.94 94.52 72.14 94.07 72.36 93.65 72.58 92.28 73.36 91.93 73.58 91.6 73.8 91.28 74.01 90.99 74.23"/><polyline id="background-6" data-name="background" class="cls-9" points="93.37 74.43 93.57 74.28 93.79 74.12 94.02 73.97 94.26 73.82 95.51 73.1 95.8 72.95 96.11 72.79 96.44 72.65 96.81 72.5 97.1 72.4 97.31 72.33 97.41 72.3 97.51 72.27 97.62 72.23 97.73 72.2 97.85 72.17 97.97 72.14 98.1 72.11 100.06 71.66 100.23 71.63 100.41 71.59 100.6 71.56 100.8 71.53 101 71.51 101.21 71.49 101.44 71.47 101.67 71.46 101.91 71.45 117.38 71.44 118 71.44 118 67.46 117.38 67.46 101.91 67.47 101.56 67.47 101.23 67.49 100.91 67.52 100.6 67.55 100.31 67.58 100.03 67.62 99.76 67.67 99.5 67.71 99.25 67.76 97.23 68.22 97.04 68.27 96.87 68.31 96.7 68.36 96.54 68.4 96.38 68.45 96.23 68.49 96.09 68.54 95.84 68.62 95.47 68.75 94.99 68.94 94.52 69.14 94.07 69.36 93.65 69.58 92.28 70.36 91.93 70.58 91.6 70.8 91.28 71.01 90.99 71.23"/><polyline id="background-7" data-name="background" class="cls-8" points="90.3 80.84 90.34 80.77 90.38 80.7 90.42 80.63 90.46 80.55 90.51 80.47 90.56 80.39 90.61 80.3 90.67 80.21 90.73 80.12 90.79 80.02 90.86 79.93 90.92 79.83 91 79.72 91.08 79.61 91.16 79.5 91.25 79.39 91.35 79.27 91.45 79.15 91.56 79.03 91.67 78.9 91.79 78.77 91.92 78.64 92.06 78.5 92.2 78.36 92.36 78.22 92.52 78.08 92.7 77.94 92.88 77.79 93.12 77.61 93.37 77.43 90.99 74.23 90.75 74.41 90.51 74.59 90.24 74.8 89.99 75 89.75 75.21 89.53 75.41 89.32 75.61 89.13 75.8 88.94 75.99 88.77 76.17 88.6 76.36 88.45 76.53 88.3 76.7 88.16 76.87 88.03 77.04 87.91 77.19 87.8 77.35 87.69 77.5 87.59 77.64 87.5 77.78 87.4 77.92 87.32 78.05 87.24 78.18 87.16 78.3 87.09 78.42 87.02 78.54 86.96 78.65 86.9 78.75 86.84 78.86 86.79 78.96"/><polyline id="background-8" data-name="background" class="cls-9" points="90.3 77.84 90.34 77.77 90.38 77.7 90.42 77.63 90.46 77.55 90.51 77.47 90.56 77.39 90.61 77.3 90.67 77.21 90.73 77.12 90.79 77.02 90.86 76.93 90.92 76.83 91 76.72 91.08 76.61 91.16 76.5 91.25 76.39 91.35 76.27 91.45 76.15 91.56 76.03 91.67 75.9 91.79 75.77 91.92 75.64 92.06 75.5 92.2 75.36 92.36 75.22 92.52 75.08 92.7 74.94 92.88 74.79 93.12 74.61 93.37 74.43 90.99 71.23 90.75 71.41 90.51 71.59 90.24 71.8 89.99 72 89.75 72.21 89.53 72.41 89.32 72.61 89.13 72.8 88.94 72.99 88.77 73.17 88.6 73.36 88.45 73.53 88.3 73.7 88.16 73.87 88.03 74.04 87.91 74.19 87.8 74.35 87.69 74.5 87.59 74.64 87.5 74.78 87.4 74.92 87.32 75.05 87.24 75.18 87.16 75.3 87.09 75.42 87.02 75.54 86.96 75.65 86.9 75.75 86.84 75.86 86.79 75.96"/><g id="section-3" data-name="section"><polyline id="background-9" data-name="background" class="cls-6" points="16.34 52.95 75.15 85.17 76.57 85.72 78.05 86.06 79.56 86.2 81.08 86.14 82.58 85.88 84.03 85.42 85.4 84.76 86.67 83.93 87.81 82.93 88.82 81.79 89.66 80.52 87.25 79.33 86.6 80.29 85.82 81.15 84.93 81.89 83.95 82.51 82.89 82.99 81.78 83.32 80.64 83.5 79.48 83.53 78.33 83.4 77.2 83.11 76.13 82.68 17.64 50.61"/><polyline id="background-10" data-name="background" class="cls-7" points="16.34 49.95 75.15 82.17 76.57 82.72 78.05 83.06 79.56 83.2 81.08 83.14 82.58 82.88 84.03 82.42 85.4 81.76 86.67 80.93 87.81 79.93 88.82 78.79 89.66 77.52 87.25 76.33 86.6 77.29 85.82 78.15 84.93 78.89 83.95 79.51 82.89 79.99 81.78 80.32 80.64 80.5 79.48 80.53 78.33 80.4 77.2 80.11 76.13 79.68 17.64 47.61"/></g><g id="section-4" data-name="section"><path id="background-11" data-name="background" class="cls-6" d="M51.27,99.45l.94,5.46.47,1.44.66,1.38.83,1.26,1,1.15,1.15,1,1.27.84,1.37.65,1.44.47,1.5.27,1.52.07,1.51-.14,1.48-.35,1.42-.54,1.34-.72c4.39-2.17,2.52-4.48,8.74-4.45l-.16-2.9c-5.31-.76-7.11,3.67-10.15,5.18l-1,.53-1.09.39-1.13.24-1.16.09L62,110.7l-1.13-.23-1.1-.38-1-.52-1-.65-.86-.78-.74-.89-.62-1-.48-1-.34-1.11L50.84,92"/><path id="background-12" data-name="background" class="cls-7" d="M51.27,96.45l.94,5.46.47,1.44.66,1.38.83,1.26,1,1.15,1.15,1,1.27.84,1.37.65,1.44.47,1.5.27,1.52.07,1.51-.14,1.48-.35,1.42-.54,1.34-.72c4.39-2.17,2.52-4.48,8.74-4.45l-.16-2.9c-5.31-.76-7.11,3.67-10.15,5.18l-1,.53-1.09.39-1.13.24-1.16.09L62,107.7l-1.13-.23-1.1-.38-1-.52-1-.65-.86-.78-.74-.89-.62-1-.48-1-.34-1.11L50.84,89"/></g><g id="section-5" data-name="section"><polyline id="background-13" data-name="background" class="cls-6" points="77.75 104.34 79.17 104.88 80.5 105.6 81.73 106.5 82.82 107.56 83.76 108.75 84.54 110.06 85.13 111.46 85.52 112.93 85.71 114.43 85.7 115.95 85.48 117.46 85.07 118.92 84.46 120.31 83.67 121.61 82.71 122.79 81.6 123.83 80.36 124.71 79.02 125.41 77.59 125.93 76.1 126.25 74.58 126.37 56.04 125.43 54.88 125.52 53.75 125.76 52.66 126.15 51.63 126.69 50.69 127.36 43.76 133.94 42.52 134.81 41.17 135.52 39.74 136.04 38.26 136.36 36.74 136.48 35.23 136.39 33.73 136.1 32.29 135.61 30.93 134.93 29.68 134.07 28.55 133.06 27.57 131.9 26.75 130.61 26.11 129.24 25.67 127.78 28.31 127.33 28.67 128.43 29.17 129.47 29.82 130.44 30.58 131.31 31.46 132.07 32.42 132.7 33.47 133.2 34.58 133.55 35.72 133.75 36.88 133.8 38.03 133.69 39.16 133.42 40.24 133.01 41.26 132.45 42.19 131.76 48.84 125.42 50.06 124.52 51.4 123.79 52.82 123.25 54.3 122.9 55.81 122.76 74.72 123.69 75.87 123.58 77 123.31 78.08 122.9 79.1 122.34 80.03 121.66 80.86 120.85 81.58 119.93 82.16 118.93 82.61 117.86 82.9 116.74 83.05 115.59 83.03 114.44 82.87 113.29 82.54 112.17 82.08 111.11 81.47 110.13 80.73 109.23 79.89 108.44 78.94 107.77 77.91 107.24 76.82 106.85"/><polyline id="background-14" data-name="background" class="cls-7" points="77.75 101.34 79.17 101.88 80.5 102.6 81.73 103.5 82.82 104.56 83.76 105.75 84.54 107.06 85.13 108.46 85.52 109.93 85.71 111.43 85.7 112.95 85.48 114.46 85.07 115.92 84.46 117.31 83.67 118.61 82.71 119.79 81.6 120.83 80.36 121.71 79.02 122.41 77.59 122.93 76.1 123.25 74.58 123.37 56.04 122.43 54.88 122.52 53.75 122.76 52.66 123.15 51.63 123.69 50.69 124.36 43.76 130.94 42.52 131.81 41.17 132.52 39.74 133.04 38.26 133.36 36.74 133.48 35.23 133.39 33.73 133.1 32.29 132.61 30.93 131.93 29.68 131.07 28.55 130.06 27.57 128.9 26.75 127.61 26.11 126.23 25.67 124.78 28.31 124.33 28.67 125.43 29.17 126.47 29.82 127.44 30.58 128.31 31.46 129.07 32.42 129.7 33.47 130.2 34.58 130.55 35.72 130.75 36.88 130.8 38.03 130.69 39.16 130.42 40.24 130.01 41.26 129.45 42.19 128.76 48.84 122.42 50.06 121.52 51.4 120.79 52.82 120.25 54.3 119.9 55.81 119.76 74.72 120.69 75.87 120.58 77 120.31 78.08 119.9 79.1 119.34 80.03 118.66 80.86 117.85 81.58 116.93 82.16 115.93 82.61 114.86 82.9 113.74 83.05 112.59 83.03 111.44 82.87 110.29 82.54 109.17 82.08 108.11 81.47 107.13 80.73 106.23 79.89 105.44 78.94 104.77 77.91 104.24 76.82 103.85"/></g><g id="section-6" data-name="section"><polyline id="background-15" data-name="background" class="cls-6" points="43.12 96.37 61 86.82 62.23 85.93 63.32 84.87 64.26 83.68 65.03 82.37 65.62 80.97 66.02 79.5 66.21 77.99 66.2 76.47 65.98 74.97 65.57 73.51 64.96 72.11 64.17 70.82 63.21 69.64 62.1 68.6 51.38 60.87 50.53 60.08 48.44 61.76 49.53 62.81 60.53 70.77 61.36 71.58 62.07 72.49 62.66 73.49 63.1 74.56 63.4 75.68 63.54 76.83 63.53 77.99 63.36 79.14 63.04 80.25 62.57 81.31 61.97 82.3 61.23 83.19 60.38 83.98 59.44 84.65 41.86 94"/><polyline id="background-16" data-name="background" class="cls-7" points="43.12 93.37 61 83.82 62.23 82.93 63.32 81.87 64.26 80.68 65.03 79.37 65.62 77.97 66.02 76.5 66.21 74.99 66.2 73.47 65.98 71.97 65.57 70.51 64.96 69.11 64.17 67.82 63.21 66.64 62.1 65.6 51.38 57.87 50.53 57.08 48.44 58.76 49.53 59.81 60.53 67.77 61.36 68.58 62.07 69.49 62.66 70.49 63.1 71.56 63.4 72.68 63.54 73.83 63.53 74.99 63.36 76.14 63.04 77.25 62.57 78.31 61.97 79.3 61.23 80.19 60.38 80.98 59.44 81.65 41.86 91"/></g><g id="section-7" data-name="section"><polyline id="background-17" data-name="background" class="cls-6" points="94.86 139.24 86.81 120.64 86.01 119.34 85.05 118.17 83.94 117.13 82.7 116.26 81.35 115.56 79.92 115.04 78.43 114.73 76.92 114.61 75.4 114.7 73.91 115 72.47 115.49 71.11 116.18 69.86 117.04 68.73 118.06 60.16 128.1 59.3 128.89 60.8 131.11 61.94 130.1 70.77 119.8 71.64 119.04 72.61 118.4 73.66 117.9 74.76 117.54 75.9 117.34 77.06 117.29 78.21 117.39 79.34 117.66 80.42 118.07 81.44 118.62 82.38 119.31 83.21 120.11 83.93 121.02 84.52 122.02 92.4 140.3"/><polyline id="background-18" data-name="background" class="cls-7" points="94.86 136.24 86.81 117.64 86.01 116.34 85.05 115.17 83.94 114.13 82.7 113.26 81.35 112.56 79.92 112.04 78.43 111.73 76.92 111.61 75.4 111.7 73.91 112 72.47 112.49 71.11 113.18 69.86 114.04 68.73 115.06 60.16 125.11 59.3 125.89 60.8 128.11 61.94 127.11 70.77 116.8 71.64 116.04 72.61 115.4 73.66 114.9 74.76 114.54 75.9 114.34 77.06 114.29 78.21 114.39 79.34 114.66 80.42 115.07 81.44 115.62 82.38 116.31 83.21 117.11 83.93 118.02 84.52 119.02 92.4 137.3"/></g><g id="section-8" data-name="section"><polyline id="background-19" data-name="background" class="cls-6" points="35.83 84.01 36.97 83.83 38.13 83.8 39.28 83.93 84.45 95.75 85.53 96.19 86.54 96.76 87.46 97.46 88.28 98.28 88.98 99.2 89.55 100.21 89.98 101.29 97.39 132.38 97.52 133.53 97.49 134.69 97.3 135.83 96.97 136.94 96.48 137.99 95.86 138.97 95.11 139.86 94.25 140.63 93.29 141.29 92.26 141.81 91.16 142.18 90.02 142.4 88.87 142.47 87.71 142.38 86.58 142.14 85.49 141.75 84.46 141.21 83.52 140.54 81.67 142.48 82.89 143.38 84.22 144.11 85.64 144.65 87.12 145 88.64 145.14 90.15 145.08 91.65 144.81 93.1 144.35 94.47 143.69 95.74 142.86 96.89 141.86 97.89 140.72 98.73 139.45 99.39 138.09 99.86 136.64 100.13 135.15 100.2 133.63 100.06 132.11 92.58 100.67 92.05 99.25 91.32 97.91 90.43 96.68 89.37 95.59 88.18 94.64 86.87 93.87 85.47 93.28 39.96 81.34 38.45 81.14 36.93 81.15 35.43 81.36"/><polyline id="background-20" data-name="background" class="cls-7" points="35.83 81.01 36.97 80.83 38.13 80.8 39.28 80.93 84.45 92.75 85.53 93.19 86.54 93.76 87.46 94.46 88.28 95.28 88.98 96.2 89.55 97.21 89.98 98.29 97.39 129.38 97.52 130.53 97.49 131.69 97.3 132.83 96.97 133.94 96.48 134.99 95.86 135.97 95.11 136.86 94.25 137.63 93.29 138.29 92.26 138.81 91.16 139.18 90.02 139.4 88.87 139.47 87.71 139.38 86.58 139.14 85.49 138.75 84.46 138.21 83.52 137.54 81.67 139.48 82.89 140.38 84.22 141.11 85.64 141.65 87.12 142 88.64 142.14 90.15 142.08 91.65 141.81 93.1 141.35 94.47 140.69 95.74 139.86 96.89 138.86 97.89 137.72 98.73 136.45 99.39 135.09 99.86 133.64 100.13 132.15 100.2 130.63 100.06 129.11 92.58 97.67 92.05 96.25 91.32 94.91 90.43 93.68 89.37 92.59 88.18 91.64 86.87 90.87 85.47 90.28 39.96 78.34 38.45 78.14 36.93 78.15 35.43 78.36"/></g><g id="background-21" data-name="background"><polygon class="cls-8" points="64.77 59.53 77.65 62.44 78.74 62.83 79.77 63.37 80.72 64.04 81.56 64.83 82.29 65.73 82.9 66.72 83.36 67.78 83.68 68.9 83.84 70.05 83.85 71.2 83.7 72.36 83.4 73.47 82.95 74.54 82.37 75.54 81.65 76.45 80.81 77.26 79.88 77.94 78.86 78.49 77.78 78.91 76.65 79.17 76.87 81.84 78.35 81.52 79.78 81.01 81.13 80.31 82.38 79.43 83.49 78.4 84.45 77.22 85.25 75.93 85.86 74.54 86.28 73.08 86.5 71.57 86.52 70.05 86.33 68.55 85.94 67.08 85.36 65.67 84.59 64.36 83.66 63.17 82.57 62.11 81.34 61.2 80.01 60.47 78.59 59.93 65.36 56.92 64.24 56.6 63.18 56.13 62.19 55.53 61.3 54.8 60.51 53.95 59.84 53 59.3 51.98 58.91 50.88 58.66 49.75 58.58 48.6 58.64 47.44 58.87 46.3 59.24 45.2 59.76 44.17 60.41 43.21 61.19 42.35 62.08 41.6 63.05 40.98 64.11 40.5 65.22 40.16 66.36 39.98 67.52 39.95 68.67 40.07 69.8 40.35 70.87 40.78 71.88 41.35 72.8 42.05 73.62 42.87 74.33 43.79 76.67 42.5 75.77 41.27 74.72 40.18 73.52 39.24 72.22 38.46 70.81 37.88 69.35 37.48 67.84 37.29 66.32 37.3 64.82 37.51 63.35 37.93 61.96 38.54 60.66 39.33 59.48 40.29 58.45 41.4 57.56 42.63 56.86 43.98 56.34 45.41 56.02 46.89 55.9 48.41 55.99 49.93 56.28 51.42 56.77 52.86 57.45 54.22 58.3 55.47 59.32 56.6 60.48 57.59 61.76 58.4 63.14 59.04 64.59 59.48 64.77 59.53"/><polygon class="cls-10" points="64.77 59.53 77.65 62.44 78.74 62.83 79.77 63.37 80.72 64.04 81.56 64.83 82.29 65.73 82.9 66.72 83.36 67.78 83.68 68.9 83.84 70.05 83.85 71.2 83.7 72.36 83.4 73.47 82.95 74.54 82.37 75.54 81.65 76.45 80.81 77.26 79.88 77.94 78.86 78.49 77.78 78.91 76.65 79.17 76.87 81.84 78.35 81.52 79.78 81.01 81.13 80.31 82.38 79.43 83.49 78.4 84.45 77.22 85.25 75.93 85.86 74.54 86.28 73.08 86.5 71.57 86.52 70.05 86.33 68.55 85.94 67.08 85.36 65.67 84.59 64.36 83.66 63.17 82.57 62.11 81.34 61.2 80.01 60.47 78.59 59.93 65.36 56.92 64.24 56.6 63.18 56.13 62.19 55.53 61.3 54.8 60.51 53.95 59.84 53 59.3 51.98 58.91 50.88 58.66 49.75 58.58 48.6 58.64 47.44 58.87 46.3 59.24 45.2 59.76 44.17 60.41 43.21 61.19 42.35 62.08 41.6 63.05 40.98 64.11 40.5 65.22 40.16 66.36 39.98 67.52 39.95 68.67 40.07 69.8 40.35 70.87 40.78 71.88 41.35 72.8 42.05 73.62 42.87 74.33 43.79 76.67 42.5 75.77 41.27 74.72 40.18 73.52 39.24 72.22 38.46 70.81 37.88 69.35 37.48 67.84 37.29 66.32 37.3 64.82 37.51 63.35 37.93 61.96 38.54 60.66 39.33 59.48 40.29 58.45 41.4 57.56 42.63 56.86 43.98 56.34 45.41 56.02 46.89 55.9 48.41 55.99 49.93 56.28 51.42 56.77 52.86 57.45 54.22 58.3 55.47 59.32 56.6 60.48 57.59 61.76 58.4 63.14 59.04 64.59 59.48 64.77 59.53"/><polygon class="cls-9" points="64.77 56.53 77.65 59.44 78.74 59.83 79.77 60.37 80.72 61.04 81.56 61.84 82.29 62.73 82.9 63.72 83.36 64.78 83.68 65.9 83.84 67.05 83.85 68.2 83.7 69.36 83.4 70.47 82.95 71.54 82.37 72.54 81.65 73.45 80.81 74.26 79.88 74.94 78.86 75.49 77.78 75.91 76.65 76.17 76.87 78.84 78.35 78.52 79.78 78.01 81.13 77.31 82.38 76.43 83.49 75.4 84.45 74.22 85.25 72.93 85.86 71.54 86.28 70.08 86.5 68.57 86.52 67.05 86.33 65.55 85.94 64.08 85.36 62.67 84.59 61.36 83.66 60.17 82.57 59.11 81.34 58.2 80.01 57.47 78.59 56.93 65.36 53.92 64.24 53.6 63.18 53.13 62.19 52.53 61.3 51.8 60.51 50.95 59.84 50 59.3 48.98 58.91 47.88 58.66 46.75 58.58 45.6 58.64 44.44 58.87 43.3 59.24 42.2 59.76 41.17 60.41 40.21 61.19 39.35 62.08 38.6 63.05 37.98 64.11 37.5 65.22 37.16 66.36 36.98 67.52 36.95 68.67 37.07 69.8 37.35 70.87 37.78 71.88 38.35 72.8 39.05 73.62 39.87 74.33 40.79 76.67 39.5 75.77 38.27 74.72 37.18 73.52 36.24 72.22 35.46 70.81 34.88 69.35 34.48 67.84 34.29 66.32 34.3 64.82 34.51 63.35 34.93 61.96 35.54 60.66 36.33 59.48 37.29 58.45 38.4 57.56 39.63 56.86 40.98 56.34 42.41 56.02 43.89 55.9 45.41 55.99 46.93 56.28 48.42 56.77 49.86 57.45 51.22 58.3 52.47 59.32 53.6 60.48 54.59 61.76 55.4 63.14 56.04 64.59 56.48 64.77 56.53"/><polygon class="cls-11" points="64.77 56.53 77.65 59.44 78.74 59.83 79.77 60.37 80.72 61.04 81.56 61.84 82.29 62.73 82.9 63.72 83.36 64.78 83.68 65.9 83.84 67.05 83.85 68.2 83.7 69.36 83.4 70.47 82.95 71.54 82.37 72.54 81.65 73.45 80.81 74.26 79.88 74.94 78.86 75.49 77.78 75.91 76.65 76.17 76.87 78.84 78.35 78.52 79.78 78.01 81.13 77.31 82.38 76.43 83.49 75.4 84.45 74.22 85.25 72.93 85.86 71.54 86.28 70.08 86.5 68.57 86.52 67.05 86.33 65.55 85.94 64.08 85.36 62.67 84.59 61.36 83.66 60.17 82.57 59.11 81.34 58.2 80.01 57.47 78.59 56.93 65.36 53.92 64.24 53.6 63.18 53.13 62.19 52.53 61.3 51.8 60.51 50.95 59.84 50 59.3 48.98 58.91 47.88 58.66 46.75 58.58 45.6 58.64 44.44 58.87 43.3 59.24 42.2 59.76 41.17 60.41 40.21 61.19 39.35 62.08 38.6 63.05 37.98 64.11 37.5 65.22 37.16 66.36 36.98 67.52 36.95 68.67 37.07 69.8 37.35 70.87 37.78 71.88 38.35 72.8 39.05 73.62 39.87 74.33 40.79 76.67 39.5 75.77 38.27 74.72 37.18 73.52 36.24 72.22 35.46 70.81 34.88 69.35 34.48 67.84 34.29 66.32 34.3 64.82 34.51 63.35 34.93 61.96 35.54 60.66 36.33 59.48 37.29 58.45 38.4 57.56 39.63 56.86 40.98 56.34 42.41 56.02 43.89 55.9 45.41 55.99 46.93 56.28 48.42 56.77 49.86 57.45 51.22 58.3 52.47 59.32 53.6 60.48 54.59 61.76 55.4 63.14 56.04 64.59 56.48 64.77 56.53"/></g><g id="section-9" data-name="section"><path id="background-22" data-name="background" class="cls-6" d="M102.61,41.43,102.18,40l-.61-1.39-.8-1.29-5.65-7.15-1.11-1-1.24-.87-1.35-.7L90,27l-1.49-.32L87,26.6l-1.51.1L84,27l-1.44.49-1.36.69L79.93,29l-1.12,1-1,1.17-2.06,3.23-.74.89-.86.79-1,.66-1,.52-1.1.38L70,37.93,68.8,38l-1.16-.08a7.62,7.62,0,0,1-3.59-2.86c-1.67-2.3-4.56-2.59-2.25,1.42s5.27,4,5.27,4l1.51.14,1.52-.07,1.5-.28L73,39.86l1.37-.66,1.26-.85,1.14-1,1-1.15,2.28-3.53.76-.87.87-.76,1-.64,1-.51,1.1-.35L86,29.33l1.16,0,1.15.1,1.13.26,1.09.41,1,.56.93.68.84.8L98.69,39l.59,1L99.73,41l.3,1.11"/><path id="background-23" data-name="background" class="cls-7" d="M102.61,38.43,102.18,37l-.61-1.39-.8-1.29-5.65-7.15-1.11-1-1.24-.87-1.35-.7L90,24l-1.49-.32L87,23.6l-1.51.1L84,24l-1.44.49-1.36.69L79.93,26l-1.12,1-1,1.17-2.06,3.23-.74.89-.86.79-1,.66-1,.52-1.1.38L70,34.93,68.8,35l-1.16-.08a7.62,7.62,0,0,1-3.59-2.86c-1.67-2.3-4.56-2.59-2.25,1.42s5.27,4,5.27,4l1.51.14,1.52-.07,1.5-.28L73,36.86l1.37-.66,1.26-.85,1.14-1,1-1.15,2.28-3.53.76-.87.87-.76,1-.64,1-.51,1.1-.35L86,26.33l1.16,0,1.15.1,1.13.26,1.09.41,1,.56.93.68.84.8L98.69,36l.59,1L99.73,38l.3,1.11"/></g><g id="section-10" data-name="section"><polyline id="background-24" data-name="background" class="cls-6" points="76.48 58.4 85.17 37.36 96.27 7.96 93.8 6.93 82.69 36.34 74 57.38"/><polyline id="background-25" data-name="background" class="cls-7" points="76.48 55.4 85.17 34.36 96.27 4.96 93.8 3.93 82.69 33.34 74 54.38"/></g><g id="section-11" data-name="section"><polyline id="background-26" data-name="background" class="cls-6" points="79.14 102.97 80.56 102.41 81.88 101.66 83.09 100.75 84.17 99.68 85.1 98.47 85.85 97.15 86.42 95.74 86.79 94.27 86.96 92.76 86.93 91.24 86.69 89.74 86.26 88.28 85.63 86.9 84.82 85.61 83.84 84.45 82.72 83.42 81.47 82.56 75.67 79.58 74.72 78.93 73.86 78.15 73.11 77.26 72.49 76.28 72.01 75.23 71.67 74.12 71.49 72.98 71.46 71.82 71.59 70.67 71.87 69.54 75.97 59.64 76.48 58.4 74 57.38 73.49 58.62 69.4 68.52 69 69.99 68.81 71.49 68.81 73.01 69.03 74.52 69.44 75.98 70.05 77.37 70.83 78.67 71.79 79.85 72.9 80.89 74.14 81.78 80.24 84.94 81.18 85.62 82.02 86.41 82.75 87.32 83.35 88.31 83.81 89.37 84.12 90.49 84.28 91.64 84.29 92.8 84.13 93.94 83.83 95.06 83.37 96.13 82.78 97.12 82.06 98.03 81.22 98.83 80.28 99.51 79.26 100.06 78.18 100.47"/><polyline id="background-27" data-name="background" class="cls-7" points="79.14 99.97 80.56 99.41 81.88 98.66 83.09 97.75 84.17 96.68 85.1 95.47 85.85 94.15 86.42 92.74 86.79 91.27 86.96 89.76 86.93 88.24 86.69 86.74 86.26 85.28 85.63 83.9 84.82 82.61 83.84 81.45 82.72 80.42 81.47 79.56 75.67 76.58 74.72 75.93 73.86 75.15 73.11 74.26 72.49 73.28 72.01 72.23 71.67 71.12 71.49 69.98 71.46 68.82 71.59 67.67 71.87 66.54 75.97 56.64 76.48 55.4 74 54.38 73.49 55.62 69.4 65.52 69 66.99 68.81 68.49 68.81 70.01 69.03 71.52 69.44 72.98 70.05 74.37 70.83 75.67 71.79 76.85 72.9 77.89 74.14 78.78 80.24 81.94 81.18 82.62 82.02 83.41 82.75 84.32 83.35 85.31 83.81 86.37 84.12 87.49 84.28 88.64 84.29 89.8 84.13 90.94 83.83 92.06 83.37 93.13 82.78 94.12 82.06 95.03 81.22 95.83 80.28 96.51 79.26 97.06 78.18 97.47"/></g><g id="section-12" data-name="section"><path id="background-28" data-name="background" class="cls-12" d="M40.94,62.17l.93,27,.27,1.49.46,1.45.66,1.37.84,1.27,1,1.14,1.14,1,1.27.84,1.37.66,1.44.47,25.19,4.72a8.05,8.05,0,0,0,3.63-.56l-1-2.5a6.41,6.41,0,0,1-2.53.39L50.82,96.17l-1.1-.37-1-.52-1-.66-.86-.78L46.13,93l-.62-1-.48-1-.34-1.11-.18-1.14-.89-26.59"/><path id="background-29" data-name="background" class="cls-13" d="M40.94,59.17l.93,27,.27,1.49.46,1.45.66,1.37.84,1.27,1,1.14,1.14,1,1.27.84,1.37.66,1.44.47,25.19,4.72a8.05,8.05,0,0,0,3.63-.56l-1-2.5a6.41,6.41,0,0,1-2.53.39L50.82,93.17l-1.1-.37-1-.52-1-.66-.86-.78L46.13,90l-.62-1-.48-1-.34-1.11-.18-1.14-.89-26.59"/></g><g id="background-30" data-name="background"><polyline class="cls-8" points="64.84 95.36 66.29 94.92 67.68 94.29 68.96 93.48 70.12 92.5 71.15 91.38 72.01 90.12 72.69 88.77 73.19 87.33 75.86 74.39 76.23 73.29 76.75 72.26 77.41 71.3 89.33 58.36 90.19 57.11 90.87 55.75 91.36 54.32 91.66 52.83 91.76 51.31 91.64 49.79 91.33 48.31 90.82 46.88 90.12 45.53 89.24 44.28 88.21 43.17 87.03 42.21 85.74 41.41 84.35 40.8 82.89 40.37 81.39 40.15 79.87 40.13 78.36 40.32 76.89 40.71 77.9 43.19 79.02 42.92 80.17 42.8 81.33 42.83 82.48 43.02 83.58 43.36 84.64 43.85 85.61 44.48 86.49 45.23 87.27 46.09 87.92 47.05 88.43 48.09 88.8 49.19 89.02 50.33 89.08 51.48 88.99 52.64 88.74 53.77 88.34 54.86 87.8 55.88 87.13 56.83 75.44 69.48 74.56 70.72 73.85 72.07 73.33 73.5 70.56 86.78 70.17 87.87 69.62 88.9 68.95 89.84 68.16 90.68 67.25 91.41 66.26 92.01 65.2 92.47 64.08 92.79"/><polyline class="cls-10" points="64.84 95.36 66.29 94.92 67.68 94.29 68.96 93.48 70.12 92.5 71.15 91.38 72.01 90.12 72.69 88.77 73.19 87.33 75.86 74.39 76.23 73.29 76.75 72.26 77.41 71.3 89.33 58.36 90.19 57.11 90.87 55.75 91.36 54.32 91.66 52.83 91.76 51.31 91.64 49.79 91.33 48.31 90.82 46.88 90.12 45.53 89.24 44.28 88.21 43.17 87.03 42.21 85.74 41.41 84.35 40.8 82.89 40.37 81.39 40.15 79.87 40.13 78.36 40.32 76.89 40.71 77.9 43.19 79.02 42.92 80.17 42.8 81.33 42.83 82.48 43.02 83.58 43.36 84.64 43.85 85.61 44.48 86.49 45.23 87.27 46.09 87.92 47.05 88.43 48.09 88.8 49.19 89.02 50.33 89.08 51.48 88.99 52.64 88.74 53.77 88.34 54.86 87.8 55.88 87.13 56.83 75.44 69.48 74.56 70.72 73.85 72.07 73.33 73.5 70.56 86.78 70.17 87.87 69.62 88.9 68.95 89.84 68.16 90.68 67.25 91.41 66.26 92.01 65.2 92.47 64.08 92.79"/><polyline class="cls-9" points="64.84 92.36 66.29 91.92 67.68 91.29 68.96 90.48 70.12 89.5 71.15 88.38 72.01 87.12 72.69 85.77 73.19 84.33 75.86 71.39 76.23 70.29 76.75 69.26 77.41 68.3 89.33 55.36 90.19 54.11 90.87 52.75 91.36 51.32 91.66 49.83 91.76 48.31 91.64 46.79 91.33 45.31 90.82 43.88 90.12 42.53 89.24 41.28 88.21 40.17 87.03 39.21 85.74 38.41 84.35 37.8 82.89 37.37 81.39 37.15 79.87 37.13 78.36 37.32 76.89 37.71 77.9 40.19 79.02 39.92 80.17 39.8 81.33 39.83 82.48 40.02 83.58 40.36 84.64 40.85 85.61 41.48 86.49 42.23 87.27 43.09 87.92 44.05 88.43 45.09 88.8 46.19 89.02 47.33 89.08 48.48 88.99 49.64 88.74 50.77 88.34 51.86 87.8 52.88 87.13 53.83 75.44 66.48 74.56 67.72 73.85 69.07 73.33 70.5 70.56 83.78 70.17 84.87 69.62 85.9 68.95 86.84 68.16 87.68 67.25 88.41 66.26 89.01 65.2 89.47 64.08 89.79"/><polyline class="cls-11" points="64.84 92.36 66.29 91.92 67.68 91.29 68.96 90.48 70.12 89.5 71.15 88.38 72.01 87.12 72.69 85.77 73.19 84.33 75.86 71.39 76.23 70.29 76.75 69.26 77.41 68.3 89.33 55.36 90.19 54.11 90.87 52.75 91.36 51.32 91.66 49.83 91.76 48.31 91.64 46.79 91.33 45.31 90.82 43.88 90.12 42.53 89.24 41.28 88.21 40.17 87.03 39.21 85.74 38.41 84.35 37.8 82.89 37.37 81.39 37.15 79.87 37.13 78.36 37.32 76.89 37.71 77.9 40.19 79.02 39.92 80.17 39.8 81.33 39.83 82.48 40.02 83.58 40.36 84.64 40.85 85.61 41.48 86.49 42.23 87.27 43.09 87.92 44.05 88.43 45.09 88.8 46.19 89.02 47.33 89.08 48.48 88.99 49.64 88.74 50.77 88.34 51.86 87.8 52.88 87.13 53.83 75.44 66.48 74.56 67.72 73.85 69.07 73.33 70.5 70.56 83.78 70.17 84.87 69.62 85.9 68.95 86.84 68.16 87.68 67.25 88.41 66.26 89.01 65.2 89.47 64.08 89.79"/></g><g id="section-13" data-name="section"><polyline id="background-31" data-name="background" class="cls-6" points="100 42.05 100.28 43.18 100.41 44.33 100.39 45.49 100.2 46.63 99.86 47.74 99.38 48.79 98.76 49.77 98.01 50.66 97.16 51.44 96.2 52.09 95.16 52.61 94.07 52.99 92.93 53.21 91.77 53.28 90.62 53.2 89.48 52.95 88.39 52.56 86.42 51.36 86.42 51.36 77.43 43.38 75.08 44.53 84.57 53.3 85.8 54.2 87.13 54.92 88.55 55.47 90.03 55.81 91.54 55.95 93.06 55.89 94.56 55.62 96 55.16 97.38 54.5 98.64 53.66 99.79 52.66 100.79 51.52 101.63 50.25 102.29 48.88 102.75 47.44 103.02 45.94 103.09 44.42 102.95 42.91 102.61 41.43"/><polyline id="background-32" data-name="background" class="cls-7" points="100 39.05 100.28 40.18 100.41 41.33 100.39 42.49 100.2 43.63 99.86 44.74 99.38 45.79 98.76 46.77 98.01 47.66 97.16 48.44 96.2 49.09 95.16 49.61 94.07 49.99 92.93 50.21 91.77 50.28 90.62 50.2 89.48 49.95 88.39 49.56 86.42 48.36 86.42 48.36 77.43 40.38 75.08 41.53 84.57 50.3 85.8 51.2 87.13 51.92 88.55 52.47 90.03 52.81 91.54 52.95 93.06 52.89 94.56 52.62 96 52.16 97.38 51.5 98.64 50.66 99.79 49.66 100.79 48.52 101.63 47.25 102.29 45.88 102.75 44.44 103.02 42.94 103.09 41.42 102.95 39.91 102.61 38.43"/></g><g id="section-14" data-name="section"><polyline id="background-33" data-name="background" class="cls-6" points="50.53 104.92 56.78 98.72 57.67 97.97 58.65 97.35 59.7 96.87 63.55 95.74 64.84 95.36 64.08 92.79 62.8 93.17 58.94 94.3 57.55 94.91 56.26 95.7 55.08 96.66 48.57 103.1"/><polyline id="background-34" data-name="background" class="cls-7" points="50.53 101.92 56.78 95.72 57.67 94.97 58.65 94.35 59.7 93.87 63.55 92.74 64.84 92.36 64.08 89.79 62.8 90.17 58.94 91.3 57.55 91.91 56.26 92.7 55.08 93.66 48.57 100.1"/></g><g id="background-35" data-name="background"><path class="cls-8" d="M79.87,40.14l-1.51.18-1.47.39-12.41,5-1.24.51L50,51.68l.66,2.59,13.55-5.53,1.24-.51,12.41-5L79,42.92l1.15-.12a8.84,8.84,0,0,1,2.73.35"/><path class="cls-10" d="M79.87,40.14l-1.51.18-1.47.39-12.41,5-1.24.51L50,51.68l.66,2.59,13.55-5.53,1.24-.51,12.41-5L79,42.92l1.15-.12a8.84,8.84,0,0,1,2.73.35"/><path class="cls-9" d="M79.87,37.14l-1.51.18-1.47.39-12.41,5-1.24.51L50,48.68l.66,2.59,13.55-5.53,1.24-.51,12.41-5L79,39.92l1.15-.12a8.84,8.84,0,0,1,2.73.35"/><path class="cls-11" d="M79.87,37.14l-1.51.18-1.47.39-12.41,5-1.24.51L50,48.68l.66,2.59,13.55-5.53,1.24-.51,12.41-5L79,39.92l1.15-.12a8.84,8.84,0,0,1,2.73.35"/></g></g><g class="cls-14"><path d="M135.3,94.19a2.12,2.12,0,0,1,1.82-1,2.07,2.07,0,0,1,1.08.3,2.12,2.12,0,0,1,.73,2.9,2.09,2.09,0,0,1-1.81,1,2.21,2.21,0,0,1-1.09-.3,2.11,2.11,0,0,1-1-1.3A2.09,2.09,0,0,1,135.3,94.19Zm12.6,22.36a2.07,2.07,0,0,1-1.37.51,2.11,2.11,0,0,1-1.38-3.71,2.08,2.08,0,0,1,1.38-.52,2.13,2.13,0,0,1,2.11,2.28A2.14,2.14,0,0,1,147.9,116.55Z"/><path d="M127,48.07l.21,0Z"/><path d="M138.38,57.71a2.11,2.11,0,0,1,.67-.66,2.2,2.2,0,0,1,1.12-.31,2.11,2.11,0,1,1,0,4.22,2.11,2.11,0,0,1-1.78-3.25Zm6.38-20.18a2.14,2.14,0,0,1-2.91.65l-.1-.06a2.11,2.11,0,0,1,2.35-3.51,2.16,2.16,0,0,1,.94,1.33A2.12,2.12,0,0,1,144.76,37.53Z"/><path d="M161.53,49.12a2.11,2.11,0,1,1,3.56,2.26,2.14,2.14,0,0,1-2.91.66l-.1-.07A2.1,2.1,0,0,1,161.53,49.12Zm0,23.47a2.11,2.11,0,0,1,2.9-.66,2.11,2.11,0,1,1-2.25,3.57l-.1-.06A2.1,2.1,0,0,1,161.53,72.59Zm0,26.3a2.09,2.09,0,0,1,1.78-1,2,2,0,0,1,1.12.33,2.07,2.07,0,0,1,.94,1.33,2.1,2.1,0,0,1-.28,1.58,2.14,2.14,0,0,1-2.91.65l-.1-.06A2.1,2.1,0,0,1,161.53,98.89Z"/><path d="M151.18,108.56a6.12,6.12,0,0,0-10.72,4.74,20,20,0,0,1-5.33,1.33,4.11,4.11,0,0,1-2.22-1,10.63,10.63,0,0,0-4.15-1.85A37.66,37.66,0,0,0,137.34,99a6.12,6.12,0,0,0,2.91-11.37,6,6,0,0,0-3.13-.86,6.15,6.15,0,0,0-5.26,3,6.13,6.13,0,0,0,1.62,8.07c-4,9.21-9.21,13.08-12.56,14.68a2,2,0,0,0-.36.17,11.77,11.77,0,0,1-2.56.81v4a12.57,12.57,0,0,0,4.25-1.2c5.34-1.35,6.84-.35,8.4.71a7.86,7.86,0,0,0,4.27,1.66h.31a23.69,23.69,0,0,0,7-1.72,6.14,6.14,0,0,0,4.28,1.75h0a6.13,6.13,0,0,0,4.65-10.11ZM135.3,91.79a2.11,2.11,0,0,1,1.82-1,2.17,2.17,0,0,1,1.08.3,2.12,2.12,0,0,1,.73,2.9,2.07,2.07,0,0,1-1.81,1,2.11,2.11,0,0,1-2.05-1.59A2.08,2.08,0,0,1,135.3,91.79Zm12.6,22.36a2.07,2.07,0,0,1-1.37.51,2.11,2.11,0,1,1,2.11-2A2.14,2.14,0,0,1,147.9,114.15Z"/><path d="M127,45.66l.21.05Z"/><path d="M149,32.66a6.12,6.12,0,1,0-11,4.82A13.34,13.34,0,0,1,128,41.77a29.12,29.12,0,0,0-10-2.31v4a25,25,0,0,1,8.75,2.14h0a21.63,21.63,0,0,1,8.61,7c-.14.18-.26.36-.38.54a6.12,6.12,0,1,0,8.45-1.91,6.23,6.23,0,0,0-4.67-.75,25.77,25.77,0,0,0-5.35-5.57,16.34,16.34,0,0,0,7.78-5.09,6.27,6.27,0,0,0,1.77.26,6.12,6.12,0,0,0,6-7.45ZM138.38,55.31a2,2,0,0,1,.67-.66,2.11,2.11,0,0,1,1.12-.32,2.12,2.12,0,1,1,0,4.23,2,2,0,0,1-1.12-.33A2.12,2.12,0,0,1,138.38,55.31Zm6.38-20.19a2.14,2.14,0,0,1-2.91.65l-.1-.06A2.11,2.11,0,0,1,143,31.88a2,2,0,0,1,1.12.33,2.1,2.1,0,0,1,.66,2.91Z"/><path d="M157.65,73.64a5.94,5.94,0,0,0,2.1,2.65l.29.2a6.12,6.12,0,1,0,3.27-11.3l-.38,0A25.63,25.63,0,0,1,163,54l.34,0a6.12,6.12,0,0,0,3.26-11.3,6.18,6.18,0,0,0-3.26-.94,6.12,6.12,0,0,0-4.15,10.61l.07.06a28.63,28.63,0,0,0,0,14.42,4.07,4.07,0,0,0-.43.4,5.58,5.58,0,0,0-.63.82,6,6,0,0,0-.71,1.58,15.21,15.21,0,0,0-6.83,2.73c-2,1.33-4,2.57-9.63,2.67a32.82,32.82,0,0,0-5.29-.12c-1.43,0-2.91.11-4.85,0-1.34-.07-2.11-.88-3.46-2.42-1.8-2.06-4.22-4.65-9.37-5v4c3.29.3,4.8,1.88,6.36,3.66s3.17,3.62,6.25,3.79c2.12.11,3.76,0,5.21,0a24.43,24.43,0,0,1,7.86.68c2.6.64,12.09,9.67,14.77,14.32a4.37,4.37,0,0,0-.31.44,6.1,6.1,0,0,0,1.61,8.25l.29.19a6.12,6.12,0,1,0,3.27-11.29,6,6,0,0,0-1.54.19c-2.56-4.18-8.66-10.45-13.19-13.79a18,18,0,0,0,4.21-2.19A11.33,11.33,0,0,1,157.65,73.64Zm3.88-26.92a2.11,2.11,0,0,1,2.9-.66,2.11,2.11,0,1,1-2.25,3.57l-.1-.06A2.1,2.1,0,0,1,161.53,46.72Zm0,23.46a2.09,2.09,0,0,1,1.78-1,2,2,0,0,1,1.12.33,2.07,2.07,0,0,1,.94,1.33,2.1,2.1,0,0,1-.28,1.58,2.14,2.14,0,0,1-2.91.65l-.1-.06A2.1,2.1,0,0,1,161.53,70.18Zm0,26.31a2.11,2.11,0,0,1,2.9-.66,2.11,2.11,0,0,1,.66,2.92,2.14,2.14,0,0,1-2.91.65l-.1-.06A2.1,2.1,0,0,1,161.53,96.49Z"/></g><path class="cls-15" d="M151.18,111.56a6.12,6.12,0,0,0-10.72,4.74,20,20,0,0,1-5.33,1.33,4.11,4.11,0,0,1-2.22-1,10.63,10.63,0,0,0-4.15-1.85A37.66,37.66,0,0,0,137.34,102a6.12,6.12,0,0,0,2.91-11.37,6,6,0,0,0-3.13-.86,6.15,6.15,0,0,0-5.26,3,6.13,6.13,0,0,0,1.62,8.07c-4,9.21-9.21,13.08-12.56,14.68a2,2,0,0,0-.36.17,11.77,11.77,0,0,1-2.56.81v4a12.57,12.57,0,0,0,4.25-1.2c5.34-1.35,6.84-.35,8.4.71a7.86,7.86,0,0,0,4.27,1.66h.31a23.69,23.69,0,0,0,7-1.72,6.14,6.14,0,0,0,4.28,1.75h0a6.13,6.13,0,0,0,4.65-10.11ZM135.3,94.79a2.11,2.11,0,0,1,1.82-1,2.17,2.17,0,0,1,1.08.3,2.12,2.12,0,0,1,.73,2.9,2.07,2.07,0,0,1-1.81,1,2.11,2.11,0,0,1-2.05-1.59A2.08,2.08,0,0,1,135.3,94.79Zm12.6,22.36a2.07,2.07,0,0,1-1.37.51,2.11,2.11,0,1,1,2.11-2A2.14,2.14,0,0,1,147.9,117.15Z"/><path d="M127,48.07l.21,0Z"/><path class="cls-15" d="M149,34.67a6.12,6.12,0,1,0-11,4.82A13.38,13.38,0,0,1,128,43.78a28.93,28.93,0,0,0-10-2.32v4a24.75,24.75,0,0,1,8.75,2.13h0a21.54,21.54,0,0,1,8.61,7,5.22,5.22,0,0,0-.38.54,6.12,6.12,0,1,0,8.45-1.91,6.24,6.24,0,0,0-4.67-.76A26,26,0,0,0,133.42,47a16.29,16.29,0,0,0,7.78-5.1,6.28,6.28,0,0,0,1.77.27,6.12,6.12,0,0,0,6-7.45ZM138.38,57.31a2.13,2.13,0,0,1,1.79-1,2.16,2.16,0,0,1,1.13.33,2.13,2.13,0,0,1,.66,2.92,2.15,2.15,0,0,1-1.8,1,2.11,2.11,0,0,1-1.78-3.25Zm6.38-20.19a2.13,2.13,0,0,1-2.91.66l-.1-.06A2.11,2.11,0,1,1,145,35.54,2.09,2.09,0,0,1,144.76,37.12Z"/><path class="cls-15" d="M157.65,76.64a5.94,5.94,0,0,0,2.1,2.65l.29.2a6.12,6.12,0,1,0,3.27-11.3l-.38,0A25.63,25.63,0,0,1,163,57l.34,0a6.12,6.12,0,0,0,3.26-11.3,6.18,6.18,0,0,0-3.26-.94,6.12,6.12,0,0,0-4.15,10.61l.07.06a28.63,28.63,0,0,0,0,14.42,4.07,4.07,0,0,0-.43.4,5.58,5.58,0,0,0-.63.82,6,6,0,0,0-.71,1.58,15.21,15.21,0,0,0-6.83,2.73c-2,1.33-4,2.57-9.63,2.67a32.82,32.82,0,0,0-5.29-.12c-1.43,0-2.91.11-4.85,0-1.34-.07-2.11-.88-3.46-2.42-1.8-2.06-4.22-4.65-9.37-5v4c3.29.3,4.8,1.88,6.36,3.66s3.17,3.62,6.25,3.79c2.12.11,3.76,0,5.21,0a24.43,24.43,0,0,1,7.86.68c2.6.64,12.09,9.67,14.77,14.32a4.37,4.37,0,0,0-.31.44,6.1,6.1,0,0,0,1.61,8.25l.29.19a6.12,6.12,0,1,0,3.27-11.29,6,6,0,0,0-1.54.19c-2.56-4.18-8.66-10.45-13.19-13.79a18,18,0,0,0,4.21-2.19A11.33,11.33,0,0,1,157.65,76.64Zm3.88-26.92a2.11,2.11,0,0,1,2.9-.66,2.11,2.11,0,1,1-2.25,3.57l-.1-.06A2.1,2.1,0,0,1,161.53,49.72Zm0,23.46a2.09,2.09,0,0,1,1.78-1,2,2,0,0,1,1.12.33,2.07,2.07,0,0,1,.94,1.33,2.1,2.1,0,0,1-.28,1.58,2.14,2.14,0,0,1-2.91.65l-.1-.06A2.1,2.1,0,0,1,161.53,73.18Zm0,26.31a2.11,2.11,0,0,1,2.9-.66,2.11,2.11,0,0,1,.66,2.92,2.14,2.14,0,0,1-2.91.65l-.1-.06A2.1,2.1,0,0,1,161.53,99.49Z"/><path class="cls-9" d="M151.18,108.56a6.12,6.12,0,0,0-10.72,4.74,20,20,0,0,1-5.33,1.33,4.11,4.11,0,0,1-2.22-1,10.63,10.63,0,0,0-4.15-1.85A37.66,37.66,0,0,0,137.34,99a6.12,6.12,0,0,0,2.91-11.37,6,6,0,0,0-3.13-.86,6.15,6.15,0,0,0-5.26,3,6.13,6.13,0,0,0,1.62,8.07c-4,9.21-9.21,13.08-12.56,14.68a2,2,0,0,0-.36.17,11.77,11.77,0,0,1-2.56.81v4a12.57,12.57,0,0,0,4.25-1.2c5.34-1.35,6.84-.35,8.4.71a7.86,7.86,0,0,0,4.27,1.66h.31a23.69,23.69,0,0,0,7-1.72,6.14,6.14,0,0,0,4.28,1.75h0a6.13,6.13,0,0,0,4.65-10.11ZM135.3,91.79a2.11,2.11,0,0,1,1.82-1,2.17,2.17,0,0,1,1.08.3,2.12,2.12,0,0,1,.73,2.9,2.07,2.07,0,0,1-1.81,1,2.11,2.11,0,0,1-2.05-1.59A2.08,2.08,0,0,1,135.3,91.79Zm12.6,22.36a2.07,2.07,0,0,1-1.37.51,2.11,2.11,0,1,1,2.11-2A2.14,2.14,0,0,1,147.9,114.15Z"/><path class="cls-9" d="M127,45.66l.21.05Z"/><path class="cls-9" d="M149,32.66a6.12,6.12,0,1,0-11,4.82A13.34,13.34,0,0,1,128,41.77a29.12,29.12,0,0,0-10-2.31v4a25,25,0,0,1,8.75,2.14h0a21.63,21.63,0,0,1,8.61,7c-.14.18-.26.36-.38.54a6.12,6.12,0,1,0,8.45-1.91,6.23,6.23,0,0,0-4.67-.75,25.77,25.77,0,0,0-5.35-5.57,16.34,16.34,0,0,0,7.78-5.09,6.27,6.27,0,0,0,1.77.26,6.12,6.12,0,0,0,6-7.45ZM138.38,55.31a2,2,0,0,1,.67-.66,2.11,2.11,0,0,1,1.12-.32,2.12,2.12,0,1,1,0,4.23,2,2,0,0,1-1.12-.33A2.12,2.12,0,0,1,138.38,55.31Zm6.38-20.19a2.14,2.14,0,0,1-2.91.65l-.1-.06A2.11,2.11,0,0,1,143,31.88a2,2,0,0,1,1.12.33,2.1,2.1,0,0,1,.66,2.91Z"/><path class="cls-9" d="M157.65,73.64a5.94,5.94,0,0,0,2.1,2.65l.29.2a6.12,6.12,0,1,0,3.27-11.3l-.38,0A25.63,25.63,0,0,1,163,54l.34,0a6.12,6.12,0,0,0,3.26-11.3,6.18,6.18,0,0,0-3.26-.94,6.12,6.12,0,0,0-4.15,10.61l.07.06a28.63,28.63,0,0,0,0,14.42,4.07,4.07,0,0,0-.43.4,5.58,5.58,0,0,0-.63.82,6,6,0,0,0-.71,1.58,15.21,15.21,0,0,0-6.83,2.73c-2,1.33-4,2.57-9.63,2.67a32.82,32.82,0,0,0-5.29-.12c-1.43,0-2.91.11-4.85,0-1.34-.07-2.11-.88-3.46-2.42-1.8-2.06-4.22-4.65-9.37-5v4c3.29.3,4.8,1.88,6.36,3.66s3.17,3.62,6.25,3.79c2.12.11,3.76,0,5.21,0a24.43,24.43,0,0,1,7.86.68c2.6.64,12.09,9.67,14.77,14.32a4.37,4.37,0,0,0-.31.44,6.1,6.1,0,0,0,1.61,8.25l.29.19a6.12,6.12,0,1,0,3.27-11.29,6,6,0,0,0-1.54.19c-2.56-4.18-8.66-10.45-13.19-13.79a18,18,0,0,0,4.21-2.19A11.33,11.33,0,0,1,157.65,73.64Zm3.88-26.92a2.11,2.11,0,0,1,2.9-.66,2.11,2.11,0,1,1-2.25,3.57l-.1-.06A2.1,2.1,0,0,1,161.53,46.72Zm0,23.46a2.09,2.09,0,0,1,1.78-1,2,2,0,0,1,1.12.33,2.07,2.07,0,0,1,.94,1.33,2.1,2.1,0,0,1-.28,1.58,2.14,2.14,0,0,1-2.91.65l-.1-.06A2.1,2.1,0,0,1,161.53,70.18Zm0,26.31a2.11,2.11,0,0,1,2.9-.66,2.11,2.11,0,0,1,.66,2.92,2.14,2.14,0,0,1-2.91.65l-.1-.06A2.1,2.1,0,0,1,161.53,96.49Z"/><path class="cls-4" d="M25.35,161.85,35,198.5l9.66-36.65H62.15v54.61H48.84V205.58l1.26-25.4L39.37,216.46H30.6l-10.68-36.1,1.26,25.22v10.88H7.92V161.85Z"/><path class="cls-4" d="M89.8,217.32q-9.4,0-14.67-5.61t-5.26-16V192q0-11,4.83-17t13.84-6q8.8,0,13.24,5.62t4.53,16.65v6H82q.27,5.2,2.29,7.6c1.35,1.6,3.43,2.41,6.25,2.41A13.72,13.72,0,0,0,100.79,203l4.79,7.38a15.83,15.83,0,0,1-6.51,5A22.36,22.36,0,0,1,89.8,217.32Zm-7.68-28.63h12.2v-1.13a12.84,12.84,0,0,0-1.38-6.33q-1.29-2.16-4.48-2.16a5.09,5.09,0,0,0-4.64,2.28C82.86,182.88,82.29,185.32,82.12,188.69Z"/><path class="cls-4" d="M133.87,204a3.84,3.84,0,0,0-1.49-2.87,29.53,29.53,0,0,0-6.62-3.55q-7.55-3.06-10.37-6.34a12.07,12.07,0,0,1-2.83-8.15A13.06,13.06,0,0,1,117,172.92q4.42-4,11.71-4,7.68,0,12.29,4a13.34,13.34,0,0,1,4.62,10.65H133.39q0-5.69-4.74-5.69a4.38,4.38,0,0,0-3.19,1.21,4.43,4.43,0,0,0-1.25,3.36,3.53,3.53,0,0,0,1.38,2.74,30.5,30.5,0,0,0,6.51,3.39q7.46,2.76,10.54,6.14a12.52,12.52,0,0,1,3.09,8.78,12.25,12.25,0,0,1-4.7,10q-4.71,3.79-12.34,3.8a19.56,19.56,0,0,1-9-2,15.11,15.11,0,0,1-6.15-5.58,14.39,14.39,0,0,1-2.22-7.72h11.6a7.39,7.39,0,0,0,1.49,4.79q1.4,1.59,4.59,1.59Q133.87,208.39,133.87,204Z"/><path class="cls-4" d="M174,204a3.8,3.8,0,0,0-1.49-2.87,29.28,29.28,0,0,0-6.62-3.55q-7.55-3.06-10.37-6.34a12.06,12.06,0,0,1-2.82-8.15,13,13,0,0,1,4.42-10.12q4.42-4,11.71-4,7.66,0,12.29,4a13.36,13.36,0,0,1,4.61,10.65H173.5q0-5.69-4.75-5.69a4.4,4.4,0,0,0-3.19,1.21,4.47,4.47,0,0,0-1.25,3.36,3.53,3.53,0,0,0,1.38,2.74,30.5,30.5,0,0,0,6.51,3.39q7.47,2.76,10.55,6.14a12.56,12.56,0,0,1,3.08,8.78,12.25,12.25,0,0,1-4.7,10q-4.69,3.79-12.33,3.8a19.63,19.63,0,0,1-9.06-2,15.08,15.08,0,0,1-6.14-5.58,14.39,14.39,0,0,1-2.22-7.72H163a7.39,7.39,0,0,0,1.48,4.79q1.41,1.59,4.6,1.59Q174,208.39,174,204Z"/><path class="cls-4" d="M208.38,196.15l6.21-26.35h13l-15.35,53.64q-3.47,11.87-13,11.86a18,18,0,0,1-5-.82V225l1.43.05a7.07,7.07,0,0,0,4.29-1.1,6.89,6.89,0,0,0,2.17-3.82l1-3.15L189.67,169.8h13.11Z"/><path class="cls-3" d="M9.18,285.46V230.85H27.74q9.57,0,14.6,3.87c3.36,2.57,5,6.32,5,11.22a14,14,0,0,1-1.83,7.27,10.72,10.72,0,0,1-5.39,4.54,10.45,10.45,0,0,1,6,4.29,13.73,13.73,0,0,1,2.1,7.76q0,8.16-4.73,11.91t-14.25,3.75Zm13.26-31.92h6.38c3.53-.1,5.3-2,5.3-5.63,0-2.16-.44-3.69-1.32-4.62a5.32,5.32,0,0,0-4-1.38H22.44Zm0,9.23v11.77h6.8A5.69,5.69,0,0,0,33.48,273,5.62,5.62,0,0,0,35,268.89q0-5.92-4.78-6.12Z"/><path class="cls-3" d="M79.35,250.57l-4-.34q-5,0-6.77,4.39v30.84H56.28V238.8H67.79l.35,5q2.88-5.91,8-5.91a8.39,8.39,0,0,1,3.36.57Z"/><path class="cls-3" d="M106.47,285.46a17.17,17.17,0,0,1-1-3.63,10.42,10.42,0,0,1-8.88,4.49,13.14,13.14,0,0,1-9.73-3.88A13.66,13.66,0,0,1,83,272.39q0-7.33,4.68-11.34t13.48-4.1h3.71V253.2q0-3.15-1.08-4.44a3.88,3.88,0,0,0-3.15-1.3c-3,0-4.57,1.79-4.57,5.35H83.83a13.49,13.49,0,0,1,4.86-10.67A18.06,18.06,0,0,1,101,237.93q7.68,0,11.88,4T117,253.33v21.95a23,23,0,0,0,1.72,9.44v.74Zm-7.2-8.71a6.88,6.88,0,0,0,3.45-.82,5.91,5.91,0,0,0,2.12-1.94v-9.71H101.9a6.26,6.26,0,0,0-4.89,2,7.62,7.62,0,0,0-1.79,5.3Q95.22,276.75,99.27,276.75Z"/><path class="cls-3" d="M125.88,226.72a6.28,6.28,0,0,1,1.81-4.65,7.32,7.32,0,0,1,9.66,0,6.28,6.28,0,0,1,1.81,4.65,6.64,6.64,0,1,1-13.28,0Zm12.81,58.74H126.44V238.8h12.25Z"/><path class="cls-3" d="M159.3,238.8l.35,4.61a12.94,12.94,0,0,1,10.82-5.48q12,0,12.38,16.87v30.66H170.6V255.7q0-4-1.19-5.75c-.79-1.2-2.17-1.79-4.16-1.79-2.21,0-3.94,1.13-5.17,3.4v33.9H147.83V238.8Z"/><path class="cls-3" d="M205.1,275.32h18.46v10.14H190.61v-7.64l18-28.85H191V238.8H223.3v7.37Z"/></g></g></svg>