<svg xmlns="http://www.w3.org/2000/svg" xmlns:xlink="http://www.w3.org/1999/xlink" viewBox="0 0 654 150"><defs><style>.cls-1,.cls-10,.cls-11{fill:none;}.cls-2{isolation:isolate;}.cls-3{fill:#eb743b;}.cls-4{fill:#b50437;}.cls-5{clip-path:url(#clip-path);}.cls-12,.cls-6,.cls-8{fill:#8e0324;}.cls-10,.cls-12,.cls-6{stroke:#8e0324;}.cls-10,.cls-11,.cls-12,.cls-13,.cls-6,.cls-7{stroke-width:1.5px;}.cls-13,.cls-7,.cls-9{fill:#fffedb;}.cls-11,.cls-13,.cls-7{stroke:#fffedb;}.cls-12,.cls-13{stroke-linecap:square;stroke-linejoin:round;}.cls-14{mix-blend-mode:multiply;opacity:0.07;}.cls-15{fill:#d3562c;}</style><clipPath id="clip-path"><polygon class="cls-1" points="7.68 108.93 7.68 40.72 63.68 8.51 63.68 141.01 7.68 108.93"/></clipPath></defs><g class="cls-2"><g id="Layer_1" data-name="Layer 1"><polygon class="cls-3" points="68.68 2.82 68.68 146.82 129.68 111.82 129.68 37.82 68.68 2.82"/><polygon class="cls-4" points="63.68 2.82 2.68 37.82 2.68 111.82 63.68 146.82 63.68 2.82"/><g class="cls-5"><g id="section"><polyline id="background" class="cls-6" points="1.77 45.35 0.85 46.06 0.03 46.88 -0.68 47.8 -1.25 48.8 -1.68 49.88 -1.96 51 -2.09 52.16 -2.06 53.31 -1.88 54.46 -1.54 55.57 -1.06 56.62 -0.44 57.6 0.31 58.49 1.17 59.27 2.12 59.92 3.16 60.44 4.25 60.82 5.39 61.04 6.55 61.11 7.7 61.03 8.84 60.79 9.93 60.4 10.96 59.86 11.9 59.19 12.75 58.4 13.48 57.51 14.09 56.52 14.56 55.46 14.87 53.8 15.22 52.51 17.8 53.22 17.45 54.51 17.14 56.17 16.55 57.57 15.78 58.88 14.84 60.08 13.75 61.13 12.52 62.03 11.19 62.76 9.77 63.3 8.29 63.64 6.77 63.78 5.26 63.72 3.76 63.45 2.31 62.98 0.94 62.33 -0.33 61.49 -1.47 60.49 -2.47 59.35 -3.31 58.08 -3.97 56.71 -4.43 55.26 -4.7 53.77 -4.77 52.25 -4.63 50.74 -4.28 49.26 -3.75 47.83 -3.02 46.5 -2.12 45.27 -1.07 44.18 0.13 43.24"/><polyline id="background-2" data-name="background" class="cls-7" points="1.77 42.35 0.85 43.06 0.03 43.88 -0.68 44.8 -1.25 45.8 -1.68 46.88 -1.96 48 -2.09 49.16 -2.06 50.31 -1.88 51.46 -1.54 52.57 -1.06 53.62 -0.44 54.6 0.31 55.49 1.17 56.27 2.12 56.92 3.16 57.44 4.25 57.82 5.39 58.04 6.55 58.11 7.7 58.03 8.84 57.79 9.93 57.4 10.96 56.86 11.9 56.19 12.75 55.4 13.48 54.51 14.09 53.52 14.56 52.46 14.87 50.8 15.22 49.51 17.8 50.22 17.45 51.51 17.14 53.17 16.55 54.57 15.78 55.88 14.84 57.08 13.75 58.13 12.52 59.03 11.19 59.76 9.77 60.3 8.29 60.64 6.77 60.78 5.26 60.72 3.76 60.45 2.31 59.98 0.94 59.33 -0.33 58.49 -1.47 57.49 -2.47 56.35 -3.31 55.08 -3.97 53.71 -4.43 52.26 -4.7 50.77 -4.77 49.25 -4.63 47.74 -4.28 46.26 -3.75 44.83 -3.02 43.5 -2.12 42.27 -1.07 41.18 0.13 40.24"/></g><g id="section-2" data-name="section"><polyline id="background-3" data-name="background" class="cls-6" points="14.87 58.09 15.89 56.96 16.75 55.71 17.44 54.35 17.93 52.91 18.23 51.42 18.32 49.91 18.21 48.39 17.9 46.9 17.38 45.47 16.68 44.12 15.81 42.88 14.77 41.77 13.6 40.8 12.3 40.01 10.91 39.39 9.46 38.97 7.95 38.75 -10.79 38.38 -12.13 38.36 -12.19 41.04 -10.85 41.06 7.9 41.43 9.04 41.62 10.15 41.96 11.2 42.45 12.18 43.08 13.06 43.83 13.83 44.69 14.48 45.65 15 46.69 15.37 47.79 15.59 48.92 15.65 50.08 15.56 51.24 15.31 52.37 14.91 53.46 14.37 54.48 13.7 55.42 12.9 56.27"/><polyline id="background-4" data-name="background" class="cls-7" points="14.87 55.09 15.89 53.96 16.75 52.71 17.44 51.35 17.93 49.91 18.23 48.42 18.32 46.91 18.21 45.39 17.9 43.9 17.38 42.47 16.68 41.12 15.81 39.88 14.77 38.77 13.6 37.8 12.3 37.01 10.91 36.39 9.46 35.97 7.95 35.75 -10.79 35.38 -12.13 35.36 -12.19 38.04 -10.85 38.06 7.9 38.43 9.04 38.62 10.15 38.96 11.2 39.45 12.18 40.08 13.06 40.83 13.83 41.69 14.48 42.65 15 43.69 15.37 44.79 15.59 45.92 15.65 47.08 15.56 48.24 15.31 49.37 14.91 50.46 14.37 51.48 13.7 52.42 12.9 53.27"/></g><polyline id="background-5" data-name="background" class="cls-8" points="44.04 77.8 44.25 77.64 44.47 77.49 44.7 77.34 44.94 77.19 46.19 76.47 46.48 76.31 46.79 76.16 47.12 76.01 47.49 75.87 47.78 75.76 47.99 75.69 48.09 75.66 48.19 75.63 48.3 75.6 48.41 75.57 48.53 75.53 48.65 75.5 48.78 75.47 50.74 75.03 50.91 75 51.09 74.96 51.28 74.93 51.47 74.9 51.68 74.88 51.89 74.85 52.11 74.83 52.35 74.82 52.59 74.81 68.06 74.81 68.68 74.81 68.68 70.82 68.06 70.82 52.59 70.83 52.24 70.84 51.91 70.86 51.59 70.88 51.28 70.91 50.99 70.95 50.7 70.99 50.44 71.03 50.18 71.08 49.93 71.13 47.91 71.59 47.72 71.63 47.54 71.68 47.38 71.72 47.21 71.77 47.06 71.81 46.91 71.86 46.77 71.9 46.52 71.99 46.15 72.12 45.67 72.31 45.2 72.51 44.75 72.72 44.33 72.95 42.96 73.73 42.61 73.94 42.27 74.16 41.96 74.38 41.67 74.6"/><polyline id="background-6" data-name="background" class="cls-9" points="44.04 74.8 44.25 74.64 44.47 74.49 44.7 74.34 44.94 74.19 46.19 73.47 46.48 73.31 46.79 73.16 47.12 73.01 47.49 72.87 47.78 72.76 47.99 72.69 48.09 72.66 48.19 72.63 48.3 72.6 48.41 72.57 48.53 72.53 48.65 72.5 48.78 72.47 50.74 72.03 50.91 72 51.09 71.96 51.28 71.93 51.47 71.9 51.68 71.88 51.89 71.85 52.11 71.83 52.35 71.82 52.59 71.81 68.06 71.81 68.68 71.81 68.68 67.82 68.06 67.82 52.59 67.83 52.24 67.84 51.91 67.86 51.59 67.88 51.28 67.91 50.99 67.95 50.7 67.99 50.44 68.03 50.18 68.08 49.93 68.13 47.91 68.59 47.72 68.63 47.54 68.68 47.38 68.72 47.21 68.77 47.06 68.81 46.91 68.86 46.77 68.9 46.52 68.99 46.15 69.12 45.67 69.31 45.2 69.51 44.75 69.72 44.33 69.95 42.96 70.73 42.61 70.94 42.27 71.16 41.96 71.38 41.67 71.6"/><polyline id="background-7" data-name="background" class="cls-8" points="40.98 81.21 41.01 81.14 41.05 81.07 41.09 80.99 41.14 80.92 41.19 80.83 41.24 80.75 41.29 80.67 41.34 80.58 41.4 80.48 41.47 80.39 41.53 80.29 41.6 80.19 41.68 80.09 41.76 79.98 41.84 79.87 41.93 79.75 42.03 79.64 42.13 79.52 42.23 79.39 42.35 79.27 42.47 79.14 42.6 79 42.74 78.87 42.88 78.73 43.04 78.59 43.2 78.45 43.37 78.3 43.56 78.16 43.8 77.98 44.04 77.8 41.67 74.6 41.42 74.78 41.18 74.96 40.92 75.17 40.67 75.37 40.43 75.58 40.21 75.78 40 75.97 39.8 76.17 39.62 76.36 39.44 76.54 39.28 76.72 39.12 76.9 38.98 77.07 38.84 77.24 38.71 77.4 38.59 77.56 38.48 77.72 38.37 77.86 38.27 78.01 38.17 78.15 38.08 78.29 38 78.42 37.92 78.55 37.84 78.67 37.77 78.79 37.7 78.9 37.64 79.01 37.58 79.12 37.52 79.22 37.47 79.32"/><polyline id="background-8" data-name="background" class="cls-9" points="40.98 78.21 41.01 78.14 41.05 78.07 41.09 77.99 41.14 77.92 41.19 77.83 41.24 77.75 41.29 77.67 41.34 77.58 41.4 77.48 41.47 77.39 41.53 77.29 41.6 77.19 41.68 77.09 41.76 76.98 41.84 76.87 41.93 76.75 42.03 76.64 42.13 76.52 42.23 76.39 42.35 76.27 42.47 76.14 42.6 76 42.74 75.87 42.88 75.73 43.04 75.59 43.2 75.45 43.37 75.3 43.56 75.16 43.8 74.98 44.04 74.8 41.67 71.6 41.42 71.78 41.18 71.96 40.92 72.17 40.67 72.37 40.43 72.58 40.21 72.78 40 72.97 39.8 73.17 39.62 73.36 39.44 73.54 39.28 73.72 39.12 73.9 38.98 74.07 38.84 74.24 38.71 74.4 38.59 74.56 38.48 74.72 38.37 74.86 38.27 75.01 38.17 75.15 38.08 75.29 38 75.42 37.92 75.55 37.84 75.67 37.77 75.79 37.7 75.9 37.64 76.01 37.58 76.12 37.52 76.22 37.47 76.32"/><g id="section-3" data-name="section"><polyline id="background-9" data-name="background" class="cls-6" points="-32.99 53.32 25.83 85.54 27.25 86.08 28.73 86.43 30.24 86.57 31.76 86.51 33.26 86.25 34.7 85.78 36.08 85.13 37.35 84.29 38.49 83.3 39.49 82.15 40.33 80.89 37.93 79.7 37.27 80.66 36.49 81.51 35.6 82.26 34.62 82.87 33.57 83.35 32.46 83.69 31.32 83.87 30.16 83.89 29 83.76 27.88 83.48 26.81 83.04 -31.68 50.98"/><polyline id="background-10" data-name="background" class="cls-7" points="-32.99 50.32 25.83 82.54 27.25 83.08 28.73 83.43 30.24 83.57 31.76 83.51 33.26 83.25 34.7 82.78 36.08 82.13 37.35 81.29 38.49 80.3 39.49 79.15 40.33 77.89 37.93 76.7 37.27 77.66 36.49 78.51 35.6 79.26 34.62 79.87 33.57 80.35 32.46 80.69 31.32 80.87 30.16 80.89 29 80.76 27.88 80.48 26.81 80.04 -31.68 47.98"/></g><g id="section-4" data-name="section"><path id="background-11" data-name="background" class="cls-6" d="M2,99.82l.94,5.46.47,1.44L4,108.09l.83,1.27,1,1.15,1.15,1,1.26.83,1.37.66,1.45.47,1.5.27,1.51.06,1.52-.14,1.48-.34,1.42-.54,1.33-.72c4.4-2.17,2.53-4.48,8.75-4.45l-.16-2.91c-5.31-.75-7.12,3.68-10.15,5.18l-1,.54-1.09.39-1.14.24-1.15.08-1.16-.07-1.14-.22-1.09-.38-1-.52-.95-.66-.86-.78-.75-.88-.61-1-.49-1.06-.33-1.11L1.52,92.32"/><path id="background-12" data-name="background" class="cls-7" d="M2,96.82l.94,5.46.47,1.44L4,105.09l.83,1.27,1,1.15,1.15,1,1.26.83,1.37.66,1.45.47,1.5.27,1.51.06,1.52-.14,1.48-.34,1.42-.54,1.33-.72c4.4-2.17,2.53-4.48,8.75-4.45l-.16-2.91c-5.31-.75-7.12,3.68-10.15,5.18l-1,.54-1.09.39-1.14.24-1.15.08-1.16-.07-1.14-.22-1.09-.38-1-.52-.95-.66-.86-.78-.75-.88-.61-1-.49-1.06-.33-1.11L1.52,89.32"/></g><g id="section-5" data-name="section"><polyline id="background-13" data-name="background" class="cls-6" points="28.43 104.7 29.85 105.24 31.18 105.97 32.41 106.87 33.5 107.92 34.44 109.11 35.21 110.42 35.8 111.83 36.2 113.29 36.39 114.8 36.38 116.32 36.16 117.82 35.75 119.28 35.14 120.68 34.34 121.97 33.39 123.15 32.28 124.19 31.04 125.07 29.69 125.78 28.26 126.3 26.78 126.61 25.26 126.73 6.72 125.8 5.56 125.88 4.43 126.13 3.34 126.52 2.31 127.05 1.36 127.72 -5.57 134.3 -6.8 135.18 -8.15 135.89 -9.58 136.4 -11.06 136.72 -12.58 136.84 -14.1 136.75 -15.59 136.46 -17.03 135.97 -18.39 135.29 -19.64 134.44 -20.77 133.42 -21.75 132.26 -22.57 130.98 -23.21 129.6 -23.65 128.15 -21.01 127.69 -20.65 128.8 -20.15 129.84 -19.51 130.8 -18.74 131.68 -17.87 132.43 -16.9 133.07 -15.85 133.57 -14.75 133.92 -13.61 134.12 -12.45 134.17 -11.29 134.06 -10.17 133.79 -9.08 133.38 -8.07 132.82 -7.13 132.13 -0.48 125.78 0.74 124.88 2.08 124.16 3.5 123.61 4.98 123.27 6.49 123.13 25.4 124.06 26.55 123.95 27.68 123.68 28.76 123.27 29.78 122.71 30.71 122.02 31.54 121.21 32.25 120.3 32.84 119.3 33.28 118.23 33.58 117.11 33.73 115.96 33.71 114.8 33.54 113.65 33.22 112.54 32.75 111.48 32.15 110.49 31.41 109.6 30.56 108.81 29.61 108.14 28.59 107.61 27.5 107.22"/><polyline id="background-14" data-name="background" class="cls-7" points="28.43 101.7 29.85 102.24 31.18 102.97 32.41 103.87 33.5 104.92 34.44 106.11 35.21 107.42 35.8 108.83 36.2 110.29 36.39 111.8 36.38 113.32 36.16 114.82 35.75 116.28 35.14 117.68 34.34 118.97 33.39 120.15 32.28 121.19 31.04 122.07 29.69 122.78 28.26 123.3 26.78 123.61 25.26 123.73 6.72 122.8 5.56 122.88 4.43 123.13 3.34 123.52 2.31 124.05 1.36 124.72 -5.57 131.3 -6.8 132.18 -8.15 132.89 -9.58 133.4 -11.06 133.72 -12.58 133.84 -14.1 133.75 -15.59 133.46 -17.03 132.97 -18.39 132.29 -19.64 131.44 -20.77 130.42 -21.75 129.26 -22.57 127.98 -23.21 126.6 -23.65 125.15 -21.01 124.69 -20.65 125.8 -20.15 126.84 -19.51 127.8 -18.74 128.68 -17.87 129.43 -16.9 130.07 -15.85 130.57 -14.75 130.92 -13.61 131.12 -12.45 131.17 -11.29 131.06 -10.17 130.79 -9.08 130.38 -8.07 129.82 -7.13 129.13 -0.48 122.78 0.74 121.88 2.08 121.16 3.5 120.61 4.98 120.27 6.49 120.13 25.4 121.06 26.55 120.95 27.68 120.68 28.76 120.27 29.78 119.71 30.71 119.02 31.54 118.21 32.25 117.3 32.84 116.3 33.28 115.23 33.58 114.11 33.73 112.96 33.71 111.8 33.54 110.65 33.22 109.54 32.75 108.48 32.15 107.49 31.41 106.6 30.56 105.81 29.61 105.14 28.59 104.61 27.5 104.22"/></g><g id="section-6" data-name="section"><polyline id="background-15" data-name="background" class="cls-6" points="-6.2 96.73 11.68 87.19 12.9 86.29 14 85.24 14.94 84.04 15.71 82.73 16.3 81.33 16.7 79.87 16.89 78.36 16.88 76.84 16.66 75.33 16.24 73.87 15.63 72.48 14.84 71.18 13.88 70 12.78 68.97 2.06 61.24 1.21 60.45 -0.88 62.12 0.21 63.18 11.21 71.14 12.04 71.94 12.75 72.86 13.34 73.86 13.78 74.93 14.08 76.05 14.22 77.2 14.21 78.36 14.04 79.5 13.72 80.62 13.25 81.68 12.64 82.66 11.91 83.56 11.06 84.35 10.11 85.02 -7.46 94.37"/><polyline id="background-16" data-name="background" class="cls-7" points="-6.2 93.73 11.68 84.19 12.9 83.29 14 82.24 14.94 81.04 15.71 79.73 16.3 78.33 16.7 76.87 16.89 75.36 16.88 73.84 16.66 72.33 16.24 70.87 15.63 69.48 14.84 68.18 13.88 67 12.78 65.97 2.06 58.24 1.21 57.45 -0.88 59.12 0.21 60.18 11.21 68.14 12.04 68.94 12.75 69.86 13.34 70.86 13.78 71.93 14.08 73.05 14.22 74.2 14.21 75.36 14.04 76.5 13.72 77.62 13.25 78.68 12.64 79.66 11.91 80.56 11.06 81.35 10.11 82.02 -7.46 91.37"/></g><g id="section-7" data-name="section"><polyline id="background-17" data-name="background" class="cls-6" points="45.53 139.61 37.49 121 36.69 119.71 35.73 118.53 34.62 117.5 33.37 116.62 32.03 115.92 30.6 115.41 29.11 115.09 27.59 114.98 26.08 115.07 24.59 115.37 23.15 115.86 21.79 116.54 20.54 117.4 19.41 118.42 10.83 128.47 9.98 129.25 11.47 131.47 12.62 130.47 21.45 120.16 22.32 119.4 23.29 118.76 24.33 118.26 25.44 117.91 26.58 117.7 27.73 117.65 28.89 117.76 30.02 118.02 31.1 118.44 32.12 118.99 33.05 119.67 33.89 120.48 34.6 121.39 35.19 122.39 43.08 140.67"/><polyline id="background-18" data-name="background" class="cls-7" points="45.53 136.61 37.49 118 36.69 116.71 35.73 115.53 34.62 114.5 33.37 113.62 32.03 112.92 30.6 112.41 29.11 112.09 27.59 111.98 26.08 112.07 24.59 112.37 23.15 112.86 21.79 113.54 20.54 114.4 19.41 115.42 10.83 125.47 9.98 126.25 11.47 128.47 12.62 127.47 21.45 117.16 22.32 116.4 23.29 115.76 24.33 115.26 25.44 114.91 26.58 114.7 27.73 114.65 28.89 114.76 30.02 115.02 31.1 115.44 32.12 115.99 33.05 116.67 33.89 117.48 34.6 118.39 35.19 119.39 43.08 137.67"/></g><g id="section-8" data-name="section"><polyline id="background-19" data-name="background" class="cls-6" points="-13.5 84.38 -12.35 84.19 -11.19 84.17 -10.04 84.29 35.13 96.12 36.21 96.55 37.21 97.12 38.14 97.83 38.95 98.64 39.66 99.57 40.23 100.58 40.66 101.65 48.07 132.74 48.2 133.9 48.17 135.05 47.98 136.2 47.64 137.31 47.16 138.36 46.54 139.34 45.79 140.22 44.93 141 43.97 141.65 42.94 142.17 41.84 142.55 40.7 142.77 39.55 142.84 38.39 142.75 37.26 142.51 36.17 142.11 35.14 141.58 34.19 140.91 32.34 142.84 33.57 143.75 34.9 144.47 36.32 145.02 37.8 145.36 39.31 145.51 40.83 145.44 42.33 145.18 43.77 144.72 45.15 144.06 46.42 143.23 47.56 142.23 48.56 141.09 49.4 139.82 50.06 138.45 50.53 137.01 50.81 135.51 50.87 133.99 50.74 132.48 43.26 101.03 42.72 99.61 42 98.28 41.1 97.05 40.05 95.95 38.86 95.01 37.55 94.23 36.15 93.64 -9.36 81.7 -10.87 81.51 -12.39 81.52 -13.89 81.73"/><polyline id="background-20" data-name="background" class="cls-7" points="-13.5 81.38 -12.35 81.19 -11.19 81.17 -10.04 81.29 35.13 93.12 36.21 93.55 37.21 94.12 38.14 94.83 38.95 95.64 39.66 96.57 40.23 97.58 40.66 98.65 48.07 129.74 48.2 130.9 48.17 132.05 47.98 133.2 47.64 134.31 47.16 135.36 46.54 136.34 45.79 137.22 44.93 138 43.97 138.65 42.94 139.17 41.84 139.55 40.7 139.77 39.55 139.84 38.39 139.75 37.26 139.51 36.17 139.11 35.14 138.58 34.19 137.91 32.34 139.84 33.57 140.75 34.9 141.47 36.32 142.02 37.8 142.36 39.31 142.51 40.83 142.44 42.33 142.18 43.77 141.72 45.15 141.06 46.42 140.23 47.56 139.23 48.56 138.09 49.4 136.82 50.06 135.45 50.53 134.01 50.81 132.51 50.87 130.99 50.74 129.48 43.26 98.03 42.72 96.61 42 95.28 41.1 94.05 40.05 92.95 38.86 92.01 37.55 91.23 36.15 90.64 -9.36 78.7 -10.87 78.51 -12.39 78.52 -13.89 78.73"/></g><g id="background-21" data-name="background"><polygon class="cls-8" points="15.44 59.9 28.33 62.8 29.42 63.2 30.45 63.74 31.39 64.41 32.24 65.2 32.97 66.1 33.57 67.09 34.04 68.15 34.36 69.27 34.52 70.41 34.53 71.57 34.38 72.72 34.08 73.84 33.63 74.91 33.04 75.91 32.33 76.82 31.49 77.62 30.56 78.31 29.54 78.86 28.46 79.27 27.33 79.53 27.55 82.2 29.03 81.89 30.46 81.38 31.81 80.67 33.05 79.8 34.17 78.76 35.13 77.59 35.92 76.29 36.54 74.9 36.96 73.44 37.18 71.94 37.2 70.42 37.01 68.91 36.62 67.44 36.04 66.04 35.27 64.73 34.33 63.53 33.24 62.47 32.02 61.57 30.69 60.84 29.27 60.3 16.04 57.28 14.92 56.97 13.86 56.5 12.87 55.89 11.97 55.16 11.18 54.31 10.51 53.37 9.98 52.34 9.58 51.25 9.34 50.12 9.25 48.96 9.32 47.8 9.54 46.67 9.92 45.57 10.44 44.53 11.09 43.58 11.87 42.72 12.76 41.97 13.73 41.35 14.79 40.87 15.89 40.53 17.04 40.34 18.2 40.31 19.35 40.44 20.47 40.72 21.55 41.15 22.56 41.72 23.48 42.42 24.3 43.24 25 44.16 27.35 42.86 26.45 41.64 25.39 40.54 24.2 39.6 22.89 38.83 21.49 38.24 20.02 37.85 18.52 37.65 17 37.66 15.49 37.88 14.03 38.3 12.64 38.9 11.34 39.7 10.16 40.65 9.12 41.76 8.24 43 7.54 44.35 7.02 45.77 6.7 47.26 6.58 48.78 6.67 50.29 6.96 51.78 7.45 53.22 8.13 54.58 8.98 55.84 10 56.97 11.16 57.95 12.44 58.77 13.82 59.41 15.27 59.85 15.44 59.9"/><polygon class="cls-10" points="15.44 59.9 28.33 62.8 29.42 63.2 30.45 63.74 31.39 64.41 32.24 65.2 32.97 66.1 33.57 67.09 34.04 68.15 34.36 69.27 34.52 70.41 34.53 71.57 34.38 72.72 34.08 73.84 33.63 74.91 33.04 75.91 32.33 76.82 31.49 77.62 30.56 78.31 29.54 78.86 28.46 79.27 27.33 79.53 27.55 82.2 29.03 81.89 30.46 81.38 31.81 80.67 33.05 79.8 34.17 78.76 35.13 77.59 35.92 76.29 36.54 74.9 36.96 73.44 37.18 71.94 37.2 70.42 37.01 68.91 36.62 67.44 36.04 66.04 35.27 64.73 34.33 63.53 33.24 62.47 32.02 61.57 30.69 60.84 29.27 60.3 16.04 57.28 14.92 56.97 13.86 56.5 12.87 55.89 11.97 55.16 11.18 54.31 10.51 53.37 9.98 52.34 9.58 51.25 9.34 50.12 9.25 48.96 9.32 47.8 9.54 46.67 9.92 45.57 10.44 44.53 11.09 43.58 11.87 42.72 12.76 41.97 13.73 41.35 14.79 40.87 15.89 40.53 17.04 40.34 18.2 40.31 19.35 40.44 20.47 40.72 21.55 41.15 22.56 41.72 23.48 42.42 24.3 43.24 25 44.16 27.35 42.86 26.45 41.64 25.39 40.54 24.2 39.6 22.89 38.83 21.49 38.24 20.02 37.85 18.52 37.65 17 37.66 15.49 37.88 14.03 38.3 12.64 38.9 11.34 39.7 10.16 40.65 9.12 41.76 8.24 43 7.54 44.35 7.02 45.77 6.7 47.26 6.58 48.78 6.67 50.29 6.96 51.78 7.45 53.22 8.13 54.58 8.98 55.84 10 56.97 11.16 57.95 12.44 58.77 13.82 59.41 15.27 59.85 15.44 59.9"/><polygon class="cls-9" points="15.44 56.9 28.33 59.8 29.42 60.2 30.45 60.74 31.39 61.41 32.24 62.2 32.97 63.1 33.57 64.09 34.04 65.15 34.36 66.27 34.52 67.41 34.53 68.57 34.38 69.72 34.08 70.84 33.63 71.91 33.04 72.91 32.33 73.82 31.49 74.62 30.56 75.31 29.54 75.86 28.46 76.27 27.33 76.53 27.55 79.2 29.03 78.89 30.46 78.38 31.81 77.67 33.05 76.8 34.17 75.76 35.13 74.59 35.92 73.29 36.54 71.9 36.96 70.44 37.18 68.94 37.2 67.42 37.01 65.91 36.62 64.44 36.04 63.04 35.27 61.73 34.33 60.53 33.24 59.47 32.02 58.57 30.69 57.84 29.27 57.3 16.04 54.28 14.92 53.97 13.86 53.5 12.87 52.89 11.97 52.16 11.18 51.31 10.51 50.37 9.98 49.34 9.58 48.25 9.34 47.12 9.25 45.96 9.32 44.8 9.54 43.67 9.92 42.57 10.44 41.53 11.09 40.58 11.87 39.72 12.76 38.97 13.73 38.35 14.79 37.87 15.89 37.53 17.04 37.34 18.2 37.31 19.35 37.44 20.47 37.72 21.55 38.15 22.56 38.72 23.48 39.42 24.3 40.24 25 41.16 27.35 39.86 26.45 38.64 25.39 37.54 24.2 36.6 22.89 35.83 21.49 35.24 20.02 34.85 18.52 34.65 17 34.66 15.49 34.88 14.03 35.3 12.64 35.9 11.34 36.7 10.16 37.65 9.12 38.76 8.24 40 7.54 41.35 7.02 42.77 6.7 44.26 6.58 45.78 6.67 47.29 6.96 48.78 7.45 50.22 8.13 51.58 8.98 52.84 10 53.97 11.16 54.95 12.44 55.77 13.82 56.41 15.27 56.85 15.44 56.9"/><polygon class="cls-11" points="15.44 56.9 28.33 59.8 29.42 60.2 30.45 60.74 31.39 61.41 32.24 62.2 32.97 63.1 33.57 64.09 34.04 65.15 34.36 66.27 34.52 67.41 34.53 68.57 34.38 69.72 34.08 70.84 33.63 71.91 33.04 72.91 32.33 73.82 31.49 74.62 30.56 75.31 29.54 75.86 28.46 76.27 27.33 76.53 27.55 79.2 29.03 78.89 30.46 78.38 31.81 77.67 33.05 76.8 34.17 75.76 35.13 74.59 35.92 73.29 36.54 71.9 36.96 70.44 37.18 68.94 37.2 67.42 37.01 65.91 36.62 64.44 36.04 63.04 35.27 61.73 34.33 60.53 33.24 59.47 32.02 58.57 30.69 57.84 29.27 57.3 16.04 54.28 14.92 53.97 13.86 53.5 12.87 52.89 11.97 52.16 11.18 51.31 10.51 50.37 9.98 49.34 9.58 48.25 9.34 47.12 9.25 45.96 9.32 44.8 9.54 43.67 9.92 42.57 10.44 41.53 11.09 40.58 11.87 39.72 12.76 38.97 13.73 38.35 14.79 37.87 15.89 37.53 17.04 37.34 18.2 37.31 19.35 37.44 20.47 37.72 21.55 38.15 22.56 38.72 23.48 39.42 24.3 40.24 25 41.16 27.35 39.86 26.45 38.64 25.39 37.54 24.2 36.6 22.89 35.83 21.49 35.24 20.02 34.85 18.52 34.65 17 34.66 15.49 34.88 14.03 35.3 12.64 35.9 11.34 36.7 10.16 37.65 9.12 38.76 8.24 40 7.54 41.35 7.02 42.77 6.7 44.26 6.58 45.78 6.67 47.29 6.96 48.78 7.45 50.22 8.13 51.58 8.98 52.84 10 53.97 11.16 54.95 12.44 55.77 13.82 56.41 15.27 56.85 15.44 56.9"/></g><g id="section-9" data-name="section"><path id="background-22" data-name="background" class="cls-6" d="M53.29,41.79l-.43-1.46L52.25,39l-.8-1.3L45.8,30.51l-1.11-1-1.24-.88-1.35-.7-1.44-.51-1.48-.31L37.66,27l-1.51.1-1.49.29-1.44.5-1.36.69-1.25.86-1.12,1-1,1.16-2.06,3.24-.74.89-.86.78-1,.66-1,.53-1.09.38-1.14.23-1.15.07-1.16-.08a7.55,7.55,0,0,1-3.59-2.85c-1.68-2.3-4.56-2.59-2.25,1.42s5.27,4,5.27,4l1.51.13L20.78,41l1.49-.27,1.45-.47,1.37-.67,1.26-.84,1.14-1,1-1.15L30.76,33l.77-.87.87-.77,1-.64,1-.5,1.1-.36,1.14-.2,1.16-.06,1.15.11,1.13.26,1.09.41,1,.55.94.69.84.8,5.4,6.88.59,1,.45,1.07.3,1.12"/><path id="background-23" data-name="background" class="cls-7" d="M53.29,38.79l-.43-1.46L52.25,36l-.8-1.3L45.8,27.51l-1.11-1-1.24-.88-1.35-.7-1.44-.51-1.48-.31L37.66,24l-1.51.1-1.49.29-1.44.5-1.36.69-1.25.86-1.12,1-1,1.16-2.06,3.24-.74.89-.86.78-1,.66-1,.53-1.09.38-1.14.23-1.15.07-1.16-.08a7.55,7.55,0,0,1-3.59-2.85c-1.68-2.3-4.56-2.59-2.25,1.42s5.27,4,5.27,4l1.51.13L20.78,38l1.49-.27,1.45-.47,1.37-.67,1.26-.84,1.14-1,1-1.15L30.76,30l.77-.87.87-.77,1-.64,1-.5,1.1-.36,1.14-.2,1.16-.06,1.15.11,1.13.26,1.09.41,1,.55.94.69.84.8,5.4,6.88.59,1,.45,1.07.3,1.12"/></g><g id="section-10" data-name="section"><polyline id="background-24" data-name="background" class="cls-6" points="27.15 58.77 35.85 37.73 46.95 8.32 44.48 7.3 33.37 36.7 24.68 57.75"/><polyline id="background-25" data-name="background" class="cls-7" points="27.15 55.77 35.85 34.73 46.95 5.32 44.48 4.3 33.37 33.7 24.68 54.75"/></g><g id="section-11" data-name="section"><polyline id="background-26" data-name="background" class="cls-6" points="29.82 103.33 31.23 102.77 32.56 102.03 33.77 101.11 34.85 100.04 35.77 98.84 36.53 97.52 37.1 96.11 37.47 94.64 37.64 93.13 37.61 91.61 37.37 90.11 36.94 88.65 36.31 87.27 35.5 85.98 34.52 84.81 33.4 83.79 32.15 82.93 26.35 79.95 25.4 79.3 24.54 78.52 23.79 77.63 23.17 76.65 22.69 75.6 22.35 74.49 22.17 73.34 22.14 72.19 22.27 71.03 22.55 69.91 26.64 60.01 27.15 58.77 24.68 57.75 24.17 58.98 20.08 68.89 19.68 70.35 19.48 71.86 19.49 73.38 19.7 74.88 20.12 76.35 20.72 77.74 21.51 79.04 22.47 80.22 23.58 81.26 24.81 82.14 30.92 85.31 31.86 85.98 32.7 86.78 33.43 87.68 34.03 88.67 34.49 89.74 34.8 90.85 34.96 92 34.96 93.16 34.81 94.31 34.51 95.43 34.05 96.5 33.46 97.49 32.74 98.4 31.9 99.2 30.96 99.88 29.94 100.43 28.86 100.83"/><polyline id="background-27" data-name="background" class="cls-7" points="29.82 100.33 31.23 99.77 32.56 99.03 33.77 98.11 34.85 97.04 35.77 95.84 36.53 94.52 37.1 93.11 37.47 91.64 37.64 90.13 37.61 88.61 37.37 87.11 36.94 85.65 36.31 84.27 35.5 82.98 34.52 81.81 33.4 80.79 32.15 79.93 26.35 76.95 25.4 76.3 24.54 75.52 23.79 74.63 23.17 73.65 22.69 72.6 22.35 71.49 22.17 70.34 22.14 69.19 22.27 68.03 22.55 66.91 26.64 57.01 27.15 55.77 24.68 54.75 24.17 55.98 20.08 65.89 19.68 67.35 19.48 68.86 19.49 70.38 19.7 71.88 20.12 73.35 20.72 74.74 21.51 76.04 22.47 77.22 23.58 78.26 24.81 79.14 30.92 82.31 31.86 82.98 32.7 83.78 33.43 84.68 34.03 85.67 34.49 86.74 34.8 87.85 34.96 89 34.96 90.16 34.81 91.31 34.51 92.43 34.05 93.5 33.46 94.49 32.74 95.4 31.9 96.2 30.96 96.88 29.94 97.43 28.86 97.83"/></g><g id="section-12" data-name="section"><path id="background-28" data-name="background" class="cls-12" d="M-8.38,62.53l.93,27,.26,1.5.47,1.45.66,1.37.83,1.26,1,1.15,1.15,1,1.27.84,1.37.65L1,99.17l25.19,4.73a8.12,8.12,0,0,0,3.63-.57l-1-2.5a6.39,6.39,0,0,1-2.53.39L1.5,96.54.4,96.16l-1-.52-1-.65-.86-.78-.74-.89-.62-1-.49-1-.33-1.11L-4.81,89l-.9-26.59"/><path id="background-29" data-name="background" class="cls-13" d="M-8.38,59.53l.93,27,.26,1.5.47,1.45.66,1.37.83,1.26,1,1.15,1.15,1,1.27.84,1.37.65L1,96.17l25.19,4.73a8.12,8.12,0,0,0,3.63-.57l-1-2.5a6.39,6.39,0,0,1-2.53.39L1.5,93.54.4,93.16l-1-.52-1-.65-.86-.78-.74-.89-.62-1-.49-1-.33-1.11L-4.81,86l-.9-26.59"/></g><g id="background-30" data-name="background"><polyline class="cls-8" points="15.52 95.73 16.97 95.29 18.35 94.66 19.64 93.84 20.8 92.87 21.82 91.74 22.68 90.49 23.37 89.13 23.86 87.69 26.54 74.76 26.91 73.66 27.43 72.62 28.09 71.67 40 58.73 40.86 57.48 41.55 56.12 42.04 54.68 42.34 53.19 42.43 51.67 42.32 50.16 42.01 48.67 41.49 47.24 40.8 45.89 39.92 44.65 38.88 43.54 37.71 42.57 36.42 41.78 35.03 41.16 33.57 40.74 32.06 40.52 30.54 40.5 29.04 40.69 27.57 41.08 28.57 43.56 29.7 43.28 30.85 43.16 32.01 43.2 33.15 43.39 34.26 43.73 35.31 44.22 36.29 44.84 37.17 45.59 37.94 46.46 38.59 47.42 39.11 48.46 39.48 49.55 39.7 50.69 39.76 51.85 39.67 53.01 39.42 54.14 39.02 55.23 38.48 56.25 37.81 57.19 26.12 69.85 25.24 71.09 24.53 72.43 24.01 73.86 21.24 87.15 20.84 88.24 20.3 89.26 19.63 90.21 18.83 91.05 17.93 91.78 16.94 92.38 15.88 92.84 14.76 93.16"/><polyline class="cls-10" points="15.52 95.73 16.97 95.29 18.35 94.66 19.64 93.84 20.8 92.87 21.82 91.74 22.68 90.49 23.37 89.13 23.86 87.69 26.54 74.76 26.91 73.66 27.43 72.62 28.09 71.67 40 58.73 40.86 57.48 41.55 56.12 42.04 54.68 42.34 53.19 42.43 51.67 42.32 50.16 42.01 48.67 41.49 47.24 40.8 45.89 39.92 44.65 38.88 43.54 37.71 42.57 36.42 41.78 35.03 41.16 33.57 40.74 32.06 40.52 30.54 40.5 29.04 40.69 27.57 41.08 28.57 43.56 29.7 43.28 30.85 43.16 32.01 43.2 33.15 43.39 34.26 43.73 35.31 44.22 36.29 44.84 37.17 45.59 37.94 46.46 38.59 47.42 39.11 48.46 39.48 49.55 39.7 50.69 39.76 51.85 39.67 53.01 39.42 54.14 39.02 55.23 38.48 56.25 37.81 57.19 26.12 69.85 25.24 71.09 24.53 72.43 24.01 73.86 21.24 87.15 20.84 88.24 20.3 89.26 19.63 90.21 18.83 91.05 17.93 91.78 16.94 92.38 15.88 92.84 14.76 93.16"/><polyline class="cls-9" points="15.52 92.73 16.97 92.29 18.35 91.66 19.64 90.84 20.8 89.87 21.82 88.74 22.68 87.49 23.37 86.13 23.86 84.69 26.54 71.76 26.91 70.66 27.43 69.62 28.09 68.67 40 55.73 40.86 54.48 41.55 53.12 42.04 51.68 42.34 50.19 42.43 48.67 42.32 47.16 42.01 45.67 41.49 44.24 40.8 42.89 39.92 41.65 38.88 40.54 37.71 39.57 36.42 38.78 35.03 38.16 33.57 37.74 32.06 37.52 30.54 37.5 29.04 37.69 27.57 38.08 28.57 40.56 29.7 40.28 30.85 40.16 32.01 40.2 33.15 40.39 34.26 40.73 35.31 41.22 36.29 41.84 37.17 42.59 37.94 43.46 38.59 44.42 39.11 45.46 39.48 46.55 39.7 47.69 39.76 48.85 39.67 50.01 39.42 51.14 39.02 52.23 38.48 53.25 37.81 54.19 26.12 66.85 25.24 68.09 24.53 69.43 24.01 70.86 21.24 84.15 20.84 85.24 20.3 86.26 19.63 87.21 18.83 88.05 17.93 88.78 16.94 89.38 15.88 89.84 14.76 90.16"/><polyline class="cls-11" points="15.52 92.73 16.97 92.29 18.35 91.66 19.64 90.84 20.8 89.87 21.82 88.74 22.68 87.49 23.37 86.13 23.86 84.69 26.54 71.76 26.91 70.66 27.43 69.62 28.09 68.67 40 55.73 40.86 54.48 41.55 53.12 42.04 51.68 42.34 50.19 42.43 48.67 42.32 47.16 42.01 45.67 41.49 44.24 40.8 42.89 39.92 41.65 38.88 40.54 37.71 39.57 36.42 38.78 35.03 38.16 33.57 37.74 32.06 37.52 30.54 37.5 29.04 37.69 27.57 38.08 28.57 40.56 29.7 40.28 30.85 40.16 32.01 40.2 33.15 40.39 34.26 40.73 35.31 41.22 36.29 41.84 37.17 42.59 37.94 43.46 38.59 44.42 39.11 45.46 39.48 46.55 39.7 47.69 39.76 48.85 39.67 50.01 39.42 51.14 39.02 52.23 38.48 53.25 37.81 54.19 26.12 66.85 25.24 68.09 24.53 69.43 24.01 70.86 21.24 84.15 20.84 85.24 20.3 86.26 19.63 87.21 18.83 88.05 17.93 88.78 16.94 89.38 15.88 89.84 14.76 90.16"/></g><g id="section-13" data-name="section"><polyline id="background-31" data-name="background" class="cls-6" points="50.68 42.42 50.96 43.54 51.09 44.69 51.06 45.85 50.88 47 50.54 48.11 50.06 49.16 49.44 50.14 48.69 51.02 47.83 51.8 46.88 52.46 45.84 52.98 44.74 53.35 43.61 53.58 42.45 53.65 41.3 53.56 40.16 53.32 39.07 52.93 37.1 51.73 37.1 51.73 28.11 43.75 25.76 44.9 35.25 53.66 36.47 54.56 37.81 55.29 39.23 55.83 40.71 56.18 42.22 56.32 43.74 56.25 45.24 55.99 46.68 55.52 48.05 54.86 49.32 54.03 50.47 53.03 51.47 51.89 52.31 50.62 52.97 49.25 53.43 47.8 53.7 46.31 53.77 44.79 53.63 43.27 53.29 41.79"/><polyline id="background-32" data-name="background" class="cls-7" points="50.68 39.42 50.96 40.54 51.09 41.69 51.06 42.85 50.88 44 50.54 45.11 50.06 46.16 49.44 47.14 48.69 48.02 47.83 48.8 46.88 49.46 45.84 49.98 44.74 50.35 43.61 50.58 42.45 50.65 41.3 50.56 40.16 50.32 39.07 49.93 37.1 48.73 37.1 48.73 28.11 40.75 25.76 41.9 35.25 50.66 36.47 51.56 37.81 52.29 39.23 52.83 40.71 53.18 42.22 53.32 43.74 53.25 45.24 52.99 46.68 52.52 48.05 51.86 49.32 51.03 50.47 50.03 51.47 48.89 52.31 47.62 52.97 46.25 53.43 44.8 53.7 43.31 53.77 41.79 53.63 40.27 53.29 38.79"/></g><g id="section-14" data-name="section"><polyline id="background-33" data-name="background" class="cls-6" points="1.21 105.29 7.46 99.09 8.35 98.34 9.32 97.72 10.38 97.23 14.23 96.1 15.52 95.73 14.76 93.16 13.48 93.53 9.62 94.66 8.23 95.27 6.93 96.06 5.75 97.02 -0.76 103.47"/><polyline id="background-34" data-name="background" class="cls-7" points="1.21 102.29 7.46 96.09 8.35 95.34 9.32 94.72 10.38 94.23 14.23 93.1 15.52 92.73 14.76 90.16 13.48 90.53 9.62 91.66 8.23 92.27 6.93 93.06 5.75 94.02 -0.76 100.47"/></g><g id="background-35" data-name="background"><path class="cls-8" d="M30.54,40.5l-1.5.19-1.47.39-12.41,5-1.24.5L.72,52.05l.66,2.59L14.93,49.1l1.24-.5,12.4-5,1.13-.28,1.15-.12a9,9,0,0,1,2.73.36"/><path class="cls-10" d="M30.54,40.5l-1.5.19-1.47.39-12.41,5-1.24.5L.72,52.05l.66,2.59L14.93,49.1l1.24-.5,12.4-5,1.13-.28,1.15-.12a9,9,0,0,1,2.73.36"/><path class="cls-9" d="M30.54,37.5l-1.5.19-1.47.39-12.41,5-1.24.5L.72,49.05l.66,2.59L14.93,46.1l1.24-.5,12.4-5,1.13-.28,1.15-.12a9,9,0,0,1,2.73.36"/><path class="cls-11" d="M30.54,37.5l-1.5.19-1.47.39-12.41,5-1.24.5L.72,49.05l.66,2.59L14.93,46.1l1.24-.5,12.4-5,1.13-.28,1.15-.12a9,9,0,0,1,2.73.36"/></g></g><g class="cls-14"><path d="M86,94.56a2.1,2.1,0,0,1,1.82-1,2.16,2.16,0,0,1,1.08.29,2.12,2.12,0,0,1,.73,2.9A2.11,2.11,0,0,1,86,94.56Zm12.6,22.36a2.09,2.09,0,0,1-1.37.51,2.11,2.11,0,0,1-1.38-3.72,2.09,2.09,0,0,1,1.37-.51,2.11,2.11,0,0,1,1.61.74,2.12,2.12,0,0,1-.23,3Z"/><path d="M77.68,48.43l.21,0Z"/><path d="M89.06,58.08a2,2,0,0,1,.67-.66,2.11,2.11,0,0,1,1.12-.32,2.09,2.09,0,0,1,1.12.32,2.12,2.12,0,0,1-1.13,3.91A2.07,2.07,0,0,1,89.71,61,2.12,2.12,0,0,1,89.06,58.08Zm6.38-20.19a2.16,2.16,0,0,1-2.92.66l-.09-.07a2.11,2.11,0,0,1,1.23-3.83,2.15,2.15,0,0,1,1.12.33,2.1,2.1,0,0,1,.66,2.91Z"/><path d="M112.2,49.49a2.12,2.12,0,0,1,1.79-1,2,2,0,0,1,1.12.33,2.1,2.1,0,0,1,.66,2.91,2.14,2.14,0,0,1-2.91.65l-.1-.06A2.12,2.12,0,0,1,112.2,49.49Zm0,23.46A2.12,2.12,0,0,1,114,72a2.11,2.11,0,0,1,1.78,3.24,2.14,2.14,0,0,1-2.91.66l-.1-.07A2.11,2.11,0,0,1,112.2,73Zm0,26.31a2.12,2.12,0,0,1,2.91-.66,2.16,2.16,0,0,1,.94,1.33,2.11,2.11,0,0,1-3.19,2.24l-.1-.06A2.12,2.12,0,0,1,112.2,99.26Z"/><path d="M101.85,108.93a6.12,6.12,0,0,0-8.63-.67,6.16,6.16,0,0,0-2.09,5.4A19.49,19.49,0,0,1,85.81,115a4,4,0,0,1-2.23-1,10.63,10.63,0,0,0-4.15-1.84A37.62,37.62,0,0,0,88,99.34,6.11,6.11,0,0,0,90.93,88a6.08,6.08,0,0,0-3.13-.87,6.16,6.16,0,0,0-5.26,3,6.12,6.12,0,0,0,1.62,8.06c-4,9.22-9.22,13.08-12.56,14.69a1.49,1.49,0,0,0-.36.17,11,11,0,0,1-2.56.8v4a12.66,12.66,0,0,0,4.24-1.19c5.35-1.36,6.84-.35,8.41.71A7.94,7.94,0,0,0,85.59,119h.31a23.54,23.54,0,0,0,7-1.72A6.14,6.14,0,0,0,97.21,119h0a6.11,6.11,0,0,0,6.1-5.65A6,6,0,0,0,101.85,108.93ZM86,92.15a2.12,2.12,0,0,1,1.82-1,2.07,2.07,0,0,1,1.08.3,2.11,2.11,0,0,1-1.09,3.93,2.2,2.2,0,0,1-1.08-.3,2.13,2.13,0,0,1-.73-2.9Zm12.6,22.36a2.09,2.09,0,0,1-1.37.51,2.11,2.11,0,0,1-1.38-3.71,2.06,2.06,0,0,1,1.37-.52,2.09,2.09,0,0,1,1.61.75,2.11,2.11,0,0,1-.23,3Z"/><path d="M77.68,46l.21,0Z"/><path d="M99.63,33a6.12,6.12,0,0,0-2.71-3.85,6.18,6.18,0,0,0-3.26-.94,6.12,6.12,0,0,0-5,9.61,13.35,13.35,0,0,1-9.94,4.29,29.39,29.39,0,0,0-10-2.32v4A24.75,24.75,0,0,1,77.43,46h0a21.61,21.61,0,0,1,8.61,7,4,4,0,0,0-.38.54A6.13,6.13,0,0,0,87.57,62a6,6,0,0,0,3.27,1,6.12,6.12,0,0,0,3.27-11.3,6.2,6.2,0,0,0-4.66-.75,26,26,0,0,0-5.35-5.57,16.34,16.34,0,0,0,7.78-5.1,6.22,6.22,0,0,0,1.77.27,6.13,6.13,0,0,0,6-7.45ZM89.06,55.67a2.11,2.11,0,0,1,.67-.66,2.2,2.2,0,0,1,1.12-.31A2.09,2.09,0,0,1,92,55a2.12,2.12,0,0,1-1.13,3.91,2.12,2.12,0,0,1-1.78-3.26Zm6.38-20.18a2.15,2.15,0,0,1-2.92.65l-.09-.06a2.11,2.11,0,0,1-.56-2.85,2.08,2.08,0,0,1,1.79-1,2.14,2.14,0,0,1,1.12.32,2.16,2.16,0,0,1,.94,1.33A2.12,2.12,0,0,1,95.44,35.49Z"/><path d="M108.32,74a6.09,6.09,0,0,0,2.11,2.65,2.94,2.94,0,0,0,.29.19,6.12,6.12,0,1,0,6.53-10.35,6.18,6.18,0,0,0-3.26-.94l-.38,0a25.67,25.67,0,0,1,0-11.27l.33,0a6.13,6.13,0,1,0-4.14-1.63l.07.06a28.64,28.64,0,0,0,0,14.42,5.25,5.25,0,0,0-.42.4,5.8,5.8,0,0,0-.64.82A6.39,6.39,0,0,0,108.1,70a15.21,15.21,0,0,0-6.82,2.73c-2,1.32-4,2.57-9.64,2.66a32.72,32.72,0,0,0-5.29-.11c-1.43,0-2.91.1-4.85,0-1.33-.07-2.1-.88-3.45-2.42-1.81-2.06-4.22-4.65-9.37-5v4c3.29.3,4.79,1.89,6.35,3.67s3.18,3.62,6.26,3.78c2.12.12,3.76,0,5.21,0a24.11,24.11,0,0,1,7.85.69c2.61.64,12.1,9.67,14.78,14.32-.11.14-.22.28-.32.43a6.11,6.11,0,0,0,1.62,8.25,2.68,2.68,0,0,0,.29.2A6.12,6.12,0,1,0,114,91.86a6.16,6.16,0,0,0-1.55.2c-2.56-4.19-8.65-10.46-13.19-13.79a18.51,18.51,0,0,0,4.22-2.19A11.29,11.29,0,0,1,108.32,74Zm3.88-26.92a2.12,2.12,0,0,1,2.91-.66,2.14,2.14,0,0,1,.94,1.33,2.09,2.09,0,0,1-.28,1.58,2.13,2.13,0,0,1-2.91.66l-.1-.06A2.12,2.12,0,0,1,112.2,47.09Zm0,23.46a2.12,2.12,0,0,1,2.91-.66,2.16,2.16,0,0,1,.94,1.33,2.11,2.11,0,0,1-3.19,2.24l-.1-.06A2.12,2.12,0,0,1,112.2,70.55Zm0,26.3a2.12,2.12,0,0,1,1.79-1,2,2,0,0,1,1.12.33,2.1,2.1,0,0,1,.66,2.91,2.14,2.14,0,0,1-2.91.65l-.1-.06A2.11,2.11,0,0,1,112.2,96.85Z"/></g><path class="cls-15" d="M101.85,111.93a6.12,6.12,0,0,0-8.63-.67,6.16,6.16,0,0,0-2.09,5.4A19.49,19.49,0,0,1,85.81,118a4,4,0,0,1-2.23-1,10.63,10.63,0,0,0-4.15-1.84A37.62,37.62,0,0,0,88,102.34,6.11,6.11,0,0,0,90.93,91a6.08,6.08,0,0,0-3.13-.87,6.16,6.16,0,0,0-5.26,3,6.12,6.12,0,0,0,1.62,8.06c-4,9.22-9.22,13.08-12.56,14.69a1.49,1.49,0,0,0-.36.17,11,11,0,0,1-2.56.8v4a12.66,12.66,0,0,0,4.24-1.19c5.35-1.36,6.84-.35,8.41.71A7.94,7.94,0,0,0,85.59,122h.31a23.54,23.54,0,0,0,7-1.72A6.14,6.14,0,0,0,97.21,122h0a6.11,6.11,0,0,0,6.1-5.65A6,6,0,0,0,101.85,111.93ZM86,95.15a2.12,2.12,0,0,1,1.82-1,2.07,2.07,0,0,1,1.08.3,2.11,2.11,0,0,1-1.09,3.93,2.2,2.2,0,0,1-1.08-.3,2.13,2.13,0,0,1-.73-2.9Zm12.6,22.36a2.09,2.09,0,0,1-1.37.51,2.11,2.11,0,0,1-1.38-3.71,2.06,2.06,0,0,1,1.37-.52,2.09,2.09,0,0,1,1.61.75,2.11,2.11,0,0,1-.23,3Z"/><path d="M77.68,48.43l.21,0Z"/><path class="cls-15" d="M99.63,35a6.12,6.12,0,1,0-11,4.82,13.27,13.27,0,0,1-9.94,4.29,29.12,29.12,0,0,0-10-2.31v4A25,25,0,0,1,77.43,48h0a21.69,21.69,0,0,1,8.61,7,5.93,5.93,0,0,0-.38.54,6.12,6.12,0,1,0,8.44-1.91,6.2,6.2,0,0,0-4.66-.75,26,26,0,0,0-5.35-5.57,16.39,16.39,0,0,0,7.78-5.09,6.21,6.21,0,0,0,1.77.26,6.13,6.13,0,0,0,6-7.45ZM89.06,57.68a2,2,0,0,1,.67-.66,2.11,2.11,0,0,1,1.12-.32A2.09,2.09,0,0,1,92,57a2.12,2.12,0,0,1-1.13,3.91,2.07,2.07,0,0,1-1.13-.33A2.12,2.12,0,0,1,89.06,57.68Zm6.38-20.19a2.15,2.15,0,0,1-2.92.65l-.09-.06a2.11,2.11,0,0,1,1.23-3.83,2.06,2.06,0,0,1,1.12.33,2.1,2.1,0,0,1,.66,2.91Z"/><path class="cls-15" d="M108.32,77a6.09,6.09,0,0,0,2.11,2.65,2.94,2.94,0,0,0,.29.19,6.12,6.12,0,1,0,6.53-10.35,6.18,6.18,0,0,0-3.26-.94l-.38,0a25.67,25.67,0,0,1,0-11.27l.33,0a6.13,6.13,0,1,0-4.14-1.63l.07.06a28.64,28.64,0,0,0,0,14.42,5.25,5.25,0,0,0-.42.4,5.8,5.8,0,0,0-.64.82A6.39,6.39,0,0,0,108.1,73a15.21,15.21,0,0,0-6.82,2.73c-2,1.32-4,2.57-9.64,2.66a32.72,32.72,0,0,0-5.29-.11c-1.43,0-2.91.1-4.85,0-1.33-.07-2.1-.88-3.45-2.42-1.81-2.06-4.22-4.65-9.37-5v4c3.29.3,4.79,1.89,6.35,3.67s3.18,3.62,6.26,3.78c2.12.12,3.76,0,5.21,0a24.11,24.11,0,0,1,7.85.69c2.61.64,12.1,9.67,14.78,14.32-.11.14-.22.28-.32.43a6.11,6.11,0,0,0,1.62,8.25,2.68,2.68,0,0,0,.29.2A6.12,6.12,0,1,0,114,94.86a6.16,6.16,0,0,0-1.55.2c-2.56-4.19-8.65-10.46-13.19-13.79a18.51,18.51,0,0,0,4.22-2.19A11.29,11.29,0,0,1,108.32,77Zm3.88-26.92a2.12,2.12,0,0,1,2.91-.66,2.14,2.14,0,0,1,.94,1.33,2.09,2.09,0,0,1-.28,1.58,2.13,2.13,0,0,1-2.91.66l-.1-.06A2.12,2.12,0,0,1,112.2,50.09Zm0,23.46a2.12,2.12,0,0,1,2.91-.66,2.16,2.16,0,0,1,.94,1.33,2.11,2.11,0,0,1-3.19,2.24l-.1-.06A2.12,2.12,0,0,1,112.2,73.55Zm0,26.3a2.12,2.12,0,0,1,1.79-1,2,2,0,0,1,1.12.33,2.1,2.1,0,0,1,.66,2.91,2.14,2.14,0,0,1-2.91.65l-.1-.06A2.11,2.11,0,0,1,112.2,99.85Z"/><path class="cls-9" d="M101.85,108.93a6.12,6.12,0,0,0-8.63-.67,6.16,6.16,0,0,0-2.09,5.4A19.49,19.49,0,0,1,85.81,115a4,4,0,0,1-2.23-1,10.63,10.63,0,0,0-4.15-1.84A37.62,37.62,0,0,0,88,99.34,6.11,6.11,0,0,0,90.93,88a6.08,6.08,0,0,0-3.13-.87,6.16,6.16,0,0,0-5.26,3,6.12,6.12,0,0,0,1.62,8.06c-4,9.22-9.22,13.08-12.56,14.69a1.49,1.49,0,0,0-.36.17,11,11,0,0,1-2.56.8v4a12.66,12.66,0,0,0,4.24-1.19c5.35-1.36,6.84-.35,8.41.71A7.94,7.94,0,0,0,85.59,119h.31a23.54,23.54,0,0,0,7-1.72A6.14,6.14,0,0,0,97.21,119h0a6.11,6.11,0,0,0,6.1-5.65A6,6,0,0,0,101.85,108.93ZM86,92.15a2.12,2.12,0,0,1,1.82-1,2.07,2.07,0,0,1,1.08.3,2.11,2.11,0,0,1-1.09,3.93,2.2,2.2,0,0,1-1.08-.3,2.13,2.13,0,0,1-.73-2.9Zm12.6,22.36a2.09,2.09,0,0,1-1.37.51,2.11,2.11,0,0,1-1.38-3.71,2.06,2.06,0,0,1,1.37-.52,2.09,2.09,0,0,1,1.61.75,2.11,2.11,0,0,1-.23,3Z"/><path class="cls-9" d="M77.68,46l.21,0Z"/><path class="cls-9" d="M99.63,33a6.12,6.12,0,0,0-2.71-3.85,6.18,6.18,0,0,0-3.26-.94,6.12,6.12,0,0,0-5,9.61,13.35,13.35,0,0,1-9.94,4.29,29.39,29.39,0,0,0-10-2.32v4A24.75,24.75,0,0,1,77.43,46h0a21.61,21.61,0,0,1,8.61,7,4,4,0,0,0-.38.54A6.13,6.13,0,0,0,87.57,62a6,6,0,0,0,3.27,1,6.12,6.12,0,0,0,3.27-11.3,6.2,6.2,0,0,0-4.66-.75,26,26,0,0,0-5.35-5.57,16.34,16.34,0,0,0,7.78-5.1,6.22,6.22,0,0,0,1.77.27,6.13,6.13,0,0,0,6-7.45ZM89.06,55.67a2.11,2.11,0,0,1,.67-.66,2.2,2.2,0,0,1,1.12-.31A2.09,2.09,0,0,1,92,55a2.12,2.12,0,0,1-1.13,3.91,2.12,2.12,0,0,1-1.78-3.26Zm6.38-20.18a2.15,2.15,0,0,1-2.92.65l-.09-.06a2.11,2.11,0,0,1-.56-2.85,2.08,2.08,0,0,1,1.79-1,2.14,2.14,0,0,1,1.12.32,2.16,2.16,0,0,1,.94,1.33A2.12,2.12,0,0,1,95.44,35.49Z"/><path class="cls-9" d="M108.32,74a6.09,6.09,0,0,0,2.11,2.65,2.94,2.94,0,0,0,.29.19,6.12,6.12,0,1,0,6.53-10.35,6.18,6.18,0,0,0-3.26-.94l-.38,0a25.67,25.67,0,0,1,0-11.27l.33,0a6.13,6.13,0,1,0-4.14-1.63l.07.06a28.64,28.64,0,0,0,0,14.42,5.25,5.25,0,0,0-.42.4,5.8,5.8,0,0,0-.64.82A6.39,6.39,0,0,0,108.1,70a15.21,15.21,0,0,0-6.82,2.73c-2,1.32-4,2.57-9.64,2.66a32.72,32.72,0,0,0-5.29-.11c-1.43,0-2.91.1-4.85,0-1.33-.07-2.1-.88-3.45-2.42-1.81-2.06-4.22-4.65-9.37-5v4c3.29.3,4.79,1.89,6.35,3.67s3.18,3.62,6.26,3.78c2.12.12,3.76,0,5.21,0a24.11,24.11,0,0,1,7.85.69c2.61.64,12.1,9.67,14.78,14.32-.11.14-.22.28-.32.43a6.11,6.11,0,0,0,1.62,8.25,2.68,2.68,0,0,0,.29.2A6.12,6.12,0,1,0,114,91.86a6.16,6.16,0,0,0-1.55.2c-2.56-4.19-8.65-10.46-13.19-13.79a18.51,18.51,0,0,0,4.22-2.19A11.29,11.29,0,0,1,108.32,74Zm3.88-26.92a2.12,2.12,0,0,1,2.91-.66,2.14,2.14,0,0,1,.94,1.33,2.09,2.09,0,0,1-.28,1.58,2.13,2.13,0,0,1-2.91.66l-.1-.06A2.12,2.12,0,0,1,112.2,47.09Zm0,23.46a2.12,2.12,0,0,1,2.91-.66,2.16,2.16,0,0,1,.94,1.33,2.11,2.11,0,0,1-3.19,2.24l-.1-.06A2.12,2.12,0,0,1,112.2,70.55Zm0,26.3a2.12,2.12,0,0,1,1.79-1,2,2,0,0,1,1.12.33,2.1,2.1,0,0,1,.66,2.91,2.14,2.14,0,0,1-2.91.65l-.1-.06A2.11,2.11,0,0,1,112.2,96.85Z"/><path class="cls-4" d="M172.16,48.22,185.8,85l13.54-36.79h17.95v54.6H203.65V91.76l1.41-28.69L190.3,102.82h-9.05L166.53,63.21l1.41,28.55v11.06H154.3V48.22Z"/><path class="cls-4" d="M248.24,103.69q-10.26,0-16.71-6.3t-6.44-16.78v-1.2a28.17,28.17,0,0,1,2.71-12.57,19.92,19.92,0,0,1,7.7-8.54,21.59,21.59,0,0,1,11.36-3q9.58,0,15.08,6t5.49,17.12v5.09H237.72a11.57,11.57,0,0,0,3.65,7.33,11,11,0,0,0,7.69,2.76,13.46,13.46,0,0,0,11.26-5.22l6.12,6.86a18.74,18.74,0,0,1-7.59,6.18A24.77,24.77,0,0,1,248.24,103.69Zm-1.42-38.34a7.82,7.82,0,0,0-6,2.51,13.07,13.07,0,0,0-3,7.19h17.34v-1a9.29,9.29,0,0,0-2.25-6.43A8,8,0,0,0,246.82,65.35Z"/><path class="cls-4" d="M299.78,89.93a4,4,0,0,0-2.27-3.6A25.62,25.62,0,0,0,290.25,84Q273.6,80.49,273.6,69.83a12.84,12.84,0,0,1,5.15-10.37q5.16-4.16,13.48-4.16,8.88,0,14.21,4.18a13.19,13.19,0,0,1,5.32,10.87H299.3a6,6,0,0,0-1.72-4.42c-1.15-1.16-2.95-1.75-5.39-1.75a7.47,7.47,0,0,0-4.88,1.43,4.48,4.48,0,0,0-1.72,3.62,3.83,3.83,0,0,0,2,3.34,20.25,20.25,0,0,0,6.62,2.2A55.08,55.08,0,0,1,302,76.86q9.87,3.63,9.87,12.55a12.16,12.16,0,0,1-5.47,10.33q-5.48,3.95-14.15,4a24.56,24.56,0,0,1-10.41-2.1,17.48,17.48,0,0,1-7.14-5.73A13.36,13.36,0,0,1,272.13,88H284a6.51,6.51,0,0,0,2.46,5.09,9.72,9.72,0,0,0,6.12,1.77,9,9,0,0,0,5.41-1.36A4.22,4.22,0,0,0,299.78,89.93Z"/><path class="cls-4" d="M345.19,89.93a4,4,0,0,0-2.27-3.6A25.62,25.62,0,0,0,335.66,84Q319,80.49,319,69.83a12.84,12.84,0,0,1,5.15-10.37q5.16-4.16,13.48-4.16,8.88,0,14.21,4.18a13.19,13.19,0,0,1,5.32,10.87H344.71A6,6,0,0,0,343,65.93c-1.15-1.16-2.95-1.75-5.39-1.75a7.47,7.47,0,0,0-4.88,1.43A4.48,4.48,0,0,0,331,69.23a3.83,3.83,0,0,0,2,3.34,20.16,20.16,0,0,0,6.62,2.2,55.45,55.45,0,0,1,7.85,2.09q9.87,3.63,9.87,12.55a12.16,12.16,0,0,1-5.47,10.33q-5.47,3.95-14.15,4a24.56,24.56,0,0,1-10.41-2.1,17.42,17.42,0,0,1-7.14-5.73A13.36,13.36,0,0,1,317.54,88h11.82a6.48,6.48,0,0,0,2.46,5.09,9.72,9.72,0,0,0,6.12,1.77,9,9,0,0,0,5.41-1.36A4.22,4.22,0,0,0,345.19,89.93Z"/><path class="cls-4" d="M382.75,85.19l8.62-29h13.37L386,110.07l-1,2.46q-4.18,9.14-13.8,9.14a19.75,19.75,0,0,1-5.52-.82v-9.44l1.89,0a10.28,10.28,0,0,0,5.29-1.08,7.08,7.08,0,0,0,2.73-3.58L377,103,360.67,56.16h13.41Z"/><path class="cls-3" d="M409.51,102.82V48.22H430.6q10.92,0,16.78,3.87a12.64,12.64,0,0,1,5.86,11.24,12.59,12.59,0,0,1-2.13,7.26A12.21,12.21,0,0,1,445,75.16a12.16,12.16,0,0,1,7,4.45,12.32,12.32,0,0,1,2.44,7.58q0,8.1-5.58,11.87t-16.22,3.76ZM423.1,71h8.35q8.19,0,8.2-5.74c0-2.2-.67-3.76-2-4.68s-3.36-1.39-6.07-1.39H423.1Zm0,9.23V91.9h9.56a10.36,10.36,0,0,0,6.1-1.55,4.82,4.82,0,0,0,2.15-4.1q0-5.88-7.17-6.07Z"/><path class="cls-3" d="M489,67.85a33.84,33.84,0,0,0-4.48-.35q-7.08,0-9.28,4.79v30.53H462.76V56.16h11.78l.34,5.57q3.75-6.43,10.39-6.43a13.14,13.14,0,0,1,3.88.56Z"/><path class="cls-3" d="M520.72,102.82a14,14,0,0,1-1.25-4.18,15.09,15.09,0,0,1-11.77,5,16.62,16.62,0,0,1-11.37-4,12.78,12.78,0,0,1-4.5-10q0-7.41,5.5-11.38t15.89-4H519V71.64a7.66,7.66,0,0,0-1.66-5.17q-1.65-1.93-5.24-1.94A7.38,7.38,0,0,0,507.12,66a5.12,5.12,0,0,0-1.79,4.14H492.86a12.61,12.61,0,0,1,2.5-7.51,16.65,16.65,0,0,1,7.08-5.41,25.89,25.89,0,0,1,10.26-2q8.63,0,13.69,4.33t5.07,12.19V92q0,6.64,1.85,10v.73Zm-10.31-8.66a10.73,10.73,0,0,0,5.09-1.23,8.05,8.05,0,0,0,3.45-3.3v-8h-4.66q-9.34,0-10,6.47l0,.73a5,5,0,0,0,1.64,3.84A6.39,6.39,0,0,0,510.41,94.16Z"/><path class="cls-3" d="M541,44.09a6.15,6.15,0,0,1,1.87-4.62,8.09,8.09,0,0,1,10.2,0,6.59,6.59,0,0,1,0,9.28,8,8,0,0,1-10.14,0A6.11,6.11,0,0,1,541,44.09Zm13.23,58.73h-12.5V56.16h12.5Z"/><path class="cls-3" d="M575.92,56.16l.39,5.39a16.3,16.3,0,0,1,13.41-6.25q7.41,0,11,4.36t3.71,13v30.14H592V72.91q0-4-1.72-5.77t-5.74-1.79a8.59,8.59,0,0,0-7.89,4.49v33H564.19V56.16Z"/><path class="cls-3" d="M628.23,92.78H651v10H612.32V95.23l21.94-29H613v-10h37.39v7.35Z"/></g></g></svg>