<svg id="Layer_1" data-name="Layer 1" xmlns="http://www.w3.org/2000/svg" xmlns:xlink="http://www.w3.org/1999/xlink" viewBox="0 0 247 100"><defs><style>.cls-1,.cls-8,.cls-9{fill:none;}.cls-2{fill:#b50437;}.cls-3{clip-path:url(#clip-path);}.cls-10,.cls-4,.cls-6{fill:#8e0324;}.cls-10,.cls-4,.cls-8{stroke:#8e0324;}.cls-10,.cls-11,.cls-4,.cls-5,.cls-8,.cls-9{stroke-width:1.5px;}.cls-11,.cls-5,.cls-7{fill:#fffedb;}.cls-11,.cls-5,.cls-9{stroke:#fffedb;}.cls-10,.cls-11{stroke-linecap:square;stroke-linejoin:round;}.cls-12{fill:#eb743b;}</style><clipPath id="clip-path"><polygon class="cls-1" points="5.36 72.74 5.36 27.26 43 5.79 43 94.13 5.36 72.74"/></clipPath></defs><polygon class="cls-2" points="43 2 2 25.33 2 74.67 43 98 43 2"/><g class="cls-3"><g id="section"><polyline id="background" class="cls-4" points="1.39 31.36 0.77 31.82 0.22 32.37 -0.26 32.98 -0.64 33.65 -0.93 34.37 -1.12 35.12 -1.21 35.89 -1.19 36.66 -1.06 37.42 -0.84 38.16 -0.51 38.87 -0.1 39.52 0.41 40.11 0.98 40.63 1.63 41.06 2.32 41.41 3.06 41.66 3.82 41.81 4.6 41.86 5.38 41.8 6.14 41.64 6.87 41.38 7.56 41.02 8.2 40.58 8.77 40.05 9.26 39.45 9.67 38.8 9.98 38.09 10.19 36.98 10.43 36.12 12.17 36.6 11.93 37.46 11.72 38.57 11.32 39.5 10.81 40.37 10.18 41.17 9.44 41.87 8.62 42.47 7.72 42.96 6.76 43.32 5.77 43.55 4.75 43.64 3.73 43.6 2.73 43.42 1.75 43.11 0.83 42.67 -0.02 42.11 -0.79 41.45 -1.46 40.68 -2.02 39.84 -2.46 38.92 -2.78 37.96 -2.96 36.96 -3 35.95 -2.91 34.94 -2.68 33.95 -2.32 33.01 -1.83 32.12 -1.23 31.3 -0.52 30.57 0.29 29.94"/><polyline id="background-2" data-name="background" class="cls-5" points="1.39 28.36 0.77 28.82 0.22 29.37 -0.26 29.98 -0.64 30.65 -0.93 31.37 -1.12 32.12 -1.21 32.89 -1.19 33.66 -1.06 34.42 -0.84 35.16 -0.51 35.87 -0.1 36.52 0.41 37.11 0.98 37.63 1.63 38.06 2.32 38.41 3.06 38.66 3.82 38.81 4.6 38.86 5.38 38.8 6.14 38.64 6.87 38.38 7.56 38.02 8.2 37.58 8.77 37.05 9.26 36.45 9.67 35.8 9.98 35.09 10.19 33.98 10.43 33.12 12.17 33.6 11.93 34.46 11.72 35.57 11.32 36.5 10.81 37.37 10.18 38.17 9.44 38.87 8.62 39.47 7.72 39.96 6.76 40.32 5.77 40.55 4.75 40.64 3.73 40.6 2.73 40.42 1.75 40.11 0.83 39.67 -0.02 39.11 -0.79 38.45 -1.46 37.68 -2.02 36.84 -2.46 35.92 -2.78 34.96 -2.96 33.96 -3 32.95 -2.91 31.94 -2.68 30.95 -2.32 30.01 -1.83 29.12 -1.23 28.3 -0.52 27.57 0.29 26.94"/></g><g id="section-2" data-name="section"><polyline id="background-3" data-name="background" class="cls-4" points="10.2 39.84 10.88 39.09 11.46 38.26 11.92 37.35 12.25 36.39 12.45 35.4 12.52 34.39 12.44 33.38 12.23 32.39 11.88 31.43 11.41 30.53 10.83 29.71 10.13 28.96 9.34 28.32 8.47 27.79 7.54 27.38 6.56 27.1 5.54 26.95 -7.05 26.71 -7.96 26.69 -7.99 28.48 -7.09 28.49 5.51 28.74 6.28 28.86 7.02 29.09 7.73 29.42 8.38 29.83 8.98 30.34 9.5 30.91 9.93 31.55 10.28 32.24 10.53 32.98 10.68 33.73 10.72 34.51 10.66 35.27 10.49 36.03 10.22 36.76 9.86 37.44 9.41 38.07 8.87 38.63"/><polyline id="background-4" data-name="background" class="cls-5" points="10.2 36.84 10.88 36.09 11.46 35.26 11.92 34.35 12.25 33.39 12.45 32.4 12.52 31.39 12.44 30.38 12.23 29.39 11.88 28.43 11.41 27.53 10.83 26.71 10.13 25.96 9.34 25.32 8.47 24.79 7.54 24.38 6.56 24.1 5.54 23.95 -7.05 23.71 -7.96 23.69 -7.99 25.48 -7.09 25.49 5.51 25.74 6.28 25.86 7.02 26.09 7.73 26.42 8.38 26.83 8.98 27.34 9.5 27.91 9.93 28.55 10.28 29.24 10.53 29.98 10.68 30.73 10.72 31.5 10.66 32.27 10.49 33.03 10.22 33.76 9.86 34.44 9.41 35.07 8.87 35.63"/></g><polyline id="background-5" data-name="background" class="cls-6" points="29.8 52.98 29.94 52.88 30.09 52.78 30.24 52.68 30.41 52.57 31.25 52.1 31.44 51.99 31.65 51.89 31.87 51.79 32.12 51.7 32.32 51.63 32.45 51.58 32.52 51.56 32.59 51.54 32.66 51.52 32.74 51.5 32.82 51.48 32.9 51.45 32.99 51.43 34.3 51.14 34.42 51.11 34.54 51.09 34.66 51.07 34.8 51.05 34.93 51.03 35.08 51.02 35.23 51.01 35.38 51 35.55 50.99 45.94 50.99 46.36 50.99 46.36 48.33 45.94 48.33 35.55 48.34 35.31 48.34 35.09 48.36 34.87 48.37 34.67 48.39 34.47 48.42 34.28 48.44 34.1 48.47 33.93 48.5 33.76 48.54 32.4 48.84 32.27 48.87 32.16 48.9 32.04 48.93 31.93 48.96 31.83 48.99 31.73 49.02 31.64 49.05 31.47 49.11 31.22 49.2 30.9 49.32 30.58 49.46 30.28 49.6 29.99 49.75 29.07 50.27 28.84 50.41 28.61 50.56 28.41 50.7 28.21 50.85"/><polyline id="background-6" data-name="background" class="cls-7" points="29.8 49.98 29.94 49.88 30.09 49.78 30.24 49.68 30.41 49.57 31.25 49.1 31.44 48.99 31.65 48.89 31.87 48.79 32.12 48.7 32.32 48.63 32.45 48.58 32.52 48.56 32.59 48.54 32.66 48.52 32.74 48.5 32.82 48.48 32.9 48.45 32.99 48.43 34.3 48.14 34.42 48.11 34.54 48.09 34.66 48.07 34.8 48.05 34.93 48.03 35.08 48.02 35.23 48.01 35.38 48 35.55 47.99 45.94 47.99 46.36 47.99 46.36 45.33 45.94 45.33 35.55 45.34 35.31 45.34 35.09 45.36 34.87 45.37 34.67 45.39 34.47 45.42 34.28 45.44 34.1 45.47 33.93 45.5 33.76 45.54 32.4 45.84 32.27 45.87 32.16 45.9 32.04 45.93 31.93 45.96 31.83 45.99 31.73 46.02 31.64 46.05 31.47 46.11 31.22 46.2 30.9 46.32 30.58 46.46 30.28 46.6 29.99 46.75 29.07 47.27 28.84 47.41 28.61 47.56 28.41 47.7 28.21 47.85"/><polyline id="background-7" data-name="background" class="cls-6" points="27.74 55.26 27.77 55.21 27.79 55.16 27.82 55.11 27.85 55.06 27.88 55.01 27.92 54.95 27.95 54.9 27.99 54.84 28.03 54.77 28.07 54.71 28.12 54.65 28.16 54.58 28.21 54.51 28.27 54.44 28.32 54.36 28.38 54.29 28.45 54.21 28.52 54.13 28.59 54.05 28.66 53.96 28.75 53.88 28.83 53.79 28.92 53.7 29.02 53.6 29.13 53.51 29.24 53.41 29.35 53.32 29.48 53.22 29.64 53.1 29.8 52.98 28.21 50.85 28.04 50.97 27.88 51.09 27.7 51.23 27.53 51.37 27.38 51.5 27.23 51.63 27.09 51.77 26.95 51.9 26.83 52.02 26.71 52.15 26.6 52.27 26.5 52.38 26.4 52.5 26.31 52.61 26.22 52.72 26.14 52.83 26.06 52.93 25.99 53.03 25.92 53.12 25.86 53.22 25.8 53.31 25.74 53.4 25.68 53.48 25.63 53.56 25.59 53.64 25.54 53.72 25.5 53.79 25.46 53.87 25.42 53.93 25.38 54"/><polyline id="background-8" data-name="background" class="cls-7" points="27.74 52.26 27.77 52.21 27.79 52.16 27.82 52.11 27.85 52.06 27.88 52.01 27.92 51.95 27.95 51.9 27.99 51.84 28.03 51.77 28.07 51.71 28.12 51.65 28.16 51.58 28.21 51.51 28.27 51.44 28.32 51.36 28.38 51.29 28.45 51.21 28.52 51.13 28.59 51.05 28.66 50.96 28.75 50.88 28.83 50.79 28.92 50.7 29.02 50.6 29.13 50.51 29.24 50.41 29.35 50.32 29.48 50.22 29.64 50.1 29.8 49.98 28.21 47.85 28.04 47.97 27.88 48.09 27.7 48.23 27.53 48.37 27.38 48.5 27.23 48.63 27.09 48.77 26.95 48.9 26.83 49.02 26.71 49.15 26.6 49.27 26.5 49.38 26.4 49.5 26.31 49.61 26.22 49.72 26.14 49.83 26.06 49.93 25.99 50.03 25.92 50.12 25.86 50.22 25.8 50.31 25.74 50.4 25.68 50.48 25.63 50.56 25.59 50.64 25.54 50.72 25.5 50.79 25.46 50.87 25.42 50.93 25.38 51"/><g id="section-3" data-name="section"><polyline id="background-9" data-name="background" class="cls-4" points="-21.97 36.66 17.56 58.14 18.52 58.51 19.51 58.74 20.53 58.83 21.55 58.79 22.55 58.61 23.53 58.3 24.45 57.87 25.3 57.31 26.07 56.65 26.75 55.89 27.31 55.04 25.7 54.25 25.25 54.89 24.73 55.46 24.13 55.96 23.47 56.37 22.76 56.69 22.02 56.91 21.25 57.03 20.47 57.05 19.7 56.96 18.94 56.77 18.22 56.48 -21.09 35.1"/><polyline id="background-10" data-name="background" class="cls-5" points="-21.97 33.66 17.56 55.14 18.52 55.51 19.51 55.74 20.53 55.83 21.55 55.79 22.55 55.61 23.53 55.3 24.45 54.87 25.3 54.31 26.07 53.65 26.75 52.89 27.31 52.04 25.7 51.25 25.25 51.89 24.73 52.46 24.13 52.96 23.47 53.37 22.76 53.69 22.02 53.91 21.25 54.03 20.47 54.05 19.7 53.96 18.94 53.77 18.22 53.48 -21.09 32.1"/></g><g id="section-4" data-name="section"><path id="background-11" data-name="background" class="cls-4" d="M1.51,67.66l.63,3.64.32,1,.44.91.56.84.67.77.77.66.85.56.93.44,1,.31,1,.18,1,0,1-.1,1-.23,1-.35.9-.49c2.95-1.44,1.7-3,5.87-3l-.1-1.94c-3.57-.5-4.78,2.45-6.82,3.45l-.7.36-.73.26-.76.16-.78.06-.78,0L8,75l-.74-.25-.69-.35L5.91,74l-.58-.52-.5-.59-.42-.65-.32-.7-.23-.74L1.22,62.66"/><path id="background-12" data-name="background" class="cls-5" d="M1.51,64.66l.63,3.64.32,1,.44.91.56.84.67.77.77.66.85.56.93.44,1,.31,1,.18,1,0,1-.1,1-.23,1-.35.9-.49c2.95-1.44,1.7-3,5.87-3l-.1-1.94c-3.57-.5-4.78,2.45-6.82,3.45l-.7.36-.73.26-.76.16-.78.06-.78,0L8,72l-.74-.25-.69-.35L5.91,71l-.58-.52-.5-.59-.42-.65-.32-.7-.23-.74L1.22,59.66"/></g><g id="section-5" data-name="section"><polyline id="background-13" data-name="background" class="cls-4" points="19.31 70.92 20.26 71.28 21.16 71.76 21.98 72.36 22.72 73.07 23.35 73.86 23.87 74.73 24.26 75.67 24.53 76.65 24.66 77.65 24.65 78.66 24.51 79.67 24.23 80.64 23.82 81.57 23.29 82.43 22.64 83.22 21.89 83.91 21.06 84.5 20.16 84.97 19.2 85.31 18.2 85.53 17.18 85.61 4.71 84.98 3.94 85.04 3.18 85.2 2.44 85.46 1.75 85.82 1.12 86.27 -3.54 90.65 -4.37 91.24 -5.28 91.71 -6.24 92.05 -7.24 92.27 -8.26 92.35 -9.28 92.29 -10.28 92.09 -11.24 91.77 -12.16 91.31 -13 90.74 -13.76 90.07 -14.42 89.29 -14.97 88.44 -15.4 87.52 -15.7 86.55 -13.92 86.25 -13.68 86.98 -13.34 87.68 -12.91 88.32 -12.4 88.9 -11.81 89.41 -11.16 89.83 -10.45 90.16 -9.71 90.4 -8.94 90.53 -8.17 90.56 -7.39 90.49 -6.63 90.31 -5.91 90.03 -5.22 89.66 -4.59 89.2 -0.13 84.97 0.7 84.37 1.59 83.89 2.55 83.53 3.54 83.3 4.56 83.2 17.27 83.82 18.05 83.75 18.8 83.57 19.53 83.3 20.21 82.92 20.84 82.47 21.4 81.93 21.88 81.32 22.27 80.65 22.57 79.94 22.77 79.19 22.87 78.42 22.86 77.65 22.75 76.89 22.53 76.14 22.21 75.44 21.81 74.78 21.31 74.18 20.74 73.66 20.11 73.21 19.41 72.86 18.68 72.59"/><polyline id="background-14" data-name="background" class="cls-5" points="19.31 67.92 20.26 68.28 21.16 68.76 21.98 69.36 22.72 70.07 23.35 70.86 23.87 71.73 24.26 72.67 24.53 73.65 24.66 74.65 24.65 75.66 24.51 76.67 24.23 77.64 23.82 78.57 23.29 79.43 22.64 80.22 21.89 80.91 21.06 81.5 20.16 81.97 19.2 82.31 18.2 82.53 17.18 82.61 4.71 81.98 3.94 82.04 3.18 82.2 2.44 82.46 1.75 82.82 1.12 83.27 -3.54 87.65 -4.37 88.24 -5.28 88.71 -6.24 89.05 -7.24 89.27 -8.26 89.35 -9.28 89.29 -10.28 89.09 -11.24 88.77 -12.16 88.31 -13 87.74 -13.76 87.07 -14.42 86.29 -14.97 85.44 -15.4 84.52 -15.7 83.55 -13.92 83.25 -13.68 83.98 -13.34 84.68 -12.91 85.32 -12.4 85.9 -11.81 86.41 -11.16 86.83 -10.45 87.16 -9.71 87.4 -8.94 87.53 -8.17 87.56 -7.39 87.49 -6.63 87.31 -5.91 87.03 -5.22 86.66 -4.59 86.2 -0.13 81.97 0.7 81.37 1.59 80.89 2.55 80.53 3.54 80.3 4.56 80.2 17.27 80.82 18.05 80.75 18.8 80.57 19.53 80.3 20.21 79.92 20.84 79.47 21.4 78.93 21.88 78.32 22.27 77.65 22.57 76.94 22.77 76.19 22.87 75.42 22.86 74.65 22.75 73.89 22.53 73.14 22.21 72.44 21.81 71.78 21.31 71.18 20.74 70.66 20.11 70.21 19.41 69.86 18.68 69.59"/></g><g id="section-6" data-name="section"><polyline id="background-15" data-name="background" class="cls-4" points="-3.97 65.61 8.05 59.24 8.87 58.65 9.61 57.94 10.24 57.15 10.76 56.27 11.16 55.34 11.42 54.36 11.55 53.36 11.54 52.34 11.4 51.34 11.12 50.37 10.71 49.44 10.18 48.57 9.53 47.79 8.79 47.09 1.58 41.94 1.01 41.42 -0.39 42.53 0.34 43.24 7.73 48.54 8.29 49.08 8.77 49.69 9.16 50.36 9.46 51.07 9.66 51.82 9.76 52.58 9.75 53.36 9.64 54.12 9.42 54.86 9.11 55.57 8.7 56.23 8.2 56.83 7.63 57.35 7 57.8 -4.82 64.03"/><polyline id="background-16" data-name="background" class="cls-5" points="-3.97 62.61 8.05 56.24 8.87 55.65 9.61 54.94 10.24 54.15 10.76 53.27 11.16 52.34 11.42 51.36 11.55 50.36 11.54 49.34 11.4 48.34 11.12 47.37 10.71 46.44 10.18 45.57 9.53 44.79 8.79 44.09 1.58 38.94 1.01 38.42 -0.39 39.53 0.34 40.24 7.73 45.54 8.29 46.08 8.77 46.69 9.16 47.36 9.46 48.07 9.66 48.82 9.76 49.58 9.75 50.36 9.64 51.12 9.42 51.86 9.11 52.57 8.7 53.23 8.2 53.83 7.63 54.35 7 54.8 -4.82 61.03"/></g><g id="section-7" data-name="section"><polyline id="background-17" data-name="background" class="cls-4" points="30.8 94.19 25.4 81.79 24.86 80.92 24.21 80.14 23.47 79.45 22.63 78.87 21.73 78.4 20.77 78.06 19.77 77.85 18.75 77.77 17.73 77.83 16.73 78.03 15.76 78.36 14.85 78.81 14.01 79.39 13.25 80.07 7.48 86.77 6.91 87.29 7.91 88.77 8.68 88.1 14.62 81.23 15.2 80.72 15.85 80.29 16.55 79.96 17.3 79.72 18.06 79.59 18.84 79.55 19.62 79.63 20.38 79.8 21.1 80.07 21.79 80.44 22.42 80.9 22.98 81.44 23.46 82.05 23.85 82.71 29.15 94.9"/><polyline id="background-18" data-name="background" class="cls-5" points="30.8 91.19 25.4 78.79 24.86 77.92 24.21 77.14 23.47 76.45 22.63 75.87 21.73 75.4 20.77 75.06 19.77 74.85 18.75 74.77 17.73 74.83 16.73 75.03 15.76 75.36 14.85 75.81 14.01 76.39 13.25 77.07 7.48 83.77 6.91 84.29 7.91 85.77 8.68 85.1 14.62 78.23 15.2 77.72 15.85 77.29 16.55 76.96 17.3 76.72 18.06 76.59 18.84 76.55 19.62 76.63 20.38 76.8 21.1 77.07 21.79 77.44 22.42 77.9 22.98 78.44 23.46 79.05 23.85 79.71 29.15 91.9"/></g><g id="section-8" data-name="section"><polyline id="background-19" data-name="background" class="cls-4" points="-8.87 57.37 -8.1 57.25 -7.32 57.23 -6.55 57.31 23.81 65.2 24.54 65.48 25.21 65.87 25.83 66.33 26.38 66.88 26.85 67.5 27.24 68.17 27.53 68.89 32.51 89.61 32.59 90.38 32.58 91.15 32.45 91.92 32.22 92.66 31.9 93.36 31.48 94.01 30.98 94.6 30.4 95.12 29.75 95.55 29.06 95.9 28.32 96.15 27.56 96.3 26.78 96.34 26 96.28 25.24 96.12 24.51 95.86 23.82 95.5 23.18 95.06 21.94 96.35 22.76 96.95 23.66 97.43 24.61 97.8 25.61 98.03 26.62 98.12 27.64 98.08 28.65 97.91 29.62 97.59 30.54 97.16 31.4 96.6 32.17 95.94 32.84 95.18 33.41 94.33 33.85 93.42 34.17 92.45 34.35 91.46 34.39 90.45 34.3 89.44 29.28 68.47 28.92 67.53 28.43 66.63 27.83 65.82 27.12 65.09 26.32 64.46 25.44 63.94 24.5 63.55 -6.09 55.59 -7.11 55.46 -8.13 55.46 -9.14 55.6"/><polyline id="background-20" data-name="background" class="cls-5" points="-8.87 54.37 -8.1 54.25 -7.32 54.23 -6.55 54.31 23.81 62.2 24.54 62.48 25.21 62.87 25.83 63.34 26.38 63.88 26.85 64.5 27.24 65.17 27.53 65.89 32.51 86.61 32.59 87.38 32.58 88.15 32.45 88.92 32.22 89.66 31.9 90.36 31.48 91.01 30.98 91.6 30.4 92.12 29.75 92.55 29.06 92.9 28.32 93.15 27.56 93.3 26.78 93.34 26 93.28 25.24 93.12 24.51 92.86 23.82 92.5 23.18 92.06 21.94 93.35 22.76 93.95 23.66 94.43 24.61 94.8 25.61 95.03 26.62 95.12 27.64 95.08 28.65 94.91 29.62 94.59 30.54 94.16 31.4 93.6 32.17 92.94 32.84 92.18 33.41 91.33 33.85 90.42 34.17 89.45 34.35 88.46 34.39 87.45 34.3 86.44 29.28 65.47 28.92 64.53 28.43 63.63 27.83 62.82 27.12 62.09 26.32 61.46 25.44 60.94 24.5 60.55 -6.09 52.59 -7.11 52.46 -8.13 52.46 -9.14 52.6"/></g><g id="background-21" data-name="background"><polygon class="cls-6" points="10.58 41.05 19.24 42.99 19.98 43.25 20.66 43.61 21.3 44.06 21.87 44.59 22.36 45.19 22.77 45.84 23.08 46.55 23.29 47.3 23.4 48.06 23.41 48.83 23.31 49.6 23.11 50.34 22.81 51.06 22.41 51.72 21.93 52.33 21.37 52.87 20.74 53.32 20.05 53.69 19.33 53.97 18.57 54.14 18.71 55.92 19.71 55.71 20.68 55.37 21.58 54.9 22.42 54.32 23.16 53.63 23.81 52.84 24.35 51.98 24.76 51.05 25.04 50.08 25.19 49.08 25.2 48.06 25.08 47.06 24.82 46.08 24.42 45.15 23.91 44.27 23.28 43.47 22.55 42.77 21.72 42.16 20.83 41.68 19.87 41.32 10.98 39.31 10.23 39.09 9.52 38.78 8.85 38.38 8.25 37.89 7.72 37.33 7.27 36.7 6.91 36.01 6.64 35.28 6.48 34.53 6.42 33.76 6.46 32.99 6.62 32.23 6.87 31.5 7.22 30.81 7.66 30.17 8.18 29.6 8.77 29.1 9.43 28.68 10.14 28.36 10.88 28.14 11.65 28.01 12.43 27.99 13.21 28.08 13.96 28.26 14.69 28.55 15.36 28.93 15.98 29.4 16.53 29.94 17.01 30.56 18.58 29.69 17.98 28.88 17.27 28.15 16.47 27.52 15.59 27 14.65 26.61 13.66 26.35 12.65 26.22 11.63 26.23 10.61 26.37 9.63 26.65 8.7 27.05 7.82 27.58 7.03 28.22 6.33 28.96 5.74 29.79 5.27 30.68 4.92 31.64 4.7 32.63 4.62 33.63 4.68 34.65 4.88 35.64 5.21 36.6 5.66 37.51 6.24 38.34 6.92 39.1 7.7 39.75 8.56 40.3 9.49 40.72 10.46 41.02 10.58 41.05"/><polygon class="cls-8" points="10.58 41.05 19.24 42.99 19.98 43.25 20.66 43.61 21.3 44.06 21.87 44.59 22.36 45.19 22.77 45.84 23.08 46.55 23.29 47.3 23.4 48.06 23.41 48.83 23.31 49.6 23.11 50.34 22.81 51.06 22.41 51.72 21.93 52.33 21.37 52.87 20.74 53.32 20.05 53.69 19.33 53.97 18.57 54.14 18.71 55.92 19.71 55.71 20.68 55.37 21.58 54.9 22.42 54.32 23.16 53.63 23.81 52.84 24.35 51.98 24.76 51.05 25.04 50.08 25.19 49.08 25.2 48.06 25.08 47.06 24.82 46.08 24.42 45.15 23.91 44.27 23.28 43.47 22.55 42.77 21.72 42.16 20.83 41.68 19.87 41.32 10.98 39.31 10.23 39.09 9.52 38.78 8.85 38.38 8.25 37.89 7.72 37.33 7.27 36.7 6.91 36.01 6.64 35.28 6.48 34.53 6.42 33.76 6.46 32.99 6.62 32.23 6.87 31.5 7.22 30.81 7.66 30.17 8.18 29.6 8.77 29.1 9.43 28.68 10.14 28.36 10.88 28.14 11.65 28.01 12.43 27.99 13.21 28.08 13.96 28.26 14.69 28.55 15.36 28.93 15.98 29.4 16.53 29.94 17.01 30.56 18.58 29.69 17.98 28.88 17.27 28.15 16.47 27.52 15.59 27 14.65 26.61 13.66 26.35 12.65 26.22 11.63 26.23 10.61 26.37 9.63 26.65 8.7 27.05 7.82 27.58 7.03 28.22 6.33 28.96 5.74 29.79 5.27 30.68 4.92 31.64 4.7 32.63 4.62 33.63 4.68 34.65 4.88 35.64 5.21 36.6 5.66 37.51 6.24 38.34 6.92 39.1 7.7 39.75 8.56 40.3 9.49 40.72 10.46 41.02 10.58 41.05"/><polygon class="cls-7" points="10.58 38.05 19.24 39.99 19.98 40.25 20.66 40.61 21.3 41.06 21.87 41.59 22.36 42.19 22.77 42.84 23.08 43.55 23.29 44.3 23.4 45.06 23.41 45.83 23.31 46.6 23.11 47.34 22.81 48.06 22.41 48.72 21.93 49.33 21.37 49.87 20.74 50.32 20.05 50.69 19.33 50.97 18.57 51.14 18.71 52.92 19.71 52.71 20.68 52.37 21.58 51.9 22.42 51.32 23.16 50.63 23.81 49.84 24.35 48.98 24.76 48.05 25.04 47.08 25.19 46.08 25.2 45.06 25.08 44.06 24.82 43.08 24.42 42.15 23.91 41.27 23.28 40.47 22.55 39.77 21.72 39.16 20.83 38.68 19.87 38.32 10.98 36.31 10.23 36.09 9.52 35.78 8.85 35.38 8.25 34.89 7.72 34.33 7.27 33.7 6.91 33.01 6.64 32.28 6.48 31.53 6.42 30.76 6.46 29.99 6.62 29.23 6.87 28.5 7.22 27.81 7.66 27.17 8.18 26.6 8.77 26.1 9.43 25.68 10.14 25.36 10.88 25.14 11.65 25.01 12.43 24.99 13.21 25.08 13.96 25.26 14.69 25.55 15.36 25.93 15.98 26.4 16.53 26.94 17.01 27.56 18.58 26.69 17.98 25.88 17.27 25.15 16.47 24.52 15.59 24 14.65 23.61 13.66 23.35 12.65 23.22 11.63 23.23 10.61 23.37 9.63 23.65 8.7 24.05 7.82 24.58 7.03 25.22 6.33 25.96 5.74 26.79 5.27 27.68 4.92 28.64 4.7 29.63 4.62 30.64 4.68 31.65 4.88 32.64 5.21 33.6 5.66 34.51 6.24 35.34 6.92 36.1 7.7 36.75 8.56 37.3 9.49 37.72 10.46 38.02 10.58 38.05"/><polygon class="cls-9" points="10.58 38.05 19.24 39.99 19.98 40.25 20.66 40.61 21.3 41.06 21.87 41.59 22.36 42.19 22.77 42.84 23.08 43.55 23.29 44.3 23.4 45.06 23.41 45.83 23.31 46.6 23.11 47.34 22.81 48.06 22.41 48.72 21.93 49.33 21.37 49.87 20.74 50.32 20.05 50.69 19.33 50.97 18.57 51.14 18.71 52.92 19.71 52.71 20.68 52.37 21.58 51.9 22.42 51.32 23.16 50.63 23.81 49.84 24.35 48.98 24.76 48.05 25.04 47.08 25.19 46.08 25.2 45.06 25.08 44.06 24.82 43.08 24.42 42.15 23.91 41.27 23.28 40.47 22.55 39.77 21.72 39.16 20.83 38.68 19.87 38.32 10.98 36.31 10.23 36.09 9.52 35.78 8.85 35.38 8.25 34.89 7.72 34.33 7.27 33.7 6.91 33.01 6.64 32.28 6.48 31.53 6.42 30.76 6.46 29.99 6.62 29.23 6.87 28.5 7.22 27.81 7.66 27.17 8.18 26.6 8.77 26.1 9.43 25.68 10.14 25.36 10.88 25.14 11.65 25.01 12.43 24.99 13.21 25.08 13.96 25.26 14.69 25.55 15.36 25.93 15.98 26.4 16.53 26.94 17.01 27.56 18.58 26.69 17.98 25.88 17.27 25.15 16.47 24.52 15.59 24 14.65 23.61 13.66 23.35 12.65 23.22 11.63 23.23 10.61 23.37 9.63 23.65 8.7 24.05 7.82 24.58 7.03 25.22 6.33 25.96 5.74 26.79 5.27 27.68 4.92 28.64 4.7 29.63 4.62 30.64 4.68 31.65 4.88 32.64 5.21 33.6 5.66 34.51 6.24 35.34 6.92 36.1 7.7 36.75 8.56 37.3 9.49 37.72 10.46 38.02 10.58 38.05"/></g><g id="section-9" data-name="section"><path id="background-22" data-name="background" class="cls-4" d="M36,29l-.29-1-.41-.93-.54-.86L31,21.46l-.75-.69-.84-.58-.91-.47-1-.34-1-.21-1-.07-1,.06-1,.2-1,.33-.91.46-.85.57L20,21.4l-.66.78L18,24.34l-.5.59-.58.52-.64.44-.69.35-.74.26-.76.15-.78.05-.78-.05a5.07,5.07,0,0,1-2.41-1.91C9,23.21,7,23,8.59,25.69s3.54,2.7,3.54,2.7l1,.09,1-.05,1-.18,1-.32.92-.44.85-.56.77-.67.67-.76,1.53-2.35.51-.59.59-.51.65-.42.7-.34.74-.24.76-.14.78,0,.78.07.76.17.73.28.68.37.63.45.56.54,3.63,4.58.4.67.3.71.2.74"/><path id="background-23" data-name="background" class="cls-5" d="M36,26l-.29-1-.41-.93-.54-.86L31,18.46l-.75-.69-.84-.58-.91-.47-1-.34-1-.21-1-.07-1,.06-1,.2-1,.33-.91.46-.85.57L20,18.4l-.66.78L18,21.34l-.5.59-.58.52-.64.44-.69.35-.74.26-.76.15-.78.05-.78-.05a5.07,5.07,0,0,1-2.41-1.91C9,20.21,7,20,8.59,22.69s3.54,2.7,3.54,2.7l1,.09,1-.05,1-.18,1-.32.92-.44.85-.56.77-.67.67-.76,1.53-2.35.51-.59.59-.51.65-.42.7-.34.74-.24.76-.14.78,0,.78.07.76.17.73.28.68.37.63.45.56.54,3.63,4.58.4.67.3.71.2.74"/></g><g id="section-10" data-name="section"><polyline id="background-24" data-name="background" class="cls-4" points="18.45 40.3 24.29 26.27 31.76 6.67 30.09 5.99 22.63 25.59 16.79 39.62"/><polyline id="background-25" data-name="background" class="cls-5" points="18.45 37.3 24.29 23.27 31.76 3.67 30.09 2.98 22.63 22.59 16.79 36.62"/></g><g id="section-11" data-name="section"><polyline id="background-26" data-name="background" class="cls-4" points="20.24 70.01 21.19 69.63 22.08 69.14 22.9 68.53 23.62 67.81 24.25 67.01 24.75 66.13 25.13 65.19 25.39 64.21 25.5 63.2 25.48 62.19 25.32 61.19 25.03 60.22 24.6 59.3 24.06 58.44 23.4 57.66 22.65 56.98 21.81 56.4 17.91 54.42 17.27 53.98 16.69 53.46 16.19 52.87 15.77 52.22 15.45 51.52 15.22 50.78 15.1 50.01 15.08 49.24 15.17 48.47 15.36 47.72 18.11 41.12 18.45 40.3 16.79 39.62 16.44 40.44 13.69 47.04 13.43 48.02 13.29 49.02 13.3 50.04 13.44 51.04 13.72 52.02 14.13 52.94 14.66 53.81 15.3 54.6 16.05 55.29 16.88 55.88 20.98 57.99 21.61 58.44 22.18 58.97 22.67 59.57 23.07 60.23 23.38 60.94 23.59 61.69 23.7 62.45 23.7 63.23 23.6 63.99 23.39 64.74 23.09 65.45 22.69 66.11 22.2 66.72 21.64 67.25 21.01 67.7 20.32 68.07 19.59 68.34"/><polyline id="background-27" data-name="background" class="cls-5" points="20.24 67.01 21.19 66.63 22.08 66.14 22.9 65.53 23.62 64.81 24.25 64.01 24.75 63.13 25.13 62.19 25.39 61.21 25.5 60.2 25.48 59.19 25.32 58.19 25.03 57.22 24.6 56.3 24.06 55.44 23.4 54.66 22.65 53.98 21.81 53.4 17.91 51.42 17.27 50.98 16.69 50.46 16.19 49.87 15.77 49.22 15.45 48.52 15.22 47.78 15.1 47.01 15.08 46.24 15.17 45.47 15.36 44.72 18.11 38.12 18.45 37.3 16.79 36.62 16.44 37.44 13.69 44.04 13.43 45.02 13.29 46.02 13.3 47.04 13.44 48.04 13.72 49.02 14.13 49.94 14.66 50.81 15.3 51.6 16.05 52.29 16.88 52.88 20.98 54.99 21.61 55.44 22.18 55.97 22.67 56.57 23.07 57.23 23.38 57.94 23.59 58.69 23.7 59.45 23.7 60.23 23.6 60.99 23.39 61.74 23.09 62.45 22.69 63.11 22.2 63.72 21.64 64.25 21.01 64.7 20.32 65.07 19.59 65.34"/></g><g id="section-12" data-name="section"><path id="background-28" data-name="background" class="cls-10" d="M-5.43,42.81l.62,18,.18,1,.31,1,.45.92.56.84.67.77.77.66.85.56.92.44,1,.31L17.8,70.38A5.48,5.48,0,0,0,20.24,70l-.65-1.67a4.26,4.26,0,0,1-1.7.26L1.21,65.48l-.74-.25-.7-.35-.64-.44-.58-.52-.5-.59-.41-.65-.33-.7-.22-.74L-3,60.47l-.6-17.72"/><path id="background-29" data-name="background" class="cls-11" d="M-5.43,39.81l.62,18,.18,1,.31,1,.45.92.56.84.67.77.77.66.85.56.92.44,1,.31L17.8,67.38A5.48,5.48,0,0,0,20.24,67l-.65-1.67a4.26,4.26,0,0,1-1.7.26L1.21,62.48l-.74-.25-.7-.35-.64-.44-.58-.52-.5-.59-.41-.65-.33-.7-.22-.74L-3,57.47l-.6-17.72"/></g><g id="background-30" data-name="background"><polyline class="cls-6" points="10.63 64.94 11.61 64.64 12.54 64.22 13.4 63.68 14.18 63.03 14.87 62.28 15.45 61.44 15.91 60.54 16.24 59.58 18.04 50.95 18.29 50.22 18.64 49.53 19.08 48.9 27.09 40.27 27.67 39.44 28.13 38.53 28.46 37.57 28.66 36.58 28.72 35.57 28.65 34.56 28.43 33.57 28.09 32.61 27.62 31.71 27.03 30.89 26.34 30.14 25.55 29.5 24.68 28.97 23.74 28.56 22.76 28.28 21.75 28.13 20.73 28.12 19.72 28.24 18.73 28.5 19.41 30.16 20.16 29.97 20.94 29.89 21.72 29.91 22.48 30.04 23.23 30.27 23.93 30.6 24.59 31.01 25.18 31.52 25.7 32.09 26.14 32.73 26.49 33.42 26.73 34.15 26.88 34.91 26.93 35.68 26.86 36.45 26.7 37.21 26.43 37.94 26.07 38.62 25.61 39.25 17.75 47.69 17.16 48.51 16.69 49.41 16.34 50.36 14.48 59.22 14.21 59.94 13.85 60.63 13.39 61.26 12.86 61.82 12.25 62.3 11.59 62.7 10.87 63.01 10.12 63.22"/><polyline class="cls-8" points="10.63 64.94 11.61 64.64 12.54 64.22 13.4 63.68 14.18 63.03 14.87 62.28 15.45 61.44 15.91 60.54 16.24 59.58 18.04 50.95 18.29 50.22 18.64 49.53 19.08 48.9 27.09 40.27 27.67 39.44 28.13 38.53 28.46 37.57 28.66 36.58 28.72 35.57 28.65 34.56 28.43 33.57 28.09 32.61 27.62 31.71 27.03 30.89 26.34 30.14 25.55 29.5 24.68 28.97 23.74 28.56 22.76 28.28 21.75 28.13 20.73 28.12 19.72 28.24 18.73 28.5 19.41 30.16 20.16 29.97 20.94 29.89 21.72 29.91 22.48 30.04 23.23 30.27 23.93 30.6 24.59 31.01 25.18 31.52 25.7 32.09 26.14 32.73 26.49 33.42 26.73 34.15 26.88 34.91 26.93 35.68 26.86 36.45 26.7 37.21 26.43 37.94 26.07 38.62 25.61 39.25 17.75 47.69 17.16 48.51 16.69 49.41 16.34 50.36 14.48 59.22 14.21 59.94 13.85 60.63 13.39 61.26 12.86 61.82 12.25 62.3 11.59 62.7 10.87 63.01 10.12 63.22"/><polyline class="cls-7" points="10.63 61.94 11.61 61.64 12.54 61.22 13.4 60.68 14.18 60.03 14.87 59.28 15.45 58.44 15.91 57.54 16.24 56.58 18.04 47.95 18.29 47.22 18.64 46.53 19.08 45.9 27.09 37.27 27.67 36.44 28.13 35.53 28.46 34.57 28.66 33.58 28.72 32.57 28.65 31.56 28.43 30.57 28.09 29.61 27.62 28.71 27.03 27.89 26.34 27.14 25.55 26.5 24.68 25.97 23.74 25.56 22.76 25.28 21.75 25.13 20.73 25.12 19.72 25.24 18.73 25.5 19.41 27.16 20.16 26.97 20.94 26.89 21.72 26.91 22.48 27.04 23.23 27.27 23.93 27.6 24.59 28.01 25.18 28.52 25.7 29.09 26.14 29.73 26.49 30.42 26.73 31.15 26.88 31.91 26.93 32.68 26.86 33.45 26.7 34.21 26.43 34.94 26.07 35.62 25.61 36.25 17.75 44.69 17.16 45.51 16.69 46.41 16.34 47.36 14.48 56.22 14.21 56.94 13.85 57.63 13.39 58.26 12.86 58.82 12.25 59.3 11.59 59.7 10.87 60.01 10.12 60.22"/><polyline class="cls-9" points="10.63 61.94 11.61 61.64 12.54 61.22 13.4 60.68 14.18 60.03 14.87 59.28 15.45 58.44 15.91 57.54 16.24 56.58 18.04 47.95 18.29 47.22 18.64 46.53 19.08 45.9 27.09 37.27 27.67 36.44 28.13 35.53 28.46 34.57 28.66 33.58 28.72 32.57 28.65 31.56 28.43 30.57 28.09 29.61 27.62 28.71 27.03 27.89 26.34 27.14 25.55 26.5 24.68 25.97 23.74 25.56 22.76 25.28 21.75 25.13 20.73 25.12 19.72 25.24 18.73 25.5 19.41 27.16 20.16 26.97 20.94 26.89 21.72 26.91 22.48 27.04 23.23 27.27 23.93 27.6 24.59 28.01 25.18 28.52 25.7 29.09 26.14 29.73 26.49 30.42 26.73 31.15 26.88 31.91 26.93 32.68 26.86 33.45 26.7 34.21 26.43 34.94 26.07 35.62 25.61 36.25 17.75 44.69 17.16 45.51 16.69 46.41 16.34 47.36 14.48 56.22 14.21 56.94 13.85 57.63 13.39 58.26 12.86 58.82 12.25 59.3 11.59 59.7 10.87 60.01 10.12 60.22"/></g><g id="section-13" data-name="section"><polyline id="background-31" data-name="background" class="cls-4" points="34.27 29.4 34.45 30.15 34.54 30.91 34.52 31.69 34.4 32.45 34.17 33.19 33.85 33.89 33.43 34.54 32.93 35.13 32.35 35.65 31.71 36.09 31.01 36.44 30.27 36.69 29.51 36.84 28.73 36.88 27.96 36.83 27.19 36.66 26.46 36.4 25.13 35.6 25.13 35.6 19.09 30.28 17.51 31.05 23.89 36.89 24.72 37.49 25.61 37.98 26.57 38.34 27.56 38.57 28.58 38.66 29.6 38.62 30.61 38.44 31.58 38.13 32.5 37.69 33.35 37.14 34.12 36.47 34.79 35.71 35.36 34.86 35.8 33.95 36.11 32.99 36.3 31.99 36.34 30.98 36.24 29.97 36.02 28.98"/><polyline id="background-32" data-name="background" class="cls-5" points="34.27 26.4 34.45 27.15 34.54 27.91 34.52 28.69 34.4 29.45 34.17 30.19 33.85 30.89 33.43 31.54 32.93 32.13 32.35 32.65 31.71 33.09 31.01 33.44 30.27 33.69 29.51 33.84 28.73 33.88 27.96 33.83 27.19 33.66 26.46 33.4 25.13 32.6 25.13 32.6 19.09 27.28 17.51 28.05 23.89 33.89 24.72 34.49 25.61 34.98 26.57 35.34 27.56 35.57 28.58 35.66 29.6 35.62 30.61 35.44 31.58 35.13 32.5 34.69 33.35 34.14 34.12 33.47 34.79 32.71 35.36 31.86 35.8 30.95 36.11 29.99 36.3 28.99 36.34 27.98 36.24 26.97 36.02 25.98"/></g><g id="section-14" data-name="section"><polyline id="background-33" data-name="background" class="cls-4" points="1.01 71.31 5.21 67.18 5.81 66.68 6.47 66.26 7.17 65.94 9.77 65.19 10.63 64.94 10.12 63.22 9.26 63.47 6.67 64.23 5.73 64.63 4.86 65.16 4.07 65.8 -0.31 70.1"/><polyline id="background-34" data-name="background" class="cls-5" points="1.01 68.31 5.21 64.18 5.81 63.68 6.47 63.26 7.17 62.94 9.77 62.19 10.63 61.94 10.12 60.22 9.26 60.47 6.67 61.23 5.73 61.63 4.86 62.16 4.07 62.8 -0.31 67.1"/></g><g id="background-35" data-name="background"><path class="cls-6" d="M20.73,28.12l-1,.12-1,.26-8.34,3.36-.84.34L.68,35.82l.45,1.72,9.1-3.69.84-.33,8.34-3.36.75-.19.78-.08a6.15,6.15,0,0,1,1.83.24"/><path class="cls-8" d="M20.73,28.12l-1,.12-1,.26-8.34,3.36-.84.34L.68,35.82l.45,1.72,9.1-3.69.84-.33,8.34-3.36.75-.19.78-.08a6.15,6.15,0,0,1,1.83.24"/><path class="cls-7" d="M20.73,25.12l-1,.12-1,.26-8.34,3.36-.84.34L.68,32.82l.45,1.72,9.1-3.69.84-.33,8.34-3.36.75-.19.78-.08a6.15,6.15,0,0,1,1.83.24"/><path class="cls-9" d="M20.73,25.12l-1,.12-1,.26-8.34,3.36-.84.34L.68,32.82l.45,1.72,9.1-3.69.84-.33,8.34-3.36.75-.19.78-.08a6.15,6.15,0,0,1,1.83.24"/></g></g><polygon class="cls-12" points="46 2 46 98 87 74 87 26 46 2"/><path class="cls-7" d="M78.28,58.09a6.75,6.75,0,0,0-7.67-2.86A18.09,18.09,0,0,0,62,49.6a28.62,28.62,0,0,0,5.91-6.16,6.91,6.91,0,0,0,5.17-.83,6.77,6.77,0,1,0-9.34-2.11,6.27,6.27,0,0,0,.42.59,23.88,23.88,0,0,1-9.52,7.79h0A18.45,18.45,0,0,1,46,51v5c4,0,5.93-1.12,10-2.9a14.78,14.78,0,0,1,11,4.75,6.76,6.76,0,1,0,12.16,5.32A6.64,6.64,0,0,0,78.28,58.09ZM68.06,34.67a2.57,2.57,0,0,1,1.4-.41,2.62,2.62,0,1,1,0,5.24,2.61,2.61,0,0,1-2.22-1.21A2.63,2.63,0,0,1,68.06,34.67Zm7.06,27.6A2.61,2.61,0,0,1,74,63.91a2.56,2.56,0,0,1-1.39.41,2.62,2.62,0,0,1-1.52-4.75l.12-.07a2.65,2.65,0,0,1,3.6.8A2.59,2.59,0,0,1,75.12,62.27Z"/><path class="cls-2" d="M114.57,10.7l6.24,23.7,6.25-23.7h11.3V46h-8.61V39l.82-16.42L123.63,46H118l-6.91-23.33.82,16.3v7H103.3V10.7Z"/><path class="cls-2" d="M156.23,46.56c-4.06,0-7.21-1.21-9.48-3.63s-3.4-5.87-3.4-10.37V30.17q0-7.14,3.12-11t8.95-3.88q5.69,0,8.55,3.64t2.93,10.75v3.87H151.21a8.13,8.13,0,0,0,1.48,4.91,5,5,0,0,0,4,1.56,8.82,8.82,0,0,0,6.6-2.71l3.1,4.77a10.23,10.23,0,0,1-4.21,3.25A14.56,14.56,0,0,1,156.23,46.56Zm-5-18.51h7.89v-.73a8.3,8.3,0,0,0-.89-4.09,3.1,3.1,0,0,0-2.9-1.4,3.28,3.28,0,0,0-3,1.48A10.21,10.21,0,0,0,151.26,28.05Z"/><path class="cls-2" d="M184.71,37.92a2.48,2.48,0,0,0-1-1.86,19.46,19.46,0,0,0-4.28-2.3q-4.87-2-6.7-4.09a7.79,7.79,0,0,1-1.83-5.27,8.45,8.45,0,0,1,2.86-6.54,10.88,10.88,0,0,1,7.57-2.58,11.75,11.75,0,0,1,7.94,2.57,8.6,8.6,0,0,1,3,6.88h-7.88c0-2.45-1-3.68-3.07-3.68a2.84,2.84,0,0,0-2.06.78,2.89,2.89,0,0,0-.81,2.18,2.29,2.29,0,0,0,.89,1.77A20,20,0,0,0,183.57,28c3.21,1.19,5.49,2.51,6.81,4a8.1,8.1,0,0,1,2,5.67,7.91,7.91,0,0,1-3,6.49,12.28,12.28,0,0,1-8,2.46,12.8,12.8,0,0,1-5.86-1.3,9.84,9.84,0,0,1-4-3.61,9.24,9.24,0,0,1-1.43-5h7.5a4.72,4.72,0,0,0,1,3.1,3.79,3.79,0,0,0,3,1Q184.71,40.79,184.71,37.92Z"/><path class="cls-2" d="M210.64,37.92a2.46,2.46,0,0,0-1-1.86,19.31,19.31,0,0,0-4.27-2.3c-3.26-1.32-5.49-2.68-6.71-4.09a7.79,7.79,0,0,1-1.82-5.27,8.44,8.44,0,0,1,2.85-6.54,10.88,10.88,0,0,1,7.57-2.58,11.78,11.78,0,0,1,8,2.57,8.63,8.63,0,0,1,3,6.88h-7.89q0-3.68-3.07-3.68a2.85,2.85,0,0,0-2.06.78,2.89,2.89,0,0,0-.81,2.18,2.29,2.29,0,0,0,.89,1.77A20,20,0,0,0,209.49,28q4.83,1.79,6.82,4a8.09,8.09,0,0,1,2,5.67,7.91,7.91,0,0,1-3,6.49,12.26,12.26,0,0,1-8,2.46,12.73,12.73,0,0,1-5.85-1.3,9.87,9.87,0,0,1-4-3.61,9.33,9.33,0,0,1-1.43-5h7.5a4.77,4.77,0,0,0,1,3.1,3.79,3.79,0,0,0,3,1Q210.64,40.79,210.64,37.92Z"/><path class="cls-2" d="M232.88,32.87l4-17h8.42l-9.92,34.68q-2.23,7.66-8.39,7.66a11.84,11.84,0,0,1-3.24-.53V51.49l.92,0a4.59,4.59,0,0,0,2.78-.71,4.53,4.53,0,0,0,1.41-2.47l.61-2-8.7-30.47h8.48Z"/><path class="cls-12" d="M103.3,92V56.7h12c4.12,0,7.27.84,9.44,2.5A8.61,8.61,0,0,1,128,66.46a9.07,9.07,0,0,1-1.19,4.7,6.91,6.91,0,0,1-3.48,2.93,6.77,6.77,0,0,1,3.85,2.78,8.81,8.81,0,0,1,1.36,5c0,3.52-1,6.08-3.06,7.7S120.37,92,116.27,92Zm8.58-20.63H116c2.28-.06,3.42-1.28,3.42-3.64a4.23,4.23,0,0,0-.85-3,3.4,3.4,0,0,0-2.6-.9h-4.09Zm0,6v7.6h4.39a3.35,3.35,0,0,0,3.7-3.65q0-3.83-3.09-4Z"/><path class="cls-12" d="M148.66,69.45,146,69.23a4.3,4.3,0,0,0-4.38,2.84V92h-7.91V61.84h7.44l.22,3.26c1.25-2.54,3-3.82,5.16-3.82a5.33,5.33,0,0,1,2.17.37Z"/><path class="cls-12" d="M166.19,92a11.67,11.67,0,0,1-.67-2.34,6.74,6.74,0,0,1-5.74,2.9,8.49,8.49,0,0,1-6.28-2.51,8.8,8.8,0,0,1-2.5-6.5,9.14,9.14,0,0,1,3-7.33c2-1.72,4.92-2.61,8.71-2.64h2.39V71.15a4.57,4.57,0,0,0-.69-2.87,2.51,2.51,0,0,0-2-.84c-2,0-3,1.16-3,3.46h-7.89a8.72,8.72,0,0,1,3.13-6.9,11.71,11.71,0,0,1,7.93-2.72q5,0,7.68,2.58C172.12,65.58,173,68,173,71.23V85.42a14.86,14.86,0,0,0,1.12,6.11V92Zm-4.65-5.63a4.46,4.46,0,0,0,2.23-.53,3.69,3.69,0,0,0,1.36-1.25V78.31h-1.89a4,4,0,0,0-3.17,1.29A4.9,4.9,0,0,0,158.92,83C158.92,85.25,159.79,86.37,161.54,86.37Z"/><path class="cls-12" d="M178.74,54a4.07,4.07,0,0,1,1.17-3,4.71,4.71,0,0,1,6.24,0,4.07,4.07,0,0,1,1.17,3,4.18,4.18,0,0,1-1.16,3,4.29,4.29,0,0,1-7.42-3ZM187,92H179.1V61.84H187Z"/><path class="cls-12" d="M200.34,61.84l.22,3a8.37,8.37,0,0,1,7-3.54q7.77,0,8,10.9V92h-7.92V72.77a6.93,6.93,0,0,0-.77-3.72,3,3,0,0,0-2.69-1.16,3.67,3.67,0,0,0-3.34,2.2V92h-7.92V61.84Z"/><path class="cls-12" d="M229.94,85.45h11.93V92h-21.3V87.07l11.65-18.65H220.85V61.84H241.7v4.77Z"/></svg>