<svg xmlns="http://www.w3.org/2000/svg" xmlns:xlink="http://www.w3.org/1999/xlink" viewBox="0 0 410 150"><defs><style>.cls-1,.cls-10,.cls-11{fill:none;}.cls-2{isolation:isolate;}.cls-3{fill:#eb743b;}.cls-4{fill:#b50437;}.cls-5{clip-path:url(#clip-path);}.cls-12,.cls-6,.cls-8{fill:#8e0324;}.cls-10,.cls-12,.cls-6{stroke:#8e0324;}.cls-10,.cls-11,.cls-12,.cls-13,.cls-6,.cls-7{stroke-width:1.5px;}.cls-13,.cls-7,.cls-9{fill:#fffedb;}.cls-11,.cls-13,.cls-7{stroke:#fffedb;}.cls-12,.cls-13{stroke-linecap:square;stroke-linejoin:round;}.cls-14{mix-blend-mode:multiply;opacity:0.07;}.cls-15{fill:#d3562c;}</style><clipPath id="clip-path"><polygon class="cls-1" points="9 108.94 9 40.73 65 8.52 65 141.02 9 108.94"/></clipPath></defs><g class="cls-2"><g id="Layer_1" data-name="Layer 1"><polygon class="cls-3" points="70 2.83 70 146.83 131 111.83 131 37.83 70 2.83"/><polygon class="cls-4" points="65 2.83 4 37.83 4 111.83 65 146.83 65 2.83"/><g class="cls-5"><g id="section"><polyline id="background" class="cls-6" points="3.09 45.37 2.17 46.07 1.35 46.89 0.65 47.81 0.07 48.81 -0.36 49.89 -0.64 51.02 -0.77 52.17 -0.74 53.33 -0.56 54.47 -0.22 55.58 0.26 56.63 0.88 57.61 1.63 58.5 2.49 59.28 3.44 59.93 4.48 60.45 5.58 60.83 6.71 61.05 7.87 61.12 9.03 61.04 10.16 60.8 11.25 60.41 12.28 59.87 13.22 59.2 14.07 58.41 14.81 57.52 15.41 56.53 15.88 55.47 16.19 53.81 16.55 52.52 19.13 53.23 18.77 54.52 18.46 56.18 17.87 57.58 17.1 58.89 16.16 60.09 15.07 61.14 13.85 62.04 12.51 62.77 11.09 63.31 9.61 63.65 8.1 63.79 6.58 63.73 5.08 63.46 3.64 62.99 2.27 62.34 1 61.5 -0.15 60.5 -1.15 59.36 -1.99 58.09 -2.64 56.72 -3.11 55.27 -3.38 53.78 -3.44 52.26 -3.31 50.75 -2.96 49.27 -2.42 47.84 -1.7 46.51 -0.8 45.28 0.26 44.19 1.45 43.25"/><polyline id="background-2" data-name="background" class="cls-7" points="3.09 42.37 2.17 43.07 1.35 43.89 0.65 44.81 0.07 45.81 -0.36 46.89 -0.64 48.02 -0.77 49.17 -0.74 50.33 -0.56 51.47 -0.22 52.58 0.26 53.63 0.88 54.61 1.63 55.5 2.49 56.28 3.44 56.93 4.48 57.45 5.58 57.83 6.71 58.05 7.87 58.12 9.03 58.04 10.16 57.8 11.25 57.41 12.28 56.87 13.22 56.2 14.07 55.41 14.81 54.52 15.41 53.53 15.88 52.47 16.19 50.81 16.55 49.52 19.13 50.23 18.77 51.52 18.46 53.18 17.87 54.58 17.1 55.89 16.16 57.09 15.07 58.14 13.85 59.04 12.51 59.77 11.09 60.31 9.61 60.65 8.1 60.79 6.58 60.73 5.08 60.46 3.64 59.99 2.27 59.34 1 58.5 -0.15 57.5 -1.15 56.36 -1.99 55.09 -2.64 53.72 -3.11 52.27 -3.38 50.78 -3.44 49.26 -3.31 47.75 -2.96 46.27 -2.42 44.84 -1.7 43.51 -0.8 42.28 0.26 41.19 1.45 40.25"/></g><g id="section-2" data-name="section"><polyline id="background-3" data-name="background" class="cls-6" points="16.19 58.09 17.21 56.97 18.07 55.72 18.76 54.36 19.25 52.92 19.55 51.43 19.64 49.92 19.53 48.4 19.22 46.91 18.71 45.48 18.01 44.13 17.13 42.89 16.1 41.78 14.92 40.82 13.63 40.02 12.24 39.4 10.78 38.98 9.27 38.76 -9.47 38.4 -10.81 38.37 -10.86 41.05 -9.52 41.07 9.22 41.44 10.37 41.63 11.47 41.97 12.52 42.46 13.5 43.09 14.38 43.84 15.15 44.7 15.8 45.66 16.32 46.7 16.69 47.8 16.91 48.94 16.97 50.09 16.88 51.25 16.63 52.38 16.23 53.47 15.69 54.49 15.02 55.44 14.22 56.28"/><polyline id="background-4" data-name="background" class="cls-7" points="16.19 55.09 17.21 53.97 18.07 52.72 18.76 51.36 19.25 49.92 19.55 48.43 19.64 46.92 19.53 45.4 19.22 43.91 18.71 42.48 18.01 41.13 17.13 39.89 16.1 38.78 14.92 37.82 13.63 37.02 12.24 36.4 10.78 35.98 9.27 35.76 -9.47 35.4 -10.81 35.37 -10.86 38.05 -9.52 38.07 9.22 38.44 10.37 38.63 11.47 38.97 12.52 39.46 13.5 40.09 14.38 40.84 15.15 41.7 15.8 42.66 16.32 43.7 16.69 44.8 16.91 45.94 16.97 47.09 16.88 48.25 16.63 49.38 16.23 50.47 15.69 51.49 15.02 52.44 14.22 53.28"/></g><polyline id="background-5" data-name="background" class="cls-8" points="45.37 77.81 45.57 77.65 45.79 77.5 46.02 77.35 46.26 77.19 47.51 76.48 47.8 76.32 48.11 76.17 48.44 76.03 48.81 75.88 49.1 75.78 49.31 75.71 49.41 75.67 49.51 75.64 49.62 75.61 49.73 75.58 49.85 75.55 49.98 75.51 50.1 75.48 52.06 75.04 52.23 75 52.41 74.97 52.6 74.94 52.8 74.91 53 74.89 53.21 74.86 53.44 74.85 53.67 74.83 53.91 74.83 69.38 74.82 70 74.82 70 70.83 69.38 70.83 53.91 70.84 53.56 70.85 53.23 70.87 52.91 70.89 52.6 70.92 52.31 70.96 52.03 71 51.76 71.04 51.5 71.09 51.26 71.14 49.23 71.6 49.04 71.64 48.87 71.69 48.7 71.73 48.54 71.78 48.38 71.82 48.23 71.87 48.09 71.91 47.84 72 47.47 72.13 46.99 72.32 46.52 72.52 46.07 72.74 45.65 72.96 44.28 73.74 43.93 73.96 43.6 74.17 43.28 74.39 42.99 74.61"/><polyline id="background-6" data-name="background" class="cls-9" points="45.37 74.81 45.57 74.65 45.79 74.5 46.02 74.35 46.26 74.19 47.51 73.48 47.8 73.32 48.11 73.17 48.44 73.03 48.81 72.88 49.1 72.78 49.31 72.71 49.41 72.67 49.51 72.64 49.62 72.61 49.73 72.58 49.85 72.55 49.98 72.51 50.1 72.48 52.06 72.04 52.23 72 52.41 71.97 52.6 71.94 52.8 71.91 53 71.89 53.21 71.86 53.44 71.85 53.67 71.83 53.91 71.83 69.38 71.82 70 71.82 70 67.83 69.38 67.83 53.91 67.84 53.56 67.85 53.23 67.87 52.91 67.89 52.6 67.92 52.31 67.96 52.03 68 51.76 68.04 51.5 68.09 51.26 68.14 49.23 68.6 49.04 68.64 48.87 68.69 48.7 68.73 48.54 68.78 48.38 68.82 48.23 68.87 48.09 68.91 47.84 69 47.47 69.13 46.99 69.32 46.52 69.52 46.07 69.74 45.65 69.96 44.28 70.74 43.93 70.96 43.6 71.17 43.28 71.39 42.99 71.61"/><polyline id="background-7" data-name="background" class="cls-8" points="42.3 81.22 42.34 81.15 42.38 81.08 42.42 81 42.46 80.93 42.51 80.85 42.56 80.76 42.61 80.68 42.67 80.59 42.73 80.5 42.79 80.4 42.85 80.3 42.92 80.2 43 80.1 43.08 79.99 43.16 79.88 43.25 79.76 43.35 79.65 43.45 79.53 43.56 79.4 43.67 79.28 43.79 79.15 43.92 79.01 44.06 78.88 44.2 78.74 44.36 78.6 44.52 78.46 44.7 78.31 44.88 78.17 45.12 77.99 45.37 77.81 42.99 74.61 42.75 74.79 42.51 74.97 42.24 75.18 41.99 75.38 41.75 75.59 41.53 75.79 41.32 75.98 41.13 76.18 40.94 76.37 40.77 76.55 40.6 76.73 40.45 76.91 40.3 77.08 40.16 77.25 40.03 77.41 39.91 77.57 39.8 77.73 39.69 77.88 39.59 78.02 39.49 78.16 39.4 78.3 39.32 78.43 39.24 78.56 39.16 78.68 39.09 78.8 39.02 78.91 38.96 79.02 38.9 79.13 38.84 79.23 38.79 79.33"/><polyline id="background-8" data-name="background" class="cls-9" points="42.3 78.22 42.34 78.15 42.38 78.08 42.42 78 42.46 77.93 42.51 77.85 42.56 77.76 42.61 77.68 42.67 77.59 42.73 77.5 42.79 77.4 42.85 77.3 42.92 77.2 43 77.1 43.08 76.99 43.16 76.88 43.25 76.76 43.35 76.65 43.45 76.53 43.56 76.4 43.67 76.28 43.79 76.15 43.92 76.01 44.06 75.88 44.2 75.74 44.36 75.6 44.52 75.46 44.7 75.31 44.88 75.17 45.12 74.99 45.37 74.81 42.99 71.61 42.75 71.79 42.51 71.97 42.24 72.18 41.99 72.38 41.75 72.59 41.53 72.79 41.32 72.98 41.13 73.18 40.94 73.37 40.77 73.55 40.6 73.73 40.45 73.91 40.3 74.08 40.16 74.25 40.03 74.41 39.91 74.57 39.8 74.73 39.69 74.88 39.59 75.02 39.49 75.16 39.4 75.3 39.32 75.43 39.24 75.56 39.16 75.68 39.09 75.8 39.02 75.91 38.96 76.02 38.9 76.13 38.84 76.23 38.79 76.33"/><g id="section-3" data-name="section"><polyline id="background-9" data-name="background" class="cls-6" points="-31.66 53.33 27.15 85.55 28.57 86.09 30.05 86.44 31.57 86.58 33.08 86.52 34.58 86.26 36.03 85.79 37.4 85.14 38.67 84.3 39.81 83.31 40.82 82.16 41.66 80.9 39.25 79.71 38.6 80.67 37.82 81.52 36.93 82.27 35.95 82.89 34.89 83.36 33.78 83.7 32.64 83.88 31.48 83.91 30.33 83.77 29.2 83.49 28.13 83.06 -30.36 50.99"/><polyline id="background-10" data-name="background" class="cls-7" points="-31.66 50.33 27.15 82.55 28.57 83.09 30.05 83.44 31.57 83.58 33.08 83.52 34.58 83.26 36.03 82.79 37.4 82.14 38.67 81.3 39.81 80.31 40.82 79.16 41.66 77.9 39.25 76.71 38.6 77.67 37.82 78.52 36.93 79.27 35.95 79.89 34.89 80.36 33.78 80.7 32.64 80.88 31.48 80.91 30.33 80.77 29.2 80.49 28.13 80.06 -30.36 47.99"/></g><g id="section-4" data-name="section"><path id="background-11" data-name="background" class="cls-6" d="M3.27,99.83l.94,5.46.47,1.44.66,1.37.83,1.27,1,1.15,1.15,1,1.27.83L11,113l1.44.47,1.5.27,1.52.06,1.51-.14,1.48-.34,1.42-.54,1.34-.72c4.39-2.17,2.52-4.48,8.74-4.45l-.16-2.91c-5.31-.75-7.11,3.68-10.15,5.18l-1,.54-1.09.39-1.13.24-1.16.08L14,111.07l-1.13-.22-1.1-.38-1-.52-1-.66L9,108.51l-.74-.88-.62-1-.48-1.06-.34-1.11L2.84,92.33"/><path id="background-12" data-name="background" class="cls-7" d="M3.27,96.83l.94,5.46.47,1.44.66,1.37.83,1.27,1,1.15,1.15,1,1.27.83L11,110l1.44.47,1.5.27,1.52.06,1.51-.14,1.48-.34,1.42-.54,1.34-.72c4.39-2.17,2.52-4.48,8.74-4.45l-.16-2.91c-5.31-.75-7.11,3.68-10.15,5.18l-1,.54-1.09.39-1.13.24-1.16.08L14,108.07l-1.13-.22-1.1-.38-1-.52-1-.66L9,105.51l-.74-.88-.62-1-.48-1.06-.34-1.11L2.84,89.33"/></g><g id="section-5" data-name="section"><polyline id="background-13" data-name="background" class="cls-6" points="29.75 104.71 31.17 105.25 32.5 105.98 33.73 106.88 34.82 107.93 35.76 109.13 36.54 110.43 37.13 111.84 37.52 113.3 37.71 114.81 37.7 116.33 37.48 117.83 37.07 119.3 36.46 120.69 35.67 121.98 34.71 123.16 33.6 124.2 32.36 125.08 31.02 125.79 29.59 126.31 28.1 126.63 26.59 126.74 8.04 125.81 6.88 125.89 5.75 126.14 4.66 126.53 3.63 127.06 2.69 127.73 -4.24 134.31 -5.48 135.19 -6.83 135.9 -8.26 136.41 -9.74 136.74 -11.26 136.85 -12.78 136.76 -14.27 136.47 -15.71 135.98 -17.07 135.31 -18.32 134.45 -19.45 133.43 -20.43 132.27 -21.25 130.99 -21.89 129.61 -22.33 128.16 -19.69 127.7 -19.33 128.81 -18.83 129.85 -18.18 130.81 -17.42 131.69 -16.54 132.44 -15.57 133.08 -14.53 133.58 -13.43 133.93 -12.28 134.13 -11.13 134.18 -9.97 134.07 -8.84 133.8 -7.76 133.39 -6.75 132.83 -5.81 132.14 0.84 125.79 2.06 124.89 3.4 124.17 4.82 123.63 6.3 123.28 7.81 123.14 26.72 124.07 27.87 123.96 29 123.69 30.08 123.28 31.1 122.72 32.03 122.03 32.86 121.22 33.58 120.31 34.16 119.31 34.61 118.24 34.9 117.12 35.05 115.97 35.03 114.81 34.87 113.67 34.54 112.55 34.08 111.49 33.47 110.5 32.73 109.61 31.89 108.82 30.94 108.15 29.91 107.62 28.82 107.23"/><polyline id="background-14" data-name="background" class="cls-7" points="29.75 101.71 31.17 102.25 32.5 102.98 33.73 103.88 34.82 104.93 35.76 106.13 36.54 107.43 37.13 108.84 37.52 110.3 37.71 111.81 37.7 113.33 37.48 114.83 37.07 116.3 36.46 117.69 35.67 118.98 34.71 120.16 33.6 121.2 32.36 122.08 31.02 122.79 29.59 123.31 28.1 123.63 26.59 123.74 8.04 122.81 6.88 122.89 5.75 123.14 4.66 123.53 3.63 124.06 2.69 124.73 -4.24 131.31 -5.48 132.19 -6.83 132.9 -8.26 133.41 -9.74 133.74 -11.26 133.85 -12.78 133.76 -14.27 133.47 -15.71 132.98 -17.07 132.31 -18.32 131.45 -19.45 130.43 -20.43 129.27 -21.25 127.99 -21.89 126.61 -22.33 125.16 -19.69 124.7 -19.33 125.81 -18.83 126.85 -18.18 127.81 -17.42 128.69 -16.54 129.44 -15.57 130.08 -14.53 130.58 -13.43 130.93 -12.28 131.13 -11.13 131.18 -9.97 131.07 -8.84 130.8 -7.76 130.39 -6.75 129.83 -5.81 129.14 0.84 122.79 2.06 121.89 3.4 121.17 4.82 120.63 6.3 120.28 7.81 120.14 26.72 121.07 27.87 120.96 29 120.69 30.08 120.28 31.1 119.72 32.03 119.03 32.86 118.22 33.58 117.31 34.16 116.31 34.61 115.24 34.9 114.12 35.05 112.97 35.03 111.81 34.87 110.67 34.54 109.55 34.08 108.49 33.47 107.5 32.73 106.61 31.89 105.82 30.94 105.15 29.91 104.62 28.82 104.23"/></g><g id="section-6" data-name="section"><polyline id="background-15" data-name="background" class="cls-6" points="-4.88 96.74 13 87.2 14.23 86.3 15.32 85.25 16.26 84.05 17.03 82.75 17.62 81.34 18.02 79.88 18.21 78.37 18.2 76.85 17.98 75.34 17.57 73.88 16.96 72.49 16.16 71.19 15.21 70.02 14.1 68.98 3.38 61.25 2.53 60.46 0.44 62.13 1.53 63.19 12.53 71.15 13.36 71.96 14.07 72.87 14.66 73.87 15.1 74.94 15.4 76.06 15.54 77.21 15.53 78.37 15.36 79.51 15.04 80.63 14.57 81.69 13.97 82.67 13.23 83.57 12.38 84.36 11.44 85.03 -6.14 94.38"/><polyline id="background-16" data-name="background" class="cls-7" points="-4.88 93.74 13 84.2 14.23 83.3 15.32 82.25 16.26 81.05 17.03 79.75 17.62 78.34 18.02 76.88 18.21 75.37 18.2 73.85 17.98 72.34 17.57 70.88 16.96 69.49 16.16 68.19 15.21 67.02 14.1 65.98 3.38 58.25 2.53 57.46 0.44 59.13 1.53 60.19 12.53 68.15 13.36 68.96 14.07 69.87 14.66 70.87 15.1 71.94 15.4 73.06 15.54 74.21 15.53 75.37 15.36 76.51 15.04 77.63 14.57 78.69 13.97 79.67 13.23 80.57 12.38 81.36 11.44 82.03 -6.14 91.38"/></g><g id="section-7" data-name="section"><polyline id="background-17" data-name="background" class="cls-6" points="46.86 139.62 38.81 121.02 38.01 119.72 37.05 118.55 35.94 117.51 34.7 116.63 33.35 115.93 31.92 115.42 30.43 115.1 28.92 114.99 27.4 115.08 25.91 115.38 24.47 115.87 23.11 116.55 21.86 117.41 20.73 118.43 12.16 128.48 11.3 129.26 12.8 131.48 13.94 130.48 22.77 120.17 23.64 119.41 24.61 118.78 25.66 118.27 26.76 117.92 27.9 117.71 29.06 117.67 30.21 117.77 31.34 118.03 32.42 118.45 33.44 119 34.38 119.69 35.21 120.49 35.93 121.4 36.52 122.4 44.4 140.68"/><polyline id="background-18" data-name="background" class="cls-7" points="46.86 136.62 38.81 118.02 38.01 116.72 37.05 115.55 35.94 114.51 34.7 113.63 33.35 112.93 31.92 112.42 30.43 112.1 28.92 111.99 27.4 112.08 25.91 112.38 24.47 112.87 23.11 113.55 21.86 114.41 20.73 115.43 12.16 125.48 11.3 126.26 12.8 128.48 13.94 127.48 22.77 117.17 23.64 116.41 24.61 115.78 25.66 115.27 26.76 114.92 27.9 114.71 29.06 114.67 30.21 114.77 31.34 115.03 32.42 115.45 33.44 116 34.38 116.69 35.21 117.49 35.93 118.4 36.52 119.4 44.4 137.68"/></g><g id="section-8" data-name="section"><polyline id="background-19" data-name="background" class="cls-6" points="-12.17 84.39 -11.03 84.2 -9.87 84.18 -8.72 84.31 36.45 96.13 37.53 96.56 38.54 97.13 39.46 97.84 40.28 98.66 40.98 99.58 41.55 100.59 41.98 101.66 49.39 132.75 49.52 133.91 49.49 135.06 49.3 136.21 48.97 137.32 48.48 138.37 47.86 139.35 47.11 140.23 46.25 141.01 45.29 141.66 44.26 142.18 43.16 142.56 42.02 142.78 40.87 142.85 39.71 142.76 38.58 142.52 37.49 142.12 36.46 141.59 35.52 140.92 33.67 142.85 34.89 143.76 36.22 144.49 37.64 145.03 39.12 145.37 40.63 145.52 42.15 145.46 43.65 145.19 45.1 144.73 46.47 144.07 47.74 143.24 48.88 142.24 49.89 141.1 50.73 139.83 51.39 138.46 51.86 137.02 52.13 135.52 52.2 134 52.06 132.49 44.58 101.04 44.05 99.62 43.32 98.29 42.43 97.06 41.37 95.96 40.18 95.02 38.87 94.25 37.47 93.66 -8.04 81.71 -9.55 81.52 -11.07 81.53 -12.57 81.74"/><polyline id="background-20" data-name="background" class="cls-7" points="-12.17 81.39 -11.03 81.2 -9.87 81.18 -8.72 81.31 36.45 93.13 37.53 93.56 38.54 94.13 39.46 94.84 40.28 95.66 40.98 96.58 41.55 97.59 41.98 98.66 49.39 129.75 49.52 130.91 49.49 132.06 49.3 133.21 48.97 134.32 48.48 135.37 47.86 136.35 47.11 137.23 46.25 138.01 45.29 138.66 44.26 139.18 43.16 139.56 42.02 139.78 40.87 139.85 39.71 139.76 38.58 139.52 37.49 139.12 36.46 138.59 35.52 137.92 33.67 139.85 34.89 140.76 36.22 141.49 37.64 142.03 39.12 142.37 40.63 142.52 42.15 142.46 43.65 142.19 45.1 141.73 46.47 141.07 47.74 140.24 48.88 139.24 49.89 138.1 50.73 136.83 51.39 135.46 51.86 134.02 52.13 132.52 52.2 131 52.06 129.49 44.58 98.04 44.05 96.62 43.32 95.29 42.43 94.06 41.37 92.96 40.18 92.02 38.87 91.25 37.47 90.66 -8.04 78.71 -9.55 78.52 -11.07 78.53 -12.57 78.74"/></g><g id="background-21" data-name="background"><polygon class="cls-8" points="16.77 59.91 29.65 62.82 30.74 63.21 31.77 63.75 32.72 64.42 33.56 65.21 34.29 66.11 34.9 67.1 35.36 68.16 35.68 69.28 35.84 70.42 35.85 71.58 35.7 72.73 35.4 73.85 34.95 74.92 34.37 75.92 33.65 76.83 32.81 77.63 31.88 78.32 30.86 78.87 29.78 79.28 28.65 79.54 28.87 82.21 30.35 81.9 31.79 81.39 33.13 80.69 34.38 79.81 35.49 78.77 36.45 77.6 37.25 76.3 37.86 74.92 38.28 73.45 38.51 71.95 38.52 70.43 38.33 68.92 37.94 67.45 37.36 66.05 36.59 64.74 35.66 63.54 34.57 62.48 33.34 61.58 32.01 60.85 30.59 60.31 17.36 57.3 16.24 56.98 15.18 56.51 14.19 55.91 13.3 55.17 12.51 54.33 11.84 53.38 11.3 52.35 10.91 51.26 10.66 50.13 10.57 48.97 10.64 47.82 10.87 46.68 11.24 45.58 11.76 44.55 12.41 43.59 13.19 42.73 14.08 41.98 15.05 41.36 16.11 40.88 17.22 40.54 18.36 40.35 19.52 40.32 20.67 40.45 21.8 40.73 22.87 41.16 23.88 41.73 24.8 42.43 25.62 43.25 26.33 44.17 28.67 42.88 27.77 41.65 26.72 40.55 25.52 39.61 24.21 38.84 22.81 38.25 21.35 37.86 19.84 37.66 18.32 37.67 16.82 37.89 15.35 38.3 13.96 38.91 12.66 39.71 11.48 40.66 10.45 41.77 9.56 43.01 8.86 44.36 8.34 45.79 8.02 47.27 7.9 48.79 7.99 50.3 8.28 51.8 8.77 53.23 9.45 54.59 10.3 55.85 11.32 56.98 12.48 57.96 13.76 58.78 15.14 59.42 16.59 59.86 16.77 59.91"/><polygon class="cls-10" points="16.77 59.91 29.65 62.82 30.74 63.21 31.77 63.75 32.72 64.42 33.56 65.21 34.29 66.11 34.9 67.1 35.36 68.16 35.68 69.28 35.84 70.42 35.85 71.58 35.7 72.73 35.4 73.85 34.95 74.92 34.37 75.92 33.65 76.83 32.81 77.63 31.88 78.32 30.86 78.87 29.78 79.28 28.65 79.54 28.87 82.21 30.35 81.9 31.79 81.39 33.13 80.69 34.38 79.81 35.49 78.77 36.45 77.6 37.25 76.3 37.86 74.92 38.28 73.45 38.51 71.95 38.52 70.43 38.33 68.92 37.94 67.45 37.36 66.05 36.59 64.74 35.66 63.54 34.57 62.48 33.34 61.58 32.01 60.85 30.59 60.31 17.36 57.3 16.24 56.98 15.18 56.51 14.19 55.91 13.3 55.17 12.51 54.33 11.84 53.38 11.3 52.35 10.91 51.26 10.66 50.13 10.57 48.97 10.64 47.82 10.87 46.68 11.24 45.58 11.76 44.55 12.41 43.59 13.19 42.73 14.08 41.98 15.05 41.36 16.11 40.88 17.22 40.54 18.36 40.35 19.52 40.32 20.67 40.45 21.8 40.73 22.87 41.16 23.88 41.73 24.8 42.43 25.62 43.25 26.33 44.17 28.67 42.88 27.77 41.65 26.72 40.55 25.52 39.61 24.21 38.84 22.81 38.25 21.35 37.86 19.84 37.66 18.32 37.67 16.82 37.89 15.35 38.3 13.96 38.91 12.66 39.71 11.48 40.66 10.45 41.77 9.56 43.01 8.86 44.36 8.34 45.79 8.02 47.27 7.9 48.79 7.99 50.3 8.28 51.8 8.77 53.23 9.45 54.59 10.3 55.85 11.32 56.98 12.48 57.96 13.76 58.78 15.14 59.42 16.59 59.86 16.77 59.91"/><polygon class="cls-9" points="16.77 56.91 29.65 59.82 30.74 60.21 31.77 60.75 32.72 61.42 33.56 62.21 34.29 63.11 34.9 64.1 35.36 65.16 35.68 66.28 35.84 67.42 35.85 68.58 35.7 69.73 35.4 70.85 34.95 71.92 34.37 72.92 33.65 73.83 32.81 74.63 31.88 75.32 30.86 75.87 29.78 76.28 28.65 76.54 28.87 79.21 30.35 78.9 31.79 78.39 33.13 77.69 34.38 76.81 35.49 75.77 36.45 74.6 37.25 73.3 37.86 71.92 38.28 70.45 38.51 68.95 38.52 67.43 38.33 65.92 37.94 64.45 37.36 63.05 36.59 61.74 35.66 60.54 34.57 59.48 33.34 58.58 32.01 57.85 30.59 57.31 17.36 54.3 16.24 53.98 15.18 53.51 14.19 52.91 13.3 52.17 12.51 51.33 11.84 50.38 11.3 49.35 10.91 48.26 10.66 47.13 10.57 45.97 10.64 44.82 10.87 43.68 11.24 42.58 11.76 41.55 12.41 40.59 13.19 39.73 14.08 38.98 15.05 38.36 16.11 37.88 17.22 37.54 18.36 37.35 19.52 37.32 20.67 37.45 21.8 37.73 22.87 38.16 23.88 38.73 24.8 39.43 25.62 40.25 26.33 41.17 28.67 39.88 27.77 38.65 26.72 37.55 25.52 36.61 24.21 35.84 22.81 35.25 21.35 34.86 19.84 34.66 18.32 34.67 16.82 34.89 15.35 35.3 13.96 35.91 12.66 36.71 11.48 37.66 10.45 38.77 9.56 40.01 8.86 41.36 8.34 42.79 8.02 44.27 7.9 45.79 7.99 47.3 8.28 48.8 8.77 50.23 9.45 51.59 10.3 52.85 11.32 53.98 12.48 54.96 13.76 55.78 15.14 56.42 16.59 56.86 16.77 56.91"/><polygon class="cls-11" points="16.77 56.91 29.65 59.82 30.74 60.21 31.77 60.75 32.72 61.42 33.56 62.21 34.29 63.11 34.9 64.1 35.36 65.16 35.68 66.28 35.84 67.42 35.85 68.58 35.7 69.73 35.4 70.85 34.95 71.92 34.37 72.92 33.65 73.83 32.81 74.63 31.88 75.32 30.86 75.87 29.78 76.28 28.65 76.54 28.87 79.21 30.35 78.9 31.79 78.39 33.13 77.69 34.38 76.81 35.49 75.77 36.45 74.6 37.25 73.3 37.86 71.92 38.28 70.45 38.51 68.95 38.52 67.43 38.33 65.92 37.94 64.45 37.36 63.05 36.59 61.74 35.66 60.54 34.57 59.48 33.34 58.58 32.01 57.85 30.59 57.31 17.36 54.3 16.24 53.98 15.18 53.51 14.19 52.91 13.3 52.17 12.51 51.33 11.84 50.38 11.3 49.35 10.91 48.26 10.66 47.13 10.57 45.97 10.64 44.82 10.87 43.68 11.24 42.58 11.76 41.55 12.41 40.59 13.19 39.73 14.08 38.98 15.05 38.36 16.11 37.88 17.22 37.54 18.36 37.35 19.52 37.32 20.67 37.45 21.8 37.73 22.87 38.16 23.88 38.73 24.8 39.43 25.62 40.25 26.33 41.17 28.67 39.88 27.77 38.65 26.72 37.55 25.52 36.61 24.21 35.84 22.81 35.25 21.35 34.86 19.84 34.66 18.32 34.67 16.82 34.89 15.35 35.3 13.96 35.91 12.66 36.71 11.48 37.66 10.45 38.77 9.56 40.01 8.86 41.36 8.34 42.79 8.02 44.27 7.9 45.79 7.99 47.3 8.28 48.8 8.77 50.23 9.45 51.59 10.3 52.85 11.32 53.98 12.48 54.96 13.76 55.78 15.14 56.42 16.59 56.86 16.77 56.91"/></g><g id="section-9" data-name="section"><path id="background-22" data-name="background" class="cls-6" d="M54.61,41.81l-.43-1.46L53.57,39l-.8-1.3-5.65-7.14-1.11-1-1.24-.88-1.35-.69L42,27.4l-1.49-.31L39,27l-1.51.1L36,27.37l-1.44.5-1.36.69-1.25.86-1.12,1-1,1.16-2.06,3.24-.74.89-.86.78-1,.66-1,.53-1.1.38L22,38.31l-1.16.07-1.16-.08a7.55,7.55,0,0,1-3.59-2.85c-1.67-2.3-4.56-2.59-2.25,1.42s5.27,4.05,5.27,4.05l1.51.13L22.1,41l1.5-.27L25,40.24l1.37-.67,1.26-.84,1.14-1,1-1.15,2.28-3.53.76-.87.87-.77,1-.64,1-.5,1.1-.36,1.14-.2,1.16-.05,1.15.1,1.13.26,1.09.41,1,.55.93.69.84.8,5.4,6.88.59,1,.45,1.07.3,1.12"/><path id="background-23" data-name="background" class="cls-7" d="M54.61,38.81l-.43-1.46L53.57,36l-.8-1.3-5.65-7.14-1.11-1-1.24-.88-1.35-.69L42,24.4l-1.49-.31L39,24l-1.51.1L36,24.37l-1.44.5-1.36.69-1.25.86-1.12,1-1,1.16-2.06,3.24-.74.89-.86.78-1,.66-1,.53-1.1.38L22,35.31l-1.16.07-1.16-.08a7.55,7.55,0,0,1-3.59-2.85c-1.67-2.3-4.56-2.59-2.25,1.42s5.27,4.05,5.27,4.05l1.51.13L22.1,38l1.5-.27L25,37.24l1.37-.67,1.26-.84,1.14-1,1-1.15,2.28-3.53.76-.87.87-.77,1-.64,1-.5,1.1-.36,1.14-.2,1.16-.05,1.15.1,1.13.26,1.09.41,1,.55.93.69.84.8,5.4,6.88.59,1,.45,1.07.3,1.12"/></g><g id="section-10" data-name="section"><polyline id="background-24" data-name="background" class="cls-6" points="28.48 58.78 37.17 37.74 48.27 8.33 45.8 7.31 34.69 36.72 26 57.76"/><polyline id="background-25" data-name="background" class="cls-7" points="28.48 55.78 37.17 34.74 48.27 5.33 45.8 4.31 34.69 33.72 26 54.76"/></g><g id="section-11" data-name="section"><polyline id="background-26" data-name="background" class="cls-6" points="31.14 103.34 32.55 102.78 33.88 102.04 35.09 101.12 36.17 100.05 37.1 98.85 37.85 97.53 38.42 96.12 38.79 94.65 38.96 93.14 38.93 91.62 38.7 90.12 38.26 88.66 37.63 87.28 36.82 85.99 35.84 84.83 34.72 83.8 33.47 82.94 27.67 79.96 26.72 79.31 25.86 78.53 25.11 77.64 24.49 76.66 24.01 75.61 23.68 74.5 23.49 73.35 23.46 72.19 23.59 71.04 23.87 69.92 27.96 60.02 28.48 58.78 26 57.76 25.49 58.99 21.4 68.9 21 70.36 20.8 71.87 20.81 73.39 21.03 74.89 21.44 76.36 22.05 77.75 22.84 79.05 23.79 80.23 24.9 81.27 26.14 82.15 32.24 85.32 33.18 86 34.02 86.79 34.75 87.69 35.35 88.69 35.81 89.75 36.12 90.86 36.28 92.01 36.29 93.17 36.13 94.32 35.83 95.44 35.37 96.5 34.78 97.5 34.06 98.41 33.22 99.21 32.28 99.89 31.26 100.44 30.18 100.84"/><polyline id="background-27" data-name="background" class="cls-7" points="31.14 100.34 32.55 99.78 33.88 99.04 35.09 98.12 36.17 97.05 37.1 95.85 37.85 94.53 38.42 93.12 38.79 91.65 38.96 90.14 38.93 88.62 38.7 87.12 38.26 85.66 37.63 84.28 36.82 82.99 35.84 81.83 34.72 80.8 33.47 79.94 27.67 76.96 26.72 76.31 25.86 75.53 25.11 74.64 24.49 73.66 24.01 72.61 23.68 71.5 23.49 70.35 23.46 69.19 23.59 68.04 23.87 66.92 27.96 57.02 28.48 55.78 26 54.76 25.49 55.99 21.4 65.9 21 67.36 20.8 68.87 20.81 70.39 21.03 71.89 21.44 73.36 22.05 74.75 22.84 76.05 23.79 77.23 24.9 78.27 26.14 79.15 32.24 82.32 33.18 83 34.02 83.79 34.75 84.69 35.35 85.69 35.81 86.75 36.12 87.86 36.28 89.01 36.29 90.17 36.13 91.32 35.83 92.44 35.37 93.5 34.78 94.5 34.06 95.41 33.22 96.21 32.28 96.89 31.26 97.44 30.18 97.84"/></g><g id="section-12" data-name="section"><path id="background-28" data-name="background" class="cls-12" d="M-7.06,62.54l.93,26.95.27,1.5.46,1.45.66,1.37.84,1.27,1,1.14,1.14,1,1.27.84,1.37.66,1.44.46,25.19,4.73a8.12,8.12,0,0,0,3.63-.57l-1-2.5a6.41,6.41,0,0,1-2.53.39L2.82,96.55l-1.1-.38-1-.52-1-.65-.86-.78-.74-.89-.62-1-.48-1-.34-1.11L-3.49,89l-.89-26.59"/><path id="background-29" data-name="background" class="cls-13" d="M-7.06,59.54l.93,26.95.27,1.5.46,1.45.66,1.37.84,1.27,1,1.14,1.14,1,1.27.84,1.37.66,1.44.46,25.19,4.73a8.12,8.12,0,0,0,3.63-.57l-1-2.5a6.41,6.41,0,0,1-2.53.39L2.82,93.55l-1.1-.38-1-.52-1-.65-.86-.78-.74-.89-.62-1-.48-1-.34-1.11L-3.49,86l-.89-26.59"/></g><g id="background-30" data-name="background"><polyline class="cls-8" points="16.84 95.74 18.29 95.3 19.68 94.67 20.96 93.85 22.12 92.88 23.15 91.75 24.01 90.5 24.69 89.14 25.18 87.7 27.86 74.77 28.23 73.67 28.75 72.63 29.41 71.68 41.33 58.74 42.19 57.49 42.87 56.13 43.37 54.69 43.66 53.2 43.76 51.69 43.64 50.17 43.33 48.68 42.82 47.25 42.12 45.9 41.24 44.66 40.21 43.55 39.03 42.59 37.74 41.79 36.35 41.17 34.89 40.75 33.38 40.53 31.87 40.51 30.36 40.7 28.89 41.09 29.9 43.57 31.02 43.29 32.17 43.17 33.33 43.21 34.48 43.4 35.58 43.74 36.63 44.23 37.61 44.85 38.49 45.61 39.27 46.47 39.92 47.43 40.43 48.47 40.8 49.56 41.02 50.7 41.08 51.86 40.99 53.02 40.74 54.15 40.34 55.24 39.8 56.26 39.13 57.2 27.44 69.86 26.56 71.1 25.85 72.44 25.33 73.87 22.56 87.16 22.16 88.25 21.62 89.27 20.95 90.22 20.16 91.06 19.25 91.79 18.26 92.39 17.2 92.85 16.09 93.17"/><polyline class="cls-10" points="16.84 95.74 18.29 95.3 19.68 94.67 20.96 93.85 22.12 92.88 23.15 91.75 24.01 90.5 24.69 89.14 25.18 87.7 27.86 74.77 28.23 73.67 28.75 72.63 29.41 71.68 41.33 58.74 42.19 57.49 42.87 56.13 43.37 54.69 43.66 53.2 43.76 51.69 43.64 50.17 43.33 48.68 42.82 47.25 42.12 45.9 41.24 44.66 40.21 43.55 39.03 42.59 37.74 41.79 36.35 41.17 34.89 40.75 33.38 40.53 31.87 40.51 30.36 40.7 28.89 41.09 29.9 43.57 31.02 43.29 32.17 43.17 33.33 43.21 34.48 43.4 35.58 43.74 36.63 44.23 37.61 44.85 38.49 45.61 39.27 46.47 39.92 47.43 40.43 48.47 40.8 49.56 41.02 50.7 41.08 51.86 40.99 53.02 40.74 54.15 40.34 55.24 39.8 56.26 39.13 57.2 27.44 69.86 26.56 71.1 25.85 72.44 25.33 73.87 22.56 87.16 22.16 88.25 21.62 89.27 20.95 90.22 20.16 91.06 19.25 91.79 18.26 92.39 17.2 92.85 16.09 93.17"/><polyline class="cls-9" points="16.84 92.74 18.29 92.3 19.68 91.67 20.96 90.85 22.12 89.88 23.15 88.75 24.01 87.5 24.69 86.14 25.18 84.7 27.86 71.77 28.23 70.67 28.75 69.63 29.41 68.68 41.33 55.74 42.19 54.49 42.87 53.13 43.37 51.69 43.66 50.2 43.76 48.69 43.64 47.17 43.33 45.68 42.82 44.25 42.12 42.9 41.24 41.66 40.21 40.55 39.03 39.59 37.74 38.79 36.35 38.17 34.89 37.75 33.38 37.53 31.87 37.51 30.36 37.7 28.89 38.09 29.9 40.57 31.02 40.29 32.17 40.17 33.33 40.21 34.48 40.4 35.58 40.74 36.63 41.23 37.61 41.85 38.49 42.61 39.27 43.47 39.92 44.43 40.43 45.47 40.8 46.56 41.02 47.7 41.08 48.86 40.99 50.02 40.74 51.15 40.34 52.24 39.8 53.26 39.13 54.2 27.44 66.86 26.56 68.1 25.85 69.44 25.33 70.87 22.56 84.16 22.16 85.25 21.62 86.27 20.95 87.22 20.16 88.06 19.25 88.79 18.26 89.39 17.2 89.85 16.09 90.17"/><polyline class="cls-11" points="16.84 92.74 18.29 92.3 19.68 91.67 20.96 90.85 22.12 89.88 23.15 88.75 24.01 87.5 24.69 86.14 25.18 84.7 27.86 71.77 28.23 70.67 28.75 69.63 29.41 68.68 41.33 55.74 42.19 54.49 42.87 53.13 43.37 51.69 43.66 50.2 43.76 48.69 43.64 47.17 43.33 45.68 42.82 44.25 42.12 42.9 41.24 41.66 40.21 40.55 39.03 39.59 37.74 38.79 36.35 38.17 34.89 37.75 33.38 37.53 31.87 37.51 30.36 37.7 28.89 38.09 29.9 40.57 31.02 40.29 32.17 40.17 33.33 40.21 34.48 40.4 35.58 40.74 36.63 41.23 37.61 41.85 38.49 42.61 39.27 43.47 39.92 44.43 40.43 45.47 40.8 46.56 41.02 47.7 41.08 48.86 40.99 50.02 40.74 51.15 40.34 52.24 39.8 53.26 39.13 54.2 27.44 66.86 26.56 68.1 25.85 69.44 25.33 70.87 22.56 84.16 22.16 85.25 21.62 86.27 20.95 87.22 20.16 88.06 19.25 88.79 18.26 89.39 17.2 89.85 16.09 90.17"/></g><g id="section-13" data-name="section"><polyline id="background-31" data-name="background" class="cls-6" points="52 42.43 52.28 43.55 52.41 44.7 52.38 45.86 52.2 47.01 51.86 48.12 51.38 49.17 50.76 50.15 50.01 51.04 49.16 51.81 48.2 52.47 47.16 52.99 46.07 53.37 44.93 53.59 43.77 53.66 42.62 53.57 41.48 53.33 40.39 52.94 38.42 51.73 38.42 51.73 29.43 43.76 27.08 44.91 36.57 53.67 37.8 54.58 39.13 55.3 40.55 55.84 42.03 56.19 43.54 56.33 45.06 56.27 46.56 56 48.01 55.53 49.38 54.87 50.65 54.04 51.79 53.04 52.79 51.9 53.63 50.63 54.29 49.26 54.76 47.81 55.02 46.32 55.09 44.8 54.95 43.29 54.61 41.8"/><polyline id="background-32" data-name="background" class="cls-7" points="52 39.43 52.28 40.55 52.41 41.7 52.38 42.86 52.2 44.01 51.86 45.12 51.38 46.17 50.76 47.15 50.01 48.04 49.16 48.81 48.2 49.47 47.16 49.99 46.07 50.37 44.93 50.59 43.77 50.66 42.62 50.57 41.48 50.33 40.39 49.94 38.42 48.73 38.42 48.73 29.43 40.76 27.08 41.91 36.57 50.67 37.8 51.58 39.13 52.3 40.55 52.84 42.03 53.19 43.54 53.33 45.06 53.27 46.56 53 48.01 52.53 49.38 51.87 50.65 51.04 51.79 50.04 52.79 48.9 53.63 47.63 54.29 46.26 54.76 44.81 55.02 43.32 55.09 41.8 54.95 40.29 54.61 38.8"/></g><g id="section-14" data-name="section"><polyline id="background-33" data-name="background" class="cls-6" points="2.53 105.3 8.78 99.1 9.67 98.35 10.65 97.73 11.7 97.25 15.55 96.11 16.84 95.74 16.09 93.17 14.8 93.54 10.94 94.67 9.55 95.28 8.26 96.08 7.08 97.03 0.57 103.48"/><polyline id="background-34" data-name="background" class="cls-7" points="2.53 102.3 8.78 96.1 9.67 95.35 10.65 94.73 11.7 94.25 15.55 93.11 16.84 92.74 16.09 90.17 14.8 90.54 10.94 91.67 9.55 92.28 8.26 93.08 7.08 94.03 0.57 100.48"/></g><g id="background-35" data-name="background"><path class="cls-8" d="M31.87,40.51l-1.51.19-1.47.39-12.41,5-1.24.5L2,52.06l.66,2.59,13.55-5.54,1.24-.5,12.41-5L31,43.29l1.15-.12a9,9,0,0,1,2.73.36"/><path class="cls-10" d="M31.87,40.51l-1.51.19-1.47.39-12.41,5-1.24.5L2,52.06l.66,2.59,13.55-5.54,1.24-.5,12.41-5L31,43.29l1.15-.12a9,9,0,0,1,2.73.36"/><path class="cls-9" d="M31.87,37.51l-1.51.19-1.47.39-12.41,5-1.24.5L2,49.06l.66,2.59,13.55-5.54,1.24-.5,12.41-5L31,40.29l1.15-.12a9,9,0,0,1,2.73.36"/><path class="cls-11" d="M31.87,37.51l-1.51.19-1.47.39-12.41,5-1.24.5L2,49.06l.66,2.59,13.55-5.54,1.24-.5,12.41-5L31,40.29l1.15-.12a9,9,0,0,1,2.73.36"/></g></g><g class="cls-14"><path d="M87.3,94.57a2.1,2.1,0,0,1,1.82-1,2.16,2.16,0,0,1,1.08.29,2.12,2.12,0,0,1,.73,2.9,2.07,2.07,0,0,1-1.81,1,2.11,2.11,0,0,1-1.09-.3,2.11,2.11,0,0,1-.73-2.89Zm12.6,22.36a2.07,2.07,0,0,1-1.37.51,2.11,2.11,0,1,1,2.11-2A2.14,2.14,0,0,1,99.9,116.93Z"/><path d="M79,48.44l.21.05Z"/><path d="M90.38,58.09a2,2,0,0,1,.67-.66,2.11,2.11,0,0,1,1.12-.32,2.24,2.24,0,0,1,1.13.32,2.12,2.12,0,0,1-1.14,3.91A2,2,0,0,1,91,61,2.12,2.12,0,0,1,90.38,58.09ZM96.76,37.9a2.15,2.15,0,0,1-2.91.66l-.1-.07A2.11,2.11,0,1,1,97,36.32,2.09,2.09,0,0,1,96.76,37.9Z"/><path d="M113.53,49.5a2.09,2.09,0,0,1,1.78-1,2,2,0,0,1,1.12.33,2.07,2.07,0,0,1,.94,1.33,2.1,2.1,0,0,1-.28,1.58,2.14,2.14,0,0,1-2.91.65l-.1-.06A2.1,2.1,0,0,1,113.53,49.5Zm0,23.46a2.11,2.11,0,1,1,3.56,2.26,2.14,2.14,0,0,1-2.91.66l-.1-.07A2.1,2.1,0,0,1,113.53,73Zm0,26.31a2.11,2.11,0,0,1,2.9-.66,2.11,2.11,0,1,1-2.25,3.57l-.1-.06A2.1,2.1,0,0,1,113.53,99.27Z"/><path d="M103.18,108.94a6.12,6.12,0,0,0-10.72,4.73A19.62,19.62,0,0,1,87.13,115a4,4,0,0,1-2.22-1,10.77,10.77,0,0,0-4.15-1.84,37.61,37.61,0,0,0,8.58-12.84A6.11,6.11,0,0,0,92.25,88a6.05,6.05,0,0,0-3.13-.87,6.16,6.16,0,0,0-5.26,3,6.11,6.11,0,0,0,1.62,8.06c-4,9.22-9.21,13.08-12.56,14.69a1.49,1.49,0,0,0-.36.17,11,11,0,0,1-2.56.8v4a12.41,12.41,0,0,0,4.25-1.19c5.34-1.36,6.84-.35,8.4.71A8,8,0,0,0,86.92,119h.31a23.69,23.69,0,0,0,7-1.72A6.1,6.1,0,0,0,98.53,119h0a6.12,6.12,0,0,0,4.65-10.1ZM87.3,92.16a2.12,2.12,0,0,1,1.82-1,2.17,2.17,0,0,1,1.08.3,2.12,2.12,0,0,1,.73,2.9,2.09,2.09,0,0,1-1.81,1,2.21,2.21,0,0,1-1.09-.3,2.13,2.13,0,0,1-.73-2.9Zm12.6,22.36a2,2,0,0,1-1.37.51,2.11,2.11,0,0,1-1.38-3.71,2.11,2.11,0,0,1,3,.23,2.08,2.08,0,0,1-.23,3Z"/><path d="M79,46l.21.05Z"/><path d="M101,33a6.12,6.12,0,0,0-2.71-3.85A6.18,6.18,0,0,0,95,28.25a6.12,6.12,0,0,0-5,9.61,13.38,13.38,0,0,1-10,4.29,29.39,29.39,0,0,0-10-2.32v4A24.79,24.79,0,0,1,78.75,46h0a21.54,21.54,0,0,1,8.61,7,5.22,5.22,0,0,0-.38.54A6.14,6.14,0,0,0,88.89,62a6,6,0,0,0,3.27,1,6.13,6.13,0,0,0,3.28-11.31,6.23,6.23,0,0,0-4.67-.75,25.77,25.77,0,0,0-5.35-5.57,16.29,16.29,0,0,0,7.78-5.1,5.94,5.94,0,0,0,1.77.27A6.12,6.12,0,0,0,101,33ZM90.38,55.69a2.14,2.14,0,0,1,.67-.67,2.2,2.2,0,0,1,1.12-.31,2.12,2.12,0,1,1,0,4.23,2.12,2.12,0,0,1-1.78-3.25ZM96.76,35.5a2.14,2.14,0,0,1-2.91.65l-.1-.06a2.11,2.11,0,0,1,2.35-3.51A2.16,2.16,0,0,1,97,33.91,2.12,2.12,0,0,1,96.76,35.5Z"/><path d="M109.65,74a6,6,0,0,0,2.1,2.65l.29.19a6.12,6.12,0,1,0,6.53-10.35,6.18,6.18,0,0,0-3.26-.94l-.38,0a25.67,25.67,0,0,1,0-11.27c.11,0,.22,0,.34,0a6.12,6.12,0,1,0-4.15-1.63l.07.06a28.63,28.63,0,0,0,0,14.42,4.07,4.07,0,0,0-.43.4,5.1,5.1,0,0,0-.63.82,5.73,5.73,0,0,0-.71,1.58,15.21,15.21,0,0,0-6.83,2.73c-2,1.32-4,2.57-9.63,2.66a32.76,32.76,0,0,0-5.29-.11c-1.43,0-2.91.1-4.85,0-1.34-.07-2.11-.88-3.46-2.42-1.8-2.06-4.22-4.65-9.37-5v4c3.29.3,4.8,1.89,6.36,3.67s3.17,3.62,6.25,3.78a49.83,49.83,0,0,0,5.21,0,24.19,24.19,0,0,1,7.86.69c2.6.64,12.09,9.67,14.77,14.32a4.25,4.25,0,0,0-.31.43,6.1,6.1,0,0,0,1.61,8.25l.29.2a6.12,6.12,0,1,0,3.27-11.3,6,6,0,0,0-1.54.2c-2.56-4.19-8.66-10.46-13.19-13.79a18.42,18.42,0,0,0,4.21-2.19A11.33,11.33,0,0,1,109.65,74Zm3.88-26.92a2.11,2.11,0,0,1,2.9-.66A2.11,2.11,0,1,1,114.18,50l-.1-.06A2.1,2.1,0,0,1,113.53,47.1Zm0,23.46a2.09,2.09,0,0,1,1.78-1,2,2,0,0,1,1.12.33,2.08,2.08,0,0,1,.94,1.32,2.11,2.11,0,0,1-3.19,2.24l-.1-.06A2.1,2.1,0,0,1,113.53,70.56Zm0,26.3a2.11,2.11,0,1,1,3.56,2.26,2.15,2.15,0,0,1-2.91.66l-.1-.07A2.1,2.1,0,0,1,113.53,96.86Z"/></g><path class="cls-15" d="M103.18,111.94a6.12,6.12,0,0,0-10.72,4.73A19.62,19.62,0,0,1,87.13,118a4,4,0,0,1-2.22-1,10.77,10.77,0,0,0-4.15-1.84,37.61,37.61,0,0,0,8.58-12.84A6.11,6.11,0,0,0,92.25,91a6.05,6.05,0,0,0-3.13-.87,6.16,6.16,0,0,0-5.26,3,6.11,6.11,0,0,0,1.62,8.06c-4,9.22-9.21,13.08-12.56,14.69a1.49,1.49,0,0,0-.36.17,11,11,0,0,1-2.56.8v4a12.41,12.41,0,0,0,4.25-1.19c5.34-1.36,6.84-.35,8.4.71A8,8,0,0,0,86.92,122h.31a23.69,23.69,0,0,0,7-1.72A6.1,6.1,0,0,0,98.53,122h0a6.12,6.12,0,0,0,4.65-10.1ZM87.3,95.16a2.12,2.12,0,0,1,1.82-1,2.17,2.17,0,0,1,1.08.3,2.12,2.12,0,0,1,.73,2.9,2.09,2.09,0,0,1-1.81,1,2.21,2.21,0,0,1-1.09-.3,2.13,2.13,0,0,1-.73-2.9Zm12.6,22.36a2,2,0,0,1-1.37.51,2.11,2.11,0,0,1-1.38-3.71,2.11,2.11,0,0,1,3,.23,2.08,2.08,0,0,1-.23,3Z"/><path d="M79,48.44l.21.05Z"/><path class="cls-15" d="M101,35a6.12,6.12,0,1,0-11,4.82,13.36,13.36,0,0,1-10,4.3,28.93,28.93,0,0,0-10-2.32v4A25,25,0,0,1,78.75,48h0A21.57,21.57,0,0,1,87.37,55a6.42,6.42,0,0,0-.38.53,6.12,6.12,0,1,0,8.45-1.91,6.23,6.23,0,0,0-4.67-.75,26,26,0,0,0-5.35-5.57,16.34,16.34,0,0,0,7.78-5.09,6.27,6.27,0,0,0,1.77.26A6.11,6.11,0,0,0,101,35ZM90.38,57.69a2,2,0,0,1,.67-.66,2.11,2.11,0,0,1,1.12-.32,2.12,2.12,0,1,1,0,4.23A2,2,0,0,1,91,60.61,2.12,2.12,0,0,1,90.38,57.69ZM96.76,37.5a2.15,2.15,0,0,1-2.91.66l-.1-.07a2.11,2.11,0,1,1,3-.59Z"/><path class="cls-15" d="M109.65,77a6,6,0,0,0,2.1,2.65l.29.19a6.12,6.12,0,1,0,6.53-10.35,6.18,6.18,0,0,0-3.26-.94l-.38,0a25.67,25.67,0,0,1,0-11.27c.11,0,.22,0,.34,0a6.12,6.12,0,1,0-4.15-1.63l.07.06a28.63,28.63,0,0,0,0,14.42,4.07,4.07,0,0,0-.43.4,5.1,5.1,0,0,0-.63.82,5.73,5.73,0,0,0-.71,1.58,15.21,15.21,0,0,0-6.83,2.73c-2,1.32-4,2.57-9.63,2.66a32.76,32.76,0,0,0-5.29-.11c-1.43,0-2.91.1-4.85,0-1.34-.07-2.11-.88-3.46-2.42-1.8-2.06-4.22-4.65-9.37-5v4c3.29.3,4.8,1.89,6.36,3.67s3.17,3.62,6.25,3.78a49.83,49.83,0,0,0,5.21,0,24.19,24.19,0,0,1,7.86.69c2.6.64,12.09,9.67,14.77,14.32a4.25,4.25,0,0,0-.31.43,6.1,6.1,0,0,0,1.61,8.25l.29.2a6.12,6.12,0,1,0,3.27-11.3,6,6,0,0,0-1.54.2c-2.56-4.19-8.66-10.46-13.19-13.79a18.42,18.42,0,0,0,4.21-2.19A11.33,11.33,0,0,1,109.65,77Zm3.88-26.92a2.11,2.11,0,0,1,2.9-.66A2.11,2.11,0,1,1,114.18,53l-.1-.06A2.1,2.1,0,0,1,113.53,50.1Zm0,23.46a2.09,2.09,0,0,1,1.78-1,2,2,0,0,1,1.12.33,2.08,2.08,0,0,1,.94,1.32,2.11,2.11,0,0,1-3.19,2.24l-.1-.06A2.1,2.1,0,0,1,113.53,73.56Zm0,26.3a2.11,2.11,0,1,1,3.56,2.26,2.15,2.15,0,0,1-2.91.66l-.1-.07A2.1,2.1,0,0,1,113.53,99.86Z"/><path class="cls-9" d="M103.18,108.94a6.12,6.12,0,0,0-10.72,4.73A19.62,19.62,0,0,1,87.13,115a4,4,0,0,1-2.22-1,10.77,10.77,0,0,0-4.15-1.84,37.61,37.61,0,0,0,8.58-12.84A6.11,6.11,0,0,0,92.25,88a6.05,6.05,0,0,0-3.13-.87,6.16,6.16,0,0,0-5.26,3,6.11,6.11,0,0,0,1.62,8.06c-4,9.22-9.21,13.08-12.56,14.69a1.49,1.49,0,0,0-.36.17,11,11,0,0,1-2.56.8v4a12.41,12.41,0,0,0,4.25-1.19c5.34-1.36,6.84-.35,8.4.71A8,8,0,0,0,86.92,119h.31a23.69,23.69,0,0,0,7-1.72A6.1,6.1,0,0,0,98.53,119h0a6.12,6.12,0,0,0,4.65-10.1ZM87.3,92.16a2.12,2.12,0,0,1,1.82-1,2.17,2.17,0,0,1,1.08.3,2.12,2.12,0,0,1,.73,2.9,2.09,2.09,0,0,1-1.81,1,2.21,2.21,0,0,1-1.09-.3,2.13,2.13,0,0,1-.73-2.9Zm12.6,22.36a2,2,0,0,1-1.37.51,2.11,2.11,0,0,1-1.38-3.71,2.11,2.11,0,0,1,3,.23,2.08,2.08,0,0,1-.23,3Z"/><path class="cls-9" d="M79,46l.21.05Z"/><path class="cls-9" d="M101,33a6.12,6.12,0,0,0-2.71-3.85A6.18,6.18,0,0,0,95,28.25a6.12,6.12,0,0,0-5,9.61,13.38,13.38,0,0,1-10,4.29,29.39,29.39,0,0,0-10-2.32v4A24.79,24.79,0,0,1,78.75,46h0a21.54,21.54,0,0,1,8.61,7,5.22,5.22,0,0,0-.38.54A6.14,6.14,0,0,0,88.89,62a6,6,0,0,0,3.27,1,6.13,6.13,0,0,0,3.28-11.31,6.23,6.23,0,0,0-4.67-.75,25.77,25.77,0,0,0-5.35-5.57,16.29,16.29,0,0,0,7.78-5.1,5.94,5.94,0,0,0,1.77.27A6.12,6.12,0,0,0,101,33ZM90.38,55.69a2.14,2.14,0,0,1,.67-.67,2.2,2.2,0,0,1,1.12-.31,2.12,2.12,0,1,1,0,4.23,2.12,2.12,0,0,1-1.78-3.25ZM96.76,35.5a2.14,2.14,0,0,1-2.91.65l-.1-.06a2.11,2.11,0,0,1,2.35-3.51A2.16,2.16,0,0,1,97,33.91,2.12,2.12,0,0,1,96.76,35.5Z"/><path class="cls-9" d="M109.65,74a6,6,0,0,0,2.1,2.65l.29.19a6.12,6.12,0,1,0,6.53-10.35,6.18,6.18,0,0,0-3.26-.94l-.38,0a25.67,25.67,0,0,1,0-11.27c.11,0,.22,0,.34,0a6.12,6.12,0,1,0-4.15-1.63l.07.06a28.63,28.63,0,0,0,0,14.42,4.07,4.07,0,0,0-.43.4,5.1,5.1,0,0,0-.63.82,5.73,5.73,0,0,0-.71,1.58,15.21,15.21,0,0,0-6.83,2.73c-2,1.32-4,2.57-9.63,2.66a32.76,32.76,0,0,0-5.29-.11c-1.43,0-2.91.1-4.85,0-1.34-.07-2.11-.88-3.46-2.42-1.8-2.06-4.22-4.65-9.37-5v4c3.29.3,4.8,1.89,6.36,3.67s3.17,3.62,6.25,3.78a49.83,49.83,0,0,0,5.21,0,24.19,24.19,0,0,1,7.86.69c2.6.64,12.09,9.67,14.77,14.32a4.25,4.25,0,0,0-.31.43,6.1,6.1,0,0,0,1.61,8.25l.29.2a6.12,6.12,0,1,0,3.27-11.3,6,6,0,0,0-1.54.2c-2.56-4.19-8.66-10.46-13.19-13.79a18.42,18.42,0,0,0,4.21-2.19A11.33,11.33,0,0,1,109.65,74Zm3.88-26.92a2.11,2.11,0,0,1,2.9-.66A2.11,2.11,0,1,1,114.18,50l-.1-.06A2.1,2.1,0,0,1,113.53,47.1Zm0,23.46a2.09,2.09,0,0,1,1.78-1,2,2,0,0,1,1.12.33,2.08,2.08,0,0,1,.94,1.32,2.11,2.11,0,0,1-3.19,2.24l-.1-.06A2.1,2.1,0,0,1,113.53,70.56Zm0,26.3a2.11,2.11,0,1,1,3.56,2.26,2.15,2.15,0,0,1-2.91.66l-.1-.07A2.1,2.1,0,0,1,113.53,96.86Z"/><path class="cls-4" d="M174.5,15.23,188.14,52l13.55-36.79h17.95v54.6H206V58.77l1.4-28.69L192.64,69.83h-9l-14.72-39.6,1.41,28.54V69.83H156.64V15.23Z"/><path class="cls-4" d="M250.59,70.7q-10.26,0-16.71-6.3t-6.45-16.77V46.42a28.18,28.18,0,0,1,2.72-12.57,19.9,19.9,0,0,1,7.69-8.54,21.62,21.62,0,0,1,11.37-3q9.57,0,15.07,6t5.5,17.12v5.09H240.07a11.54,11.54,0,0,0,3.64,7.33,11,11,0,0,0,7.7,2.76,13.44,13.44,0,0,0,11.25-5.22l6.13,6.86a18.76,18.76,0,0,1-7.59,6.19A25,25,0,0,1,250.59,70.7Zm-1.43-38.34a7.8,7.8,0,0,0-6,2.51,13.07,13.07,0,0,0-3,7.19h17.34v-1a9.34,9.34,0,0,0-2.24-6.44A8.07,8.07,0,0,0,249.16,32.36Z"/><path class="cls-4" d="M302.12,56.94a4,4,0,0,0-2.26-3.6A25.71,25.71,0,0,0,292.59,51q-16.65-3.5-16.65-14.15a12.83,12.83,0,0,1,5.16-10.37c3.43-2.77,7.93-4.16,13.47-4.16q8.9,0,14.21,4.19a13.17,13.17,0,0,1,5.33,10.86H301.65a6,6,0,0,0-1.73-4.42q-1.73-1.74-5.39-1.74a7.44,7.44,0,0,0-4.87,1.42,4.49,4.49,0,0,0-1.73,3.62,3.83,3.83,0,0,0,2,3.34,20.08,20.08,0,0,0,6.61,2.2,54.72,54.72,0,0,1,7.85,2.09q9.88,3.63,9.88,12.55a12.17,12.17,0,0,1-5.48,10.33q-5.47,3.94-14.14,4a24.64,24.64,0,0,1-10.42-2.1,17.39,17.39,0,0,1-7.13-5.73A13.29,13.29,0,0,1,274.48,55h11.81a6.55,6.55,0,0,0,2.46,5.09,9.77,9.77,0,0,0,6.13,1.77,9.07,9.07,0,0,0,5.41-1.36A4.23,4.23,0,0,0,302.12,56.94Z"/><path class="cls-4" d="M347.53,56.94a4,4,0,0,0-2.26-3.6A25.71,25.71,0,0,0,338,51q-16.65-3.5-16.65-14.15a12.83,12.83,0,0,1,5.16-10.37q5.14-4.16,13.47-4.16,8.89,0,14.21,4.19a13.17,13.17,0,0,1,5.33,10.86H347.06a6,6,0,0,0-1.73-4.42q-1.72-1.74-5.39-1.74a7.44,7.44,0,0,0-4.87,1.42,4.49,4.49,0,0,0-1.73,3.62,3.84,3.84,0,0,0,2,3.34,20.25,20.25,0,0,0,6.62,2.2,55.08,55.08,0,0,1,7.85,2.09q9.89,3.63,9.88,12.55a12.17,12.17,0,0,1-5.48,10.33q-5.48,3.94-14.14,4a24.61,24.61,0,0,1-10.42-2.1,17.48,17.48,0,0,1-7.14-5.73A13.35,13.35,0,0,1,319.89,55H331.7a6.55,6.55,0,0,0,2.46,5.09,9.75,9.75,0,0,0,6.13,1.77,9.09,9.09,0,0,0,5.41-1.36A4.23,4.23,0,0,0,347.53,56.94Z"/><path class="cls-4" d="M385.09,52.2l8.62-29h13.37L388.32,77.08l-1,2.46q-4.19,9.13-13.8,9.14a19.49,19.49,0,0,1-5.52-.82V78.42l1.9,0a10.23,10.23,0,0,0,5.28-1.08,7.1,7.1,0,0,0,2.74-3.58L379.35,70,363,23.17h13.41Z"/><path class="cls-3" d="M156.64,138.83V84.23h21.09q10.92,0,16.78,3.87a13.61,13.61,0,0,1,3.73,18.5,12.16,12.16,0,0,1-6.12,4.57,12.18,12.18,0,0,1,7,4.45,12.32,12.32,0,0,1,2.44,7.58q0,8.1-5.58,11.87t-16.21,3.76ZM170.23,107h8.35q8.19,0,8.2-5.74,0-3.3-2-4.68t-6.07-1.39h-8.49Zm0,9.23v11.72h9.57a10.27,10.27,0,0,0,6.09-1.55,4.81,4.81,0,0,0,2.16-4.1q0-5.88-7.18-6.07Z"/><path class="cls-3" d="M236.11,103.86a33.67,33.67,0,0,0-4.48-.34q-7.08,0-9.27,4.78v30.53H209.89V92.17h11.78l.34,5.57q3.75-6.43,10.39-6.43a13.25,13.25,0,0,1,3.89.56Z"/><path class="cls-3" d="M267.85,138.83a14,14,0,0,1-1.25-4.18,15.09,15.09,0,0,1-11.77,5,16.58,16.58,0,0,1-11.36-4,12.76,12.76,0,0,1-4.51-10q0-7.41,5.5-11.38t15.89-4h5.73v-2.67a7.67,7.67,0,0,0-1.66-5.18q-1.65-1.94-5.24-1.94a7.39,7.39,0,0,0-4.93,1.51,5.12,5.12,0,0,0-1.79,4.14H240a12.5,12.5,0,0,1,2.5-7.5,16.49,16.49,0,0,1,7.07-5.42,25.92,25.92,0,0,1,10.26-2q8.63,0,13.69,4.34t5.07,12.18v20.22q0,6.64,1.85,10v.73Zm-10.3-8.66a10.69,10.69,0,0,0,5.08-1.23,8,8,0,0,0,3.45-3.3v-8h-4.65q-9.36,0-10,6.47l-.05.73a5,5,0,0,0,1.64,3.84A6.4,6.4,0,0,0,257.55,130.17Z"/><path class="cls-3" d="M288.08,80.1A6.11,6.11,0,0,1,290,75.49a8.06,8.06,0,0,1,10.2,0,6.58,6.58,0,0,1,0,9.27,8,8,0,0,1-10.13,0A6.12,6.12,0,0,1,288.08,80.1Zm13.24,58.73H288.81V92.17h12.51Z"/><path class="cls-3" d="M323.05,92.17l.39,5.39a16.3,16.3,0,0,1,13.41-6.25q7.41,0,11,4.36t3.71,13v30.14H339.14V108.92q0-4-1.73-5.77t-5.74-1.79a8.59,8.59,0,0,0-7.89,4.49v33H311.32V92.17Z"/><path class="cls-3" d="M375.36,128.79h22.81v10H359.45v-7.59l21.95-29H360.09v-10h37.39v7.35Z"/></g></g></svg>