<?xml version="1.0" encoding="utf-8"?>
<!-- Generator: Adobe Illustrator 26.0.3, SVG Export Plug-In . SVG Version: 6.00 Build 0)  -->
<svg version="1.1" id="Layer_1" xmlns="http://www.w3.org/2000/svg" xmlns:xlink="http://www.w3.org/1999/xlink" x="0px" y="0px"
	 viewBox="0 0 218 34" style="enable-background:new 0 0 218 34;" xml:space="preserve">
<style type="text/css">
	.st0{fill:#5AA854;}
	.st1{fill:#EB743B;}
	.st2{fill:#444444;}
</style>
<g>
</g>
<g>
	<g>
		<polygon class="st0" points="14,1 2,8 2,22 14,29 		"/>
		<polygon class="st1" points="15,1 27,8 27,22 15,29 		"/>
	</g>
	<g>
		<path class="st0" d="M41.9,5.2l3.5,13.3l3.5-13.3h6.3V25h-4.8v-3.9l0.5-9.2L46.9,25h-3.2l-3.9-13.1l0.5,9.1V25h-4.8V5.2H41.9z"/>
		<path class="st1" d="M58.3,25V5.2H65c2.3,0,4.1,0.5,5.3,1.4c1.2,0.9,1.8,2.3,1.8,4.1c0,1-0.2,1.9-0.7,2.6c-0.4,0.7-1.1,1.3-2,1.6
			c0.9,0.3,1.6,0.8,2.2,1.6s0.8,1.7,0.8,2.8c0,2-0.6,3.4-1.7,4.3c-1.1,0.9-2.9,1.4-5.2,1.4H58.3z M63.1,13.4h2.3
			c1.3,0,1.9-0.7,1.9-2c0-0.8-0.2-1.3-0.5-1.7c-0.3-0.3-0.8-0.5-1.5-0.5h-2.3V13.4z M63.1,16.8V21h2.5c0.7,0,1.2-0.2,1.5-0.5
			c0.4-0.4,0.5-0.9,0.5-1.5c0-1.4-0.6-2.2-1.7-2.2H63.1z"/>
		<path class="st2" d="M90.1,18.2c-0.1,2.2-0.8,3.9-2.2,5.2c-1.4,1.3-3.1,1.9-5.4,1.9c-2.4,0-4.3-0.9-5.7-2.6s-2.1-4.1-2.1-7.2v-0.8
			c0-3,0.7-5.4,2.1-7.1C78.3,5.8,80.2,5,82.5,5c2.2,0,4,0.6,5.3,1.9s2.1,3,2.3,5.3h-4.8c0-2.1-0.9-3.2-2.8-3.2c-1,0-1.7,0.5-2.1,1.4
			s-0.7,2.3-0.7,4.2v1.1c0,2.1,0.2,3.6,0.7,4.4c0.4,0.9,1.2,1.3,2.2,1.3c0.9,0,1.6-0.2,2-0.7c0.4-0.5,0.7-1.3,0.7-2.3H90.1z"/>
		<path class="st2" d="M92,16c0-2.6,0.6-4.6,1.8-6c1.2-1.5,2.9-2.2,5-2.2c2.2,0,3.8,0.7,5,2.2c1.2,1.5,1.8,3.5,1.8,6.1v1.1
			c0,2.6-0.6,4.6-1.8,6s-2.9,2.2-5,2.2c-2.2,0-3.8-0.7-5-2.2c-1.2-1.5-1.8-3.5-1.8-6V16z M96.5,17.1c0,3,0.8,4.5,2.4,4.5
			c1.5,0,2.3-1.3,2.4-3.8l0-1.9c0-1.5-0.2-2.7-0.6-3.4c-0.4-0.7-1-1.1-1.8-1.1c-0.7,0-1.3,0.4-1.8,1.1c-0.4,0.7-0.6,1.9-0.6,3.4
			V17.1z"/>
		<path class="st2" d="M112.6,8.1l0.1,1.6c1-1.2,2.3-1.9,3.9-1.9c1.7,0,2.9,0.8,3.6,2.3c1-1.5,2.3-2.3,4.1-2.3c3,0,4.5,2,4.5,6.1V25
			h-4.4V14.2c0-1-0.1-1.7-0.4-2.1s-0.7-0.6-1.4-0.6c-0.8,0-1.4,0.5-1.8,1.5l0,0.5V25h-4.4V14.2c0-1-0.1-1.7-0.4-2.1
			s-0.7-0.6-1.4-0.6c-0.8,0-1.4,0.4-1.8,1.2V25h-4.4V8.1H112.6z"/>
		<path class="st2" d="M136.3,8.1l0.1,1.6c1-1.2,2.3-1.9,3.9-1.9c1.7,0,2.9,0.8,3.6,2.3c1-1.5,2.3-2.3,4.1-2.3c3,0,4.5,2,4.5,6.1V25
			h-4.4V14.2c0-1-0.1-1.7-0.4-2.1s-0.7-0.6-1.4-0.6c-0.8,0-1.4,0.5-1.8,1.5l0,0.5V25h-4.4V14.2c0-1-0.1-1.7-0.4-2.1
			s-0.7-0.6-1.4-0.6c-0.8,0-1.4,0.4-1.8,1.2V25h-4.4V8.1H136.3z"/>
		<path class="st2" d="M164.2,23.5c-0.9,1.2-2.1,1.9-3.7,1.9c-1.6,0-2.7-0.5-3.5-1.6c-0.8-1.1-1.2-2.6-1.2-4.7V8.1h4.4v11
			c0,1.6,0.6,2.5,1.6,2.5c1,0,1.7-0.4,2.2-1.3V8.1h4.4V25h-4.2L164.2,23.5z"/>
		<path class="st2" d="M175.6,8.1l0.1,1.7c1-1.3,2.3-2,3.9-2c2.9,0,4.4,2,4.5,6.1V25h-4.4V14.2c0-1-0.1-1.7-0.4-2.1
			s-0.8-0.6-1.5-0.6c-0.8,0-1.4,0.4-1.9,1.2V25h-4.4V8.1H175.6z"/>
		<path class="st2" d="M187.3,3.7c0-0.7,0.2-1.2,0.7-1.7c0.4-0.4,1-0.7,1.7-0.7s1.3,0.2,1.7,0.7c0.4,0.4,0.7,1,0.7,1.7
			c0,0.7-0.2,1.2-0.6,1.7s-1,0.7-1.8,0.7c-0.7,0-1.3-0.2-1.8-0.7S187.3,4.4,187.3,3.7z M192,25h-4.4V8.1h4.4V25z"/>
		<path class="st2" d="M200.5,4v4.2h2.3v3.3h-2.3v8.4c0,0.7,0.1,1.1,0.3,1.4c0.2,0.2,0.5,0.4,1.1,0.4c0.4,0,0.8,0,1-0.1l0,3.4
			c-0.7,0.3-1.6,0.4-2.4,0.4c-2.9,0-4.3-1.6-4.3-4.9v-9h-2V8.1h2V4H200.5z"/>
		<path class="st2" d="M210.6,17.6l2.2-9.5h4.7L212,27.5c-0.8,2.9-2.4,4.3-4.7,4.3c-0.5,0-1.1-0.1-1.8-0.3v-3.4l0.5,0
			c0.7,0,1.2-0.1,1.6-0.4s0.6-0.7,0.8-1.4l0.3-1.1l-4.9-17.1h4.7L210.6,17.6z"/>
	</g>
</g>
</svg>
