<svg id="Layer_1" data-name="Layer 1" xmlns="http://www.w3.org/2000/svg" viewBox="0 0 539 150"><defs><style>.cls-1{fill:#eb743b;}.cls-2{fill:#5aa854;}.cls-3{fill:#fffedb;}.cls-4{fill:#444;}</style></defs><polygon class="cls-1" points="68.42 2.82 68.42 146.82 129.68 110.82 129.68 38.82 68.42 2.82"/><polygon class="cls-2" points="63.94 2.82 2.68 38.82 2.68 110.82 63.94 146.82 63.94 2.82"/><path class="cls-3" d="M116.65,87a10,10,0,0,0-8.54-4.72,9.88,9.88,0,0,0-2.92.44,27.1,27.1,0,0,0-12.86-8.45A43.08,43.08,0,0,0,101.16,65,10.1,10.1,0,0,0,112,49.72a10.08,10.08,0,0,0-14-3.15,10.2,10.2,0,0,0-3.14,14,7.94,7.94,0,0,0,.63.89A35.67,35.67,0,0,1,81.33,73.14h0c-5.28,2.4-8.41,3.17-12.89,3.17v7.5c6,0,8.86-1.68,15-4.34,2,0,10.41.27,16.43,7.12a10.13,10.13,0,0,0-.24,11.2A10.12,10.12,0,0,0,116.65,87ZM101.38,51.83a3.89,3.89,0,0,1,5.4,1.23,3.94,3.94,0,0,1-1.22,5.41,3.93,3.93,0,0,1-5.39-1.21A4,4,0,0,1,101.38,51.83Zm10.55,41.4a3.89,3.89,0,0,1-1.74,2.46,3.83,3.83,0,0,1-2.08.61,3.88,3.88,0,0,1-3.3-1.82,3.94,3.94,0,0,1,1-5.3l.18-.11a3.92,3.92,0,0,1,5.91,4.16Z"/><path class="cls-3" d="M20.05,56.72a10.07,10.07,0,0,0,9.34,7.92c2.13,5.74,6.07,10.81,9.75,13.14-3.8,1.58-5.53,2.13-9.23,5.19A10.07,10.07,0,0,0,15.48,94.89a10.11,10.11,0,0,0,12.67,6.68A10.2,10.2,0,0,0,34.8,88.86c-.11-.35-.24-.69-.38-1,5-4,8.08-4.67,14.25-5.69h0a30.23,30.23,0,0,1,15.25,1.68v-7.5c-5.33-1.5-10.07-1.49-16.65-.51-2-.49-8.15-4.55-11.51-13A10.13,10.13,0,1,0,21.37,49.09,10,10,0,0,0,20.05,56.72Zm6.25,38.9A3.93,3.93,0,0,1,24,88.12a3.83,3.83,0,0,1,2.15,0A3.91,3.91,0,0,1,28,89.19a3.85,3.85,0,0,1,.88,1.51A3.93,3.93,0,0,1,26.3,95.62Zm.3-43.2a3.93,3.93,0,0,1,2.47-1.74A3.92,3.92,0,0,1,31,58.29l-.21.05a4,4,0,0,1-4.66-3A3.91,3.91,0,0,1,26.6,52.42Z"/><path class="cls-4" d="M356.87,116.26a8.51,8.51,0,0,1-3.33,6.74,12.93,12.93,0,0,1-8.26,2.51q-5.62,0-8.74-3.32c-2.08-2.22-3.12-5.36-3.12-9.45V112a15,15,0,0,1,1.45-6.74,10.17,10.17,0,0,1,4.09-4.43,12,12,0,0,1,6.12-1.53,12.83,12.83,0,0,1,8.32,2.54,9.6,9.6,0,0,1,3.51,7h-7.37a3.35,3.35,0,0,0-1.14-2.8,5,5,0,0,0-3.32-1q-3.93,0-4.22,5.9l0,1.94a10.91,10.91,0,0,0,1,5.37,3.72,3.72,0,0,0,3.46,1.62q4.31,0,4.22-3.57Z"/><path class="cls-4" d="M358.73,114.68a12.1,12.1,0,0,1,1.2-5.48,8.5,8.5,0,0,1,3.44-3.7,10.39,10.39,0,0,1,5.27-1.29,9.44,9.44,0,0,1,7.28,2.86,11,11,0,0,1,2.67,7.79v.22a10.63,10.63,0,0,1-2.68,7.64,9.48,9.48,0,0,1-7.23,2.82,9.59,9.59,0,0,1-7.06-2.63,10.34,10.34,0,0,1-2.87-7.14Zm6.41.4a7.72,7.72,0,0,0,.89,4.19,3,3,0,0,0,2.65,1.33q3.42,0,3.5-5.27v-.65c0-3.68-1.18-5.53-3.54-5.53q-3.21,0-3.48,4.77Z"/><path class="cls-4" d="M387.47,104.58l.21,2.42a7.07,7.07,0,0,1,5.87-2.79q3.9,0,5.27,3.09a6.86,6.86,0,0,1,6.05-3.09q6.25,0,6.43,7.56v13.39h-6.43v-13a4,4,0,0,0-.53-2.3,2.28,2.28,0,0,0-1.94-.72,3,3,0,0,0-2.84,1.69l0,.27v14h-6.42v-13a4.13,4.13,0,0,0-.52-2.34,2.26,2.26,0,0,0-2-.72,3.05,3.05,0,0,0-2.81,1.69v14.32h-6.41V104.58Z"/><path class="cls-4" d="M421,104.58l.21,2.42a7.07,7.07,0,0,1,5.87-2.79q3.9,0,5.27,3.09a6.86,6.86,0,0,1,6.05-3.09q6.25,0,6.43,7.56v13.39h-6.43v-13a4,4,0,0,0-.53-2.3,2.28,2.28,0,0,0-1.94-.72,3,3,0,0,0-2.84,1.69l0,.27v14h-6.42v-13a4.13,4.13,0,0,0-.52-2.34,2.26,2.26,0,0,0-2-.72,3.05,3.05,0,0,0-2.81,1.69v14.32H415V104.58Z"/><path class="cls-4" d="M460.77,122.94a6.6,6.6,0,0,1-5.5,2.6,6.47,6.47,0,0,1-5.12-2,8.3,8.3,0,0,1-1.74-5.66V104.58h6.41V118c0,1.76.85,2.64,2.56,2.64a3.36,3.36,0,0,0,3.14-1.58V104.58H467v20.58h-6Z"/><path class="cls-4" d="M476.36,104.58l.21,2.42a7,7,0,0,1,5.88-2.79,5.87,5.87,0,0,1,4.8,1.92c1.06,1.28,1.61,3.2,1.65,5.78v13.25h-6.43v-13a3.46,3.46,0,0,0-.63-2.29,2.9,2.9,0,0,0-2.28-.73,3.06,3.06,0,0,0-2.8,1.48v14.53h-6.41V104.58Z"/><path class="cls-4" d="M492.4,99.26a2.92,2.92,0,0,1,1-2.26,4.19,4.19,0,0,1,5.14,0,3.07,3.07,0,0,1,0,4.52,4.19,4.19,0,0,1-5.14,0A2.92,2.92,0,0,1,492.4,99.26Zm6.81,25.9h-6.43V104.58h6.43Z"/><path class="cls-4" d="M510.62,99.47v5.11H514V109h-3.38v9.41a2.42,2.42,0,0,0,.42,1.62,2.25,2.25,0,0,0,1.65.45,9.11,9.11,0,0,0,1.6-.11V125a11.81,11.81,0,0,1-3.62.55,6.74,6.74,0,0,1-4.88-1.55,6.37,6.37,0,0,1-1.58-4.74V109h-2.63v-4.46h2.63V99.47Z"/><path class="cls-4" d="M524.75,116.19l3.42-11.61H535l-8.39,24-.36.87a6.38,6.38,0,0,1-6.32,4,10.2,10.2,0,0,1-2.64-.38v-4.57h.84a4.38,4.38,0,0,0,2.06-.39,2.37,2.37,0,0,0,1.06-1.4l.51-1.37-7.15-20.79h6.85Z"/><path class="cls-2" d="M165.62,33.34,175.28,70l9.66-36.66h17.48V88H189.11V77.07l1.26-25.4L179.64,88h-8.77l-10.68-36.1,1.26,25.22V88H148.19V33.34Z"/><path class="cls-2" d="M230.07,88.81q-9.4,0-14.66-5.61t-5.27-16V63.45q0-11,4.83-17t13.85-6q8.79,0,13.24,5.62t4.52,16.65v6H222.3q.27,5.2,2.29,7.6c1.35,1.6,3.44,2.41,6.25,2.41a13.72,13.72,0,0,0,10.22-4.19l4.79,7.38a15.83,15.83,0,0,1-6.51,5A22.36,22.36,0,0,1,230.07,88.81Zm-7.68-28.63h12.2V59.05a12.84,12.84,0,0,0-1.38-6.33q-1.29-2.16-4.48-2.16a5.09,5.09,0,0,0-4.64,2.28C223.13,54.37,222.56,56.81,222.39,60.18Z"/><path class="cls-2" d="M267.67,29.82V41.29h6.25v9.14h-6.25V73.62a6.85,6.85,0,0,0,.75,3.8,3.41,3.41,0,0,0,2.92,1,11.54,11.54,0,0,0,2.89-.3l-.09,9.49a19.14,19.14,0,0,1-6.73,1.16q-11.82,0-11.94-13.56V50.43h-5.39V41.29h5.39V29.82Z"/><path class="cls-2" d="M302.77,88a17.23,17.23,0,0,1-1-3.62,10.44,10.44,0,0,1-8.89,4.48,13.12,13.12,0,0,1-9.72-3.88,13.66,13.66,0,0,1-3.86-10.05q0-7.34,4.68-11.34t13.48-4.1h3.7V55.69c0-2.1-.36-3.58-1.07-4.44A3.88,3.88,0,0,0,296.91,50q-4.57,0-4.57,5.34H280.13A13.51,13.51,0,0,1,285,44.63a18.1,18.1,0,0,1,12.27-4.21q7.68,0,11.88,4t4.21,11.41V77.77a23,23,0,0,0,1.72,9.44V88Zm-7.2-8.71a6.88,6.88,0,0,0,3.45-.82,5.88,5.88,0,0,0,2.11-1.94V66.77H298.2a6.26,6.26,0,0,0-4.89,2,7.58,7.58,0,0,0-1.79,5.3Q291.52,79.24,295.57,79.24Z"/><path class="cls-1" d="M322.05,88V33.34h18.56q9.57,0,14.6,3.87t5,11.22a14,14,0,0,1-1.83,7.27A10.78,10.78,0,0,1,353,60.25a10.44,10.44,0,0,1,6,4.28,13.73,13.73,0,0,1,2.1,7.76q0,8.16-4.73,11.91T342.11,88ZM335.31,56h6.38c3.53-.1,5.3-2,5.3-5.63,0-2.15-.44-3.69-1.32-4.61a5.28,5.28,0,0,0-4-1.39h-6.33Zm0,9.23V77h6.8a5.69,5.69,0,0,0,4.24-1.51,5.62,5.62,0,0,0,1.48-4.14q0-5.92-4.78-6.12Z"/><path class="cls-1" d="M392.22,53.06l-4.05-.34c-3.34,0-5.59,1.46-6.77,4.39V88H369.15V41.29h11.51l.35,5q2.88-5.91,8-5.91a8.39,8.39,0,0,1,3.36.57Z"/><path class="cls-1" d="M419.34,88a17.23,17.23,0,0,1-1-3.62,10.44,10.44,0,0,1-8.88,4.48,13.14,13.14,0,0,1-9.73-3.88,13.66,13.66,0,0,1-3.86-10.05q0-7.34,4.68-11.34T414,59.44h3.71V55.69q0-3.15-1.08-4.44A3.88,3.88,0,0,0,413.48,50q-4.58,0-4.57,5.34h-12.2a13.48,13.48,0,0,1,4.85-10.67,18.06,18.06,0,0,1,12.26-4.21q7.68,0,11.89,4t4.2,11.41V77.77a23,23,0,0,0,1.72,9.44V88Zm-7.2-8.71a6.88,6.88,0,0,0,3.45-.82,5.91,5.91,0,0,0,2.12-1.94V66.77h-2.94a6.26,6.26,0,0,0-4.89,2,7.62,7.62,0,0,0-1.79,5.3Q408.09,79.24,412.14,79.24Z"/><path class="cls-1" d="M438.75,29.21a6.28,6.28,0,0,1,1.81-4.65,7.32,7.32,0,0,1,9.66,0A6.28,6.28,0,0,1,452,29.21a6.64,6.64,0,1,1-13.28,0ZM451.56,88H439.31V41.29h12.25Z"/><path class="cls-1" d="M472.17,41.29l.35,4.61a12.94,12.94,0,0,1,10.82-5.48q12,0,12.38,16.87V88H483.47V58.19q0-4-1.19-5.75c-.79-1.2-2.17-1.79-4.16-1.79-2.21,0-3.94,1.13-5.17,3.4V88H460.7V41.29Z"/><path class="cls-1" d="M518,77.81h18.46V88H503.48V80.31l18-28.85H503.91V41.29h32.26v7.37Z"/></svg>