<svg xmlns="http://www.w3.org/2000/svg" xmlns:xlink="http://www.w3.org/1999/xlink" width="455" height="110">
  <path fill="#EB743B" d="M52 7v96l41-24V31z"/>
  <path fill="#5AA854" d="M49 7L8 31v48l41 24z"/>
  <defs>
    <path id="a" d="M0 0h455v110H0z"/>
  </defs>
  <clipPath id="b">
    <use overflow="visible" xlink:href="#a"/>
  </clipPath>
  <path fill="#FFFEDB" d="M84.281 63.087c-1.239-1.97-3.38-3.148-5.718-3.148-.666 0-1.324.102-1.956.295-2.632-3.125-5.819-4.776-8.602-5.636 2.235-1.714 4.208-3.77 5.909-6.153 1.74.393 3.63.127 5.162-.832 3.158-2.006 4.103-6.198 2.105-9.348-1.249-1.975-3.39-3.152-5.724-3.152-1.283 0-2.533.363-3.616 1.05-3.147 1.991-4.093 6.18-2.106 9.336.13.207.271.404.422.595-2.514 3.443-5.708 6.056-9.518 7.785l-.014.004C57.093 55.487 55 55.999 52 55.999v5c4 0 5.931-1.125 10.015-2.897 1.367-.023 6.962.185 10.992 4.747-1.507 2.164-1.656 5.107-.16 7.471 1.241 1.97 3.381 3.15 5.72 3.15 1.279 0 2.525-.36 3.608-1.044 1.538-.975 2.598-2.482 2.995-4.252.396-1.761.078-3.568-.889-5.087M74.06 39.669c.423-.265.902-.405 1.397-.405.903 0 1.731.456 2.219 1.224.771 1.214.403 2.836-.819 3.61-.41.261-.895.399-1.386.399-.494 0-.974-.134-1.39-.391-.343-.213-.625-.489-.832-.817-.772-1.225-.407-2.846.811-3.62m7.059 27.601c-.154.687-.564 1.27-1.161 1.645-.413.264-.897.406-1.391.406-.906 0-1.731-.457-2.21-1.218-.745-1.18-.441-2.727.692-3.528l.117-.078c1.208-.766 2.866-.367 3.608.808.377.591.497 1.286.345 1.965M19.625 42.93c.5 2.273 2.116 4.106 4.316 4.896.627.226 1.281.352 1.941.384 1.42 3.831 4.059 7.207 6.525 8.759-2.545 1.053-3.707 1.422-6.183 3.461-1.578-.831-3.473-1.062-5.201-.533-3.57 1.12-5.567 4.924-4.453 8.484.695 2.23 2.458 3.922 4.712 4.527 1.24.332 2.541.305 3.765-.078 3.555-1.109 5.553-4.91 4.451-8.473-.072-.233-.157-.461-.253-.685 3.319-2.674 5.409-3.114 9.537-3.798h.014c3.826-.634 7.38.111 10.204 1.126v-5c-3.563-1-6.739-.995-11.144-.34-1.326-.331-5.453-3.038-7.702-8.694 2.15-1.527 3.285-4.247 2.676-6.976-.502-2.274-2.117-4.108-4.318-4.899-1.203-.432-2.498-.515-3.748-.238-1.777.398-3.285 1.458-4.257 2.989-.968 1.523-1.278 3.331-.882 5.088m4.185 25.937c-.477.146-.975.157-1.454.029-.872-.233-1.554-.889-1.826-1.756-.431-1.373.345-2.844 1.725-3.275.464-.146.968-.153 1.443-.026.476.128.906.382 1.241.738.276.294.477.634.592 1.005.428 1.382-.343 2.854-1.721 3.285m.204-28.804c.377-.594.96-1.004 1.649-1.155.478-.109.981-.079 1.446.088.853.306 1.475 1.015 1.668 1.893.302 1.362-.507 2.715-1.844 3.087l-.136.034c-1.396.312-2.822-.624-3.123-1.98-.154-.685-.033-1.38.34-1.967" clip-path="url(#b)"/>
  <g clip-path="url(#b)">
    <text fill="#5AA854" font-family="'Roboto-Black'" font-size="61" transform="translate(104.1738 63.1309)">
      Meta
    </text>
  </g>
  <g clip-path="url(#b)">
    <text transform="translate(244.1094 63.1309)">
      <tspan x="0" y="0" fill="#EB743B" font-family="'Roboto-Black'" font-size="61">B</tspan><tspan x="39.346" y="0" fill="#EB743B" font-family="'Roboto-Black'" font-size="61">r</tspan><tspan x="61.605" y="0" fill="#EB743B" font-family="'Roboto-Black'" font-size="61">ainz</tspan>
    </text>
  </g>
  <text fill="#444444" font-family="'Roboto-Black'" font-size="33" transform="translate(252.5 93.0156)">
    Community
  </text>
</svg>
