<svg xmlns="http://www.w3.org/2000/svg" xmlns:xlink="http://www.w3.org/1999/xlink" width="410" height="244">
  <path fill="#EB743B" d="M207.499 7.823v144l61-35v-74z"/>
  <path fill="#754E37" d="M202.499 7.823l-61 35v74l61 35z"/>
  <path fill="#573A29" d="M202.499 130.112h-7a1.6 1.6 0 01-1.6-1.6c0-2.306 0-4.92-8.347-6.037-8.708-1.164-31.48-4.937-31.708-4.975a1.6 1.6 0 01-1.339-1.579V54.094a1.6 1.6 0 011.776-1.59l7.2.801a1.6 1.6 0 01-.354 3.18l-5.424-.603v58.683c5.025.828 22.834 3.744 30.271 4.738 8.465 1.134 10.609 4.203 11.034 7.609h5.488v3.2z"/>
  <path fill="#573A29" d="M198.905 62.403c0-9.393-17.466-22.424-37.6-17.773v61.826c20.667-.861 37.6 6.65 37.6 16.148V62.403z"/>
  <path fill="#573A29" d="M172.723 60.106c-.84 0-1.536.664-1.567 1.51-.033.865.363 1.629 1.509 1.629 14.479 0 26.242 12.355 26.242 16.195v-4.188c0-4.026-10.985-15.146-26.123-15.146h-.061zM172.723 71.003c-.84 0-1.536.664-1.567 1.51-.033.865.363 1.63 1.509 1.63 14.479 0 26.242 12.354 26.242 16.194v-4.189c0-4.025-10.985-15.145-26.123-15.145h-.061zM172.723 81.899c-.84 0-1.536.664-1.567 1.51-.033.865.363 1.629 1.509 1.629 14.479 0 26.242 12.355 26.242 16.195v-4.189c0-4.025-10.985-15.145-26.123-15.145h-.061z"/>
  <path fill="#FFFEDB" d="M202.499 127.112h-7a1.6 1.6 0 01-1.6-1.6c0-2.306 0-4.92-8.347-6.037-8.708-1.164-31.48-4.937-31.708-4.975a1.6 1.6 0 01-1.339-1.579V51.094a1.6 1.6 0 011.776-1.59l7.2.801a1.6 1.6 0 01-.354 3.18l-5.424-.603v58.683c5.025.828 22.834 3.744 30.271 4.738 8.465 1.134 10.609 4.203 11.034 7.609h5.488v3.2z"/>
  <path fill="#CFA691" d="M198.905 59.403c0-9.393-17.466-22.424-37.6-17.773v61.826c20.667-.861 37.6 6.65 37.6 16.148V59.403z"/>
  <path fill="#FFFEDB" d="M172.723 57.106c-.84 0-1.536.664-1.567 1.51-.033.865.363 1.629 1.509 1.629 14.479 0 26.242 12.355 26.242 16.195v-4.188c0-4.026-10.985-15.146-26.123-15.146h-.061zM172.723 68.003c-.84 0-1.536.664-1.567 1.51-.033.865.363 1.63 1.509 1.63 14.479 0 26.242 12.354 26.242 16.194v-4.189c0-4.025-10.985-15.145-26.123-15.145h-.061zM172.723 78.899c-.84 0-1.536.664-1.567 1.51-.033.865.363 1.629 1.509 1.629 14.479 0 26.242 12.355 26.242 16.195v-4.189c0-4.025-10.985-15.145-26.123-15.145h-.061z"/>
  <defs>
    <path id="a" d="M207.499 33.239h51.433v90.792h-51.433z"/>
  </defs>
  <clipPath id="b">
    <use xlink:href="#a" overflow="visible"/>
  </clipPath>
  <path clip-path="url(#b)" d="M224.802 99.557a2.117 2.117 0 012.896-.733 2.12 2.12 0 01.735 2.898 2.097 2.097 0 01-1.817 1.032c-.379 0-.755-.105-1.084-.301a2.099 2.099 0 01-.964-1.294 2.105 2.105 0 01.234-1.602m12.601 22.362a2.118 2.118 0 01-2.98-.225 2.117 2.117 0 01.23-2.981 2.083 2.083 0 011.373-.512 2.117 2.117 0 012.109 2.278 2.083 2.083 0 01-.732 1.44M227.879 63.08a2.13 2.13 0 012.916-.656 2.119 2.119 0 01.66 2.918 2.113 2.113 0 01-2.919.662 2.128 2.128 0 01-.657-2.924m6.379-20.187c-.6.951-1.937 1.271-2.912.653l-.096-.062a2.107 2.107 0 01-.557-2.851 2.093 2.093 0 011.784-.98 2.115 2.115 0 012.06 1.656 2.076 2.076 0 01-.279 1.584M251.024 54.491a2.099 2.099 0 011.783-.98c.4 0 .79.113 1.125.325a2.109 2.109 0 01.658 2.914c-.598.951-1.938 1.273-2.912.653l-.093-.062a2.107 2.107 0 01-.561-2.85m0 23.462a2.1 2.1 0 011.783-.979c.4 0 .79.112 1.125.326a2.107 2.107 0 01.658 2.914c-.598.95-1.938 1.271-2.912.651l-.093-.062a2.107 2.107 0 01-.561-2.85m0 26.304a2.101 2.101 0 011.783-.98c.4 0 .79.113 1.125.326a2.109 2.109 0 01.658 2.914c-.598.951-1.938 1.271-2.912.653l-.093-.062a2.108 2.108 0 01-.561-2.851"/>
  <path clip-path="url(#b)" d="M240.675 113.927a6.11 6.11 0 00-8.63-.662 6.12 6.12 0 00-2.087 5.396c-1.949.701-4.259 1.366-5.328 1.332-.822-.043-1.303-.345-2.225-.971-1.172-.795-2.418-1.512-4.148-1.847 2.936-2.761 6.009-6.83 8.584-12.834a6.15 6.15 0 005.039-2.972c1.724-2.896.772-6.659-2.124-8.394a6.134 6.134 0 00-3.135-.864 6.157 6.157 0 00-5.261 2.986 6.079 6.079 0 00-.678 4.636 6.075 6.075 0 002.302 3.429c-4.053 9.218-9.219 13.08-12.564 14.685a2.016 2.016 0 00-.361.168c-1.187.531-2.05.704-2.558.808v4c.274-.03 1.884-.118 4.246-1.192 5.348-1.357 6.84-.354 8.407.709 1.021.692 2.291 1.554 4.264 1.655.099.006.203.009.308.009 2.11 0 5.172-1.022 7.021-1.723a6.135 6.135 0 004.285 1.75 6.112 6.112 0 003.983-1.476 6.072 6.072 0 002.119-4.176 6.082 6.082 0 00-1.459-4.452m-15.873-16.776a2.1 2.1 0 011.818-1.031c.379 0 .753.104 1.078.298a2.12 2.12 0 01.735 2.898 2.097 2.097 0 01-1.817 1.032c-.379 0-.755-.105-1.084-.301a2.099 2.099 0 01-.964-1.294 2.106 2.106 0 01.234-1.602m12.601 22.363a2.118 2.118 0 01-2.98-.225 2.117 2.117 0 01.23-2.981 2.083 2.083 0 011.373-.512 2.117 2.117 0 012.109 2.278 2.083 2.083 0 01-.732 1.44M238.449 38.027a6.088 6.088 0 00-2.708-3.844 6.12 6.12 0 00-3.264-.944 6.077 6.077 0 00-5.175 2.85 6.108 6.108 0 00.145 6.758c-3.646 4.124-8.707 4.314-9.943 4.293-3.691-1.604-7.233-2.164-10.005-2.317v3.996c2.442.144 5.553.686 8.748 2.136.005.002.01.002.015.005 3.445 1.562 6.334 3.927 8.607 7.041a6.364 6.364 0 00-.381.538c-1.796 2.854-.943 6.643 1.902 8.444.98.622 2.111.95 3.27.95a6.104 6.104 0 005.183-2.85c1.807-2.851.951-6.642-1.907-8.453-1.385-.872-3.093-1.114-4.668-.755-1.537-2.155-3.322-4.017-5.345-5.567 2.518-.778 5.401-2.268 7.78-5.095a6.18 6.18 0 001.77.266 6.083 6.083 0 005.173-2.848 6.052 6.052 0 00.803-4.604m-10.57 22.647a2.13 2.13 0 012.916-.656 2.12 2.12 0 01.66 2.919 2.115 2.115 0 01-2.919.661 2.128 2.128 0 01-.657-2.924m6.379-20.187c-.6.951-1.937 1.271-2.912.653l-.096-.062a2.107 2.107 0 01-.557-2.851 2.093 2.093 0 011.784-.98 2.115 2.115 0 012.06 1.656 2.076 2.076 0 01-.279 1.584"/>
  <path clip-path="url(#b)" d="M247.145 79.011a6.041 6.041 0 002.11 2.649 6.093 6.093 0 003.55 1.14 6.083 6.083 0 005.173-2.848 6.065 6.065 0 00.805-4.605 6.122 6.122 0 00-5.975-4.788c-.125 0-.25.008-.375.019-.71-3.158-.919-7.77.035-11.266.113.011.225.024.337.024a6.08 6.08 0 005.173-2.848 6.062 6.062 0 00.805-4.604 6.122 6.122 0 00-5.975-4.788 6.079 6.079 0 00-5.173 2.85 6.104 6.104 0 001.024 7.764c.021.02.049.037.071.059-1.349 4.518-1.145 10.324-.036 14.417-.144.132-.294.254-.426.399a6.25 6.25 0 00-.634.824 6.2 6.2 0 00-.71 1.578c-3.371.488-5.198 1.672-6.824 2.729-2.035 1.324-3.961 2.572-9.636 2.666-1.963-.23-3.552-.178-5.29-.116-1.43.052-2.91.106-4.848.003-1.336-.07-2.104-.882-3.458-2.424-1.804-2.055-4.22-4.648-9.369-5.021v4c3.295.299 4.796 1.887 6.355 3.666 1.487 1.694 3.175 3.615 6.256 3.782 2.118.114 3.761.052 5.208.001 2.491-.092 4.453-.161 7.855.683 2.607.644 12.099 9.674 14.773 14.323-.108.142-.219.282-.313.434-1.743 2.755-1.026 6.385 1.62 8.251a6.092 6.092 0 003.55 1.139 6.081 6.081 0 005.173-2.849 6.06 6.06 0 00.805-4.603 6.122 6.122 0 00-7.518-4.594c-2.56-4.188-8.652-10.455-13.189-13.792 1.813-.628 3.051-1.436 4.213-2.188 1.428-.929 2.614-1.689 4.858-2.066m3.879-26.926a2.099 2.099 0 011.783-.98c.4 0 .79.113 1.125.325a2.109 2.109 0 01.658 2.914c-.598.951-1.938 1.273-2.912.653l-.093-.062a2.106 2.106 0 01-.561-2.85m0 23.464a2.099 2.099 0 011.783-.98c.4 0 .79.112 1.125.326a2.107 2.107 0 01.658 2.914c-.598.949-1.938 1.271-2.912.652l-.093-.062a2.107 2.107 0 01-.561-2.85m0 26.303a2.101 2.101 0 011.783-.98c.4 0 .79.113 1.125.326a2.109 2.109 0 01.658 2.914c-.598.951-1.938 1.271-2.912.653l-.093-.062a2.108 2.108 0 01-.561-2.851"/>
  <path fill="#D3562C" d="M240.675 116.927a6.11 6.11 0 00-8.63-.662 6.12 6.12 0 00-2.087 5.396c-1.949.701-4.259 1.366-5.328 1.332-.822-.043-1.303-.345-2.225-.971-1.172-.795-2.418-1.512-4.148-1.847 2.936-2.761 6.009-6.83 8.584-12.834a6.15 6.15 0 005.039-2.972c1.724-2.896.772-6.659-2.124-8.394a6.134 6.134 0 00-3.135-.864 6.157 6.157 0 00-5.261 2.986 6.079 6.079 0 00-.678 4.636 6.075 6.075 0 002.302 3.429c-4.053 9.218-9.219 13.08-12.564 14.685a2.016 2.016 0 00-.361.168c-1.187.531-2.05.704-2.558.808v4c.274-.03 1.884-.118 4.246-1.192 5.348-1.357 6.84-.354 8.407.709 1.021.692 2.291 1.554 4.264 1.655.099.006.203.009.308.009 2.11 0 5.172-1.022 7.021-1.723a6.135 6.135 0 004.285 1.75 6.112 6.112 0 003.983-1.476 6.072 6.072 0 002.119-4.176 6.082 6.082 0 00-1.459-4.452m-15.873-16.776a2.1 2.1 0 011.818-1.031c.379 0 .753.104 1.078.298a2.12 2.12 0 01.735 2.898 2.097 2.097 0 01-1.817 1.032c-.379 0-.755-.105-1.084-.301a2.099 2.099 0 01-.964-1.294 2.106 2.106 0 01.234-1.602m12.601 22.363a2.118 2.118 0 01-2.98-.225 2.117 2.117 0 01.23-2.981 2.083 2.083 0 011.373-.512 2.117 2.117 0 012.109 2.278 2.083 2.083 0 01-.732 1.44"/>
  <path d="M216.5 53.434"/>
  <path fill="#D3562C" d="M238.449 41.031a6.088 6.088 0 00-2.708-3.844 6.12 6.12 0 00-3.264-.944 6.077 6.077 0 00-5.175 2.85 6.108 6.108 0 00.145 6.758c-3.646 4.124-8.707 4.314-9.943 4.293-3.691-1.604-7.233-2.164-10.005-2.317v3.996c2.442.144 5.553.686 8.748 2.136.005.002.01.002.015.005 3.445 1.562 6.334 3.927 8.607 7.041a6.206 6.206 0 00-.381.538c-1.796 2.854-.943 6.643 1.902 8.444.98.622 2.111.95 3.27.95a6.104 6.104 0 005.183-2.85c1.807-2.852.951-6.643-1.907-8.454-1.385-.872-3.093-1.114-4.668-.755-1.537-2.155-3.322-4.017-5.345-5.567 2.518-.778 5.401-2.268 7.78-5.095a6.18 6.18 0 001.77.266 6.081 6.081 0 005.173-2.849 6.047 6.047 0 00.803-4.602m-10.57 22.647a2.13 2.13 0 012.916-.656 2.117 2.117 0 01-2.259 3.579 2.126 2.126 0 01-.657-2.923m6.379-20.187c-.6.951-1.937 1.271-2.912.653l-.096-.062a2.107 2.107 0 01-.557-2.851 2.093 2.093 0 011.784-.98 2.115 2.115 0 012.06 1.656 2.076 2.076 0 01-.279 1.584"/>
  <path fill="#D3562C" d="M247.145 82.011a6.036 6.036 0 002.11 2.649 6.093 6.093 0 003.55 1.14 6.081 6.081 0 005.173-2.849 6.063 6.063 0 00.805-4.604 6.122 6.122 0 00-5.975-4.788c-.125 0-.25.008-.375.019-.71-3.158-.919-7.77.035-11.266.113.011.225.024.337.024a6.08 6.08 0 005.173-2.848 6.062 6.062 0 00.805-4.604 6.122 6.122 0 00-5.975-4.788 6.079 6.079 0 00-5.173 2.85 6.104 6.104 0 001.024 7.764c.021.02.049.037.071.059-1.349 4.518-1.145 10.324-.036 14.417-.144.132-.294.254-.426.399a6.25 6.25 0 00-.634.824 6.2 6.2 0 00-.71 1.578c-3.371.488-5.198 1.672-6.824 2.729-2.035 1.324-3.961 2.572-9.636 2.666-1.963-.23-3.552-.178-5.29-.116-1.43.052-2.91.105-4.848.003-1.336-.071-2.104-.882-3.458-2.424-1.804-2.055-4.22-4.648-9.369-5.021v4c3.295.299 4.796 1.887 6.355 3.666 1.487 1.694 3.175 3.615 6.256 3.782 2.118.114 3.761.052 5.208.001 2.491-.092 4.453-.161 7.855.683 2.607.644 12.099 9.674 14.773 14.323-.108.142-.219.282-.313.434-1.743 2.755-1.026 6.385 1.62 8.251a6.092 6.092 0 003.55 1.139 6.081 6.081 0 005.173-2.849 6.06 6.06 0 00.805-4.603 6.122 6.122 0 00-7.518-4.594c-2.56-4.188-8.652-10.455-13.189-13.792 1.813-.628 3.051-1.436 4.213-2.188 1.428-.929 2.614-1.689 4.858-2.066m3.879-26.926a2.099 2.099 0 011.783-.98c.4 0 .79.113 1.125.325a2.109 2.109 0 01.658 2.914c-.598.951-1.938 1.273-2.912.653l-.093-.062a2.106 2.106 0 01-.561-2.85m0 23.464a2.099 2.099 0 011.783-.98c.4 0 .79.112 1.125.326a2.107 2.107 0 01.658 2.914c-.598.95-1.938 1.271-2.912.652l-.093-.062a2.107 2.107 0 01-.561-2.85m0 26.303a2.101 2.101 0 011.783-.98c.4 0 .79.113 1.125.326a2.109 2.109 0 01.658 2.914c-.598.951-1.938 1.271-2.912.653l-.093-.062a2.108 2.108 0 01-.561-2.851"/>
  <path fill="#FFFEDB" d="M240.675 113.927a6.11 6.11 0 00-8.63-.662 6.12 6.12 0 00-2.087 5.396c-1.949.701-4.259 1.366-5.328 1.332-.822-.043-1.303-.345-2.225-.971-1.172-.795-2.418-1.512-4.148-1.847 2.936-2.761 6.009-6.83 8.584-12.834a6.15 6.15 0 005.039-2.972c1.724-2.896.772-6.659-2.124-8.394a6.134 6.134 0 00-3.135-.864 6.157 6.157 0 00-5.261 2.986 6.079 6.079 0 00-.678 4.636 6.075 6.075 0 002.302 3.429c-4.053 9.218-9.219 13.08-12.564 14.685a2.016 2.016 0 00-.361.168c-1.187.531-2.05.704-2.558.808v4c.274-.03 1.884-.118 4.246-1.192 5.348-1.357 6.84-.354 8.407.709 1.021.692 2.291 1.554 4.264 1.655.099.006.203.009.308.009 2.11 0 5.172-1.022 7.021-1.723a6.135 6.135 0 004.285 1.75 6.112 6.112 0 003.983-1.476 6.072 6.072 0 002.119-4.176 6.082 6.082 0 00-1.459-4.452m-15.873-16.776a2.1 2.1 0 011.818-1.031c.379 0 .753.104 1.078.298a2.12 2.12 0 01.735 2.898 2.097 2.097 0 01-1.817 1.032c-.379 0-.755-.105-1.084-.301a2.099 2.099 0 01-.964-1.294 2.106 2.106 0 01.234-1.602m12.601 22.363a2.118 2.118 0 01-2.98-.225 2.117 2.117 0 01.23-2.981 2.083 2.083 0 011.373-.512 2.117 2.117 0 012.109 2.278 2.083 2.083 0 01-.732 1.44M238.449 38.027a6.088 6.088 0 00-2.708-3.844 6.12 6.12 0 00-3.264-.944 6.077 6.077 0 00-5.175 2.85 6.108 6.108 0 00.145 6.758c-3.646 4.124-8.707 4.314-9.943 4.293-3.691-1.604-7.233-2.164-10.005-2.317v3.996c2.442.144 5.553.686 8.748 2.136.005.002.01.002.015.005 3.445 1.562 6.334 3.927 8.607 7.041a6.364 6.364 0 00-.381.538c-1.796 2.854-.943 6.643 1.902 8.444.98.622 2.111.95 3.27.95a6.104 6.104 0 005.183-2.85c1.807-2.851.951-6.642-1.907-8.453-1.385-.872-3.093-1.114-4.668-.755-1.537-2.155-3.322-4.017-5.345-5.567 2.518-.778 5.401-2.268 7.78-5.095a6.18 6.18 0 001.77.266 6.083 6.083 0 005.173-2.848 6.052 6.052 0 00.803-4.604m-10.57 22.647a2.13 2.13 0 012.916-.656 2.12 2.12 0 01.66 2.919 2.115 2.115 0 01-2.919.661 2.128 2.128 0 01-.657-2.924m6.379-20.187c-.6.951-1.937 1.271-2.912.653l-.096-.062a2.107 2.107 0 01-.557-2.851 2.093 2.093 0 011.784-.98 2.115 2.115 0 012.06 1.656 2.076 2.076 0 01-.279 1.584"/>
  <path fill="#FFFEDB" d="M247.145 79.011a6.041 6.041 0 002.11 2.649 6.093 6.093 0 003.55 1.14 6.083 6.083 0 005.173-2.848 6.065 6.065 0 00.805-4.605 6.122 6.122 0 00-5.975-4.788c-.125 0-.25.008-.375.019-.71-3.158-.919-7.77.035-11.266.113.011.225.024.337.024a6.08 6.08 0 005.173-2.848 6.062 6.062 0 00.805-4.604 6.122 6.122 0 00-5.975-4.788 6.079 6.079 0 00-5.173 2.85 6.104 6.104 0 001.024 7.764c.021.02.049.037.071.059-1.349 4.518-1.145 10.324-.036 14.417-.144.132-.294.254-.426.399a6.25 6.25 0 00-.634.824 6.2 6.2 0 00-.71 1.578c-3.371.488-5.198 1.672-6.824 2.729-2.035 1.324-3.961 2.572-9.636 2.666-1.963-.23-3.552-.178-5.29-.116-1.43.052-2.91.106-4.848.003-1.336-.07-2.104-.882-3.458-2.424-1.804-2.055-4.22-4.648-9.369-5.021v4c3.295.299 4.796 1.887 6.355 3.666 1.487 1.694 3.175 3.615 6.256 3.782 2.118.114 3.761.052 5.208.001 2.491-.092 4.453-.161 7.855.683 2.607.644 12.099 9.674 14.773 14.323-.108.142-.219.282-.313.434-1.743 2.755-1.026 6.385 1.62 8.251a6.092 6.092 0 003.55 1.139 6.081 6.081 0 005.173-2.849 6.06 6.06 0 00.805-4.603 6.122 6.122 0 00-7.518-4.594c-2.56-4.188-8.652-10.455-13.189-13.792 1.813-.628 3.051-1.436 4.213-2.188 1.428-.929 2.614-1.689 4.858-2.066m3.879-26.926a2.099 2.099 0 011.783-.98c.4 0 .79.113 1.125.325a2.109 2.109 0 01.658 2.914c-.598.951-1.938 1.273-2.912.653l-.093-.062a2.106 2.106 0 01-.561-2.85m0 23.464a2.099 2.099 0 011.783-.98c.4 0 .79.112 1.125.326a2.107 2.107 0 01.658 2.914c-.598.949-1.938 1.271-2.912.652l-.093-.062a2.107 2.107 0 01-.561-2.85m0 26.303a2.101 2.101 0 011.783-.98c.4 0 .79.113 1.125.326a2.109 2.109 0 01.658 2.914c-.598.951-1.938 1.271-2.912.653l-.093-.062a2.108 2.108 0 01-.561-2.851"/>
  <g fill="#754E37">
    <path d="M11.132 229.942v-54.031H30.54c6.952 0 12.24 1.274 15.864 3.822 3.624 2.548 5.437 6.247 5.437 11.096 0 2.796-.644 5.183-1.93 7.162-1.287 1.979-3.179 3.438-5.678 4.379 2.82.742 4.985 2.128 6.494 4.156 1.509 2.029 2.264 4.503 2.264 7.422 0 5.295-1.676 9.271-5.028 11.931-3.353 2.66-8.319 4.015-14.899 4.063H11.132zm13.026-31.505h6.791c2.845-.024 4.874-.546 6.086-1.563 1.212-1.017 1.818-2.518 1.818-4.504 0-2.282-.656-3.926-1.967-4.931-1.312-1.005-3.427-1.508-6.346-1.508h-6.383v12.506zm0 8.535v12.951h8.535c2.35 0 4.156-.538 5.418-1.614s1.893-2.591 1.893-4.546c0-4.502-2.239-6.766-6.717-6.791h-9.129zM58.001 209.495c0-4.008.779-7.576 2.338-10.706 1.559-3.129 3.797-5.535 6.717-7.218 2.919-1.683 6.346-2.523 10.279-2.523 6.012 0 10.749 1.862 14.213 5.585 3.463 3.724 5.195 8.789 5.195 15.196v.445c0 6.26-1.738 11.226-5.214 14.899-3.476 3.674-8.183 5.511-14.12 5.511-5.715 0-10.304-1.713-13.768-5.14-3.464-3.426-5.332-8.071-5.604-13.935l-.036-2.114zm12.506.779c0 3.711.581 6.433 1.744 8.164 1.163 1.732 2.882 2.598 5.158 2.598 4.453 0 6.729-3.426 6.828-10.279v-1.262c0-7.199-2.301-10.799-6.902-10.799-4.181 0-6.445 3.104-6.791 9.314l-.037 2.264zM100.677 209.495c0-4.008.779-7.576 2.338-10.706 1.559-3.129 3.797-5.535 6.717-7.218 2.919-1.683 6.346-2.523 10.279-2.523 6.012 0 10.749 1.862 14.213 5.585 3.463 3.724 5.195 8.789 5.195 15.196v.445c0 6.26-1.738 11.226-5.214 14.899-3.476 3.674-8.183 5.511-14.12 5.511-5.715 0-10.304-1.713-13.768-5.14-3.464-3.426-5.332-8.071-5.604-13.935l-.036-2.114zm12.506.779c0 3.711.581 6.433 1.744 8.164 1.163 1.732 2.882 2.598 5.158 2.598 4.453 0 6.729-3.426 6.828-10.279v-1.262c0-7.199-2.301-10.799-6.902-10.799-4.181 0-6.445 3.104-6.791 9.314l-.037 2.264zM161.054 214.987l-3.525 3.525v11.43h-12.506v-57.037h12.506v30.281l1.262-1.67 9.426-11.727h14.992l-14.064 16.514 14.992 23.639h-14.324l-8.759-14.955z"/>
  </g>
  <g fill="#EB743B">
    <path d="M187.073 229.942v-54.031h19.408c6.951 0 12.239 1.274 15.864 3.822 3.624 2.548 5.437 6.247 5.437 11.096 0 2.796-.644 5.183-1.93 7.162-1.287 1.979-3.18 3.438-5.678 4.379 2.82.742 4.984 2.128 6.494 4.156 1.509 2.029 2.264 4.503 2.264 7.422 0 5.295-1.677 9.271-5.028 11.931-3.353 2.66-8.319 4.015-14.899 4.063h-21.932zm13.025-31.505h6.791c2.845-.024 4.873-.546 6.086-1.563 1.212-1.017 1.818-2.518 1.818-4.504 0-2.282-.656-3.926-1.967-4.931-1.312-1.005-3.427-1.508-6.346-1.508h-6.383v12.506zm0 8.535v12.951h8.535c2.35 0 4.156-.538 5.418-1.614s1.893-2.591 1.893-4.546c0-4.502-2.239-6.766-6.717-6.791h-9.129zM259.807 201.108l-4.119-.297c-3.934 0-6.457 1.237-7.57 3.711v25.42h-12.506V189.79h11.727l.408 5.158c2.103-3.934 5.034-5.9 8.795-5.9 1.336 0 2.498.148 3.488.445l-.223 11.615zM285.87 229.942c-.445-.816-.842-2.016-1.188-3.6-2.301 2.895-5.518 4.342-9.648 4.342-3.785 0-7.002-1.144-9.648-3.433-2.647-2.288-3.971-5.164-3.971-8.628 0-4.354 1.607-7.645 4.824-9.871 3.216-2.227 7.892-3.34 14.027-3.34h3.859v-2.126c0-3.703-1.596-5.556-4.787-5.556-2.969 0-4.453 1.467-4.453 4.4h-12.506c0-3.879 1.651-7.03 4.954-9.451s7.515-3.633 12.636-3.633 9.166 1.249 12.135 3.748 4.49 5.925 4.564 10.279v17.775c.049 3.687.618 6.507 1.707 8.461v.631H285.87zm-7.83-8.164c1.559 0 2.851-.334 3.878-1.002 1.026-.668 1.763-1.422 2.208-2.264v-6.42h-3.637c-4.354 0-6.531 1.955-6.531 5.863 0 1.139.383 2.06 1.15 2.765.767.706 1.744 1.058 2.932 1.058zM303.497 179.437c0-1.781.643-3.241 1.93-4.379 1.286-1.138 2.956-1.707 5.01-1.707 2.053 0 3.723.569 5.01 1.707 1.286 1.138 1.93 2.598 1.93 4.379s-.644 3.241-1.93 4.379c-1.287 1.138-2.957 1.707-5.01 1.707-2.054 0-3.724-.569-5.01-1.707-1.288-1.138-1.93-2.598-1.93-4.379zm13.285 50.505h-12.543V189.79h12.543v40.152zM335.967 189.79l.408 4.713c2.771-3.637 6.593-5.455 11.467-5.455 4.181 0 7.303 1.249 9.37 3.748s3.137 6.259 3.211 11.281v25.865H347.88v-25.346c0-2.028-.408-3.519-1.225-4.472-.816-.952-2.301-1.429-4.453-1.429-2.449 0-4.268.965-5.455 2.895v28.352h-12.506V189.79h11.726zM382.095 220.294h18.295v9.648h-34.104v-6.977l17.812-23.527h-17.033v-9.648h32.916v6.754l-17.886 23.75z"/>
  </g>
</svg>
