<svg id="Layer_1" data-name="Layer 1" xmlns="http://www.w3.org/2000/svg" viewBox="0 0 193 30"><defs><style>.cls-1{fill:#ffde00;}.cls-2{fill:#eb743b;}</style></defs><polygon class="cls-1" points="14 1 2 8 2 22 14 29 14 1"/><polygon class="cls-2" points="15 1 27 8 27 22 15 29 15 1"/><path class="cls-1" d="M51,15.52a12.56,12.56,0,0,1-1,5.11,7.84,7.84,0,0,1-2.8,3.43,7.69,7.69,0,0,1-8.25,0,7.79,7.79,0,0,1-2.84-3.42,12.47,12.47,0,0,1-1-5.14v-.77a12.62,12.62,0,0,1,1-5.15A7.87,7.87,0,0,1,38.9,6.17,7.34,7.34,0,0,1,43,5a7.11,7.11,0,0,1,5.57,2.47A10.4,10.4,0,0,1,51,14Zm-4.8-.8a9.07,9.07,0,0,0-.82-4.3,2.56,2.56,0,0,0-4.66,0,9.35,9.35,0,0,0-.8,4.3v.78a9,9,0,0,0,.84,4.32,2.58,2.58,0,0,0,2.34,1.5,2.51,2.51,0,0,0,2.26-1.52,9,9,0,0,0,.84-4.22Z"/><path class="cls-1" d="M54.74,25V11.42h-2V8.11h2V6.6a6.18,6.18,0,0,1,1.47-4.35,5.3,5.3,0,0,1,4-1.55,8.29,8.29,0,0,1,2,.31l0,3.53a3.88,3.88,0,0,0-1.08-.14c-1.31,0-2,.78-2,2.34V8.11h2.64v3.31H59.17V25Z"/><path class="cls-1" d="M65.21,25V11.42h-2V8.11h2V6.6a6.14,6.14,0,0,1,1.48-4.35,5.28,5.28,0,0,1,4-1.55,8.29,8.29,0,0,1,2,.31l0,3.53a3.78,3.78,0,0,0-1.08-.14c-1.31,0-2,.78-2,2.34V8.11h2.63v3.31H69.65V25Z"/><path class="cls-1" d="M74.67,3.74a2.26,2.26,0,0,1,.66-1.68,2.64,2.64,0,0,1,3.49,0,2.26,2.26,0,0,1,.66,1.68,2.35,2.35,0,0,1-.65,1.69,2.63,2.63,0,0,1-3.51,0A2.35,2.35,0,0,1,74.67,3.74ZM79.31,25H74.87V8.11h4.44Z"/><path class="cls-1" d="M88.83,21.64q1.92,0,2-2.49h4.15a6.2,6.2,0,0,1-1.7,4.46,5.75,5.75,0,0,1-4.31,1.7,6.15,6.15,0,0,1-5-2,9.16,9.16,0,0,1-1.75-6V16a9.46,9.46,0,0,1,1.7-6.07,6.06,6.06,0,0,1,5-2.09,5.72,5.72,0,0,1,4.4,1.73,7,7,0,0,1,1.64,4.89H90.78a4.45,4.45,0,0,0-.47-2.19,1.6,1.6,0,0,0-1.5-.76,1.77,1.77,0,0,0-1.65.82,6.83,6.83,0,0,0-.53,3.17v1.72a13.56,13.56,0,0,0,.2,2.88,2.11,2.11,0,0,0,.67,1.2A2,2,0,0,0,88.83,21.64Z"/><path class="cls-1" d="M104.25,25.31a6.9,6.9,0,0,1-5.31-2,8.14,8.14,0,0,1-1.9-5.8V16.13A9.57,9.57,0,0,1,98.79,10a6,6,0,0,1,5-2.17,5.77,5.77,0,0,1,4.8,2q1.6,2,1.63,6V18h-8.78a4.63,4.63,0,0,0,.82,2.75,2.81,2.81,0,0,0,2.27.87,5,5,0,0,0,3.7-1.51L110,22.8a5.76,5.76,0,0,1-2.36,1.82A8.13,8.13,0,0,1,104.25,25.31ZM101.47,15h4.42v-.41a4.71,4.71,0,0,0-.5-2.29,1.76,1.76,0,0,0-1.63-.78,1.8,1.8,0,0,0-1.67.83A5.61,5.61,0,0,0,101.47,15Z"/><path class="cls-2" d="M112.67,25V5.24h6.72a8.53,8.53,0,0,1,5.29,1.4,4.81,4.81,0,0,1,1.82,4.06,5.09,5.09,0,0,1-.66,2.63,3.86,3.86,0,0,1-2,1.64A3.81,3.81,0,0,1,126,16.53a4.93,4.93,0,0,1,.77,2.8,5.17,5.17,0,0,1-1.72,4.31A8.17,8.17,0,0,1,119.93,25Zm4.8-11.55h2.31a1.78,1.78,0,0,0,1.92-2,2.36,2.36,0,0,0-.48-1.67,1.92,1.92,0,0,0-1.46-.5h-2.29Zm0,3.34v4.26h2.46a2,2,0,0,0,1.54-.55A2,2,0,0,0,122,19c0-1.43-.57-2.17-1.73-2.21Z"/><path class="cls-2" d="M138.07,12.37l-1.47-.12a2.42,2.42,0,0,0-2.45,1.59V25h-4.43V8.11h4.17L134,9.94A3.2,3.2,0,0,1,136.9,7.8a3.24,3.24,0,0,1,1.22.2Z"/><path class="cls-2" d="M147.89,25a6.16,6.16,0,0,1-.38-1.31,3.77,3.77,0,0,1-3.21,1.62,4.77,4.77,0,0,1-3.52-1.4,5,5,0,0,1-1.4-3.64,5.09,5.09,0,0,1,1.7-4.1A7.41,7.41,0,0,1,146,14.68h1.34V13.33a2.55,2.55,0,0,0-.39-1.61,1.41,1.41,0,0,0-1.14-.47c-1.1,0-1.65.65-1.65,1.94h-4.42a4.9,4.9,0,0,1,1.76-3.87,6.56,6.56,0,0,1,4.44-1.52,6,6,0,0,1,4.3,1.44,5.45,5.45,0,0,1,1.52,4.13v8a8.19,8.19,0,0,0,.63,3.41V25Zm-2.61-3.15a2.44,2.44,0,0,0,1.25-.3,2.08,2.08,0,0,0,.76-.7V17.34h-1.06a2.28,2.28,0,0,0-1.77.71,2.77,2.77,0,0,0-.65,1.92C143.81,21.22,144.3,21.85,145.28,21.85Z"/><path class="cls-2" d="M154.91,3.74a2.26,2.26,0,0,1,.66-1.68,2.32,2.32,0,0,1,1.74-.66,2.36,2.36,0,0,1,1.75.66,2.26,2.26,0,0,1,.66,1.68,2.35,2.35,0,0,1-.65,1.69,2.63,2.63,0,0,1-3.51,0A2.35,2.35,0,0,1,154.91,3.74ZM159.55,25h-4.44V8.11h4.44Z"/><path class="cls-2" d="M167,8.11l.12,1.67a4.7,4.7,0,0,1,3.92-2q4.35,0,4.48,6.1V25H171.1V14.23a3.91,3.91,0,0,0-.43-2.08,1.69,1.69,0,0,0-1.51-.65,2.05,2.05,0,0,0-1.87,1.23V25h-4.44V8.11Z"/><path class="cls-2" d="M183.58,21.33h6.68V25H178.34V22.24l6.52-10.44h-6.37V8.11h11.68v2.67Z"/></svg>