<svg id="Layer_1" data-name="Layer 1" xmlns="http://www.w3.org/2000/svg" viewBox="0 0 400 150"><defs><style>.cls-1{fill:#eb743b;}.cls-2{opacity:0.07;}.cls-3{fill:#d3562c;}.cls-4{fill:#fffedb;}.cls-5{fill:#ffde00;}.cls-6{fill:#fffdbe;}.cls-7{fill:#fffdbf;fill-opacity:0.94;}.cls-8{fill:#e3c604;}</style></defs><g id="g3429"><g id="g3388"><polygon id="polygon3512" class="cls-1" points="70 2.83 70 146.83 131 111.83 131 37.83 70 2.83"/><g id="g3518" class="cls-2"><path id="path3520" d="M87.3,94.57a2.1,2.1,0,0,1,1.82-1,2.16,2.16,0,0,1,1.08.29,2.12,2.12,0,0,1,.73,2.9,2.07,2.07,0,0,1-1.81,1,2.11,2.11,0,0,1-1.09-.3,2.11,2.11,0,0,1-.73-2.89Zm12.6,22.36a2.07,2.07,0,0,1-1.37.51,2.11,2.11,0,0,1-1.38-3.72,2.12,2.12,0,0,1,3.49,1.77A2.14,2.14,0,0,1,99.9,116.93Z"/><path id="path3522" d="M79,48.44l.21.05Z"/><path id="path3524" d="M90.38,58.09a2,2,0,0,1,.67-.66,2.11,2.11,0,0,1,1.12-.32,2.16,2.16,0,0,1,1.13.33,2.11,2.11,0,0,1-1.14,3.9A2,2,0,0,1,91,61,2.12,2.12,0,0,1,90.38,58.09ZM96.76,37.9a2.13,2.13,0,0,1-2.91.66l-.1-.07A2.11,2.11,0,0,1,95,34.66,2.15,2.15,0,0,1,96.1,35,2.11,2.11,0,0,1,97,36.32,2.09,2.09,0,0,1,96.76,37.9Z"/><path id="path3526" d="M113.53,49.5a2.11,2.11,0,1,1,3.56,2.26,2.14,2.14,0,0,1-2.91.65l-.09-.06A2.09,2.09,0,0,1,113.53,49.5Zm0,23.47a2.11,2.11,0,1,1,3.56,2.25,2.14,2.14,0,0,1-2.91.66l-.09-.07A2.08,2.08,0,0,1,113.53,73Zm0,26.3a2.11,2.11,0,0,1,2.9-.66,2.11,2.11,0,1,1-2.25,3.57l-.09-.06A2.1,2.1,0,0,1,113.53,99.27Z"/><path id="path3528" d="M103.18,108.94a6.12,6.12,0,0,0-10.72,4.73A20.1,20.1,0,0,1,87.13,115a4.06,4.06,0,0,1-2.22-1,10.77,10.77,0,0,0-4.15-1.84,37.61,37.61,0,0,0,8.58-12.84,6.12,6.12,0,1,0-5.48-9.24,6.12,6.12,0,0,0,1.62,8.06c-4,9.22-9.21,13.08-12.56,14.69a1.49,1.49,0,0,0-.36.17,11,11,0,0,1-2.56.8v4a12.36,12.36,0,0,0,4.25-1.19c5.35-1.35,6.84-.35,8.4.71A7.93,7.93,0,0,0,86.92,119h.31a23.62,23.62,0,0,0,7-1.73A6.1,6.1,0,0,0,98.53,119h0a6.14,6.14,0,0,0,4-1.47,6.14,6.14,0,0,0,.66-8.63ZM87.3,92.16a2.12,2.12,0,0,1,1.82-1,2.17,2.17,0,0,1,1.08.3,2.12,2.12,0,0,1,.73,2.9,2.11,2.11,0,0,1-3.63-2.17Zm12.6,22.37a2.06,2.06,0,0,1-1.37.5,2.1,2.1,0,0,1-1.61-.73,2.11,2.11,0,1,1,3.21-2.75,2.1,2.1,0,0,1,.51,1.53A2.14,2.14,0,0,1,99.9,114.53Z"/><path id="path3530" d="M79,46l.21.05Z"/><path id="path3532" d="M101,33a6.12,6.12,0,0,0-2.71-3.85A6.18,6.18,0,0,0,95,28.25a6.12,6.12,0,0,0-5,9.61A13.37,13.37,0,0,1,80,42.15a29.49,29.49,0,0,0-10-2.32v4A24.79,24.79,0,0,1,78.75,46h0a21.54,21.54,0,0,1,8.61,7l-.38.54A6.14,6.14,0,0,0,88.89,62a6,6,0,0,0,3.27,1,6.13,6.13,0,0,0,3.28-11.31,6.23,6.23,0,0,0-4.67-.75,25.77,25.77,0,0,0-5.35-5.57,16.29,16.29,0,0,0,7.78-5.1,5.94,5.94,0,0,0,1.77.27A6.12,6.12,0,0,0,101,33ZM90.38,55.69a2,2,0,0,1,.67-.66,2.11,2.11,0,0,1,1.12-.32,2.12,2.12,0,1,1,0,4.23,2.12,2.12,0,0,1-1.78-3.25ZM96.76,35.5a2.14,2.14,0,0,1-2.91.65l-.1-.06A2.11,2.11,0,0,1,95,32.26a2.14,2.14,0,0,1,1.12.32A2.16,2.16,0,0,1,97,33.91,2.12,2.12,0,0,1,96.76,35.5Z"/><path id="path3534" d="M109.65,74a6,6,0,0,0,2.1,2.65l.29.19a6.12,6.12,0,0,0,9.24-6.5,6,6,0,0,0-2.71-3.85,6.15,6.15,0,0,0-3.26-.94l-.38,0a25.67,25.67,0,0,1,0-11.27c.11,0,.22,0,.34,0a6.12,6.12,0,0,0,6-7.46A6.12,6.12,0,0,0,110.14,45a6.1,6.1,0,0,0,1,7.76l.07.06a28.64,28.64,0,0,0,0,14.42,5.25,5.25,0,0,0-.42.4,5.8,5.8,0,0,0-.64.82,6.39,6.39,0,0,0-.71,1.58,15.21,15.21,0,0,0-6.82,2.73c-2,1.32-4,2.57-9.64,2.66a31.62,31.62,0,0,0-5.29-.11c-1.43,0-2.91.1-4.84,0-1.34-.07-2.11-.88-3.46-2.43-1.81-2-4.22-4.64-9.37-5v4c3.29.3,4.79,1.89,6.35,3.67s3.18,3.61,6.26,3.78c2.12.12,3.76,0,5.21,0a24.11,24.11,0,0,1,7.85.69c2.61.64,12.1,9.67,14.78,14.32-.11.14-.22.28-.32.43a6.11,6.11,0,0,0,1.62,8.25,1.81,1.81,0,0,0,.29.19,6,6,0,0,0,3.26,1,6.12,6.12,0,0,0,0-12.24,6.16,6.16,0,0,0-1.55.2c-2.56-4.19-8.65-10.46-13.19-13.8a18.13,18.13,0,0,0,4.22-2.18A11.33,11.33,0,0,1,109.65,74Zm3.88-26.92a2.11,2.11,0,0,1,2.9-.66A2.11,2.11,0,1,1,114.18,50l-.09-.06A2.1,2.1,0,0,1,113.53,47.1Zm0,23.46a2.09,2.09,0,0,1,1.78-1,2,2,0,0,1,1.12.33,2.08,2.08,0,0,1,.94,1.32,2.11,2.11,0,0,1-3.19,2.24l-.09-.06A2.1,2.1,0,0,1,113.53,70.56Zm0,26.3a2.11,2.11,0,1,1,3.56,2.26,2.15,2.15,0,0,1-2.91.66l-.09-.07A2.09,2.09,0,0,1,113.53,96.86Z"/></g><g id="g3538"><path id="path3540" class="cls-3" d="M103.18,111.94a6.12,6.12,0,0,0-10.72,4.73A20.1,20.1,0,0,1,87.13,118a4.06,4.06,0,0,1-2.22-1,10.77,10.77,0,0,0-4.15-1.84,37.61,37.61,0,0,0,8.58-12.84,6.12,6.12,0,1,0-5.48-9.24,6.12,6.12,0,0,0,1.62,8.06c-4,9.22-9.21,13.08-12.56,14.69a1.49,1.49,0,0,0-.36.17,11,11,0,0,1-2.56.8v4a12.36,12.36,0,0,0,4.25-1.19c5.35-1.35,6.84-.35,8.4.71A7.93,7.93,0,0,0,86.92,122h.31a23.62,23.62,0,0,0,7-1.73A6.1,6.1,0,0,0,98.53,122h0a6.14,6.14,0,0,0,4-1.47,6.14,6.14,0,0,0,.66-8.63ZM87.3,95.16a2.12,2.12,0,0,1,1.82-1,2.17,2.17,0,0,1,1.08.3,2.12,2.12,0,0,1,.73,2.9,2.11,2.11,0,0,1-3.63-2.17Zm12.6,22.37a2.06,2.06,0,0,1-1.37.5,2.1,2.1,0,0,1-1.61-.73,2.11,2.11,0,1,1,3.21-2.75,2.1,2.1,0,0,1,.51,1.53A2.14,2.14,0,0,1,99.9,117.53Z"/><path id="path3542" d="M79,48.44l.21.05Z"/><path id="path3544" class="cls-3" d="M101,36a6.12,6.12,0,1,0-11,4.82A13.36,13.36,0,0,1,80,45.16a29,29,0,0,0-10-2.32v4A25,25,0,0,1,78.75,49h0a21.46,21.46,0,0,1,8.61,7c-.13.17-.26.35-.38.53a6.12,6.12,0,1,0,8.45-1.91,6.23,6.23,0,0,0-4.67-.75,26,26,0,0,0-5.35-5.57,16.27,16.27,0,0,0,7.78-5.09,6.27,6.27,0,0,0,1.77.26A6.11,6.11,0,0,0,101,36ZM90.38,58.69a2,2,0,0,1,.67-.66,2.11,2.11,0,0,1,1.12-.32,2.12,2.12,0,1,1,0,4.23A2,2,0,0,1,91,61.61,2.12,2.12,0,0,1,90.38,58.69ZM96.76,38.5a2.15,2.15,0,0,1-2.91.66l-.1-.07A2.11,2.11,0,0,1,95,35.26a2.06,2.06,0,0,1,1.12.33,2.1,2.1,0,0,1,.66,2.91Z"/><path id="path3546" class="cls-3" d="M109.65,77a6,6,0,0,0,2.1,2.65l.29.19a6.12,6.12,0,0,0,9.24-6.5,6,6,0,0,0-2.71-3.85,6.15,6.15,0,0,0-3.26-.94l-.38,0a25.67,25.67,0,0,1,0-11.27c.11,0,.22,0,.34,0a6.12,6.12,0,0,0,6-7.46A6.12,6.12,0,0,0,110.14,48a6.1,6.1,0,0,0,1,7.76l.07.06a28.64,28.64,0,0,0,0,14.42,5.25,5.25,0,0,0-.42.4,5.8,5.8,0,0,0-.64.82,6.39,6.39,0,0,0-.71,1.58,15.21,15.21,0,0,0-6.82,2.73c-2,1.32-4,2.57-9.64,2.66a31.62,31.62,0,0,0-5.29-.11c-1.43,0-2.91.1-4.84,0-1.34-.07-2.11-.88-3.46-2.43-1.81-2-4.22-4.64-9.37-5v4c3.29.3,4.79,1.89,6.35,3.67s3.18,3.61,6.26,3.78c2.12.12,3.76,0,5.21,0a24.11,24.11,0,0,1,7.85.69c2.61.64,12.1,9.67,14.78,14.32-.11.14-.22.28-.32.43a6.11,6.11,0,0,0,1.62,8.25,1.81,1.81,0,0,0,.29.19,6,6,0,0,0,3.26,1,6.12,6.12,0,0,0,0-12.24,6.16,6.16,0,0,0-1.55.2c-2.56-4.19-8.65-10.46-13.19-13.8a18.13,18.13,0,0,0,4.22-2.18A11.33,11.33,0,0,1,109.65,77Zm3.88-26.92a2.11,2.11,0,0,1,2.9-.66A2.11,2.11,0,1,1,114.18,53l-.09-.06A2.1,2.1,0,0,1,113.53,50.1Zm0,23.46a2.09,2.09,0,0,1,1.78-1,2,2,0,0,1,1.12.33,2.07,2.07,0,0,1,.94,1.33,2.1,2.1,0,0,1-.28,1.58,2.14,2.14,0,0,1-2.91.65l-.09-.06A2.1,2.1,0,0,1,113.53,73.56Zm0,26.3a2.11,2.11,0,1,1,3.56,2.26,2.15,2.15,0,0,1-2.91.66l-.09-.07A2.09,2.09,0,0,1,113.53,99.86Z"/></g><path id="path3550" class="cls-4" d="M103.18,108.94a6.12,6.12,0,0,0-10.72,4.73A20.1,20.1,0,0,1,87.13,115a4.06,4.06,0,0,1-2.22-1,10.77,10.77,0,0,0-4.15-1.84,37.61,37.61,0,0,0,8.58-12.84,6.12,6.12,0,1,0-5.48-9.24,6.12,6.12,0,0,0,1.62,8.06c-4,9.22-9.21,13.08-12.56,14.69a1.49,1.49,0,0,0-.36.17,11,11,0,0,1-2.56.8v4a12.36,12.36,0,0,0,4.25-1.19c5.35-1.35,6.84-.35,8.4.71A7.93,7.93,0,0,0,86.92,119h.31a23.62,23.62,0,0,0,7-1.73A6.1,6.1,0,0,0,98.53,119h0a6.14,6.14,0,0,0,4-1.47,6.14,6.14,0,0,0,.66-8.63ZM87.3,92.16a2.12,2.12,0,0,1,1.82-1,2.17,2.17,0,0,1,1.08.3,2.12,2.12,0,0,1,.73,2.9,2.11,2.11,0,0,1-3.63-2.17Zm12.6,22.37a2.06,2.06,0,0,1-1.37.5,2.1,2.1,0,0,1-1.61-.73,2.11,2.11,0,1,1,3.21-2.75,2.1,2.1,0,0,1,.51,1.53A2.14,2.14,0,0,1,99.9,114.53Z"/><path id="path3552" class="cls-4" d="M79,46l.21.05Z"/><path id="path3554" class="cls-4" d="M101,33a6.12,6.12,0,0,0-2.71-3.85A6.18,6.18,0,0,0,95,28.25a6.12,6.12,0,0,0-5,9.61A13.37,13.37,0,0,1,80,42.15a29.49,29.49,0,0,0-10-2.32v4A24.79,24.79,0,0,1,78.75,46h0a21.54,21.54,0,0,1,8.61,7l-.38.54A6.14,6.14,0,0,0,88.89,62a6,6,0,0,0,3.27,1,6.13,6.13,0,0,0,3.28-11.31,6.23,6.23,0,0,0-4.67-.75,25.77,25.77,0,0,0-5.35-5.57,16.29,16.29,0,0,0,7.78-5.1,5.94,5.94,0,0,0,1.77.27A6.12,6.12,0,0,0,101,33ZM90.38,55.69a2,2,0,0,1,.67-.66,2.11,2.11,0,0,1,1.12-.32,2.12,2.12,0,1,1,0,4.23,2.12,2.12,0,0,1-1.78-3.25ZM96.76,35.5a2.14,2.14,0,0,1-2.91.65l-.1-.06A2.11,2.11,0,0,1,95,32.26a2.14,2.14,0,0,1,1.12.32A2.16,2.16,0,0,1,97,33.91,2.12,2.12,0,0,1,96.76,35.5Z"/><path id="path3556" class="cls-4" d="M109.65,74a6,6,0,0,0,2.1,2.65l.29.19a6.12,6.12,0,0,0,9.24-6.5,6,6,0,0,0-2.71-3.85,6.15,6.15,0,0,0-3.26-.94l-.38,0a25.67,25.67,0,0,1,0-11.27c.11,0,.22,0,.34,0a6.12,6.12,0,0,0,6-7.46A6.12,6.12,0,0,0,110.14,45a6.1,6.1,0,0,0,1,7.76l.07.06a28.64,28.64,0,0,0,0,14.42,5.25,5.25,0,0,0-.42.4,5.8,5.8,0,0,0-.64.82,6.39,6.39,0,0,0-.71,1.58,15.21,15.21,0,0,0-6.82,2.73c-2,1.32-4,2.57-9.64,2.66a31.62,31.62,0,0,0-5.29-.11c-1.43,0-2.91.1-4.84,0-1.34-.07-2.11-.88-3.46-2.43-1.81-2-4.22-4.64-9.37-5v4c3.29.3,4.79,1.89,6.35,3.67s3.18,3.61,6.26,3.78c2.12.12,3.76,0,5.21,0a24.11,24.11,0,0,1,7.85.69c2.61.64,12.1,9.67,14.78,14.32-.11.14-.22.28-.32.43a6.11,6.11,0,0,0,1.62,8.25,1.81,1.81,0,0,0,.29.19,6,6,0,0,0,3.26,1,6.12,6.12,0,0,0,0-12.24,6.16,6.16,0,0,0-1.55.2c-2.56-4.19-8.65-10.46-13.19-13.8a18.13,18.13,0,0,0,4.22-2.18A11.33,11.33,0,0,1,109.65,74Zm3.88-26.92a2.11,2.11,0,0,1,2.9-.66A2.11,2.11,0,1,1,114.18,50l-.09-.06A2.1,2.1,0,0,1,113.53,47.1Zm0,23.46a2.09,2.09,0,0,1,1.78-1,2,2,0,0,1,1.12.33,2.08,2.08,0,0,1,.94,1.32,2.11,2.11,0,0,1-3.19,2.24l-.09-.06A2.1,2.1,0,0,1,113.53,70.56Zm0,26.3a2.11,2.11,0,1,1,3.56,2.26,2.15,2.15,0,0,1-2.91.66l-.09-.07A2.09,2.09,0,0,1,113.53,96.86Z"/></g><g id="g3374"><polygon id="polygon3514" class="cls-5" points="65 2.83 4 37.83 4 111.83 65 146.83 65 2.83"/><g id="layer1-1"><rect id="rect5065" class="cls-4" x="22.77" y="33.43" width="35.86" height="83.46"/><rect id="rect5071" class="cls-5" x="26.03" y="35.44" width="29.14" height="21.37"/><rect id="rect5073" class="cls-6" x="34.18" y="38.84" width="12.69" height="1.54"/><rect id="rect5085" class="cls-5" x="25.97" y="62.92" width="29.14" height="21.37"/><rect id="rect5087" class="cls-7" x="34.11" y="66.32" width="12.69" height="1.54"/><rect id="rect5091" class="cls-5" x="26.1" y="90.78" width="29.14" height="21.37"/><rect id="rect5093" class="cls-7" x="34.24" y="94.18" width="12.69" height="1.54"/><rect id="rect5552" class="cls-8" x="25.8" y="32.89" width="33.91" height="0.65"/><rect id="rect5554" class="cls-8" x="58.48" y="33.39" width="1.23" height="83.53"/><rect id="rect5556" class="cls-8" x="28.54" y="116.87" width="31.16" height="0.65"/></g></g></g><path class="cls-5" d="M205.9,43.63a30.6,30.6,0,0,1-3.14,14.16,22.36,22.36,0,0,1-9,9.47,26.24,26.24,0,0,1-13.24,3.32,26.62,26.62,0,0,1-13.29-3.28,22.44,22.44,0,0,1-9-9.35A30.07,30.07,0,0,1,155,44V41.52a30.81,30.81,0,0,1,3.14-14.2,22.54,22.54,0,0,1,9-9.49,28.26,28.26,0,0,1,26.56-.07,22.62,22.62,0,0,1,9,9.4,30.21,30.21,0,0,1,3.25,14.08ZM192.31,41.5q0-7.77-3.12-11.94a10.29,10.29,0,0,0-8.74-4.16q-5.8,0-8.83,4.16t-3,11.94v2.15q0,7.64,3.1,11.89a11.11,11.11,0,0,0,17.46.05q3.16-4.22,3.16-12.08Z"/><path class="cls-5" d="M217.19,69.83V32.32h-6.94V23.17h6.94v-4q0-7.86,4.51-12.19t12.61-4.33a29.38,29.38,0,0,1,6.34.86l-.13,9.58a15.77,15.77,0,0,0-3.79-.39q-7,0-7,6.65v3.78H239v9.15H229.7V69.83Z"/><path class="cls-5" d="M248.84,69.83V32.32H241.9V23.17h6.94v-4q0-7.86,4.51-12.19T266,2.69a29.38,29.38,0,0,1,6.34.86l-.13,9.58a15.77,15.77,0,0,0-3.79-.39q-7,0-7,6.65v3.78h9.27v9.15h-9.27V69.83Z"/><path class="cls-5" d="M277,11.1a6.12,6.12,0,0,1,1.88-4.61,8.06,8.06,0,0,1,10.2,0A6.1,6.1,0,0,1,291,11.1a6.12,6.12,0,0,1-1.92,4.66,8,8,0,0,1-10.14,0A6.12,6.12,0,0,1,277,11.1Zm13.24,58.73h-12.5V23.17h12.5Z"/><path class="cls-5" d="M319.91,60.65a8.17,8.17,0,0,0,5.61-1.9,6.64,6.64,0,0,0,2.24-5h11.69a16,16,0,0,1-2.59,8.69,17.11,17.11,0,0,1-7,6.12,21.86,21.86,0,0,1-9.77,2.18q-10,0-15.79-6.36t-5.77-17.58v-.82q0-10.77,5.73-17.2T320,22.31q8.76,0,14,5t5.37,13.26H327.76a8.54,8.54,0,0,0-2.24-5.91,8.34,8.34,0,0,0-12.27.89Q311,38.71,311,45.83v1.3q0,7.21,2.2,10.37A7.59,7.59,0,0,0,319.91,60.65Z"/><path class="cls-5" d="M368,70.7q-10.26,0-16.71-6.3t-6.45-16.77V46.42a28.18,28.18,0,0,1,2.72-12.57,19.9,19.9,0,0,1,7.69-8.54,21.62,21.62,0,0,1,11.37-3q9.57,0,15.07,6t5.5,17.12v5.09H357.52a11.54,11.54,0,0,0,3.64,7.33,11,11,0,0,0,7.7,2.76,13.44,13.44,0,0,0,11.25-5.22l6.13,6.86a18.76,18.76,0,0,1-7.59,6.19A24.92,24.92,0,0,1,368,70.7Zm-1.43-38.34a7.8,7.8,0,0,0-6,2.51,13.07,13.07,0,0,0-3,7.19H375v-1a9.34,9.34,0,0,0-2.24-6.44A8.07,8.07,0,0,0,366.61,32.36Z"/><path class="cls-1" d="M156.64,138.83V84.23h21.09q10.92,0,16.78,3.87a13.61,13.61,0,0,1,3.73,18.5,12.16,12.16,0,0,1-6.12,4.57,12.18,12.18,0,0,1,7,4.45,12.32,12.32,0,0,1,2.44,7.58q0,8.1-5.58,11.87t-16.21,3.76ZM170.23,107h8.35q8.19,0,8.2-5.74,0-3.3-2-4.68t-6.07-1.39h-8.49Zm0,9.23v11.72h9.57a10.27,10.27,0,0,0,6.09-1.55,4.81,4.81,0,0,0,2.16-4.1q0-5.88-7.18-6.07Z"/><path class="cls-1" d="M236.11,103.86a33.67,33.67,0,0,0-4.48-.34q-7.08,0-9.27,4.78v30.53H209.89V92.17h11.78l.34,5.57q3.75-6.43,10.39-6.43a13.25,13.25,0,0,1,3.89.56Z"/><path class="cls-1" d="M267.85,138.83a14,14,0,0,1-1.25-4.18,15.09,15.09,0,0,1-11.77,5,16.58,16.58,0,0,1-11.36-4,12.76,12.76,0,0,1-4.51-10q0-7.41,5.5-11.38t15.89-4h5.73v-2.67a7.67,7.67,0,0,0-1.66-5.18q-1.65-1.94-5.24-1.94a7.39,7.39,0,0,0-4.93,1.51,5.12,5.12,0,0,0-1.79,4.14H240a12.5,12.5,0,0,1,2.5-7.5,16.49,16.49,0,0,1,7.07-5.42,25.92,25.92,0,0,1,10.26-2q8.63,0,13.69,4.34t5.07,12.18v20.22q0,6.64,1.85,10v.73Zm-10.3-8.66a10.69,10.69,0,0,0,5.08-1.23,8,8,0,0,0,3.45-3.3v-8h-4.65q-9.36,0-10,6.47l-.05.73a5,5,0,0,0,1.64,3.84A6.4,6.4,0,0,0,257.55,130.17Z"/><path class="cls-1" d="M288.08,80.1A6.11,6.11,0,0,1,290,75.49a8.06,8.06,0,0,1,10.2,0,6.58,6.58,0,0,1,0,9.27,8,8,0,0,1-10.13,0A6.12,6.12,0,0,1,288.08,80.1Zm13.24,58.73H288.81V92.17h12.51Z"/><path class="cls-1" d="M323.05,92.17l.39,5.39a16.3,16.3,0,0,1,13.41-6.25q7.41,0,11,4.36t3.71,13v30.14H339.14V108.92q0-4-1.73-5.77t-5.74-1.79a8.59,8.59,0,0,0-7.89,4.49v33H311.32V92.17Z"/><path class="cls-1" d="M375.36,128.79h22.81v10H359.45v-7.59l21.95-29H360.09v-10h37.39v7.35Z"/></svg>