<svg id="Layer_1" data-name="Layer 1" xmlns="http://www.w3.org/2000/svg" viewBox="0 0 262 100"><defs><style>.cls-1{fill:#ffde00;}.cls-2{fill:#fffedb;}.cls-3{fill:#fffdbe;}.cls-4{fill:#fffdbf;fill-opacity:0.94;}.cls-5{fill:#e3c604;}.cls-6{fill:#eb743b;}</style></defs><g id="g3429"><g id="g3374"><polygon id="polygon3514" class="cls-1" points="43 2 2 25.33 2 74.67 43 98 43 2"/><g id="layer1-1"><rect id="rect5065" class="cls-2" x="14.61" y="22.4" width="24.1" height="55.64"/><rect id="rect5071" class="cls-1" x="16.81" y="23.74" width="19.59" height="14.25"/><rect id="rect5073" class="cls-3" x="22.28" y="26.01" width="8.53" height="1.02"/><rect id="rect5085" class="cls-1" x="16.76" y="42.05" width="19.59" height="14.25"/><rect id="rect5087" class="cls-4" x="22.24" y="44.32" width="8.53" height="1.02"/><rect id="rect5091" class="cls-1" x="16.85" y="60.63" width="19.59" height="14.25"/><rect id="rect5093" class="cls-4" x="22.33" y="62.9" width="8.53" height="1.02"/><rect id="rect5552" class="cls-5" x="16.65" y="22.04" width="22.79" height="0.43"/><rect id="rect5554" class="cls-5" x="38.62" y="22.37" width="0.83" height="55.69"/><rect id="rect5556" class="cls-5" x="18.49" y="78.02" width="20.95" height="0.43"/></g></g></g><polygon class="cls-6" points="46 2 46 98 87 74 87 26 46 2"/><path class="cls-2" d="M78.28,58.09a6.75,6.75,0,0,0-7.67-2.86A18.09,18.09,0,0,0,62,49.6a28.62,28.62,0,0,0,5.91-6.16,6.91,6.91,0,0,0,5.17-.83,6.77,6.77,0,1,0-9.34-2.11,6.27,6.27,0,0,0,.42.59,23.88,23.88,0,0,1-9.52,7.79h0A18.45,18.45,0,0,1,46,51v5c4,0,5.93-1.12,10-2.9a14.78,14.78,0,0,1,11,4.75,6.76,6.76,0,1,0,12.16,5.32A6.64,6.64,0,0,0,78.28,58.09ZM68.06,34.67a2.57,2.57,0,0,1,1.4-.41,2.62,2.62,0,1,1,0,5.24,2.61,2.61,0,0,1-2.22-1.21A2.63,2.63,0,0,1,68.06,34.67Zm7.06,27.6A2.61,2.61,0,0,1,74,63.91a2.56,2.56,0,0,1-1.39.41,2.62,2.62,0,0,1-1.52-4.75l.12-.07a2.65,2.65,0,0,1,3.6.8A2.59,2.59,0,0,1,75.12,62.27Z"/><path class="cls-1" d="M135.36,29.06a19.83,19.83,0,0,1-2,9.15,14.47,14.47,0,0,1-5.8,6.12A16.93,16.93,0,0,1,119,46.48a17.12,17.12,0,0,1-8.59-2.12,14.48,14.48,0,0,1-5.84-6,19.47,19.47,0,0,1-2.09-9V27.7a20,20,0,0,1,2-9.18,14.67,14.67,0,0,1,5.79-6.14,18.27,18.27,0,0,1,17.16,0,14.57,14.57,0,0,1,5.82,6.07,19.62,19.62,0,0,1,2.11,9.11Zm-8.79-1.37q0-5-2-7.72a7.35,7.35,0,0,0-11.37,0q-1.95,2.7-2,7.72v1.39q0,4.94,2,7.68a7.18,7.18,0,0,0,11.29,0q2-2.72,2-7.8Z"/><path class="cls-1" d="M142.65,46V21.75h-4.48V15.84h4.48V13.28c0-3.39,1-6,2.92-7.88s4.65-2.8,8.15-2.8a19,19,0,0,1,4.1.55l-.09,6.2a10,10,0,0,0-2.45-.26q-4.54,0-4.54,4.31v2.44h6v5.91h-6V46Z"/><path class="cls-1" d="M163.11,46V21.75h-4.49V15.84h4.49V13.28c0-3.39,1-6,2.92-7.88s4.65-2.8,8.15-2.8a19,19,0,0,1,4.1.55l-.09,6.2a10,10,0,0,0-2.45-.26q-4.55,0-4.54,4.31v2.44h6v5.91h-6V46Z"/><path class="cls-1" d="M181.31,8a4,4,0,0,1,1.22-3,5.22,5.22,0,0,1,6.59,0,3.94,3.94,0,0,1,1.22,3,4,4,0,0,1-1.24,3,5.17,5.17,0,0,1-6.55,0A4,4,0,0,1,181.31,8Zm8.56,38h-8.08V15.84h8.08Z"/><path class="cls-1" d="M209.05,40.06a5.3,5.3,0,0,0,3.62-1.22,4.32,4.32,0,0,0,1.45-3.26h7.55A10.22,10.22,0,0,1,220,41.19a11,11,0,0,1-4.5,4,14.05,14.05,0,0,1-6.31,1.41q-6.47,0-10.2-4.11t-3.74-11.36v-.53q0-7,3.71-11.12t10.17-4.16a12.74,12.74,0,0,1,9.08,3.22,11.4,11.4,0,0,1,3.46,8.57h-7.55a5.53,5.53,0,0,0-1.45-3.82,5.39,5.39,0,0,0-7.93.58c-1,1.37-1.43,3.59-1.43,6.66v.84c0,3.1.47,5.34,1.42,6.7A4.93,4.93,0,0,0,209.05,40.06Z"/><path class="cls-1" d="M240.16,46.56a14.83,14.83,0,0,1-10.81-4.07q-4.15-4.07-4.16-10.85v-.78a18.24,18.24,0,0,1,1.75-8.12,12.85,12.85,0,0,1,5-5.52,14,14,0,0,1,7.34-1.94q6.19,0,9.75,3.91t3.55,11.06v3.29H233.35a7.49,7.49,0,0,0,2.36,4.74,7.12,7.12,0,0,0,5,1.78A8.69,8.69,0,0,0,248,36.69l4,4.43a12,12,0,0,1-4.91,4A16,16,0,0,1,240.16,46.56Zm-.92-24.78a5,5,0,0,0-3.89,1.62,8.36,8.36,0,0,0-1.91,4.65h11.2v-.64a6,6,0,0,0-1.45-4.16A5.18,5.18,0,0,0,239.24,21.78Z"/><path class="cls-6" d="M103.51,92V56.7h13.64q7,0,10.85,2.51a8.79,8.79,0,0,1,2.4,11.95,7.83,7.83,0,0,1-4,3A7.83,7.83,0,0,1,131,77a8,8,0,0,1,1.58,4.9c0,3.48-1.2,6-3.61,7.66S123.07,92,118.48,92Zm8.79-20.6h5.39q5.31,0,5.31-3.71a3.43,3.43,0,0,0-1.29-3,6.92,6.92,0,0,0-3.93-.9H112.3Zm0,6v7.57h6.18a6.65,6.65,0,0,0,3.94-1,3.11,3.11,0,0,0,1.39-2.65c0-2.54-1.54-3.84-4.63-3.92Z"/><path class="cls-6" d="M154.88,69.39a23.28,23.28,0,0,0-2.9-.22q-4.56,0-6,3.1V92h-8.05V61.84h7.6l.23,3.6q2.41-4.15,6.72-4.16a8.24,8.24,0,0,1,2.51.37Z"/><path class="cls-6" d="M175.4,92a9.07,9.07,0,0,1-.81-2.7A9.76,9.76,0,0,1,167,92.56,10.7,10.7,0,0,1,159.64,90a8.22,8.22,0,0,1-2.92-6.46,8.52,8.52,0,0,1,3.56-7.36q3.56-2.57,10.27-2.59h3.7V71.85a5,5,0,0,0-1.07-3.35,4.22,4.22,0,0,0-3.38-1.25,4.83,4.83,0,0,0-3.2,1,3.33,3.33,0,0,0-1.15,2.68h-8.06A8.08,8.08,0,0,1,159,66.05a10.71,10.71,0,0,1,4.57-3.5,16.75,16.75,0,0,1,6.63-1.27c3.72,0,6.67.94,8.85,2.8A9.8,9.8,0,0,1,182.34,72V85a14.48,14.48,0,0,0,1.2,6.5V92Zm-6.66-5.6a7,7,0,0,0,3.29-.8,5.2,5.2,0,0,0,2.22-2.13V78.29h-3c-4,0-6.18,1.39-6.44,4.18l0,.47a3.22,3.22,0,0,0,1.06,2.48A4.1,4.1,0,0,0,168.74,86.4Z"/><path class="cls-6" d="M188.47,54a4,4,0,0,1,1.21-3,5.24,5.24,0,0,1,6.6,0,4.27,4.27,0,0,1,0,6,5.17,5.17,0,0,1-6.55,0A4,4,0,0,1,188.47,54ZM197,92h-8.09V61.84H197Z"/><path class="cls-6" d="M211.08,61.84l.25,3.48a10.53,10.53,0,0,1,8.67-4q4.78,0,7.13,2.82c1.56,1.88,2.36,4.68,2.4,8.42V92h-8.06V72.67a5.25,5.25,0,0,0-1.11-3.73,5,5,0,0,0-3.71-1.16,5.54,5.54,0,0,0-5.1,2.9V92H203.5V61.84Z"/><path class="cls-6" d="M244.89,85.51h14.74V92h-25V87.09l14.19-18.76H235V61.84h24.17v4.75Z"/></svg>