<svg id="Layer_1" data-name="Layer 1" xmlns="http://www.w3.org/2000/svg" viewBox="0 0 636 150"><defs><style>.cls-1{fill:#eb743b;}.cls-2{opacity:0.07;}.cls-3{fill:#d3562c;}.cls-4{fill:#fffedb;}.cls-5{fill:#ffde00;}.cls-6{fill:#fffdbe;}.cls-7{fill:#fffdbf;fill-opacity:0.94;}.cls-8{fill:#e3c604;}</style></defs><g id="g3429"><g id="g3388"><polygon id="polygon3512" class="cls-1" points="68.68 2.82 68.68 146.82 129.68 111.82 129.68 37.82 68.68 2.82"/><g id="g3518" class="cls-2"><path id="path3520" d="M86,94.56a2.1,2.1,0,0,1,1.82-1,2.16,2.16,0,0,1,1.08.29,2.12,2.12,0,0,1,.73,2.9,2.11,2.11,0,0,1-2.9.73,2,2,0,0,1-1-1.29A2.08,2.08,0,0,1,86,94.56Zm12.6,22.36a2.09,2.09,0,0,1-1.37.51,2.12,2.12,0,1,1,1.6-3.49,2.12,2.12,0,0,1-.23,3Z"/><path id="path3522" d="M77.68,48.43l.21,0Z"/><path id="path3524" d="M89.06,58.08a2,2,0,0,1,.67-.66,2.11,2.11,0,0,1,1.12-.32,2.18,2.18,0,0,1,1.12.32,2.12,2.12,0,0,1-1.13,3.91A2.07,2.07,0,0,1,89.71,61,2.12,2.12,0,0,1,89.06,58.08Zm6.38-20.19a2.16,2.16,0,0,1-2.92.66l-.09-.07a2.11,2.11,0,0,1,1.22-3.83,2.16,2.16,0,0,1,1.13.33,2.1,2.1,0,0,1,.66,2.91Z"/><path id="path3526" d="M112.2,49.49a2.12,2.12,0,0,1,1.79-1,2,2,0,0,1,1.12.33,2.1,2.1,0,0,1,.66,2.91,2.14,2.14,0,0,1-2.91.65l-.1-.06A2.12,2.12,0,0,1,112.2,49.49Zm0,23.46A2.12,2.12,0,0,1,114,72a2.11,2.11,0,0,1,1.78,3.24,2.14,2.14,0,0,1-2.91.66l-.1-.07A2.11,2.11,0,0,1,112.2,73Zm0,26.31a2.12,2.12,0,0,1,2.91-.66,2.16,2.16,0,0,1,.94,1.33,2.11,2.11,0,0,1-3.19,2.24l-.1-.06A2.12,2.12,0,0,1,112.2,99.26Z"/><path id="path3528" d="M101.85,108.93a6.11,6.11,0,0,0-10.71,4.73A19.62,19.62,0,0,1,85.81,115a4,4,0,0,1-2.23-1,10.65,10.65,0,0,0-4.14-1.84A37.86,37.86,0,0,0,88,99.34a6.12,6.12,0,1,0-5.48-9.24,6.12,6.12,0,0,0,1.62,8.06c-4,9.22-9.22,13.08-12.56,14.69a1.49,1.49,0,0,0-.36.17,11,11,0,0,1-2.56.8v4a12.47,12.47,0,0,0,4.25-1.19c5.34-1.36,6.83-.35,8.4.71A8,8,0,0,0,85.6,119h.3a23.68,23.68,0,0,0,7-1.72A6.1,6.1,0,0,0,97.21,119h0a6.11,6.11,0,0,0,6.1-5.65A6,6,0,0,0,101.85,108.93ZM86,92.15a2.12,2.12,0,0,1,1.82-1,2.17,2.17,0,0,1,1.08.3,2.11,2.11,0,0,1-1.09,3.93,2.2,2.2,0,0,1-1.08-.3,2.13,2.13,0,0,1-.73-2.9Zm12.6,22.36a2,2,0,0,1-1.37.51,2.11,2.11,0,0,1-1.38-3.71,2.11,2.11,0,0,1,3,.23,2.11,2.11,0,0,1-.23,3Z"/><path id="path3530" d="M77.68,46l.21,0Z"/><path id="path3532" d="M99.63,33a6.12,6.12,0,0,0-2.71-3.85,6.18,6.18,0,0,0-3.26-.94,6.12,6.12,0,0,0-5,9.61,13.38,13.38,0,0,1-9.95,4.29,29.39,29.39,0,0,0-10-2.32v4A24.79,24.79,0,0,1,77.43,46h0a21.54,21.54,0,0,1,8.61,7,4.8,4.8,0,0,0-.38.54A6.13,6.13,0,0,0,87.57,62a6,6,0,0,0,3.27,1,6.13,6.13,0,0,0,3.27-11.31,6.2,6.2,0,0,0-4.66-.75,26,26,0,0,0-5.35-5.57,16.34,16.34,0,0,0,7.78-5.1,5.89,5.89,0,0,0,1.77.27,6.13,6.13,0,0,0,6-7.45ZM89.06,55.68a2.14,2.14,0,0,1,.67-.67,2.2,2.2,0,0,1,1.12-.31A2.09,2.09,0,0,1,92,55a2.12,2.12,0,0,1-1.13,3.91,2.16,2.16,0,0,1-1.13-.33A2.13,2.13,0,0,1,89.06,55.68Zm6.38-20.19a2.15,2.15,0,0,1-2.92.65l-.09-.06a2.11,2.11,0,0,1-.56-2.85,2.08,2.08,0,0,1,1.78-1,2.11,2.11,0,0,1,2.07,1.65A2.12,2.12,0,0,1,95.44,35.49Z"/><path id="path3534" d="M108.32,74a6.09,6.09,0,0,0,2.11,2.65,2.94,2.94,0,0,0,.29.19,6.12,6.12,0,1,0,6.53-10.35,6.18,6.18,0,0,0-3.26-.94l-.38,0a25.67,25.67,0,0,1,0-11.27l.33,0a6.13,6.13,0,1,0-4.14-1.63l.07.06a28.64,28.64,0,0,0,0,14.42,5.25,5.25,0,0,0-.42.4,5.8,5.8,0,0,0-.64.82A6,6,0,0,0,108.1,70a15.16,15.16,0,0,0-6.82,2.73c-2,1.32-4,2.57-9.64,2.66a31.62,31.62,0,0,0-5.29-.11c-1.43,0-2.91.1-4.85,0-1.33-.07-2.1-.88-3.45-2.43-1.81-2-4.22-4.64-9.37-5v4c3.29.3,4.79,1.89,6.35,3.67s3.18,3.61,6.26,3.78c2.12.12,3.76,0,5.21,0a24.11,24.11,0,0,1,7.85.69c2.61.64,12.1,9.67,14.77,14.32-.1.14-.21.28-.31.43a6.11,6.11,0,0,0,1.62,8.25,2.19,2.19,0,0,0,.28.19,6.13,6.13,0,0,0,9.25-6.5,6.11,6.11,0,0,0-7.52-4.59c-2.56-4.19-8.65-10.46-13.19-13.8a17.84,17.84,0,0,0,4.21-2.18A11.39,11.39,0,0,1,108.32,74Zm3.88-26.92a2.12,2.12,0,0,1,2.91-.66,2.16,2.16,0,0,1,.94,1.33A2.11,2.11,0,0,1,112.86,50l-.1-.06A2.12,2.12,0,0,1,112.2,47.09Zm0,23.46a2.12,2.12,0,0,1,1.79-1,2,2,0,0,1,1.12.33,2.09,2.09,0,0,1,.66,2.91,2.14,2.14,0,0,1-2.91.65l-.1-.06A2.12,2.12,0,0,1,112.2,70.55Zm0,26.3a2.12,2.12,0,0,1,1.79-1,2.11,2.11,0,0,1,1.78,3.24,2.15,2.15,0,0,1-2.91.66l-.1-.07A2.11,2.11,0,0,1,112.2,96.85Z"/></g><g id="g3538"><path id="path3540" class="cls-3" d="M101.85,111.93a6.11,6.11,0,0,0-10.71,4.73A19.62,19.62,0,0,1,85.81,118a4,4,0,0,1-2.23-1,10.65,10.65,0,0,0-4.14-1.84A37.86,37.86,0,0,0,88,102.34a6.12,6.12,0,1,0-5.48-9.24,6.12,6.12,0,0,0,1.62,8.06c-4,9.22-9.22,13.08-12.56,14.69a1.49,1.49,0,0,0-.36.17,11,11,0,0,1-2.56.8v4a12.47,12.47,0,0,0,4.25-1.19c5.34-1.36,6.83-.35,8.4.71A8,8,0,0,0,85.6,122h.3a23.68,23.68,0,0,0,7-1.72A6.1,6.1,0,0,0,97.21,122h0a6.11,6.11,0,0,0,6.1-5.65A6,6,0,0,0,101.85,111.93ZM86,95.15a2.12,2.12,0,0,1,1.82-1,2.17,2.17,0,0,1,1.08.3,2.11,2.11,0,0,1-1.09,3.93,2.2,2.2,0,0,1-1.08-.3,2.13,2.13,0,0,1-.73-2.9Zm12.6,22.36a2,2,0,0,1-1.37.51,2.11,2.11,0,0,1-1.38-3.71,2.11,2.11,0,0,1,3,.23,2.11,2.11,0,0,1-.23,3Z"/><path id="path3542" d="M77.68,48.43l.21,0Z"/><path id="path3544" class="cls-3" d="M99.63,36a6.12,6.12,0,1,0-11,4.82,13.36,13.36,0,0,1-9.95,4.3,28.93,28.93,0,0,0-10-2.32v4A25,25,0,0,1,77.43,49h0a21.46,21.46,0,0,1,8.61,7,4.7,4.7,0,0,0-.38.53,6.12,6.12,0,1,0,8.44-1.91,6.2,6.2,0,0,0-4.66-.75,26.24,26.24,0,0,0-5.35-5.57,16.31,16.31,0,0,0,7.78-5.09,6.21,6.21,0,0,0,1.77.26,6.12,6.12,0,0,0,6-7.45ZM89.06,58.68a2,2,0,0,1,.67-.66,2.11,2.11,0,0,1,1.12-.32A2.09,2.09,0,0,1,92,58a2.12,2.12,0,0,1-1.13,3.91,2.07,2.07,0,0,1-1.13-.33A2.12,2.12,0,0,1,89.06,58.68Zm6.38-20.19a2.15,2.15,0,0,1-2.92.65l-.09-.06a2.11,2.11,0,0,1,1.22-3.83,2.07,2.07,0,0,1,1.13.33,2.1,2.1,0,0,1,.66,2.91Z"/><path id="path3546" class="cls-3" d="M108.32,77a6.09,6.09,0,0,0,2.11,2.65,2.94,2.94,0,0,0,.29.19,6.12,6.12,0,1,0,6.53-10.35,6.18,6.18,0,0,0-3.26-.94l-.38,0a25.67,25.67,0,0,1,0-11.27l.33,0a6.13,6.13,0,1,0-4.14-1.63l.07.06a28.64,28.64,0,0,0,0,14.42,5.25,5.25,0,0,0-.42.4,5.8,5.8,0,0,0-.64.82A6,6,0,0,0,108.1,73a15.16,15.16,0,0,0-6.82,2.73c-2,1.32-4,2.57-9.64,2.66a31.62,31.62,0,0,0-5.29-.11c-1.43,0-2.91.1-4.85,0-1.33-.07-2.1-.88-3.45-2.43-1.81-2-4.22-4.64-9.37-5v4c3.29.3,4.79,1.89,6.35,3.67s3.18,3.61,6.26,3.78c2.12.12,3.76,0,5.21,0a24.11,24.11,0,0,1,7.85.69c2.61.64,12.1,9.67,14.77,14.32-.1.14-.21.28-.31.43a6.11,6.11,0,0,0,1.62,8.25,2.19,2.19,0,0,0,.28.19,6.13,6.13,0,0,0,9.25-6.5,6.11,6.11,0,0,0-7.52-4.59c-2.56-4.19-8.65-10.46-13.19-13.8a17.84,17.84,0,0,0,4.21-2.18A11.39,11.39,0,0,1,108.32,77Zm3.88-26.92a2.12,2.12,0,0,1,2.91-.66,2.16,2.16,0,0,1,.94,1.33A2.11,2.11,0,0,1,112.86,53l-.1-.06A2.12,2.12,0,0,1,112.2,50.09Zm0,23.46a2.12,2.12,0,0,1,1.79-1,2,2,0,0,1,1.12.33,2.09,2.09,0,0,1,.66,2.91,2.14,2.14,0,0,1-2.91.65l-.1-.06A2.12,2.12,0,0,1,112.2,73.55Zm0,26.3a2.12,2.12,0,0,1,1.79-1,2.11,2.11,0,0,1,1.78,3.24,2.15,2.15,0,0,1-2.91.66l-.1-.07A2.11,2.11,0,0,1,112.2,99.85Z"/></g><path id="path3550" class="cls-4" d="M101.85,108.93a6.11,6.11,0,0,0-10.71,4.73A19.62,19.62,0,0,1,85.81,115a4,4,0,0,1-2.23-1,10.65,10.65,0,0,0-4.14-1.84A37.86,37.86,0,0,0,88,99.34a6.12,6.12,0,1,0-5.48-9.24,6.12,6.12,0,0,0,1.62,8.06c-4,9.22-9.22,13.08-12.56,14.69a1.49,1.49,0,0,0-.36.17,11,11,0,0,1-2.56.8v4a12.47,12.47,0,0,0,4.25-1.19c5.34-1.36,6.83-.35,8.4.71A8,8,0,0,0,85.6,119h.3a23.68,23.68,0,0,0,7-1.72A6.1,6.1,0,0,0,97.21,119h0a6.11,6.11,0,0,0,6.1-5.65A6,6,0,0,0,101.85,108.93ZM86,92.15a2.12,2.12,0,0,1,1.82-1,2.17,2.17,0,0,1,1.08.3,2.11,2.11,0,0,1-1.09,3.93,2.2,2.2,0,0,1-1.08-.3,2.13,2.13,0,0,1-.73-2.9Zm12.6,22.36a2,2,0,0,1-1.37.51,2.11,2.11,0,0,1-1.38-3.71,2.11,2.11,0,0,1,3,.23,2.11,2.11,0,0,1-.23,3Z"/><path id="path3552" class="cls-4" d="M77.68,46l.21,0Z"/><path id="path3554" class="cls-4" d="M99.63,33a6.12,6.12,0,0,0-2.71-3.85,6.18,6.18,0,0,0-3.26-.94,6.12,6.12,0,0,0-5,9.61,13.38,13.38,0,0,1-9.95,4.29,29.39,29.39,0,0,0-10-2.32v4A24.79,24.79,0,0,1,77.43,46h0a21.54,21.54,0,0,1,8.61,7,4.8,4.8,0,0,0-.38.54A6.13,6.13,0,0,0,87.57,62a6,6,0,0,0,3.27,1,6.13,6.13,0,0,0,3.27-11.31,6.2,6.2,0,0,0-4.66-.75,26,26,0,0,0-5.35-5.57,16.34,16.34,0,0,0,7.78-5.1,5.89,5.89,0,0,0,1.77.27,6.13,6.13,0,0,0,6-7.45ZM89.06,55.68a2.14,2.14,0,0,1,.67-.67,2.2,2.2,0,0,1,1.12-.31A2.09,2.09,0,0,1,92,55a2.12,2.12,0,0,1-1.13,3.91,2.16,2.16,0,0,1-1.13-.33A2.13,2.13,0,0,1,89.06,55.68Zm6.38-20.19a2.15,2.15,0,0,1-2.92.65l-.09-.06a2.11,2.11,0,0,1-.56-2.85,2.08,2.08,0,0,1,1.78-1,2.11,2.11,0,0,1,2.07,1.65A2.12,2.12,0,0,1,95.44,35.49Z"/><path id="path3556" class="cls-4" d="M108.32,74a6.09,6.09,0,0,0,2.11,2.65,2.94,2.94,0,0,0,.29.19,6.12,6.12,0,1,0,6.53-10.35,6.18,6.18,0,0,0-3.26-.94l-.38,0a25.67,25.67,0,0,1,0-11.27l.33,0a6.13,6.13,0,1,0-4.14-1.63l.07.06a28.64,28.64,0,0,0,0,14.42,5.25,5.25,0,0,0-.42.4,5.8,5.8,0,0,0-.64.82A6,6,0,0,0,108.1,70a15.16,15.16,0,0,0-6.82,2.73c-2,1.32-4,2.57-9.64,2.66a31.62,31.62,0,0,0-5.29-.11c-1.43,0-2.91.1-4.85,0-1.33-.07-2.1-.88-3.45-2.43-1.81-2-4.22-4.64-9.37-5v4c3.29.3,4.79,1.89,6.35,3.67s3.18,3.61,6.26,3.78c2.12.12,3.76,0,5.21,0a24.11,24.11,0,0,1,7.85.69c2.61.64,12.1,9.67,14.77,14.32-.1.14-.21.28-.31.43a6.11,6.11,0,0,0,1.62,8.25,2.19,2.19,0,0,0,.28.19,6.13,6.13,0,0,0,9.25-6.5,6.11,6.11,0,0,0-7.52-4.59c-2.56-4.19-8.65-10.46-13.19-13.8a17.84,17.84,0,0,0,4.21-2.18A11.39,11.39,0,0,1,108.32,74Zm3.88-26.92a2.12,2.12,0,0,1,2.91-.66,2.16,2.16,0,0,1,.94,1.33A2.11,2.11,0,0,1,112.86,50l-.1-.06A2.12,2.12,0,0,1,112.2,47.09Zm0,23.46a2.12,2.12,0,0,1,1.79-1,2,2,0,0,1,1.12.33,2.09,2.09,0,0,1,.66,2.91,2.14,2.14,0,0,1-2.91.65l-.1-.06A2.12,2.12,0,0,1,112.2,70.55Zm0,26.3a2.12,2.12,0,0,1,1.79-1,2.11,2.11,0,0,1,1.78,3.24,2.15,2.15,0,0,1-2.91.66l-.1-.07A2.11,2.11,0,0,1,112.2,96.85Z"/></g><g id="g3374"><polygon id="polygon3514" class="cls-5" points="63.68 2.82 2.68 37.82 2.68 111.82 63.68 146.82 63.68 2.82"/><g id="layer1-1"><rect id="rect5065" class="cls-4" x="21.44" y="33.42" width="35.86" height="83.46"/><rect id="rect5071" class="cls-5" x="24.71" y="35.43" width="29.14" height="21.37"/><rect id="rect5073" class="cls-6" x="32.86" y="38.83" width="12.69" height="1.54"/><rect id="rect5085" class="cls-5" x="24.64" y="62.91" width="29.14" height="21.37"/><rect id="rect5087" class="cls-7" x="32.79" y="66.31" width="12.69" height="1.54"/><rect id="rect5091" class="cls-5" x="24.77" y="90.77" width="29.14" height="21.37"/><rect id="rect5093" class="cls-7" x="32.92" y="94.17" width="12.69" height="1.54"/><rect id="rect5552" class="cls-8" x="24.48" y="32.88" width="33.91" height="0.65"/><rect id="rect5554" class="cls-8" x="57.16" y="33.38" width="1.23" height="83.53"/><rect id="rect5556" class="cls-8" x="27.22" y="116.86" width="31.16" height="0.65"/></g></g></g><path class="cls-5" d="M203.56,76.62a30.76,30.76,0,0,1-3.14,14.16,22.38,22.38,0,0,1-9,9.47,26.32,26.32,0,0,1-13.24,3.32,26.62,26.62,0,0,1-13.29-3.28,22.35,22.35,0,0,1-9-9.35,30,30,0,0,1-3.23-14V74.51a30.69,30.69,0,0,1,3.14-14.2,22.48,22.48,0,0,1,8.95-9.49,28.24,28.24,0,0,1,26.55-.07,22.56,22.56,0,0,1,9,9.4,30.21,30.21,0,0,1,3.26,14.08ZM190,74.49q0-7.77-3.12-11.94a10.3,10.3,0,0,0-8.74-4.16q-5.82,0-8.84,4.16t-3,11.94v2.15q0,7.64,3.09,11.89a10.3,10.3,0,0,0,8.86,4.26,10.17,10.17,0,0,0,8.6-4.21Q190,84.37,190,76.5Z"/><path class="cls-5" d="M214.85,102.82V65.31h-6.94V56.16h6.94v-4q0-7.86,4.5-12.19T232,35.68a28.84,28.84,0,0,1,6.34.86l-.13,9.58a15.86,15.86,0,0,0-3.8-.39q-7,0-7,6.65v3.78h9.27v9.15h-9.27v37.51Z"/><path class="cls-5" d="M246.5,102.82V65.31h-6.94V56.16h6.94v-4q0-7.86,4.51-12.19t12.61-4.33a28.84,28.84,0,0,1,6.34.86l-.13,9.58a15.83,15.83,0,0,0-3.79-.39q-7,0-7,6.65v3.78h9.27v9.15H259v37.51Z"/><path class="cls-5" d="M274.66,44.09a6.16,6.16,0,0,1,1.88-4.62,8.09,8.09,0,0,1,10.2,0,6.6,6.6,0,0,1,0,9.28,8,8,0,0,1-10.13,0A6.12,6.12,0,0,1,274.66,44.09Zm13.24,58.73H275.39V56.16H287.9Z"/><path class="cls-5" d="M317.57,93.64a8.12,8.12,0,0,0,5.6-1.9,6.65,6.65,0,0,0,2.25-5H337.1a16,16,0,0,1-2.58,8.68,17.1,17.1,0,0,1-7,6.13,21.83,21.83,0,0,1-9.77,2.18q-10,0-15.78-6.36t-5.78-17.58v-.82q0-10.77,5.74-17.2T317.7,55.3q8.74,0,14,5t5.37,13.26H325.42a8.59,8.59,0,0,0-2.25-5.92,8.34,8.34,0,0,0-12.26.9q-2.24,3.18-2.23,10.3v1.3q0,7.22,2.2,10.37A7.62,7.62,0,0,0,317.57,93.64Z"/><path class="cls-5" d="M365.69,103.69q-10.26,0-16.71-6.3t-6.44-16.78v-1.2a28.17,28.17,0,0,1,2.71-12.57A19.92,19.92,0,0,1,353,58.3a21.59,21.59,0,0,1,11.36-3q9.58,0,15.08,6t5.49,17.12v5.09H355.17a11.57,11.57,0,0,0,3.65,7.33,11,11,0,0,0,7.69,2.76,13.46,13.46,0,0,0,11.26-5.22l6.12,6.86a18.74,18.74,0,0,1-7.59,6.18A24.74,24.74,0,0,1,365.69,103.69Zm-1.42-38.34a7.82,7.82,0,0,0-6,2.51,13.07,13.07,0,0,0-2.95,7.19h17.34v-1a9.29,9.29,0,0,0-2.25-6.43A8,8,0,0,0,364.27,65.35Z"/><path class="cls-1" d="M391.81,102.82V48.22H412.9q10.92,0,16.78,3.87a12.64,12.64,0,0,1,5.86,11.24,12.59,12.59,0,0,1-2.13,7.26,12.21,12.21,0,0,1-6.12,4.57,12.16,12.16,0,0,1,7,4.45,12.32,12.32,0,0,1,2.44,7.58q0,8.1-5.58,11.87T415,102.82ZM405.4,71h8.35q8.19,0,8.2-5.74,0-3.3-2-4.68t-6.07-1.39H405.4Zm0,9.23V91.9H415a10.36,10.36,0,0,0,6.1-1.55,4.8,4.8,0,0,0,2.15-4.1q0-5.88-7.17-6.07Z"/><path class="cls-1" d="M471.28,67.85a33.84,33.84,0,0,0-4.48-.35q-7.08,0-9.27,4.79v30.53H445.06V56.16h11.78l.34,5.57q3.75-6.43,10.39-6.43a13.25,13.25,0,0,1,3.89.56Z"/><path class="cls-1" d="M503,102.82a14,14,0,0,1-1.25-4.18,15.09,15.09,0,0,1-11.77,5,16.62,16.62,0,0,1-11.37-4,12.78,12.78,0,0,1-4.5-10q0-7.41,5.5-11.38t15.89-4h5.73V71.64a7.66,7.66,0,0,0-1.66-5.17q-1.65-1.93-5.24-1.94A7.38,7.38,0,0,0,489.42,66a5.12,5.12,0,0,0-1.79,4.14H475.16a12.56,12.56,0,0,1,2.51-7.51,16.55,16.55,0,0,1,7.07-5.41,25.89,25.89,0,0,1,10.26-2q8.63,0,13.69,4.33t5.07,12.19V92q0,6.64,1.85,10v.73Zm-10.31-8.66a10.73,10.73,0,0,0,5.09-1.23,8,8,0,0,0,3.45-3.3v-8H496.6q-9.36,0-10,6.47l0,.73a5,5,0,0,0,1.64,3.84A6.39,6.39,0,0,0,492.71,94.16Z"/><path class="cls-1" d="M523.25,44.09a6.15,6.15,0,0,1,1.87-4.62,8.09,8.09,0,0,1,10.2,0,6.59,6.59,0,0,1,0,9.28,8,8,0,0,1-10.13,0A6.12,6.12,0,0,1,523.25,44.09Zm13.24,58.73H524V56.16h12.51Z"/><path class="cls-1" d="M558.22,56.16l.39,5.39A16.3,16.3,0,0,1,572,55.3q7.41,0,11,4.36t3.71,13v30.14H574.3V72.91q0-4-1.72-5.77t-5.74-1.79A8.59,8.59,0,0,0,559,69.84v33H546.49V56.16Z"/><path class="cls-1" d="M610.53,92.78h22.81v10H594.62V95.23l22-29H595.26v-10h37.39v7.35Z"/></svg>