<svg id="Layer_1" data-name="Layer 1" xmlns="http://www.w3.org/2000/svg" viewBox="0 0 144 199"><defs><style>.cls-1{fill:#ffde00;}.cls-2{fill:#fffedb;}.cls-3{fill:#fffdbe;}.cls-4{fill:#fffdbf;fill-opacity:0.94;}.cls-5{fill:#e3c604;}.cls-6{fill:#eb743b;}</style></defs><g id="g3429"><g id="g3374"><polygon id="polygon3514" class="cls-1" points="70 3 29 26.33 29 75.67 70 99 70 3"/><g id="layer1-1"><rect id="rect5065" class="cls-2" x="41.61" y="23.4" width="24.1" height="55.64"/><rect id="rect5071" class="cls-1" x="43.81" y="24.74" width="19.59" height="14.25"/><rect id="rect5073" class="cls-3" x="49.28" y="27.01" width="8.53" height="1.02"/><rect id="rect5085" class="cls-1" x="43.76" y="43.05" width="19.59" height="14.25"/><rect id="rect5087" class="cls-4" x="49.24" y="45.32" width="8.53" height="1.02"/><rect id="rect5091" class="cls-1" x="43.85" y="61.63" width="19.59" height="14.25"/><rect id="rect5093" class="cls-4" x="49.33" y="63.9" width="8.53" height="1.02"/><rect id="rect5552" class="cls-5" x="43.65" y="23.04" width="22.79" height="0.43"/><rect id="rect5554" class="cls-5" x="65.62" y="23.37" width="0.83" height="55.69"/><rect id="rect5556" class="cls-5" x="45.49" y="79.02" width="20.95" height="0.43"/></g></g></g><polygon class="cls-6" points="73 3 73 99 114 75 114 27 73 3"/><path class="cls-2" d="M105.28,59.09a6.75,6.75,0,0,0-7.67-2.86A18.09,18.09,0,0,0,89,50.6a28.62,28.62,0,0,0,5.91-6.16,6.91,6.91,0,0,0,5.17-.83,6.77,6.77,0,1,0-9.34-2.11,6.27,6.27,0,0,0,.42.59,23.88,23.88,0,0,1-9.52,7.79h0A18.45,18.45,0,0,1,73,52v5c4,0,5.93-1.12,10-2.9a14.78,14.78,0,0,1,11,4.75,6.76,6.76,0,1,0,12.16,5.32A6.64,6.64,0,0,0,105.28,59.09ZM95.06,35.67a2.57,2.57,0,0,1,1.4-.41,2.62,2.62,0,1,1,0,5.24,2.61,2.61,0,0,1-2.22-1.21A2.63,2.63,0,0,1,95.06,35.67Zm7.06,27.6A2.61,2.61,0,0,1,101,64.91a2.56,2.56,0,0,1-1.39.41,2.62,2.62,0,0,1-1.52-4.75l.12-.07a2.65,2.65,0,0,1,3.6.8A2.59,2.59,0,0,1,102.12,63.27Z"/><path class="cls-1" d="M33.47,132.06a22.34,22.34,0,0,1-1.76,9.14,14,14,0,0,1-5,6.12,13,13,0,0,1-7.36,2.16A13.17,13.17,0,0,1,12,147.36a13.83,13.83,0,0,1-5.06-6.12,22.12,22.12,0,0,1-1.8-9.18V130.7a22.5,22.5,0,0,1,1.77-9.2,13.87,13.87,0,0,1,5-6.13,13.08,13.08,0,0,1,7.39-2.15,12.65,12.65,0,0,1,9.94,4.41Q33.1,122,33.44,129.4Zm-8.58-1.42A16.26,16.26,0,0,0,23.42,123a4.56,4.56,0,0,0-8.31,0,16.69,16.69,0,0,0-1.43,7.68V132q0,5,1.5,7.71a4.61,4.61,0,0,0,4.17,2.69,4.48,4.48,0,0,0,4-2.72,16.13,16.13,0,0,0,1.5-7.53Z"/><path class="cls-1" d="M40.18,149V124.75H36.53v-5.91h3.65v-2.7q0-5,2.63-7.77A9.45,9.45,0,0,1,50,105.6a15.12,15.12,0,0,1,3.57.56l-.06,6.3a6.43,6.43,0,0,0-1.92-.25q-3.51,0-3.51,4.18v2.45h4.71v5.91H48.1V149Z"/><path class="cls-1" d="M58.88,149V124.75H55.23v-5.91h3.65v-2.7q0-5,2.64-7.77a9.42,9.42,0,0,1,7.2-2.77,15.12,15.12,0,0,1,3.57.56l-.06,6.3a6.39,6.39,0,0,0-1.92-.25q-3.51,0-3.51,4.18v2.45h4.71v5.91H66.8V149Z"/><path class="cls-1" d="M75.77,111A4.08,4.08,0,0,1,77,108a4.71,4.71,0,0,1,6.24,0,4.07,4.07,0,0,1,1.17,3,4.18,4.18,0,0,1-1.16,3,4.7,4.7,0,0,1-6.27,0A4.18,4.18,0,0,1,75.77,111Zm8.28,38H76.14V118.84h7.91Z"/><path class="cls-1" d="M101.06,143q3.42,0,3.48-4.46H112a11.08,11.08,0,0,1-3,8,10.35,10.35,0,0,1-7.7,3q-5.82,0-8.89-3.63t-3.12-10.67v-2.4q0-7.11,3-10.84t8.94-3.74a10.25,10.25,0,0,1,7.86,3.08c1.91,2.06,2.89,5,2.92,8.74h-7.41a7.9,7.9,0,0,0-.84-3.9,2.85,2.85,0,0,0-2.67-1.37,3.19,3.19,0,0,0-3,1.47c-.59,1-.91,2.86-.94,5.67V135a24.79,24.79,0,0,0,.36,5.14,3.83,3.83,0,0,0,1.2,2.14A3.6,3.6,0,0,0,101.06,143Z"/><path class="cls-1" d="M128.59,149.56q-6.07,0-9.47-3.63t-3.4-10.37v-2.39q0-7.14,3.12-11t9-3.88q5.69,0,8.55,3.64t2.93,10.75v3.87H123.58a8.2,8.2,0,0,0,1.47,4.91,5,5,0,0,0,4,1.56,8.82,8.82,0,0,0,6.6-2.71l3.1,4.77a10.23,10.23,0,0,1-4.21,3.25A14.58,14.58,0,0,1,128.59,149.56Zm-5-18.51h7.89v-.73a8.41,8.41,0,0,0-.89-4.09,3.1,3.1,0,0,0-2.9-1.4,3.31,3.31,0,0,0-3,1.48A10.35,10.35,0,0,0,123.63,131.05Z"/><path class="cls-6" d="M3,195V159.7H15c4.12,0,7.27.84,9.44,2.5a8.61,8.61,0,0,1,3.26,7.26,9.07,9.07,0,0,1-1.19,4.7A6.91,6.91,0,0,1,23,177.09a6.74,6.74,0,0,1,3.85,2.78,8.81,8.81,0,0,1,1.36,5c0,3.52-1,6.08-3.06,7.7S20,195,15.92,195Zm8.58-20.63h4.12c2.28-.06,3.42-1.28,3.42-3.64a4.23,4.23,0,0,0-.85-3,3.4,3.4,0,0,0-2.6-.9H11.53Zm0,6v7.6h4.39a3.65,3.65,0,0,0,2.74-1,3.65,3.65,0,0,0,1-2.68q0-3.82-3.09-3.95Z"/><path class="cls-6" d="M48.31,172.45l-2.62-.22a4.3,4.3,0,0,0-4.38,2.84V195H33.4V164.84h7.44l.22,3.26c1.25-2.54,3-3.82,5.16-3.82a5.33,5.33,0,0,1,2.17.37Z"/><path class="cls-6" d="M65.84,195a11.67,11.67,0,0,1-.67-2.34,6.74,6.74,0,0,1-5.74,2.9,8.5,8.5,0,0,1-6.28-2.51,8.8,8.8,0,0,1-2.5-6.5,9.14,9.14,0,0,1,3-7.33c2-1.72,4.92-2.61,8.71-2.64h2.39v-2.43a4.57,4.57,0,0,0-.69-2.87,2.51,2.51,0,0,0-2-.84c-2,0-2.95,1.16-2.95,3.46H51.21a8.7,8.7,0,0,1,3.14-6.9,11.68,11.68,0,0,1,7.93-2.72q4.95,0,7.68,2.58t2.71,7.37v14.19a14.86,14.86,0,0,0,1.12,6.11V195Zm-4.65-5.63a4.43,4.43,0,0,0,2.23-.53,3.69,3.69,0,0,0,1.36-1.25v-6.28H62.89a4,4,0,0,0-3.16,1.29A4.86,4.86,0,0,0,58.57,186C58.57,188.25,59.44,189.37,61.19,189.37Z"/><path class="cls-6" d="M78.39,157a4.07,4.07,0,0,1,1.17-3,4.71,4.71,0,0,1,6.24,0A4.07,4.07,0,0,1,87,157a4.29,4.29,0,1,1-8.58,0Zm8.28,38H78.75V164.84h7.92Z"/><path class="cls-6" d="M100,164.84l.22,3a8.38,8.38,0,0,1,7-3.54q7.77,0,8,10.9V195h-7.92V175.77a6.94,6.94,0,0,0-.76-3.72,3,3,0,0,0-2.7-1.16,3.67,3.67,0,0,0-3.34,2.2V195H92.57V164.84Z"/><path class="cls-6" d="M129.59,188.45h11.93V195h-21.3v-4.93l11.66-18.65H120.5v-6.58h20.85v4.77Z"/></svg>