<svg id="Layer_1" data-name="Layer 1" xmlns="http://www.w3.org/2000/svg" viewBox="0 0 490 100"><defs><style>.cls-1{fill:#ffde00;}.cls-2{fill:#fffedb;}.cls-3{fill:#fffdbe;}.cls-4{fill:#fffdbf;fill-opacity:0.94;}.cls-5{fill:#e3c604;}.cls-6{fill:#eb743b;}</style></defs><g id="g3429"><g id="g3374"><polygon id="polygon3514" class="cls-1" points="44 2 3 25.33 3 74.67 44 98 44 2"/><g id="layer1-1"><rect id="rect5065" class="cls-2" x="15.61" y="22.4" width="24.1" height="55.64"/><rect id="rect5071" class="cls-1" x="17.81" y="23.74" width="19.59" height="14.25"/><rect id="rect5073" class="cls-3" x="23.28" y="26.01" width="8.53" height="1.02"/><rect id="rect5085" class="cls-1" x="17.76" y="42.05" width="19.59" height="14.25"/><rect id="rect5087" class="cls-4" x="23.24" y="44.32" width="8.53" height="1.02"/><rect id="rect5091" class="cls-1" x="17.85" y="60.63" width="19.59" height="14.25"/><rect id="rect5093" class="cls-4" x="23.33" y="62.9" width="8.53" height="1.02"/><rect id="rect5552" class="cls-5" x="17.65" y="22.04" width="22.79" height="0.43"/><rect id="rect5554" class="cls-5" x="39.62" y="22.37" width="0.83" height="55.69"/><rect id="rect5556" class="cls-5" x="19.49" y="78.02" width="20.95" height="0.43"/></g></g></g><polygon class="cls-6" points="47 2 47 98 88 74 88 26 47 2"/><path class="cls-2" d="M79.28,58.09a6.75,6.75,0,0,0-7.67-2.86A18.09,18.09,0,0,0,63,49.6a28.62,28.62,0,0,0,5.91-6.16,6.91,6.91,0,0,0,5.17-.83,6.77,6.77,0,1,0-9.34-2.11,6.27,6.27,0,0,0,.42.59,23.88,23.88,0,0,1-9.52,7.79h0A18.45,18.45,0,0,1,47,51v5c4,0,5.93-1.12,10-2.9a14.78,14.78,0,0,1,11,4.75,6.76,6.76,0,1,0,12.16,5.32A6.64,6.64,0,0,0,79.28,58.09ZM69.06,34.67a2.57,2.57,0,0,1,1.4-.41,2.62,2.62,0,1,1,0,5.24,2.61,2.61,0,0,1-2.22-1.21A2.63,2.63,0,0,1,69.06,34.67Zm7.06,27.6A2.61,2.61,0,0,1,75,63.91a2.56,2.56,0,0,1-1.39.41,2.62,2.62,0,0,1-1.52-4.75l.12-.07a2.65,2.65,0,0,1,3.6.8A2.59,2.59,0,0,1,76.12,62.27Z"/><path class="cls-1" d="M143.24,50.81a24.58,24.58,0,0,1-2.52,11.35,18,18,0,0,1-7.2,7.6,21,21,0,0,1-10.62,2.66,21.3,21.3,0,0,1-10.66-2.63,18,18,0,0,1-7.24-7.5,24.05,24.05,0,0,1-2.59-11.22v-2a24.81,24.81,0,0,1,2.51-11.39,18.1,18.1,0,0,1,7.19-7.61,22.65,22.65,0,0,1,21.3-.06,18.16,18.16,0,0,1,7.21,7.54,24.3,24.3,0,0,1,2.62,11.3ZM132.33,49.1q0-6.24-2.5-9.58a9.11,9.11,0,0,0-14.1,0q-2.42,3.34-2.42,9.58v1.72q0,6.12,2.48,9.54a8.92,8.92,0,0,0,14,0q2.53-3.37,2.53-9.69Z"/><path class="cls-1" d="M152.29,71.82V41.73h-5.57V34.4h5.57V31.21q0-6.29,3.61-9.77T166,18a24,24,0,0,1,5.09.68L171,26.34a12.58,12.58,0,0,0-3-.31q-5.64,0-5.64,5.33v3h7.44v7.33h-7.44V71.82Z"/><path class="cls-1" d="M177.68,71.82V41.73h-5.57V34.4h5.57V31.21q0-6.29,3.61-9.77T191.41,18a24.07,24.07,0,0,1,5.09.68l-.11,7.69a12.58,12.58,0,0,0-3-.31q-5.64,0-5.64,5.33v3h7.44v7.33h-7.44V71.82Z"/><path class="cls-1" d="M200.27,24.71a4.93,4.93,0,0,1,1.5-3.7A6.49,6.49,0,0,1,210,21a4.91,4.91,0,0,1,1.52,3.7,4.91,4.91,0,0,1-1.54,3.74,6.42,6.42,0,0,1-8.13,0A4.94,4.94,0,0,1,200.27,24.71Zm10.61,47.11h-10V34.4h10Z"/><path class="cls-1" d="M234.68,64.46a6.53,6.53,0,0,0,4.5-1.53,5.34,5.34,0,0,0,1.8-4h9.37a12.81,12.81,0,0,1-2.07,7,13.76,13.76,0,0,1-5.59,4.91,17.55,17.55,0,0,1-7.84,1.74q-8,0-12.65-5.1t-4.64-14.09v-.66q0-8.64,4.6-13.8t12.63-5.15q7,0,11.25,4a14.14,14.14,0,0,1,4.31,10.64H241a6.91,6.91,0,0,0-1.8-4.75,6.68,6.68,0,0,0-9.84.72q-1.78,2.55-1.78,8.26v1c0,3.86.58,6.63,1.76,8.32A6.11,6.11,0,0,0,234.68,64.46Z"/><path class="cls-1" d="M273.28,72.51q-8.23,0-13.4-5.05T254.71,54V53A22.62,22.62,0,0,1,256.89,43a16,16,0,0,1,6.17-6.85,17.37,17.37,0,0,1,9.12-2.4q7.68,0,12.09,4.84t4.41,13.73v4.08H264.84a9.28,9.28,0,0,0,2.93,5.88,8.8,8.8,0,0,0,6.17,2.22,10.8,10.8,0,0,0,9-4.19l4.91,5.5a15,15,0,0,1-6.09,5A19.92,19.92,0,0,1,273.28,72.51Zm-1.14-30.75a6.25,6.25,0,0,0-4.82,2A10.35,10.35,0,0,0,265,49.55h13.9v-.8a7.36,7.36,0,0,0-1.8-5.16A6.43,6.43,0,0,0,272.14,41.76Z"/><path class="cls-6" d="M294.23,71.82V28h16.92q8.76,0,13.46,3.11a10.15,10.15,0,0,1,4.7,9A10.07,10.07,0,0,1,327.6,46a9.83,9.83,0,0,1-4.91,3.67,9.7,9.7,0,0,1,5.64,3.56,9.9,9.9,0,0,1,2,6.09c0,4.32-1.49,7.5-4.48,9.51s-7.32,3-13,3Zm10.9-25.56h6.7c4.38,0,6.58-1.54,6.58-4.61a4.25,4.25,0,0,0-1.6-3.75,8.53,8.53,0,0,0-4.87-1.12h-6.81Zm0,7.4v9.4h7.67a8.26,8.26,0,0,0,4.89-1.24,3.88,3.88,0,0,0,1.73-3.29c0-3.14-1.92-4.77-5.75-4.87Z"/><path class="cls-6" d="M358,43.77a28,28,0,0,0-3.6-.28q-5.67,0-7.44,3.84V71.82H337V34.4h9.44l.28,4.46q3-5.16,8.33-5.15a10.51,10.51,0,0,1,3.12.45Z"/><path class="cls-6" d="M383.44,71.82a10.87,10.87,0,0,1-1-3.35,12.08,12.08,0,0,1-9.44,4,13.21,13.21,0,0,1-9.11-3.18,10.19,10.19,0,0,1-3.62-8,10.57,10.57,0,0,1,4.41-9.13Q369.08,49,377.42,49H382V46.82a6.24,6.24,0,0,0-1.33-4.16,5.27,5.27,0,0,0-4.21-1.55,6,6,0,0,0-4,1.21,4.13,4.13,0,0,0-1.43,3.32h-10a10,10,0,0,1,2-6,13.27,13.27,0,0,1,5.67-4.34A20.65,20.65,0,0,1,377,33.71q6.92,0,11,3.47T392.05,47V63.18c0,3.55.52,6.23,1.49,8.06v.58Zm-8.27-6.95a8.6,8.6,0,0,0,4.08-1A6.39,6.39,0,0,0,382,61.24V54.81h-3.74q-7.5,0-8,5.18l0,.59a4,4,0,0,0,1.31,3.08A5.11,5.11,0,0,0,375.17,64.87Z"/><path class="cls-6" d="M399.66,24.71a4.93,4.93,0,0,1,1.5-3.7,6.49,6.49,0,0,1,8.18,0,4.87,4.87,0,0,1,1.52,3.7,4.94,4.94,0,0,1-1.53,3.74,6.42,6.42,0,0,1-8.13,0A4.91,4.91,0,0,1,399.66,24.71Zm10.62,47.11h-10V34.4h10Z"/><path class="cls-6" d="M427.71,34.4l.31,4.32a13.08,13.08,0,0,1,10.76-5c4,0,6.92,1.16,8.85,3.49s2.93,5.81,3,10.45V71.82h-10v-24c0-2.12-.46-3.67-1.38-4.63s-2.46-1.44-4.6-1.44a6.87,6.87,0,0,0-6.33,3.61V71.82h-10V34.4Z"/><path class="cls-6" d="M469.67,63.76H488v8.06H456.9V65.74l17.61-23.28H457.42V34.4h30v5.89Z"/></svg>