<svg id="Layer_1" data-name="Layer 1" xmlns="http://www.w3.org/2000/svg" viewBox="0 0 584 150"><defs><style>.cls-1{fill:#eb743b;}.cls-2{opacity:0.07;}.cls-3{fill:#d3562c;}.cls-4{fill:#fffedb;}.cls-5{fill:#ffde00;}.cls-6{fill:#fffdbe;}.cls-7{fill:#fffdbf;fill-opacity:0.94;}.cls-8{fill:#e3c604;}</style></defs><g id="g3429"><g id="g3388"><polygon id="polygon3512" class="cls-1" points="68.68 2.82 68.68 146.82 129.68 111.82 129.68 37.82 68.68 2.82"/><g id="g3518" class="cls-2"><path id="path3520" d="M86,94.56a2.1,2.1,0,0,1,1.82-1,2.16,2.16,0,0,1,1.08.29,2.12,2.12,0,0,1,.73,2.9,2.11,2.11,0,0,1-2.9.73,2,2,0,0,1-1-1.29A2.08,2.08,0,0,1,86,94.56Zm12.6,22.36a2.09,2.09,0,0,1-1.37.51,2.12,2.12,0,1,1,1.6-3.49,2.12,2.12,0,0,1-.23,3Z"/><path id="path3522" d="M77.68,48.43l.21,0Z"/><path id="path3524" d="M89.06,58.08a2,2,0,0,1,.67-.66,2.11,2.11,0,0,1,1.12-.32,2.18,2.18,0,0,1,1.12.32,2.12,2.12,0,0,1-1.13,3.91A2.07,2.07,0,0,1,89.71,61,2.12,2.12,0,0,1,89.06,58.08Zm6.38-20.19a2.16,2.16,0,0,1-2.92.66l-.09-.07a2.11,2.11,0,0,1,1.22-3.83,2.16,2.16,0,0,1,1.13.33,2.1,2.1,0,0,1,.66,2.91Z"/><path id="path3526" d="M112.2,49.49a2.12,2.12,0,0,1,1.79-1,2,2,0,0,1,1.12.33,2.1,2.1,0,0,1,.66,2.91,2.14,2.14,0,0,1-2.91.65l-.1-.06A2.12,2.12,0,0,1,112.2,49.49Zm0,23.46A2.12,2.12,0,0,1,114,72a2.11,2.11,0,0,1,1.78,3.24,2.14,2.14,0,0,1-2.91.66l-.1-.07A2.11,2.11,0,0,1,112.2,73Zm0,26.31a2.12,2.12,0,0,1,2.91-.66,2.16,2.16,0,0,1,.94,1.33,2.11,2.11,0,0,1-3.19,2.24l-.1-.06A2.12,2.12,0,0,1,112.2,99.26Z"/><path id="path3528" d="M101.85,108.93a6.11,6.11,0,0,0-10.71,4.73A19.62,19.62,0,0,1,85.81,115a4,4,0,0,1-2.23-1,10.65,10.65,0,0,0-4.14-1.84A37.86,37.86,0,0,0,88,99.34a6.12,6.12,0,1,0-5.48-9.24,6.12,6.12,0,0,0,1.62,8.06c-4,9.22-9.22,13.08-12.56,14.69a1.49,1.49,0,0,0-.36.17,11,11,0,0,1-2.56.8v4a12.47,12.47,0,0,0,4.25-1.19c5.34-1.36,6.83-.35,8.4.71A8,8,0,0,0,85.6,119h.3a23.68,23.68,0,0,0,7-1.72A6.1,6.1,0,0,0,97.21,119h0a6.11,6.11,0,0,0,6.1-5.65A6,6,0,0,0,101.85,108.93ZM86,92.15a2.12,2.12,0,0,1,1.82-1,2.17,2.17,0,0,1,1.08.3,2.11,2.11,0,0,1-1.09,3.93,2.2,2.2,0,0,1-1.08-.3,2.13,2.13,0,0,1-.73-2.9Zm12.6,22.36a2,2,0,0,1-1.37.51,2.11,2.11,0,0,1-1.38-3.71,2.11,2.11,0,0,1,3,.23,2.11,2.11,0,0,1-.23,3Z"/><path id="path3530" d="M77.68,46l.21,0Z"/><path id="path3532" d="M99.63,33a6.12,6.12,0,0,0-2.71-3.85,6.18,6.18,0,0,0-3.26-.94,6.12,6.12,0,0,0-5,9.61,13.38,13.38,0,0,1-9.95,4.29,29.39,29.39,0,0,0-10-2.32v4A24.79,24.79,0,0,1,77.43,46h0a21.54,21.54,0,0,1,8.61,7,4.8,4.8,0,0,0-.38.54A6.13,6.13,0,0,0,87.57,62a6,6,0,0,0,3.27,1,6.13,6.13,0,0,0,3.27-11.31,6.2,6.2,0,0,0-4.66-.75,26,26,0,0,0-5.35-5.57,16.34,16.34,0,0,0,7.78-5.1,5.89,5.89,0,0,0,1.77.27,6.13,6.13,0,0,0,6-7.45ZM89.06,55.68a2.14,2.14,0,0,1,.67-.67,2.2,2.2,0,0,1,1.12-.31A2.09,2.09,0,0,1,92,55a2.12,2.12,0,0,1-1.13,3.91,2.16,2.16,0,0,1-1.13-.33A2.13,2.13,0,0,1,89.06,55.68Zm6.38-20.19a2.15,2.15,0,0,1-2.92.65l-.09-.06a2.11,2.11,0,0,1-.56-2.85,2.08,2.08,0,0,1,1.78-1,2.11,2.11,0,0,1,2.07,1.65A2.12,2.12,0,0,1,95.44,35.49Z"/><path id="path3534" d="M108.32,74a6.09,6.09,0,0,0,2.11,2.65,2.94,2.94,0,0,0,.29.19,6.12,6.12,0,1,0,6.53-10.35,6.18,6.18,0,0,0-3.26-.94l-.38,0a25.67,25.67,0,0,1,0-11.27l.33,0a6.13,6.13,0,1,0-4.14-1.63l.07.06a28.64,28.64,0,0,0,0,14.42,5.25,5.25,0,0,0-.42.4,5.8,5.8,0,0,0-.64.82A6,6,0,0,0,108.1,70a15.16,15.16,0,0,0-6.82,2.73c-2,1.32-4,2.57-9.64,2.66a31.62,31.62,0,0,0-5.29-.11c-1.43,0-2.91.1-4.85,0-1.33-.07-2.1-.88-3.45-2.43-1.81-2-4.22-4.64-9.37-5v4c3.29.3,4.79,1.89,6.35,3.67s3.18,3.61,6.26,3.78c2.12.12,3.76,0,5.21,0a24.11,24.11,0,0,1,7.85.69c2.61.64,12.1,9.67,14.77,14.32-.1.14-.21.28-.31.43a6.11,6.11,0,0,0,1.62,8.25,2.19,2.19,0,0,0,.28.19,6.13,6.13,0,0,0,9.25-6.5,6.11,6.11,0,0,0-7.52-4.59c-2.56-4.19-8.65-10.46-13.19-13.8a17.84,17.84,0,0,0,4.21-2.18A11.39,11.39,0,0,1,108.32,74Zm3.88-26.92a2.12,2.12,0,0,1,2.91-.66,2.16,2.16,0,0,1,.94,1.33A2.11,2.11,0,0,1,112.86,50l-.1-.06A2.12,2.12,0,0,1,112.2,47.09Zm0,23.46a2.12,2.12,0,0,1,1.79-1,2,2,0,0,1,1.12.33,2.09,2.09,0,0,1,.66,2.91,2.14,2.14,0,0,1-2.91.65l-.1-.06A2.12,2.12,0,0,1,112.2,70.55Zm0,26.3a2.12,2.12,0,0,1,1.79-1,2.11,2.11,0,0,1,1.78,3.24,2.15,2.15,0,0,1-2.91.66l-.1-.07A2.11,2.11,0,0,1,112.2,96.85Z"/></g><g id="g3538"><path id="path3540" class="cls-3" d="M101.85,111.93a6.11,6.11,0,0,0-10.71,4.73A19.62,19.62,0,0,1,85.81,118a4,4,0,0,1-2.23-1,10.65,10.65,0,0,0-4.14-1.84A37.86,37.86,0,0,0,88,102.34a6.12,6.12,0,1,0-5.48-9.24,6.12,6.12,0,0,0,1.62,8.06c-4,9.22-9.22,13.08-12.56,14.69a1.49,1.49,0,0,0-.36.17,11,11,0,0,1-2.56.8v4a12.47,12.47,0,0,0,4.25-1.19c5.34-1.36,6.83-.35,8.4.71A8,8,0,0,0,85.6,122h.3a23.68,23.68,0,0,0,7-1.72A6.1,6.1,0,0,0,97.21,122h0a6.11,6.11,0,0,0,6.1-5.65A6,6,0,0,0,101.85,111.93ZM86,95.15a2.12,2.12,0,0,1,1.82-1,2.17,2.17,0,0,1,1.08.3,2.11,2.11,0,0,1-1.09,3.93,2.2,2.2,0,0,1-1.08-.3,2.13,2.13,0,0,1-.73-2.9Zm12.6,22.36a2,2,0,0,1-1.37.51,2.11,2.11,0,0,1-1.38-3.71,2.11,2.11,0,0,1,3,.23,2.11,2.11,0,0,1-.23,3Z"/><path id="path3542" d="M77.68,48.43l.21,0Z"/><path id="path3544" class="cls-3" d="M99.63,36a6.12,6.12,0,1,0-11,4.82,13.36,13.36,0,0,1-9.95,4.3,28.93,28.93,0,0,0-10-2.32v4A25,25,0,0,1,77.43,49h0a21.46,21.46,0,0,1,8.61,7,4.7,4.7,0,0,0-.38.53,6.12,6.12,0,1,0,8.44-1.91,6.2,6.2,0,0,0-4.66-.75,26.24,26.24,0,0,0-5.35-5.57,16.31,16.31,0,0,0,7.78-5.09,6.21,6.21,0,0,0,1.77.26,6.12,6.12,0,0,0,6-7.45ZM89.06,58.68a2,2,0,0,1,.67-.66,2.11,2.11,0,0,1,1.12-.32A2.09,2.09,0,0,1,92,58a2.12,2.12,0,0,1-1.13,3.91,2.07,2.07,0,0,1-1.13-.33A2.12,2.12,0,0,1,89.06,58.68Zm6.38-20.19a2.15,2.15,0,0,1-2.92.65l-.09-.06a2.11,2.11,0,0,1,1.22-3.83,2.07,2.07,0,0,1,1.13.33,2.1,2.1,0,0,1,.66,2.91Z"/><path id="path3546" class="cls-3" d="M108.32,77a6.09,6.09,0,0,0,2.11,2.65,2.94,2.94,0,0,0,.29.19,6.12,6.12,0,1,0,6.53-10.35,6.18,6.18,0,0,0-3.26-.94l-.38,0a25.67,25.67,0,0,1,0-11.27l.33,0a6.13,6.13,0,1,0-4.14-1.63l.07.06a28.64,28.64,0,0,0,0,14.42,5.25,5.25,0,0,0-.42.4,5.8,5.8,0,0,0-.64.82A6,6,0,0,0,108.1,73a15.16,15.16,0,0,0-6.82,2.73c-2,1.32-4,2.57-9.64,2.66a31.62,31.62,0,0,0-5.29-.11c-1.43,0-2.91.1-4.85,0-1.33-.07-2.1-.88-3.45-2.43-1.81-2-4.22-4.64-9.37-5v4c3.29.3,4.79,1.89,6.35,3.67s3.18,3.61,6.26,3.78c2.12.12,3.76,0,5.21,0a24.11,24.11,0,0,1,7.85.69c2.61.64,12.1,9.67,14.77,14.32-.1.14-.21.28-.31.43a6.11,6.11,0,0,0,1.62,8.25,2.19,2.19,0,0,0,.28.19,6.13,6.13,0,0,0,9.25-6.5,6.11,6.11,0,0,0-7.52-4.59c-2.56-4.19-8.65-10.46-13.19-13.8a17.84,17.84,0,0,0,4.21-2.18A11.39,11.39,0,0,1,108.32,77Zm3.88-26.92a2.12,2.12,0,0,1,2.91-.66,2.16,2.16,0,0,1,.94,1.33A2.11,2.11,0,0,1,112.86,53l-.1-.06A2.12,2.12,0,0,1,112.2,50.09Zm0,23.46a2.12,2.12,0,0,1,1.79-1,2,2,0,0,1,1.12.33,2.09,2.09,0,0,1,.66,2.91,2.14,2.14,0,0,1-2.91.65l-.1-.06A2.12,2.12,0,0,1,112.2,73.55Zm0,26.3a2.12,2.12,0,0,1,1.79-1,2.11,2.11,0,0,1,1.78,3.24,2.15,2.15,0,0,1-2.91.66l-.1-.07A2.11,2.11,0,0,1,112.2,99.85Z"/></g><path id="path3550" class="cls-4" d="M101.85,108.93a6.11,6.11,0,0,0-10.71,4.73A19.62,19.62,0,0,1,85.81,115a4,4,0,0,1-2.23-1,10.65,10.65,0,0,0-4.14-1.84A37.86,37.86,0,0,0,88,99.34a6.12,6.12,0,1,0-5.48-9.24,6.12,6.12,0,0,0,1.62,8.06c-4,9.22-9.22,13.08-12.56,14.69a1.49,1.49,0,0,0-.36.17,11,11,0,0,1-2.56.8v4a12.47,12.47,0,0,0,4.25-1.19c5.34-1.36,6.83-.35,8.4.71A8,8,0,0,0,85.6,119h.3a23.68,23.68,0,0,0,7-1.72A6.1,6.1,0,0,0,97.21,119h0a6.11,6.11,0,0,0,6.1-5.65A6,6,0,0,0,101.85,108.93ZM86,92.15a2.12,2.12,0,0,1,1.82-1,2.17,2.17,0,0,1,1.08.3,2.11,2.11,0,0,1-1.09,3.93,2.2,2.2,0,0,1-1.08-.3,2.13,2.13,0,0,1-.73-2.9Zm12.6,22.36a2,2,0,0,1-1.37.51,2.11,2.11,0,0,1-1.38-3.71,2.11,2.11,0,0,1,3,.23,2.11,2.11,0,0,1-.23,3Z"/><path id="path3552" class="cls-4" d="M77.68,46l.21,0Z"/><path id="path3554" class="cls-4" d="M99.63,33a6.12,6.12,0,0,0-2.71-3.85,6.18,6.18,0,0,0-3.26-.94,6.12,6.12,0,0,0-5,9.61,13.38,13.38,0,0,1-9.95,4.29,29.39,29.39,0,0,0-10-2.32v4A24.79,24.79,0,0,1,77.43,46h0a21.54,21.54,0,0,1,8.61,7,4.8,4.8,0,0,0-.38.54A6.13,6.13,0,0,0,87.57,62a6,6,0,0,0,3.27,1,6.13,6.13,0,0,0,3.27-11.31,6.2,6.2,0,0,0-4.66-.75,26,26,0,0,0-5.35-5.57,16.34,16.34,0,0,0,7.78-5.1,5.89,5.89,0,0,0,1.77.27,6.13,6.13,0,0,0,6-7.45ZM89.06,55.68a2.14,2.14,0,0,1,.67-.67,2.2,2.2,0,0,1,1.12-.31A2.09,2.09,0,0,1,92,55a2.12,2.12,0,0,1-1.13,3.91,2.16,2.16,0,0,1-1.13-.33A2.13,2.13,0,0,1,89.06,55.68Zm6.38-20.19a2.15,2.15,0,0,1-2.92.65l-.09-.06a2.11,2.11,0,0,1-.56-2.85,2.08,2.08,0,0,1,1.78-1,2.11,2.11,0,0,1,2.07,1.65A2.12,2.12,0,0,1,95.44,35.49Z"/><path id="path3556" class="cls-4" d="M108.32,74a6.09,6.09,0,0,0,2.11,2.65,2.94,2.94,0,0,0,.29.19,6.12,6.12,0,1,0,6.53-10.35,6.18,6.18,0,0,0-3.26-.94l-.38,0a25.67,25.67,0,0,1,0-11.27l.33,0a6.13,6.13,0,1,0-4.14-1.63l.07.06a28.64,28.64,0,0,0,0,14.42,5.25,5.25,0,0,0-.42.4,5.8,5.8,0,0,0-.64.82A6,6,0,0,0,108.1,70a15.16,15.16,0,0,0-6.82,2.73c-2,1.32-4,2.57-9.64,2.66a31.62,31.62,0,0,0-5.29-.11c-1.43,0-2.91.1-4.85,0-1.33-.07-2.1-.88-3.45-2.43-1.81-2-4.22-4.64-9.37-5v4c3.29.3,4.79,1.89,6.35,3.67s3.18,3.61,6.26,3.78c2.12.12,3.76,0,5.21,0a24.11,24.11,0,0,1,7.85.69c2.61.64,12.1,9.67,14.77,14.32-.1.14-.21.28-.31.43a6.11,6.11,0,0,0,1.62,8.25,2.19,2.19,0,0,0,.28.19,6.13,6.13,0,0,0,9.25-6.5,6.11,6.11,0,0,0-7.52-4.59c-2.56-4.19-8.65-10.46-13.19-13.8a17.84,17.84,0,0,0,4.21-2.18A11.39,11.39,0,0,1,108.32,74Zm3.88-26.92a2.12,2.12,0,0,1,2.91-.66,2.16,2.16,0,0,1,.94,1.33A2.11,2.11,0,0,1,112.86,50l-.1-.06A2.12,2.12,0,0,1,112.2,47.09Zm0,23.46a2.12,2.12,0,0,1,1.79-1,2,2,0,0,1,1.12.33,2.09,2.09,0,0,1,.66,2.91,2.14,2.14,0,0,1-2.91.65l-.1-.06A2.12,2.12,0,0,1,112.2,70.55Zm0,26.3a2.12,2.12,0,0,1,1.79-1,2.11,2.11,0,0,1,1.78,3.24,2.15,2.15,0,0,1-2.91.66l-.1-.07A2.11,2.11,0,0,1,112.2,96.85Z"/></g><g id="g3374"><polygon id="polygon3514" class="cls-5" points="63.68 2.82 2.68 37.82 2.68 111.82 63.68 146.82 63.68 2.82"/><g id="layer1-1"><rect id="rect5065" class="cls-4" x="21.44" y="33.42" width="35.86" height="83.46"/><rect id="rect5071" class="cls-5" x="24.71" y="35.43" width="29.14" height="21.37"/><rect id="rect5073" class="cls-6" x="32.86" y="38.83" width="12.69" height="1.54"/><rect id="rect5085" class="cls-5" x="24.64" y="62.91" width="29.14" height="21.37"/><rect id="rect5087" class="cls-7" x="32.79" y="66.31" width="12.69" height="1.54"/><rect id="rect5091" class="cls-5" x="24.77" y="90.77" width="29.14" height="21.37"/><rect id="rect5093" class="cls-7" x="32.92" y="94.17" width="12.69" height="1.54"/><rect id="rect5552" class="cls-8" x="24.48" y="32.88" width="33.91" height="0.65"/><rect id="rect5554" class="cls-8" x="57.16" y="33.38" width="1.23" height="83.53"/><rect id="rect5556" class="cls-8" x="27.22" y="116.86" width="31.16" height="0.65"/></g></g></g><path class="cls-5" d="M196.58,76.62a34.51,34.51,0,0,1-2.72,14.13,21.59,21.59,0,0,1-7.74,9.47,20,20,0,0,1-11.39,3.35,20.42,20.42,0,0,1-11.41-3.28,21.41,21.41,0,0,1-7.83-9.47,34.21,34.21,0,0,1-2.79-14.2V74.51a34.65,34.65,0,0,1,2.75-14.22,21.54,21.54,0,0,1,7.75-9.5,20.3,20.3,0,0,1,11.44-3.32A19.53,19.53,0,0,1,190,54.29q6,6.81,6.52,18.21Zm-13.27-2.2q0-7.74-2.27-11.88t-6.4-4.15a7,7,0,0,0-6.47,4.15Q166,66.68,166,74.42v2.15q0,7.79,2.32,11.93t6.44,4.15c2.66,0,4.74-1.4,6.26-4.19s2.29-6.68,2.32-11.65Z"/><path class="cls-5" d="M207,102.82V65.31h-5.65V56.16H207V52q0-7.73,4.08-12t11.14-4.29a23.4,23.4,0,0,1,5.52.86l-.08,9.75a10.11,10.11,0,0,0-3-.39q-5.43,0-5.43,6.47v3.79h7.29v9.15h-7.29v37.51Z"/><path class="cls-5" d="M235.9,102.82V65.31h-5.65V56.16h5.65V52q0-7.73,4.07-12t11.15-4.29a23.4,23.4,0,0,1,5.52.86l-.09,9.75a10,10,0,0,0-3-.39c-3.62,0-5.44,2.16-5.44,6.47v3.79h7.29v9.15h-7.29v37.51Z"/><path class="cls-5" d="M262,44.09a6.3,6.3,0,0,1,1.81-4.66,7.35,7.35,0,0,1,9.66,0,6.3,6.3,0,0,1,1.81,4.66,6.64,6.64,0,1,1-13.28,0Zm12.81,58.73H262.59V56.16h12.25Z"/><path class="cls-5" d="M301.14,93.55q5.31,0,5.39-6.9H318q-.08,7.63-4.7,12.34a16,16,0,0,1-11.9,4.7q-9,0-13.75-5.61t-4.83-16.52V77.85q0-11,4.67-16.77t13.83-5.78q7.71,0,12.16,4.77T318,73.59H306.53a12.3,12.3,0,0,0-1.29-6,4.42,4.42,0,0,0-4.14-2.11,4.92,4.92,0,0,0-4.57,2.26q-1.38,2.26-1.47,8.77v4.75a38.32,38.32,0,0,0,.56,8,6.1,6.1,0,0,0,1.86,3.33A5.66,5.66,0,0,0,301.14,93.55Z"/><path class="cls-5" d="M343.75,103.69q-9.4,0-14.66-5.61t-5.26-16V78.33q0-11,4.83-17t13.84-6q8.79,0,13.24,5.62t4.52,16.64v6H336c.17,3.46.93,6,2.28,7.6s3.44,2.4,6.25,2.4a13.74,13.74,0,0,0,10.23-4.18l4.78,7.37a15.72,15.72,0,0,1-6.51,5A22.36,22.36,0,0,1,343.75,103.69Zm-7.68-28.64h12.21V73.93a13.11,13.11,0,0,0-1.38-6.34c-.87-1.44-2.36-2.15-4.49-2.15a5.06,5.06,0,0,0-4.63,2.28C336.81,69.25,336.25,71.69,336.07,75.05Z"/><path class="cls-1" d="M367,102.82V48.22H385.6q9.56,0,14.6,3.86t5,11.23a14,14,0,0,1-1.83,7.26A10.77,10.77,0,0,1,398,75.12a10.4,10.4,0,0,1,6,4.29,13.66,13.66,0,0,1,2.11,7.76q0,8.14-4.73,11.9t-14.25,3.75ZM380.3,70.9h6.38c3.53-.09,5.29-2,5.29-5.62,0-2.16-.44-3.7-1.31-4.62a5.32,5.32,0,0,0-4-1.38H380.3Zm0,9.24V91.9h6.8a5.18,5.18,0,0,0,5.72-5.65c0-4-1.6-6-4.78-6.11Z"/><path class="cls-1" d="M437.21,67.94l-4.06-.35a6.67,6.67,0,0,0-6.77,4.4v30.83H414.14V56.16h11.51l.35,5.05q2.88-5.91,8-5.91a8.68,8.68,0,0,1,3.37.56Z"/><path class="cls-1" d="M464.33,102.82a17,17,0,0,1-1-3.62,10.45,10.45,0,0,1-8.89,4.49,13.13,13.13,0,0,1-9.72-3.89,13.62,13.62,0,0,1-3.86-10q0-7.33,4.68-11.35T459,74.32h3.71V70.57c0-2.1-.36-3.58-1.07-4.45a3.88,3.88,0,0,0-3.15-1.29q-4.58,0-4.57,5.35H441.69a13.51,13.51,0,0,1,4.85-10.67,18.05,18.05,0,0,1,12.27-4.21q7.68,0,11.88,4T474.9,70.7v22a22.88,22.88,0,0,0,1.72,9.44v.73Zm-7.2-8.71a6.78,6.78,0,0,0,3.45-.82,5.71,5.71,0,0,0,2.11-1.94v-9.7h-2.93a6.25,6.25,0,0,0-4.89,2,7.6,7.6,0,0,0-1.79,5.31Q453.08,94.12,457.13,94.11Z"/><path class="cls-1" d="M483.74,44.09a6.3,6.3,0,0,1,1.81-4.66,7.35,7.35,0,0,1,9.66,0A6.3,6.3,0,0,1,497,44.09a6.64,6.64,0,1,1-13.28,0Zm12.8,58.73H484.3V56.16h12.24Z"/><path class="cls-1" d="M517.16,56.16l.34,4.62a13,13,0,0,1,10.83-5.48q12,0,12.37,16.86v30.66H528.46V73.07q0-4-1.19-5.76c-.79-1.19-2.18-1.79-4.16-1.79q-3.32,0-5.18,3.41v33.89H505.69V56.16Z"/><path class="cls-1" d="M563,92.69h18.45v10.13H548.47V95.19l18-28.85H548.9V56.16h32.25v7.38Z"/></svg>