<svg id="Layer_1" data-name="Layer 1" xmlns="http://www.w3.org/2000/svg" viewBox="0 0 222 290"><defs><style>.cls-1{fill:#eb743b;}.cls-2{opacity:0.07;}.cls-3{fill:#d3562c;}.cls-4{fill:#fffedb;}.cls-5{fill:#ffde00;}.cls-6{fill:#fffdbe;}.cls-7{fill:#fffdbf;fill-opacity:0.94;}.cls-8{fill:#e3c604;}</style></defs><g id="g3429"><g id="g3388"><polygon id="polygon3512" class="cls-1" points="113 2.46 113 146.46 174 111.46 174 37.46 113 2.46"/><g id="g3518" class="cls-2"><path id="path3520" d="M130.3,94.19a2.12,2.12,0,0,1,1.82-1,2.07,2.07,0,0,1,1.08.3,2.12,2.12,0,0,1,.73,2.9,2.09,2.09,0,0,1-1.81,1,2.21,2.21,0,0,1-1.09-.3,2.11,2.11,0,0,1-1-1.3A2.09,2.09,0,0,1,130.3,94.19Zm12.6,22.36a2.07,2.07,0,0,1-1.37.51,2.11,2.11,0,0,1-1.38-3.71,2.08,2.08,0,0,1,1.38-.52,2.13,2.13,0,0,1,2.11,2.28A2.14,2.14,0,0,1,142.9,116.55Z"/><path id="path3522" d="M122,48.07l.21,0Z"/><path id="path3524" d="M133.38,57.71a2.11,2.11,0,0,1,.67-.66,2.2,2.2,0,0,1,1.12-.31,2.11,2.11,0,1,1,0,4.22,2.11,2.11,0,0,1-1.78-3.25Zm6.38-20.18a2.14,2.14,0,0,1-2.91.65l-.1-.06A2.11,2.11,0,0,1,138,34.29a2.14,2.14,0,0,1,1.12.32,2.16,2.16,0,0,1,.94,1.33A2.12,2.12,0,0,1,139.76,37.53Z"/><path id="path3526" d="M156.53,49.13a2.11,2.11,0,0,1,2.9-.66,2.1,2.1,0,0,1,.66,2.91,2.13,2.13,0,0,1-2.91.66l-.09-.07A2.08,2.08,0,0,1,156.53,49.13Zm0,23.46a2.11,2.11,0,0,1,2.9-.66,2.11,2.11,0,1,1-2.25,3.57l-.09-.06A2.1,2.1,0,0,1,156.53,72.59Zm0,26.3a2.09,2.09,0,0,1,1.78-1,2,2,0,0,1,1.12.33,2.07,2.07,0,0,1,.94,1.33,2.1,2.1,0,0,1-.28,1.58,2.14,2.14,0,0,1-2.91.65l-.09-.06A2.1,2.1,0,0,1,156.53,98.89Z"/><path id="path3528" d="M146.18,108.56a6.12,6.12,0,0,0-10.72,4.74,20,20,0,0,1-5.33,1.33,4.11,4.11,0,0,1-2.22-1,10.63,10.63,0,0,0-4.15-1.85A37.66,37.66,0,0,0,132.34,99a6.12,6.12,0,1,0-5.48-9.25,6.13,6.13,0,0,0,1.62,8.07c-4,9.21-9.21,13.08-12.56,14.68a2,2,0,0,0-.36.17,11.77,11.77,0,0,1-2.56.81v4a12.63,12.63,0,0,0,4.25-1.19c5.35-1.36,6.84-.36,8.4.7a7.86,7.86,0,0,0,4.27,1.66h.31a23.61,23.61,0,0,0,7-1.72,6.14,6.14,0,0,0,4.28,1.75h0a6.15,6.15,0,0,0,4-1.48,6.14,6.14,0,0,0,.66-8.63ZM130.3,91.79a2.1,2.1,0,0,1,1.82-1,2.16,2.16,0,0,1,1.08.29,2.12,2.12,0,0,1,.73,2.9,2.07,2.07,0,0,1-1.81,1,2.11,2.11,0,0,1-2.05-1.59A2.08,2.08,0,0,1,130.3,91.79Zm12.6,22.36a2.07,2.07,0,0,1-1.37.51,2.11,2.11,0,1,1,2.11-2A2.14,2.14,0,0,1,142.9,114.15Z"/><path id="path3530" d="M122,45.66l.21.05Z"/><path id="path3532" d="M144,32.66a6.12,6.12,0,1,0-11,4.82A13.33,13.33,0,0,1,123,41.77a29.22,29.22,0,0,0-10-2.31v4a25,25,0,0,1,8.75,2.14h0a21.57,21.57,0,0,1,8.61,7c-.13.17-.26.35-.38.53a6.12,6.12,0,1,0,8.45-1.91,6.23,6.23,0,0,0-4.67-.75,25.77,25.77,0,0,0-5.35-5.57,16.34,16.34,0,0,0,7.78-5.09,6.27,6.27,0,0,0,1.77.26,6.12,6.12,0,0,0,6-7.45ZM133.38,55.31a2,2,0,0,1,.67-.66,2.11,2.11,0,0,1,1.12-.32,2.12,2.12,0,1,1,0,4.23,2,2,0,0,1-1.12-.33A2.12,2.12,0,0,1,133.38,55.31Zm6.38-20.19a2.14,2.14,0,0,1-2.91.65l-.1-.06A2.11,2.11,0,0,1,138,31.88a2.06,2.06,0,0,1,1.12.33,2.1,2.1,0,0,1,.66,2.91Z"/><path id="path3534" d="M152.65,73.65a6,6,0,0,0,2.1,2.64l.29.2A6.12,6.12,0,0,0,164.28,70a6.14,6.14,0,0,0-6-4.79l-.38,0A25.63,25.63,0,0,1,158,54l.34,0a6.12,6.12,0,0,0,3.26-11.3,6.15,6.15,0,0,0-3.26-.94,6.12,6.12,0,0,0-4.15,10.61l.07.06a28.64,28.64,0,0,0,0,14.42,5.25,5.25,0,0,0-.42.4,5.8,5.8,0,0,0-.64.82,6.56,6.56,0,0,0-.71,1.58,15.21,15.21,0,0,0-6.82,2.73c-2,1.32-4,2.57-9.64,2.66a32.72,32.72,0,0,0-5.29-.11c-1.43,0-2.91.1-4.84,0-1.34-.07-2.11-.88-3.46-2.42-1.81-2.06-4.22-4.65-9.37-5v4c3.29.3,4.79,1.88,6.35,3.66s3.18,3.62,6.26,3.78c2.12.12,3.76.06,5.21,0a23.8,23.8,0,0,1,7.85.68c2.61.64,12.1,9.67,14.78,14.32a5,5,0,0,0-.32.44,6.11,6.11,0,0,0,1.62,8.25l.29.19a6.12,6.12,0,1,0,1.72-11.1c-2.56-4.19-8.65-10.46-13.19-13.79a18.51,18.51,0,0,0,4.22-2.19,11.33,11.33,0,0,1,4.86-2.07Zm3.88-26.93a2.09,2.09,0,0,1,1.78-1,2,2,0,0,1,1.12.33,2.07,2.07,0,0,1,.94,1.33,2.1,2.1,0,0,1-.28,1.58,2.14,2.14,0,0,1-2.91.65l-.09-.06A2.1,2.1,0,0,1,156.53,46.72Zm0,23.46a2.11,2.11,0,1,1,3.56,2.26,2.14,2.14,0,0,1-2.91.65l-.09-.06A2.09,2.09,0,0,1,156.53,70.18Zm0,26.31a2.11,2.11,0,0,1,2.9-.66,2.11,2.11,0,1,1-2.25,3.57l-.09-.06A2.1,2.1,0,0,1,156.53,96.49Z"/></g><g id="g3538"><path id="path3540" class="cls-3" d="M146.18,111.56a6.12,6.12,0,0,0-10.72,4.74,20,20,0,0,1-5.33,1.33,4.11,4.11,0,0,1-2.22-1,10.63,10.63,0,0,0-4.15-1.85A37.66,37.66,0,0,0,132.34,102a6.12,6.12,0,1,0-5.48-9.25,6.13,6.13,0,0,0,1.62,8.07c-4,9.21-9.21,13.08-12.56,14.68a2,2,0,0,0-.36.17,11.77,11.77,0,0,1-2.56.81v4a12.63,12.63,0,0,0,4.25-1.19c5.35-1.36,6.84-.36,8.4.7a7.86,7.86,0,0,0,4.27,1.66h.31a23.61,23.61,0,0,0,7-1.72,6.14,6.14,0,0,0,4.28,1.75h0a6.15,6.15,0,0,0,4-1.48,6.14,6.14,0,0,0,.66-8.63ZM130.3,94.79a2.1,2.1,0,0,1,1.82-1,2.16,2.16,0,0,1,1.08.29,2.12,2.12,0,0,1,.73,2.9,2.07,2.07,0,0,1-1.81,1,2.11,2.11,0,0,1-2.05-1.59A2.08,2.08,0,0,1,130.3,94.79Zm12.6,22.36a2.07,2.07,0,0,1-1.37.51,2.11,2.11,0,1,1,2.11-2A2.14,2.14,0,0,1,142.9,117.15Z"/><path id="path3542" d="M122,48.07l.21,0Z"/><path id="path3544" class="cls-3" d="M144,35.66a6.12,6.12,0,1,0-11,4.83A13.37,13.37,0,0,1,123,44.78a29,29,0,0,0-10-2.32v4a24.75,24.75,0,0,1,8.75,2.13h0a21.54,21.54,0,0,1,8.61,7c-.13.17-.26.35-.38.54a6.12,6.12,0,1,0,8.45-1.91,6.24,6.24,0,0,0-4.67-.76A26,26,0,0,0,128.42,48a16.29,16.29,0,0,0,7.78-5.1,6.28,6.28,0,0,0,1.77.27,6.12,6.12,0,0,0,6-7.46ZM133.38,58.31a2.11,2.11,0,0,1,.67-.66,2.2,2.2,0,0,1,1.12-.31,2.11,2.11,0,1,1,0,4.22,2.11,2.11,0,0,1-1.78-3.25Zm6.38-20.18a2.14,2.14,0,0,1-2.91.65l-.1-.06A2.12,2.12,0,0,1,138,34.88,2.13,2.13,0,0,1,140,36.54,2.12,2.12,0,0,1,139.76,38.13Z"/><path id="path3546" class="cls-3" d="M152.65,76.65a6,6,0,0,0,2.1,2.64l.29.2A6.12,6.12,0,0,0,164.28,73a6.14,6.14,0,0,0-6-4.79l-.38,0A25.63,25.63,0,0,1,158,57l.34,0a6.12,6.12,0,0,0,3.26-11.3,6.15,6.15,0,0,0-3.26-.94,6.12,6.12,0,0,0-4.15,10.61l.07.06a28.64,28.64,0,0,0,0,14.42,5.25,5.25,0,0,0-.42.4,5.8,5.8,0,0,0-.64.82,6.56,6.56,0,0,0-.71,1.58,15.21,15.21,0,0,0-6.82,2.73c-2,1.32-4,2.57-9.64,2.66a32.72,32.72,0,0,0-5.29-.11c-1.43,0-2.91.1-4.84,0-1.34-.07-2.11-.88-3.46-2.42-1.81-2.06-4.22-4.65-9.37-5v4c3.29.3,4.79,1.88,6.35,3.66s3.18,3.62,6.26,3.78c2.12.12,3.76.06,5.21,0a23.8,23.8,0,0,1,7.85.68c2.61.64,12.1,9.67,14.78,14.32a5,5,0,0,0-.32.44,6.11,6.11,0,0,0,1.62,8.25l.29.19a6.12,6.12,0,1,0,1.72-11.1c-2.56-4.19-8.65-10.46-13.19-13.79a18.51,18.51,0,0,0,4.22-2.19,11.33,11.33,0,0,1,4.86-2.07Zm3.88-26.93a2.09,2.09,0,0,1,1.78-1,2,2,0,0,1,1.12.33,2.07,2.07,0,0,1,.94,1.33,2.1,2.1,0,0,1-.28,1.58,2.14,2.14,0,0,1-2.91.65l-.09-.06A2.1,2.1,0,0,1,156.53,49.72Zm0,23.46a2.11,2.11,0,1,1,3.56,2.26,2.14,2.14,0,0,1-2.91.65l-.09-.06A2.09,2.09,0,0,1,156.53,73.18Zm0,26.31a2.11,2.11,0,0,1,2.9-.66,2.11,2.11,0,1,1-2.25,3.57l-.09-.06A2.1,2.1,0,0,1,156.53,99.49Z"/></g><path id="path3550" class="cls-4" d="M146.18,108.56a6.12,6.12,0,0,0-10.72,4.74,20,20,0,0,1-5.33,1.33,4.11,4.11,0,0,1-2.22-1,10.63,10.63,0,0,0-4.15-1.85A37.66,37.66,0,0,0,132.34,99a6.12,6.12,0,1,0-5.48-9.25,6.13,6.13,0,0,0,1.62,8.07c-4,9.21-9.21,13.08-12.56,14.68a2,2,0,0,0-.36.17,11.77,11.77,0,0,1-2.56.81v4a12.63,12.63,0,0,0,4.25-1.19c5.35-1.36,6.84-.36,8.4.7a7.86,7.86,0,0,0,4.27,1.66h.31a23.61,23.61,0,0,0,7-1.72,6.14,6.14,0,0,0,4.28,1.75h0a6.15,6.15,0,0,0,4-1.48,6.14,6.14,0,0,0,.66-8.63ZM130.3,91.79a2.1,2.1,0,0,1,1.82-1,2.16,2.16,0,0,1,1.08.29,2.12,2.12,0,0,1,.73,2.9,2.07,2.07,0,0,1-1.81,1,2.11,2.11,0,0,1-2.05-1.59A2.08,2.08,0,0,1,130.3,91.79Zm12.6,22.36a2.07,2.07,0,0,1-1.37.51,2.11,2.11,0,1,1,2.11-2A2.14,2.14,0,0,1,142.9,114.15Z"/><path id="path3552" class="cls-4" d="M122,45.66l.21.05Z"/><path id="path3554" class="cls-4" d="M144,32.66a6.12,6.12,0,1,0-11,4.82A13.33,13.33,0,0,1,123,41.77a29.22,29.22,0,0,0-10-2.31v4a25,25,0,0,1,8.75,2.14h0a21.57,21.57,0,0,1,8.61,7c-.13.17-.26.35-.38.53a6.12,6.12,0,1,0,8.45-1.91,6.23,6.23,0,0,0-4.67-.75,25.77,25.77,0,0,0-5.35-5.57,16.34,16.34,0,0,0,7.78-5.09,6.27,6.27,0,0,0,1.77.26,6.12,6.12,0,0,0,6-7.45ZM133.38,55.31a2,2,0,0,1,.67-.66,2.11,2.11,0,0,1,1.12-.32,2.12,2.12,0,1,1,0,4.23,2,2,0,0,1-1.12-.33A2.12,2.12,0,0,1,133.38,55.31Zm6.38-20.19a2.14,2.14,0,0,1-2.91.65l-.1-.06A2.11,2.11,0,0,1,138,31.88a2.06,2.06,0,0,1,1.12.33,2.1,2.1,0,0,1,.66,2.91Z"/><path id="path3556" class="cls-4" d="M152.65,73.65a6,6,0,0,0,2.1,2.64l.29.2A6.12,6.12,0,0,0,164.28,70a6.14,6.14,0,0,0-6-4.79l-.38,0A25.63,25.63,0,0,1,158,54l.34,0a6.12,6.12,0,0,0,3.26-11.3,6.15,6.15,0,0,0-3.26-.94,6.12,6.12,0,0,0-4.15,10.61l.07.06a28.64,28.64,0,0,0,0,14.42,5.25,5.25,0,0,0-.42.4,5.8,5.8,0,0,0-.64.82,6.56,6.56,0,0,0-.71,1.58,15.21,15.21,0,0,0-6.82,2.73c-2,1.32-4,2.57-9.64,2.66a32.72,32.72,0,0,0-5.29-.11c-1.43,0-2.91.1-4.84,0-1.34-.07-2.11-.88-3.46-2.42-1.81-2.06-4.22-4.65-9.37-5v4c3.29.3,4.79,1.88,6.35,3.66s3.18,3.62,6.26,3.78c2.12.12,3.76.06,5.21,0a23.8,23.8,0,0,1,7.85.68c2.61.64,12.1,9.67,14.78,14.32a5,5,0,0,0-.32.44,6.11,6.11,0,0,0,1.62,8.25l.29.19a6.12,6.12,0,1,0,1.72-11.1c-2.56-4.19-8.65-10.46-13.19-13.79a18.51,18.51,0,0,0,4.22-2.19,11.33,11.33,0,0,1,4.86-2.07Zm3.88-26.93a2.09,2.09,0,0,1,1.78-1,2,2,0,0,1,1.12.33,2.07,2.07,0,0,1,.94,1.33,2.1,2.1,0,0,1-.28,1.58,2.14,2.14,0,0,1-2.91.65l-.09-.06A2.1,2.1,0,0,1,156.53,46.72Zm0,23.46a2.11,2.11,0,1,1,3.56,2.26,2.14,2.14,0,0,1-2.91.65l-.09-.06A2.09,2.09,0,0,1,156.53,70.18Zm0,26.31a2.11,2.11,0,0,1,2.9-.66,2.11,2.11,0,1,1-2.25,3.57l-.09-.06A2.1,2.1,0,0,1,156.53,96.49Z"/></g><g id="g3374"><polygon id="polygon3514" class="cls-5" points="108 2.46 47 37.46 47 111.46 108 146.46 108 2.46"/><g id="layer1-1"><rect id="rect5065" class="cls-4" x="65.77" y="33.05" width="35.86" height="83.46"/><rect id="rect5071" class="cls-5" x="69.03" y="35.07" width="29.14" height="21.37"/><rect id="rect5073" class="cls-6" x="77.18" y="38.47" width="12.69" height="1.54"/><rect id="rect5085" class="cls-5" x="68.97" y="62.54" width="29.14" height="21.37"/><rect id="rect5087" class="cls-7" x="77.11" y="65.94" width="12.69" height="1.54"/><rect id="rect5091" class="cls-5" x="69.1" y="90.4" width="29.14" height="21.37"/><rect id="rect5093" class="cls-7" x="77.24" y="93.8" width="12.69" height="1.54"/><rect id="rect5552" class="cls-8" x="68.8" y="32.51" width="33.91" height="0.65"/><rect id="rect5554" class="cls-8" x="101.48" y="33.01" width="1.23" height="83.53"/><rect id="rect5556" class="cls-8" x="71.54" y="116.49" width="31.16" height="0.65"/></g></g></g><path class="cls-5" d="M51.39,190.25a34.56,34.56,0,0,1-2.72,14.14,21.71,21.71,0,0,1-7.74,9.47,20.05,20.05,0,0,1-11.39,3.35,20.5,20.5,0,0,1-11.41-3.28,21.52,21.52,0,0,1-7.83-9.47,34.25,34.25,0,0,1-2.79-14.21v-2.1a34.84,34.84,0,0,1,2.74-14.23A21.6,21.6,0,0,1,18,164.43a20.23,20.23,0,0,1,11.44-3.33,19.53,19.53,0,0,1,15.37,6.82q6,6.83,6.52,18.21Zm-13.27-2.2c0-5.15-.76-9.12-2.27-11.88S32.2,172,29.45,172A7,7,0,0,0,23,176.17c-1.47,2.76-2.2,6.73-2.2,11.88v2.16q0,7.78,2.32,11.93c1.54,2.76,3.69,4.15,6.44,4.15s4.74-1.4,6.26-4.2,2.29-6.68,2.32-11.65Z"/><path class="cls-5" d="M61.77,216.46V178.94H56.12V169.8h5.65v-4.19q0-7.71,4.08-12T77,149.31a23,23,0,0,1,5.51.87l-.08,9.74a10.11,10.11,0,0,0-3-.39Q74,159.53,74,166v3.8h7.29v9.14H74v37.52Z"/><path class="cls-5" d="M90.71,216.46V178.94H85.06V169.8h5.65v-4.19q0-7.71,4.07-12t11.15-4.29a23,23,0,0,1,5.52.87l-.09,9.74a10,10,0,0,0-3-.39q-5.43,0-5.43,6.47v3.8h7.28v9.14H103v37.52Z"/><path class="cls-5" d="M116.84,157.72a6.28,6.28,0,0,1,1.81-4.65,7.32,7.32,0,0,1,9.66,0,6.28,6.28,0,0,1,1.81,4.65,6.64,6.64,0,1,1-13.28,0Zm12.81,58.74H117.4V169.8h12.25Z"/><path class="cls-5" d="M156,207.19q5.31,0,5.39-6.9h11.47c-.05,5.08-1.62,9.2-4.7,12.33a16,16,0,0,1-11.9,4.7q-9,0-13.75-5.61t-4.83-16.51v-3.71q0-11,4.67-16.78t13.83-5.78q7.71,0,12.16,4.77t4.52,13.52H161.34a12.3,12.3,0,0,0-1.29-6,4.42,4.42,0,0,0-4.14-2.11,4.92,4.92,0,0,0-4.57,2.26q-1.38,2.26-1.47,8.78v4.74a38.37,38.37,0,0,0,.56,8,6.07,6.07,0,0,0,1.86,3.32A5.66,5.66,0,0,0,156,207.19Z"/><path class="cls-5" d="M198.56,217.32q-9.41,0-14.66-5.61t-5.26-16V192q0-11,4.83-17t13.84-6q8.79,0,13.24,5.62t4.53,16.65v6H190.8q.25,5.2,2.28,7.6c1.35,1.6,3.44,2.41,6.25,2.41A13.75,13.75,0,0,0,209.56,203l4.78,7.38a15.7,15.7,0,0,1-6.51,5A22.36,22.36,0,0,1,198.56,217.32Zm-7.68-28.63h12.21v-1.13a13.06,13.06,0,0,0-1.38-6.33c-.87-1.44-2.36-2.16-4.49-2.16a5.06,5.06,0,0,0-4.63,2.28C191.62,182.88,191.06,185.32,190.88,188.69Z"/><path class="cls-1" d="M4.18,285.46V230.85H22.74q9.57,0,14.6,3.87c3.36,2.57,5,6.32,5,11.22a14,14,0,0,1-1.83,7.27,10.72,10.72,0,0,1-5.39,4.54,10.45,10.45,0,0,1,6,4.29,13.73,13.73,0,0,1,2.1,7.76q0,8.16-4.73,11.91t-14.25,3.75Zm13.26-31.92h6.38c3.53-.1,5.3-2,5.3-5.63,0-2.16-.44-3.69-1.32-4.62a5.32,5.32,0,0,0-4-1.38H17.44Zm0,9.23v11.77h6.8A5.69,5.69,0,0,0,28.48,273,5.62,5.62,0,0,0,30,268.89q0-5.92-4.78-6.12Z"/><path class="cls-1" d="M74.35,250.57l-4-.34q-5,0-6.77,4.39v30.84H51.28V238.8H62.79l.35,5q2.88-5.91,8-5.91a8.39,8.39,0,0,1,3.36.57Z"/><path class="cls-1" d="M101.47,285.46a17.17,17.17,0,0,1-1-3.63,10.42,10.42,0,0,1-8.88,4.49,13.14,13.14,0,0,1-9.73-3.88A13.66,13.66,0,0,1,78,272.39q0-7.33,4.68-11.34T96.13,257h3.71V253.2q0-3.15-1.08-4.44a3.88,3.88,0,0,0-3.15-1.3c-3,0-4.57,1.79-4.57,5.35H78.83a13.49,13.49,0,0,1,4.86-10.67A18.06,18.06,0,0,1,96,237.93q7.68,0,11.88,4T112,253.33v21.95a23,23,0,0,0,1.72,9.44v.74Zm-7.2-8.71a6.88,6.88,0,0,0,3.45-.82A5.91,5.91,0,0,0,99.84,274v-9.71H96.9a6.26,6.26,0,0,0-4.89,2,7.62,7.62,0,0,0-1.79,5.3Q90.22,276.75,94.27,276.75Z"/><path class="cls-1" d="M120.88,226.72a6.28,6.28,0,0,1,1.81-4.65,7.32,7.32,0,0,1,9.66,0,6.28,6.28,0,0,1,1.81,4.65,6.64,6.64,0,1,1-13.28,0Zm12.81,58.74H121.44V238.8h12.25Z"/><path class="cls-1" d="M154.3,238.8l.35,4.61a12.94,12.94,0,0,1,10.82-5.48q12,0,12.38,16.87v30.66H165.6V255.7q0-4-1.19-5.75c-.79-1.2-2.17-1.79-4.16-1.79-2.21,0-3.94,1.13-5.17,3.4v33.9H142.83V238.8Z"/><path class="cls-1" d="M200.1,275.32h18.46v10.14H185.61v-7.64l18-28.85H186V238.8H218.3v7.37Z"/></svg>