<svg id="Layer_1" data-name="Layer 1" xmlns="http://www.w3.org/2000/svg" viewBox="0 0 150 150"><defs><style>.cls-1{fill:#eb743b;}.cls-2{opacity:0.07;}.cls-3{fill:#d3562c;}.cls-4{fill:#fffedb;}.cls-5{fill:#ffde00;}.cls-6{fill:#fffdbe;}.cls-7{fill:#fffdbf;fill-opacity:0.94;}.cls-8{fill:#e3c604;}</style></defs><g id="g3429"><g id="g3388"><polygon id="polygon3512" class="cls-1" points="77.5 3 77.5 147 138.5 112 138.5 38 77.5 3"/><g id="g3518" class="cls-2"><path id="path3520" d="M94.8,94.73a2.12,2.12,0,0,1,1.82-1,2.17,2.17,0,0,1,1.08.3,2.12,2.12,0,0,1,.73,2.9,2.07,2.07,0,0,1-1.81,1,2.12,2.12,0,0,1-1.82-3.2Zm12.6,22.37a2.07,2.07,0,0,1-1.37.51,2.11,2.11,0,1,1,2.11-2A2.14,2.14,0,0,1,107.4,117.1Z"/><path id="path3522" d="M86.5,48.61l.21,0Z"/><path id="path3524" d="M97.88,58.26a2,2,0,0,1,.67-.66,2.11,2.11,0,0,1,1.12-.32,2.12,2.12,0,1,1,0,4.23,2.12,2.12,0,0,1-1.78-3.25Zm6.38-20.19a2.14,2.14,0,0,1-2.91.65l-.1-.06a2.11,2.11,0,0,1,1.23-3.83,2.06,2.06,0,0,1,1.12.33,2.1,2.1,0,0,1,.66,2.91Z"/><path id="path3526" d="M121,49.67a2.11,2.11,0,0,1,2.9-.66,2.11,2.11,0,1,1-2.25,3.57l-.09-.06A2.1,2.1,0,0,1,121,49.67Zm0,23.46a2.09,2.09,0,0,1,1.78-1,2,2,0,0,1,1.12.33,2.07,2.07,0,0,1,.94,1.33,2.1,2.1,0,0,1-.28,1.58,2.14,2.14,0,0,1-2.91.65l-.09-.06A2.1,2.1,0,0,1,121,73.13Zm0,26.3a2.11,2.11,0,1,1,3.56,2.26,2.13,2.13,0,0,1-2.91.66l-.09-.07A2.09,2.09,0,0,1,121,99.43Z"/><path id="path3528" d="M110.68,109.1A6.12,6.12,0,0,0,100,113.84a20,20,0,0,1-5.33,1.33,4,4,0,0,1-2.22-1,10.78,10.78,0,0,0-4.15-1.85,37.66,37.66,0,0,0,8.58-12.83,6.12,6.12,0,1,0-5.48-9.25A6.13,6.13,0,0,0,93,98.34c-4,9.22-9.21,13.08-12.56,14.68a3,3,0,0,0-.36.17,11.22,11.22,0,0,1-2.56.81v4a12.63,12.63,0,0,0,4.25-1.19c5.35-1.36,6.84-.36,8.4.71a7.93,7.93,0,0,0,4.27,1.65h.31a23.61,23.61,0,0,0,7-1.72,6.14,6.14,0,0,0,4.28,1.75h0a6.15,6.15,0,0,0,4-1.48,6.14,6.14,0,0,0,.66-8.63ZM94.8,92.33a2.1,2.1,0,0,1,1.82-1,2.07,2.07,0,0,1,1.08.3,2.11,2.11,0,0,1,.73,2.89,2.08,2.08,0,0,1-1.81,1,2.12,2.12,0,0,1-1.09-.31,2.11,2.11,0,0,1-.73-2.89Zm12.6,22.36a2.07,2.07,0,0,1-1.37.51,2.11,2.11,0,0,1-1.38-3.71A2.08,2.08,0,0,1,106,111a2.13,2.13,0,0,1,2.11,2.28A2.14,2.14,0,0,1,107.4,114.69Z"/><path id="path3530" d="M86.5,46.21l.21,0Z"/><path id="path3532" d="M108.45,33.2a6.12,6.12,0,1,0-11,4.83,13.37,13.37,0,0,1-9.94,4.29A29,29,0,0,0,77.5,40v4a24.75,24.75,0,0,1,8.75,2.13h0a21.54,21.54,0,0,1,8.61,7c-.13.17-.26.35-.38.54a6.12,6.12,0,1,0,8.45-1.91,6.24,6.24,0,0,0-4.67-.76,25.72,25.72,0,0,0-5.35-5.56,16.29,16.29,0,0,0,7.78-5.1,6.28,6.28,0,0,0,1.77.27,6.12,6.12,0,0,0,6-7.46ZM97.88,55.85a2.13,2.13,0,0,1,1.79-1,2.16,2.16,0,0,1,1.13.33,2.12,2.12,0,1,1-2.92.65Zm6.38-20.19a2.14,2.14,0,0,1-2.91.66l-.1-.07a2.11,2.11,0,0,1,1.23-3.83,2.15,2.15,0,0,1,1.12.33,2.11,2.11,0,0,1,.94,1.33A2.09,2.09,0,0,1,104.26,35.66Z"/><path id="path3534" d="M117.15,74.19a6.05,6.05,0,0,0,2.1,2.65l.29.19a6.12,6.12,0,1,0,3.27-11.29h-.38a25.63,25.63,0,0,1,0-11.26l.34,0a6.12,6.12,0,1,0-4.15-1.62s0,0,.07.06a28.6,28.6,0,0,0,0,14.41c-.14.13-.29.26-.42.4a6,6,0,0,0-1.35,2.4,15.21,15.21,0,0,0-6.82,2.73c-2,1.33-4,2.57-9.64,2.67a32.77,32.77,0,0,0-5.29-.12c-1.43,0-2.91.11-4.84,0-1.34-.07-2.11-.88-3.46-2.42-1.81-2-4.22-4.65-9.37-5v4c3.29.3,4.79,1.89,6.35,3.67s3.18,3.61,6.26,3.78c2.12.11,3.76,0,5.21,0a24.35,24.35,0,0,1,7.85.68c2.61.65,12.1,9.68,14.78,14.32-.11.15-.22.29-.32.44a6.11,6.11,0,0,0,1.62,8.25l.29.19a6.11,6.11,0,1,0,1.72-11.1c-2.56-4.18-8.65-10.45-13.19-13.79a18.12,18.12,0,0,0,4.22-2.19,11.21,11.21,0,0,1,4.86-2.06ZM121,47.26a2.11,2.11,0,1,1,3.56,2.26,2.15,2.15,0,0,1-2.91.66l-.09-.07A2.09,2.09,0,0,1,121,47.26Zm0,23.47a2.11,2.11,0,0,1,2.9-.66,2.11,2.11,0,1,1-2.25,3.57l-.09-.07A2.08,2.08,0,0,1,121,70.73ZM121,97a2.09,2.09,0,0,1,1.78-1,2,2,0,0,1,1.12.33,2.07,2.07,0,0,1,.94,1.33,2.1,2.1,0,0,1-.28,1.58,2.14,2.14,0,0,1-2.91.65l-.09-.06A2.1,2.1,0,0,1,121,97Z"/></g><g id="g3538"><path id="path3540" class="cls-3" d="M110.68,112.1A6.12,6.12,0,0,0,100,116.84a20,20,0,0,1-5.33,1.33,4,4,0,0,1-2.22-1,10.78,10.78,0,0,0-4.15-1.85,37.66,37.66,0,0,0,8.58-12.83,6.12,6.12,0,1,0-5.48-9.25A6.13,6.13,0,0,0,93,101.34c-4,9.22-9.21,13.08-12.56,14.68a3,3,0,0,0-.36.17,11.22,11.22,0,0,1-2.56.81v4a12.63,12.63,0,0,0,4.25-1.19c5.35-1.36,6.84-.36,8.4.71a7.93,7.93,0,0,0,4.27,1.65h.31a23.61,23.61,0,0,0,7-1.72,6.14,6.14,0,0,0,4.28,1.75h0a6.15,6.15,0,0,0,4-1.48,6.14,6.14,0,0,0,.66-8.63ZM94.8,95.33a2.1,2.1,0,0,1,1.82-1,2.07,2.07,0,0,1,1.08.3,2.11,2.11,0,0,1,.73,2.89,2.08,2.08,0,0,1-1.81,1,2.12,2.12,0,0,1-1.09-.31,2.11,2.11,0,0,1-.73-2.89Zm12.6,22.36a2.07,2.07,0,0,1-1.37.51,2.11,2.11,0,0,1-1.38-3.71A2.08,2.08,0,0,1,106,114a2.13,2.13,0,0,1,2.11,2.28A2.14,2.14,0,0,1,107.4,117.69Z"/><path id="path3542" d="M86.5,48.61l.21,0Z"/><path id="path3544" class="cls-3" d="M108.45,36.21a6.12,6.12,0,0,0-2.71-3.85,6.18,6.18,0,0,0-3.26-.94,6.12,6.12,0,0,0-5,9.61,13.37,13.37,0,0,1-9.94,4.29A29.49,29.49,0,0,0,77.5,43v4a24.79,24.79,0,0,1,8.75,2.14h0a21.54,21.54,0,0,1,8.61,7c-.13.18-.26.35-.38.54a6.14,6.14,0,0,0,1.9,8.44,6,6,0,0,0,3.27,1,6.13,6.13,0,0,0,3.28-11.31,6.23,6.23,0,0,0-4.67-.75,25.77,25.77,0,0,0-5.35-5.57,16.29,16.29,0,0,0,7.78-5.1,5.94,5.94,0,0,0,1.77.27,6.12,6.12,0,0,0,6-7.45ZM97.88,58.86a2,2,0,0,1,.67-.66,2.11,2.11,0,0,1,1.12-.32,2.12,2.12,0,1,1,0,4.23,2.12,2.12,0,0,1-1.78-3.25Zm6.38-20.19a2.14,2.14,0,0,1-2.91.65l-.1-.06a2.11,2.11,0,0,1,1.23-3.83,2.14,2.14,0,0,1,1.12.32,2.16,2.16,0,0,1,.94,1.33A2.12,2.12,0,0,1,104.26,38.67Z"/><path id="path3546" class="cls-3" d="M117.15,77.19a6.05,6.05,0,0,0,2.1,2.65l.29.19a6.12,6.12,0,1,0,3.27-11.29h-.38a25.63,25.63,0,0,1,0-11.26l.34,0a6.12,6.12,0,1,0-4.15-1.62s0,0,.07.06a28.6,28.6,0,0,0,0,14.41c-.14.13-.29.26-.42.4a6,6,0,0,0-1.35,2.4,15.21,15.21,0,0,0-6.82,2.73c-2,1.33-4,2.57-9.64,2.67a32.77,32.77,0,0,0-5.29-.12c-1.43,0-2.91.11-4.84,0-1.34-.07-2.11-.88-3.46-2.42-1.81-2-4.22-4.65-9.37-5v4c3.29.3,4.79,1.89,6.35,3.67s3.18,3.61,6.26,3.78c2.12.11,3.76,0,5.21,0a24.35,24.35,0,0,1,7.85.68c2.61.65,12.1,9.68,14.78,14.32-.11.15-.22.29-.32.44a6.11,6.11,0,0,0,1.62,8.25l.29.19a6.11,6.11,0,1,0,1.72-11.1c-2.56-4.18-8.65-10.45-13.19-13.79a18.12,18.12,0,0,0,4.22-2.19,11.21,11.21,0,0,1,4.86-2.06ZM121,50.26a2.11,2.11,0,1,1,3.56,2.26,2.15,2.15,0,0,1-2.91.66l-.09-.07A2.09,2.09,0,0,1,121,50.26Zm0,23.47a2.11,2.11,0,0,1,2.9-.66,2.11,2.11,0,1,1-2.25,3.57l-.09-.07A2.08,2.08,0,0,1,121,73.73Zm0,26.3a2.09,2.09,0,0,1,1.78-1,2,2,0,0,1,1.12.33,2.07,2.07,0,0,1,.94,1.33,2.1,2.1,0,0,1-.28,1.58,2.14,2.14,0,0,1-2.91.65l-.09-.06A2.1,2.1,0,0,1,121,100Z"/></g><path id="path3550" class="cls-4" d="M110.68,109.1A6.12,6.12,0,0,0,100,113.84a20,20,0,0,1-5.33,1.33,4,4,0,0,1-2.22-1,10.78,10.78,0,0,0-4.15-1.85,37.66,37.66,0,0,0,8.58-12.83,6.12,6.12,0,1,0-5.48-9.25A6.13,6.13,0,0,0,93,98.34c-4,9.22-9.21,13.08-12.56,14.68a3,3,0,0,0-.36.17,11.22,11.22,0,0,1-2.56.81v4a12.63,12.63,0,0,0,4.25-1.19c5.35-1.36,6.84-.36,8.4.71a7.93,7.93,0,0,0,4.27,1.65h.31a23.61,23.61,0,0,0,7-1.72,6.14,6.14,0,0,0,4.28,1.75h0a6.15,6.15,0,0,0,4-1.48,6.14,6.14,0,0,0,.66-8.63ZM94.8,92.33a2.1,2.1,0,0,1,1.82-1,2.07,2.07,0,0,1,1.08.3,2.11,2.11,0,0,1,.73,2.89,2.08,2.08,0,0,1-1.81,1,2.12,2.12,0,0,1-1.09-.31,2.11,2.11,0,0,1-.73-2.89Zm12.6,22.36a2.07,2.07,0,0,1-1.37.51,2.11,2.11,0,0,1-1.38-3.71A2.08,2.08,0,0,1,106,111a2.13,2.13,0,0,1,2.11,2.28A2.14,2.14,0,0,1,107.4,114.69Z"/><path id="path3552" class="cls-4" d="M86.5,46.21l.21,0Z"/><path id="path3554" class="cls-4" d="M108.45,33.2a6.12,6.12,0,1,0-11,4.83,13.37,13.37,0,0,1-9.94,4.29A29,29,0,0,0,77.5,40v4a24.75,24.75,0,0,1,8.75,2.13h0a21.54,21.54,0,0,1,8.61,7c-.13.17-.26.35-.38.54a6.12,6.12,0,1,0,8.45-1.91,6.24,6.24,0,0,0-4.67-.76,25.72,25.72,0,0,0-5.35-5.56,16.29,16.29,0,0,0,7.78-5.1,6.28,6.28,0,0,0,1.77.27,6.12,6.12,0,0,0,6-7.46ZM97.88,55.85a2.13,2.13,0,0,1,1.79-1,2.16,2.16,0,0,1,1.13.33,2.12,2.12,0,1,1-2.92.65Zm6.38-20.19a2.14,2.14,0,0,1-2.91.66l-.1-.07a2.11,2.11,0,0,1,1.23-3.83,2.15,2.15,0,0,1,1.12.33,2.11,2.11,0,0,1,.94,1.33A2.09,2.09,0,0,1,104.26,35.66Z"/><path id="path3556" class="cls-4" d="M117.15,74.19a6.05,6.05,0,0,0,2.1,2.65l.29.19a6.12,6.12,0,1,0,3.27-11.29h-.38a25.63,25.63,0,0,1,0-11.26l.34,0a6.12,6.12,0,1,0-4.15-1.62s0,0,.07.06a28.6,28.6,0,0,0,0,14.41c-.14.13-.29.26-.42.4a6,6,0,0,0-1.35,2.4,15.21,15.21,0,0,0-6.82,2.73c-2,1.33-4,2.57-9.64,2.67a32.77,32.77,0,0,0-5.29-.12c-1.43,0-2.91.11-4.84,0-1.34-.07-2.11-.88-3.46-2.42-1.81-2-4.22-4.65-9.37-5v4c3.29.3,4.79,1.89,6.35,3.67s3.18,3.61,6.26,3.78c2.12.11,3.76,0,5.21,0a24.35,24.35,0,0,1,7.85.68c2.61.65,12.1,9.68,14.78,14.32-.11.15-.22.29-.32.44a6.11,6.11,0,0,0,1.62,8.25l.29.19a6.11,6.11,0,1,0,1.72-11.1c-2.56-4.18-8.65-10.45-13.19-13.79a18.12,18.12,0,0,0,4.22-2.19,11.21,11.21,0,0,1,4.86-2.06ZM121,47.26a2.11,2.11,0,1,1,3.56,2.26,2.15,2.15,0,0,1-2.91.66l-.09-.07A2.09,2.09,0,0,1,121,47.26Zm0,23.47a2.11,2.11,0,0,1,2.9-.66,2.11,2.11,0,1,1-2.25,3.57l-.09-.07A2.08,2.08,0,0,1,121,70.73ZM121,97a2.09,2.09,0,0,1,1.78-1,2,2,0,0,1,1.12.33,2.07,2.07,0,0,1,.94,1.33,2.1,2.1,0,0,1-.28,1.58,2.14,2.14,0,0,1-2.91.65l-.09-.06A2.1,2.1,0,0,1,121,97Z"/></g><g id="g3374"><polygon id="polygon3514" class="cls-5" points="72.5 3 11.5 38 11.5 112 72.5 147 72.5 3"/><g id="layer1-1"><rect id="rect5065" class="cls-4" x="30.27" y="33.59" width="35.86" height="83.46"/><rect id="rect5071" class="cls-5" x="33.53" y="35.61" width="29.14" height="21.37"/><rect id="rect5073" class="cls-6" x="41.68" y="39.01" width="12.69" height="1.54"/><rect id="rect5085" class="cls-5" x="33.47" y="63.08" width="29.14" height="21.37"/><rect id="rect5087" class="cls-7" x="41.61" y="66.48" width="12.69" height="1.54"/><rect id="rect5091" class="cls-5" x="33.6" y="90.94" width="29.14" height="21.37"/><rect id="rect5093" class="cls-7" x="41.74" y="94.34" width="12.69" height="1.54"/><rect id="rect5552" class="cls-8" x="33.3" y="33.06" width="33.91" height="0.65"/><rect id="rect5554" class="cls-8" x="65.98" y="33.56" width="1.23" height="83.53"/><rect id="rect5556" class="cls-8" x="36.04" y="117.03" width="31.16" height="0.65"/></g></g></g></svg>