<svg id="Layer_1" data-name="Layer 1" xmlns="http://www.w3.org/2000/svg" viewBox="0 0 210 30"><defs><style>.cls-1{fill:#ffde00;}.cls-2{fill:#eb743b;}</style></defs><polygon class="cls-1" points="14 1 2 8 2 22 14 29 14 1"/><polygon class="cls-2" points="15 1 27 8 27 22 15 29 15 1"/><path class="cls-1" d="M53.51,15.52a11.06,11.06,0,0,1-1.14,5.12,8.15,8.15,0,0,1-3.25,3.43,10.24,10.24,0,0,1-9.6,0,8.11,8.11,0,0,1-3.26-3.38,10.82,10.82,0,0,1-1.17-5.06v-.89a11.12,11.12,0,0,1,1.13-5.14,8.19,8.19,0,0,1,3.24-3.43,10.18,10.18,0,0,1,9.61,0,8.17,8.17,0,0,1,3.26,3.4,11,11,0,0,1,1.18,5.1Zm-4.92-.77a7.1,7.1,0,0,0-1.13-4.32,4.1,4.1,0,0,0-6.36,0A7.25,7.25,0,0,0,40,14.75v.77a7.27,7.27,0,0,0,1.11,4.31,3.73,3.73,0,0,0,3.21,1.54,3.67,3.67,0,0,0,3.11-1.53,7.11,7.11,0,0,0,1.15-4.37Z"/><path class="cls-1" d="M57.59,25V11.42H55.08V8.11h2.51V6.68a5.81,5.81,0,0,1,1.64-4.41A6.27,6.27,0,0,1,63.79.7,10.29,10.29,0,0,1,66.08,1l0,3.47a5.48,5.48,0,0,0-1.38-.14c-1.69,0-2.54.8-2.54,2.4V8.11h3.36v3.31H62.12V25Z"/><path class="cls-1" d="M69.05,25V11.42H66.54V8.11h2.51V6.68a5.8,5.8,0,0,1,1.63-4.41A6.31,6.31,0,0,1,75.25.7,10.44,10.44,0,0,1,77.54,1l-.05,3.47a5.4,5.4,0,0,0-1.37-.14c-1.7,0-2.54.8-2.54,2.4V8.11h3.35v3.31H73.58V25Z"/><path class="cls-1" d="M79.24,3.74a2.25,2.25,0,0,1,.68-1.67,2.94,2.94,0,0,1,3.69,0,2.22,2.22,0,0,1,.69,1.67,2.2,2.2,0,0,1-.7,1.69,2.9,2.9,0,0,1-3.66,0A2.2,2.2,0,0,1,79.24,3.74ZM84,25H79.51V8.11H84Z"/><path class="cls-1" d="M94.77,21.68a3,3,0,0,0,2-.69,2.41,2.41,0,0,0,.81-1.83h4.23a5.73,5.73,0,0,1-.94,3.15,6.09,6.09,0,0,1-2.52,2.21,7.79,7.79,0,0,1-3.53.79A7.33,7.33,0,0,1,89.14,23,9.07,9.07,0,0,1,87,16.65v-.3a9,9,0,0,1,2.08-6.22,7.24,7.24,0,0,1,5.7-2.33A7.12,7.12,0,0,1,99.9,9.6a6.42,6.42,0,0,1,1.94,4.8H97.61a3.09,3.09,0,0,0-.81-2.14,3,3,0,0,0-4.44.33,6.58,6.58,0,0,0-.8,3.72v.47a6.75,6.75,0,0,0,.79,3.75A2.74,2.74,0,0,0,94.77,21.68Z"/><path class="cls-1" d="M112.19,25.31a8.29,8.29,0,0,1-6-2.28A8.08,8.08,0,0,1,103.81,17v-.43a10.11,10.11,0,0,1,1-4.55,7.23,7.23,0,0,1,2.79-3.09,7.75,7.75,0,0,1,4.11-1.09A7,7,0,0,1,117.14,10a8.84,8.84,0,0,1,2,6.19V18H108.38a4.24,4.24,0,0,0,1.32,2.66,4,4,0,0,0,2.79,1,4.87,4.87,0,0,0,4.07-1.89l2.21,2.48A6.75,6.75,0,0,1,116,24.51,9.13,9.13,0,0,1,112.19,25.31Zm-.52-13.87a2.79,2.79,0,0,0-2.17.91,4.61,4.61,0,0,0-1.07,2.6h6.27v-.36a3.35,3.35,0,0,0-.81-2.33A2.91,2.91,0,0,0,111.67,11.44Z"/><path class="cls-2" d="M121.64,25V5.24h7.63a11,11,0,0,1,6.08,1.4,4.58,4.58,0,0,1,2.12,4.07,4.56,4.56,0,0,1-.77,2.62A4.44,4.44,0,0,1,134.48,15,4.4,4.4,0,0,1,137,16.6a4.51,4.51,0,0,1,.88,2.74,4.81,4.81,0,0,1-2,4.3A10.48,10.48,0,0,1,130,25Zm4.92-11.54h3q3,0,3-2.07a1.93,1.93,0,0,0-.72-1.7,3.93,3.93,0,0,0-2.2-.5h-3.07Zm0,3.35v4.24H130a3.78,3.78,0,0,0,2.21-.56A1.76,1.76,0,0,0,133,19c0-1.42-.87-2.15-2.6-2.19Z"/><path class="cls-2" d="M150.4,12.34a12.62,12.62,0,0,0-1.62-.12c-1.71,0-2.83.57-3.36,1.73V25h-4.51V8.11h4.26l.13,2a4.18,4.18,0,0,1,3.76-2.33,4.83,4.83,0,0,1,1.4.2Z"/><path class="cls-2" d="M161.89,25a4.9,4.9,0,0,1-.45-1.51,5.5,5.5,0,0,1-4.26,1.82,6,6,0,0,1-4.12-1.43,4.65,4.65,0,0,1-1.63-3.62,4.81,4.81,0,0,1,2-4.13,9.89,9.89,0,0,1,5.75-1.45h2.08v-1a2.81,2.81,0,0,0-.6-1.88,2.39,2.39,0,0,0-1.9-.7,2.68,2.68,0,0,0-1.79.55,1.85,1.85,0,0,0-.64,1.5h-4.51a4.55,4.55,0,0,1,.9-2.72,6,6,0,0,1,2.56-2A9.38,9.38,0,0,1,159,7.8a7.33,7.33,0,0,1,4.95,1.57,5.5,5.5,0,0,1,1.84,4.41V21.1a8,8,0,0,0,.67,3.63V25Zm-3.73-3.14a3.93,3.93,0,0,0,1.84-.44,3,3,0,0,0,1.25-1.2v-2.9h-1.69c-2.25,0-3.46.78-3.6,2.34l0,.27a1.81,1.81,0,0,0,.6,1.39A2.3,2.3,0,0,0,158.16,21.86Z"/><path class="cls-2" d="M169.21,3.74a2.25,2.25,0,0,1,.68-1.67,2.94,2.94,0,0,1,3.69,0,2.22,2.22,0,0,1,.69,1.67,2.24,2.24,0,0,1-.7,1.69,2.53,2.53,0,0,1-1.83.65,2.57,2.57,0,0,1-1.84-.65A2.23,2.23,0,0,1,169.21,3.74ZM174,25h-4.53V8.11H174Z"/><path class="cls-2" d="M181.87,8.11l.14,2a5.9,5.9,0,0,1,4.85-2.26,4.92,4.92,0,0,1,4,1.58,7.36,7.36,0,0,1,1.34,4.71V25h-4.51V14.17a2.91,2.91,0,0,0-.63-2.08,2.73,2.73,0,0,0-2.07-.65,3.11,3.11,0,0,0-2.86,1.62V25h-4.51V8.11Z"/><path class="cls-2" d="M200.8,21.36h8.25V25H195V22.25L203,11.75h-7.71V8.11H208.8v2.66Z"/></svg>