<svg id="Layer_1" data-name="Layer 1" xmlns="http://www.w3.org/2000/svg" viewBox="0 0 450 100"><defs><style>.cls-1{fill:#ffde00;}.cls-2{fill:#fffedb;}.cls-3{fill:#fffdbe;}.cls-4{fill:#fffdbf;fill-opacity:0.94;}.cls-5{fill:#e3c604;}.cls-6{fill:#eb743b;}</style></defs><g id="g3429"><g id="g3374"><polygon id="polygon3514" class="cls-1" points="44 2 3 25.33 3 74.67 44 98 44 2"/><g id="layer1-1"><rect id="rect5065" class="cls-2" x="15.61" y="22.4" width="24.1" height="55.64"/><rect id="rect5071" class="cls-1" x="17.81" y="23.74" width="19.59" height="14.25"/><rect id="rect5073" class="cls-3" x="23.28" y="26.01" width="8.53" height="1.02"/><rect id="rect5085" class="cls-1" x="17.76" y="42.05" width="19.59" height="14.25"/><rect id="rect5087" class="cls-4" x="23.24" y="44.32" width="8.53" height="1.02"/><rect id="rect5091" class="cls-1" x="17.85" y="60.63" width="19.59" height="14.25"/><rect id="rect5093" class="cls-4" x="23.33" y="62.9" width="8.53" height="1.02"/><rect id="rect5552" class="cls-5" x="17.65" y="22.04" width="22.79" height="0.43"/><rect id="rect5554" class="cls-5" x="39.62" y="22.37" width="0.83" height="55.69"/><rect id="rect5556" class="cls-5" x="19.49" y="78.02" width="20.95" height="0.43"/></g></g></g><polygon class="cls-6" points="47 2 47 98 88 74 88 26 47 2"/><path class="cls-2" d="M79.28,58.09a6.75,6.75,0,0,0-7.67-2.86A18.09,18.09,0,0,0,63,49.6a28.62,28.62,0,0,0,5.91-6.16,6.91,6.91,0,0,0,5.17-.83,6.77,6.77,0,1,0-9.34-2.11,6.27,6.27,0,0,0,.42.59,23.88,23.88,0,0,1-9.52,7.79h0A18.45,18.45,0,0,1,47,51v5c4,0,5.93-1.12,10-2.9a14.78,14.78,0,0,1,11,4.75,6.76,6.76,0,1,0,12.16,5.32A6.64,6.64,0,0,0,79.28,58.09ZM69.06,34.67a2.57,2.57,0,0,1,1.4-.41,2.62,2.62,0,1,1,0,5.24,2.61,2.61,0,0,1-2.22-1.21A2.63,2.63,0,0,1,69.06,34.67Zm7.06,27.6A2.61,2.61,0,0,1,75,63.91a2.56,2.56,0,0,1-1.39.41,2.62,2.62,0,0,1-1.52-4.75l.12-.07a2.65,2.65,0,0,1,3.6.8A2.59,2.59,0,0,1,76.12,62.27Z"/><path class="cls-1" d="M137.63,50.81a27.56,27.56,0,0,1-2.18,11.33,17.32,17.32,0,0,1-6.2,7.6,16.08,16.08,0,0,1-9.14,2.68A16.36,16.36,0,0,1,111,69.79a17.13,17.13,0,0,1-6.28-7.59,27.5,27.5,0,0,1-2.24-11.39v-1.7a28,28,0,0,1,2.2-11.41,17.31,17.31,0,0,1,6.23-7.61A16.2,16.2,0,0,1,120,27.42a15.68,15.68,0,0,1,12.33,5.47q4.81,5.47,5.23,14.61ZM127,49c0-4.14-.61-7.31-1.83-9.53a5.66,5.66,0,0,0-10.32,0c-1.18,2.22-1.77,5.39-1.77,9.53v1.73q0,6.24,1.87,9.57a5.71,5.71,0,0,0,5.16,3.33c2.13,0,3.81-1.13,5-3.37S127,54.94,127,51Z"/><path class="cls-1" d="M146,71.82V41.73h-4.53V34.4H146V31c0-4.12,1.12-7.34,3.27-9.63s5.14-3.44,9-3.44a18.63,18.63,0,0,1,4.42.69l-.07,7.82a8,8,0,0,0-2.38-.31c-2.91,0-4.36,1.72-4.36,5.18v3h5.84v7.33h-5.84V71.82Z"/><path class="cls-1" d="M169.17,71.82V41.73h-4.53V34.4h4.53V31c0-4.12,1.12-7.34,3.27-9.63S177.58,18,181.39,18a18.63,18.63,0,0,1,4.42.69l-.07,7.82a8,8,0,0,0-2.38-.31c-2.91,0-4.36,1.72-4.36,5.18v3h5.84v7.33H179V71.82Z"/><path class="cls-1" d="M190.14,24.71A5,5,0,0,1,191.59,21a5.87,5.87,0,0,1,7.75,0,5,5,0,0,1,1.45,3.73,5.33,5.33,0,1,1-10.65,0Zm10.27,47.11h-9.82V34.4h9.82Z"/><path class="cls-1" d="M221.51,64.39q4.26,0,4.32-5.54H235a13.74,13.74,0,0,1-3.77,9.9,12.78,12.78,0,0,1-9.54,3.76q-7.23,0-11-4.49c-2.53-3-3.83-7.42-3.87-13.25v-3q0-8.82,3.75-13.46t11.09-4.63q6.19,0,9.75,3.82T235,48.37h-9.2a9.75,9.75,0,0,0-1-4.84,3.54,3.54,0,0,0-3.32-1.7,4,4,0,0,0-3.66,1.82q-1.11,1.82-1.18,7v3.8a30.57,30.57,0,0,0,.45,6.39,4.83,4.83,0,0,0,1.49,2.66A4.56,4.56,0,0,0,221.51,64.39Z"/><path class="cls-1" d="M255.68,72.51q-7.53,0-11.76-4.49T239.7,55.15v-3q0-8.86,3.88-13.67t11.1-4.8q7.05,0,10.62,4.5t3.63,13.35v4.8H249.46q.21,4.17,1.83,6.1a6.22,6.22,0,0,0,5,1.93A11,11,0,0,0,264.5,61L268.34,67a12.69,12.69,0,0,1-5.22,4A18,18,0,0,1,255.68,72.51Zm-6.15-23h9.79v-.9a10.56,10.56,0,0,0-1.11-5.09,3.85,3.85,0,0,0-3.6-1.73,4.09,4.09,0,0,0-3.72,1.84A12.67,12.67,0,0,0,249.53,49.55Z"/><path class="cls-6" d="M274.36,71.82V28h14.89q7.67,0,11.71,3.1t4,9A11.34,11.34,0,0,1,303.54,46a8.62,8.62,0,0,1-4.33,3.64A8.41,8.41,0,0,1,304,53a11,11,0,0,1,1.69,6.23q0,6.54-3.8,9.55t-11.43,3ZM285,46.22h5.11c2.84-.08,4.25-1.58,4.25-4.51A5.32,5.32,0,0,0,293.31,38a4.29,4.29,0,0,0-3.23-1.1H285Zm0,7.41v9.43h5.45A4.14,4.14,0,0,0,295,58.53q0-4.76-3.83-4.9Z"/><path class="cls-6" d="M330.65,43.84l-3.26-.28A5.35,5.35,0,0,0,322,47.09V71.82h-9.82V34.4h9.24l.27,4q2.33-4.72,6.4-4.73a6.84,6.84,0,0,1,2.7.45Z"/><path class="cls-6" d="M352.4,71.82a14.12,14.12,0,0,1-.83-2.9,8.35,8.35,0,0,1-7.12,3.59,10.51,10.51,0,0,1-7.8-3.11,10.91,10.91,0,0,1-3.1-8.06q0-5.88,3.75-9.09T348.11,49h3V46a5.61,5.61,0,0,0-.87-3.56,3.1,3.1,0,0,0-2.52-1q-3.68,0-3.67,4.29h-9.79a10.84,10.84,0,0,1,3.89-8.56A14.5,14.5,0,0,1,348,33.71q6.16,0,9.53,3.2t3.38,9.14V63.66a18.32,18.32,0,0,0,1.38,7.58v.58Zm-5.77-7a5.42,5.42,0,0,0,2.76-.66,4.71,4.71,0,0,0,1.7-1.56V54.84h-2.35a5,5,0,0,0-3.93,1.59,6.1,6.1,0,0,0-1.44,4.26C343.37,63.45,344.46,64.84,346.63,64.84Z"/><path class="cls-6" d="M368,24.71A5,5,0,0,1,369.42,21a5.87,5.87,0,0,1,7.75,0,5,5,0,0,1,1.45,3.73,5.33,5.33,0,1,1-10.65,0Zm10.27,47.11h-9.82V34.4h9.82Z"/><path class="cls-6" d="M394.77,34.4l.28,3.7a10.37,10.37,0,0,1,8.68-4.39q9.66,0,9.93,13.52V71.82h-9.82V48a8.64,8.64,0,0,0-.95-4.62,3.71,3.71,0,0,0-3.34-1.44,4.56,4.56,0,0,0-4.15,2.74V71.82h-9.83V34.4Z"/><path class="cls-6" d="M431.51,63.69h14.8v8.13H419.89V65.7l14.45-23.14H420.23V34.4h25.88v5.91Z"/></svg>