<svg id="Layer_1" data-name="Layer 1" xmlns="http://www.w3.org/2000/svg" viewBox="0 0 70 30"><defs><style>.cls-1{fill:#ffde00;}.cls-2{fill:#eb743b;}</style></defs><polygon class="cls-1" points="14 1 2 8 2 22 14 29 14 1"/><polygon class="cls-2" points="15 1 27 8 27 22 15 29 15 1"/><path class="cls-1" d="M49.11,15.52A11.06,11.06,0,0,1,48,20.64a8.15,8.15,0,0,1-3.25,3.43,10.24,10.24,0,0,1-9.6,0,8.05,8.05,0,0,1-3.26-3.38,10.82,10.82,0,0,1-1.17-5.06v-.89a11.12,11.12,0,0,1,1.13-5.14,8.19,8.19,0,0,1,3.24-3.43,10.18,10.18,0,0,1,9.61,0,8.17,8.17,0,0,1,3.26,3.4,11,11,0,0,1,1.18,5.1Zm-4.92-.77a7.1,7.1,0,0,0-1.13-4.32,4.1,4.1,0,0,0-6.36,0,7.25,7.25,0,0,0-1.09,4.32v.77a7.27,7.27,0,0,0,1.11,4.31,3.73,3.73,0,0,0,3.21,1.54A3.67,3.67,0,0,0,43,19.84a7.11,7.11,0,0,0,1.15-4.37Z"/><path class="cls-2" d="M51.91,25V5.24h7.63a11,11,0,0,1,6.08,1.4,4.58,4.58,0,0,1,2.12,4.07A4.5,4.5,0,0,1,67,13.33,4.37,4.37,0,0,1,64.75,15a4.35,4.35,0,0,1,2.54,1.61,4.45,4.45,0,0,1,.89,2.74,4.83,4.83,0,0,1-2,4.3A10.48,10.48,0,0,1,60.29,25Zm4.92-11.54h3q3,0,3-2.07a1.91,1.91,0,0,0-.73-1.7,3.89,3.89,0,0,0-2.19-.5H56.83Zm0,3.35v4.24h3.46a3.74,3.74,0,0,0,2.2-.56A1.76,1.76,0,0,0,63.27,19c0-1.42-.86-2.15-2.59-2.19Z"/></svg>