<svg id="Layer_1" data-name="Layer 1" xmlns="http://www.w3.org/2000/svg" viewBox="0 0 262.29 100"><defs><style>.cls-1{fill:#eb743b;}.cls-2{fill:#ba478f;}.cls-3{fill:#fffedb;}</style></defs><polygon class="cls-1" points="46 2 46 98 87 74 87 26 46 2"/><polygon class="cls-2" points="43 2 2 26 2 74 43 98 43 2"/><path class="cls-3" d="M43,37,24,48V40L43,29V14L21,27.29l0,0-.18.13-.13.12a.86.86,0,0,0-.13.14l-.13.15-.09.16a1.4,1.4,0,0,0-.09.17,1.34,1.34,0,0,0-.07.18,1.21,1.21,0,0,0-.05.18,1.13,1.13,0,0,0,0,.18A1.64,1.64,0,0,0,20,29s0,0,0,.05V63c-2,0-4,0-5.36,1-3.12,2.3-4.51,5.89-2.86,8.38s5.61,2.76,8.84.61A8.4,8.4,0,0,0,24,68c.08-.22,0-15,0-15L43,42Z"/><path class="cls-3" d="M78.28,58.09a6.75,6.75,0,0,0-7.67-2.86A18.09,18.09,0,0,0,62,49.6a28.62,28.62,0,0,0,5.91-6.16,6.91,6.91,0,0,0,5.17-.83,6.77,6.77,0,1,0-9.34-2.11,6.27,6.27,0,0,0,.42.59,23.88,23.88,0,0,1-9.52,7.79h0A18.45,18.45,0,0,1,46,51v5c4,0,5.93-1.12,10-2.9a14.78,14.78,0,0,1,11,4.75,6.76,6.76,0,1,0,12.16,5.32A6.64,6.64,0,0,0,78.28,58.09ZM68.06,34.67a2.57,2.57,0,0,1,1.4-.41,2.62,2.62,0,1,1,0,5.24,2.61,2.61,0,0,1-2.22-1.21A2.63,2.63,0,0,1,68.06,34.67Zm7.06,27.6A2.61,2.61,0,0,1,74,63.91a2.56,2.56,0,0,1-1.39.41,2.62,2.62,0,0,1-1.52-4.75l.12-.07a2.65,2.65,0,0,1,3.6.8A2.59,2.59,0,0,1,75.12,62.27Z"/><path class="cls-2" d="M115.06,10.7l8.81,23.79,8.76-23.79h11.6V46h-8.81V38.85l.91-18.54L126.78,46h-5.84l-9.52-25.6.91,18.45V46h-8.82V10.7Z"/><path class="cls-2" d="M168.42,42.93a10.1,10.1,0,0,1-8.25,3.63q-4.84,0-7.4-2.79t-2.61-8.17V15.84h8.06V35.35q0,4.71,4.29,4.71,4.1,0,5.63-2.84V15.84h8.08V46h-7.58Z"/><path class="cls-2" d="M198.64,37.67a2.6,2.6,0,0,0-1.47-2.33,16.27,16.27,0,0,0-4.69-1.52q-10.77-2.26-10.76-9.14A8.3,8.3,0,0,1,185.05,18a13.45,13.45,0,0,1,8.71-2.69q5.75,0,9.18,2.71a8.49,8.49,0,0,1,3.44,7h-8a3.9,3.9,0,0,0-1.12-2.86A4.71,4.71,0,0,0,193.73,21a4.83,4.83,0,0,0-3.15.91,2.93,2.93,0,0,0-1.11,2.35,2.49,2.49,0,0,0,1.26,2.16A13.13,13.13,0,0,0,195,27.87a35.44,35.44,0,0,1,5.08,1.35q6.38,2.34,6.38,8.11A7.87,7.87,0,0,1,202.93,44a15.27,15.27,0,0,1-9.14,2.55,16,16,0,0,1-6.74-1.35,11.4,11.4,0,0,1-4.61-3.71,8.66,8.66,0,0,1-1.67-5.09h7.64A4.18,4.18,0,0,0,190,39.7,6.29,6.29,0,0,0,194,40.84a5.79,5.79,0,0,0,3.5-.88A2.72,2.72,0,0,0,198.64,37.67Z"/><path class="cls-2" d="M211.6,8a4,4,0,0,1,1.21-3,5.22,5.22,0,0,1,6.59,0,4,4,0,0,1,1.23,3,4,4,0,0,1-1.24,3,5.17,5.17,0,0,1-6.55,0A4,4,0,0,1,211.6,8Zm8.55,38h-8.08V15.84h8.08Z"/><path class="cls-2" d="M239.33,40.06A5.33,5.33,0,0,0,243,38.84a4.31,4.31,0,0,0,1.44-3.26H252a10.38,10.38,0,0,1-1.67,5.61,11.07,11.07,0,0,1-4.51,4,14,14,0,0,1-6.31,1.41q-6.47,0-10.2-4.11t-3.74-11.36v-.53q0-7,3.71-11.12t10.18-4.16a12.72,12.72,0,0,1,9.07,3.22A11.45,11.45,0,0,1,252,27.07H244.4A5.52,5.52,0,0,0,243,23.25a5.39,5.39,0,0,0-7.93.58q-1.44,2.05-1.44,6.66v.84c0,3.1.47,5.34,1.42,6.7A4.93,4.93,0,0,0,239.33,40.06Z"/><path class="cls-1" d="M103.51,92V56.7h13.64q7,0,10.85,2.51a8.79,8.79,0,0,1,2.4,11.95,7.83,7.83,0,0,1-4,3A7.83,7.83,0,0,1,131,77a8,8,0,0,1,1.58,4.9c0,3.48-1.2,6-3.61,7.66S123.07,92,118.48,92Zm8.79-20.6h5.39q5.31,0,5.31-3.71a3.43,3.43,0,0,0-1.29-3,6.92,6.92,0,0,0-3.93-.9H112.3Zm0,6v7.57h6.18a6.65,6.65,0,0,0,3.94-1,3.11,3.11,0,0,0,1.39-2.65c0-2.54-1.54-3.84-4.63-3.92Z"/><path class="cls-1" d="M154.88,69.39a23.28,23.28,0,0,0-2.9-.22q-4.56,0-6,3.1V92h-8.05V61.84h7.6l.23,3.6q2.41-4.15,6.72-4.16a8.24,8.24,0,0,1,2.51.37Z"/><path class="cls-1" d="M175.4,92a9.07,9.07,0,0,1-.81-2.7A9.76,9.76,0,0,1,167,92.56,10.7,10.7,0,0,1,159.64,90a8.22,8.22,0,0,1-2.92-6.46,8.52,8.52,0,0,1,3.56-7.36q3.56-2.57,10.27-2.59h3.7V71.85a5,5,0,0,0-1.07-3.35,4.22,4.22,0,0,0-3.38-1.25,4.83,4.83,0,0,0-3.2,1,3.33,3.33,0,0,0-1.15,2.68h-8.06A8.08,8.08,0,0,1,159,66.05a10.71,10.71,0,0,1,4.57-3.5,16.75,16.75,0,0,1,6.63-1.27c3.72,0,6.67.94,8.85,2.8A9.8,9.8,0,0,1,182.34,72V85a14.48,14.48,0,0,0,1.2,6.5V92Zm-6.66-5.6a7,7,0,0,0,3.29-.8,5.2,5.2,0,0,0,2.22-2.13V78.29h-3c-4,0-6.18,1.39-6.44,4.18l0,.47a3.22,3.22,0,0,0,1.06,2.48A4.1,4.1,0,0,0,168.74,86.4Z"/><path class="cls-1" d="M188.47,54a4,4,0,0,1,1.21-3,5.24,5.24,0,0,1,6.6,0,4.27,4.27,0,0,1,0,6,5.17,5.17,0,0,1-6.55,0A4,4,0,0,1,188.47,54ZM197,92h-8.09V61.84H197Z"/><path class="cls-1" d="M211.08,61.84l.25,3.48a10.53,10.53,0,0,1,8.67-4q4.78,0,7.13,2.82c1.56,1.88,2.36,4.68,2.4,8.42V92h-8.06V72.67a5.25,5.25,0,0,0-1.11-3.73,5,5,0,0,0-3.71-1.16,5.54,5.54,0,0,0-5.1,2.9V92H203.5V61.84Z"/><path class="cls-1" d="M244.89,85.51h14.74V92h-25V87.09l14.19-18.76H235V61.84h24.17v4.75Z"/></svg>