<svg xmlns="http://www.w3.org/2000/svg" viewBox="0 0 400.21 150"><defs><style>.cls-1{isolation:isolate;}.cls-2{fill:#eb743b;}.cls-3{fill:#ba478f;}.cls-4{mix-blend-mode:multiply;opacity:0.07;}.cls-5{fill:#9d356d;}.cls-6{fill:#fffedb;}.cls-7{fill:#d3562c;}</style></defs><g class="cls-1"><g id="Layer_1" data-name="Layer 1"><polygon class="cls-2" points="70.03 2.83 70.03 146.83 131 111.83 131 37.83 70.03 2.83"/><polygon class="cls-3" points="65 2.83 4.03 37.83 4.03 111.83 65 146.83 65 62.83 64.03 61.83 64.03 56.83 65 55.83 65 43.83 64.03 43.83 64.03 22.83 65 21.83 65 2.83"/><g class="cls-4"><path d="M65,55.87l-27,16V60.22L65,44V21.42L32.48,40.69l-.06.05a1.57,1.57,0,0,0-.26.19L32,41.1a2,2,0,0,0-.19.22c-.06.07-.13.14-.19.22a2,2,0,0,0-.14.25,2,2,0,0,0-.14.25c0,.09-.06.18-.09.27a2.29,2.29,0,0,0-.09.28,2,2,0,0,0,0,.26,1.82,1.82,0,0,0,0,.32s0,.06,0,.08V93.83a11.07,11.07,0,0,0-8,2c-4.84,3.22-6.48,9.28-4,13s8.19,3.9,13,.68c2.76-1.83,5.37-4.07,6-6.68a11,11,0,0,0,0-2c0-.14,0-.28,0-.42V78.83L65,62.68Z"/></g><path class="cls-5" d="M65,58.83l-27,16v-12l27-16v-23L32.51,43.52l-.06,0-.26.2c-.07.06-.15.11-.21.17l-.19.21-.19.23a1.88,1.88,0,0,0-.14.24l-.14.25c0,.09-.06.18-.1.28a2.76,2.76,0,0,0-.08.27,2.51,2.51,0,0,0,0,.27,1.73,1.73,0,0,0,0,.32.22.22,0,0,0,0,.08V96.66a11,11,0,0,0-8,2c-4.84,3.22-6.48,9.28-4,13s8.19,3.9,13,.68c2.77-1.84,5.38-4.07,6-6.68a11,11,0,0,0,0-2c0-.14,0-.28,0-.42l0-21.41,27-16Z"/><path class="cls-6" d="M65,55.83l-27,16v-12l27-16v-23L32.48,40.69l-.06.05a1.57,1.57,0,0,0-.26.19L32,41.1a2,2,0,0,0-.19.22c-.06.07-.13.14-.19.22a2,2,0,0,0-.14.25,2,2,0,0,0-.14.25c0,.09-.06.18-.09.27a2.29,2.29,0,0,0-.09.28,2,2,0,0,0,0,.26,1.82,1.82,0,0,0,0,.32s0,.06,0,.08V93.83a11.07,11.07,0,0,0-8,2c-4.84,3.22-6.48,9.28-4,13s8.19,3.9,13,.68c2.76-1.83,5.37-4.07,6-6.68a11,11,0,0,0,0-2c0-.14,0-.28,0-.42V78.83l27-16Z"/><g class="cls-4"><path d="M87.33,94.57a2.1,2.1,0,0,1,1.82-1,2.16,2.16,0,0,1,1.08.29,2.12,2.12,0,0,1,.73,2.9,2.07,2.07,0,0,1-1.81,1,2.11,2.11,0,0,1-1.09-.3,2.11,2.11,0,0,1-.73-2.89Zm12.6,22.36a2.07,2.07,0,0,1-1.37.51,2.11,2.11,0,1,1,2.11-2A2.14,2.14,0,0,1,99.93,116.93Z"/><path d="M79,48.44l.21.05Z"/><path d="M90.41,58.09a2,2,0,0,1,.67-.66,2.11,2.11,0,0,1,1.12-.32,2.24,2.24,0,0,1,1.13.32,2.12,2.12,0,0,1-1.14,3.91A2,2,0,0,1,91.07,61,2.12,2.12,0,0,1,90.41,58.09ZM96.79,37.9a2.15,2.15,0,0,1-2.91.66l-.1-.07A2.11,2.11,0,0,1,95,34.66a2.15,2.15,0,0,1,1.12.33,2.11,2.11,0,0,1,.94,1.33A2.09,2.09,0,0,1,96.79,37.9Z"/><path d="M113.55,49.5a2.12,2.12,0,0,1,1.79-1,2,2,0,0,1,1.12.33,2.07,2.07,0,0,1,.94,1.33,2.1,2.1,0,0,1-.28,1.58,2.14,2.14,0,0,1-2.91.65l-.1-.06A2.11,2.11,0,0,1,113.55,49.5Zm0,23.46a2.12,2.12,0,0,1,1.79-1,2.11,2.11,0,0,1,1.78,3.24,2.14,2.14,0,0,1-2.91.66l-.1-.07A2.11,2.11,0,0,1,113.55,73Zm0,26.31a2.12,2.12,0,0,1,2.91-.66,2.11,2.11,0,1,1-2.25,3.57l-.1-.06A2.12,2.12,0,0,1,113.55,99.27Z"/><path d="M103.21,108.94a6.12,6.12,0,0,0-10.72,4.73A19.62,19.62,0,0,1,87.16,115a4,4,0,0,1-2.23-1,10.65,10.65,0,0,0-4.14-1.84,37.76,37.76,0,0,0,8.58-12.84,6.11,6.11,0,1,0-6.16-4.6,6,6,0,0,0,2.3,3.42c-4.05,9.22-9.22,13.08-12.56,14.69a1.49,1.49,0,0,0-.36.17,11,11,0,0,1-2.56.8v4a12.47,12.47,0,0,0,4.25-1.19c5.34-1.36,6.84-.35,8.4.71A8,8,0,0,0,87,119h.3a23.68,23.68,0,0,0,7-1.72A6.1,6.1,0,0,0,98.56,119h0a6.12,6.12,0,0,0,4.65-10.1ZM87.33,92.16a2.12,2.12,0,0,1,1.82-1,2.17,2.17,0,0,1,1.08.3,2.12,2.12,0,0,1,.73,2.9,2.09,2.09,0,0,1-1.81,1,2.21,2.21,0,0,1-1.09-.3,2.13,2.13,0,0,1-.73-2.9Zm12.6,22.36a2,2,0,0,1-1.37.51,2.11,2.11,0,0,1-1.38-3.71,2.11,2.11,0,0,1,3,.23,2.08,2.08,0,0,1-.23,3Z"/><path d="M79,46l.21.05Z"/><path d="M101,33a6.12,6.12,0,0,0-2.71-3.85A6.18,6.18,0,0,0,95,28.25a6.12,6.12,0,0,0-5,9.61,13.38,13.38,0,0,1-10,4.29,29.39,29.39,0,0,0-10-2.32v4A24.79,24.79,0,0,1,78.78,46h0a21.54,21.54,0,0,1,8.61,7,4,4,0,0,0-.38.54A6.14,6.14,0,0,0,88.92,62a6,6,0,0,0,3.27,1,6.13,6.13,0,0,0,3.27-11.31,6.2,6.2,0,0,0-4.66-.75,26,26,0,0,0-5.35-5.57,16.34,16.34,0,0,0,7.78-5.1,5.94,5.94,0,0,0,1.77.27,6.07,6.07,0,0,0,5.17-2.85A6,6,0,0,0,101,33ZM90.41,55.69a2.14,2.14,0,0,1,.67-.67,2.2,2.2,0,0,1,1.12-.31,2.12,2.12,0,1,1,0,4.23,2.12,2.12,0,0,1-1.78-3.25ZM96.79,35.5a2.14,2.14,0,0,1-2.91.65l-.1-.06A2.11,2.11,0,0,1,95,32.26a2.14,2.14,0,0,1,1.12.32,2.16,2.16,0,0,1,.94,1.33A2.12,2.12,0,0,1,96.79,35.5Z"/><path d="M109.67,74a6.09,6.09,0,0,0,2.11,2.65l.29.19a6.12,6.12,0,1,0,6.53-10.35,6.18,6.18,0,0,0-3.26-.94l-.38,0a25.67,25.67,0,0,1,0-11.27l.33,0a6.12,6.12,0,1,0-4.14-1.63l.07.06a28.75,28.75,0,0,0,0,14.42,5.25,5.25,0,0,0-.42.4,5.1,5.1,0,0,0-.63.82,5.73,5.73,0,0,0-.71,1.58,15.21,15.21,0,0,0-6.83,2.73c-2,1.32-4,2.57-9.63,2.66a32.76,32.76,0,0,0-5.29-.11c-1.44,0-2.92.1-4.85,0-1.34-.07-2.11-.88-3.46-2.42-1.8-2.06-4.22-4.65-9.37-5v4c3.29.3,4.8,1.89,6.36,3.67s3.17,3.62,6.25,3.78a49.83,49.83,0,0,0,5.21,0,24.19,24.19,0,0,1,7.86.69c2.6.64,12.09,9.67,14.77,14.32a4.25,4.25,0,0,0-.31.43,6.1,6.1,0,0,0,1.61,8.25l.29.2a6.12,6.12,0,1,0,3.27-11.3,6.16,6.16,0,0,0-1.55.2c-2.56-4.19-8.65-10.46-13.18-13.79a18.42,18.42,0,0,0,4.21-2.19A11.34,11.34,0,0,1,109.67,74Zm3.88-26.92a2.12,2.12,0,0,1,2.91-.66A2.11,2.11,0,1,1,114.21,50l-.1-.06A2.12,2.12,0,0,1,113.55,47.1Zm0,23.46a2.12,2.12,0,0,1,1.79-1,2,2,0,0,1,1.12.33,2.08,2.08,0,0,1,.94,1.32,2.11,2.11,0,0,1-3.19,2.24l-.1-.06A2.12,2.12,0,0,1,113.55,70.56Zm0,26.3a2.12,2.12,0,0,1,1.79-1,2.1,2.1,0,0,1,1.12.33,2.07,2.07,0,0,1,.94,1.33,2.1,2.1,0,0,1-.28,1.58,2.15,2.15,0,0,1-2.91.66l-.1-.07A2.11,2.11,0,0,1,113.55,96.86Z"/></g><path class="cls-7" d="M103.21,111.94a6.12,6.12,0,0,0-10.72,4.73A19.62,19.62,0,0,1,87.16,118a4,4,0,0,1-2.23-1,10.65,10.65,0,0,0-4.14-1.84,37.76,37.76,0,0,0,8.58-12.84,6.11,6.11,0,1,0-6.16-4.6,6,6,0,0,0,2.3,3.42c-4.05,9.22-9.22,13.08-12.56,14.69a1.49,1.49,0,0,0-.36.17,11,11,0,0,1-2.56.8v4a12.47,12.47,0,0,0,4.25-1.19c5.34-1.36,6.84-.35,8.4.71A8,8,0,0,0,87,122h.3a23.68,23.68,0,0,0,7-1.72A6.1,6.1,0,0,0,98.56,122h0a6.12,6.12,0,0,0,4.65-10.1ZM87.33,95.16a2.12,2.12,0,0,1,1.82-1,2.17,2.17,0,0,1,1.08.3,2.12,2.12,0,0,1,.73,2.9,2.09,2.09,0,0,1-1.81,1,2.21,2.21,0,0,1-1.09-.3,2.13,2.13,0,0,1-.73-2.9Zm12.6,22.36a2,2,0,0,1-1.37.51,2.11,2.11,0,0,1-1.38-3.71,2.11,2.11,0,0,1,3,.23,2.08,2.08,0,0,1-.23,3Z"/><path d="M79,48.44l.21.05Z"/><path class="cls-7" d="M101,36a6.12,6.12,0,1,0-11,4.82,13.36,13.36,0,0,1-10,4.3,28.93,28.93,0,0,0-10-2.32v4A25,25,0,0,1,78.78,49h0A21.57,21.57,0,0,1,87.4,56a4.7,4.7,0,0,0-.38.53,6.2,6.2,0,1,0,3.78-2.66,26.24,26.24,0,0,0-5.35-5.57,16.39,16.39,0,0,0,7.78-5.09,6.27,6.27,0,0,0,1.77.26A6.12,6.12,0,0,0,101,36ZM90.41,58.69a2,2,0,0,1,.67-.66,2.11,2.11,0,0,1,1.12-.32,2.12,2.12,0,1,1,0,4.23,2,2,0,0,1-1.12-.33A2.12,2.12,0,0,1,90.41,58.69ZM96.79,38.5a2.15,2.15,0,0,1-2.91.66l-.1-.07A2.11,2.11,0,0,1,95,35.26a2.15,2.15,0,0,1,1.12.33,2.1,2.1,0,0,1,.66,2.91Z"/><path class="cls-7" d="M109.67,77a6.09,6.09,0,0,0,2.11,2.65l.29.19a6.12,6.12,0,1,0,6.53-10.35,6.18,6.18,0,0,0-3.26-.94l-.38,0a25.67,25.67,0,0,1,0-11.27l.33,0a6.12,6.12,0,1,0-4.14-1.63l.07.06a28.75,28.75,0,0,0,0,14.42,5.25,5.25,0,0,0-.42.4,5.1,5.1,0,0,0-.63.82,5.73,5.73,0,0,0-.71,1.58,15.21,15.21,0,0,0-6.83,2.73c-2,1.32-4,2.57-9.63,2.66a32.76,32.76,0,0,0-5.29-.11c-1.44,0-2.92.1-4.85,0-1.34-.07-2.11-.88-3.46-2.42-1.8-2.06-4.22-4.65-9.37-5v4c3.29.3,4.8,1.89,6.36,3.67s3.17,3.62,6.25,3.78a49.83,49.83,0,0,0,5.21,0,24.19,24.19,0,0,1,7.86.69c2.6.64,12.09,9.67,14.77,14.32a4.25,4.25,0,0,0-.31.43,6.1,6.1,0,0,0,1.61,8.25l.29.2a6.12,6.12,0,1,0,3.27-11.3,6.16,6.16,0,0,0-1.55.2c-2.56-4.19-8.65-10.46-13.18-13.79a18.42,18.42,0,0,0,4.21-2.19A11.34,11.34,0,0,1,109.67,77Zm3.88-26.92a2.12,2.12,0,0,1,2.91-.66A2.11,2.11,0,1,1,114.21,53l-.1-.06A2.12,2.12,0,0,1,113.55,50.1Zm0,23.46a2.12,2.12,0,0,1,1.79-1,2,2,0,0,1,1.12.33,2.08,2.08,0,0,1,.94,1.32,2.11,2.11,0,0,1-3.19,2.24l-.1-.06A2.12,2.12,0,0,1,113.55,73.56Zm0,26.3a2.12,2.12,0,0,1,1.79-1,2.1,2.1,0,0,1,1.12.33,2.07,2.07,0,0,1,.94,1.33,2.1,2.1,0,0,1-.28,1.58,2.15,2.15,0,0,1-2.91.66l-.1-.07A2.11,2.11,0,0,1,113.55,99.86Z"/><path class="cls-6" d="M103.21,108.94a6.12,6.12,0,0,0-10.72,4.73A19.62,19.62,0,0,1,87.16,115a4,4,0,0,1-2.23-1,10.65,10.65,0,0,0-4.14-1.84,37.76,37.76,0,0,0,8.58-12.84,6.11,6.11,0,1,0-6.16-4.6,6,6,0,0,0,2.3,3.42c-4.05,9.22-9.22,13.08-12.56,14.69a1.49,1.49,0,0,0-.36.17,11,11,0,0,1-2.56.8v4a12.47,12.47,0,0,0,4.25-1.19c5.34-1.36,6.84-.35,8.4.71A8,8,0,0,0,87,119h.3a23.68,23.68,0,0,0,7-1.72A6.1,6.1,0,0,0,98.56,119h0a6.12,6.12,0,0,0,4.65-10.1ZM87.33,92.16a2.12,2.12,0,0,1,1.82-1,2.17,2.17,0,0,1,1.08.3,2.12,2.12,0,0,1,.73,2.9,2.09,2.09,0,0,1-1.81,1,2.21,2.21,0,0,1-1.09-.3,2.13,2.13,0,0,1-.73-2.9Zm12.6,22.36a2,2,0,0,1-1.37.51,2.11,2.11,0,0,1-1.38-3.71,2.11,2.11,0,0,1,3,.23,2.08,2.08,0,0,1-.23,3Z"/><path class="cls-6" d="M79,46l.21.05Z"/><path class="cls-6" d="M101,33a6.12,6.12,0,0,0-2.71-3.85A6.18,6.18,0,0,0,95,28.25a6.12,6.12,0,0,0-5,9.61,13.38,13.38,0,0,1-10,4.29,29.39,29.39,0,0,0-10-2.32v4A24.79,24.79,0,0,1,78.78,46h0a21.54,21.54,0,0,1,8.61,7,4,4,0,0,0-.38.54A6.14,6.14,0,0,0,88.92,62a6,6,0,0,0,3.27,1,6.13,6.13,0,0,0,3.27-11.31,6.2,6.2,0,0,0-4.66-.75,26,26,0,0,0-5.35-5.57,16.34,16.34,0,0,0,7.78-5.1,5.94,5.94,0,0,0,1.77.27,6.07,6.07,0,0,0,5.17-2.85A6,6,0,0,0,101,33ZM90.41,55.69a2.14,2.14,0,0,1,.67-.67,2.2,2.2,0,0,1,1.12-.31,2.12,2.12,0,1,1,0,4.23,2.12,2.12,0,0,1-1.78-3.25ZM96.79,35.5a2.14,2.14,0,0,1-2.91.65l-.1-.06A2.11,2.11,0,0,1,95,32.26a2.14,2.14,0,0,1,1.12.32,2.16,2.16,0,0,1,.94,1.33A2.12,2.12,0,0,1,96.79,35.5Z"/><path class="cls-6" d="M109.67,74a6.09,6.09,0,0,0,2.11,2.65l.29.19a6.12,6.12,0,1,0,6.53-10.35,6.18,6.18,0,0,0-3.26-.94l-.38,0a25.67,25.67,0,0,1,0-11.27l.33,0a6.12,6.12,0,1,0-4.14-1.63l.07.06a28.75,28.75,0,0,0,0,14.42,5.25,5.25,0,0,0-.42.4,5.1,5.1,0,0,0-.63.82,5.73,5.73,0,0,0-.71,1.58,15.21,15.21,0,0,0-6.83,2.73c-2,1.32-4,2.57-9.63,2.66a32.76,32.76,0,0,0-5.29-.11c-1.44,0-2.92.1-4.85,0-1.34-.07-2.11-.88-3.46-2.42-1.8-2.06-4.22-4.65-9.37-5v4c3.29.3,4.8,1.89,6.36,3.67s3.17,3.62,6.25,3.78a49.83,49.83,0,0,0,5.21,0,24.19,24.19,0,0,1,7.86.69c2.6.64,12.09,9.67,14.77,14.32a4.25,4.25,0,0,0-.31.43,6.1,6.1,0,0,0,1.61,8.25l.29.2a6.12,6.12,0,1,0,3.27-11.3,6.16,6.16,0,0,0-1.55.2c-2.56-4.19-8.65-10.46-13.18-13.79a18.42,18.42,0,0,0,4.21-2.19A11.34,11.34,0,0,1,109.67,74Zm3.88-26.92a2.12,2.12,0,0,1,2.91-.66A2.11,2.11,0,1,1,114.21,50l-.1-.06A2.12,2.12,0,0,1,113.55,47.1Zm0,23.46a2.12,2.12,0,0,1,1.79-1,2,2,0,0,1,1.12.33,2.08,2.08,0,0,1,.94,1.32,2.11,2.11,0,0,1-3.19,2.24l-.1-.06A2.12,2.12,0,0,1,113.55,70.56Zm0,26.3a2.12,2.12,0,0,1,1.79-1,2.1,2.1,0,0,1,1.12.33,2.07,2.07,0,0,1,.94,1.33,2.1,2.1,0,0,1-.28,1.58,2.15,2.15,0,0,1-2.91.66l-.1-.07A2.11,2.11,0,0,1,113.55,96.86Z"/><path class="cls-3" d="M174.5,15.23,188.14,52l13.55-36.79h17.95v54.6H206V58.77l1.4-28.69L192.64,69.83h-9l-14.72-39.6,1.41,28.54V69.83H156.64V15.23Z"/><path class="cls-3" d="M257.06,65.09q-4.62,5.61-12.77,5.61-7.5,0-11.45-4.32t-4-12.63V23.17h12.46V53.35q0,7.31,6.64,7.3,6.34,0,8.71-4.4V23.17h12.51V69.83H257.4Z"/><path class="cls-3" d="M303.8,56.94a4,4,0,0,0-2.26-3.6A25.6,25.6,0,0,0,294.27,51q-16.65-3.5-16.64-14.15a12.82,12.82,0,0,1,5.15-10.37q5.14-4.16,13.48-4.16,8.88,0,14.2,4.19a13.17,13.17,0,0,1,5.33,10.86H303.33a6,6,0,0,0-1.73-4.42c-1.15-1.16-2.94-1.74-5.39-1.74a7.44,7.44,0,0,0-4.87,1.42,4.49,4.49,0,0,0-1.73,3.62,3.83,3.83,0,0,0,2,3.34,20.07,20.07,0,0,0,6.62,2.2A54.91,54.91,0,0,1,306,43.87q9.88,3.63,9.88,12.55a12.17,12.17,0,0,1-5.48,10.33q-5.47,3.94-14.14,4a24.64,24.64,0,0,1-10.42-2.1,17.39,17.39,0,0,1-7.13-5.73A13.29,13.29,0,0,1,276.16,55H288a6.51,6.51,0,0,0,2.45,5.09,9.77,9.77,0,0,0,6.13,1.77A9.07,9.07,0,0,0,302,60.5,4.23,4.23,0,0,0,303.8,56.94Z"/><path class="cls-3" d="M323.85,11.1a6.12,6.12,0,0,1,1.88-4.61,8.06,8.06,0,0,1,10.2,0,6.1,6.1,0,0,1,1.9,4.61,6.12,6.12,0,0,1-1.92,4.66,8,8,0,0,1-10.14,0A6.12,6.12,0,0,1,323.85,11.1Zm13.24,58.73h-12.5V23.17h12.5Z"/><path class="cls-3" d="M366.76,60.65a8.17,8.17,0,0,0,5.61-1.9,6.64,6.64,0,0,0,2.24-5H386.3a16,16,0,0,1-2.59,8.69,17.11,17.11,0,0,1-7,6.12A21.86,21.86,0,0,1,367,70.7q-10,0-15.78-6.36t-5.78-17.58v-.82q0-10.77,5.73-17.2t15.74-6.43q8.76,0,14,5t5.37,13.26H374.61a8.54,8.54,0,0,0-2.24-5.91,8.34,8.34,0,0,0-12.27.89q-2.22,3.18-2.22,10.3v1.3q0,7.21,2.2,10.37A7.59,7.59,0,0,0,366.76,60.65Z"/><path class="cls-2" d="M156.64,138.83V84.23h21.09q10.92,0,16.78,3.87a13.61,13.61,0,0,1,3.73,18.5,12.16,12.16,0,0,1-6.12,4.57,12.18,12.18,0,0,1,7,4.45,12.32,12.32,0,0,1,2.44,7.58q0,8.1-5.58,11.87t-16.21,3.76ZM170.23,107h8.35q8.19,0,8.2-5.74,0-3.3-2-4.68t-6.07-1.39h-8.49Zm0,9.23v11.72h9.57a10.27,10.27,0,0,0,6.09-1.55,4.81,4.81,0,0,0,2.16-4.1q0-5.88-7.18-6.07Z"/><path class="cls-2" d="M236.11,103.86a33.67,33.67,0,0,0-4.48-.34q-7.08,0-9.27,4.78v30.53H209.89V92.17h11.78l.34,5.57q3.75-6.43,10.39-6.43a13.25,13.25,0,0,1,3.89.56Z"/><path class="cls-2" d="M267.85,138.83a14,14,0,0,1-1.25-4.18,15.09,15.09,0,0,1-11.77,5,16.58,16.58,0,0,1-11.36-4,12.76,12.76,0,0,1-4.51-10q0-7.41,5.5-11.38t15.89-4h5.73v-2.67a7.67,7.67,0,0,0-1.66-5.18q-1.65-1.94-5.24-1.94a7.39,7.39,0,0,0-4.93,1.51,5.12,5.12,0,0,0-1.79,4.14H240a12.5,12.5,0,0,1,2.5-7.5,16.49,16.49,0,0,1,7.07-5.42,25.92,25.92,0,0,1,10.26-2q8.63,0,13.69,4.34t5.07,12.18v20.22q0,6.64,1.85,10v.73Zm-10.3-8.66a10.69,10.69,0,0,0,5.08-1.23,8,8,0,0,0,3.45-3.3v-8h-4.65q-9.36,0-10,6.47l-.05.73a5,5,0,0,0,1.64,3.84A6.4,6.4,0,0,0,257.55,130.17Z"/><path class="cls-2" d="M288.08,80.1A6.11,6.11,0,0,1,290,75.49a8.06,8.06,0,0,1,10.2,0,6.58,6.58,0,0,1,0,9.27,8,8,0,0,1-10.13,0A6.12,6.12,0,0,1,288.08,80.1Zm13.24,58.73H288.81V92.17h12.51Z"/><path class="cls-2" d="M323.05,92.17l.39,5.39a16.3,16.3,0,0,1,13.41-6.25q7.41,0,11,4.36t3.71,13v30.14H339.14V108.92q0-4-1.73-5.77t-5.74-1.79a8.59,8.59,0,0,0-7.89,4.49v33H311.32V92.17Z"/><path class="cls-2" d="M375.36,128.79h22.81v10H359.45v-7.59l21.95-29H360.09v-10h37.39v7.35Z"/></g></g></svg>