<svg id="Layer_1" data-name="Layer 1" xmlns="http://www.w3.org/2000/svg" viewBox="0 0 140 190"><defs><style>.cls-1{fill:#eb743b;}.cls-2{fill:#ba478f;}.cls-3{fill:#fffedb;}</style></defs><polygon class="cls-1" points="72 3 72 99 113 75 113 27 72 3"/><polygon class="cls-2" points="69 3 28 27 28 75 69 99 69 3"/><path class="cls-3" d="M69,38,50,49V41L69,30V15L47,28.29l0,0-.18.13-.13.12a.86.86,0,0,0-.13.14l-.13.15-.09.16a1.4,1.4,0,0,0-.09.17,1.34,1.34,0,0,0-.07.18,1.21,1.21,0,0,0,0,.18,1.13,1.13,0,0,0,0,.18A1.64,1.64,0,0,0,46,30s0,0,0,.05V64c-2,0-4,0-5.36,1-3.12,2.3-4.51,5.89-2.86,8.38s5.61,2.76,8.84.61A8.4,8.4,0,0,0,50,69c.08-.22,0-15,0-15L69,43Z"/><path class="cls-3" d="M104.28,59.09a6.75,6.75,0,0,0-7.67-2.86A18.09,18.09,0,0,0,88,50.6a28.62,28.62,0,0,0,5.91-6.16,6.91,6.91,0,0,0,5.17-.83,6.77,6.77,0,1,0-9.34-2.11,6.27,6.27,0,0,0,.42.59,23.88,23.88,0,0,1-9.52,7.79h0A18.45,18.45,0,0,1,72,52v5c4,0,5.93-1.12,10-2.9a14.78,14.78,0,0,1,11,4.75,6.76,6.76,0,1,0,12.16,5.32A6.64,6.64,0,0,0,104.28,59.09ZM94.06,35.67a2.57,2.57,0,0,1,1.4-.41,2.62,2.62,0,1,1,0,5.24,2.61,2.61,0,0,1-2.22-1.21A2.63,2.63,0,0,1,94.06,35.67Zm7.06,27.6A2.61,2.61,0,0,1,100,64.91a2.56,2.56,0,0,1-1.39.41,2.62,2.62,0,0,1-1.52-4.75l.12-.07a2.65,2.65,0,0,1,3.6.8A2.59,2.59,0,0,1,101.12,63.27Z"/><path class="cls-2" d="M16.4,106.7l6.24,23.7,6.24-23.7h11.3V142h-8.6v-7l.82-16.42L25.46,142H19.79l-6.91-23.33L13.7,135v7H5.13V106.7Z"/><path class="cls-2" d="M60.7,139.24a7.79,7.79,0,0,1-6.58,3.32,7.38,7.38,0,0,1-6.3-2.86c-1.43-1.9-2.14-4.68-2.14-8.32V111.84h7.88v19.74q.06,4.39,2.93,4.4a4.07,4.07,0,0,0,3.9-2.34v-21.8h8V142H60.92Z"/><path class="cls-2" d="M87.32,133.92a2.48,2.48,0,0,0-1-1.86,19.46,19.46,0,0,0-4.28-2.3c-3.25-1.32-5.49-2.68-6.7-4.09a7.79,7.79,0,0,1-1.83-5.27,8.41,8.41,0,0,1,2.86-6.54A10.83,10.83,0,0,1,84,111.28a11.78,11.78,0,0,1,8,2.57,8.6,8.6,0,0,1,3,6.88H87q0-3.67-3.06-3.68a2.72,2.72,0,0,0-2.87,3,2.26,2.26,0,0,0,.89,1.77A19.41,19.41,0,0,0,86.18,124q4.81,1.78,6.81,4a8.09,8.09,0,0,1,2,5.67,7.93,7.93,0,0,1-3,6.49,12.31,12.31,0,0,1-8,2.46,12.73,12.73,0,0,1-5.85-1.3,9.84,9.84,0,0,1-4-3.61,9.25,9.25,0,0,1-1.44-5h7.5a4.83,4.83,0,0,0,1,3.1,3.81,3.81,0,0,0,3,1Q87.32,136.79,87.32,133.92Z"/><path class="cls-2" d="M99.89,104a4.07,4.07,0,0,1,1.17-3,4.71,4.71,0,0,1,6.24,0,4,4,0,0,1,1.18,3,4,4,0,0,1-4.3,4.21,4.14,4.14,0,0,1-3.13-1.2A4.18,4.18,0,0,1,99.89,104Zm8.28,38h-7.92V111.84h7.92Z"/><path class="cls-2" d="M125.17,136q3.43,0,3.49-4.46h7.41a11.09,11.09,0,0,1-3,8,10.33,10.33,0,0,1-7.69,3q-5.82,0-8.89-3.63t-3.12-10.67v-2.4q0-7.11,3-10.84t8.93-3.74a10.22,10.22,0,0,1,7.86,3.08c1.92,2.06,2.89,5,2.93,8.74h-7.41a7.9,7.9,0,0,0-.84-3.9,2.87,2.87,0,0,0-2.68-1.37,3.18,3.18,0,0,0-3,1.47c-.6,1-.91,2.86-1,5.67V128a24.79,24.79,0,0,0,.36,5.14,4,4,0,0,0,1.2,2.14A3.64,3.64,0,0,0,125.17,136Z"/><path class="cls-1" d="M1,188V152.7H13c4.12,0,7.27.84,9.44,2.5a8.61,8.61,0,0,1,3.26,7.26,9.07,9.07,0,0,1-1.19,4.7A6.91,6.91,0,0,1,21,170.09a6.74,6.74,0,0,1,3.85,2.78,8.81,8.81,0,0,1,1.36,5c0,3.52-1,6.08-3.06,7.7S18,188,13.92,188Zm8.58-20.63h4.12c2.28-.06,3.42-1.28,3.42-3.64a4.23,4.23,0,0,0-.85-3,3.4,3.4,0,0,0-2.6-.9H9.53Zm0,6v7.6h4.39a3.65,3.65,0,0,0,2.74-1,3.65,3.65,0,0,0,1-2.68q0-3.82-3.09-3.95Z"/><path class="cls-1" d="M46.31,165.45l-2.62-.22a4.3,4.3,0,0,0-4.38,2.84V188H31.4V157.84h7.44l.22,3.26c1.25-2.54,3-3.82,5.16-3.82a5.33,5.33,0,0,1,2.17.37Z"/><path class="cls-1" d="M63.84,188a11.67,11.67,0,0,1-.67-2.34,6.74,6.74,0,0,1-5.74,2.9,8.5,8.5,0,0,1-6.28-2.51,8.8,8.8,0,0,1-2.5-6.5,9.14,9.14,0,0,1,3-7.33c2-1.72,4.92-2.61,8.71-2.64h2.39v-2.43a4.57,4.57,0,0,0-.69-2.87,2.51,2.51,0,0,0-2-.84c-2,0-2.95,1.16-2.95,3.46H49.21a8.7,8.7,0,0,1,3.14-6.9,11.68,11.68,0,0,1,7.93-2.72q4.95,0,7.68,2.58t2.71,7.37v14.19a14.86,14.86,0,0,0,1.12,6.11V188Zm-4.65-5.63a4.43,4.43,0,0,0,2.23-.53,3.69,3.69,0,0,0,1.36-1.25v-6.28H60.89a4,4,0,0,0-3.16,1.29A4.86,4.86,0,0,0,56.57,179C56.57,181.25,57.44,182.37,59.19,182.37Z"/><path class="cls-1" d="M76.39,150a4.07,4.07,0,0,1,1.17-3,4.71,4.71,0,0,1,6.24,0A4.07,4.07,0,0,1,85,150a4.29,4.29,0,1,1-8.58,0Zm8.28,38H76.75V157.84h7.92Z"/><path class="cls-1" d="M98,157.84l.22,3a8.38,8.38,0,0,1,7-3.54q7.77,0,8,10.9V188h-7.92V168.77a6.94,6.94,0,0,0-.76-3.72,3,3,0,0,0-2.7-1.16,3.67,3.67,0,0,0-3.34,2.2V188H90.57V157.84Z"/><path class="cls-1" d="M127.59,181.45h11.93V188h-21.3v-4.93l11.66-18.65H118.5v-6.58h20.85v4.77Z"/></svg>