<svg xmlns="http://www.w3.org/2000/svg" viewBox="0 0 639.44 150"><defs><style>.cls-1{isolation:isolate;}.cls-2{fill:#eb743b;}.cls-3{fill:#ba478f;}.cls-4{mix-blend-mode:multiply;opacity:0.07;}.cls-5{fill:#9d356d;}.cls-6{fill:#fffedb;}.cls-7{fill:#d3562c;}</style></defs><g class="cls-1"><g id="Layer_1" data-name="Layer 1"><polygon class="cls-2" points="70.35 2.82 70.35 146.82 131.35 111.82 131.35 37.82 70.35 2.82"/><polygon class="cls-3" points="65.35 2.82 4.35 37.82 4.35 111.82 65.35 146.82 65.35 62.82 64.35 61.82 64.35 56.82 65.35 55.82 65.35 43.82 64.35 43.82 64.35 22.82 65.35 21.82 65.35 2.82"/><g class="cls-4"><path d="M65.33,55.86l-27,16V60.21L65.33,44V21.41L32.81,40.68l-.06,0a1.65,1.65,0,0,0-.27.19l-.2.17-.2.22-.18.22a2.07,2.07,0,0,0-.15.25l-.13.24c0,.1-.07.19-.1.28a2.76,2.76,0,0,0-.08.27,2.56,2.56,0,0,0-.05.27l0,.32s0,.05,0,.08V93.82a11.08,11.08,0,0,0-8,2c-4.84,3.22-6.47,9.28-4,13s8.2,3.9,13,.68c2.77-1.83,5.38-4.07,6-6.68a10.13,10.13,0,0,0,0-2,2.94,2.94,0,0,0,0-.42V78.82l27-16.15Z"/></g><path class="cls-5" d="M65.35,58.82l-27,16v-12l27-16v-23L32.84,43.51l-.06,0a2.69,2.69,0,0,0-.27.2l-.2.17c-.07.06-.13.14-.2.21l-.18.23a1.94,1.94,0,0,0-.15.24c0,.09-.09.17-.13.25a2.31,2.31,0,0,0-.1.28l-.09.27a2.51,2.51,0,0,0,0,.27c0,.11,0,.21,0,.32s0,0,0,.08V96.65a11,11,0,0,0-8,2c-4.84,3.22-6.47,9.28-4,13s8.2,3.9,13,.68c2.76-1.84,5.38-4.08,6-6.68a10.12,10.12,0,0,0,0-2,2.94,2.94,0,0,0,0-.42l0-21.41,27-16Z"/><path class="cls-6" d="M65.35,55.82l-27,16v-12l27-16v-23L32.81,40.68l-.06,0a1.65,1.65,0,0,0-.27.19l-.2.17-.2.22-.18.22a2.07,2.07,0,0,0-.15.25l-.13.24c0,.1-.07.19-.1.28a2.76,2.76,0,0,0-.08.27,2.56,2.56,0,0,0-.05.27l0,.32s0,.05,0,.08V93.82a11.08,11.08,0,0,0-8,2c-4.84,3.22-6.47,9.28-4,13s8.2,3.9,13,.68c2.77-1.83,5.38-4.07,6-6.68a10.13,10.13,0,0,0,0-2,2.94,2.94,0,0,0,0-.42V78.82l27-16Z"/><g class="cls-4"><path d="M87.66,94.56a2.08,2.08,0,0,1,1.82-1,2.11,2.11,0,1,1,0,4.22,2.13,2.13,0,0,1-2-1.59A2.13,2.13,0,0,1,87.66,94.56Zm12.6,22.36a2.11,2.11,0,1,1-1.38-3.72,2.11,2.11,0,0,1,2.11,2.28A2.08,2.08,0,0,1,100.26,116.92Z"/><path d="M79.36,48.43l.21,0Z"/><path d="M90.73,58.08a2,2,0,0,1,.68-.66,2.12,2.12,0,0,1,2.24,0,2.12,2.12,0,0,1-1.13,3.91A2.07,2.07,0,0,1,91.39,61,2.13,2.13,0,0,1,90.73,58.08Zm6.38-20.19a2.15,2.15,0,0,1-2.91.66l-.09-.07a2.11,2.11,0,0,1,1.22-3.83,2.16,2.16,0,0,1,1.13.33,2.11,2.11,0,0,1,.65,2.91Z"/><path d="M113.88,49.49a2.1,2.1,0,0,1,1.78-1,2.12,2.12,0,0,1,1.79,3.24,2.15,2.15,0,0,1-2.92.65l-.09-.06A2.11,2.11,0,0,1,113.88,49.49Zm0,23.46a2.1,2.1,0,0,1,1.78-1,2.16,2.16,0,0,1,1.13.33,2.12,2.12,0,0,1,.66,2.91,2.15,2.15,0,0,1-2.92.66l-.09-.07A2.1,2.1,0,0,1,113.88,73Zm0,26.31a2.08,2.08,0,0,1,1.78-1,2.15,2.15,0,0,1,1.13.32,2.11,2.11,0,0,1,.93,1.33,2.07,2.07,0,0,1-.27,1.59,2.15,2.15,0,0,1-2.92.65l-.09-.06A2.11,2.11,0,0,1,113.88,99.26Z"/><path d="M103.53,108.93a6.12,6.12,0,0,0-10.72,4.73A19.62,19.62,0,0,1,87.48,115a4,4,0,0,1-2.22-1,10.7,10.7,0,0,0-4.15-1.84A37.62,37.62,0,0,0,89.7,99.34a6.09,6.09,0,1,0-3.86-1.18c-4,9.22-9.22,13.08-12.57,14.69a2,2,0,0,0-.36.17,10.91,10.91,0,0,1-2.56.8v4a12.63,12.63,0,0,0,4.25-1.19c5.35-1.36,6.84-.35,8.41.71A7.94,7.94,0,0,0,87.27,119h.31a23.61,23.61,0,0,0,7-1.72A6.12,6.12,0,0,0,98.89,119h0a6.11,6.11,0,0,0,4.64-10.1ZM87.66,92.15a2.1,2.1,0,0,1,1.82-1,2,2,0,0,1,1.07.3,2.11,2.11,0,0,1-1.08,3.93,2.17,2.17,0,0,1-1.08-.3,2.09,2.09,0,0,1-1-1.3A2.14,2.14,0,0,1,87.66,92.15Zm12.6,22.36a2.09,2.09,0,0,1-1.37.51,2.11,2.11,0,0,1-1.38-3.71,2.06,2.06,0,0,1,1.37-.52,2.11,2.11,0,0,1,1.61.75,2.07,2.07,0,0,1,.5,1.53A2,2,0,0,1,100.26,114.51Z"/><path d="M79.36,46l.21,0Z"/><path d="M101.3,33a6.06,6.06,0,0,0-2.7-3.85,6.19,6.19,0,0,0-3.27-.94,6.12,6.12,0,0,0-5,9.61,13.35,13.35,0,0,1-9.94,4.29,29.44,29.44,0,0,0-10-2.32v4A24.65,24.65,0,0,1,79.1,46h0a21.58,21.58,0,0,1,8.6,7c-.13.17-.26.35-.38.54A6.14,6.14,0,0,0,89.25,62a6,6,0,0,0,3.27,1,6.12,6.12,0,0,0,3.27-11.3,6.22,6.22,0,0,0-4.67-.75,26,26,0,0,0-5.34-5.57,16.38,16.38,0,0,0,7.78-5.1,6.17,6.17,0,0,0,1.77.27,6.09,6.09,0,0,0,5.17-2.85A6,6,0,0,0,101.3,33ZM90.73,55.67a2.15,2.15,0,0,1,.68-.66,2.17,2.17,0,0,1,1.12-.31,2.09,2.09,0,0,1,1.12.32,2.12,2.12,0,0,1-1.13,3.91,2.13,2.13,0,0,1-1.79-3.26Zm6.38-20.18a2.14,2.14,0,0,1-2.91.65l-.09-.06a2.1,2.1,0,0,1-.56-2.85,2.07,2.07,0,0,1,1.78-1,2.15,2.15,0,0,1,1.13.32,2.11,2.11,0,0,1,.93,1.33A2.08,2.08,0,0,1,97.11,35.49Z"/><path d="M110,74a6,6,0,0,0,2.11,2.65l.28.19a6.12,6.12,0,1,0,6.54-10.35,6.19,6.19,0,0,0-3.27-.94l-.37,0a25.82,25.82,0,0,1,0-11.27l.34,0a6.12,6.12,0,1,0-4.15-1.63l.08.06a28.64,28.64,0,0,0,0,14.42c-.14.13-.29.25-.43.4a6.58,6.58,0,0,0-.63.82,6,6,0,0,0-.71,1.58A15.16,15.16,0,0,0,103,72.72c-2,1.32-4,2.57-9.64,2.66A32.72,32.72,0,0,0,88,75.27c-1.43,0-2.91.1-4.85,0-1.33-.07-2.1-.88-3.46-2.42-1.8-2.06-4.22-4.65-9.37-5v4c3.3.3,4.8,1.89,6.36,3.67s3.18,3.62,6.26,3.78c2.11.12,3.76,0,5.2,0A24.15,24.15,0,0,1,96,80c2.61.64,12.1,9.67,14.77,14.32-.1.14-.22.28-.31.43a6.1,6.1,0,0,0,1.62,8.25l.28.2a6.13,6.13,0,1,0,1.73-11.1c-2.56-4.19-8.65-10.46-13.19-13.79a18.42,18.42,0,0,0,4.21-2.19A11.39,11.39,0,0,1,110,74Zm3.88-26.92a2.08,2.08,0,0,1,1.78-1,2.15,2.15,0,0,1,1.13.32,2.09,2.09,0,0,1,.93,1.33,2,2,0,0,1-.27,1.58,2.14,2.14,0,0,1-2.92.66l-.09-.06A2.11,2.11,0,0,1,113.88,47.09Zm0,23.46a2.08,2.08,0,0,1,1.78-1,2.15,2.15,0,0,1,1.13.32,2.11,2.11,0,0,1,.93,1.33,2.07,2.07,0,0,1-.27,1.59,2.15,2.15,0,0,1-2.92.65l-.09-.06A2.11,2.11,0,0,1,113.88,70.55Zm0,26.3a2.1,2.1,0,0,1,1.78-1,2.12,2.12,0,0,1,1.79,3.24,2.15,2.15,0,0,1-2.92.65l-.09-.06A2.1,2.1,0,0,1,113.88,96.85Z"/></g><path class="cls-7" d="M103.53,111.93a6.12,6.12,0,0,0-10.72,4.73A19.62,19.62,0,0,1,87.48,118a4,4,0,0,1-2.22-1,10.7,10.7,0,0,0-4.15-1.84,37.62,37.62,0,0,0,8.59-12.84,6.09,6.09,0,1,0-3.86-1.18c-4,9.22-9.22,13.08-12.57,14.69a2,2,0,0,0-.36.17,10.91,10.91,0,0,1-2.56.8v4a12.63,12.63,0,0,0,4.25-1.19c5.35-1.36,6.84-.35,8.41.71A7.94,7.94,0,0,0,87.27,122h.31a23.61,23.61,0,0,0,7-1.72A6.12,6.12,0,0,0,98.89,122h0a6.11,6.11,0,0,0,4.64-10.1ZM87.66,95.15a2.1,2.1,0,0,1,1.82-1,2,2,0,0,1,1.07.3,2.11,2.11,0,0,1-1.08,3.93,2.17,2.17,0,0,1-1.08-.3,2.09,2.09,0,0,1-1-1.3A2.14,2.14,0,0,1,87.66,95.15Zm12.6,22.36a2.09,2.09,0,0,1-1.37.51,2.11,2.11,0,0,1-1.38-3.71,2.06,2.06,0,0,1,1.37-.52,2.11,2.11,0,0,1,1.61.75,2.07,2.07,0,0,1,.5,1.53A2,2,0,0,1,100.26,117.51Z"/><path d="M79.36,48.43l.21,0Z"/><path class="cls-7" d="M101.3,36a6,6,0,0,0-2.7-3.84,6.12,6.12,0,0,0-8.3,8.66,13.27,13.27,0,0,1-9.94,4.29,29.17,29.17,0,0,0-10-2.31v4A24.91,24.91,0,0,1,79.1,49h0a21.67,21.67,0,0,1,8.6,7l-.38.54a6.13,6.13,0,1,0,8.45-1.91,6.22,6.22,0,0,0-4.67-.75,26,26,0,0,0-5.34-5.57,16.43,16.43,0,0,0,7.78-5.09,6.16,6.16,0,0,0,1.77.26,6.06,6.06,0,0,0,5.17-2.85A6,6,0,0,0,101.3,36ZM90.73,58.68a2,2,0,0,1,.68-.66,2.12,2.12,0,0,1,2.24,0,2.12,2.12,0,0,1-1.13,3.91,2.07,2.07,0,0,1-1.13-.33A2.13,2.13,0,0,1,90.73,58.68Zm6.38-20.19a2.14,2.14,0,0,1-2.91.65l-.09-.06a2.11,2.11,0,0,1,1.22-3.83,2.11,2.11,0,0,1,1.78,3.24Z"/><path class="cls-7" d="M110,77a6,6,0,0,0,2.11,2.65l.28.19a6.12,6.12,0,1,0,6.54-10.35,6.19,6.19,0,0,0-3.27-.94l-.37,0a25.82,25.82,0,0,1,0-11.27l.34,0a6.12,6.12,0,1,0-4.15-1.63l.08.06a28.64,28.64,0,0,0,0,14.42c-.14.13-.29.25-.43.4a6.58,6.58,0,0,0-.63.82,6,6,0,0,0-.71,1.58A15.16,15.16,0,0,0,103,75.72c-2,1.32-4,2.57-9.64,2.66A32.72,32.72,0,0,0,88,78.27c-1.43,0-2.91.1-4.85,0-1.33-.07-2.1-.88-3.46-2.42-1.8-2.06-4.22-4.65-9.37-5v4c3.3.3,4.8,1.89,6.36,3.67s3.18,3.62,6.26,3.78c2.11.12,3.76,0,5.2,0A24.15,24.15,0,0,1,96,83c2.61.64,12.1,9.67,14.77,14.32-.1.14-.22.28-.31.43a6.1,6.1,0,0,0,1.62,8.25l.28.2a6.13,6.13,0,1,0,1.73-11.1c-2.56-4.19-8.65-10.46-13.19-13.79a18.42,18.42,0,0,0,4.21-2.19A11.39,11.39,0,0,1,110,77Zm3.88-26.92a2.08,2.08,0,0,1,1.78-1,2.15,2.15,0,0,1,1.13.32,2.09,2.09,0,0,1,.93,1.33,2,2,0,0,1-.27,1.58,2.14,2.14,0,0,1-2.92.66l-.09-.06A2.11,2.11,0,0,1,113.88,50.09Zm0,23.46a2.08,2.08,0,0,1,1.78-1,2.15,2.15,0,0,1,1.13.32,2.11,2.11,0,0,1,.93,1.33,2.07,2.07,0,0,1-.27,1.59,2.15,2.15,0,0,1-2.92.65l-.09-.06A2.11,2.11,0,0,1,113.88,73.55Zm0,26.3a2.1,2.1,0,0,1,1.78-1,2.12,2.12,0,0,1,1.79,3.24,2.15,2.15,0,0,1-2.92.65l-.09-.06A2.1,2.1,0,0,1,113.88,99.85Z"/><path class="cls-6" d="M103.53,108.93a6.12,6.12,0,0,0-10.72,4.73A19.62,19.62,0,0,1,87.48,115a4,4,0,0,1-2.22-1,10.7,10.7,0,0,0-4.15-1.84A37.62,37.62,0,0,0,89.7,99.34a6.09,6.09,0,1,0-3.86-1.18c-4,9.22-9.22,13.08-12.57,14.69a2,2,0,0,0-.36.17,10.91,10.91,0,0,1-2.56.8v4a12.63,12.63,0,0,0,4.25-1.19c5.35-1.36,6.84-.35,8.41.71A7.94,7.94,0,0,0,87.27,119h.31a23.61,23.61,0,0,0,7-1.72A6.12,6.12,0,0,0,98.89,119h0a6.11,6.11,0,0,0,4.64-10.1ZM87.66,92.15a2.1,2.1,0,0,1,1.82-1,2,2,0,0,1,1.07.3,2.11,2.11,0,0,1-1.08,3.93,2.17,2.17,0,0,1-1.08-.3,2.09,2.09,0,0,1-1-1.3A2.14,2.14,0,0,1,87.66,92.15Zm12.6,22.36a2.09,2.09,0,0,1-1.37.51,2.11,2.11,0,0,1-1.38-3.71,2.06,2.06,0,0,1,1.37-.52,2.11,2.11,0,0,1,1.61.75,2.07,2.07,0,0,1,.5,1.53A2,2,0,0,1,100.26,114.51Z"/><path class="cls-6" d="M79.36,46l.21,0Z"/><path class="cls-6" d="M101.3,33a6.06,6.06,0,0,0-2.7-3.85,6.19,6.19,0,0,0-3.27-.94,6.12,6.12,0,0,0-5,9.61,13.35,13.35,0,0,1-9.94,4.29,29.44,29.44,0,0,0-10-2.32v4A24.65,24.65,0,0,1,79.1,46h0a21.58,21.58,0,0,1,8.6,7c-.13.17-.26.35-.38.54A6.14,6.14,0,0,0,89.25,62a6,6,0,0,0,3.27,1,6.12,6.12,0,0,0,3.27-11.3,6.22,6.22,0,0,0-4.67-.75,26,26,0,0,0-5.34-5.57,16.38,16.38,0,0,0,7.78-5.1,6.17,6.17,0,0,0,1.77.27,6.09,6.09,0,0,0,5.17-2.85A6,6,0,0,0,101.3,33ZM90.73,55.67a2.15,2.15,0,0,1,.68-.66,2.17,2.17,0,0,1,1.12-.31,2.09,2.09,0,0,1,1.12.32,2.12,2.12,0,0,1-1.13,3.91,2.13,2.13,0,0,1-1.79-3.26Zm6.38-20.18a2.14,2.14,0,0,1-2.91.65l-.09-.06a2.1,2.1,0,0,1-.56-2.85,2.07,2.07,0,0,1,1.78-1,2.15,2.15,0,0,1,1.13.32,2.11,2.11,0,0,1,.93,1.33A2.08,2.08,0,0,1,97.11,35.49Z"/><path class="cls-6" d="M110,74a6,6,0,0,0,2.11,2.65l.28.19a6.12,6.12,0,1,0,6.54-10.35,6.19,6.19,0,0,0-3.27-.94l-.37,0a25.82,25.82,0,0,1,0-11.27l.34,0a6.12,6.12,0,1,0-4.15-1.63l.08.06a28.64,28.64,0,0,0,0,14.42c-.14.13-.29.25-.43.4a6.58,6.58,0,0,0-.63.82,6,6,0,0,0-.71,1.58A15.16,15.16,0,0,0,103,72.72c-2,1.32-4,2.57-9.64,2.66A32.72,32.72,0,0,0,88,75.27c-1.43,0-2.91.1-4.85,0-1.33-.07-2.1-.88-3.46-2.42-1.8-2.06-4.22-4.65-9.37-5v4c3.3.3,4.8,1.89,6.36,3.67s3.18,3.62,6.26,3.78c2.11.12,3.76,0,5.2,0A24.15,24.15,0,0,1,96,80c2.61.64,12.1,9.67,14.77,14.32-.1.14-.22.28-.31.43a6.1,6.1,0,0,0,1.62,8.25l.28.2a6.13,6.13,0,1,0,1.73-11.1c-2.56-4.19-8.65-10.46-13.19-13.79a18.42,18.42,0,0,0,4.21-2.19A11.39,11.39,0,0,1,110,74Zm3.88-26.92a2.08,2.08,0,0,1,1.78-1,2.15,2.15,0,0,1,1.13.32,2.09,2.09,0,0,1,.93,1.33,2,2,0,0,1-.27,1.58,2.14,2.14,0,0,1-2.92.66l-.09-.06A2.11,2.11,0,0,1,113.88,47.09Zm0,23.46a2.08,2.08,0,0,1,1.78-1,2.15,2.15,0,0,1,1.13.32,2.11,2.11,0,0,1,.93,1.33,2.07,2.07,0,0,1-.27,1.59,2.15,2.15,0,0,1-2.92.65l-.09-.06A2.11,2.11,0,0,1,113.88,70.55Zm0,26.3a2.1,2.1,0,0,1,1.78-1,2.12,2.12,0,0,1,1.79,3.24,2.15,2.15,0,0,1-2.92.65l-.09-.06A2.1,2.1,0,0,1,113.88,96.85Z"/><path class="cls-3" d="M173.83,48.22,187.47,85,201,48.22H219v54.6H205.33V91.76l1.41-28.69L192,102.82h-9L168.21,63.21l1.4,28.55v11.06H156V48.22Z"/><path class="cls-3" d="M256.39,98.08q-4.62,5.61-12.77,5.61-7.5,0-11.45-4.32t-4-12.63V56.16h12.47V86.34q0,7.3,6.64,7.3,6.33,0,8.71-4.41V56.16h12.5v46.66H256.73Z"/><path class="cls-3" d="M303.13,89.93a4,4,0,0,0-2.26-3.6A25.6,25.6,0,0,0,293.6,84Q277,80.49,277,69.83a12.84,12.84,0,0,1,5.15-10.37q5.16-4.16,13.48-4.16,8.88,0,14.21,4.18a13.19,13.19,0,0,1,5.32,10.87H302.66a6.08,6.08,0,0,0-1.72-4.42c-1.15-1.16-2.95-1.75-5.39-1.75a7.47,7.47,0,0,0-4.88,1.43A4.48,4.48,0,0,0,289,69.23a3.83,3.83,0,0,0,2,3.34,20.16,20.16,0,0,0,6.62,2.2,55.45,55.45,0,0,1,7.85,2.09q9.87,3.63,9.87,12.55a12.16,12.16,0,0,1-5.47,10.33q-5.47,3.95-14.15,4a24.56,24.56,0,0,1-10.41-2.1,17.42,17.42,0,0,1-7.14-5.73A13.36,13.36,0,0,1,275.49,88h11.82a6.48,6.48,0,0,0,2.46,5.09,9.72,9.72,0,0,0,6.12,1.77,9,9,0,0,0,5.41-1.36A4.23,4.23,0,0,0,303.13,89.93Z"/><path class="cls-3" d="M323.19,44.09a6.15,6.15,0,0,1,1.87-4.62,8.09,8.09,0,0,1,10.2,0,6.59,6.59,0,0,1,0,9.28,8,8,0,0,1-10.13,0A6.12,6.12,0,0,1,323.19,44.09Zm13.24,58.73H323.92V56.16h12.51Z"/><path class="cls-3" d="M366.1,93.64a8.14,8.14,0,0,0,5.6-1.9,6.61,6.61,0,0,0,2.24-5h11.69A15.94,15.94,0,0,1,383,95.38a17,17,0,0,1-7,6.13,21.83,21.83,0,0,1-9.77,2.18q-10,0-15.78-6.36t-5.78-17.58v-.82q0-10.77,5.74-17.2t15.73-6.43q8.76,0,14,5t5.37,13.26H373.94a8.54,8.54,0,0,0-2.24-5.92,8.35,8.35,0,0,0-12.27.9q-2.22,3.18-2.22,10.3v1.3q0,7.22,2.2,10.37A7.62,7.62,0,0,0,366.1,93.64Z"/><path class="cls-2" d="M392.6,102.82V48.22h21.09q10.92,0,16.78,3.87a12.64,12.64,0,0,1,5.86,11.24,12.59,12.59,0,0,1-2.13,7.26,12.21,12.21,0,0,1-6.12,4.57,12.16,12.16,0,0,1,7,4.45,12.32,12.32,0,0,1,2.44,7.58q0,8.1-5.58,11.87t-16.22,3.76ZM406.19,71h8.35q8.19,0,8.2-5.74,0-3.3-2-4.68t-6.07-1.39h-8.49Zm0,9.23V91.9h9.56a10.36,10.36,0,0,0,6.1-1.55,4.8,4.8,0,0,0,2.15-4.1q0-5.88-7.17-6.07Z"/><path class="cls-2" d="M472.07,67.85a33.84,33.84,0,0,0-4.48-.35q-7.08,0-9.27,4.79v30.53H445.85V56.16h11.78l.34,5.57q3.75-6.43,10.39-6.43a13.25,13.25,0,0,1,3.89.56Z"/><path class="cls-2" d="M503.81,102.82a14,14,0,0,1-1.25-4.18,15.09,15.09,0,0,1-11.77,5,16.62,16.62,0,0,1-11.37-4,12.78,12.78,0,0,1-4.5-10q0-7.41,5.5-11.38t15.89-4H502V71.64a7.66,7.66,0,0,0-1.66-5.17q-1.65-1.93-5.24-1.94A7.38,7.38,0,0,0,490.21,66a5.12,5.12,0,0,0-1.79,4.14H476a12.56,12.56,0,0,1,2.51-7.51,16.55,16.55,0,0,1,7.07-5.41,25.89,25.89,0,0,1,10.26-2q8.63,0,13.69,4.33t5.07,12.19V92q0,6.64,1.85,10v.73ZM493.5,94.16a10.73,10.73,0,0,0,5.09-1.23,8,8,0,0,0,3.45-3.3v-8h-4.65q-9.36,0-10,6.47l0,.73A5,5,0,0,0,489,92.65,6.39,6.39,0,0,0,493.5,94.16Z"/><path class="cls-2" d="M524,44.09a6.15,6.15,0,0,1,1.87-4.62,8.09,8.09,0,0,1,10.2,0,6.59,6.59,0,0,1,0,9.28,8,8,0,0,1-10.13,0A6.12,6.12,0,0,1,524,44.09Zm13.24,58.73H524.77V56.16h12.51Z"/><path class="cls-2" d="M559,56.16l.39,5.39a16.3,16.3,0,0,1,13.41-6.25q7.41,0,11,4.36t3.71,13v30.14H575.09V72.91q0-4-1.72-5.77t-5.74-1.79a8.59,8.59,0,0,0-7.89,4.49v33H547.28V56.16Z"/><path class="cls-2" d="M611.32,92.78h22.81v10H595.41V95.23l21.94-29h-21.3v-10h37.39v7.35Z"/></g></g></svg>