<svg id="Layer_1" data-name="Layer 1" xmlns="http://www.w3.org/2000/svg" viewBox="0 0 489 100"><defs><style>.cls-1{fill:#eb743b;}.cls-2{fill:#ba478f;}.cls-3{fill:#fffedb;}</style></defs><polygon class="cls-1" points="47 2 47 98 88 74 88 26 47 2"/><polygon class="cls-2" points="44 2 3 26 3 74 44 98 44 2"/><path class="cls-3" d="M44,37,25,48V40L44,29V14L22,27.29l0,0-.18.13-.13.12a.86.86,0,0,0-.13.14l-.13.15-.09.16a1.4,1.4,0,0,0-.09.17,1.34,1.34,0,0,0-.07.18,1.21,1.21,0,0,0-.05.18,1.13,1.13,0,0,0,0,.18A1.64,1.64,0,0,0,21,29s0,0,0,.05V63c-2,0-4,0-5.36,1-3.12,2.3-4.51,5.89-2.86,8.38s5.61,2.76,8.84.61A8.4,8.4,0,0,0,25,68c.08-.22,0-15,0-15L44,42Z"/><path class="cls-3" d="M79.28,58.09a6.75,6.75,0,0,0-7.67-2.86A18.09,18.09,0,0,0,63,49.6a28.62,28.62,0,0,0,5.91-6.16,6.91,6.91,0,0,0,5.17-.83,6.77,6.77,0,1,0-9.34-2.11,6.27,6.27,0,0,0,.42.59,23.88,23.88,0,0,1-9.52,7.79h0A18.45,18.45,0,0,1,47,51v5c4,0,5.93-1.12,10-2.9a14.78,14.78,0,0,1,11,4.75,6.76,6.76,0,1,0,12.16,5.32A6.64,6.64,0,0,0,79.28,58.09ZM69.06,34.67a2.57,2.57,0,0,1,1.4-.41,2.62,2.62,0,1,1,0,5.24,2.61,2.61,0,0,1-2.22-1.21A2.63,2.63,0,0,1,69.06,34.67Zm7.06,27.6A2.61,2.61,0,0,1,75,63.91a2.56,2.56,0,0,1-1.39.41,2.62,2.62,0,0,1-1.52-4.75l.12-.07a2.65,2.65,0,0,1,3.6.8A2.59,2.59,0,0,1,76.12,62.27Z"/><path class="cls-2" d="M118.05,28,129,57.54,139.85,28h14.4v43.8H143.31V63l1.13-23L132.6,71.82h-7.26l-11.8-31.77L114.66,63v8.87H103.72V28Z"/><path class="cls-2" d="M184.27,68q-3.71,4.5-10.24,4.49-6,0-9.19-3.45t-3.23-10.14V34.4h10V58.6c0,3.9,1.77,5.86,5.32,5.86q5.08,0,7-3.54V34.4h10V71.82h-9.41Z"/><path class="cls-2" d="M221.76,61.48A3.23,3.23,0,0,0,220,58.59a20.83,20.83,0,0,0-5.83-1.88q-13.35-2.8-13.35-11.35A10.28,10.28,0,0,1,204.9,37q4.13-3.33,10.81-3.33,7.13,0,11.4,3.35a10.6,10.6,0,0,1,4.27,8.72h-10A4.86,4.86,0,0,0,220,42.23a5.9,5.9,0,0,0-4.33-1.4A6,6,0,0,0,211.76,42a3.61,3.61,0,0,0-1.38,2.91A3.08,3.08,0,0,0,212,47.56a15.93,15.93,0,0,0,5.3,1.76,44.46,44.46,0,0,1,6.3,1.68q7.92,2.91,7.92,10.07a9.75,9.75,0,0,1-4.39,8.28q-4.4,3.16-11.35,3.16a19.76,19.76,0,0,1-8.35-1.67,14,14,0,0,1-5.72-4.6,10.68,10.68,0,0,1-2.08-6.32h9.48A5.23,5.23,0,0,0,211,64,7.85,7.85,0,0,0,216,65.42a7.22,7.22,0,0,0,4.34-1.09A3.37,3.37,0,0,0,221.76,61.48Z"/><path class="cls-2" d="M237.84,24.71a4.94,4.94,0,0,1,1.51-3.7,6.49,6.49,0,0,1,8.18,0,4.91,4.91,0,0,1,1.52,3.7,4.91,4.91,0,0,1-1.54,3.74,6.42,6.42,0,0,1-8.13,0A5,5,0,0,1,237.84,24.71Zm10.62,47.11h-10V34.4h10Z"/><path class="cls-2" d="M272.26,64.46a6.55,6.55,0,0,0,4.5-1.53,5.34,5.34,0,0,0,1.8-4h9.37a12.82,12.82,0,0,1-2.08,7,13.73,13.73,0,0,1-5.58,4.91,17.58,17.58,0,0,1-7.84,1.74q-8,0-12.66-5.1t-4.63-14.09v-.66q0-8.64,4.6-13.8c3.07-3.44,7.27-5.15,12.63-5.15q7,0,11.25,4a14.14,14.14,0,0,1,4.31,10.64h-9.37a6.91,6.91,0,0,0-1.8-4.75,6.68,6.68,0,0,0-9.84.72q-1.79,2.55-1.78,8.26v1c0,3.86.58,6.63,1.76,8.32A6.11,6.11,0,0,0,272.26,64.46Z"/><path class="cls-1" d="M293.52,71.82V28h16.92q8.76,0,13.46,3.11a10.15,10.15,0,0,1,4.7,9A10.07,10.07,0,0,1,326.89,46,9.83,9.83,0,0,1,322,49.64a9.7,9.7,0,0,1,5.64,3.56,10,10,0,0,1,2,6.09c0,4.32-1.5,7.5-4.48,9.51s-7.32,3-13,3Zm10.9-25.56h6.7c4.38,0,6.58-1.54,6.58-4.61a4.25,4.25,0,0,0-1.6-3.75,8.53,8.53,0,0,0-4.87-1.12h-6.81Zm0,7.4v9.4h7.67A8.26,8.26,0,0,0,317,61.82a3.88,3.88,0,0,0,1.73-3.29c0-3.14-1.92-4.77-5.75-4.87Z"/><path class="cls-1" d="M357.27,43.77a28.13,28.13,0,0,0-3.6-.28q-5.67,0-7.44,3.84V71.82h-10V34.4h9.44l.27,4.46q3-5.16,8.34-5.15a10.39,10.39,0,0,1,3.11.45Z"/><path class="cls-1" d="M382.72,71.82a11.16,11.16,0,0,1-1-3.35,12.08,12.08,0,0,1-9.44,4,13.25,13.25,0,0,1-9.12-3.18,10.22,10.22,0,0,1-3.61-8A10.57,10.57,0,0,1,364,52.18Q368.37,49,376.71,49h4.59V46.82A6.18,6.18,0,0,0,380,42.66a5.25,5.25,0,0,0-4.2-1.55,6,6,0,0,0-4,1.21,4.1,4.1,0,0,0-1.43,3.32h-10a10.09,10.09,0,0,1,2-6,13.31,13.31,0,0,1,5.68-4.34,20.65,20.65,0,0,1,8.23-1.57q6.91,0,11,3.47T391.34,47V63.18c0,3.55.51,6.23,1.48,8.06v.58Zm-8.26-6.95a8.6,8.6,0,0,0,4.08-1,6.36,6.36,0,0,0,2.76-2.64V54.81h-3.73q-7.5,0-8,5.18l0,.59a4,4,0,0,0,1.32,3.08A5.09,5.09,0,0,0,374.46,64.87Z"/><path class="cls-1" d="M399,24.71a4.93,4.93,0,0,1,1.5-3.7,6.49,6.49,0,0,1,8.18,0,4.87,4.87,0,0,1,1.52,3.7,4.91,4.91,0,0,1-1.54,3.74,6.41,6.41,0,0,1-8.12,0A4.91,4.91,0,0,1,399,24.71Zm10.62,47.11h-10V34.4h10Z"/><path class="cls-1" d="M427,34.4l.31,4.32a13.07,13.07,0,0,1,10.76-5q5.94,0,8.85,3.49t3,10.45V71.82h-10v-24c0-2.12-.46-3.67-1.38-4.63s-2.46-1.44-4.6-1.44a6.87,6.87,0,0,0-6.33,3.61V71.82h-10V34.4Z"/><path class="cls-1" d="M469,63.76h18.29v8.06H456.19V65.74L473.8,42.46H456.71V34.4h30v5.89Z"/></svg>