<svg xmlns="http://www.w3.org/2000/svg" viewBox="0 0 150 150"><defs><style>.cls-1{isolation:isolate;}.cls-2{fill:#eb743b;}.cls-3{fill:#ba478f;}.cls-4{mix-blend-mode:multiply;opacity:0.07;}.cls-5{fill:#9d356d;}.cls-6{fill:#fffedb;}.cls-7{fill:#d3562c;}</style></defs><g class="cls-1"><g id="Layer_1" data-name="Layer 1"><polygon class="cls-2" points="77 3.5 77 147.5 138 112.5 138 38.5 77 3.5"/><polygon class="cls-3" points="72 3.5 11 38.5 11 112.5 72 147.5 72 63.5 71 62.5 71 57.5 72 56.5 72 44.5 71 44.5 71 23.5 72 22.5 72 3.5"/><g class="cls-4"><path d="M72,56.54l-27,16V60.88L72,44.67V22.09L39.45,41.36l-.06,0-.26.2-.21.17a1.9,1.9,0,0,0-.19.21l-.19.23c0,.07-.09.16-.14.24l-.14.25a2.29,2.29,0,0,0-.09.28c0,.09-.07.18-.09.27a2.51,2.51,0,0,0,0,.27,1.73,1.73,0,0,0,0,.32s0,0,0,.08V94.5a11,11,0,0,0-8,2c-4.84,3.22-6.48,9.28-4,13s8.19,3.9,13,.68c2.76-1.84,5.37-4.07,6-6.68a11,11,0,0,0,0-2c0-.14,0-.28,0-.42V79.5L72,63.35Z"/></g><path class="cls-5" d="M72,59.5l-27,16v-12l27-16v-23L39.48,44.18l-.06,0-.26.19-.21.17c-.07.07-.13.15-.19.22s-.13.14-.19.22l-.14.25a2,2,0,0,0-.14.25c0,.09-.06.18-.09.27a2.29,2.29,0,0,0-.09.28,2,2,0,0,0,0,.26,1.84,1.84,0,0,0,0,.33s0,0,0,.08V97.33a11,11,0,0,0-8,2c-4.84,3.21-6.48,9.27-4,13s8.19,3.89,13,.68c2.76-1.84,5.37-4.08,6-6.68a11,11,0,0,0,0-2c0-.15,0-.29,0-.43l0-21.4,27-16Z"/><path class="cls-6" d="M72,56.5l-27,16v-12l27-16v-23L39.45,41.36l-.06,0-.26.2-.21.17a1.9,1.9,0,0,0-.19.21l-.19.23c0,.07-.09.16-.14.24l-.14.25a2.29,2.29,0,0,0-.09.28c0,.09-.07.18-.09.27a2.51,2.51,0,0,0,0,.27,1.73,1.73,0,0,0,0,.32s0,0,0,.08V94.5a11,11,0,0,0-8,2c-4.84,3.22-6.48,9.28-4,13s8.19,3.9,13,.68c2.76-1.84,5.37-4.07,6-6.68a11,11,0,0,0,0-2c0-.14,0-.28,0-.42V79.5l27-16Z"/><g class="cls-4"><path d="M94.3,95.23a2.12,2.12,0,0,1,1.82-1,2.17,2.17,0,0,1,1.08.3,2.12,2.12,0,0,1,.73,2.9,2.11,2.11,0,0,1-2.9.73,2.12,2.12,0,0,1-.73-2.9Zm12.6,22.37a2.06,2.06,0,0,1-1.37.5,2.1,2.1,0,0,1-1.61-.73,2.11,2.11,0,1,1,3.21-2.75,2.09,2.09,0,0,1-.23,3Z"/><path d="M86,49.11l.21,0Z"/><path d="M97.38,58.76a2,2,0,0,1,.67-.66,2.11,2.11,0,0,1,1.12-.32,2.12,2.12,0,1,1,0,4.23,2.12,2.12,0,0,1-1.78-3.25Zm6.38-20.19a2.14,2.14,0,0,1-2.91.65l-.1-.06A2.11,2.11,0,0,1,102,35.33a2,2,0,0,1,1.12.33,2.1,2.1,0,0,1,.66,2.91Z"/><path d="M120.53,50.17a2.11,2.11,0,0,1,2.9-.66,2.11,2.11,0,1,1-2.25,3.57l-.09-.06A2.1,2.1,0,0,1,120.53,50.17Zm0,23.46a2.09,2.09,0,0,1,1.78-1,2,2,0,0,1,1.12.33,2.07,2.07,0,0,1,.94,1.33,2.1,2.1,0,0,1-.28,1.58,2.14,2.14,0,0,1-2.91.65l-.09-.06A2.1,2.1,0,0,1,120.53,73.63Zm0,26.3a2.11,2.11,0,1,1,3.56,2.26,2.15,2.15,0,0,1-2.91.66l-.09-.07A2.09,2.09,0,0,1,120.53,99.93Z"/><path d="M110.18,109.6a6.12,6.12,0,0,0-10.72,4.74,20,20,0,0,1-5.33,1.33,4,4,0,0,1-2.22-1,10.78,10.78,0,0,0-4.15-1.85A37.66,37.66,0,0,0,96.34,100a6.12,6.12,0,1,0-5.48-9.24,6.12,6.12,0,0,0,1.62,8.06c-4,9.22-9.21,13.08-12.56,14.68a2,2,0,0,0-.36.17,11.22,11.22,0,0,1-2.56.81v4a12.69,12.69,0,0,0,4.25-1.19c5.34-1.36,6.84-.36,8.4.71a7.93,7.93,0,0,0,4.27,1.65h.31a23.61,23.61,0,0,0,7-1.72,6.14,6.14,0,0,0,4.28,1.75h0a6.11,6.11,0,0,0,4-1.48,6.13,6.13,0,0,0,.67-8.63ZM94.3,92.83a2.1,2.1,0,0,1,1.82-1,2.16,2.16,0,0,1,1.08.29,2.12,2.12,0,0,1,.73,2.9,2.08,2.08,0,0,1-1.81,1A2.12,2.12,0,0,1,95,95.72a2.11,2.11,0,0,1-.73-2.89Zm12.6,22.36a2.07,2.07,0,0,1-1.37.51,2.13,2.13,0,1,1,1.37-.51Z"/><path d="M86,46.71l.21,0Z"/><path d="M108,33.7a6.12,6.12,0,1,0-11,4.82,13.36,13.36,0,0,1-10,4.3A28.93,28.93,0,0,0,77,40.5v4a24.75,24.75,0,0,1,8.75,2.13h0a21.46,21.46,0,0,1,8.61,7,5.22,5.22,0,0,0-.38.54,6.12,6.12,0,1,0,8.45-1.91,6.24,6.24,0,0,0-4.67-.76A26,26,0,0,0,92.42,46a16.29,16.29,0,0,0,7.78-5.1,6.28,6.28,0,0,0,1.77.27,6.12,6.12,0,0,0,6-7.46ZM97.38,56.35a2,2,0,0,1,.67-.66,2.11,2.11,0,0,1,1.12-.32,2.16,2.16,0,0,1,1.13.33,2.12,2.12,0,1,1-2.92.65Zm6.38-20.19a2.13,2.13,0,0,1-2.91.66l-.1-.07a2.11,2.11,0,0,1,2.35-3.5,2.14,2.14,0,0,1,.94,1.33A2.09,2.09,0,0,1,103.76,36.16Z"/><path d="M116.65,74.69a6.05,6.05,0,0,0,2.1,2.65l.29.19a6.12,6.12,0,1,0,3.27-11.29h-.38A25.63,25.63,0,0,1,122,55l.34,0a6.12,6.12,0,1,0-4.15-1.62s0,0,.07.06a28.59,28.59,0,0,0,0,14.41c-.15.14-.3.26-.43.4a5.67,5.67,0,0,0-.63.83,6,6,0,0,0-.71,1.58,15.22,15.22,0,0,0-6.83,2.72c-2,1.33-4,2.58-9.63,2.67a32.82,32.82,0,0,0-5.29-.12,48.41,48.41,0,0,1-4.85,0c-1.34-.07-2.11-.89-3.46-2.43-1.8-2-4.22-4.65-9.37-5v4c3.29.3,4.8,1.89,6.36,3.67s3.17,3.61,6.25,3.78c2.12.11,3.76,0,5.21,0a24.43,24.43,0,0,1,7.86.68c2.6.65,12.09,9.68,14.77,14.33a4.25,4.25,0,0,0-.31.43,6.1,6.1,0,0,0,1.61,8.25l.29.19a6.12,6.12,0,1,0,6.53-10.35,6.18,6.18,0,0,0-3.26-.94,6,6,0,0,0-1.54.2c-2.56-4.19-8.66-10.46-13.19-13.8a17.66,17.66,0,0,0,4.21-2.19A11.33,11.33,0,0,1,116.65,74.69Zm3.88-26.93A2.11,2.11,0,1,1,124.09,50a2.14,2.14,0,0,1-2.91.65l-.09-.06A2.09,2.09,0,0,1,120.53,47.76Zm0,23.47a2.11,2.11,0,0,1,2.9-.66,2.11,2.11,0,1,1-2.25,3.57l-.09-.06A2.1,2.1,0,0,1,120.53,71.23Zm0,26.3a2.11,2.11,0,0,1,2.9-.66,2.11,2.11,0,1,1-2.25,3.57l-.09-.06A2.1,2.1,0,0,1,120.53,97.53Z"/></g><path class="cls-7" d="M110.18,112.6a6.12,6.12,0,0,0-10.72,4.74,20,20,0,0,1-5.33,1.33,4,4,0,0,1-2.22-1,10.78,10.78,0,0,0-4.15-1.85A37.66,37.66,0,0,0,96.34,103a6.12,6.12,0,1,0-5.48-9.24,6.12,6.12,0,0,0,1.62,8.06c-4,9.22-9.21,13.08-12.56,14.68a2,2,0,0,0-.36.17,11.22,11.22,0,0,1-2.56.81v4a12.69,12.69,0,0,0,4.25-1.19c5.34-1.36,6.84-.36,8.4.71a7.93,7.93,0,0,0,4.27,1.65h.31a23.61,23.61,0,0,0,7-1.72,6.14,6.14,0,0,0,4.28,1.75h0a6.11,6.11,0,0,0,4-1.48,6.13,6.13,0,0,0,.67-8.63ZM94.3,95.83a2.1,2.1,0,0,1,1.82-1,2.16,2.16,0,0,1,1.08.29,2.12,2.12,0,0,1,.73,2.9,2.08,2.08,0,0,1-1.81,1A2.12,2.12,0,0,1,95,98.72a2.11,2.11,0,0,1-.73-2.89Zm12.6,22.36a2.07,2.07,0,0,1-1.37.51,2.13,2.13,0,1,1,1.37-.51Z"/><path d="M86,49.11l.21,0Z"/><path class="cls-7" d="M108,36.71a6.12,6.12,0,0,0-2.71-3.85,6.18,6.18,0,0,0-3.26-.94,6.12,6.12,0,0,0-5,9.61,13.38,13.38,0,0,1-10,4.29A29.39,29.39,0,0,0,77,43.5v4a24.79,24.79,0,0,1,8.75,2.14h0a21.54,21.54,0,0,1,8.61,7,5.22,5.22,0,0,0-.38.54,6.14,6.14,0,0,0,1.9,8.44,6,6,0,0,0,3.27,1,6.13,6.13,0,0,0,3.28-11.31,6.23,6.23,0,0,0-4.67-.75A25.77,25.77,0,0,0,92.42,49a16.29,16.29,0,0,0,7.78-5.1,5.94,5.94,0,0,0,1.77.27,6.12,6.12,0,0,0,6-7.45ZM97.38,59.36a2.14,2.14,0,0,1,.67-.67,2.2,2.2,0,0,1,1.12-.31,2.12,2.12,0,1,1,0,4.23,2.12,2.12,0,0,1-1.78-3.25Zm6.38-20.19a2.14,2.14,0,0,1-2.91.65l-.1-.06a2.11,2.11,0,0,1,2.35-3.51,2.16,2.16,0,0,1,.94,1.33A2.12,2.12,0,0,1,103.76,39.17Z"/><path class="cls-7" d="M116.65,77.69a6.05,6.05,0,0,0,2.1,2.65l.29.19a6.12,6.12,0,1,0,3.27-11.29h-.38A25.63,25.63,0,0,1,122,58l.34,0a6.12,6.12,0,1,0-4.15-1.62s0,0,.07.06a28.59,28.59,0,0,0,0,14.41c-.15.14-.3.26-.43.4a5.67,5.67,0,0,0-.63.83,6,6,0,0,0-.71,1.58,15.22,15.22,0,0,0-6.83,2.72c-2,1.33-4,2.58-9.63,2.67a32.82,32.82,0,0,0-5.29-.12,48.41,48.41,0,0,1-4.85,0c-1.34-.07-2.11-.89-3.46-2.43-1.8-2-4.22-4.65-9.37-5v4c3.29.3,4.8,1.89,6.36,3.67s3.17,3.61,6.25,3.78c2.12.11,3.76,0,5.21,0a24.43,24.43,0,0,1,7.86.68c2.6.65,12.09,9.68,14.77,14.33a4.25,4.25,0,0,0-.31.43,6.1,6.1,0,0,0,1.61,8.25l.29.19a6.12,6.12,0,1,0,6.53-10.35,6.18,6.18,0,0,0-3.26-.94,6,6,0,0,0-1.54.2c-2.56-4.19-8.66-10.46-13.19-13.8a17.66,17.66,0,0,0,4.21-2.19A11.33,11.33,0,0,1,116.65,77.69Zm3.88-26.93A2.11,2.11,0,1,1,124.09,53a2.14,2.14,0,0,1-2.91.65l-.09-.06A2.09,2.09,0,0,1,120.53,50.76Zm0,23.47a2.11,2.11,0,0,1,2.9-.66,2.11,2.11,0,1,1-2.25,3.57l-.09-.06A2.1,2.1,0,0,1,120.53,74.23Zm0,26.3a2.11,2.11,0,0,1,2.9-.66,2.11,2.11,0,1,1-2.25,3.57l-.09-.06A2.1,2.1,0,0,1,120.53,100.53Z"/><path class="cls-6" d="M110.18,109.6a6.12,6.12,0,0,0-10.72,4.74,20,20,0,0,1-5.33,1.33,4,4,0,0,1-2.22-1,10.78,10.78,0,0,0-4.15-1.85A37.66,37.66,0,0,0,96.34,100a6.12,6.12,0,1,0-5.48-9.24,6.12,6.12,0,0,0,1.62,8.06c-4,9.22-9.21,13.08-12.56,14.68a2,2,0,0,0-.36.17,11.22,11.22,0,0,1-2.56.81v4a12.69,12.69,0,0,0,4.25-1.19c5.34-1.36,6.84-.36,8.4.71a7.93,7.93,0,0,0,4.27,1.65h.31a23.61,23.61,0,0,0,7-1.72,6.14,6.14,0,0,0,4.28,1.75h0a6.11,6.11,0,0,0,4-1.48,6.13,6.13,0,0,0,.67-8.63ZM94.3,92.83a2.1,2.1,0,0,1,1.82-1,2.16,2.16,0,0,1,1.08.29,2.12,2.12,0,0,1,.73,2.9,2.08,2.08,0,0,1-1.81,1A2.12,2.12,0,0,1,95,95.72a2.11,2.11,0,0,1-.73-2.89Zm12.6,22.36a2.07,2.07,0,0,1-1.37.51,2.13,2.13,0,1,1,1.37-.51Z"/><path class="cls-6" d="M86,46.71l.21,0Z"/><path class="cls-6" d="M108,33.7a6.12,6.12,0,1,0-11,4.82,13.36,13.36,0,0,1-10,4.3A28.93,28.93,0,0,0,77,40.5v4a24.75,24.75,0,0,1,8.75,2.13h0a21.46,21.46,0,0,1,8.61,7,5.22,5.22,0,0,0-.38.54,6.12,6.12,0,1,0,8.45-1.91,6.24,6.24,0,0,0-4.67-.76A26,26,0,0,0,92.42,46a16.29,16.29,0,0,0,7.78-5.1,6.28,6.28,0,0,0,1.77.27,6.12,6.12,0,0,0,6-7.46ZM97.38,56.35a2,2,0,0,1,.67-.66,2.11,2.11,0,0,1,1.12-.32,2.16,2.16,0,0,1,1.13.33,2.12,2.12,0,1,1-2.92.65Zm6.38-20.19a2.13,2.13,0,0,1-2.91.66l-.1-.07a2.11,2.11,0,0,1,2.35-3.5,2.14,2.14,0,0,1,.94,1.33A2.09,2.09,0,0,1,103.76,36.16Z"/><path class="cls-6" d="M116.65,74.69a6.05,6.05,0,0,0,2.1,2.65l.29.19a6.12,6.12,0,1,0,3.27-11.29h-.38A25.63,25.63,0,0,1,122,55l.34,0a6.12,6.12,0,1,0-4.15-1.62s0,0,.07.06a28.59,28.59,0,0,0,0,14.41c-.15.14-.3.26-.43.4a5.67,5.67,0,0,0-.63.83,6,6,0,0,0-.71,1.58,15.22,15.22,0,0,0-6.83,2.72c-2,1.33-4,2.58-9.63,2.67a32.82,32.82,0,0,0-5.29-.12,48.41,48.41,0,0,1-4.85,0c-1.34-.07-2.11-.89-3.46-2.43-1.8-2-4.22-4.65-9.37-5v4c3.29.3,4.8,1.89,6.36,3.67s3.17,3.61,6.25,3.78c2.12.11,3.76,0,5.21,0a24.43,24.43,0,0,1,7.86.68c2.6.65,12.09,9.68,14.77,14.33a4.25,4.25,0,0,0-.31.43,6.1,6.1,0,0,0,1.61,8.25l.29.19a6.12,6.12,0,1,0,6.53-10.35,6.18,6.18,0,0,0-3.26-.94,6,6,0,0,0-1.54.2c-2.56-4.19-8.66-10.46-13.19-13.8a17.66,17.66,0,0,0,4.21-2.19A11.33,11.33,0,0,1,116.65,74.69Zm3.88-26.93A2.11,2.11,0,1,1,124.09,50a2.14,2.14,0,0,1-2.91.65l-.09-.06A2.09,2.09,0,0,1,120.53,47.76Zm0,23.47a2.11,2.11,0,0,1,2.9-.66,2.11,2.11,0,1,1-2.25,3.57l-.09-.06A2.1,2.1,0,0,1,120.53,71.23Zm0,26.3a2.11,2.11,0,0,1,2.9-.66,2.11,2.11,0,1,1-2.25,3.57l-.09-.06A2.1,2.1,0,0,1,120.53,97.53Z"/></g></g></svg>