<svg id="Layer_1" data-name="Layer 1" xmlns="http://www.w3.org/2000/svg" viewBox="0 0 450 100"><defs><style>.cls-1{fill:#353070;}.cls-2{fill:#eb743b;}.cls-3{fill:#fffedb;}.cls-4,.cls-5{fill:none;stroke-linecap:round;}.cls-4{stroke:#fffedb;stroke-width:5px;}.cls-5{stroke:#eb743b;stroke-width:4px;}</style></defs><path class="cls-1" d="M114.1,63.06h16.09v8.76H103.46V28H114.1Z"/><path class="cls-1" d="M135.45,24.71A5,5,0,0,1,136.9,21a5.87,5.87,0,0,1,7.75,0,5,5,0,0,1,1.45,3.73,5.33,5.33,0,1,1-10.65,0Zm10.27,47.11H135.9V34.4h9.82Z"/><path class="cls-1" d="M169.86,61.79a3.08,3.08,0,0,0-1.19-2.3,24,24,0,0,0-5.31-2.85q-6.06-2.46-8.32-5.09A9.65,9.65,0,0,1,152.77,45a10.45,10.45,0,0,1,3.55-8.11q3.54-3.21,9.39-3.2,6.16,0,9.86,3.18a10.68,10.68,0,0,1,3.7,8.54h-9.79q0-4.56-3.8-4.56a3.55,3.55,0,0,0-2.56,1,3.59,3.59,0,0,0-1,2.7,2.85,2.85,0,0,0,1.11,2.2,24.43,24.43,0,0,0,5.22,2.71q6,2.22,8.46,4.93a10,10,0,0,1,2.47,7,9.82,9.82,0,0,1-3.77,8.06q-3.76,3-9.89,3a15.75,15.75,0,0,1-7.26-1.6,12.29,12.29,0,0,1-4.93-4.48,11.53,11.53,0,0,1-1.78-6.19H161a6,6,0,0,0,1.19,3.84,4.7,4.7,0,0,0,3.69,1.28Q169.87,65.36,169.86,61.79Z"/><path class="cls-1" d="M196.84,25.2v9.2h5v7.33h-5v18.6a5.41,5.41,0,0,0,.61,3.05,2.71,2.71,0,0,0,2.33.83A9.22,9.22,0,0,0,202.1,64L202,71.58a15.31,15.31,0,0,1-5.4.93q-9.47,0-9.58-10.87V41.73h-4.32V34.4h4.32V25.2Z"/><path class="cls-1" d="M222.33,72.51q-7.53,0-11.76-4.49t-4.22-12.87v-3q0-8.86,3.88-13.67t11.1-4.8q7,0,10.62,4.5c2.37,3,3.59,7.46,3.63,13.35v4.8H216.11q.21,4.17,1.83,6.1a6.22,6.22,0,0,0,5,1.93A11,11,0,0,0,231.15,61L235,67a12.69,12.69,0,0,1-5.22,4A18,18,0,0,1,222.33,72.51Zm-6.15-23H226v-.9a10.56,10.56,0,0,0-1.11-5.09,3.85,3.85,0,0,0-3.6-1.73,4.09,4.09,0,0,0-3.72,1.84A12.67,12.67,0,0,0,216.18,49.55Z"/><path class="cls-1" d="M250.07,34.4l.28,3.7A10.37,10.37,0,0,1,259,33.71q9.66,0,9.93,13.52V71.82h-9.82V48a8.64,8.64,0,0,0-.95-4.62,3.71,3.71,0,0,0-3.34-1.44,4.56,4.56,0,0,0-4.15,2.74V71.82h-9.83V34.4Z"/><path class="cls-2" d="M275.88,71.82V28h14.89q7.67,0,11.71,3.1t4,9A11.25,11.25,0,0,1,305.05,46a8.6,8.6,0,0,1-4.32,3.64A8.38,8.38,0,0,1,305.5,53a11,11,0,0,1,1.7,6.23q0,6.54-3.8,9.55t-11.43,3Zm10.64-25.6h5.11q4.25-.12,4.25-4.51A5.32,5.32,0,0,0,294.83,38a4.32,4.32,0,0,0-3.24-1.1h-5.07Zm0,7.41v9.43H292a4.16,4.16,0,0,0,4.59-4.53q0-4.76-3.84-4.9Z"/><path class="cls-2" d="M332.16,43.84l-3.25-.28a5.35,5.35,0,0,0-5.43,3.53V71.82h-9.82V34.4h9.23l.28,4c1.54-3.15,3.68-4.73,6.4-4.73a6.91,6.91,0,0,1,2.7.45Z"/><path class="cls-2" d="M353.92,71.82a13.5,13.5,0,0,1-.83-2.9A8.36,8.36,0,0,1,346,72.51a10.54,10.54,0,0,1-7.8-3.11,10.94,10.94,0,0,1-3.09-8.06q0-5.88,3.75-9.09T349.63,49h3V46a5.61,5.61,0,0,0-.87-3.56,3.11,3.11,0,0,0-2.52-1q-3.68,0-3.67,4.29h-9.79a10.84,10.84,0,0,1,3.89-8.56,14.5,14.5,0,0,1,9.84-3.37q6.17,0,9.53,3.2t3.37,9.14V63.66a18.46,18.46,0,0,0,1.39,7.58v.58Zm-5.78-7a5.43,5.43,0,0,0,2.77-.66,4.71,4.71,0,0,0,1.7-1.56V54.84h-2.36a5,5,0,0,0-3.92,1.59,6.1,6.1,0,0,0-1.44,4.26C344.89,63.45,346,64.84,348.14,64.84Z"/><path class="cls-2" d="M369.48,24.71A5,5,0,0,1,370.94,21a5.87,5.87,0,0,1,7.75,0,5.08,5.08,0,0,1,1.45,3.73,5.33,5.33,0,1,1-10.66,0Zm10.28,47.11h-9.83V34.4h9.83Z"/><path class="cls-2" d="M396.29,34.4l.28,3.7a10.37,10.37,0,0,1,8.68-4.39q9.64,0,9.93,13.52V71.82h-9.83V48a8.54,8.54,0,0,0-1-4.62,3.68,3.68,0,0,0-3.33-1.44,4.58,4.58,0,0,0-4.16,2.74V71.82h-9.82V34.4Z"/><path class="cls-2" d="M433,63.69h14.8v8.13H421.4V65.7l14.46-23.14H421.75V34.4h25.87v5.91Z"/><polygon class="cls-2" points="47 2 47 98 88 74 88 26 47 2"/><polygon class="cls-1" points="44 2 3 26 3 74 44 98 44 2"/><path class="cls-3" d="M79.28,58.09a6.75,6.75,0,0,0-7.67-2.86A18.09,18.09,0,0,0,63,49.6a28.62,28.62,0,0,0,5.91-6.16,6.91,6.91,0,0,0,5.17-.83,6.77,6.77,0,1,0-9.34-2.11,6.27,6.27,0,0,0,.42.59,23.88,23.88,0,0,1-9.52,7.79h0A18.45,18.45,0,0,1,47,51v5c4,0,5.93-1.12,10-2.9a14.78,14.78,0,0,1,11,4.75,6.76,6.76,0,1,0,12.16,5.32A6.64,6.64,0,0,0,79.28,58.09ZM69.06,34.67a2.57,2.57,0,0,1,1.4-.41,2.62,2.62,0,1,1,0,5.24,2.61,2.61,0,0,1-2.22-1.21A2.63,2.63,0,0,1,69.06,34.67Zm7.06,27.6A2.61,2.61,0,0,1,75,63.91a2.56,2.56,0,0,1-1.39.41,2.62,2.62,0,0,1-1.52-4.75l.12-.07a2.65,2.65,0,0,1,3.6.8A2.59,2.59,0,0,1,76.12,62.27Z"/><path class="cls-4" d="M17,53.83a5.31,5.31,0,1,1,.15-7.5A5.32,5.32,0,0,1,17,53.83Z"/><path class="cls-5" d="M30.14,43a12.51,12.51,0,0,1-.26,14"/><path class="cls-5" d="M35.45,39.56a17.55,17.55,0,0,1,1.72,18.27,17.88,17.88,0,0,1-1.57,2.61"/><path class="cls-5" d="M24.62,53.31a7.22,7.22,0,0,0,.25-6.62"/></svg>