<?xml version="1.0" encoding="utf-8"?>
<!-- Generator: Adobe Illustrator 16.0.0, SVG Export Plug-In . SVG Version: 6.00 Build 0)  -->
<!DOCTYPE svg PUBLIC "-//W3C//DTD SVG 1.1//EN" "http://www.w3.org/Graphics/SVG/1.1/DTD/svg11.dtd" [
	<!ENTITY ns_extend "http://ns.adobe.com/Extensibility/1.0/">
	<!ENTITY ns_ai "http://ns.adobe.com/AdobeIllustrator/10.0/">
	<!ENTITY ns_graphs "http://ns.adobe.com/Graphs/1.0/">
	<!ENTITY ns_vars "http://ns.adobe.com/Variables/1.0/">
	<!ENTITY ns_imrep "http://ns.adobe.com/ImageReplacement/1.0/">
	<!ENTITY ns_sfw "http://ns.adobe.com/SaveForWeb/1.0/">
	<!ENTITY ns_custom "http://ns.adobe.com/GenericCustomNamespace/1.0/">
	<!ENTITY ns_adobe_xpath "http://ns.adobe.com/XPath/1.0/">
]>
<svg version="1.1" id="Layer_1" xmlns:x="&ns_extend;" xmlns:i="&ns_ai;" xmlns:graph="&ns_graphs;"
	 xmlns="http://www.w3.org/2000/svg" xmlns:xlink="http://www.w3.org/1999/xlink" x="0px" y="0px" width="140px" height="190px"
	 viewBox="0 0 140 190" enable-background="new 0 0 140 190" xml:space="preserve">
<metadata>
	<sfw  xmlns="&ns_sfw;">
		<slices></slices>
		<sliceSourceBounds  height="185.308" width="138.566" y="-1214.308" x="3341.717" bottomLeftOrigin="true"></sliceSourceBounds>
	</sfw>
</metadata>
<g>
</g>
<g>
	<g>
		<polygon fill="#EB743B" points="72,3 72,99 113,75 113,27 		"/>
		<polygon fill="#BA478F" points="69,3 28,27 28,75 69,99 		"/>
		<path fill="#FFFEDB" d="M69,38L50,49v-8l19-11V15L46.97,28.292c-0.015,0.012-0.025,0.022-0.04,0.032
			c-0.063,0.039-0.118,0.083-0.177,0.13c-0.045,0.036-0.095,0.072-0.137,0.113c-0.047,0.044-0.086,0.094-0.129,0.144
			c-0.042,0.049-0.087,0.096-0.123,0.146c-0.037,0.054-0.066,0.109-0.098,0.166c-0.03,0.056-0.063,0.109-0.09,0.165
			c-0.026,0.061-0.046,0.122-0.065,0.183c-0.018,0.062-0.041,0.122-0.056,0.184c-0.015,0.058-0.02,0.117-0.028,0.18
			c-0.008,0.07-0.02,0.143-0.021,0.212C46.006,29.967,46,29.982,46,30v34c-2,0-4,0-5.361,1.006
			c-3.118,2.304-4.509,5.898-2.857,8.382c1.653,2.482,5.607,2.76,8.834,0.612c1.844-1.222,2.994-3.264,3.385-5
			c0.082-0.219,0-15,0-15l19-11V38z"/>
		<path fill="#FFFEDB" d="M104.281,59.087c-1.239-1.97-3.38-3.148-5.718-3.148c-0.666,0-1.324,0.103-1.956,0.295
			c-2.632-3.125-5.819-4.775-8.603-5.636c2.235-1.714,4.208-3.771,5.909-6.153c1.74,0.394,3.63,0.127,5.162-0.832
			c3.158-2.006,4.103-6.197,2.104-9.348c-1.249-1.975-3.39-3.152-5.724-3.152c-1.283,0-2.533,0.363-3.616,1.05
			c-3.146,1.991-4.093,6.181-2.105,9.336c0.13,0.207,0.271,0.404,0.422,0.596c-2.514,3.442-5.708,6.056-9.519,7.785l-0.014,0.004
			C77.093,51.487,75,52,72,52v5c4,0,5.931-1.125,10.016-2.898c1.366-0.023,6.962,0.185,10.991,4.747
			c-1.507,2.164-1.655,5.108-0.16,7.471c1.241,1.97,3.382,3.15,5.721,3.15c1.278,0,2.524-0.36,3.607-1.044
			c1.538-0.975,2.599-2.482,2.995-4.252C105.566,62.413,105.248,60.606,104.281,59.087z M94.061,35.67
			c0.423-0.266,0.901-0.405,1.396-0.405c0.903,0,1.731,0.456,2.219,1.224c0.771,1.214,0.403,2.836-0.818,3.61
			c-0.41,0.261-0.896,0.398-1.387,0.398c-0.493,0-0.974-0.134-1.39-0.391c-0.343-0.213-0.625-0.489-0.832-0.817
			C92.478,38.064,92.842,36.443,94.061,35.67z M101.119,63.27c-0.154,0.687-0.564,1.27-1.161,1.645
			c-0.413,0.264-0.896,0.406-1.391,0.406c-0.906,0-1.731-0.457-2.21-1.218c-0.745-1.18-0.441-2.727,0.691-3.528l0.117-0.078
			c1.208-0.766,2.866-0.367,3.608,0.808C101.151,61.896,101.271,62.591,101.119,63.27z"/>
	</g>
	<g>
		<g>
			<path fill="#BA478F" d="M15.8,106.453l6.241,23.692l6.241-23.692h11.301v35.297h-8.604v-7.029l0.818-16.421l-6.938,23.45h-5.666
				l-6.907-23.329l0.817,16.3v7.029H4.528v-35.297H15.8z"/>
			<path fill="#BA478F" d="M60.101,138.99c-1.636,2.212-3.828,3.317-6.578,3.317c-2.77,0-4.869-0.952-6.3-2.857
				c-1.432-1.904-2.146-4.678-2.146-8.32v-19.539h7.889v19.734c0.037,2.937,1.013,4.404,2.927,4.404c1.802,0,3.103-0.78,3.902-2.342
				v-21.797h7.943v30.159h-7.414L60.101,138.99z"/>
			<path fill="#BA478F" d="M86.721,133.667c0-0.669-0.32-1.287-0.962-1.854c-0.641-0.566-2.067-1.333-4.278-2.299
				c-3.252-1.319-5.487-2.686-6.704-4.098s-1.825-3.168-1.825-5.269c0-2.638,0.952-4.817,2.856-6.536
				c1.905-1.719,4.428-2.578,7.568-2.578c3.308,0,5.955,0.854,7.944,2.564c1.987,1.71,2.982,4.004,2.982,6.885h-7.889
				c0-2.453-1.022-3.68-3.066-3.68c-0.836,0-1.523,0.261-2.063,0.78c-0.539,0.521-0.809,1.245-0.809,2.175
				c0,0.669,0.298,1.259,0.893,1.77c0.594,0.512,1.997,1.24,4.209,2.188c3.214,1.189,5.486,2.514,6.814,3.972
				c1.329,1.459,1.993,3.35,1.993,5.673c0,2.694-1.013,4.859-3.038,6.494c-2.025,1.636-4.683,2.453-7.972,2.453
				c-2.212,0-4.163-0.433-5.854-1.296c-1.691-0.864-3.016-2.067-3.973-3.61c-0.957-1.542-1.436-3.205-1.436-4.989h7.499
				c0.036,1.376,0.357,2.407,0.961,3.094c0.604,0.688,1.594,1.031,2.969,1.031C85.661,136.537,86.721,135.581,86.721,133.667z"/>
			<path fill="#BA478F" d="M99.291,104.786c0-1.227,0.391-2.23,1.171-3.011s1.82-1.171,3.122-1.171c1.3,0,2.341,0.391,3.121,1.171
				c0.781,0.78,1.171,1.784,1.171,3.011c0,1.208-0.386,2.211-1.156,3.01c-0.771,0.8-1.817,1.199-3.136,1.199
				c-1.32,0-2.365-0.399-3.137-1.199C99.677,106.997,99.291,105.994,99.291,104.786z M107.569,141.75h-7.916v-30.159h7.916V141.75z"
				/>
			<path fill="#BA478F" d="M124.573,135.813c2.286,0,3.447-1.505,3.484-4.516h7.414c-0.037,3.289-1.05,5.947-3.038,7.973
				s-4.553,3.038-7.693,3.038c-3.884,0-6.848-1.208-8.892-3.624c-2.044-2.415-3.085-5.974-3.122-10.676v-2.396
				c0-4.739,1.008-8.353,3.024-10.844c2.017-2.489,4.994-3.734,8.934-3.734c3.326,0,5.946,1.026,7.86,3.08s2.89,4.966,2.927,8.738
				h-7.414c-0.019-1.709-0.298-3.023-0.836-3.943c-0.539-0.92-1.432-1.381-2.676-1.381c-1.376,0-2.36,0.491-2.955,1.473
				s-0.91,2.884-0.947,5.707v3.085c0,2.469,0.12,4.193,0.362,5.175c0.241,0.981,0.641,1.701,1.198,2.159
				S123.551,135.813,124.573,135.813z"/>
		</g>
		<g>
			<path fill="#EB743B" d="M0.717,187.75v-35.297h11.998c4.121,0,7.266,0.833,9.438,2.5c2.172,1.666,3.258,4.085,3.258,7.256
				c0,1.798-0.395,3.363-1.182,4.696c-0.789,1.333-1.951,2.313-3.484,2.938c1.654,0.485,2.938,1.409,3.848,2.772
				c0.908,1.363,1.363,3.035,1.363,5.015c0,3.515-1.021,6.08-3.061,7.695c-2.041,1.616-5.111,2.424-9.211,2.424H0.717z
				 M9.291,167.117h4.121c2.281-0.061,3.424-1.272,3.424-3.636c0-1.394-0.283-2.389-0.85-2.984
				c-0.564-0.596-1.434-0.894-2.605-0.894h-4.09V167.117z M9.291,173.086v7.604h4.393c1.191,0,2.105-0.324,2.742-0.973
				c0.637-0.649,0.955-1.541,0.955-2.678c0-2.555-1.031-3.873-3.092-3.954H9.291z"/>
			<path fill="#EB743B" d="M46.074,165.2l-2.621-0.224c-2.156,0-3.613,0.948-4.375,2.844v19.93H31.16v-30.159h7.443l0.223,3.261
				c1.244-2.546,2.965-3.818,5.156-3.818c0.893,0,1.617,0.121,2.174,0.362L46.074,165.2z"/>
			<path fill="#EB743B" d="M63.605,187.75c-0.223-0.464-0.445-1.245-0.668-2.342c-1.412,1.934-3.326,2.899-5.742,2.899
				c-2.527,0-4.623-0.836-6.285-2.509c-1.664-1.673-2.496-3.837-2.496-6.494c0-3.159,1.008-5.604,3.025-7.331
				c2.016-1.729,4.92-2.61,8.711-2.648h2.396V166.9c0-1.356-0.232-2.313-0.697-2.871s-1.143-0.836-2.035-0.836
				c-1.969,0-2.953,1.152-2.953,3.456h-7.889c0-2.787,1.045-5.087,3.135-6.898c2.092-1.813,4.734-2.718,7.93-2.718
				c3.309,0,5.869,0.859,7.68,2.578c1.813,1.719,2.719,4.177,2.719,7.373v14.188c0.037,2.602,0.408,4.637,1.115,6.104v0.474H63.605z
				 M58.951,182.119c0.873,0,1.617-0.176,2.23-0.529c0.613-0.353,1.068-0.771,1.365-1.254v-6.272H60.65
				c-1.338,0-2.393,0.428-3.162,1.282c-0.771,0.855-1.158,1.998-1.158,3.429C56.33,181.005,57.203,182.119,58.951,182.119z"/>
			<path fill="#EB743B" d="M76.15,150.786c0-1.227,0.391-2.23,1.17-3.011c0.781-0.78,1.82-1.171,3.123-1.171
				c1.299,0,2.34,0.391,3.121,1.171s1.17,1.784,1.17,3.011c0,1.208-0.385,2.211-1.156,3.01c-0.771,0.8-1.816,1.199-3.135,1.199
				c-1.32,0-2.365-0.399-3.137-1.199C76.535,152.997,76.15,151.994,76.15,150.786z M84.428,187.75h-7.916v-30.159h7.916V187.75z"/>
			<path fill="#EB743B" d="M97.752,157.591l0.223,2.982c1.785-2.36,4.115-3.54,6.996-3.54c5.186,0,7.852,3.633,8,10.898v19.818
				h-7.916v-19.233c0-1.709-0.256-2.949-0.766-3.721c-0.512-0.771-1.408-1.157-2.691-1.157c-1.43,0-2.545,0.734-3.344,2.202v21.909
				h-7.916v-30.159H97.752z"/>
			<path fill="#EB743B" d="M127.354,181.256h11.93v6.494h-21.295v-4.892l11.65-18.689h-11.371v-6.578h20.85v4.766L127.354,181.256z"
				/>
		</g>
	</g>
</g>
</svg>
