<?xml version="1.0" encoding="utf-8"?>
<!-- Generator: Adobe Illustrator 16.0.0, SVG Export Plug-In . SVG Version: 6.00 Build 0)  -->
<!DOCTYPE svg PUBLIC "-//W3C//DTD SVG 1.1//EN" "http://www.w3.org/Graphics/SVG/1.1/DTD/svg11.dtd" [
	<!ENTITY ns_extend "http://ns.adobe.com/Extensibility/1.0/">
	<!ENTITY ns_ai "http://ns.adobe.com/AdobeIllustrator/10.0/">
	<!ENTITY ns_graphs "http://ns.adobe.com/Graphs/1.0/">
	<!ENTITY ns_vars "http://ns.adobe.com/Variables/1.0/">
	<!ENTITY ns_imrep "http://ns.adobe.com/ImageReplacement/1.0/">
	<!ENTITY ns_sfw "http://ns.adobe.com/SaveForWeb/1.0/">
	<!ENTITY ns_custom "http://ns.adobe.com/GenericCustomNamespace/1.0/">
	<!ENTITY ns_adobe_xpath "http://ns.adobe.com/XPath/1.0/">
]>
<svg version="1.1" id="Layer_1" xmlns:x="&ns_extend;" xmlns:i="&ns_ai;" xmlns:graph="&ns_graphs;"
	 xmlns="http://www.w3.org/2000/svg" xmlns:xlink="http://www.w3.org/1999/xlink" x="0px" y="0px" width="220px" height="290px"
	 viewBox="0 0 220 290" enable-background="new 0 0 220 290" xml:space="preserve">
<metadata>
	<sfw  xmlns="&ns_sfw;">
		<slices></slices>
		<sliceSourceBounds  height="284.713" width="214.375" y="-975.713" x="3369.033" bottomLeftOrigin="true"></sliceSourceBounds>
	</sfw>
</metadata>
<g>
</g>
<g>
	<g>
		<g>
			<polygon fill="#EB743B" points="111.967,2.457 111.967,146.457 172.967,111.457 172.967,37.457 			"/>
			<polygon fill="#BA478F" points="106.967,2.457 45.967,37.457 45.967,111.457 106.967,146.457 106.967,62.457 105.967,61.457 
				105.967,56.457 106.967,55.457 106.967,43.457 105.967,43.457 105.967,22.457 106.967,21.457 			"/>
			<g>
				<g opacity="0.07">
					<path d="M106.938,55.497l-26.971,15.96V59.841l26.971-16.21V21.043L74.421,40.313c-0.023,0.014-0.04,0.032-0.063,0.047
						c-0.092,0.058-0.177,0.126-0.263,0.195c-0.07,0.057-0.143,0.108-0.207,0.169c-0.069,0.067-0.13,0.143-0.192,0.217
						c-0.063,0.073-0.128,0.144-0.185,0.222c-0.056,0.078-0.1,0.163-0.146,0.248c-0.047,0.083-0.097,0.162-0.134,0.247
						c-0.041,0.091-0.067,0.184-0.099,0.275c-0.03,0.091-0.064,0.182-0.085,0.274c-0.021,0.086-0.03,0.177-0.042,0.268
						c-0.015,0.108-0.028,0.214-0.031,0.321c-0.002,0.028-0.008,0.052-0.008,0.08v50.58c-2.597-0.416-5.291,0.199-8,2
						c-4.843,3.218-6.477,9.276-4,13c2.478,3.727,8.192,3.897,13.036,0.68c2.765-1.837,5.378-4.074,5.964-6.68c0.124-0.327,0-2,0-2
						c0.007-0.144,0.002-0.284,0-0.424V78.457l26.971-16.149V55.497z"/>
				</g>
				<g>
					<g>
						<path fill="#9D356D" d="M106.967,58.457l-27,16v-12l27-16v-23L74.45,43.14c-0.023,0.014-0.04,0.032-0.063,0.047
							c-0.092,0.058-0.177,0.126-0.263,0.195c-0.07,0.057-0.143,0.108-0.207,0.169c-0.069,0.067-0.13,0.143-0.192,0.217
							c-0.063,0.073-0.128,0.144-0.185,0.222c-0.056,0.078-0.1,0.163-0.146,0.248c-0.047,0.083-0.097,0.162-0.134,0.247
							c-0.041,0.091-0.067,0.184-0.099,0.275c-0.03,0.091-0.064,0.182-0.085,0.274c-0.021,0.086-0.03,0.177-0.042,0.268
							c-0.015,0.108-0.028,0.214-0.031,0.321c-0.002,0.028-0.008,0.052-0.008,0.08v50.58c-2.597-0.416-5.291,0.199-8,2
							c-4.843,3.218-6.477,9.276-4,13c2.478,3.727,8.192,3.897,13.036,0.68c2.765-1.837,5.378-4.074,5.964-6.68c0.124-0.327,0-2,0-2
							c0.007-0.144,0.002-0.284,0-0.424l-0.029-21.402l27-16V58.457z"/>
					</g>
					<g>
						<path fill="#FFFEDB" d="M106.967,55.457l-27,16v-12l27-16v-23L74.421,40.313c-0.023,0.014-0.04,0.032-0.063,0.047
							c-0.092,0.058-0.177,0.126-0.263,0.195c-0.07,0.057-0.143,0.108-0.207,0.169c-0.069,0.067-0.13,0.143-0.192,0.217
							c-0.063,0.073-0.128,0.144-0.185,0.222c-0.056,0.078-0.1,0.163-0.146,0.248c-0.047,0.083-0.097,0.162-0.134,0.247
							c-0.041,0.091-0.067,0.184-0.099,0.275c-0.03,0.091-0.064,0.182-0.085,0.274c-0.021,0.086-0.03,0.177-0.042,0.268
							c-0.015,0.108-0.028,0.214-0.031,0.321c-0.002,0.028-0.008,0.052-0.008,0.08v50.58c-2.597-0.416-5.291,0.199-8,2
							c-4.843,3.218-6.477,9.276-4,13c2.478,3.727,8.192,3.897,13.036,0.68c2.765-1.837,5.378-4.074,5.964-6.68c0.124-0.327,0-2,0-2
							c0.007-0.144,0.002-0.284,0-0.424V78.457l27-16V55.457z"/>
					</g>
				</g>
			</g>
			<g>
				<g opacity="0.07">
					<path d="M129.269,94.19c0.386-0.645,1.066-1.03,1.819-1.03c0.378,0,0.752,0.104,1.078,0.297c1,0.601,1.331,1.899,0.735,2.898
						c-0.385,0.646-1.064,1.032-1.817,1.032c-0.379,0-0.755-0.104-1.084-0.301c-0.483-0.288-0.826-0.748-0.964-1.294
						C128.897,95.244,128.98,94.676,129.269,94.19z M141.871,116.553c-0.49,0.421-1.018,0.509-1.373,0.509
						c-0.621,0-1.207-0.269-1.608-0.734c-0.758-0.885-0.654-2.222,0.231-2.981c0.492-0.423,1.018-0.512,1.373-0.512
						c0.617,0,1.201,0.269,1.605,0.74c0.368,0.43,0.547,0.976,0.504,1.538S142.302,116.185,141.871,116.553z"/>
					<path d="M120.968,48.067c0.07,0.019,0.142,0.034,0.212,0.046C121.107,48.102,121.037,48.086,120.968,48.067z"/>
					<path d="M132.347,57.714c0.169-0.267,0.395-0.49,0.673-0.661c0.335-0.207,0.722-0.316,1.121-0.316
						c0.4,0,0.79,0.112,1.122,0.321c0.987,0.627,1.283,1.936,0.66,2.919c-0.392,0.618-1.063,0.988-1.795,0.988
						c-0.397,0-0.785-0.113-1.124-0.327C132.02,60.014,131.726,58.701,132.347,57.714z M138.726,37.526
						c-0.6,0.951-1.938,1.271-2.912,0.653l-0.096-0.063c-0.914-0.647-1.161-1.897-0.558-2.851c0.386-0.613,1.053-0.98,1.784-0.98
						c0.397,0,0.787,0.113,1.124,0.326c0.479,0.304,0.813,0.775,0.937,1.33C139.127,36.488,139.03,37.049,138.726,37.526z"/>
					<path d="M155.492,49.125c0.388-0.614,1.054-0.98,1.783-0.98c0.399,0,0.79,0.113,1.125,0.325c0.48,0.304,0.813,0.775,0.937,1.33
						c0.122,0.546,0.024,1.106-0.279,1.584c-0.598,0.951-1.938,1.272-2.912,0.653l-0.094-0.063
						C155.135,51.328,154.89,50.078,155.492,49.125z M155.492,72.588c0.388-0.614,1.054-0.98,1.783-0.98
						c0.399,0,0.79,0.112,1.125,0.326c0.48,0.304,0.813,0.774,0.937,1.329c0.122,0.546,0.024,1.107-0.279,1.585
						c-0.598,0.95-1.938,1.271-2.912,0.652l-0.094-0.063C155.135,74.791,154.89,73.541,155.492,72.588z M155.492,98.891
						c0.388-0.613,1.054-0.979,1.783-0.979c0.399,0,0.79,0.112,1.125,0.325c0.48,0.304,0.813,0.775,0.937,1.33
						c0.122,0.547,0.024,1.106-0.279,1.584c-0.598,0.951-1.938,1.271-2.912,0.653l-0.094-0.063
						C155.135,101.094,154.89,99.845,155.492,98.891z"/>
					<path d="M145.143,108.561c-1.165-1.36-2.858-2.139-4.648-2.139c-1.459,0-2.875,0.525-3.983,1.477
						c-1.612,1.383-2.326,3.429-2.087,5.397c-1.948,0.7-4.258,1.365-5.328,1.332c-0.821-0.044-1.302-0.346-2.224-0.972
						c-1.172-0.795-2.418-1.512-4.148-1.847c2.936-2.761,6.009-6.83,8.584-12.834c2.061-0.076,3.976-1.193,5.038-2.972
						c1.725-2.896,0.773-6.659-2.124-8.394c-0.949-0.565-2.032-0.864-3.134-0.864c-2.146,0-4.161,1.144-5.261,2.986
						c-0.838,1.405-1.079,3.05-0.678,4.636c0.351,1.393,1.16,2.59,2.302,3.429c-4.053,9.218-9.219,13.081-12.565,14.685
						c-0.128,0.045-0.248,0.101-0.36,0.168c-1.187,0.531-2.05,0.704-2.559,0.808v4c0.275-0.03,1.885-0.118,4.247-1.192
						c5.348-1.357,6.839-0.354,8.407,0.709c1.021,0.692,2.291,1.554,4.263,1.656c0.1,0.005,0.204,0.008,0.309,0.008
						c2.109,0,5.172-1.022,7.021-1.723c1.144,1.116,2.676,1.75,4.285,1.75l0,0c1.461,0,2.876-0.524,3.983-1.476
						c1.24-1.062,1.993-2.546,2.118-4.176C146.725,111.382,146.207,109.799,145.143,108.561z M129.269,91.785
						c0.386-0.645,1.066-1.03,1.819-1.03c0.378,0,0.752,0.104,1.078,0.297c1,0.601,1.331,1.899,0.735,2.898
						c-0.385,0.646-1.064,1.032-1.817,1.032c-0.379,0-0.755-0.104-1.084-0.301c-0.483-0.288-0.826-0.748-0.964-1.294
						C128.897,92.839,128.98,92.271,129.269,91.785z M141.871,114.147c-0.49,0.421-1.018,0.509-1.373,0.509
						c-0.621,0-1.207-0.269-1.608-0.734c-0.758-0.885-0.654-2.222,0.231-2.981c0.492-0.423,1.018-0.512,1.373-0.512
						c0.617,0,1.201,0.269,1.605,0.74c0.368,0.43,0.547,0.976,0.504,1.538S142.302,113.779,141.871,114.147z"/>
					<path d="M120.968,45.662c0.07,0.019,0.142,0.034,0.212,0.046C121.107,45.696,121.037,45.681,120.968,45.662z"/>
					<path d="M142.917,32.661c-0.357-1.599-1.317-2.964-2.708-3.844c-0.98-0.617-2.109-0.944-3.265-0.944
						c-2.117,0-4.053,1.066-5.174,2.85c-1.354,2.138-1.218,4.799,0.144,6.759c-3.646,4.124-8.706,4.313-9.942,4.293
						c-3.692-1.604-7.234-2.164-10.005-2.317v3.996c2.441,0.144,5.553,0.686,8.748,2.136c0.005,0.002,0.01,0.002,0.015,0.005
						c3.445,1.563,6.334,3.928,8.607,7.041c-0.136,0.173-0.265,0.352-0.382,0.538c-1.796,2.854-0.942,6.644,1.903,8.444
						c0.98,0.622,2.111,0.951,3.27,0.951c2.113,0,4.051-1.065,5.183-2.852c1.806-2.851,0.951-6.642-1.908-8.453
						c-1.384-0.871-3.092-1.113-4.667-0.755c-1.538-2.154-3.323-4.017-5.345-5.566c2.517-0.778,5.401-2.269,7.78-5.096
						c0.572,0.172,1.166,0.267,1.77,0.267c2.116,0,4.051-1.068,5.172-2.849C142.987,35.89,143.273,34.256,142.917,32.661z
						 M132.347,55.309c0.169-0.267,0.395-0.49,0.673-0.661c0.335-0.207,0.722-0.316,1.121-0.316c0.4,0,0.79,0.112,1.122,0.321
						c0.987,0.627,1.283,1.936,0.66,2.919c-0.392,0.618-1.063,0.988-1.795,0.988c-0.397,0-0.785-0.113-1.124-0.327
						C132.02,57.608,131.726,56.296,132.347,55.309z M138.726,35.121c-0.6,0.951-1.938,1.271-2.912,0.653l-0.096-0.063
						c-0.914-0.647-1.161-1.897-0.558-2.851c0.386-0.613,1.053-0.98,1.784-0.98c0.397,0,0.787,0.113,1.124,0.326
						c0.479,0.304,0.813,0.775,0.937,1.33C139.127,34.083,139.03,34.644,138.726,35.121z"/>
					<path d="M151.612,73.645c0.425,1.035,1.136,1.962,2.109,2.649c0.072,0.052,0.151,0.105,0.283,0.191
						c0.981,0.621,2.11,0.949,3.268,0.949c2.116,0,4.052-1.068,5.173-2.849c0.875-1.375,1.16-3.01,0.805-4.604
						c-0.358-1.598-1.318-2.964-2.709-3.844c-0.98-0.617-2.109-0.944-3.266-0.944c-0.125,0-0.25,0.008-0.375,0.018
						c-0.71-3.157-0.919-7.769,0.035-11.265c0.112,0.011,0.225,0.024,0.337,0.024c2.116,0,4.052-1.067,5.173-2.849
						c0.875-1.375,1.16-3.009,0.805-4.604c-0.358-1.599-1.318-2.964-2.709-3.844c-0.98-0.617-2.109-0.944-3.266-0.944
						c-2.114,0-4.051,1.066-5.173,2.85c-1.604,2.532-1.12,5.804,1.024,7.765c0.021,0.02,0.048,0.037,0.071,0.059
						c-1.349,4.518-1.146,10.324-0.036,14.417c-0.144,0.132-0.294,0.254-0.426,0.399c-0.229,0.255-0.445,0.526-0.634,0.824
						c-0.318,0.502-0.551,1.033-0.71,1.578c-3.371,0.488-5.198,1.671-6.824,2.729c-2.035,1.324-3.961,2.572-9.636,2.665
						c-1.964-0.23-3.553-0.177-5.29-0.116c-1.431,0.052-2.91,0.106-4.849,0.003c-1.335-0.071-2.104-0.882-3.458-2.424
						c-1.803-2.055-4.219-4.648-9.369-5.022v4c3.295,0.3,4.796,1.888,6.356,3.667c1.487,1.694,3.175,3.615,6.256,3.782
						c2.118,0.114,3.76,0.052,5.208,0.001c2.491-0.092,4.453-0.161,7.855,0.684c2.607,0.643,12.099,9.673,14.773,14.322
						c-0.108,0.142-0.219,0.282-0.313,0.434c-1.743,2.755-1.026,6.385,1.619,8.251c0.072,0.052,0.151,0.104,0.283,0.191
						c0.981,0.621,2.11,0.948,3.268,0.948c2.116,0,4.052-1.068,5.173-2.849c0.875-1.374,1.16-3.009,0.805-4.603
						c-0.358-1.6-1.318-2.965-2.709-3.845c-0.98-0.617-2.109-0.944-3.266-0.944c-0.528,0-1.047,0.067-1.543,0.195
						c-2.561-4.187-8.652-10.455-13.189-13.792c1.813-0.628,3.05-1.435,4.212-2.188C148.183,74.782,149.369,74.021,151.612,73.645z
						 M155.492,46.72c0.388-0.614,1.054-0.98,1.783-0.98c0.399,0,0.79,0.113,1.125,0.325c0.48,0.304,0.813,0.775,0.937,1.33
						c0.122,0.546,0.024,1.106-0.279,1.584c-0.598,0.951-1.938,1.272-2.912,0.653l-0.094-0.063
						C155.135,48.923,154.89,47.673,155.492,46.72z M155.492,70.183c0.388-0.614,1.054-0.98,1.783-0.98
						c0.399,0,0.79,0.112,1.125,0.326c0.48,0.304,0.813,0.774,0.937,1.329c0.122,0.546,0.024,1.107-0.279,1.585
						c-0.598,0.95-1.938,1.271-2.912,0.652l-0.094-0.063C155.135,72.386,154.89,71.136,155.492,70.183z M155.492,96.485
						c0.388-0.613,1.054-0.979,1.783-0.979c0.399,0,0.79,0.112,1.125,0.325c0.48,0.304,0.813,0.775,0.937,1.33
						c0.122,0.547,0.024,1.106-0.279,1.584c-0.598,0.951-1.938,1.271-2.912,0.653l-0.094-0.063
						C155.135,98.688,154.89,97.439,155.492,96.485z"/>
				</g>
				<g>
					<g>
						<path fill="#D3562C" d="M145.143,111.561c-1.165-1.36-2.858-2.139-4.648-2.139c-1.459,0-2.875,0.525-3.983,1.477
							c-1.612,1.383-2.326,3.429-2.087,5.397c-1.948,0.7-4.258,1.365-5.328,1.332c-0.821-0.044-1.302-0.346-2.224-0.972
							c-1.172-0.795-2.418-1.512-4.148-1.847c2.936-2.761,6.009-6.83,8.584-12.834c2.061-0.076,3.976-1.193,5.038-2.972
							c1.725-2.896,0.773-6.659-2.124-8.394c-0.949-0.565-2.032-0.864-3.134-0.864c-2.146,0-4.161,1.144-5.261,2.986
							c-0.838,1.405-1.079,3.05-0.678,4.636c0.351,1.393,1.16,2.59,2.302,3.429c-4.053,9.218-9.219,13.081-12.565,14.685
							c-0.128,0.045-0.248,0.101-0.36,0.168c-1.187,0.531-2.05,0.704-2.559,0.808v4c0.275-0.03,1.885-0.118,4.247-1.192
							c5.348-1.357,6.839-0.354,8.407,0.709c1.021,0.692,2.291,1.554,4.263,1.656c0.1,0.005,0.204,0.008,0.309,0.008
							c2.109,0,5.172-1.022,7.021-1.723c1.144,1.116,2.676,1.75,4.285,1.75l0,0c1.461,0,2.876-0.524,3.983-1.476
							c1.24-1.062,1.993-2.546,2.118-4.176C146.725,114.382,146.207,112.799,145.143,111.561z M129.269,94.785
							c0.386-0.645,1.066-1.03,1.819-1.03c0.378,0,0.752,0.104,1.078,0.297c1,0.601,1.331,1.899,0.735,2.898
							c-0.385,0.646-1.064,1.032-1.817,1.032c-0.379,0-0.755-0.104-1.084-0.301c-0.483-0.288-0.826-0.748-0.964-1.294
							C128.897,95.839,128.98,95.271,129.269,94.785z M141.871,117.147c-0.49,0.421-1.018,0.509-1.373,0.509
							c-0.621,0-1.207-0.269-1.608-0.734c-0.758-0.885-0.654-2.222,0.231-2.981c0.492-0.423,1.018-0.512,1.373-0.512
							c0.617,0,1.201,0.269,1.605,0.74c0.368,0.43,0.547,0.976,0.504,1.538S142.302,116.779,141.871,117.147z"/>
						<path d="M120.968,48.067c0.07,0.019,0.142,0.034,0.212,0.046C121.107,48.102,121.037,48.086,120.968,48.067z"/>
						<path fill="#D3562C" d="M142.917,35.665c-0.357-1.599-1.317-2.964-2.708-3.844c-0.98-0.617-2.109-0.944-3.265-0.944
							c-2.117,0-4.053,1.066-5.174,2.85c-1.354,2.138-1.218,4.799,0.144,6.759c-3.646,4.124-8.706,4.313-9.942,4.293
							c-3.692-1.604-7.234-2.164-10.005-2.317v3.996c2.441,0.144,5.553,0.686,8.748,2.136c0.005,0.002,0.01,0.002,0.015,0.005
							c3.445,1.563,6.334,3.928,8.607,7.041c-0.136,0.173-0.265,0.352-0.382,0.538c-1.796,2.854-0.942,6.644,1.903,8.444
							c0.98,0.622,2.111,0.951,3.27,0.951c2.113,0,4.051-1.065,5.183-2.852c1.806-2.851,0.951-6.642-1.908-8.453
							c-1.384-0.871-3.092-1.113-4.667-0.755c-1.538-2.154-3.323-4.017-5.345-5.566c2.517-0.778,5.401-2.269,7.78-5.096
							c0.572,0.172,1.166,0.267,1.77,0.267c2.116,0,4.051-1.068,5.172-2.849C142.987,38.894,143.273,37.26,142.917,35.665z
							 M132.347,58.313c0.169-0.267,0.395-0.49,0.673-0.661c0.335-0.207,0.722-0.316,1.121-0.316c0.4,0,0.79,0.112,1.122,0.321
							c0.987,0.627,1.283,1.936,0.66,2.919c-0.392,0.618-1.063,0.988-1.795,0.988c-0.397,0-0.785-0.113-1.124-0.327
							C132.02,60.612,131.726,59.3,132.347,58.313z M138.726,38.125c-0.6,0.951-1.938,1.271-2.912,0.653l-0.096-0.063
							c-0.914-0.647-1.161-1.897-0.558-2.851c0.386-0.613,1.053-0.98,1.784-0.98c0.397,0,0.787,0.113,1.124,0.326
							c0.479,0.304,0.813,0.775,0.937,1.33C139.127,37.087,139.03,37.647,138.726,38.125z"/>
						<path fill="#D3562C" d="M151.612,76.645c0.425,1.035,1.136,1.962,2.109,2.649c0.072,0.052,0.151,0.105,0.283,0.191
							c0.981,0.621,2.11,0.949,3.268,0.949c2.116,0,4.052-1.068,5.173-2.849c0.875-1.375,1.16-3.01,0.805-4.604
							c-0.358-1.598-1.318-2.964-2.709-3.844c-0.98-0.617-2.109-0.944-3.266-0.944c-0.125,0-0.25,0.008-0.375,0.018
							c-0.71-3.157-0.919-7.769,0.035-11.265c0.112,0.011,0.225,0.024,0.337,0.024c2.116,0,4.052-1.067,5.173-2.849
							c0.875-1.375,1.16-3.009,0.805-4.604c-0.358-1.599-1.318-2.964-2.709-3.844c-0.98-0.617-2.109-0.944-3.266-0.944
							c-2.114,0-4.051,1.066-5.173,2.85c-1.604,2.532-1.12,5.804,1.024,7.765c0.021,0.02,0.048,0.037,0.071,0.059
							c-1.349,4.518-1.146,10.324-0.036,14.417c-0.144,0.132-0.294,0.254-0.426,0.399c-0.229,0.255-0.445,0.526-0.634,0.824
							c-0.318,0.502-0.551,1.033-0.71,1.578c-3.371,0.488-5.198,1.671-6.824,2.729c-2.035,1.324-3.961,2.572-9.636,2.665
							c-1.964-0.23-3.553-0.177-5.29-0.116c-1.431,0.052-2.91,0.106-4.849,0.003c-1.335-0.071-2.104-0.882-3.458-2.424
							c-1.803-2.055-4.219-4.648-9.369-5.022v4c3.295,0.3,4.796,1.888,6.356,3.667c1.487,1.694,3.175,3.615,6.256,3.782
							c2.118,0.114,3.76,0.052,5.208,0.001c2.491-0.092,4.453-0.161,7.855,0.684c2.607,0.643,12.099,9.673,14.773,14.322
							c-0.108,0.142-0.219,0.282-0.313,0.434c-1.743,2.755-1.026,6.385,1.619,8.251c0.072,0.052,0.151,0.104,0.283,0.191
							c0.981,0.621,2.11,0.948,3.268,0.948c2.116,0,4.052-1.068,5.173-2.849c0.875-1.374,1.16-3.009,0.805-4.603
							c-0.358-1.6-1.318-2.965-2.709-3.845c-0.98-0.617-2.109-0.944-3.266-0.944c-0.528,0-1.047,0.067-1.543,0.195
							c-2.561-4.187-8.652-10.455-13.189-13.792c1.813-0.628,3.05-1.435,4.212-2.188C148.183,77.782,149.369,77.021,151.612,76.645z
							 M155.492,49.72c0.388-0.614,1.054-0.98,1.783-0.98c0.399,0,0.79,0.113,1.125,0.325c0.48,0.304,0.813,0.775,0.937,1.33
							c0.122,0.546,0.024,1.106-0.279,1.584c-0.598,0.951-1.938,1.272-2.912,0.653l-0.094-0.063
							C155.135,51.923,154.89,50.673,155.492,49.72z M155.492,73.183c0.388-0.614,1.054-0.98,1.783-0.98
							c0.399,0,0.79,0.112,1.125,0.326c0.48,0.304,0.813,0.774,0.937,1.329c0.122,0.546,0.024,1.107-0.279,1.585
							c-0.598,0.95-1.938,1.271-2.912,0.652l-0.094-0.063C155.135,75.386,154.89,74.136,155.492,73.183z M155.492,99.485
							c0.388-0.613,1.054-0.979,1.783-0.979c0.399,0,0.79,0.112,1.125,0.325c0.48,0.304,0.813,0.775,0.937,1.33
							c0.122,0.547,0.024,1.106-0.279,1.584c-0.598,0.951-1.938,1.271-2.912,0.653l-0.094-0.063
							C155.135,101.688,154.89,100.439,155.492,99.485z"/>
					</g>
					<g>
						<path fill="#FFFEDB" d="M145.143,108.561c-1.165-1.36-2.858-2.139-4.648-2.139c-1.459,0-2.875,0.525-3.983,1.477
							c-1.612,1.383-2.326,3.429-2.087,5.397c-1.948,0.7-4.258,1.365-5.328,1.332c-0.821-0.044-1.302-0.346-2.224-0.972
							c-1.172-0.795-2.418-1.512-4.148-1.847c2.936-2.761,6.009-6.83,8.584-12.834c2.061-0.076,3.976-1.193,5.038-2.972
							c1.725-2.896,0.773-6.659-2.124-8.394c-0.949-0.565-2.032-0.864-3.134-0.864c-2.146,0-4.161,1.144-5.261,2.986
							c-0.838,1.405-1.079,3.05-0.678,4.636c0.351,1.393,1.16,2.59,2.302,3.429c-4.053,9.218-9.219,13.081-12.565,14.685
							c-0.128,0.045-0.248,0.101-0.36,0.168c-1.187,0.531-2.05,0.704-2.559,0.808v4c0.275-0.03,1.885-0.118,4.247-1.192
							c5.348-1.357,6.839-0.354,8.407,0.709c1.021,0.692,2.291,1.554,4.263,1.656c0.1,0.005,0.204,0.008,0.309,0.008
							c2.109,0,5.172-1.022,7.021-1.723c1.144,1.116,2.676,1.75,4.285,1.75l0,0c1.461,0,2.876-0.524,3.983-1.476
							c1.24-1.062,1.993-2.546,2.118-4.176C146.725,111.382,146.207,109.799,145.143,108.561z M129.269,91.785
							c0.386-0.645,1.066-1.03,1.819-1.03c0.378,0,0.752,0.104,1.078,0.297c1,0.601,1.331,1.899,0.735,2.898
							c-0.385,0.646-1.064,1.032-1.817,1.032c-0.379,0-0.755-0.104-1.084-0.301c-0.483-0.288-0.826-0.748-0.964-1.294
							C128.897,92.839,128.98,92.271,129.269,91.785z M141.871,114.147c-0.49,0.421-1.018,0.509-1.373,0.509
							c-0.621,0-1.207-0.269-1.608-0.734c-0.758-0.885-0.654-2.222,0.231-2.981c0.492-0.423,1.018-0.512,1.373-0.512
							c0.617,0,1.201,0.269,1.605,0.74c0.368,0.43,0.547,0.976,0.504,1.538S142.302,113.779,141.871,114.147z"/>
						<path fill="#FFFEDB" d="M120.968,45.662c0.07,0.019,0.142,0.034,0.212,0.046C121.107,45.696,121.037,45.681,120.968,45.662z"
							/>
						<path fill="#FFFEDB" d="M142.917,32.661c-0.357-1.599-1.317-2.964-2.708-3.844c-0.98-0.617-2.109-0.944-3.265-0.944
							c-2.117,0-4.053,1.066-5.174,2.85c-1.354,2.138-1.218,4.799,0.144,6.759c-3.646,4.124-8.706,4.313-9.942,4.293
							c-3.692-1.604-7.234-2.164-10.005-2.317v3.996c2.441,0.144,5.553,0.686,8.748,2.136c0.005,0.002,0.01,0.002,0.015,0.005
							c3.445,1.563,6.334,3.928,8.607,7.041c-0.136,0.173-0.265,0.352-0.382,0.538c-1.796,2.854-0.942,6.644,1.903,8.444
							c0.98,0.622,2.111,0.951,3.27,0.951c2.113,0,4.051-1.065,5.183-2.852c1.806-2.851,0.951-6.642-1.908-8.453
							c-1.384-0.871-3.092-1.113-4.667-0.755c-1.538-2.154-3.323-4.017-5.345-5.566c2.517-0.778,5.401-2.269,7.78-5.096
							c0.572,0.172,1.166,0.267,1.77,0.267c2.116,0,4.051-1.068,5.172-2.849C142.987,35.89,143.273,34.256,142.917,32.661z
							 M132.347,55.309c0.169-0.267,0.395-0.49,0.673-0.661c0.335-0.207,0.722-0.316,1.121-0.316c0.4,0,0.79,0.112,1.122,0.321
							c0.987,0.627,1.283,1.936,0.66,2.919c-0.392,0.618-1.063,0.988-1.795,0.988c-0.397,0-0.785-0.113-1.124-0.327
							C132.02,57.608,131.726,56.296,132.347,55.309z M138.726,35.121c-0.6,0.951-1.938,1.271-2.912,0.653l-0.096-0.063
							c-0.914-0.647-1.161-1.897-0.558-2.851c0.386-0.613,1.053-0.98,1.784-0.98c0.397,0,0.787,0.113,1.124,0.326
							c0.479,0.304,0.813,0.775,0.937,1.33C139.127,34.083,139.03,34.644,138.726,35.121z"/>
						<path fill="#FFFEDB" d="M151.612,73.645c0.425,1.035,1.136,1.962,2.109,2.649c0.072,0.052,0.151,0.105,0.283,0.191
							c0.981,0.621,2.11,0.949,3.268,0.949c2.116,0,4.052-1.068,5.173-2.849c0.875-1.375,1.16-3.01,0.805-4.604
							c-0.358-1.598-1.318-2.964-2.709-3.844c-0.98-0.617-2.109-0.944-3.266-0.944c-0.125,0-0.25,0.008-0.375,0.018
							c-0.71-3.157-0.919-7.769,0.035-11.265c0.112,0.011,0.225,0.024,0.337,0.024c2.116,0,4.052-1.067,5.173-2.849
							c0.875-1.375,1.16-3.009,0.805-4.604c-0.358-1.599-1.318-2.964-2.709-3.844c-0.98-0.617-2.109-0.944-3.266-0.944
							c-2.114,0-4.051,1.066-5.173,2.85c-1.604,2.532-1.12,5.804,1.024,7.765c0.021,0.02,0.048,0.037,0.071,0.059
							c-1.349,4.518-1.146,10.324-0.036,14.417c-0.144,0.132-0.294,0.254-0.426,0.399c-0.229,0.255-0.445,0.526-0.634,0.824
							c-0.318,0.502-0.551,1.033-0.71,1.578c-3.371,0.488-5.198,1.671-6.824,2.729c-2.035,1.324-3.961,2.572-9.636,2.665
							c-1.964-0.23-3.553-0.177-5.29-0.116c-1.431,0.052-2.91,0.106-4.849,0.003c-1.335-0.071-2.104-0.882-3.458-2.424
							c-1.803-2.055-4.219-4.648-9.369-5.022v4c3.295,0.3,4.796,1.888,6.356,3.667c1.487,1.694,3.175,3.615,6.256,3.782
							c2.118,0.114,3.76,0.052,5.208,0.001c2.491-0.092,4.453-0.161,7.855,0.684c2.607,0.643,12.099,9.673,14.773,14.322
							c-0.108,0.142-0.219,0.282-0.313,0.434c-1.743,2.755-1.026,6.385,1.619,8.251c0.072,0.052,0.151,0.104,0.283,0.191
							c0.981,0.621,2.11,0.948,3.268,0.948c2.116,0,4.052-1.068,5.173-2.849c0.875-1.374,1.16-3.009,0.805-4.603
							c-0.358-1.6-1.318-2.965-2.709-3.845c-0.98-0.617-2.109-0.944-3.266-0.944c-0.528,0-1.047,0.067-1.543,0.195
							c-2.561-4.187-8.652-10.455-13.189-13.792c1.813-0.628,3.05-1.435,4.212-2.188C148.183,74.782,149.369,74.021,151.612,73.645z
							 M155.492,46.72c0.388-0.614,1.054-0.98,1.783-0.98c0.399,0,0.79,0.113,1.125,0.325c0.48,0.304,0.813,0.775,0.937,1.33
							c0.122,0.546,0.024,1.106-0.279,1.584c-0.598,0.951-1.938,1.272-2.912,0.653l-0.094-0.063
							C155.135,48.923,154.89,47.673,155.492,46.72z M155.492,70.183c0.388-0.614,1.054-0.98,1.783-0.98
							c0.399,0,0.79,0.112,1.125,0.326c0.48,0.304,0.813,0.774,0.937,1.329c0.122,0.546,0.024,1.107-0.279,1.585
							c-0.598,0.95-1.938,1.271-2.912,0.652l-0.094-0.063C155.135,72.386,154.89,71.136,155.492,70.183z M155.492,96.485
							c0.388-0.613,1.054-0.979,1.783-0.979c0.399,0,0.79,0.112,1.125,0.325c0.48,0.304,0.813,0.775,0.937,1.33
							c0.122,0.547,0.024,1.106-0.279,1.584c-0.598,0.951-1.938,1.271-2.912,0.653l-0.094-0.063
							C155.135,98.688,154.89,97.439,155.492,96.485z"/>
					</g>
				</g>
			</g>
		</g>
	</g>
	<g>
		<g>
			<path fill="#BA478F" d="M26.333,162.7l9.656,36.655l9.656-36.655H63.13v54.607H49.817v-10.875l1.266-25.405l-10.734,36.28h-8.766
				l-10.688-36.093l1.266,25.218v10.875H8.897V162.7H26.333z"/>
			<path fill="#BA478F" d="M94.872,213.038c-2.529,3.422-5.922,5.132-10.178,5.132c-4.283,0-7.531-1.473-9.746-4.42
				c-2.213-2.946-3.32-7.237-3.32-12.872v-30.229h12.205v30.531c0.057,4.543,1.566,6.813,4.527,6.813
				c2.789,0,4.801-1.208,6.037-3.623v-33.722h12.291v46.659H95.218L94.872,213.038z"/>
			<path fill="#BA478F" d="M136.054,204.802c0-1.035-0.496-1.99-1.486-2.867c-0.992-0.877-3.199-2.063-6.621-3.559
				c-5.031-2.04-8.488-4.153-10.371-6.339c-1.883-2.185-2.824-4.901-2.824-8.15c0-4.082,1.473-7.453,4.42-10.112
				s6.85-3.989,11.709-3.989c5.117,0,9.213,1.323,12.289,3.968c3.076,2.646,4.615,6.195,4.615,10.651h-12.205
				c0-3.795-1.58-5.692-4.742-5.692c-1.295,0-2.357,0.403-3.191,1.208s-1.25,1.926-1.25,3.363c0,1.035,0.459,1.948,1.379,2.738
				c0.92,0.791,3.09,1.919,6.512,3.385c4.973,1.841,8.488,3.889,10.543,6.146c2.057,2.257,3.084,5.183,3.084,8.775
				c0,4.169-1.566,7.519-4.699,10.048c-3.135,2.53-7.246,3.795-12.334,3.795c-3.422,0-6.441-0.668-9.057-2.005
				s-4.664-3.198-6.145-5.585c-1.48-2.386-2.221-4.959-2.221-7.719h11.6c0.057,2.128,0.553,3.724,1.488,4.787
				c0.934,1.063,2.465,1.595,4.592,1.595C134.415,209.243,136.054,207.763,136.054,204.802z"/>
			<path fill="#BA478F" d="M155.503,159.573c0-1.897,0.605-3.449,1.813-4.657c1.207-1.207,2.816-1.812,4.83-1.812
				c2.012,0,3.621,0.604,4.828,1.812c1.209,1.208,1.813,2.76,1.813,4.657c0,1.869-0.598,3.422-1.789,4.657
				c-1.193,1.236-2.811,1.854-4.852,1.854c-2.043,0-3.66-0.618-4.852-1.854C156.101,162.995,155.503,161.442,155.503,159.573z
				 M168.312,217.308h-12.248v-46.659h12.248V217.308z"/>
			<path fill="#BA478F" d="M194.616,208.122c3.537,0,5.334-2.328,5.391-6.985h11.471c-0.057,5.088-1.623,9.2-4.699,12.333
				c-3.076,3.134-7.045,4.7-11.902,4.7c-6.01,0-10.594-1.868-13.756-5.605c-3.164-3.737-4.773-9.243-4.83-16.517v-3.709
				c0-7.331,1.559-12.922,4.678-16.774s7.727-5.779,13.822-5.779c5.145,0,9.199,1.589,12.16,4.766s4.471,7.684,4.527,13.52h-11.471
				c-0.029-2.645-0.459-4.678-1.293-6.102c-0.834-1.423-2.215-2.136-4.141-2.136c-2.127,0-3.65,0.76-4.57,2.278
				s-1.408,4.462-1.467,8.83v4.772c0,3.818,0.188,6.486,0.561,8.005s0.992,2.632,1.855,3.341
				C191.813,207.769,193.036,208.122,194.616,208.122z"/>
		</g>
		<g>
			<path fill="#EB743B" d="M3,286.308V231.7h18.561c6.375,0,11.242,1.289,14.602,3.867s5.039,6.32,5.039,11.226
				c0,2.782-0.609,5.203-1.828,7.266s-3.016,3.579-5.391,4.547c2.563,0.75,4.547,2.18,5.953,4.289s2.109,4.695,2.109,7.758
				c0,5.437-1.578,9.405-4.734,11.905c-3.156,2.501-7.906,3.75-14.25,3.75H3z M16.264,254.387h6.375
				c3.531-0.094,5.297-1.969,5.297-5.625c0-2.156-0.438-3.694-1.313-4.616s-2.219-1.383-4.031-1.383h-6.328V254.387z
				 M16.264,263.621v11.765h6.797c1.844,0,3.258-0.501,4.242-1.506c0.984-1.003,1.477-2.384,1.477-4.142
				c0-3.952-1.594-5.991-4.781-6.117H16.264z"/>
			<path fill="#EB743B" d="M73.17,251.421l-4.053-0.345c-3.336,0-5.592,1.466-6.771,4.398v30.833H50.1v-46.659h11.514l0.346,5.045
				c1.926-3.938,4.584-5.908,7.977-5.908c1.381,0,2.502,0.188,3.363,0.561L73.17,251.421z"/>
			<path fill="#EB743B" d="M100.295,286.308c-0.346-0.719-0.689-1.926-1.035-3.622c-2.186,2.99-5.146,4.484-8.883,4.484
				c-3.91,0-7.152-1.294-9.725-3.881c-2.572-2.588-3.859-5.937-3.859-10.048c0-4.887,1.559-8.668,4.68-11.342
				c3.117-2.674,7.611-4.038,13.475-4.097h3.709v-3.752c0-2.098-0.359-3.579-1.078-4.441s-1.768-1.294-3.148-1.294
				c-3.047,0-4.57,1.783-4.57,5.348H77.656c0-4.313,1.617-7.87,4.85-10.673c3.234-2.803,7.324-4.205,12.27-4.205
				c5.117,0,9.078,1.33,11.881,3.989s4.205,6.462,4.205,11.406v21.95c0.057,4.025,0.631,7.173,1.725,9.443v0.733H100.295z
				 M93.094,277.597c1.352,0,2.5-0.272,3.449-0.819c0.949-0.546,1.652-1.192,2.113-1.94v-9.703h-2.932
				c-2.07,0-3.703,0.662-4.895,1.983c-1.193,1.323-1.791,3.091-1.791,5.305C89.039,275.872,90.391,277.597,93.094,277.597z"/>
			<path fill="#EB743B" d="M119.701,228.573c0-1.897,0.604-3.449,1.811-4.657c1.207-1.207,2.818-1.812,4.83-1.812
				s3.623,0.604,4.83,1.812c1.207,1.208,1.811,2.76,1.811,4.657c0,1.869-0.596,3.422-1.789,4.657
				c-1.193,1.236-2.811,1.854-4.852,1.854s-3.658-0.618-4.852-1.854C120.297,231.995,119.701,230.442,119.701,228.573z
				 M132.508,286.308h-12.246v-46.659h12.246V286.308z"/>
			<path fill="#EB743B" d="M153.121,239.648l0.346,4.614c2.76-3.651,6.367-5.478,10.824-5.478c8.021,0,12.146,5.621,12.377,16.861
				v30.661H164.42v-29.755c0-2.645-0.395-4.564-1.186-5.757c-0.791-1.193-2.178-1.79-4.162-1.79c-2.213,0-3.938,1.136-5.174,3.406
				v33.896H141.65v-46.659H153.121z"/>
			<path fill="#EB743B" d="M198.918,276.26h18.457v10.048H184.43v-7.568l18.025-28.914h-17.596v-10.177h32.258v7.374L198.918,276.26
				z"/>
		</g>
	</g>
</g>
</svg>
