<?xml version="1.0" encoding="UTF-8" standalone="no"?>
<!-- Generator: Adobe Illustrator 16.0.0, SVG Export Plug-In . SVG Version: 6.00 Build 0)  -->

<svg
   xmlns:ns="&amp;ns_sfw;"
   xmlns:dc="http://purl.org/dc/elements/1.1/"
   xmlns:cc="http://creativecommons.org/ns#"
   xmlns:rdf="http://www.w3.org/1999/02/22-rdf-syntax-ns#"
   xmlns:svg="http://www.w3.org/2000/svg"
   xmlns="http://www.w3.org/2000/svg"
   xmlns:sodipodi="http://sodipodi.sourceforge.net/DTD/sodipodi-0.dtd"
   xmlns:inkscape="http://www.inkscape.org/namespaces/inkscape"
   version="1.1"
   id="Layer_1"
   x="0px"
   y="0px"
   width="100"
   height="100"
   viewBox="0 0 100 100"
   enable-background="new 0 0 445 100"
   xml:space="preserve"
   inkscape:version="0.91 r13725"
   sodipodi:docname="MusicBrainz_logo_small_no_text.svg"><defs
     id="defs5245" /><sodipodi:namedview
     pagecolor="#ffffff"
     bordercolor="#666666"
     borderopacity="1"
     objecttolerance="10"
     gridtolerance="10"
     guidetolerance="10"
     inkscape:pageopacity="0"
     inkscape:pageshadow="2"
     inkscape:window-width="1280"
     inkscape:window-height="759"
     id="namedview5243"
     showgrid="false"
     fit-margin-top="8"
     fit-margin-left="8"
     fit-margin-right="8"
     fit-margin-bottom="8"
     inkscape:zoom="1.4202247"
     inkscape:cx="89.330543"
     inkscape:cy="56"
     inkscape:window-x="0"
     inkscape:window-y="0"
     inkscape:window-maximized="1"
     inkscape:current-layer="g5207" /><metadata
     id="metadata5203"><ns:sfw><ns:slices /><ns:sliceSourceBounds
         height="96"
         width="439.999"
         y="-1358"
         x="2964"
         bottomLeftOrigin="true" /></ns:sfw><rdf:RDF><cc:Work
         rdf:about=""><dc:format>image/svg+xml</dc:format><dc:type
           rdf:resource="http://purl.org/dc/dcmitype/StillImage" /><dc:title></dc:title></cc:Work></rdf:RDF></metadata><g
     id="g5205" /><g
     id="g5207"><g
       id="g5209"
       transform="translate(4.5,0)"><polygon
         points="47,2 47,98 88,74 88,26 "
         id="polygon5211"
         style="fill:#eb743b" /><polygon
         points="44,2 3,26 3,74 44,98 "
         id="polygon5213"
         style="fill:#ba478f" /><path
         d="M 44,37 25,48 25,40 44,29 44,14 21.97,27.292 c -0.015,0.012 -0.025,0.022 -0.04,0.032 -0.063,0.039 -0.118,0.083 -0.177,0.13 -0.045,0.036 -0.095,0.072 -0.137,0.113 -0.047,0.044 -0.086,0.094 -0.129,0.144 -0.042,0.049 -0.087,0.096 -0.123,0.146 -0.037,0.054 -0.066,0.109 -0.098,0.166 -0.03,0.056 -0.063,0.109 -0.09,0.165 -0.026,0.061 -0.046,0.122 -0.065,0.183 -0.018,0.062 -0.041,0.122 -0.056,0.184 -0.015,0.058 -0.02,0.117 -0.028,0.18 -0.008,0.07 -0.02,0.143 -0.021,0.212 C 21.006,28.967 21,28.982 21,29 l 0,34 c -2,0 -4,0 -5.361,1.006 -3.118,2.304 -4.509,5.898 -2.857,8.382 1.653,2.482 5.607,2.76 8.834,0.612 1.844,-1.222 2.994,-3.264 3.385,-5 0.082,-0.219 0,-15 0,-15 l 19,-11 0,-5 z"
         id="path5215"
         inkscape:connector-curvature="0"
         style="fill:#fffedb" /><path
         d="m 79.281,58.087 c -1.239,-1.97 -3.38,-3.148 -5.718,-3.148 -0.666,0 -1.324,0.103 -1.956,0.295 -2.632,-3.125 -5.819,-4.775 -8.603,-5.636 2.235,-1.714 4.208,-3.771 5.909,-6.153 1.74,0.394 3.63,0.127 5.162,-0.832 3.158,-2.006 4.103,-6.197 2.104,-9.348 -1.249,-1.975 -3.39,-3.152 -5.724,-3.152 -1.283,0 -2.533,0.363 -3.616,1.05 -3.146,1.991 -4.093,6.181 -2.105,9.336 0.13,0.207 0.271,0.404 0.422,0.596 -2.514,3.442 -5.708,6.056 -9.519,7.785 l -0.014,0.004 C 52.093,50.487 50,51 47,51 l 0,5 c 4,0 5.931,-1.125 10.016,-2.898 1.366,-0.023 6.962,0.185 10.991,4.747 -1.507,2.164 -1.655,5.108 -0.16,7.471 1.241,1.97 3.382,3.15 5.721,3.15 1.278,0 2.524,-0.36 3.607,-1.044 1.538,-0.975 2.599,-2.482 2.995,-4.252 0.396,-1.761 0.078,-3.568 -0.889,-5.087 z M 69.061,34.67 c 0.423,-0.266 0.901,-0.405 1.396,-0.405 0.903,0 1.731,0.456 2.219,1.224 0.771,1.214 0.403,2.836 -0.818,3.61 -0.41,0.261 -0.896,0.398 -1.387,0.398 -0.493,0 -0.974,-0.134 -1.39,-0.391 -0.343,-0.213 -0.625,-0.489 -0.832,-0.817 -0.771,-1.225 -0.407,-2.846 0.812,-3.619 z m 7.058,27.6 c -0.154,0.687 -0.564,1.27 -1.161,1.645 -0.413,0.264 -0.896,0.406 -1.391,0.406 -0.906,0 -1.731,-0.457 -2.21,-1.218 -0.745,-1.18 -0.441,-2.727 0.691,-3.528 l 0.117,-0.078 c 1.208,-0.766 2.866,-0.367 3.608,0.808 0.378,0.591 0.498,1.286 0.346,1.965 z"
         id="path5217"
         inkscape:connector-curvature="0"
         style="fill:#fffedb" /></g><g
       id="g5219" /></g></svg>