<?xml version="1.0" encoding="utf-8"?>
<!-- Generator: Adobe Illustrator 16.0.0, SVG Export Plug-In . SVG Version: 6.00 Build 0)  -->
<!DOCTYPE svg PUBLIC "-//W3C//DTD SVG 1.1//EN" "http://www.w3.org/Graphics/SVG/1.1/DTD/svg11.dtd" [
	<!ENTITY ns_extend "http://ns.adobe.com/Extensibility/1.0/">
	<!ENTITY ns_ai "http://ns.adobe.com/AdobeIllustrator/10.0/">
	<!ENTITY ns_graphs "http://ns.adobe.com/Graphs/1.0/">
	<!ENTITY ns_vars "http://ns.adobe.com/Variables/1.0/">
	<!ENTITY ns_imrep "http://ns.adobe.com/ImageReplacement/1.0/">
	<!ENTITY ns_sfw "http://ns.adobe.com/SaveForWeb/1.0/">
	<!ENTITY ns_custom "http://ns.adobe.com/GenericCustomNamespace/1.0/">
	<!ENTITY ns_adobe_xpath "http://ns.adobe.com/XPath/1.0/">
]>
<svg version="1.1" id="Layer_1" xmlns:x="&ns_extend;" xmlns:i="&ns_ai;" xmlns:graph="&ns_graphs;"
	 xmlns="http://www.w3.org/2000/svg" xmlns:xlink="http://www.w3.org/1999/xlink" x="0px" y="0px" width="445px" height="100px"
	 viewBox="0 0 445 100" enable-background="new 0 0 445 100" xml:space="preserve">
<metadata>
	<sfw  xmlns="&ns_sfw;">
		<slices></slices>
		<sliceSourceBounds  height="96" width="439.999" y="-1358" x="2964" bottomLeftOrigin="true"></sliceSourceBounds>
	</sfw>
</metadata>
<g>
</g>
<g>
	<g>
		<polygon fill="#EB743B" points="47,2 47,98 88,74 88,26 		"/>
		<polygon fill="#BA478F" points="44,2 3,26 3,74 44,98 		"/>
		<path fill="#FFFEDB" d="M44,37L25,48v-8l19-11V14L21.97,27.292c-0.015,0.012-0.025,0.022-0.04,0.032
			c-0.063,0.039-0.118,0.083-0.177,0.13c-0.045,0.036-0.095,0.072-0.137,0.113c-0.047,0.044-0.086,0.094-0.129,0.144
			c-0.042,0.049-0.087,0.096-0.123,0.146c-0.037,0.054-0.066,0.109-0.098,0.166c-0.03,0.056-0.063,0.109-0.09,0.165
			c-0.026,0.061-0.046,0.122-0.065,0.183c-0.018,0.062-0.041,0.122-0.056,0.184c-0.015,0.058-0.02,0.117-0.028,0.18
			c-0.008,0.07-0.02,0.143-0.021,0.212C21.006,28.967,21,28.982,21,29v34c-2,0-4,0-5.361,1.006
			c-3.118,2.304-4.509,5.898-2.857,8.382c1.653,2.482,5.607,2.76,8.834,0.612c1.844-1.222,2.994-3.264,3.385-5
			c0.082-0.219,0-15,0-15l19-11V37z"/>
		<path fill="#FFFEDB" d="M79.281,58.087c-1.239-1.97-3.38-3.148-5.718-3.148c-0.666,0-1.324,0.103-1.956,0.295
			c-2.632-3.125-5.819-4.775-8.603-5.636c2.235-1.714,4.208-3.771,5.909-6.153c1.74,0.394,3.63,0.127,5.162-0.832
			c3.158-2.006,4.103-6.197,2.104-9.348c-1.249-1.975-3.39-3.152-5.724-3.152c-1.283,0-2.533,0.363-3.616,1.05
			c-3.146,1.991-4.093,6.181-2.105,9.336c0.13,0.207,0.271,0.404,0.422,0.596c-2.514,3.442-5.708,6.056-9.519,7.785l-0.014,0.004
			C52.093,50.487,50,51,47,51v5c4,0,5.931-1.125,10.016-2.898c1.366-0.023,6.962,0.185,10.991,4.747
			c-1.507,2.164-1.655,5.108-0.16,7.471c1.241,1.97,3.382,3.15,5.721,3.15c1.278,0,2.524-0.36,3.607-1.044
			c1.538-0.975,2.599-2.482,2.995-4.252C80.566,61.413,80.248,59.606,79.281,58.087z M69.061,34.67
			c0.423-0.266,0.901-0.405,1.396-0.405c0.903,0,1.731,0.456,2.219,1.224c0.771,1.214,0.403,2.836-0.818,3.61
			c-0.41,0.261-0.896,0.398-1.387,0.398c-0.493,0-0.974-0.134-1.39-0.391c-0.343-0.213-0.625-0.489-0.832-0.817
			C67.478,37.064,67.842,35.443,69.061,34.67z M76.119,62.27c-0.154,0.687-0.564,1.27-1.161,1.645
			c-0.413,0.264-0.896,0.406-1.391,0.406c-0.906,0-1.731-0.457-2.21-1.218c-0.745-1.18-0.441-2.727,0.691-3.528l0.117-0.078
			c1.208-0.766,2.866-0.367,3.608,0.808C76.151,60.896,76.271,61.591,76.119,62.27z"/>
	</g>
	<g>
		<path fill="#BA478F" d="M117.112,28.022l7.745,29.401l7.745-29.401h14.023v43.801h-10.678v-8.723l1.016-20.378l-8.61,29.101h-7.03
			l-8.572-28.95l1.015,20.228v8.723h-10.64V28.022H117.112z"/>
		<path fill="#BA478F" d="M172.086,68.398c-2.029,2.745-4.75,4.116-8.163,4.116c-3.436,0-6.041-1.181-7.816-3.545
			c-1.776-2.363-2.664-5.806-2.664-10.325V34.397h9.789v24.489c0.046,3.644,1.257,5.465,3.632,5.465
			c2.236,0,3.851-0.968,4.843-2.905V34.397h9.857v37.426h-9.2L172.086,68.398z"/>
		<path fill="#BA478F" d="M205.119,61.792c0-0.83-0.397-1.597-1.193-2.3c-0.795-0.703-2.565-1.654-5.31-2.854
			c-4.035-1.638-6.809-3.332-8.318-5.085c-1.511-1.752-2.266-3.932-2.266-6.537c0-3.274,1.182-5.979,3.545-8.111
			c2.364-2.133,5.494-3.199,9.392-3.199c4.104,0,7.39,1.061,9.857,3.182c2.468,2.122,3.701,4.97,3.701,8.544h-9.788
			c0-3.044-1.269-4.566-3.806-4.566c-1.037,0-1.891,0.323-2.56,0.969c-0.669,0.646-1.003,1.545-1.003,2.698
			c0,0.83,0.369,1.563,1.107,2.196c0.737,0.635,2.479,1.539,5.223,2.716c3.989,1.476,6.809,3.118,8.457,4.929
			s2.474,4.156,2.474,7.039c0,3.344-1.258,6.03-3.771,8.059c-2.514,2.03-5.812,3.044-9.893,3.044c-2.744,0-5.166-0.536-7.264-1.608
			c-2.099-1.072-3.742-2.564-4.93-4.479s-1.781-3.979-1.781-6.192h9.305c0.046,1.707,0.444,2.987,1.193,3.84
			c0.749,0.854,1.978,1.28,3.684,1.28C203.805,65.355,205.119,64.168,205.119,61.792z"/>
		<path fill="#BA478F" d="M220.72,25.713c0-1.522,0.484-2.768,1.453-3.736s2.26-1.452,3.874-1.452c1.613,0,2.905,0.483,3.874,1.452
			s1.452,2.214,1.452,3.736c0,1.499-0.479,2.744-1.435,3.735c-0.958,0.991-2.255,1.487-3.892,1.487
			c-1.638,0-2.935-0.496-3.892-1.487S220.72,27.212,220.72,25.713z M230.993,71.823h-9.823V34.397h9.823V71.823z"/>
		<path fill="#BA478F" d="M252.092,64.456c2.837,0,4.277-1.868,4.324-5.604h9.2c-0.046,4.081-1.303,7.379-3.77,9.893
			c-2.468,2.514-5.65,3.77-9.547,3.77c-4.82,0-8.498-1.498-11.034-4.496c-2.537-2.997-3.828-7.414-3.874-13.248v-2.975
			c0-5.88,1.251-10.365,3.753-13.455s6.197-4.635,11.086-4.635c4.128,0,7.379,1.274,9.754,3.821
			c2.375,2.549,3.586,6.163,3.632,10.845h-9.2c-0.023-2.121-0.369-3.752-1.038-4.895c-0.669-1.142-1.775-1.713-3.32-1.713
			c-1.707,0-2.929,0.609-3.667,1.828c-0.738,1.218-1.13,3.578-1.176,7.082v3.828c0,3.063,0.149,5.203,0.45,6.421
			c0.299,1.218,0.795,2.111,1.487,2.68C249.844,64.172,250.823,64.456,252.092,64.456z"/>
		<path fill="#EB743B" d="M271.047,71.823V28.022h14.889c5.113,0,9.017,1.034,11.711,3.102c2.694,2.068,4.042,5.07,4.042,9.005
			c0,2.231-0.488,4.173-1.466,5.827s-2.42,2.871-4.324,3.647c2.055,0.602,3.647,1.748,4.775,3.439
			c1.128,1.692,1.691,3.767,1.691,6.223c0,4.361-1.266,7.545-3.797,9.55c-2.532,2.006-6.342,3.008-11.43,3.008H271.047z
			 M281.687,46.22h5.113c2.832-0.075,4.249-1.579,4.249-4.512c0-1.729-0.352-2.964-1.053-3.703c-0.702-0.739-1.78-1.109-3.233-1.109
			h-5.076V46.22z M281.687,53.626v9.438h5.452c1.479,0,2.612-0.402,3.402-1.208c0.789-0.805,1.185-1.912,1.185-3.322
			c0-3.171-1.278-4.806-3.835-4.907H281.687z"/>
		<path fill="#EB743B" d="M327.331,43.841l-3.251-0.277c-2.676,0-4.485,1.176-5.431,3.528v24.731h-9.823V34.397h9.235l0.276,4.047
			c1.545-3.159,3.678-4.738,6.399-4.738c1.106,0,2.006,0.149,2.698,0.449L327.331,43.841z"/>
		<path fill="#EB743B" d="M349.089,71.823c-0.276-0.576-0.554-1.545-0.83-2.905c-1.753,2.398-4.128,3.597-7.126,3.597
			c-3.136,0-5.736-1.037-7.8-3.112c-2.063-2.076-3.096-4.762-3.096-8.06c0-3.92,1.251-6.952,3.753-9.097
			c2.502-2.146,6.105-3.24,10.81-3.286h2.975v-3.01c0-1.683-0.289-2.871-0.865-3.563s-1.418-1.038-2.524-1.038
			c-2.444,0-3.667,1.431-3.667,4.289h-9.788c0-3.459,1.297-6.313,3.891-8.561c2.595-2.248,5.875-3.372,9.841-3.372
			c4.104,0,7.281,1.066,9.529,3.199c2.249,2.133,3.373,5.183,3.373,9.148V63.66c0.046,3.229,0.507,5.754,1.383,7.575v0.588H349.089z
			 M343.313,64.836c1.083,0,2.006-0.219,2.767-0.657c0.762-0.438,1.326-0.956,1.695-1.557V54.84h-2.353
			c-1.66,0-2.969,0.53-3.926,1.591c-0.957,1.062-1.436,2.479-1.436,4.255C340.061,63.452,341.145,64.836,343.313,64.836z"/>
		<path fill="#EB743B" d="M364.653,25.713c0-1.522,0.484-2.768,1.453-3.736s2.26-1.452,3.874-1.452c1.613,0,2.905,0.483,3.874,1.452
			s1.452,2.214,1.452,3.736c0,1.499-0.479,2.744-1.435,3.735c-0.958,0.991-2.255,1.487-3.892,1.487
			c-1.638,0-2.935-0.496-3.892-1.487S364.653,27.212,364.653,25.713z M374.927,71.823h-9.823V34.397h9.823V71.823z"/>
		<path fill="#EB743B" d="M391.461,34.397l0.276,3.701c2.214-2.929,5.107-4.393,8.683-4.393c6.434,0,9.742,4.508,9.927,13.524
			v24.593h-9.823V47.956c0-2.121-0.317-3.66-0.951-4.617c-0.635-0.957-1.747-1.436-3.338-1.436c-1.776,0-3.16,0.911-4.151,2.732
			v27.188h-9.823V34.397H391.461z"/>
		<path fill="#EB743B" d="M428.195,63.764h14.804v8.06h-26.426v-6.07l14.458-23.192h-14.112v-8.163h25.873v5.915L428.195,63.764z"/>
	</g>
</g>
</svg>
