<?xml version="1.0" encoding="utf-8"?>
<!-- Generator: Adobe Illustrator 16.0.0, SVG Export Plug-In . SVG Version: 6.00 Build 0)  -->
<!DOCTYPE svg PUBLIC "-//W3C//DTD SVG 1.1//EN" "http://www.w3.org/Graphics/SVG/1.1/DTD/svg11.dtd" [
	<!ENTITY ns_extend "http://ns.adobe.com/Extensibility/1.0/">
	<!ENTITY ns_ai "http://ns.adobe.com/AdobeIllustrator/10.0/">
	<!ENTITY ns_graphs "http://ns.adobe.com/Graphs/1.0/">
	<!ENTITY ns_vars "http://ns.adobe.com/Variables/1.0/">
	<!ENTITY ns_imrep "http://ns.adobe.com/ImageReplacement/1.0/">
	<!ENTITY ns_sfw "http://ns.adobe.com/SaveForWeb/1.0/">
	<!ENTITY ns_custom "http://ns.adobe.com/GenericCustomNamespace/1.0/">
	<!ENTITY ns_adobe_xpath "http://ns.adobe.com/XPath/1.0/">
]>
<svg version="1.1" id="Layer_1" xmlns:x="&ns_extend;" xmlns:i="&ns_ai;" xmlns:graph="&ns_graphs;"
	 xmlns="http://www.w3.org/2000/svg" xmlns:xlink="http://www.w3.org/1999/xlink" x="0px" y="0px" width="191px" height="30px"
	 viewBox="0 0 191 30" enable-background="new 0 0 191 30" xml:space="preserve">
<metadata>
	<sfw  xmlns="&ns_sfw;">
		<slices></slices>
		<sliceSourceBounds  height="28" width="186.355" y="-914" x="3147" bottomLeftOrigin="true"></sliceSourceBounds>
	</sfw>
</metadata>
<g>
</g>
<g>
	<g>
		<polygon fill="#BA478F" points="14,1 2,8 2,22 14,29 		"/>
		<polygon fill="#EB743B" points="15,1 27,8 27,22 15,29 		"/>
	</g>
	<g>
		<path fill="#BA478F" d="M41.311,5.236l3.495,13.267L48.3,5.236h6.328V25H49.81v-3.936l0.459-9.195L46.383,25h-3.172l-3.868-13.063
			l0.458,9.127V25H35V5.236H41.311z"/>
		<path fill="#BA478F" d="M66.116,23.455c-0.915,1.238-2.144,1.857-3.683,1.857c-1.551,0-2.727-0.533-3.527-1.6
			c-0.802-1.067-1.202-2.62-1.202-4.659V8.113h4.417v11.05c0.021,1.644,0.567,2.466,1.639,2.466c1.01,0,1.737-0.438,2.186-1.312
			V8.113h4.447V25h-4.151L66.116,23.455z"/>
		<path fill="#BA478F" d="M81.021,20.474c0-0.374-0.179-0.72-0.538-1.038c-0.359-0.316-1.157-0.746-2.396-1.287
			c-1.821-0.738-3.072-1.503-3.754-2.294s-1.022-1.774-1.022-2.95c0-1.478,0.533-2.697,1.601-3.66
			c1.066-0.962,2.479-1.443,4.237-1.443c1.852,0,3.334,0.479,4.447,1.436c1.113,0.958,1.67,2.243,1.67,3.855H80.85
			c0-1.373-0.572-2.061-1.717-2.061c-0.469,0-0.854,0.146-1.155,0.438s-0.453,0.697-0.453,1.217c0,0.375,0.167,0.705,0.5,0.991
			s1.118,0.694,2.356,1.226c1.8,0.666,3.072,1.407,3.816,2.224c0.743,0.817,1.115,1.876,1.115,3.176
			c0,1.509-0.566,2.722-1.701,3.637c-1.134,0.916-2.622,1.374-4.463,1.374c-1.238,0-2.331-0.242-3.278-0.727
			c-0.946-0.483-1.688-1.157-2.224-2.021s-0.804-1.795-0.804-2.794h4.198c0.021,0.771,0.2,1.348,0.538,1.732
			c0.339,0.385,0.893,0.577,1.662,0.577C80.428,22.081,81.021,21.546,81.021,20.474z"/>
		<path fill="#BA478F" d="M88.06,3.743c0-0.687,0.219-1.249,0.655-1.686c0.438-0.438,1.02-0.655,1.748-0.655
			s1.312,0.218,1.748,0.655c0.438,0.437,0.656,0.999,0.656,1.686c0,0.677-0.217,1.238-0.648,1.686S91.202,6.1,90.463,6.1
			c-0.738,0-1.324-0.224-1.756-0.671S88.06,4.42,88.06,3.743z M92.695,25h-4.433V8.113h4.433V25z"/>
		<path fill="#BA478F" d="M102.216,21.676c1.28,0,1.93-0.843,1.951-2.528h4.151c-0.021,1.842-0.588,3.329-1.701,4.464
			c-1.113,1.134-2.55,1.701-4.308,1.701c-2.175,0-3.834-0.677-4.979-2.029s-1.728-3.345-1.748-5.978v-1.342
			c0-2.653,0.564-4.677,1.693-6.071s2.796-2.092,5.002-2.092c1.862,0,3.329,0.575,4.401,1.725c1.071,1.149,1.617,2.781,1.639,4.893
			h-4.151c-0.011-0.957-0.167-1.692-0.469-2.208c-0.302-0.515-0.801-0.772-1.498-0.772c-0.771,0-1.321,0.274-1.654,0.824
			s-0.51,1.615-0.53,3.195v1.728c0,1.382,0.067,2.348,0.202,2.897c0.136,0.55,0.359,0.952,0.672,1.209
			C101.201,21.548,101.644,21.676,102.216,21.676z"/>
		<path fill="#EB743B" d="M110.769,25V5.236h6.718c2.308,0,4.068,0.467,5.285,1.399c1.215,0.934,1.823,2.288,1.823,4.063
			c0,1.007-0.221,1.883-0.662,2.629c-0.44,0.747-1.091,1.296-1.95,1.646c0.927,0.271,1.646,0.789,2.154,1.553
			s0.764,1.699,0.764,2.808c0,1.968-0.571,3.404-1.714,4.309c-1.143,0.905-2.861,1.357-5.157,1.357H110.769z M115.569,13.447h2.308
			c1.277-0.034,1.917-0.713,1.917-2.036c0-0.78-0.159-1.337-0.476-1.671c-0.316-0.333-0.803-0.5-1.459-0.5h-2.29V13.447z
			 M115.569,16.789v4.258h2.46c0.667,0,1.179-0.181,1.535-0.545c0.356-0.362,0.534-0.862,0.534-1.499
			c0-1.43-0.576-2.168-1.729-2.214H115.569z"/>
		<path fill="#EB743B" d="M136.164,12.374l-1.467-0.125c-1.207,0-2.023,0.53-2.45,1.592V25h-4.433V8.113h4.167l0.125,1.826
			c0.697-1.426,1.659-2.139,2.888-2.139c0.499,0,0.905,0.068,1.217,0.203L136.164,12.374z"/>
		<path fill="#EB743B" d="M145.981,25c-0.125-0.26-0.25-0.697-0.375-1.311c-0.791,1.082-1.862,1.623-3.215,1.623
			c-1.415,0-2.589-0.469-3.52-1.405c-0.932-0.937-1.396-2.148-1.396-3.636c0-1.77,0.564-3.138,1.693-4.105s2.754-1.461,4.877-1.482
			h1.342v-1.357c0-0.76-0.13-1.296-0.39-1.607c-0.261-0.313-0.64-0.469-1.14-0.469c-1.103,0-1.654,0.646-1.654,1.936h-4.417
			c0-1.561,0.586-2.849,1.756-3.863c1.171-1.015,2.65-1.521,4.44-1.521c1.852,0,3.285,0.481,4.3,1.443
			c1.015,0.963,1.521,2.339,1.521,4.129v7.943c0.021,1.457,0.229,2.597,0.625,3.418V25H145.981z M143.375,21.848
			c0.488,0,0.905-0.099,1.248-0.297c0.344-0.197,0.599-0.432,0.765-0.702v-3.512h-1.061c-0.749,0-1.34,0.239-1.771,0.718
			s-0.647,1.119-0.647,1.92C141.908,21.223,142.396,21.848,143.375,21.848z"/>
		<path fill="#EB743B" d="M153.005,3.743c0-0.687,0.219-1.249,0.655-1.686c0.438-0.438,1.02-0.655,1.748-0.655
			s1.312,0.218,1.748,0.655c0.438,0.437,0.656,0.999,0.656,1.686c0,0.677-0.217,1.238-0.648,1.686S156.147,6.1,155.408,6.1
			c-0.738,0-1.324-0.224-1.756-0.671S153.005,4.42,153.005,3.743z M157.641,25h-4.433V8.113h4.433V25z"/>
		<path fill="#EB743B" d="M165.1,8.113l0.125,1.67c0.999-1.321,2.305-1.982,3.918-1.982c2.902,0,4.396,2.034,4.479,6.103V25h-4.432
			V14.231c0-0.958-0.144-1.652-0.43-2.084s-0.788-0.647-1.506-0.647c-0.802,0-1.426,0.411-1.873,1.232V25h-4.433V8.113H165.1z"/>
		<path fill="#EB743B" d="M181.675,21.363h6.681V25h-11.924v-2.739l6.523-10.465h-6.368V8.113h11.675v2.669L181.675,21.363z"/>
	</g>
</g>
</svg>
