<svg id="Layer_1" data-name="Layer 1" xmlns="http://www.w3.org/2000/svg" xmlns:xlink="http://www.w3.org/1999/xlink" viewBox="0 0 27 30"><defs><style>.cls-1,.cls-8,.cls-9{fill:none;}.cls-2{fill:#b50437;}.cls-3{clip-path:url(#clip-path);}.cls-10,.cls-4,.cls-6{fill:#8e0324;}.cls-10,.cls-4,.cls-8{stroke:#8e0324;}.cls-10,.cls-11,.cls-4,.cls-5,.cls-8,.cls-9{stroke-width:1.5px;}.cls-11,.cls-5,.cls-7{fill:#fffedb;}.cls-11,.cls-5,.cls-9{stroke:#fffedb;}.cls-10,.cls-11{stroke-linecap:square;stroke-linejoin:round;}.cls-12{fill:#eb743b;}</style><clipPath id="clip-path"><polygon class="cls-1" points="2.08 21.63 2.08 8.37 13.06 2.11 13.06 27.87 2.08 21.63"/></clipPath></defs><polygon class="cls-2" points="13.06 1 1.1 7.81 1.1 22.19 13.06 29 13.06 1"/><g class="cls-3"><g id="section"><polyline id="background" class="cls-4" points="0.93 11.69 0.74 11.82 0.58 11.98 0.45 12.16 0.33 12.36 0.25 12.57 0.2 12.79 0.17 13.01 0.17 13.23 0.21 13.46 0.28 13.67 0.37 13.88 0.49 14.07 0.64 14.24 0.81 14.39 0.99 14.52 1.2 14.62 1.41 14.69 1.64 14.74 1.86 14.75 2.09 14.73 2.31 14.69 2.52 14.61 2.73 14.51 2.91 14.38 3.08 14.22 3.22 14.05 3.34 13.86 3.43 13.65 3.49 13.33 3.56 13.08 4.07 13.22 4 13.47 3.94 13.79 3.82 14.06 3.67 14.32 3.49 14.55 3.27 14.76 3.03 14.93 2.77 15.07 2.49 15.18 2.2 15.24 1.91 15.27 1.61 15.26 1.32 15.21 1.03 15.12 0.76 14.99 0.52 14.82 0.29 14.63 0.1 14.41 -0.07 14.16 -0.2 13.89 -0.29 13.61 -0.34 13.32 -0.35 13.03 -0.33 12.73 -0.26 12.45 -0.15 12.17 -0.01 11.91 0.16 11.67 0.37 11.46 0.6 11.28"/><polyline id="background-2" data-name="background" class="cls-5" points="0.93 8.69 0.74 8.82 0.58 8.98 0.45 9.16 0.33 9.36 0.25 9.57 0.2 9.79 0.17 10.01 0.17 10.23 0.21 10.46 0.28 10.67 0.37 10.88 0.49 11.07 0.64 11.24 0.81 11.39 0.99 11.52 1.2 11.62 1.41 11.69 1.64 11.74 1.86 11.75 2.09 11.73 2.31 11.69 2.52 11.61 2.73 11.51 2.91 11.38 3.08 11.22 3.22 11.05 3.34 10.86 3.43 10.65 3.49 10.33 3.56 10.08 4.07 10.22 4 10.47 3.94 10.79 3.82 11.06 3.67 11.32 3.49 11.55 3.27 11.76 3.03 11.93 2.77 12.07 2.49 12.18 2.2 12.24 1.91 12.27 1.61 12.26 1.32 12.21 1.03 12.12 0.76 11.99 0.52 11.82 0.29 11.63 0.1 11.41 -0.07 11.16 -0.2 10.89 -0.29 10.61 -0.34 10.32 -0.35 10.03 -0.33 9.73 -0.26 9.45 -0.15 9.17 -0.01 8.91 0.16 8.67 0.37 8.46 0.6 8.28"/></g><g id="section-2" data-name="section"><polyline id="background-3" data-name="background" class="cls-4" points="3.49 14.16 3.69 13.94 3.86 13.7 4 13.44 4.09 13.16 4.15 12.87 4.17 12.57 4.15 12.28 4.09 11.99 3.99 11.71 3.85 11.45 3.68 11.21 3.48 10.99 3.25 10.8 2.99 10.65 2.72 10.53 2.43 10.45 2.14 10.4 -1.54 10.33 -1.8 10.33 -1.81 10.85 -1.55 10.85 2.13 10.92 2.35 10.96 2.57 11.03 2.77 11.12 2.97 11.24 3.14 11.39 3.29 11.56 3.42 11.74 3.52 11.95 3.59 12.16 3.63 12.38 3.65 12.61 3.63 12.83 3.58 13.05 3.5 13.26 3.4 13.46 3.26 13.64 3.11 13.81"/><polyline id="background-4" data-name="background" class="cls-5" points="3.49 11.16 3.69 10.94 3.86 10.7 4 10.44 4.09 10.16 4.15 9.87 4.17 9.57 4.15 9.28 4.09 8.99 3.99 8.71 3.85 8.45 3.68 8.21 3.48 7.99 3.25 7.8 2.99 7.65 2.72 7.53 2.43 7.45 2.14 7.4 -1.54 7.33 -1.8 7.33 -1.81 7.85 -1.55 7.85 2.13 7.92 2.35 7.96 2.57 8.03 2.77 8.12 2.97 8.24 3.14 8.39 3.29 8.56 3.42 8.74 3.52 8.95 3.59 9.16 3.63 9.38 3.65 9.61 3.63 9.83 3.58 10.05 3.5 10.26 3.4 10.46 3.26 10.64 3.11 10.81"/></g><polyline id="background-5" data-name="background" class="cls-6" points="9.21 18 9.25 17.96 9.3 17.93 9.34 17.91 9.39 17.88 9.63 17.74 9.69 17.71 9.75 17.68 9.82 17.65 9.89 17.62 9.95 17.6 9.99 17.59 10.01 17.58 10.03 17.57 10.05 17.57 10.07 17.56 10.09 17.55 10.12 17.55 10.14 17.54 10.53 17.46 10.56 17.45 10.6 17.44 10.63 17.44 10.67 17.43 10.71 17.43 10.75 17.42 10.79 17.42 10.84 17.42 10.89 17.41 13.92 17.41 14.04 17.41 14.04 16.64 13.92 16.64 10.89 16.64 10.82 16.64 10.76 16.65 10.69 16.65 10.63 16.66 10.57 16.66 10.52 16.67 10.47 16.68 10.42 16.69 10.37 16.7 9.97 16.79 9.93 16.8 9.9 16.8 9.87 16.81 9.84 16.82 9.8 16.83 9.78 16.84 9.75 16.85 9.7 16.86 9.63 16.89 9.53 16.93 9.44 16.97 9.35 17.01 9.27 17.05 9 17.2 8.93 17.25 8.87 17.29 8.81 17.33 8.75 17.37"/><polyline id="background-6" data-name="background" class="cls-7" points="9.21 14.99 9.25 14.96 9.3 14.94 9.34 14.9 9.39 14.88 9.63 14.74 9.69 14.71 9.75 14.68 9.82 14.65 9.89 14.62 9.95 14.6 9.99 14.59 10.01 14.58 10.03 14.57 10.05 14.57 10.07 14.56 10.09 14.55 10.12 14.55 10.14 14.54 10.53 14.46 10.56 14.45 10.6 14.44 10.63 14.44 10.67 14.43 10.71 14.43 10.75 14.42 10.79 14.42 10.84 14.42 10.89 14.41 13.92 14.41 14.04 14.41 14.04 13.64 13.92 13.64 10.89 13.64 10.82 13.64 10.76 13.65 10.69 13.65 10.63 13.66 10.57 13.66 10.52 13.67 10.47 13.68 10.42 13.69 10.37 13.7 9.97 13.79 9.93 13.8 9.9 13.8 9.87 13.81 9.84 13.82 9.8 13.83 9.78 13.84 9.75 13.85 9.7 13.87 9.63 13.89 9.53 13.93 9.44 13.97 9.35 14.01 9.27 14.05 9 14.2 8.93 14.25 8.87 14.29 8.81 14.33 8.75 14.37"/><polyline id="background-7" data-name="background" class="cls-6" points="8.61 18.66 8.62 18.64 8.63 18.63 8.63 18.62 8.64 18.6 8.65 18.59 8.66 18.57 8.67 18.55 8.68 18.54 8.7 18.52 8.71 18.5 8.72 18.48 8.73 18.46 8.75 18.44 8.77 18.42 8.78 18.4 8.8 18.38 8.82 18.35 8.84 18.33 8.86 18.3 8.88 18.28 8.9 18.25 8.93 18.23 8.96 18.2 8.99 18.18 9.02 18.15 9.05 18.12 9.08 18.09 9.12 18.07 9.17 18.03 9.21 18 8.75 17.37 8.7 17.41 8.65 17.44 8.6 17.48 8.55 17.52 8.51 17.56 8.46 17.6 8.42 17.64 8.38 17.68 8.35 17.71 8.31 17.75 8.28 17.79 8.25 17.82 8.22 17.85 8.19 17.89 8.17 17.92 8.14 17.95 8.12 17.98 8.1 18.01 8.08 18.04 8.06 18.06 8.04 18.09 8.03 18.12 8.01 18.14 8 18.16 7.98 18.19 7.97 18.21 7.96 18.23 7.95 18.25 7.93 18.27 7.92 18.29"/><polyline id="background-8" data-name="background" class="cls-7" points="8.61 15.66 8.62 15.64 8.63 15.63 8.63 15.62 8.64 15.6 8.65 15.59 8.66 15.57 8.67 15.55 8.68 15.54 8.7 15.52 8.71 15.5 8.72 15.48 8.73 15.46 8.75 15.44 8.77 15.42 8.78 15.4 8.8 15.38 8.82 15.35 8.84 15.33 8.86 15.3 8.88 15.28 8.9 15.26 8.93 15.23 8.96 15.2 8.99 15.18 9.02 15.15 9.05 15.12 9.08 15.09 9.12 15.06 9.17 15.03 9.21 14.99 8.75 14.37 8.7 14.41 8.65 14.44 8.6 14.48 8.55 14.52 8.51 14.56 8.46 14.6 8.42 14.64 8.38 14.68 8.35 14.71 8.31 14.75 8.28 14.79 8.25 14.82 8.22 14.85 8.19 14.89 8.17 14.92 8.14 14.95 8.12 14.98 8.1 15.01 8.08 15.04 8.06 15.06 8.04 15.09 8.03 15.12 8.01 15.14 8 15.16 7.98 15.19 7.97 15.21 7.96 15.23 7.95 15.25 7.93 15.27 7.92 15.29"/><g id="section-3" data-name="section"><polyline id="background-9" data-name="background" class="cls-4" points="-5.89 13.23 5.64 19.5 5.92 19.61 6.21 19.67 6.51 19.7 6.81 19.69 7.1 19.64 7.38 19.55 7.65 19.42 7.9 19.26 8.13 19.06 8.32 18.84 8.49 18.59 8.02 18.36 7.89 18.55 7.73 18.72 7.56 18.86 7.37 18.98 7.16 19.08 6.94 19.14 6.72 19.18 6.49 19.18 6.26 19.16 6.04 19.1 5.83 19.02 -5.63 12.78"/><polyline id="background-10" data-name="background" class="cls-5" points="-5.89 10.23 5.64 16.5 5.92 16.61 6.21 16.67 6.51 16.7 6.81 16.69 7.1 16.64 7.38 16.55 7.65 16.42 7.9 16.26 8.13 16.06 8.32 15.84 8.49 15.6 8.02 15.37 7.89 15.55 7.73 15.72 7.56 15.86 7.37 15.98 7.16 16.08 6.94 16.14 6.72 16.18 6.49 16.18 6.26 16.16 6.04 16.1 5.83 16.02 -5.63 9.78"/></g><g id="section-4" data-name="section"><path id="background-11" data-name="background" class="cls-4" d="M1,22.28l.19,1.06.09.28.13.27.16.24.2.22.22.2.25.16.27.13.28.09L3,25l.3,0,.3,0,.29-.07.28-.1.26-.14c.86-.43.49-.87,1.71-.87l0-.56c-1-.15-1.39.71-2,1l-.2.11-.21.07-.23.05-.22,0-.23,0-.22,0-.22-.07-.2-.11-.19-.12L2.08,24l-.15-.18-.12-.19-.1-.2-.06-.22L.88,20.82"/><path id="background-12" data-name="background" class="cls-5" d="M1,19.28l.19,1.06.09.28.13.27.16.24.2.22.22.2.25.16.27.13.28.09L3,22l.3,0,.3,0,.29-.07.28-.1.26-.14c.86-.43.49-.87,1.71-.87l0-.56c-1-.15-1.39.71-2,1l-.2.11-.21.07-.23.05-.22,0-.23,0-.22,0-.22-.07-.2-.11-.19-.12L2.08,21l-.15-.18-.12-.19-.1-.2-.06-.22L.88,17.82"/></g><g id="section-5" data-name="section"><polyline id="background-13" data-name="background" class="cls-4" points="6.15 23.23 6.43 23.33 6.69 23.47 6.93 23.65 7.15 23.85 7.33 24.08 7.48 24.34 7.6 24.61 7.67 24.9 7.71 25.19 7.71 25.48 7.67 25.78 7.59 26.06 7.47 26.33 7.31 26.59 7.12 26.81 6.91 27.02 6.66 27.19 6.4 27.32 6.12 27.43 5.83 27.49 5.53 27.51 1.9 27.33 1.67 27.34 1.45 27.39 1.23 27.47 1.03 27.57 0.85 27.7 -0.51 28.98 -0.76 29.15 -1.02 29.29 -1.3 29.39 -1.59 29.45 -1.89 29.48 -2.18 29.46 -2.48 29.4 -2.76 29.31 -3.02 29.18 -3.27 29.01 -3.49 28.81 -3.69 28.59 -3.85 28.34 -3.97 28.07 -4.06 27.79 -3.54 27.7 -3.47 27.91 -3.37 28.11 -3.25 28.3 -3.1 28.47 -2.92 28.62 -2.73 28.74 -2.53 28.84 -2.31 28.91 -2.09 28.95 -1.86 28.96 -1.64 28.93 -1.41 28.88 -1.2 28.8 -1 28.69 -0.82 28.56 0.48 27.32 0.72 27.15 0.99 27.01 1.26 26.9 1.55 26.84 1.85 26.81 5.56 26.99 5.78 26.97 6 26.92 6.22 26.84 6.42 26.73 6.6 26.59 6.76 26.44 6.9 26.26 7.02 26.07 7.1 25.86 7.16 25.64 7.19 25.41 7.19 25.19 7.16 24.97 7.09 24.75 7 24.55 6.88 24.35 6.74 24.18 6.57 24.02 6.38 23.89 6.18 23.79 5.97 23.71"/><polyline id="background-14" data-name="background" class="cls-5" points="6.15 20.23 6.43 20.33 6.69 20.47 6.93 20.65 7.15 20.85 7.33 21.08 7.48 21.34 7.6 21.61 7.67 21.9 7.71 22.19 7.71 22.48 7.67 22.78 7.59 23.06 7.47 23.33 7.31 23.59 7.12 23.81 6.91 24.02 6.66 24.19 6.4 24.32 6.12 24.43 5.83 24.49 5.53 24.51 1.9 24.33 1.67 24.34 1.45 24.39 1.23 24.47 1.03 24.57 0.85 24.7 -0.51 25.98 -0.76 26.15 -1.02 26.29 -1.3 26.39 -1.59 26.45 -1.89 26.48 -2.18 26.46 -2.48 26.4 -2.76 26.31 -3.02 26.18 -3.27 26.01 -3.49 25.81 -3.69 25.59 -3.85 25.34 -3.97 25.07 -4.06 24.79 -3.54 24.7 -3.47 24.91 -3.37 25.11 -3.25 25.3 -3.1 25.47 -2.92 25.62 -2.73 25.74 -2.53 25.84 -2.31 25.91 -2.09 25.95 -1.86 25.96 -1.64 25.93 -1.41 25.88 -1.2 25.8 -1 25.69 -0.82 25.56 0.48 24.32 0.72 24.15 0.99 24.01 1.26 23.9 1.55 23.84 1.85 23.81 5.56 23.99 5.78 23.97 6 23.92 6.22 23.84 6.42 23.73 6.6 23.59 6.76 23.44 6.9 23.26 7.02 23.07 7.1 22.86 7.16 22.64 7.19 22.41 7.19 22.19 7.16 21.97 7.09 21.75 7 21.55 6.88 21.35 6.74 21.18 6.57 21.02 6.38 20.89 6.18 20.79 5.97 20.71"/></g><g id="section-6" data-name="section"><polyline id="background-15" data-name="background" class="cls-4" points="-0.64 21.68 2.87 19.82 3.11 19.65 3.32 19.44 3.51 19.21 3.66 18.95 3.77 18.68 3.85 18.4 3.89 18.1 3.89 17.81 3.85 17.52 3.76 17.23 3.64 16.96 3.49 16.71 3.3 16.48 3.08 16.28 0.98 14.78 0.82 14.62 0.41 14.95 0.62 15.15 2.78 16.7 2.94 16.86 3.08 17.03 3.19 17.23 3.28 17.44 3.34 17.66 3.37 17.88 3.37 18.1 3.33 18.33 3.27 18.54 3.18 18.75 3.06 18.94 2.91 19.12 2.75 19.27 2.56 19.4 -0.88 21.22"/><polyline id="background-16" data-name="background" class="cls-5" points="-0.64 18.68 2.87 16.82 3.11 16.65 3.32 16.44 3.51 16.21 3.66 15.96 3.77 15.68 3.85 15.4 3.89 15.1 3.89 14.81 3.85 14.52 3.76 14.23 3.64 13.96 3.49 13.71 3.3 13.48 3.08 13.28 0.98 11.78 0.82 11.62 0.41 11.95 0.62 12.15 2.78 13.7 2.94 13.86 3.08 14.03 3.19 14.23 3.28 14.44 3.34 14.65 3.37 14.88 3.37 15.1 3.33 15.33 3.27 15.54 3.18 15.75 3.06 15.94 2.91 16.12 2.75 16.27 2.56 16.4 -0.88 18.22"/></g><g id="section-7" data-name="section"><polyline id="background-17" data-name="background" class="cls-4" points="9.51 30.01 7.93 26.4 7.77 26.14 7.58 25.92 7.37 25.71 7.12 25.54 6.86 25.41 6.58 25.31 6.29 25.25 5.99 25.23 5.69 25.24 5.4 25.3 5.12 25.4 4.85 25.53 4.61 25.7 4.38 25.89 2.7 27.85 2.54 28 2.83 28.43 3.05 28.24 4.78 26.23 4.96 26.09 5.14 25.96 5.35 25.86 5.57 25.79 5.79 25.75 6.02 25.75 6.24 25.77 6.46 25.82 6.68 25.9 6.88 26 7.06 26.14 7.22 26.29 7.36 26.47 7.48 26.67 9.02 30.22"/><polyline id="background-18" data-name="background" class="cls-5" points="9.51 27.01 7.93 23.4 7.77 23.14 7.58 22.92 7.37 22.71 7.12 22.54 6.86 22.41 6.58 22.31 6.29 22.25 5.99 22.23 5.69 22.24 5.4 22.3 5.12 22.4 4.85 22.53 4.61 22.7 4.38 22.89 2.7 24.85 2.54 25 2.83 25.43 3.05 25.24 4.78 23.23 4.96 23.09 5.14 22.96 5.35 22.86 5.57 22.79 5.79 22.75 6.02 22.75 6.24 22.77 6.46 22.82 6.68 22.9 6.88 23 7.06 23.14 7.22 23.29 7.36 23.47 7.48 23.67 9.02 27.22"/></g><g id="section-8" data-name="section"><polyline id="background-19" data-name="background" class="cls-4" points="-2.07 19.27 -1.84 19.24 -1.61 19.23 -1.39 19.26 7.47 21.56 7.68 21.64 7.88 21.75 8.05 21.89 8.22 22.05 8.35 22.23 8.46 22.42 8.55 22.63 10 28.68 10.03 28.9 10.02 29.13 9.98 29.35 9.92 29.57 9.82 29.77 9.7 29.96 9.56 30.13 9.39 30.28 9.2 30.41 9 30.51 8.78 30.59 8.56 30.63 8.33 30.64 8.11 30.63 7.88 30.58 7.67 30.5 7.47 30.4 7.28 30.27 6.92 30.64 7.16 30.82 7.42 30.96 7.7 31.07 7.99 31.13 8.29 31.16 8.58 31.15 8.88 31.1 9.16 31.01 9.43 30.88 9.68 30.72 9.9 30.52 10.1 30.3 10.26 30.05 10.39 29.79 10.49 29.51 10.54 29.22 10.55 28.92 10.53 28.63 9.06 22.51 8.96 22.24 8.81 21.98 8.64 21.74 8.43 21.52 8.2 21.34 7.94 21.19 7.67 21.08 -1.26 18.75 -1.55 18.72 -1.85 18.72 -2.14 18.76"/><polyline id="background-20" data-name="background" class="cls-5" points="-2.07 16.27 -1.84 16.24 -1.61 16.23 -1.39 16.26 7.47 18.56 7.68 18.64 7.88 18.75 8.05 18.89 8.22 19.05 8.35 19.23 8.46 19.42 8.55 19.63 10 25.68 10.03 25.9 10.02 26.13 9.98 26.35 9.92 26.57 9.82 26.77 9.7 26.96 9.56 27.13 9.39 27.28 9.2 27.41 9 27.51 8.78 27.59 8.56 27.63 8.33 27.64 8.11 27.63 7.88 27.58 7.67 27.5 7.47 27.4 7.28 27.27 6.92 27.64 7.16 27.82 7.42 27.96 7.7 28.07 7.99 28.13 8.29 28.16 8.58 28.15 8.88 28.1 9.16 28.01 9.43 27.88 9.68 27.72 9.9 27.52 10.1 27.3 10.26 27.05 10.39 26.79 10.49 26.51 10.54 26.22 10.55 25.92 10.53 25.63 9.06 19.51 8.96 19.24 8.81 18.98 8.64 18.74 8.43 18.52 8.2 18.34 7.94 18.19 7.67 18.08 -1.26 15.75 -1.55 15.72 -1.85 15.72 -2.14 15.76"/></g><g id="background-21" data-name="background"><polygon class="cls-6" points="3.61 14.51 6.13 15.08 6.35 15.16 6.55 15.26 6.73 15.39 6.9 15.55 7.04 15.72 7.16 15.91 7.25 16.12 7.31 16.34 7.35 16.56 7.35 16.78 7.32 17.01 7.26 17.23 7.17 17.43 7.06 17.63 6.92 17.8 6.75 17.96 6.57 18.09 6.37 18.2 6.16 18.28 5.94 18.33 5.98 18.85 6.27 18.79 6.55 18.69 6.82 18.55 7.06 18.38 7.28 18.18 7.47 17.95 7.62 17.7 7.74 17.43 7.83 17.15 7.87 16.86 7.87 16.56 7.83 16.27 7.76 15.98 7.64 15.71 7.49 15.45 7.31 15.22 7.1 15.02 6.86 14.84 6.59 14.7 6.32 14.59 3.72 14.01 3.5 13.94 3.3 13.85 3.1 13.74 2.93 13.59 2.77 13.43 2.64 13.24 2.54 13.04 2.46 12.83 2.41 12.61 2.39 12.39 2.41 12.16 2.45 11.94 2.52 11.73 2.63 11.53 2.75 11.34 2.91 11.17 3.08 11.03 3.27 10.91 3.48 10.81 3.69 10.75 3.92 10.71 4.15 10.71 4.37 10.73 4.59 10.79 4.8 10.87 5 10.98 5.18 11.12 5.34 11.28 5.48 11.45 5.94 11.2 5.76 10.96 5.56 10.75 5.32 10.57 5.07 10.42 4.79 10.3 4.5 10.23 4.21 10.19 3.91 10.19 3.62 10.23 3.33 10.31 3.06 10.43 2.8 10.59 2.57 10.77 2.37 10.99 2.19 11.23 2.06 11.49 1.96 11.77 1.89 12.06 1.87 12.35 1.89 12.65 1.94 12.94 2.04 13.22 2.17 13.48 2.34 13.72 2.54 13.95 2.77 14.14 3.02 14.29 3.29 14.42 3.57 14.51 3.61 14.51"/><polygon class="cls-8" points="3.61 14.51 6.13 15.08 6.35 15.16 6.55 15.26 6.73 15.39 6.9 15.55 7.04 15.72 7.16 15.91 7.25 16.12 7.31 16.34 7.35 16.56 7.35 16.78 7.32 17.01 7.26 17.23 7.17 17.43 7.06 17.63 6.92 17.8 6.75 17.96 6.57 18.09 6.37 18.2 6.16 18.28 5.94 18.33 5.98 18.85 6.27 18.79 6.55 18.69 6.82 18.55 7.06 18.38 7.28 18.18 7.47 17.95 7.62 17.7 7.74 17.43 7.83 17.15 7.87 16.86 7.87 16.56 7.83 16.27 7.76 15.98 7.64 15.71 7.49 15.45 7.31 15.22 7.1 15.02 6.86 14.84 6.59 14.7 6.32 14.59 3.72 14.01 3.5 13.94 3.3 13.85 3.1 13.74 2.93 13.59 2.77 13.43 2.64 13.24 2.54 13.04 2.46 12.83 2.41 12.61 2.39 12.39 2.41 12.16 2.45 11.94 2.52 11.73 2.63 11.53 2.75 11.34 2.91 11.17 3.08 11.03 3.27 10.91 3.48 10.81 3.69 10.75 3.92 10.71 4.15 10.71 4.37 10.73 4.59 10.79 4.8 10.87 5 10.98 5.18 11.12 5.34 11.28 5.48 11.45 5.94 11.2 5.76 10.96 5.56 10.75 5.32 10.57 5.07 10.42 4.79 10.3 4.5 10.23 4.21 10.19 3.91 10.19 3.62 10.23 3.33 10.31 3.06 10.43 2.8 10.59 2.57 10.77 2.37 10.99 2.19 11.23 2.06 11.49 1.96 11.77 1.89 12.06 1.87 12.35 1.89 12.65 1.94 12.94 2.04 13.22 2.17 13.48 2.34 13.72 2.54 13.95 2.77 14.14 3.02 14.29 3.29 14.42 3.57 14.51 3.61 14.51"/><polygon class="cls-7" points="3.61 11.51 6.13 12.08 6.35 12.16 6.55 12.26 6.73 12.39 6.9 12.55 7.04 12.72 7.16 12.91 7.25 13.12 7.31 13.34 7.35 13.56 7.35 13.78 7.32 14.01 7.26 14.23 7.17 14.43 7.06 14.63 6.92 14.8 6.75 14.96 6.57 15.09 6.37 15.2 6.16 15.28 5.94 15.33 5.98 15.85 6.27 15.79 6.55 15.69 6.82 15.55 7.06 15.38 7.28 15.18 7.47 14.95 7.62 14.7 7.74 14.43 7.83 14.15 7.87 13.86 7.87 13.56 7.83 13.27 7.76 12.98 7.64 12.71 7.49 12.45 7.31 12.22 7.1 12.02 6.86 11.84 6.59 11.7 6.32 11.59 3.72 11.01 3.5 10.94 3.3 10.85 3.1 10.74 2.93 10.59 2.77 10.43 2.64 10.24 2.54 10.04 2.46 9.83 2.41 9.61 2.39 9.39 2.41 9.16 2.45 8.94 2.52 8.73 2.63 8.53 2.75 8.34 2.91 8.17 3.08 8.03 3.27 7.91 3.48 7.81 3.69 7.75 3.92 7.71 4.15 7.71 4.37 7.73 4.59 7.79 4.8 7.87 5 7.98 5.18 8.12 5.34 8.28 5.48 8.45 5.94 8.2 5.76 7.96 5.56 7.75 5.32 7.57 5.07 7.42 4.79 7.3 4.5 7.23 4.21 7.19 3.91 7.19 3.62 7.23 3.33 7.31 3.06 7.43 2.8 7.59 2.57 7.77 2.37 7.99 2.19 8.23 2.06 8.49 1.96 8.77 1.89 9.06 1.87 9.35 1.89 9.65 1.94 9.94 2.04 10.22 2.17 10.48 2.34 10.72 2.54 10.95 2.77 11.14 3.02 11.29 3.29 11.42 3.57 11.51 3.61 11.51"/><polygon class="cls-9" points="3.61 11.51 6.13 12.08 6.35 12.16 6.55 12.26 6.73 12.39 6.9 12.55 7.04 12.72 7.16 12.91 7.25 13.12 7.31 13.34 7.35 13.56 7.35 13.78 7.32 14.01 7.26 14.23 7.17 14.43 7.06 14.63 6.92 14.8 6.75 14.96 6.57 15.09 6.37 15.2 6.16 15.28 5.94 15.33 5.98 15.85 6.27 15.79 6.55 15.69 6.82 15.55 7.06 15.38 7.28 15.18 7.47 14.95 7.62 14.7 7.74 14.43 7.83 14.15 7.87 13.86 7.87 13.56 7.83 13.27 7.76 12.98 7.64 12.71 7.49 12.45 7.31 12.22 7.1 12.02 6.86 11.84 6.59 11.7 6.32 11.59 3.72 11.01 3.5 10.94 3.3 10.85 3.1 10.74 2.93 10.59 2.77 10.43 2.64 10.24 2.54 10.04 2.46 9.83 2.41 9.61 2.39 9.39 2.41 9.16 2.45 8.94 2.52 8.73 2.63 8.53 2.75 8.34 2.91 8.17 3.08 8.03 3.27 7.91 3.48 7.81 3.69 7.75 3.92 7.71 4.15 7.71 4.37 7.73 4.59 7.79 4.8 7.87 5 7.98 5.18 8.12 5.34 8.28 5.48 8.45 5.94 8.2 5.76 7.96 5.56 7.75 5.32 7.57 5.07 7.42 4.79 7.3 4.5 7.23 4.21 7.19 3.91 7.19 3.62 7.23 3.33 7.31 3.06 7.43 2.8 7.59 2.57 7.77 2.37 7.99 2.19 8.23 2.06 8.49 1.96 8.77 1.89 9.06 1.87 9.35 1.89 9.65 1.94 9.94 2.04 10.22 2.17 10.48 2.34 10.72 2.54 10.95 2.77 11.14 3.02 11.29 3.29 11.42 3.57 11.51 3.61 11.51"/></g><g id="section-9" data-name="section"><path id="background-22" data-name="background" class="cls-4" d="M11,11l-.09-.28-.12-.27-.15-.25L9.56,8.8l-.22-.2L9.1,8.43l-.27-.14-.28-.1-.29-.06-.3,0-.29,0-.3.06-.28.09-.26.14-.25.17-.22.19L6.17,9l-.41.63-.14.17L5.45,10l-.19.12-.2.11-.21.07-.23,0-.22,0-.23,0a1.4,1.4,0,0,1-.7-.55c-.33-.45-.9-.5-.44.27a1.35,1.35,0,0,0,1,.79l.3,0,.29,0,.3-.05.28-.09.27-.13.25-.16L6,10.2,6.16,10l.45-.69.15-.17L6.93,9l.19-.12.2-.1.22-.07.22,0H8l.23,0,.22,0,.21.08.2.11L9,9l.17.16,1.06,1.34.11.19.09.21.06.22"/><path id="background-23" data-name="background" class="cls-5" d="M11,8l-.09-.28-.12-.27-.15-.25L9.56,5.8l-.22-.2L9.1,5.43l-.27-.14-.28-.1-.29-.06-.3,0-.29,0-.3.06-.28.09-.26.14-.25.17-.22.19L6.17,6l-.41.63-.14.17L5.45,7l-.19.12-.2.11-.21.07-.23,0-.22,0-.23,0a1.4,1.4,0,0,1-.7-.55c-.33-.45-.9-.5-.44.27a1.35,1.35,0,0,0,1,.79l.3,0,.29,0,.3,0,.28-.09.27-.13.25-.16L6,7.2,6.16,7l.45-.69.15-.17L6.93,6l.19-.12.2-.1.22-.07.22,0H8l.23,0,.22,0,.21.08.2.11L9,6l.17.16,1.06,1.34.11.19.09.21.06.22"/></g><g id="section-10" data-name="section"><polyline id="background-24" data-name="background" class="cls-4" points="5.9 14.29 7.61 10.2 9.78 4.49 9.3 4.29 7.12 10.01 5.42 14.1"/><polyline id="background-25" data-name="background" class="cls-5" points="5.9 11.29 7.61 7.2 9.78 1.49 9.3 1.29 7.12 7 5.42 11.1"/></g><g id="section-11" data-name="section"><polyline id="background-26" data-name="background" class="cls-4" points="6.42 22.96 6.7 22.85 6.96 22.71 7.2 22.53 7.41 22.32 7.59 22.09 7.74 21.83 7.85 21.55 7.92 21.27 7.96 20.98 7.95 20.68 7.91 20.39 7.82 20.11 7.7 19.84 7.54 19.59 7.35 19.36 7.13 19.16 6.88 18.99 5.75 18.41 5.56 18.29 5.39 18.14 5.24 17.96 5.12 17.77 5.03 17.57 4.96 17.35 4.92 17.13 4.92 16.9 4.95 16.68 5 16.46 5.8 14.54 5.9 14.29 5.42 14.1 5.32 14.34 4.51 16.26 4.44 16.55 4.4 16.84 4.4 17.14 4.44 17.43 4.52 17.71 4.64 17.98 4.8 18.24 4.98 18.47 5.2 18.67 5.44 18.84 6.64 19.46 6.83 19.59 6.99 19.74 7.13 19.92 7.25 20.11 7.34 20.32 7.4 20.53 7.43 20.76 7.43 20.98 7.4 21.21 7.34 21.42 7.25 21.63 7.14 21.82 7 22 6.83 22.16 6.65 22.29 6.45 22.39 6.24 22.47"/><polyline id="background-27" data-name="background" class="cls-5" points="6.42 19.96 6.7 19.85 6.96 19.71 7.2 19.53 7.41 19.32 7.59 19.09 7.74 18.83 7.85 18.55 7.92 18.27 7.96 17.98 7.95 17.68 7.91 17.39 7.82 17.11 7.7 16.84 7.54 16.59 7.35 16.36 7.13 16.16 6.88 15.99 5.75 15.41 5.56 15.29 5.39 15.13 5.24 14.96 5.12 14.77 5.03 14.57 4.96 14.35 4.92 14.13 4.92 13.9 4.95 13.68 5 13.46 5.8 11.54 5.9 11.29 5.42 11.1 5.32 11.34 4.51 13.26 4.44 13.55 4.4 13.84 4.4 14.14 4.44 14.43 4.52 14.71 4.64 14.98 4.8 15.24 4.98 15.47 5.2 15.67 5.44 15.84 6.64 16.46 6.83 16.59 6.99 16.74 7.13 16.92 7.25 17.11 7.34 17.32 7.4 17.53 7.43 17.76 7.43 17.98 7.4 18.21 7.34 18.42 7.25 18.63 7.14 18.82 7 19 6.83 19.16 6.65 19.29 6.45 19.39 6.24 19.47"/></g><g id="section-12" data-name="section"><path id="background-28" data-name="background" class="cls-10" d="M-1.06,15l.18,5.24.05.29.09.28.13.27.16.24.2.23.22.19.25.16.27.13.29.09,4.93.92A1.65,1.65,0,0,0,6.42,23l-.18-.49a1.31,1.31,0,0,1-.5.08L.87,21.64l-.21-.07-.21-.11-.18-.12L.1,21.19,0,21l-.12-.19-.09-.2-.07-.22,0-.22L-.54,15"/><path id="background-29" data-name="background" class="cls-11" d="M-1.06,12l.18,5.24.05.29.09.28.13.27.16.24.2.23.22.19.25.16.27.13.29.09,4.93.92A1.65,1.65,0,0,0,6.42,20l-.18-.49a1.31,1.31,0,0,1-.5.08L.87,18.64l-.21-.07-.21-.11-.18-.12L.1,18.19,0,18l-.12-.19-.09-.2-.07-.22,0-.22L-.54,12"/></g><g id="background-30" data-name="background"><polyline class="cls-6" points="3.62 21.48 3.91 21.4 4.18 21.27 4.43 21.11 4.66 20.93 4.86 20.71 5.03 20.46 5.16 20.2 5.26 19.92 5.78 17.4 5.86 17.19 5.96 16.99 6.08 16.8 8.42 14.29 8.59 14.04 8.72 13.78 8.82 13.5 8.88 13.21 8.9 12.92 8.88 12.62 8.81 12.33 8.71 12.05 8.58 11.79 8.4 11.55 8.2 11.33 7.97 11.15 7.72 10.99 7.45 10.87 7.16 10.79 6.87 10.75 6.57 10.74 6.27 10.78 5.98 10.86 6.18 11.34 6.4 11.28 6.63 11.26 6.86 11.27 7.08 11.3 7.3 11.37 7.5 11.47 7.69 11.59 7.87 11.73 8.02 11.9 8.14 12.09 8.25 12.29 8.32 12.5 8.36 12.72 8.37 12.95 8.36 13.17 8.31 13.39 8.23 13.61 8.12 13.8 7.99 13.99 5.7 16.45 5.53 16.69 5.39 16.95 5.29 17.23 4.74 19.81 4.67 20.02 4.56 20.23 4.43 20.41 4.27 20.57 4.09 20.71 3.9 20.83 3.69 20.92 3.47 20.98"/><polyline class="cls-8" points="3.62 21.48 3.91 21.4 4.18 21.27 4.43 21.11 4.66 20.93 4.86 20.71 5.03 20.46 5.16 20.2 5.26 19.92 5.78 17.4 5.86 17.19 5.96 16.99 6.08 16.8 8.42 14.29 8.59 14.04 8.72 13.78 8.82 13.5 8.88 13.21 8.9 12.92 8.88 12.62 8.81 12.33 8.71 12.05 8.58 11.79 8.4 11.55 8.2 11.33 7.97 11.15 7.72 10.99 7.45 10.87 7.16 10.79 6.87 10.75 6.57 10.74 6.27 10.78 5.98 10.86 6.18 11.34 6.4 11.28 6.63 11.26 6.86 11.27 7.08 11.3 7.3 11.37 7.5 11.47 7.69 11.59 7.87 11.73 8.02 11.9 8.14 12.09 8.25 12.29 8.32 12.5 8.36 12.72 8.37 12.95 8.36 13.17 8.31 13.39 8.23 13.61 8.12 13.8 7.99 13.99 5.7 16.45 5.53 16.69 5.39 16.95 5.29 17.23 4.74 19.81 4.67 20.02 4.56 20.23 4.43 20.41 4.27 20.57 4.09 20.71 3.9 20.83 3.69 20.92 3.47 20.98"/><polyline class="cls-7" points="3.62 18.48 3.91 18.4 4.18 18.27 4.43 18.11 4.66 17.93 4.86 17.71 5.03 17.46 5.16 17.2 5.26 16.92 5.78 14.4 5.86 14.19 5.96 13.99 6.08 13.8 8.42 11.29 8.59 11.04 8.72 10.78 8.82 10.5 8.88 10.21 8.9 9.92 8.88 9.62 8.81 9.33 8.71 9.05 8.58 8.79 8.4 8.55 8.2 8.33 7.97 8.15 7.72 7.99 7.45 7.87 7.16 7.79 6.87 7.75 6.57 7.74 6.27 7.78 5.98 7.86 6.18 8.34 6.4 8.28 6.63 8.26 6.86 8.27 7.08 8.3 7.3 8.37 7.5 8.47 7.69 8.59 7.87 8.73 8.02 8.9 8.14 9.09 8.25 9.29 8.32 9.5 8.36 9.72 8.37 9.95 8.36 10.17 8.31 10.39 8.23 10.61 8.12 10.8 7.99 10.99 5.7 13.45 5.53 13.69 5.39 13.95 5.29 14.23 4.74 16.81 4.67 17.02 4.56 17.23 4.43 17.41 4.27 17.57 4.09 17.71 3.9 17.83 3.69 17.92 3.47 17.98"/><polyline class="cls-9" points="3.62 18.48 3.91 18.4 4.18 18.27 4.43 18.11 4.66 17.93 4.86 17.71 5.03 17.46 5.16 17.2 5.26 16.92 5.78 14.4 5.86 14.19 5.96 13.99 6.08 13.8 8.42 11.29 8.59 11.04 8.72 10.78 8.82 10.5 8.88 10.21 8.9 9.92 8.88 9.62 8.81 9.33 8.71 9.05 8.58 8.79 8.4 8.55 8.2 8.33 7.97 8.15 7.72 7.99 7.45 7.87 7.16 7.79 6.87 7.75 6.57 7.74 6.27 7.78 5.98 7.86 6.18 8.34 6.4 8.28 6.63 8.26 6.86 8.27 7.08 8.3 7.3 8.37 7.5 8.47 7.69 8.59 7.87 8.73 8.02 8.9 8.14 9.09 8.25 9.29 8.32 9.5 8.36 9.72 8.37 9.95 8.36 10.17 8.31 10.39 8.23 10.61 8.12 10.8 7.99 10.99 5.7 13.45 5.53 13.69 5.39 13.95 5.29 14.23 4.74 16.81 4.67 17.02 4.56 17.23 4.43 17.41 4.27 17.57 4.09 17.71 3.9 17.83 3.69 17.92 3.47 17.98"/></g><g id="section-13" data-name="section"><polyline id="background-31" data-name="background" class="cls-4" points="10.52 11.12 10.57 11.33 10.6 11.56 10.59 11.78 10.55 12.01 10.49 12.22 10.39 12.43 10.27 12.62 10.13 12.79 9.96 12.94 9.77 13.07 9.57 13.17 9.35 13.24 9.13 13.29 8.9 13.3 8.68 13.28 8.45 13.24 8.24 13.16 7.85 12.93 7.85 12.93 6.09 11.38 5.63 11.6 7.49 13.3 7.73 13.48 7.99 13.62 8.27 13.72 8.56 13.79 8.86 13.82 9.15 13.81 9.45 13.75 9.73 13.66 10 13.54 10.25 13.37 10.47 13.18 10.67 12.96 10.83 12.71 10.96 12.44 11.05 12.16 11.11 11.87 11.12 11.58 11.09 11.28 11.03 10.99"/><polyline id="background-32" data-name="background" class="cls-5" points="10.52 8.12 10.57 8.33 10.6 8.56 10.59 8.78 10.55 9.01 10.49 9.22 10.39 9.43 10.27 9.62 10.13 9.79 9.96 9.94 9.77 10.07 9.57 10.17 9.35 10.24 9.13 10.29 8.9 10.3 8.68 10.28 8.45 10.24 8.24 10.16 7.85 9.93 7.85 9.93 6.09 8.38 5.63 8.6 7.49 10.3 7.73 10.48 7.99 10.62 8.27 10.72 8.56 10.79 8.86 10.82 9.15 10.81 9.45 10.75 9.73 10.66 10 10.54 10.25 10.37 10.47 10.18 10.67 9.96 10.83 9.71 10.96 9.44 11.05 9.16 11.11 8.87 11.12 8.58 11.09 8.28 11.03 7.99"/></g><g id="section-14" data-name="section"><polyline id="background-33" data-name="background" class="cls-4" points="0.82 23.34 2.04 22.14 2.21 21.99 2.41 21.87 2.61 21.77 3.37 21.55 3.62 21.48 3.47 20.98 3.22 21.05 2.47 21.27 2.19 21.39 1.94 21.55 1.71 21.73 0.43 22.99"/><polyline id="background-34" data-name="background" class="cls-5" points="0.82 20.34 2.04 19.14 2.21 18.99 2.41 18.87 2.61 18.77 3.37 18.55 3.62 18.48 3.47 17.98 3.22 18.05 2.47 18.27 2.19 18.39 1.94 18.55 1.71 18.73 0.43 19.99"/></g><g id="background-35" data-name="background"><path class="cls-6" d="M6.57,10.74l-.3,0L6,10.86l-2.43,1-.24.09L.72,13l.13.5,2.66-1.07.24-.1,2.43-1,.22-.06.23,0a1.87,1.87,0,0,1,.53.07"/><path class="cls-8" d="M6.57,10.74l-.3,0L6,10.86l-2.43,1-.24.09L.72,13l.13.5,2.66-1.07.24-.1,2.43-1,.22-.06.23,0a1.87,1.87,0,0,1,.53.07"/><path class="cls-7" d="M6.57,7.74l-.3,0L6,7.86l-2.43,1-.24.09L.72,10l.13.5L3.51,9.42l.24-.1,2.43-1,.22-.06.23,0a1.87,1.87,0,0,1,.53.07"/><path class="cls-9" d="M6.57,7.74l-.3,0L6,7.86l-2.43,1-.24.09L.72,10l.13.5L3.51,9.42l.24-.1,2.43-1,.22-.06.23,0a1.87,1.87,0,0,1,.53.07"/></g></g><polygon class="cls-12" points="13.94 1 13.94 29 25.9 22 25.9 8 13.94 1"/><path class="cls-7" d="M23.35,17.36a1.94,1.94,0,0,0-1.66-.92,1.9,1.9,0,0,0-.58.09,5.17,5.17,0,0,0-2.5-1.65,8.61,8.61,0,0,0,1.72-1.79,2.06,2.06,0,0,0,1.5-.24,2,2,0,1,0-2.72-.62l.12.17a6.85,6.85,0,0,1-2.77,2.27h0a5.38,5.38,0,0,1-2.51.62v1.46a6.36,6.36,0,0,0,2.92-.85,4.33,4.33,0,0,1,3.2,1.39,2,2,0,0,0,2.68,2.79,2,2,0,0,0,.61-2.72Zm-3-6.83a.75.75,0,0,1,.41-.12.76.76,0,0,1,.41,1.41.73.73,0,0,1-.41.12.72.72,0,0,1-.4-.12.69.69,0,0,1-.24-.24A.76.76,0,0,1,20.37,10.53Zm2.06,8a.77.77,0,0,1-.74.6.77.77,0,0,1-.45-1.39l0,0a.77.77,0,0,1,1,.24A.72.72,0,0,1,22.43,18.58Z"/></svg>