<svg xmlns="http://www.w3.org/2000/svg" viewBox="0 0 245 100"><defs><style>.cls-1{isolation:isolate;}.cls-2{fill:#353070;}.cls-3{mix-blend-mode:multiply;opacity:0.25;}.cls-4{fill:#eb743b;}.cls-5{fill:#fffedb;}</style></defs><g class="cls-1"><g id="Layer_1" data-name="Layer 1"><polygon class="cls-2" points="43.83 2 3 25.43 3 74.95 43.83 98.38 43.83 2"/><g class="cls-3"><path d="M32.48,66.85A.82.82,0,0,1,32,66.7a.83.83,0,0,1-.2-1.15,6,6,0,0,0,.5-.84A6.19,6.19,0,0,0,32,58.58a.83.83,0,1,1,1.39-.9,7.93,7.93,0,0,1,.43,7.76,7.05,7.05,0,0,1-.63,1.06.83.83,0,0,1-.68.35"/><path d="M36.28,68.82a.81.81,0,0,1-.48-.16.83.83,0,0,1-.18-1.16,8.37,8.37,0,0,0,.82-1.35,9,9,0,0,0-.86-9.47.83.83,0,0,1,1.33-1,10.7,10.7,0,0,1,1,11.2,9.94,9.94,0,0,1-1,1.59.82.82,0,0,1-.67.34"/><path d="M28.76,64.76a.79.79,0,0,1-.4-.1A.84.84,0,0,1,28,63.53a3.29,3.29,0,0,0,.13-3,.83.83,0,1,1,1.5-.69,4.94,4.94,0,0,1-.19,4.49.82.82,0,0,1-.72.42"/></g><path class="cls-4" d="M32.48,65.48a.82.82,0,0,1-.47-.15.83.83,0,0,1-.2-1.15,6,6,0,0,0,.5-.84A6.19,6.19,0,0,0,32,57.21a.83.83,0,1,1,1.39-.9,7.93,7.93,0,0,1,.43,7.76,7.05,7.05,0,0,1-.63,1.06.83.83,0,0,1-.68.35"/><path class="cls-4" d="M36.28,67.45a.83.83,0,0,1-.66-1.31,9.35,9.35,0,0,0,.82-1.35,9.05,9.05,0,0,0-.86-9.48.83.83,0,1,1,1.33-1,10.7,10.7,0,0,1,1,11.2,9.51,9.51,0,0,1-1,1.59.82.82,0,0,1-.67.34"/><path class="cls-4" d="M28.76,63.39a.79.79,0,0,1-.4-.1A.84.84,0,0,1,28,62.16a3.29,3.29,0,0,0,.13-3,.84.84,0,0,1,.4-1.1.83.83,0,0,1,1.1.41,5,5,0,0,1-.19,4.5.83.83,0,0,1-.72.41"/><g class="cls-3"><path d="M40.9,27.64c-6.93,0-13.94,2.5-18.3,6.53-4.71,4.35-7.2,11.12-7.08,19.15A2.74,2.74,0,0,0,13.18,56v12.4a2.74,2.74,0,0,0,2.74,2.74h1.39a2.59,2.59,0,0,0,.63-.08v1.1a2.58,2.58,0,0,0,2.39,2.73h1.3A2.58,2.58,0,0,0,24,72.18V51.87a2.59,2.59,0,0,0-2.39-2.74h-1.3A2.51,2.51,0,0,0,18,51.38a30.15,30.15,0,0,1,.3-3.48,20.24,20.24,0,0,1,5.95-12C28.1,32.34,34.65,30,40.9,30c.71,0,2.22,0,2.93.1V27.74C43,27.66,41.66,27.64,40.9,27.64ZM17.31,68.14a1.81,1.81,0,0,1-1.81-1.81V58.11a1.81,1.81,0,0,1,1.81-1.81h.63V68.14Z"/></g><path class="cls-5" d="M40.9,26.27C34,26.27,27,28.77,22.6,32.8,17.89,37.15,15.4,43.92,15.52,52a2.74,2.74,0,0,0-2.34,2.7v12.4a2.74,2.74,0,0,0,2.74,2.74h1.39a2.59,2.59,0,0,0,.63-.08v1.1a2.58,2.58,0,0,0,2.39,2.73h1.3A2.58,2.58,0,0,0,24,70.81V50.5a2.59,2.59,0,0,0-2.39-2.74h-1.3A2.52,2.52,0,0,0,18,50a30.15,30.15,0,0,1,.3-3.48,20.3,20.3,0,0,1,5.95-12c3.87-3.58,10.42-5.9,16.67-5.9.71,0,2.22,0,2.93.1V26.37C43,26.29,41.66,26.27,40.9,26.27ZM17.31,66.78A1.82,1.82,0,0,1,15.5,65V56.74a1.81,1.81,0,0,1,1.81-1.81h.63V66.78Z"/><polygon class="cls-4" points="46.83 2.38 46.83 98.38 87.83 74.38 87.83 26.38 46.83 2.38"/><path class="cls-5" d="M79.11,58.46a6.74,6.74,0,0,0-5.72-3.14,6.84,6.84,0,0,0-2,.29A18.11,18.11,0,0,0,62.83,50a28.85,28.85,0,0,0,5.91-6.16A6.87,6.87,0,0,0,73.9,43a6.77,6.77,0,0,0-3.62-12.5,6.69,6.69,0,0,0-3.61,1.05,6.79,6.79,0,0,0-2.11,9.34c.13.2.27.4.42.59a23.87,23.87,0,0,1-9.51,7.79h0a18.45,18.45,0,0,1-8.62,2.12v5c4,0,5.93-1.13,10-2.9a14.73,14.73,0,0,1,11,4.75,6.76,6.76,0,0,0,5.56,10.62,6.77,6.77,0,0,0,5.72-10.39ZM68.89,35.05a2.56,2.56,0,0,1,1.39-.41,2.62,2.62,0,0,1,1.4,4.84,2.65,2.65,0,0,1-2.77,0,2.39,2.39,0,0,1-.83-.81A2.62,2.62,0,0,1,68.89,35.05ZM76,62.65a2.61,2.61,0,0,1-1.17,1.64,2.51,2.51,0,0,1-1.39.41A2.62,2.62,0,0,1,71.88,60l.11-.08a2.67,2.67,0,0,1,3.61.81A2.58,2.58,0,0,1,76,62.65Z"/><path class="cls-2" d="M111.88,38.94h13V46H103.3V10.7h8.58Z"/><path class="cls-2" d="M129.08,8a4.07,4.07,0,0,1,1.17-3,4.71,4.71,0,0,1,6.24,0,4.07,4.07,0,0,1,1.17,3,4,4,0,0,1-4.29,4.21,4.17,4.17,0,0,1-3.14-1.2A4.17,4.17,0,0,1,129.08,8Zm8.28,38h-7.92V15.84h7.92Z"/><path class="cls-2" d="M156.81,37.92a2.48,2.48,0,0,0-1-1.86,19.46,19.46,0,0,0-4.28-2.3c-3.25-1.32-5.49-2.68-6.7-4.09A7.79,7.79,0,0,1,143,24.4a8.45,8.45,0,0,1,2.86-6.54,10.86,10.86,0,0,1,7.57-2.58,11.75,11.75,0,0,1,7.94,2.57,8.6,8.6,0,0,1,3,6.88h-7.88c0-2.45-1-3.68-3.07-3.68a2.84,2.84,0,0,0-2.06.78,2.89,2.89,0,0,0-.81,2.18,2.29,2.29,0,0,0,.89,1.77A19.68,19.68,0,0,0,155.67,28c3.21,1.19,5.49,2.51,6.81,4a8.1,8.1,0,0,1,2,5.67,7.94,7.94,0,0,1-3,6.49,12.28,12.28,0,0,1-8,2.46,12.77,12.77,0,0,1-5.86-1.3,9.84,9.84,0,0,1-4-3.61,9.24,9.24,0,0,1-1.43-5h7.5a4.72,4.72,0,0,0,1,3.1,3.78,3.78,0,0,0,3,1Q156.81,40.79,156.81,37.92Z"/><path class="cls-2" d="M178.55,8.43v7.41h4v5.91h-4v15A4.49,4.49,0,0,0,179,39.2a2.22,2.22,0,0,0,1.88.67,7.31,7.31,0,0,0,1.87-.2l0,6.13a12.13,12.13,0,0,1-4.35.76q-7.65,0-7.72-8.77v-16h-3.49V15.84h3.49V8.43Z"/><path class="cls-2" d="M199.1,46.56q-6.07,0-9.48-3.63t-3.4-10.37V30.17q0-7.14,3.12-11t8.95-3.88q5.69,0,8.56,3.64t2.92,10.75v3.87H194.08a8.13,8.13,0,0,0,1.48,4.91,5,5,0,0,0,4,1.56,8.86,8.86,0,0,0,6.61-2.71l3.09,4.77a10.23,10.23,0,0,1-4.21,3.25A14.56,14.56,0,0,1,199.1,46.56Zm-5-18.51H202v-.73a8.3,8.3,0,0,0-.89-4.09,3.1,3.1,0,0,0-2.9-1.4,3.28,3.28,0,0,0-3,1.48A10.1,10.1,0,0,0,194.14,28.05Z"/><path class="cls-2" d="M221.45,15.84l.22,3a8.38,8.38,0,0,1,7-3.54q7.79,0,8,10.9V46h-7.92V26.77a6.94,6.94,0,0,0-.76-3.72,3,3,0,0,0-2.69-1.16,3.69,3.69,0,0,0-3.35,2.2V46H214V15.84Z"/><path class="cls-4" d="M103.3,92V56.7h12c4.12,0,7.27.84,9.44,2.5A8.61,8.61,0,0,1,128,66.46a9.07,9.07,0,0,1-1.19,4.7,6.91,6.91,0,0,1-3.48,2.93,6.77,6.77,0,0,1,3.85,2.78,8.81,8.81,0,0,1,1.36,5c0,3.52-1,6.08-3.06,7.7S120.37,92,116.27,92Zm8.58-20.63H116c2.28-.06,3.42-1.28,3.42-3.64a4.23,4.23,0,0,0-.85-3,3.4,3.4,0,0,0-2.6-.9h-4.09Zm0,6v7.6h4.39a3.35,3.35,0,0,0,3.7-3.65q0-3.83-3.09-4Z"/><path class="cls-4" d="M148.66,69.45,146,69.23a4.3,4.3,0,0,0-4.38,2.84V92h-7.91V61.84h7.44l.22,3.26c1.25-2.54,3-3.82,5.16-3.82a5.33,5.33,0,0,1,2.17.37Z"/><path class="cls-4" d="M166.19,92a11.67,11.67,0,0,1-.67-2.34,6.74,6.74,0,0,1-5.74,2.9,8.49,8.49,0,0,1-6.28-2.51,8.8,8.8,0,0,1-2.5-6.5,9.14,9.14,0,0,1,3-7.33c2-1.72,4.92-2.61,8.71-2.64h2.39V71.15a4.57,4.57,0,0,0-.69-2.87,2.51,2.51,0,0,0-2-.84c-2,0-3,1.16-3,3.46h-7.89a8.72,8.72,0,0,1,3.13-6.9,11.71,11.71,0,0,1,7.93-2.72q5,0,7.68,2.58C172.12,65.58,173,68,173,71.23V85.42a14.86,14.86,0,0,0,1.12,6.11V92Zm-4.65-5.63a4.46,4.46,0,0,0,2.23-.53,3.69,3.69,0,0,0,1.36-1.25V78.31h-1.89a4,4,0,0,0-3.17,1.29A4.9,4.9,0,0,0,158.92,83C158.92,85.25,159.79,86.37,161.54,86.37Z"/><path class="cls-4" d="M178.74,54a4.07,4.07,0,0,1,1.17-3,4.71,4.71,0,0,1,6.24,0,4.07,4.07,0,0,1,1.17,3,4.18,4.18,0,0,1-1.16,3,4.29,4.29,0,0,1-7.42-3ZM187,92H179.1V61.84H187Z"/><path class="cls-4" d="M200.34,61.84l.22,3a8.37,8.37,0,0,1,7-3.54q7.77,0,8,10.9V92h-7.92V72.77a6.93,6.93,0,0,0-.77-3.72,3,3,0,0,0-2.69-1.16,3.67,3.67,0,0,0-3.34,2.2V92h-7.92V61.84Z"/><path class="cls-4" d="M229.94,85.45h11.93V92h-21.3V87.07l11.65-18.65H220.85V61.84H241.7v4.77Z"/></g></g></svg>