<svg xmlns="http://www.w3.org/2000/svg" viewBox="0 0 495.15 100"><defs><style>.cls-1{isolation:isolate;}.cls-2{fill:#353070;}.cls-3{mix-blend-mode:multiply;opacity:0.25;}.cls-4{fill:#eb743b;}.cls-5{fill:#fffedb;}</style></defs><g class="cls-1"><g id="Layer_1" data-name="Layer 1"><polygon class="cls-2" points="44.83 1.62 4 25.05 4 74.58 44.83 98 44.83 1.62"/><g class="cls-3"><path d="M33.48,66.47a.82.82,0,0,1-.47-.15.83.83,0,0,1-.2-1.15,5.47,5.47,0,0,0,.5-.84A6.19,6.19,0,0,0,33,58.2a.81.81,0,0,1,.25-1.14.82.82,0,0,1,1.14.24,7.93,7.93,0,0,1,.43,7.76,7.05,7.05,0,0,1-.63,1.06.83.83,0,0,1-.68.35"/><path d="M37.28,68.44a.83.83,0,0,1-.66-1.31,8.83,8.83,0,0,0,.82-1.35,9.05,9.05,0,0,0-.86-9.48.83.83,0,1,1,1.33-1,10.7,10.7,0,0,1,1,11.2,9.51,9.51,0,0,1-1,1.59.82.82,0,0,1-.67.34"/><path d="M29.76,64.38a.79.79,0,0,1-.4-.1A.84.84,0,0,1,29,63.15a3.29,3.29,0,0,0,.13-3,.84.84,0,0,1,.4-1.1.83.83,0,0,1,1.1.41,5,5,0,0,1-.19,4.5.81.81,0,0,1-.72.41"/></g><path class="cls-4" d="M33.48,65.1A.82.82,0,0,1,33,65a.83.83,0,0,1-.2-1.15,5.47,5.47,0,0,0,.5-.84A6.19,6.19,0,0,0,33,56.83a.81.81,0,0,1,.25-1.14.82.82,0,0,1,1.14.24,8,8,0,0,1,.43,7.77,7.49,7.49,0,0,1-.63,1,.83.83,0,0,1-.68.35"/><path class="cls-4" d="M37.28,67.07a.83.83,0,0,1-.66-1.31,8.83,8.83,0,0,0,.82-1.35,9.05,9.05,0,0,0-.86-9.48.83.83,0,0,1,1.33-1,10.7,10.7,0,0,1,1,11.2,9.51,9.51,0,0,1-1,1.59.8.8,0,0,1-.67.34"/><path class="cls-4" d="M29.76,63a.8.8,0,0,1-.4-.11A.84.84,0,0,1,29,61.78a3.29,3.29,0,0,0,.13-3,.83.83,0,0,1,1.5-.69,5,5,0,0,1-.19,4.5.82.82,0,0,1-.72.42"/><g class="cls-3"><path d="M41.9,27.26c-6.93,0-13.94,2.5-18.3,6.53C18.89,38.14,16.4,44.91,16.52,53a2.73,2.73,0,0,0-2.34,2.69V68a2.74,2.74,0,0,0,2.74,2.74h1.39a2.59,2.59,0,0,0,.63-.08v1.1a2.59,2.59,0,0,0,2.39,2.74h1.3A2.59,2.59,0,0,0,25,71.8V51.49a2.58,2.58,0,0,0-2.39-2.73h-1.3A2.51,2.51,0,0,0,19,51a30.56,30.56,0,0,1,.3-3.48,20.3,20.3,0,0,1,5.95-12c3.87-3.58,10.42-5.9,16.67-5.9.71,0,2.22,0,2.93.1V27.36C44,27.28,42.66,27.26,41.9,27.26ZM18.31,67.77A1.82,1.82,0,0,1,16.5,66V57.73a1.81,1.81,0,0,1,1.81-1.81h.63V67.77Z"/></g><path class="cls-5" d="M41.9,25.89c-6.93,0-13.94,2.5-18.3,6.53-4.71,4.35-7.2,11.12-7.08,19.16a2.73,2.73,0,0,0-2.34,2.69v12.4a2.74,2.74,0,0,0,2.74,2.74h1.39a2.59,2.59,0,0,0,.63-.08v1.1a2.59,2.59,0,0,0,2.39,2.74h1.3A2.59,2.59,0,0,0,25,70.43V50.12a2.58,2.58,0,0,0-2.39-2.73h-1.3A2.51,2.51,0,0,0,19,49.64a30.54,30.54,0,0,1,.3-3.49,20.3,20.3,0,0,1,5.95-12c3.87-3.58,10.42-5.9,16.67-5.9.71,0,2.22,0,2.93.1V26C44,25.91,42.66,25.89,41.9,25.89ZM18.31,66.4a1.82,1.82,0,0,1-1.81-1.82V56.36a1.81,1.81,0,0,1,1.81-1.81h.63V66.4Z"/><polygon class="cls-4" points="47.83 2 47.83 98 88.83 74 88.83 26 47.83 2"/><path class="cls-5" d="M80.11,58.09a6.72,6.72,0,0,0-5.72-3.15,6.84,6.84,0,0,0-2,.29,18.11,18.11,0,0,0-8.6-5.63,28.62,28.62,0,0,0,5.91-6.16,6.87,6.87,0,0,0,5.16-.83,6.77,6.77,0,1,0-9.34-2.11,6.27,6.27,0,0,0,.42.59,23.79,23.79,0,0,1-9.51,7.79h0A18.45,18.45,0,0,1,47.83,51v5c4,0,5.93-1.12,10-2.9a14.77,14.77,0,0,1,11,4.75,6.77,6.77,0,1,0,11.28.24ZM69.89,34.67a2.56,2.56,0,0,1,1.39-.41,2.62,2.62,0,0,1,0,5.24,2.67,2.67,0,0,1-1.39-.39,2.5,2.5,0,0,1-.83-.82A2.62,2.62,0,0,1,69.89,34.67ZM77,62.27a2.59,2.59,0,0,1-1.17,1.64,2.51,2.51,0,0,1-1.39.41,2.62,2.62,0,0,1-1.51-4.75L73,59.5a2.66,2.66,0,0,1,3.61.8A2.59,2.59,0,0,1,77,62.27Z"/><path class="cls-2" d="M114.62,63.06h20v8.76H103.72V28h10.9Z"/><path class="cls-2" d="M139.64,24.71a4.93,4.93,0,0,1,1.5-3.7,6.49,6.49,0,0,1,8.18,0,4.88,4.88,0,0,1,1.53,3.7,5,5,0,0,1-1.54,3.74,6.42,6.42,0,0,1-8.13,0A4.91,4.91,0,0,1,139.64,24.71Zm10.62,47.11h-10V34.4h10Z"/><path class="cls-2" d="M178.76,61.48a3.24,3.24,0,0,0-1.82-2.89,20.62,20.62,0,0,0-5.82-1.88q-13.37-2.8-13.36-11.35A10.29,10.29,0,0,1,161.9,37q4.13-3.33,10.81-3.33,7.13,0,11.39,3.35a10.58,10.58,0,0,1,4.28,8.72h-10A4.86,4.86,0,0,0,177,42.23a5.9,5.9,0,0,0-4.33-1.4A6,6,0,0,0,168.76,42a3.61,3.61,0,0,0-1.38,2.91A3.07,3.07,0,0,0,169,47.56a16.09,16.09,0,0,0,5.31,1.76,44.46,44.46,0,0,1,6.3,1.68q7.92,2.91,7.92,10.07a9.78,9.78,0,0,1-4.39,8.28q-4.4,3.16-11.35,3.16a19.73,19.73,0,0,1-8.35-1.67,14,14,0,0,1-5.73-4.6,10.73,10.73,0,0,1-2.07-6.32h9.47A5.24,5.24,0,0,0,168,64,7.85,7.85,0,0,0,173,65.42a7.22,7.22,0,0,0,4.34-1.09A3.37,3.37,0,0,0,178.76,61.48Z"/><path class="cls-2" d="M206.88,25.2v9.2h6.4v7.33h-6.4V60.41a4.45,4.45,0,0,0,.8,3,4,4,0,0,0,3,.9,16,16,0,0,0,2.94-.24v7.58a20.9,20.9,0,0,1-6,.89q-10.52,0-10.73-10.61V41.73h-5.46V34.4h5.46V25.2Z"/><path class="cls-2" d="M236.07,72.51q-8.23,0-13.4-5.05T217.5,54V53A22.62,22.62,0,0,1,219.68,43a16,16,0,0,1,6.17-6.85,17.37,17.37,0,0,1,9.12-2.4q7.68,0,12.09,4.84t4.41,13.73v4.08H227.63a9.28,9.28,0,0,0,2.93,5.88,8.8,8.8,0,0,0,6.17,2.22,10.8,10.8,0,0,0,9-4.19l4.91,5.5a15,15,0,0,1-6.09,5A19.92,19.92,0,0,1,236.07,72.51Zm-1.14-30.75a6.25,6.25,0,0,0-4.82,2,10.35,10.35,0,0,0-2.37,5.77h13.9v-.8a7.36,7.36,0,0,0-1.8-5.16A6.43,6.43,0,0,0,234.93,41.76Z"/><path class="cls-2" d="M266.34,34.4l.31,4.32a13.08,13.08,0,0,1,10.76-5c4,0,6.92,1.16,8.85,3.49s2.93,5.81,3,10.45V71.82h-10v-24c0-2.12-.46-3.67-1.38-4.63s-2.46-1.44-4.6-1.44a6.87,6.87,0,0,0-6.33,3.61V71.82h-10V34.4Z"/><path class="cls-4" d="M296.69,71.82V28h16.92q8.76,0,13.46,3.11a10.13,10.13,0,0,1,4.7,9A10.07,10.07,0,0,1,330.06,46a9.8,9.8,0,0,1-4.9,3.67,9.76,9.76,0,0,1,5.64,3.56,10,10,0,0,1,1.95,6.09c0,4.32-1.49,7.5-4.47,9.51s-7.32,3-13,3ZM307.6,46.26h6.69q6.58,0,6.58-4.61a4.23,4.23,0,0,0-1.6-3.75,8.51,8.51,0,0,0-4.87-1.12h-6.8Zm0,7.4v9.4h7.67a8.3,8.3,0,0,0,4.89-1.24,3.87,3.87,0,0,0,1.72-3.29c0-3.14-1.91-4.77-5.75-4.87Z"/><path class="cls-4" d="M360.44,43.77a28,28,0,0,0-3.6-.28q-5.67,0-7.43,3.84V71.82h-10V34.4h9.44l.28,4.46c2-3.44,4.78-5.15,8.34-5.15a10.49,10.49,0,0,1,3.11.45Z"/><path class="cls-4" d="M385.9,71.82a11.15,11.15,0,0,1-1-3.35,12.07,12.07,0,0,1-9.44,4,13.23,13.23,0,0,1-9.11-3.18,10.22,10.22,0,0,1-3.62-8,10.57,10.57,0,0,1,4.41-9.13Q371.54,49,379.88,49h4.6V46.82a6.18,6.18,0,0,0-1.33-4.16,5.27,5.27,0,0,0-4.21-1.55,6,6,0,0,0-4,1.21,4.13,4.13,0,0,0-1.43,3.32h-10a10,10,0,0,1,2-6,13.34,13.34,0,0,1,5.67-4.34,20.65,20.65,0,0,1,8.23-1.57q6.93,0,11,3.47T394.51,47V63.18c0,3.55.52,6.23,1.49,8.06v.58Zm-8.27-6.95a8.55,8.55,0,0,0,4.08-1,6.39,6.39,0,0,0,2.77-2.64V54.81h-3.74q-7.5,0-8,5.18l0,.59A4,4,0,0,0,374,63.66,5.11,5.11,0,0,0,377.63,64.87Z"/><path class="cls-4" d="M402.12,24.71a4.93,4.93,0,0,1,1.5-3.7,6.49,6.49,0,0,1,8.18,0,4.88,4.88,0,0,1,1.53,3.7,5,5,0,0,1-1.54,3.74,6.42,6.42,0,0,1-8.13,0A4.91,4.91,0,0,1,402.12,24.71Zm10.62,47.11h-10V34.4h10Z"/><path class="cls-4" d="M430.17,34.4l.31,4.32a13.08,13.08,0,0,1,10.76-5q6,0,8.86,3.49t3,10.45V71.82h-10v-24c0-2.12-.46-3.67-1.38-4.63s-2.46-1.44-4.6-1.44a6.89,6.89,0,0,0-6.33,3.61V71.82h-10V34.4Z"/><path class="cls-4" d="M472.13,63.76h18.3v8.06H459.37V65.74L477,42.46H459.88V34.4h30v5.89Z"/></g></g></svg>