<svg id="Layer_1" data-name="Layer 1" xmlns="http://www.w3.org/2000/svg" viewBox="0 0 62 30"><defs><style>.cls-1{fill:#353070;}.cls-2{fill:#eb743b;}</style></defs><polygon class="cls-1" points="14 1 2 8 2 22 14 29 14 1"/><polygon class="cls-2" points="15 1 27 8 27 22 15 29 15 1"/><path class="cls-1" d="M36,21.05h7.26V25H31.16V5.24H36Z"/><path class="cls-2" d="M45.55,25V5.24h6.71a8.53,8.53,0,0,1,5.29,1.4,4.81,4.81,0,0,1,1.82,4.06,5.09,5.09,0,0,1-.66,2.63,3.86,3.86,0,0,1-2,1.64,3.74,3.74,0,0,1,2.15,1.56,4.93,4.93,0,0,1,.77,2.8A5.14,5.14,0,0,1,58,23.64,8.16,8.16,0,0,1,52.81,25Zm4.8-11.55h2.3a1.78,1.78,0,0,0,1.92-2,2.41,2.41,0,0,0-.47-1.67,2,2,0,0,0-1.46-.5H50.35Zm0,3.34v4.26h2.46A1.89,1.89,0,0,0,54.88,19c0-1.43-.58-2.17-1.73-2.21Z"/></svg>