<svg xmlns="http://www.w3.org/2000/svg" xmlns:xlink="http://www.w3.org/1999/xlink" viewBox="0 0 375 150"><defs><style>.cls-1{fill:none;}.cls-2{isolation:isolate;}.cls-3{fill:#eb743b;}.cls-4{fill:#353070;}.cls-5,.cls-9{mix-blend-mode:multiply;}.cls-5{opacity:0.07;}.cls-6{clip-path:url(#clip-path);}.cls-7{fill:#d3562c;}.cls-8{fill:#fffedb;}.cls-9{opacity:0.25;}</style><clipPath id="clip-path"><rect class="cls-1" x="70.03" y="28.33" width="51.43" height="90.79"/></clipPath></defs><g class="cls-2"><g id="Layer_1" data-name="Layer 1"><polygon class="cls-3" points="70.03 2.92 70.03 146.92 131.03 111.92 131.03 37.92 70.03 2.92"/><polygon class="cls-4" points="65.03 2.83 4.03 37.83 4.03 111.83 65.03 146.83 65.03 2.83"/><g class="cls-5"><g class="cls-6"><path d="M87.33,94.65a2.1,2.1,0,0,1,1.82-1,2.07,2.07,0,0,1,1.08.3A2.11,2.11,0,0,1,91,96.81a2.08,2.08,0,0,1-1.81,1,2.12,2.12,0,0,1-1.09-.31,2.11,2.11,0,0,1-.73-2.89M99.93,117a2.07,2.07,0,0,1-1.37.51,2.11,2.11,0,1,1,2.11-2,2.14,2.14,0,0,1-.74,1.44"/><path d="M79,48.53l.21,0-.21,0"/><path d="M90.41,58.17a2.09,2.09,0,0,1,1.79-1,2.15,2.15,0,0,1,1.13.32,2.12,2.12,0,1,1-2.92.65M96.79,38a2.14,2.14,0,0,1-2.91.65l-.1-.06a2.12,2.12,0,0,1-.56-2.85,2.09,2.09,0,0,1,1.79-1,2.13,2.13,0,0,1,2.06,1.66A2.12,2.12,0,0,1,96.79,38"/><path d="M113.55,49.58a2.12,2.12,0,0,1,1.79-1,2.1,2.1,0,0,1,1.12.33,2.07,2.07,0,0,1,.94,1.33,2.1,2.1,0,0,1-.28,1.58,2.14,2.14,0,0,1-2.91.66l-.1-.07a2.11,2.11,0,0,1-.56-2.85m0,23.47a2.12,2.12,0,0,1,2.91-.66A2.11,2.11,0,1,1,114.21,76l-.1-.06a2.12,2.12,0,0,1-.56-2.85m0,26.3a2.12,2.12,0,0,1,1.79-1,2,2,0,0,1,1.12.33,2.07,2.07,0,0,1,.94,1.33,2.1,2.1,0,0,1-.28,1.58,2.14,2.14,0,0,1-2.91.65l-.1-.06a2.12,2.12,0,0,1-.56-2.85"/><path d="M103.2,109a6.09,6.09,0,0,0-4.64-2.14,6.12,6.12,0,0,0-6.07,6.87,20.1,20.1,0,0,1-5.33,1.34,4.11,4.11,0,0,1-2.23-1,10.65,10.65,0,0,0-4.14-1.84,37.76,37.76,0,0,0,8.58-12.84,6.07,6.07,0,1,0-3.86-1.17c-4.05,9.21-9.22,13.08-12.56,14.68a1.49,1.49,0,0,0-.36.17,11,11,0,0,1-2.56.8v4a12.62,12.62,0,0,0,4.25-1.2c5.34-1.35,6.84-.35,8.4.71A7.87,7.87,0,0,0,87,119.09h.3a23.69,23.69,0,0,0,7-1.73,6.11,6.11,0,0,0,10.38-3.9A6,6,0,0,0,103.2,109M87.33,92.24a2.12,2.12,0,0,1,1.82-1,2.17,2.17,0,0,1,1.08.3,2.12,2.12,0,0,1,.73,2.9,2.11,2.11,0,0,1-2.9.73,2.12,2.12,0,0,1-.73-2.9m12.6,22.37a2.07,2.07,0,0,1-1.37.51,2.11,2.11,0,1,1,2.11-2,2.14,2.14,0,0,1-.74,1.44"/><path d="M79,46.12l.21.05L79,46.12"/><path d="M101,33.12a6.12,6.12,0,1,0-11,4.82,13.38,13.38,0,0,1-10,4.29,29.12,29.12,0,0,0-10-2.31v4a25,25,0,0,1,8.75,2.14h0a21.54,21.54,0,0,1,8.61,7c-.14.18-.26.36-.38.54a6.12,6.12,0,1,0,8.45-1.91A6.23,6.23,0,0,0,90.8,51a25.77,25.77,0,0,0-5.35-5.57,16.39,16.39,0,0,0,7.78-5.09,6.27,6.27,0,0,0,1.77.26,6.12,6.12,0,0,0,6-7.45M90.41,55.77a2,2,0,0,1,.67-.66,2.11,2.11,0,0,1,1.12-.32,2.15,2.15,0,0,1,1.13.32A2.12,2.12,0,0,1,92.19,59a2,2,0,0,1-1.12-.33,2.12,2.12,0,0,1-.66-2.92m6.38-20.19a2.14,2.14,0,0,1-2.91.65l-.1-.06A2.11,2.11,0,0,1,95,32.34a2.06,2.06,0,0,1,1.12.33,2.1,2.1,0,0,1,.66,2.91"/><path d="M109.67,74.1a6.09,6.09,0,0,0,2.11,2.65l.29.19a6.11,6.11,0,1,0,3.27-11.29l-.38,0a25.63,25.63,0,0,1,0-11.26l.33,0a6.12,6.12,0,0,0,3.27-11.3,6.18,6.18,0,0,0-3.26-.94,6.11,6.11,0,0,0-4.15,10.61l.07.06a28.75,28.75,0,0,0,0,14.42,5.25,5.25,0,0,0-.42.4,5.8,5.8,0,0,0-.64.82,6.73,6.73,0,0,0-.71,1.58,15.21,15.21,0,0,0-6.82,2.73c-2,1.32-4,2.57-9.64,2.67a32.77,32.77,0,0,0-5.29-.12c-1.43,0-2.91.11-4.84,0-1.34-.07-2.11-.88-3.46-2.42-1.8-2.06-4.22-4.65-9.37-5v4c3.29.3,4.8,1.88,6.36,3.66s3.17,3.62,6.25,3.79c2.12.11,3.76,0,5.21,0a23.8,23.8,0,0,1,7.85.68c2.61.64,12.1,9.67,14.78,14.32-.11.14-.22.28-.32.43a6.12,6.12,0,0,0,1.62,8.26l.29.19a6.11,6.11,0,1,0,1.72-11.1c-2.56-4.19-8.65-10.45-13.18-13.79a18.42,18.42,0,0,0,4.21-2.19,11.29,11.29,0,0,1,4.85-2.07m3.88-26.92a2.12,2.12,0,0,1,2.91-.66,2.11,2.11,0,1,1-2.25,3.57l-.1-.06a2.12,2.12,0,0,1-.56-2.85m0,23.46a2.12,2.12,0,0,1,1.79-1,2,2,0,0,1,1.12.33,2.07,2.07,0,0,1,.94,1.33,2.1,2.1,0,0,1-.28,1.58,2.14,2.14,0,0,1-2.91.65l-.1-.06a2.12,2.12,0,0,1-.56-2.85m0,26.3a2.12,2.12,0,0,1,1.79-1,2.11,2.11,0,0,1,1.78,3.24,2.14,2.14,0,0,1-2.91.66l-.1-.07a2.11,2.11,0,0,1-.56-2.85"/></g></g><path class="cls-7" d="M103.2,112a6.09,6.09,0,0,0-4.64-2.14,6.12,6.12,0,0,0-6.07,6.87,19.62,19.62,0,0,1-5.33,1.33,4,4,0,0,1-2.23-1,10.65,10.65,0,0,0-4.14-1.84,37.76,37.76,0,0,0,8.58-12.84,6.07,6.07,0,1,0-3.86-1.17c-4.05,9.21-9.22,13.08-12.56,14.68a1.49,1.49,0,0,0-.36.17,11,11,0,0,1-2.56.8v4a12.62,12.62,0,0,0,4.25-1.2c5.34-1.35,6.84-.35,8.4.71A7.87,7.87,0,0,0,87,122.09h.3a23.69,23.69,0,0,0,7-1.73,6.11,6.11,0,0,0,10.38-3.9A6,6,0,0,0,103.2,112M87.33,95.24a2.12,2.12,0,0,1,1.82-1,2.17,2.17,0,0,1,1.08.3,2.12,2.12,0,0,1,.73,2.9,2.11,2.11,0,0,1-2.9.73,2.12,2.12,0,0,1-.73-2.9m12.6,22.37a2.06,2.06,0,0,1-1.37.5,2.1,2.1,0,1,1,2.11-1.94,2.14,2.14,0,0,1-.74,1.44"/><path d="M79,48.53l.21,0-.21,0"/><path class="cls-7" d="M101,35.12a6.12,6.12,0,1,0-11,4.82,13.36,13.36,0,0,1-10,4.3,28.93,28.93,0,0,0-10-2.32v4a24.75,24.75,0,0,1,8.75,2.13h0a21.46,21.46,0,0,1,8.61,7,5.22,5.22,0,0,0-.38.54,6.12,6.12,0,1,0,8.45-1.91A6.24,6.24,0,0,0,90.8,53a26,26,0,0,0-5.35-5.56,16.34,16.34,0,0,0,7.78-5.1,6.28,6.28,0,0,0,1.77.27,6.12,6.12,0,0,0,6-7.46M90.41,57.77a2.13,2.13,0,0,1,1.79-1,2.24,2.24,0,0,1,1.13.32,2.12,2.12,0,1,1-2.92.66m6.38-20.19a2.14,2.14,0,0,1-2.91.66l-.1-.07A2.11,2.11,0,0,1,95,34.34,2.13,2.13,0,0,1,97.07,36a2.09,2.09,0,0,1-.28,1.58"/><path class="cls-7" d="M109.67,77.1a6.09,6.09,0,0,0,2.11,2.65l.29.19a6.11,6.11,0,1,0,3.27-11.29l-.38,0a25.63,25.63,0,0,1,0-11.26l.33,0a6.12,6.12,0,0,0,3.27-11.3,6.18,6.18,0,0,0-3.26-.94,6.11,6.11,0,0,0-4.15,10.61l.07.06a28.75,28.75,0,0,0,0,14.42,5.25,5.25,0,0,0-.42.4,5.8,5.8,0,0,0-.64.82,6.73,6.73,0,0,0-.71,1.58,15.21,15.21,0,0,0-6.82,2.73c-2,1.32-4,2.57-9.64,2.67a32.77,32.77,0,0,0-5.29-.12c-1.43,0-2.91.1-4.84,0-1.34-.07-2.11-.88-3.46-2.42-1.8-2.06-4.22-4.65-9.37-5v4c3.29.3,4.8,1.88,6.36,3.66s3.17,3.62,6.25,3.79c2.12.11,3.76,0,5.21,0a23.8,23.8,0,0,1,7.85.68c2.61.64,12.1,9.67,14.78,14.32-.11.14-.22.28-.32.43a6.12,6.12,0,0,0,1.62,8.26l.29.19a6.11,6.11,0,1,0,1.72-11.1c-2.56-4.19-8.65-10.45-13.18-13.79a18.42,18.42,0,0,0,4.21-2.19,11.29,11.29,0,0,1,4.85-2.07m3.88-26.92a2.12,2.12,0,0,1,2.91-.66,2.11,2.11,0,1,1-2.25,3.57l-.1-.06a2.12,2.12,0,0,1-.56-2.85m0,23.46a2.12,2.12,0,0,1,1.79-1,2,2,0,0,1,1.12.33,2.07,2.07,0,0,1,.94,1.33,2.1,2.1,0,0,1-.28,1.58,2.14,2.14,0,0,1-2.91.65l-.1-.06a2.12,2.12,0,0,1-.56-2.85m0,26.3a2.12,2.12,0,0,1,1.79-1,2.11,2.11,0,0,1,1.78,3.24,2.14,2.14,0,0,1-2.91.66l-.1-.07a2.11,2.11,0,0,1-.56-2.85"/><path class="cls-8" d="M103.2,109a6.09,6.09,0,0,0-4.64-2.14,6.12,6.12,0,0,0-6.07,6.87,20.1,20.1,0,0,1-5.33,1.34,4.11,4.11,0,0,1-2.23-1,10.65,10.65,0,0,0-4.14-1.84,37.76,37.76,0,0,0,8.58-12.84,6.07,6.07,0,1,0-3.86-1.17c-4.05,9.21-9.22,13.08-12.56,14.68a1.49,1.49,0,0,0-.36.17,11,11,0,0,1-2.56.8v4a12.62,12.62,0,0,0,4.25-1.2c5.34-1.35,6.84-.35,8.4.71A7.87,7.87,0,0,0,87,119.09h.3a23.69,23.69,0,0,0,7-1.73,6.11,6.11,0,0,0,10.38-3.9A6,6,0,0,0,103.2,109M87.33,92.24a2.12,2.12,0,0,1,1.82-1,2.17,2.17,0,0,1,1.08.3,2.12,2.12,0,0,1,.73,2.9,2.11,2.11,0,0,1-2.9.73,2.12,2.12,0,0,1-.73-2.9m12.6,22.37a2.07,2.07,0,0,1-1.37.51,2.11,2.11,0,1,1,2.11-2,2.14,2.14,0,0,1-.74,1.44"/><path class="cls-8" d="M79,46.12l.21.05L79,46.12"/><path class="cls-8" d="M101,33.12a6.12,6.12,0,1,0-11,4.82,13.38,13.38,0,0,1-10,4.29,29.12,29.12,0,0,0-10-2.31v4a25,25,0,0,1,8.75,2.14h0a21.54,21.54,0,0,1,8.61,7c-.14.18-.26.36-.38.54a6.12,6.12,0,1,0,8.45-1.91A6.23,6.23,0,0,0,90.8,51a25.77,25.77,0,0,0-5.35-5.57,16.39,16.39,0,0,0,7.78-5.09,6.27,6.27,0,0,0,1.77.26,6.12,6.12,0,0,0,6-7.45M90.41,55.77a2,2,0,0,1,.67-.66,2.11,2.11,0,0,1,1.12-.32,2.15,2.15,0,0,1,1.13.32A2.12,2.12,0,0,1,92.19,59a2,2,0,0,1-1.12-.33,2.12,2.12,0,0,1-.66-2.92m6.38-20.19a2.14,2.14,0,0,1-2.91.65l-.1-.06A2.11,2.11,0,0,1,95,32.34a2.06,2.06,0,0,1,1.12.33,2.1,2.1,0,0,1,.66,2.91"/><path class="cls-8" d="M109.67,74.1a6.09,6.09,0,0,0,2.11,2.65l.29.19a6.11,6.11,0,1,0,3.27-11.29l-.38,0a25.63,25.63,0,0,1,0-11.26l.33,0a6.12,6.12,0,0,0,3.27-11.3,6.18,6.18,0,0,0-3.26-.94,6.11,6.11,0,0,0-4.15,10.61l.07.06a28.75,28.75,0,0,0,0,14.42,5.25,5.25,0,0,0-.42.4,5.8,5.8,0,0,0-.64.82,6.73,6.73,0,0,0-.71,1.58,15.21,15.21,0,0,0-6.82,2.73c-2,1.32-4,2.57-9.64,2.67a32.77,32.77,0,0,0-5.29-.12c-1.43,0-2.91.11-4.84,0-1.34-.07-2.11-.88-3.46-2.42-1.8-2.06-4.22-4.65-9.37-5v4c3.29.3,4.8,1.88,6.36,3.66s3.17,3.62,6.25,3.79c2.12.11,3.76,0,5.21,0a23.8,23.8,0,0,1,7.85.68c2.61.64,12.1,9.67,14.78,14.32-.11.14-.22.28-.32.43a6.12,6.12,0,0,0,1.62,8.26l.29.19a6.11,6.11,0,1,0,1.72-11.1c-2.56-4.19-8.65-10.45-13.18-13.79a18.42,18.42,0,0,0,4.21-2.19,11.29,11.29,0,0,1,4.85-2.07m3.88-26.92a2.12,2.12,0,0,1,2.91-.66,2.11,2.11,0,1,1-2.25,3.57l-.1-.06a2.12,2.12,0,0,1-.56-2.85m0,23.46a2.12,2.12,0,0,1,1.79-1,2,2,0,0,1,1.12.33,2.07,2.07,0,0,1,.94,1.33,2.1,2.1,0,0,1-.28,1.58,2.14,2.14,0,0,1-2.91.65l-.1-.06a2.12,2.12,0,0,1-.56-2.85m0,26.3a2.12,2.12,0,0,1,1.79-1,2.11,2.11,0,0,1,1.78,3.24,2.14,2.14,0,0,1-2.91.66l-.1-.07a2.11,2.11,0,0,1-.56-2.85"/><g class="cls-9"><path d="M48.08,99.73a1.25,1.25,0,0,1-.71-.23,1.22,1.22,0,0,1-.29-1.72,9.37,9.37,0,0,0,.23-10.42A1.23,1.23,0,0,1,49.39,86,11.83,11.83,0,0,1,50,97.62a11.46,11.46,0,0,1-.94,1.59,1.23,1.23,0,0,1-1,.52"/><path d="M53.76,102.67a1.22,1.22,0,0,1-.72-.24,1.24,1.24,0,0,1-.27-1.73,13.12,13.12,0,0,0,1.22-2,13.51,13.51,0,0,0-1.28-14.16,1.24,1.24,0,0,1,2-1.48,16.06,16.06,0,0,1,.06,19.11,1.24,1.24,0,0,1-1,.51"/><path d="M42.52,96.61a1.21,1.21,0,0,1-.61-.16,1.24,1.24,0,0,1-.46-1.69,4.91,4.91,0,0,0,.18-4.46,1.24,1.24,0,0,1,.61-1.64,1.23,1.23,0,0,1,1.63.6A7.38,7.38,0,0,1,43.6,96a1.25,1.25,0,0,1-1.08.63"/></g><path class="cls-3" d="M48.08,97.68a1.24,1.24,0,0,1-.71-.22,1.22,1.22,0,0,1-.29-1.72,9.9,9.9,0,0,0,.74-1.26,9.21,9.21,0,0,0-.51-9.16A1.24,1.24,0,0,1,49.39,84a11.82,11.82,0,0,1-.3,13.18,1.23,1.23,0,0,1-1,.52"/><path class="cls-3" d="M53.76,100.62a1.21,1.21,0,0,1-.72-.23,1.24,1.24,0,0,1-.27-1.73,13.72,13.72,0,0,0,1.22-2,13.51,13.51,0,0,0-1.28-14.16,1.24,1.24,0,0,1,2-1.47,16,16,0,0,1,1.51,16.73,16.43,16.43,0,0,1-1.45,2.38,1.23,1.23,0,0,1-1,.5"/><path class="cls-3" d="M42.52,94.56a1.21,1.21,0,0,1-.61-.16,1.23,1.23,0,0,1-.46-1.68,4.93,4.93,0,0,0,.18-4.47,1.23,1.23,0,1,1,2.24-1,7.38,7.38,0,0,1-.27,6.72,1.22,1.22,0,0,1-1.08.62"/><g class="cls-9"><path d="M60.66,41.14c-10.35,0-20.83,3.73-27.35,9.75-7,6.51-10.75,16.62-10.58,28.63a4.07,4.07,0,0,0-3.48,4v18.52a4.1,4.1,0,0,0,4.09,4.1h2.08a4.08,4.08,0,0,0,.93-.12v1.64a3.86,3.86,0,0,0,3.57,4.09h1.95a3.86,3.86,0,0,0,3.57-4.09V77.35a3.86,3.86,0,0,0-3.57-4.09H29.92a3.75,3.75,0,0,0-3.51,3.36,44.05,44.05,0,0,1,.45-5.21C28,64,31.07,57.84,35.74,53.52c5.8-5.35,15.57-8.81,24.92-8.81,1.06,0,3.31,0,4.37.15V41.29C63.8,41.17,61.79,41.14,60.66,41.14ZM25.42,101.66A2.71,2.71,0,0,1,22.71,99V86.67A2.71,2.71,0,0,1,25.42,84h.93v17.7Z"/></g><path class="cls-8" d="M60.66,39.09c-10.35,0-20.83,3.74-27.35,9.76-7,6.5-10.75,16.61-10.58,28.62a4.07,4.07,0,0,0-3.48,4V100a4.09,4.09,0,0,0,4.09,4.09h2.08a4.08,4.08,0,0,0,.93-.12v1.64a3.86,3.86,0,0,0,3.57,4.09h1.95a3.86,3.86,0,0,0,3.57-4.09V75.3a3.86,3.86,0,0,0-3.57-4.09H29.92a3.75,3.75,0,0,0-3.51,3.36,44.44,44.44,0,0,1,.45-5.21C28,62,31.07,55.79,35.74,51.48c5.8-5.35,15.57-8.81,24.92-8.81,1.06,0,3.31,0,4.37.15V39.25C63.8,39.13,61.79,39.09,60.66,39.09ZM25.42,99.62a2.71,2.71,0,0,1-2.71-2.71V84.62a2.71,2.71,0,0,1,2.71-2.71h.93V99.62Z"/><path class="cls-4" d="M169.58,58.91h20.06V69.83H156.31V15.23h13.27Z"/><path class="cls-4" d="M196.19,11.1A6.3,6.3,0,0,1,198,6.44a7.35,7.35,0,0,1,9.66,0,6.3,6.3,0,0,1,1.81,4.66,6.42,6.42,0,0,1-1.79,4.66,7.28,7.28,0,0,1-9.7,0A6.46,6.46,0,0,1,196.19,11.1ZM209,69.83H196.75V23.17H209Z"/><path class="cls-4" d="M239.1,57.33a3.82,3.82,0,0,0-1.49-2.87A29.43,29.43,0,0,0,231,50.9q-7.55-3.06-10.37-6.34a12,12,0,0,1-2.82-8.15,13,13,0,0,1,4.42-10.11c2.94-2.66,6.85-4,11.7-4q7.68,0,12.29,4a13.31,13.31,0,0,1,4.62,10.65H238.62q0-5.68-4.74-5.69a4.38,4.38,0,0,0-3.19,1.21,4.45,4.45,0,0,0-1.25,3.36,3.54,3.54,0,0,0,1.38,2.74,30.15,30.15,0,0,0,6.51,3.38q7.46,2.76,10.54,6.15A12.49,12.49,0,0,1,251,56.85a12.28,12.28,0,0,1-4.7,10.05q-4.71,3.8-12.34,3.8a19.56,19.56,0,0,1-9-2,15.25,15.25,0,0,1-6.15-5.58,14.39,14.39,0,0,1-2.22-7.72h11.6a7.4,7.4,0,0,0,1.49,4.78q1.4,1.61,4.59,1.6Q239.1,61.77,239.1,57.33Z"/><path class="cls-4" d="M272.73,11.7V23.17H279v9.15h-6.26V55.51a6.86,6.86,0,0,0,.76,3.8,3.4,3.4,0,0,0,2.91,1,11,11,0,0,0,2.89-.31l-.09,9.49a18.9,18.9,0,0,1-6.72,1.17q-11.82,0-12-13.56V32.32h-5.39V23.17h5.39V11.7Z"/><path class="cls-4" d="M304.52,70.7q-9.4,0-14.66-5.61t-5.27-16V45.34q0-11,4.83-17t13.85-6q8.79,0,13.24,5.62T321,44.57v6H296.75c.18,3.46.94,6,2.29,7.6s3.44,2.4,6.25,2.4a13.7,13.7,0,0,0,10.22-4.18l4.79,7.37a15.85,15.85,0,0,1-6.51,5A22.36,22.36,0,0,1,304.52,70.7Zm-7.68-28.64H309V40.94a13,13,0,0,0-1.37-6.34c-.87-1.43-2.36-2.15-4.49-2.15a5.09,5.09,0,0,0-4.64,2.28Q297.1,37,296.84,42.06Z"/><path class="cls-4" d="M339.1,23.17l.35,4.62a12.94,12.94,0,0,1,10.82-5.48q12,0,12.38,16.86V69.83H350.4V40.08q0-4-1.19-5.76c-.79-1.19-2.17-1.79-4.16-1.79-2.21,0-3.94,1.14-5.17,3.41V69.83H327.63V23.17Z"/><path class="cls-3" d="M156.31,138.83V84.23h18.56q9.57,0,14.61,3.86t5,11.23a14.08,14.08,0,0,1-1.82,7.26,10.77,10.77,0,0,1-5.39,4.55,10.43,10.43,0,0,1,5.95,4.29,13.74,13.74,0,0,1,2.11,7.76q0,8.16-4.74,11.9t-14.25,3.75Zm13.27-31.92H176c3.53-.09,5.3-2,5.3-5.62,0-2.16-.44-3.7-1.31-4.62a5.33,5.33,0,0,0-4-1.38h-6.33Zm0,9.24v11.76h6.79a5.17,5.17,0,0,0,5.72-5.65q0-5.92-4.78-6.11Z"/><path class="cls-3" d="M226.48,104l-4-.35c-3.34,0-5.59,1.47-6.77,4.4v30.83H203.41V92.17h11.52l.34,5q2.89-5.91,8-5.91a8.59,8.59,0,0,1,3.36.56Z"/><path class="cls-3" d="M253.61,138.83a16.73,16.73,0,0,1-1-3.62,10.42,10.42,0,0,1-8.88,4.49,13.16,13.16,0,0,1-9.72-3.88,13.62,13.62,0,0,1-3.86-10q0-7.33,4.68-11.34c3.11-2.68,7.61-4,13.47-4.1H252v-3.75q0-3.15-1.08-4.44a3.85,3.85,0,0,0-3.15-1.3c-3,0-4.57,1.79-4.57,5.35H231a13.51,13.51,0,0,1,4.85-10.67,18,18,0,0,1,12.27-4.21q7.68,0,11.88,4t4.2,11.41v22a23,23,0,0,0,1.73,9.44v.73Zm-7.2-8.71a6.78,6.78,0,0,0,3.45-.82,5.78,5.78,0,0,0,2.11-1.94v-9.7H249a6.27,6.27,0,0,0-4.9,2,7.65,7.65,0,0,0-1.79,5.31Q242.35,130.13,246.41,130.12Z"/><path class="cls-3" d="M273,80.1a6.31,6.31,0,0,1,1.82-4.66,7.34,7.34,0,0,1,9.65,0,6.31,6.31,0,0,1,1.82,4.66,6.65,6.65,0,1,1-13.29,0Zm12.81,58.73H273.57V92.17h12.25Z"/><path class="cls-3" d="M306.43,92.17l.35,4.62a13,13,0,0,1,10.82-5.48q12,0,12.38,16.86v30.66H317.73V109.08q0-4-1.18-5.76c-.79-1.19-2.18-1.79-4.16-1.79-2.22,0-3.94,1.14-5.18,3.41v33.89H295V92.17Z"/><path class="cls-3" d="M352.23,128.7h18.46v10.13H337.74V131.2l18-28.85h-17.6V92.17h32.26v7.38Z"/></g></g></svg>