<svg xmlns="http://www.w3.org/2000/svg" viewBox="0 0 145 160"><defs><style>.cls-1{isolation:isolate;}.cls-2{fill:#eb743b;}.cls-3{fill:#353070;}.cls-4,.cls-7{mix-blend-mode:multiply;}.cls-4{opacity:0.07;}.cls-5{fill:#d3562c;}.cls-6{fill:#fffedb;}.cls-7{opacity:0.3;}.cls-10,.cls-11,.cls-12,.cls-8,.cls-9{fill:none;stroke-linecap:round;}.cls-8,.cls-9{stroke:#000;}.cls-10,.cls-8{stroke-width:5px;}.cls-11,.cls-12,.cls-9{stroke-width:4px;}.cls-10,.cls-11{stroke:#fffedb;}.cls-12{stroke:#eb743b;}</style></defs><g class="cls-1"><g id="Layer_1" data-name="Layer 1"><polygon class="cls-2" points="75 8 75 152 136 117 136 43 75 8"/><polygon class="cls-3" points="70 8 9 43 9 117 70 152 70 8"/><g class="cls-4"><path d="M92.3,99.73a2.12,2.12,0,0,1,1.82-1,2.17,2.17,0,0,1,1.08.3,2.12,2.12,0,0,1,.73,2.9,2.11,2.11,0,0,1-2.9.73,2.12,2.12,0,0,1-.73-2.9Zm12.6,22.37a2.06,2.06,0,0,1-1.37.5,2.1,2.1,0,0,1-1.61-.73,2.11,2.11,0,1,1,3.21-2.75,2.11,2.11,0,0,1,.51,1.54A2.14,2.14,0,0,1,104.9,122.1Z"/><path d="M84,53.61l.21,0Z"/><path d="M95.38,63.26a2,2,0,0,1,.67-.66,2.11,2.11,0,0,1,1.12-.32,2.12,2.12,0,1,1,0,4.23,2.12,2.12,0,0,1-1.78-3.25Zm6.38-20.19a2.14,2.14,0,0,1-2.91.65l-.1-.06A2.11,2.11,0,0,1,100,39.83a2,2,0,0,1,1.12.33,2.1,2.1,0,0,1,.66,2.91Z"/><path d="M118.53,54.67a2.11,2.11,0,0,1,2.9-.66,2.11,2.11,0,1,1-2.25,3.57l-.1-.06A2.1,2.1,0,0,1,118.53,54.67Zm0,23.46a2.09,2.09,0,0,1,1.78-1,2,2,0,0,1,1.12.33,2.07,2.07,0,0,1,.94,1.33,2.1,2.1,0,0,1-.28,1.58,2.14,2.14,0,0,1-2.91.65l-.1-.06A2.1,2.1,0,0,1,118.53,78.13Zm0,26.3a2.11,2.11,0,1,1,3.56,2.26,2.15,2.15,0,0,1-2.91.66l-.1-.07A2.1,2.1,0,0,1,118.53,104.43Z"/><path d="M108.18,114.1a6.12,6.12,0,0,0-10.72,4.74,20,20,0,0,1-5.33,1.33,4,4,0,0,1-2.22-1,10.78,10.78,0,0,0-4.15-1.85,37.66,37.66,0,0,0,8.58-12.83,6.12,6.12,0,1,0-5.48-9.24,6.12,6.12,0,0,0,1.62,8.06c-4,9.22-9.21,13.08-12.56,14.68a2,2,0,0,0-.36.17A11.22,11.22,0,0,1,75,119v4a12.69,12.69,0,0,0,4.25-1.19c5.34-1.36,6.84-.36,8.4.71a7.93,7.93,0,0,0,4.27,1.65h.31a23.69,23.69,0,0,0,7-1.72,6.14,6.14,0,0,0,4.28,1.75h0a6.11,6.11,0,0,0,4-1.48,6.13,6.13,0,0,0,.67-8.63ZM92.3,97.33a2.1,2.1,0,0,1,1.82-1,2.16,2.16,0,0,1,1.08.29,2.12,2.12,0,0,1,.73,2.9,2.08,2.08,0,0,1-1.81,1,2.12,2.12,0,0,1-1.09-.31,2.11,2.11,0,0,1-.73-2.89Zm12.6,22.36a2.07,2.07,0,0,1-1.37.51,2.11,2.11,0,1,1,2.11-2A2.14,2.14,0,0,1,104.9,119.69Z"/><path d="M84,51.21l.21,0Z"/><path d="M106,38.2A6.12,6.12,0,1,0,95,43a13.36,13.36,0,0,1-10,4.3A28.93,28.93,0,0,0,75,45v4a24.75,24.75,0,0,1,8.75,2.13h0a21.46,21.46,0,0,1,8.61,7,5.22,5.22,0,0,0-.38.54,6.12,6.12,0,1,0,8.45-1.91,6.24,6.24,0,0,0-4.67-.76,26,26,0,0,0-5.35-5.56,16.29,16.29,0,0,0,7.78-5.1,6.28,6.28,0,0,0,1.77.27,6.12,6.12,0,0,0,6-7.46ZM95.38,60.85a2,2,0,0,1,.67-.66,2.11,2.11,0,0,1,1.12-.32,2.16,2.16,0,0,1,1.13.33,2.12,2.12,0,1,1-2.92.65Zm6.38-20.19a2.13,2.13,0,0,1-2.91.66l-.1-.07a2.11,2.11,0,0,1,2.35-3.5,2.14,2.14,0,0,1,.94,1.33A2.09,2.09,0,0,1,101.76,40.66Z"/><path d="M114.65,79.19a6.05,6.05,0,0,0,2.1,2.65L117,82a6.12,6.12,0,1,0,3.27-11.29h-.38a25.63,25.63,0,0,1,0-11.26l.34,0a6.12,6.12,0,1,0-4.15-1.62s0,0,.07.06a28.59,28.59,0,0,0,0,14.41c-.15.14-.3.26-.43.4a5.67,5.67,0,0,0-.63.83,5.73,5.73,0,0,0-.71,1.58,15.22,15.22,0,0,0-6.83,2.72c-2,1.33-4,2.58-9.63,2.67a32.82,32.82,0,0,0-5.29-.12,48.41,48.41,0,0,1-4.85,0c-1.34-.07-2.11-.89-3.46-2.43-1.8-2-4.22-4.65-9.37-5v4c3.29.3,4.8,1.89,6.36,3.67s3.17,3.61,6.25,3.78c2.12.11,3.76,0,5.21,0a24.43,24.43,0,0,1,7.86.68c2.6.65,12.09,9.68,14.77,14.33a4.25,4.25,0,0,0-.31.43,6.1,6.1,0,0,0,1.61,8.25l.29.19A6.12,6.12,0,1,0,123.57,98a6.18,6.18,0,0,0-3.26-.94,6,6,0,0,0-1.54.2c-2.56-4.19-8.66-10.46-13.19-13.8a17.66,17.66,0,0,0,4.21-2.19A11.33,11.33,0,0,1,114.65,79.19Zm3.88-26.93a2.11,2.11,0,1,1,3.56,2.26,2.14,2.14,0,0,1-2.91.65l-.1-.06A2.1,2.1,0,0,1,118.53,52.26Zm0,23.47a2.11,2.11,0,0,1,2.9-.66,2.11,2.11,0,1,1-2.25,3.57l-.1-.06A2.1,2.1,0,0,1,118.53,75.73Zm0,26.3a2.11,2.11,0,0,1,2.9-.66,2.11,2.11,0,1,1-2.25,3.57l-.1-.06A2.1,2.1,0,0,1,118.53,102Z"/></g><path class="cls-5" d="M108.18,117.1a6.12,6.12,0,0,0-10.72,4.74,20,20,0,0,1-5.33,1.33,4,4,0,0,1-2.22-1,10.78,10.78,0,0,0-4.15-1.85,37.66,37.66,0,0,0,8.58-12.83,6.12,6.12,0,1,0-5.48-9.24,6.12,6.12,0,0,0,1.62,8.06c-4,9.22-9.21,13.08-12.56,14.68a2,2,0,0,0-.36.17A11.22,11.22,0,0,1,75,122v4a12.69,12.69,0,0,0,4.25-1.19c5.34-1.36,6.84-.36,8.4.71a7.93,7.93,0,0,0,4.27,1.65h.31a23.69,23.69,0,0,0,7-1.72,6.14,6.14,0,0,0,4.28,1.75h0a6.11,6.11,0,0,0,4-1.48,6.13,6.13,0,0,0,.67-8.63ZM92.3,100.33a2.1,2.1,0,0,1,1.82-1,2.16,2.16,0,0,1,1.08.29,2.12,2.12,0,0,1,.73,2.9,2.08,2.08,0,0,1-1.81,1,2.12,2.12,0,0,1-1.09-.31,2.11,2.11,0,0,1-.73-2.89Zm12.6,22.36a2.07,2.07,0,0,1-1.37.51,2.11,2.11,0,1,1,2.11-2A2.14,2.14,0,0,1,104.9,122.69Z"/><path d="M84,53.61l.21,0Z"/><path class="cls-5" d="M106,40.21a6.12,6.12,0,0,0-2.71-3.85,6.18,6.18,0,0,0-3.26-.94A6.12,6.12,0,0,0,95,45a13.38,13.38,0,0,1-10,4.29A29.39,29.39,0,0,0,75,47v4a24.79,24.79,0,0,1,8.75,2.14h0a21.54,21.54,0,0,1,8.61,7,5.22,5.22,0,0,0-.38.54,6.14,6.14,0,0,0,1.9,8.44,6,6,0,0,0,3.27,1,6.13,6.13,0,0,0,3.28-11.31,6.23,6.23,0,0,0-4.67-.75,25.77,25.77,0,0,0-5.35-5.57,16.29,16.29,0,0,0,7.78-5.1,5.94,5.94,0,0,0,1.77.27,6.12,6.12,0,0,0,6-7.45ZM95.38,62.86a2.14,2.14,0,0,1,.67-.67,2.2,2.2,0,0,1,1.12-.31,2.12,2.12,0,1,1,0,4.23,2.12,2.12,0,0,1-1.78-3.25Zm6.38-20.19a2.14,2.14,0,0,1-2.91.65l-.1-.06a2.11,2.11,0,0,1,2.35-3.51,2.16,2.16,0,0,1,.94,1.33A2.12,2.12,0,0,1,101.76,42.67Z"/><path class="cls-5" d="M114.65,82.19a6.05,6.05,0,0,0,2.1,2.65L117,85a6.12,6.12,0,1,0,3.27-11.29h-.38a25.63,25.63,0,0,1,0-11.26l.34,0a6.12,6.12,0,1,0-4.15-1.62s0,0,.07.06a28.59,28.59,0,0,0,0,14.41c-.15.14-.3.26-.43.4a5.67,5.67,0,0,0-.63.83,5.73,5.73,0,0,0-.71,1.58,15.22,15.22,0,0,0-6.83,2.72c-2,1.33-4,2.58-9.63,2.67a32.82,32.82,0,0,0-5.29-.12,48.41,48.41,0,0,1-4.85,0c-1.34-.07-2.11-.89-3.46-2.43-1.8-2-4.22-4.65-9.37-5v4c3.29.3,4.8,1.89,6.36,3.67s3.17,3.61,6.25,3.78c2.12.11,3.76,0,5.21,0a24.43,24.43,0,0,1,7.86.68c2.6.65,12.09,9.68,14.77,14.33a4.25,4.25,0,0,0-.31.43,6.1,6.1,0,0,0,1.61,8.25l.29.19A6.12,6.12,0,1,0,123.57,101a6.18,6.18,0,0,0-3.26-.94,6,6,0,0,0-1.54.2c-2.56-4.19-8.66-10.46-13.19-13.8a17.66,17.66,0,0,0,4.21-2.19A11.33,11.33,0,0,1,114.65,82.19Zm3.88-26.93a2.11,2.11,0,1,1,3.56,2.26,2.14,2.14,0,0,1-2.91.65l-.1-.06A2.1,2.1,0,0,1,118.53,55.26Zm0,23.47a2.11,2.11,0,0,1,2.9-.66,2.11,2.11,0,1,1-2.25,3.57l-.1-.06A2.1,2.1,0,0,1,118.53,78.73Zm0,26.3a2.11,2.11,0,0,1,2.9-.66,2.11,2.11,0,1,1-2.25,3.57l-.1-.06A2.1,2.1,0,0,1,118.53,105Z"/><path class="cls-6" d="M108.18,114.1a6.12,6.12,0,0,0-10.72,4.74,20,20,0,0,1-5.33,1.33,4,4,0,0,1-2.22-1,10.78,10.78,0,0,0-4.15-1.85,37.66,37.66,0,0,0,8.58-12.83,6.12,6.12,0,1,0-5.48-9.24,6.12,6.12,0,0,0,1.62,8.06c-4,9.22-9.21,13.08-12.56,14.68a2,2,0,0,0-.36.17A11.22,11.22,0,0,1,75,119v4a12.69,12.69,0,0,0,4.25-1.19c5.34-1.36,6.84-.36,8.4.71a7.93,7.93,0,0,0,4.27,1.65h.31a23.69,23.69,0,0,0,7-1.72,6.14,6.14,0,0,0,4.28,1.75h0a6.11,6.11,0,0,0,4-1.48,6.13,6.13,0,0,0,.67-8.63ZM92.3,97.33a2.1,2.1,0,0,1,1.82-1,2.16,2.16,0,0,1,1.08.29,2.12,2.12,0,0,1,.73,2.9,2.08,2.08,0,0,1-1.81,1,2.12,2.12,0,0,1-1.09-.31,2.11,2.11,0,0,1-.73-2.89Zm12.6,22.36a2.07,2.07,0,0,1-1.37.51,2.11,2.11,0,1,1,2.11-2A2.14,2.14,0,0,1,104.9,119.69Z"/><path class="cls-6" d="M84,51.21l.21,0Z"/><path class="cls-6" d="M106,38.2A6.12,6.12,0,1,0,95,43a13.36,13.36,0,0,1-10,4.3A28.93,28.93,0,0,0,75,45v4a24.75,24.75,0,0,1,8.75,2.13h0a21.46,21.46,0,0,1,8.61,7,5.22,5.22,0,0,0-.38.54,6.12,6.12,0,1,0,8.45-1.91,6.24,6.24,0,0,0-4.67-.76,26,26,0,0,0-5.35-5.56,16.29,16.29,0,0,0,7.78-5.1,6.28,6.28,0,0,0,1.77.27,6.12,6.12,0,0,0,6-7.46ZM95.38,60.85a2,2,0,0,1,.67-.66,2.11,2.11,0,0,1,1.12-.32,2.16,2.16,0,0,1,1.13.33,2.12,2.12,0,1,1-2.92.65Zm6.38-20.19a2.13,2.13,0,0,1-2.91.66l-.1-.07a2.11,2.11,0,0,1,2.35-3.5,2.14,2.14,0,0,1,.94,1.33A2.09,2.09,0,0,1,101.76,40.66Z"/><path class="cls-6" d="M114.65,79.19a6.05,6.05,0,0,0,2.1,2.65L117,82a6.12,6.12,0,1,0,3.27-11.29h-.38a25.63,25.63,0,0,1,0-11.26l.34,0a6.12,6.12,0,1,0-4.15-1.62s0,0,.07.06a28.59,28.59,0,0,0,0,14.41c-.15.14-.3.26-.43.4a5.67,5.67,0,0,0-.63.83,5.73,5.73,0,0,0-.71,1.58,15.22,15.22,0,0,0-6.83,2.72c-2,1.33-4,2.58-9.63,2.67a32.82,32.82,0,0,0-5.29-.12,48.41,48.41,0,0,1-4.85,0c-1.34-.07-2.11-.89-3.46-2.43-1.8-2-4.22-4.65-9.37-5v4c3.29.3,4.8,1.89,6.36,3.67s3.17,3.61,6.25,3.78c2.12.11,3.76,0,5.21,0a24.43,24.43,0,0,1,7.86.68c2.6.65,12.09,9.68,14.77,14.33a4.25,4.25,0,0,0-.31.43,6.1,6.1,0,0,0,1.61,8.25l.29.19A6.12,6.12,0,1,0,123.57,98a6.18,6.18,0,0,0-3.26-.94,6,6,0,0,0-1.54.2c-2.56-4.19-8.66-10.46-13.19-13.8a17.66,17.66,0,0,0,4.21-2.19A11.33,11.33,0,0,1,114.65,79.19Zm3.88-26.93a2.11,2.11,0,1,1,3.56,2.26,2.14,2.14,0,0,1-2.91.65l-.1-.06A2.1,2.1,0,0,1,118.53,52.26Zm0,23.47a2.11,2.11,0,0,1,2.9-.66,2.11,2.11,0,1,1-2.25,3.57l-.1-.06A2.1,2.1,0,0,1,118.53,75.73Zm0,26.3a2.11,2.11,0,0,1,2.9-.66,2.11,2.11,0,1,1-2.25,3.57l-.1-.06A2.1,2.1,0,0,1,118.53,102Z"/><g class="cls-7"><path class="cls-8" d="M32.29,69.7a7.25,7.25,0,1,1,.22-10.26A7.24,7.24,0,0,1,32.29,69.7Z"/><line class="cls-9" x1="57.55" y1="103.5" x2="38.2" y2="103.5"/><line class="cls-9" x1="57.55" y1="115.63" x2="38.2" y2="115.63"/><circle cx="27.36" cy="103.5" r="3"/><circle cx="27.36" cy="115.63" r="3"/><line class="cls-9" x1="57.55" y1="91.38" x2="38.2" y2="91.38"/><circle cx="27.36" cy="91.38" r="3"/><path class="cls-9" d="M50.26,54.91a17.07,17.07,0,0,1,1,16.81A16.37,16.37,0,0,1,49.9,74"/><path class="cls-9" d="M57.53,50.18a24,24,0,0,1,2.35,25,23.06,23.06,0,0,1-2.15,3.56"/><path class="cls-9" d="M42.72,69a9.92,9.92,0,0,0,.34-9.06"/></g><path class="cls-10" d="M32.29,66.7a7.25,7.25,0,1,1,.22-10.26A7.24,7.24,0,0,1,32.29,66.7Z"/><line class="cls-11" x1="57.55" y1="100.5" x2="38.2" y2="100.5"/><line class="cls-11" x1="57.55" y1="112.63" x2="38.2" y2="112.63"/><circle class="cls-6" cx="27.36" cy="100.5" r="3"/><circle class="cls-6" cx="27.36" cy="112.63" r="3"/><line class="cls-11" x1="57.55" y1="88.38" x2="38.2" y2="88.38"/><circle class="cls-6" cx="27.36" cy="88.38" r="3"/><path class="cls-12" d="M50.26,51.91a17.07,17.07,0,0,1,1,16.81A16.37,16.37,0,0,1,49.9,71"/><path class="cls-12" d="M57.53,47.18a24,24,0,0,1,2.35,25,23.06,23.06,0,0,1-2.15,3.56"/><path class="cls-12" d="M42.72,66a9.92,9.92,0,0,0,.34-9.06"/></g></g></svg>