<svg xmlns="http://www.w3.org/2000/svg" xmlns:xlink="http://www.w3.org/1999/xlink" viewBox="0 0 220 290"><defs><style>.cls-1{fill:none;}.cls-2{isolation:isolate;}.cls-3{fill:#eb743b;}.cls-4{fill:#353070;}.cls-5,.cls-9{mix-blend-mode:multiply;}.cls-5{opacity:0.07;}.cls-6{clip-path:url(#clip-path);}.cls-7{fill:#d3562c;}.cls-8{fill:#fffedb;}.cls-9{opacity:0.25;}</style><clipPath id="clip-path"><rect class="cls-1" x="111.97" y="27.95" width="51.43" height="90.79"/></clipPath></defs><g class="cls-2"><g id="Layer_1" data-name="Layer 1"><polygon class="cls-3" points="111.97 2.54 111.97 146.54 172.97 111.54 172.97 37.54 111.97 2.54"/><polygon class="cls-4" points="106.97 2.46 45.97 37.46 45.97 111.46 106.97 146.46 106.97 2.46"/><g class="cls-5"><g class="cls-6"><path d="M129.27,94.27a2.1,2.1,0,0,1,1.82-1,2.17,2.17,0,0,1,1.08.3,2.11,2.11,0,0,1-1.09,3.93,2.17,2.17,0,0,1-1.08-.3,2.13,2.13,0,0,1-.73-2.9m12.6,22.36a2.12,2.12,0,0,1-3-.22,2.12,2.12,0,0,1,.23-3,2.06,2.06,0,0,1,1.37-.52,2.09,2.09,0,0,1,1.61.75,2.11,2.11,0,0,1-.23,3"/><path d="M121,48.15l.21,0-.21,0"/><path d="M132.35,57.8a2,2,0,0,1,.67-.67,2.17,2.17,0,0,1,1.12-.31,2.09,2.09,0,0,1,1.12.32,2.12,2.12,0,0,1-1.13,3.91,2.16,2.16,0,0,1-1.13-.33,2.13,2.13,0,0,1-.65-2.92m6.38-20.19a2.15,2.15,0,0,1-2.92.65l-.09-.06a2.11,2.11,0,0,1,1.22-3.83,2.12,2.12,0,0,1,1.79,3.24"/><path d="M155.49,49.21a2.12,2.12,0,0,1,2.91-.66,2.16,2.16,0,0,1,.94,1.33,2.11,2.11,0,0,1-3.19,2.24l-.1-.06a2.12,2.12,0,0,1-.56-2.85m0,23.46a2.12,2.12,0,0,1,1.79-1,2,2,0,0,1,1.12.33,2.09,2.09,0,0,1,.66,2.91,2.14,2.14,0,0,1-2.91.65l-.1-.06a2.12,2.12,0,0,1-.56-2.85m0,26.3a2.12,2.12,0,0,1,1.79-1,2,2,0,0,1,1.12.33,2.1,2.1,0,0,1,.66,2.91,2.15,2.15,0,0,1-2.91.66l-.1-.07a2.11,2.11,0,0,1-.56-2.85"/><path d="M145.14,108.64a6.12,6.12,0,0,0-10.72,4.74,20,20,0,0,1-5.32,1.33,4,4,0,0,1-2.23-1,10.71,10.71,0,0,0-4.15-1.85,37.66,37.66,0,0,0,8.59-12.83,6.12,6.12,0,1,0-5.48-9.25,6.13,6.13,0,0,0,1.62,8.07c-4,9.22-9.22,13.08-12.56,14.68a2.48,2.48,0,0,0-.37.17,11,11,0,0,1-2.55.81v4a12.66,12.66,0,0,0,4.24-1.19c5.35-1.36,6.84-.36,8.41.7a7.79,7.79,0,0,0,4.26,1.66h.31a23.61,23.61,0,0,0,7-1.72,6.11,6.11,0,0,0,8.27.27,6.11,6.11,0,0,0,.66-8.63M129.27,91.87a2.09,2.09,0,0,1,1.82-1,2.17,2.17,0,0,1,1.08.3,2.12,2.12,0,0,1,.73,2.9,2.11,2.11,0,0,1-3.63-2.16m12.6,22.36a2.09,2.09,0,0,1-1.37.51,2.11,2.11,0,0,1-1.38-3.72,2.09,2.09,0,0,1,1.37-.51,2.11,2.11,0,0,1,1.61.74,2.12,2.12,0,0,1-.23,3"/><path d="M121,45.74l.21,0-.21,0"/><path d="M142.92,32.74a6.12,6.12,0,1,0-11,4.82,13.33,13.33,0,0,1-9.94,4.3,28.93,28.93,0,0,0-10-2.32v4a24.65,24.65,0,0,1,8.74,2.13h0a21.6,21.6,0,0,1,8.61,7,4.7,4.7,0,0,0-.38.53,6.18,6.18,0,1,0,3.78-2.66A26.24,26.24,0,0,0,127.39,45a16.24,16.24,0,0,0,7.78-5.09,6.22,6.22,0,0,0,1.77.27,6.14,6.14,0,0,0,6-7.46M132.35,55.39a2,2,0,0,1,.67-.66,2.12,2.12,0,0,1,2.24,0,2.12,2.12,0,0,1-1.13,3.91,2.07,2.07,0,0,1-1.13-.33,2.12,2.12,0,0,1-.65-2.92m6.38-20.19a2.15,2.15,0,0,1-2.92.66l-.09-.07A2.11,2.11,0,0,1,136.94,32a2.16,2.16,0,0,1,1.13.33,2.12,2.12,0,0,1,.66,2.91"/><path d="M151.61,73.73a6.15,6.15,0,0,0,2.11,2.65l.29.19a6.12,6.12,0,1,0,3.27-11.29h-.38a25.63,25.63,0,0,1,0-11.26l.33,0a6.12,6.12,0,1,0-4.14-1.62l.07,0a28.64,28.64,0,0,0,0,14.42c-.14.13-.29.26-.42.4a6.54,6.54,0,0,0-.64.83,6.13,6.13,0,0,0-.71,1.57,15.28,15.28,0,0,0-6.82,2.73c-2,1.33-4,2.57-9.64,2.67a32.77,32.77,0,0,0-5.29-.12c-1.43,0-2.91.11-4.85,0-1.33-.07-2.1-.88-3.45-2.42-1.81-2-4.22-4.65-9.37-5v4c3.29.3,4.79,1.89,6.35,3.67s3.18,3.61,6.26,3.78c2.12.11,3.76.05,5.21,0a24.35,24.35,0,0,1,7.85.68c2.61.64,12.1,9.67,14.78,14.32-.11.15-.22.29-.32.44a6.11,6.11,0,0,0,1.62,8.25l.29.19a6.12,6.12,0,1,0,6.53-10.35,6.18,6.18,0,0,0-3.26-.94,6.64,6.64,0,0,0-1.55.19c-2.56-4.18-8.65-10.45-13.19-13.79a18.12,18.12,0,0,0,4.22-2.19,11.17,11.17,0,0,1,4.85-2.06m3.88-26.93a2.12,2.12,0,0,1,1.79-1,2,2,0,0,1,1.12.33,2.1,2.1,0,0,1,.66,2.91,2.14,2.14,0,0,1-2.91.65l-.1-.06a2.12,2.12,0,0,1-.56-2.85m0,23.46a2.12,2.12,0,0,1,1.79-1,2.1,2.1,0,0,1,1.12.33,2.14,2.14,0,0,1,.94,1.33,2.09,2.09,0,0,1-.28,1.58,2.14,2.14,0,0,1-2.91.66l-.1-.07a2.11,2.11,0,0,1-.56-2.85m0,26.31a2.12,2.12,0,0,1,2.91-.66,2.16,2.16,0,0,1,.94,1.33,2.11,2.11,0,0,1-3.19,2.24l-.1-.06a2.12,2.12,0,0,1-.56-2.85"/></g></g><path class="cls-7" d="M145.14,111.64a6.12,6.12,0,0,0-10.72,4.74,20,20,0,0,1-5.32,1.33,4,4,0,0,1-2.23-1,10.71,10.71,0,0,0-4.15-1.85,37.66,37.66,0,0,0,8.59-12.83,6.12,6.12,0,1,0-5.48-9.25,6.13,6.13,0,0,0,1.62,8.07c-4,9.22-9.22,13.08-12.56,14.68a2.48,2.48,0,0,0-.37.17,11,11,0,0,1-2.55.81v4a12.66,12.66,0,0,0,4.24-1.19c5.35-1.36,6.84-.36,8.41.7a7.79,7.79,0,0,0,4.26,1.66h.31a23.61,23.61,0,0,0,7-1.72,6.11,6.11,0,0,0,8.27.27,6.11,6.11,0,0,0,.66-8.63M129.27,94.87a2.09,2.09,0,0,1,1.82-1,2.17,2.17,0,0,1,1.08.3,2.12,2.12,0,0,1,.73,2.9,2.11,2.11,0,0,1-3.63-2.16m12.6,22.36a2.09,2.09,0,0,1-1.37.51,2.11,2.11,0,0,1-1.38-3.72,2.09,2.09,0,0,1,1.37-.51,2.11,2.11,0,0,1,1.61.74,2.12,2.12,0,0,1-.23,3"/><path d="M121,48.15l.21,0-.21,0"/><path class="cls-7" d="M142.92,34.75a6.12,6.12,0,0,0-2.71-3.85,6.19,6.19,0,0,0-3.27-.94,6.06,6.06,0,0,0-5.17,2.85,6.13,6.13,0,0,0,.14,6.76A13.35,13.35,0,0,1,122,43.86a29.16,29.16,0,0,0-10-2.32v4a24.69,24.69,0,0,1,8.74,2.14h0a21.68,21.68,0,0,1,8.61,7,4,4,0,0,0-.38.54,6.12,6.12,0,1,0,8.44-1.91,6.25,6.25,0,0,0-4.66-.76A26.19,26.19,0,0,0,127.39,47a16.34,16.34,0,0,0,7.78-5.1,6.22,6.22,0,0,0,1.77.27,6.13,6.13,0,0,0,6-7.45M132.35,57.39a2.11,2.11,0,0,1,.67-.66,2.17,2.17,0,0,1,1.12-.31,2.09,2.09,0,0,1,1.12.32,2.12,2.12,0,0,1-1.13,3.91,2.12,2.12,0,0,1-1.78-3.26m6.38-20.18a2.15,2.15,0,0,1-2.92.65l-.09-.06a2.11,2.11,0,0,1-.56-2.85,2.08,2.08,0,0,1,1.78-1,2.15,2.15,0,0,1,1.13.32,2.11,2.11,0,0,1,.93,1.33,2.07,2.07,0,0,1-.27,1.59"/><path class="cls-7" d="M151.61,76.73a6.15,6.15,0,0,0,2.11,2.65l.29.19a6.12,6.12,0,1,0,3.27-11.29h-.38a25.63,25.63,0,0,1,0-11.26l.33,0a6.12,6.12,0,1,0-4.14-1.62l.07,0a28.64,28.64,0,0,0,0,14.42c-.14.13-.29.26-.42.4a6.54,6.54,0,0,0-.64.83,6.13,6.13,0,0,0-.71,1.57,15.16,15.16,0,0,0-6.82,2.73c-2,1.33-4,2.57-9.64,2.67a32.77,32.77,0,0,0-5.29-.12c-1.43,0-2.91.11-4.85,0-1.33-.07-2.1-.88-3.45-2.42-1.81-2-4.22-4.65-9.37-5v4c3.29.3,4.79,1.89,6.35,3.67s3.18,3.61,6.26,3.78c2.12.11,3.76.05,5.21,0a24.35,24.35,0,0,1,7.85.68c2.61.64,12.1,9.67,14.78,14.32-.11.15-.22.29-.32.44a6.11,6.11,0,0,0,1.62,8.25l.29.19a6.12,6.12,0,1,0,6.53-10.35,6.18,6.18,0,0,0-3.26-.94,6.64,6.64,0,0,0-1.55.19c-2.56-4.18-8.65-10.45-13.19-13.79a18.12,18.12,0,0,0,4.22-2.19,11.17,11.17,0,0,1,4.85-2.06m3.88-26.93a2.12,2.12,0,0,1,1.79-1,2,2,0,0,1,1.12.33,2.1,2.1,0,0,1,.66,2.91,2.14,2.14,0,0,1-2.91.65l-.1-.06a2.11,2.11,0,0,1-.56-2.85m0,23.46a2.12,2.12,0,0,1,1.79-1,2.1,2.1,0,0,1,1.12.33,2.14,2.14,0,0,1,.94,1.33,2.1,2.1,0,0,1-.28,1.58,2.14,2.14,0,0,1-2.91.66l-.1-.07a2.11,2.11,0,0,1-.56-2.85m0,26.31a2.12,2.12,0,0,1,2.91-.66,2.16,2.16,0,0,1,.94,1.33,2.11,2.11,0,0,1-3.19,2.24l-.1-.06a2.12,2.12,0,0,1-.56-2.85"/><path class="cls-8" d="M145.14,108.64a6.12,6.12,0,0,0-10.72,4.74,20,20,0,0,1-5.32,1.33,4,4,0,0,1-2.23-1,10.71,10.71,0,0,0-4.15-1.85,37.66,37.66,0,0,0,8.59-12.83,6.12,6.12,0,1,0-5.48-9.25,6.13,6.13,0,0,0,1.62,8.07c-4,9.22-9.22,13.08-12.56,14.68a2.48,2.48,0,0,0-.37.17,11,11,0,0,1-2.55.81v4a12.66,12.66,0,0,0,4.24-1.19c5.35-1.36,6.84-.36,8.41.7a7.79,7.79,0,0,0,4.26,1.66h.31a23.61,23.61,0,0,0,7-1.72,6.11,6.11,0,0,0,8.27.27,6.11,6.11,0,0,0,.66-8.63M129.27,91.87a2.09,2.09,0,0,1,1.82-1,2.17,2.17,0,0,1,1.08.3,2.12,2.12,0,0,1,.73,2.9,2.11,2.11,0,0,1-3.63-2.16m12.6,22.36a2.09,2.09,0,0,1-1.37.51,2.11,2.11,0,0,1-1.38-3.72,2.09,2.09,0,0,1,1.37-.51,2.11,2.11,0,0,1,1.61.74,2.12,2.12,0,0,1-.23,3"/><path class="cls-8" d="M121,45.74l.21,0-.21,0"/><path class="cls-8" d="M142.92,32.74a6.12,6.12,0,1,0-11,4.82,13.33,13.33,0,0,1-9.94,4.3,28.93,28.93,0,0,0-10-2.32v4a24.65,24.65,0,0,1,8.74,2.13h0a21.6,21.6,0,0,1,8.61,7,4.7,4.7,0,0,0-.38.53,6.18,6.18,0,1,0,3.78-2.66A26.24,26.24,0,0,0,127.39,45a16.24,16.24,0,0,0,7.78-5.09,6.22,6.22,0,0,0,1.77.27,6.14,6.14,0,0,0,6-7.46M132.35,55.39a2,2,0,0,1,.67-.66,2.12,2.12,0,0,1,2.24,0,2.12,2.12,0,0,1-1.13,3.91,2.07,2.07,0,0,1-1.13-.33,2.12,2.12,0,0,1-.65-2.92m6.38-20.19a2.15,2.15,0,0,1-2.92.66l-.09-.07A2.11,2.11,0,0,1,136.94,32a2.16,2.16,0,0,1,1.13.33,2.12,2.12,0,0,1,.66,2.91"/><path class="cls-8" d="M151.61,73.73a6.15,6.15,0,0,0,2.11,2.65l.29.19a6.12,6.12,0,1,0,3.27-11.29h-.38a25.63,25.63,0,0,1,0-11.26l.33,0a6.12,6.12,0,1,0-4.14-1.62l.07,0a28.64,28.64,0,0,0,0,14.42c-.14.13-.29.26-.42.4a6.54,6.54,0,0,0-.64.83,6.13,6.13,0,0,0-.71,1.57,15.28,15.28,0,0,0-6.82,2.73c-2,1.33-4,2.57-9.64,2.67a32.77,32.77,0,0,0-5.29-.12c-1.43,0-2.91.11-4.85,0-1.33-.07-2.1-.88-3.45-2.42-1.81-2-4.22-4.65-9.37-5v4c3.29.3,4.79,1.89,6.35,3.67s3.18,3.61,6.26,3.78c2.12.11,3.76.05,5.21,0a24.35,24.35,0,0,1,7.85.68c2.61.64,12.1,9.67,14.78,14.32-.11.15-.22.29-.32.44a6.11,6.11,0,0,0,1.62,8.25l.29.19a6.12,6.12,0,1,0,6.53-10.35,6.18,6.18,0,0,0-3.26-.94,6.64,6.64,0,0,0-1.55.19c-2.56-4.18-8.65-10.45-13.19-13.79a18.12,18.12,0,0,0,4.22-2.19,11.17,11.17,0,0,1,4.85-2.06m3.88-26.93a2.12,2.12,0,0,1,1.79-1,2,2,0,0,1,1.12.33,2.1,2.1,0,0,1,.66,2.91,2.14,2.14,0,0,1-2.91.65l-.1-.06a2.12,2.12,0,0,1-.56-2.85m0,23.46a2.12,2.12,0,0,1,1.79-1,2.1,2.1,0,0,1,1.12.33,2.14,2.14,0,0,1,.94,1.33,2.09,2.09,0,0,1-.28,1.58,2.14,2.14,0,0,1-2.91.66l-.1-.07a2.11,2.11,0,0,1-.56-2.85m0,26.31a2.12,2.12,0,0,1,2.91-.66,2.16,2.16,0,0,1,.94,1.33,2.11,2.11,0,0,1-3.19,2.24l-.1-.06a2.12,2.12,0,0,1-.56-2.85"/><g class="cls-9"><path d="M90,99.35a1.22,1.22,0,0,1-.71-.22,1.24,1.24,0,0,1-.3-1.72,10,10,0,0,0,.75-1.26A9.25,9.25,0,0,0,89.25,87a1.23,1.23,0,1,1,2.07-1.34A11.83,11.83,0,0,1,92,97.25,12,12,0,0,1,91,98.83a1.23,1.23,0,0,1-1,.52"/><path d="M95.7,102.29a1.18,1.18,0,0,1-.73-.24,1.22,1.22,0,0,1-.26-1.72,13.72,13.72,0,0,0,1.22-2,13.55,13.55,0,0,0-1.28-14.16,1.23,1.23,0,1,1,2-1.47A16,16,0,0,1,98.14,99.4a16.48,16.48,0,0,1-1.44,2.39,1.23,1.23,0,0,1-1,.5"/><path d="M84.45,96.23a1.2,1.2,0,0,1-.6-.16,1.23,1.23,0,0,1-.46-1.68,4.93,4.93,0,0,0,.18-4.47,1.23,1.23,0,1,1,2.24-1,7.38,7.38,0,0,1-.28,6.72,1.22,1.22,0,0,1-1.08.62"/></g><path class="cls-3" d="M90,97.31a1.24,1.24,0,0,1-1-2,10.6,10.6,0,0,0,.75-1.25,9.27,9.27,0,0,0-.51-9.17,1.23,1.23,0,1,1,2.07-1.33A11.81,11.81,0,0,1,92,95.2,11.35,11.35,0,0,1,91,96.78a1.21,1.21,0,0,1-1,.53"/><path class="cls-3" d="M95.7,100.25A1.25,1.25,0,0,1,95,100a1.23,1.23,0,0,1-.26-1.73,14.16,14.16,0,0,0,1.22-2,13.55,13.55,0,0,0-1.28-14.16,1.24,1.24,0,0,1,2-1.48,16.13,16.13,0,0,1,.07,19.11,1.24,1.24,0,0,1-1,.51"/><path class="cls-3" d="M84.45,94.19a1.31,1.31,0,0,1-.6-.16,1.24,1.24,0,0,1-.46-1.69,4.93,4.93,0,0,0,.18-4.47,1.23,1.23,0,0,1,2.24-1,7.38,7.38,0,0,1-.28,6.72,1.23,1.23,0,0,1-1.08.63"/><g class="cls-9"><path d="M102.59,40.76c-10.35,0-20.82,3.74-27.34,9.76-7,6.5-10.76,16.61-10.58,28.62a4.08,4.08,0,0,0-3.49,4V101.7a4.09,4.09,0,0,0,4.09,4.09h2.08a4.1,4.1,0,0,0,.94-.12v1.64a3.86,3.86,0,0,0,3.57,4.09H73.8a3.86,3.86,0,0,0,3.58-4.09V77a3.86,3.86,0,0,0-3.58-4.09H71.86a3.75,3.75,0,0,0-3.51,3.36A44.25,44.25,0,0,1,68.8,71C70,63.63,73,57.46,77.68,53.15c5.79-5.35,15.57-8.81,24.91-8.81,1.07,0,3.32,0,4.38.14V40.91C105.74,40.8,103.73,40.76,102.59,40.76ZM67.35,101.28a2.71,2.71,0,0,1-2.71-2.71V86.29a2.71,2.71,0,0,1,2.71-2.71h.94v17.7Z"/></g><path class="cls-8" d="M102.59,38.71c-10.35,0-20.82,3.74-27.34,9.76-7,6.51-10.76,16.61-10.58,28.62a4.09,4.09,0,0,0-3.49,4V99.65a4.09,4.09,0,0,0,4.09,4.09h2.08a4.1,4.1,0,0,0,.94-.11v1.63a3.86,3.86,0,0,0,3.57,4.09H73.8a3.86,3.86,0,0,0,3.58-4.09V74.92a3.86,3.86,0,0,0-3.58-4.09H71.86a3.76,3.76,0,0,0-3.51,3.37A44.43,44.43,0,0,1,68.8,69C70,61.59,73,55.42,77.68,51.1c5.79-5.35,15.57-8.81,24.91-8.81,1.07,0,3.32.05,4.38.15V38.87C105.74,38.75,103.73,38.71,102.59,38.71ZM67.35,99.24a2.72,2.72,0,0,1-2.71-2.71V84.25a2.71,2.71,0,0,1,2.71-2.71h.94v17.7Z"/><path class="cls-4" d="M20.1,205.54H40.16v10.92H6.83V161.85H20.1Z"/><path class="cls-4" d="M46.71,157.72a6.28,6.28,0,0,1,1.81-4.65,6.53,6.53,0,0,1,4.83-1.82,6.53,6.53,0,0,1,4.83,1.82A6.28,6.28,0,0,1,60,157.72a6.25,6.25,0,0,1-6.64,6.51,6.25,6.25,0,0,1-6.64-6.51Zm12.81,58.74H47.27V169.8H59.52Z"/><path class="cls-4" d="M89.62,204a3.84,3.84,0,0,0-1.49-2.87,29.53,29.53,0,0,0-6.62-3.55q-7.55-3.06-10.37-6.34A12.06,12.06,0,0,1,68.32,183a13,13,0,0,1,4.42-10.12q4.41-4,11.7-4,7.68,0,12.29,4a13.34,13.34,0,0,1,4.62,10.65H89.14q0-5.69-4.74-5.69a4.38,4.38,0,0,0-3.19,1.21A4.47,4.47,0,0,0,80,182.43a3.53,3.53,0,0,0,1.38,2.74,30.5,30.5,0,0,0,6.51,3.39q7.45,2.76,10.54,6.14a12.52,12.52,0,0,1,3.09,8.78,12.25,12.25,0,0,1-4.7,10q-4.71,3.79-12.34,3.8a19.56,19.56,0,0,1-9-2,15.11,15.11,0,0,1-6.15-5.58A14.39,14.39,0,0,1,67,202h11.6a7.39,7.39,0,0,0,1.49,4.79q1.4,1.59,4.59,1.59Q89.62,208.39,89.62,204Z"/><path class="cls-4" d="M123.25,158.33V169.8h6.26v9.14h-6.26v23.19a6.84,6.84,0,0,0,.76,3.8,3.4,3.4,0,0,0,2.91,1,11.48,11.48,0,0,0,2.89-.3l-.09,9.49a19.13,19.13,0,0,1-6.72,1.16q-11.82,0-12-13.56V178.94h-5.39V169.8h5.39V158.33Z"/><path class="cls-4" d="M155,217.32q-9.4,0-14.66-5.61t-5.27-16V192q0-11,4.83-17t13.85-6q8.79,0,13.24,5.62t4.52,16.65v6H147.27q.27,5.2,2.29,7.6c1.35,1.6,3.44,2.41,6.25,2.41A13.72,13.72,0,0,0,166,203l4.79,7.38a15.83,15.83,0,0,1-6.51,5A22.36,22.36,0,0,1,155,217.32Zm-7.68-28.63h12.2v-1.13a12.84,12.84,0,0,0-1.38-6.33q-1.29-2.16-4.48-2.16a5.09,5.09,0,0,0-4.64,2.28C148.1,182.88,147.53,185.32,147.36,188.69Z"/><path class="cls-4" d="M189.62,169.8l.35,4.61a12.94,12.94,0,0,1,10.82-5.48q12,0,12.38,16.87v30.66H200.92V186.7q0-4-1.19-5.75c-.79-1.2-2.17-1.79-4.16-1.79-2.21,0-3.94,1.13-5.17,3.4v33.9H178.15V169.8Z"/><path class="cls-3" d="M3.18,285.46V230.85H21.74q9.57,0,14.6,3.87c3.36,2.57,5,6.32,5,11.22a14,14,0,0,1-1.83,7.27,10.72,10.72,0,0,1-5.39,4.54,10.45,10.45,0,0,1,6,4.29,13.73,13.73,0,0,1,2.1,7.76q0,8.16-4.73,11.91t-14.25,3.75Zm13.26-31.92h6.38c3.53-.1,5.3-2,5.3-5.63,0-2.16-.44-3.69-1.32-4.62a5.32,5.32,0,0,0-4-1.38H16.44Zm0,9.23v11.77h6.8A5.69,5.69,0,0,0,27.48,273,5.62,5.62,0,0,0,29,268.89q0-5.92-4.78-6.12Z"/><path class="cls-3" d="M73.35,250.57l-4-.34q-5,0-6.77,4.39v30.84H50.28V238.8H61.79l.35,5q2.88-5.91,8-5.91a8.39,8.39,0,0,1,3.36.57Z"/><path class="cls-3" d="M100.47,285.46a17.17,17.17,0,0,1-1-3.63,10.42,10.42,0,0,1-8.88,4.49,13.14,13.14,0,0,1-9.73-3.88A13.66,13.66,0,0,1,77,272.39q0-7.33,4.68-11.34T95.13,257h3.71V253.2q0-3.15-1.08-4.44a3.88,3.88,0,0,0-3.15-1.3c-3,0-4.57,1.79-4.57,5.35H77.83a13.49,13.49,0,0,1,4.86-10.67A18.06,18.06,0,0,1,95,237.93q7.68,0,11.88,4T111,253.33v21.95a23,23,0,0,0,1.72,9.44v.74Zm-7.2-8.71a6.88,6.88,0,0,0,3.45-.82A5.91,5.91,0,0,0,98.84,274v-9.71H95.9a6.26,6.26,0,0,0-4.89,2,7.62,7.62,0,0,0-1.79,5.3Q89.22,276.75,93.27,276.75Z"/><path class="cls-3" d="M119.88,226.72a6.28,6.28,0,0,1,1.81-4.65,7.32,7.32,0,0,1,9.66,0,6.28,6.28,0,0,1,1.81,4.65,6.64,6.64,0,1,1-13.28,0Zm12.81,58.74H120.44V238.8h12.25Z"/><path class="cls-3" d="M153.3,238.8l.35,4.61a12.94,12.94,0,0,1,10.82-5.48q12,0,12.38,16.87v30.66H164.6V255.7q0-4-1.19-5.75c-.79-1.2-2.17-1.79-4.16-1.79-2.21,0-3.94,1.13-5.17,3.4v33.9H141.83V238.8Z"/><path class="cls-3" d="M199.1,275.32h18.46v10.14H184.61v-7.64l18-28.85H185V238.8H217.3v7.37Z"/></g></g></svg>