<svg xmlns="http://www.w3.org/2000/svg" xmlns:xlink="http://www.w3.org/1999/xlink" viewBox="0 0 150 150"><defs><style>.cls-1{fill:none;}.cls-2{isolation:isolate;}.cls-3{fill:#eb743b;}.cls-4{fill:#353070;}.cls-5,.cls-9{mix-blend-mode:multiply;}.cls-5{opacity:0.07;}.cls-6{clip-path:url(#clip-path);}.cls-7{fill:#d3562c;}.cls-8{fill:#fffedb;}.cls-9{opacity:0.25;}</style><clipPath id="clip-path"><rect class="cls-1" x="77.5" y="28.42" width="51.43" height="90.79"/></clipPath></defs><g class="cls-2"><g id="Layer_1" data-name="Layer 1"><polygon class="cls-3" points="77.5 3 77.5 147 138.5 112 138.5 38 77.5 3"/><polygon class="cls-4" points="72.5 2.92 11.5 37.92 11.5 111.92 72.5 146.92 72.5 2.92"/><g class="cls-5"><g class="cls-6"><path d="M94.8,94.73a2.12,2.12,0,0,1,1.82-1,2.17,2.17,0,0,1,1.08.3,2.12,2.12,0,0,1,.73,2.9,2.09,2.09,0,0,1-1.81,1,2.21,2.21,0,0,1-1.09-.3,2.12,2.12,0,0,1-.73-2.9m12.6,22.36a2,2,0,0,1-1.37.51,2.1,2.1,0,0,1-1.61-.73,2.11,2.11,0,1,1,3.21-2.75,2.1,2.1,0,0,1,.51,1.53,2.06,2.06,0,0,1-.74,1.44"/><path d="M86.5,48.61l.21,0-.21,0"/><path d="M97.88,58.26a2,2,0,0,1,.67-.66,2.11,2.11,0,0,1,1.12-.32,2.12,2.12,0,1,1,0,4.23,2.12,2.12,0,0,1-1.78-3.25m6.38-20.19a2.14,2.14,0,0,1-2.91.65l-.1-.06a2.11,2.11,0,0,1,1.23-3.83,2,2,0,0,1,1.12.33,2.1,2.1,0,0,1,.66,2.91"/><path d="M121,49.67a2.11,2.11,0,0,1,2.9-.66,2.11,2.11,0,1,1-2.25,3.57l-.09-.06a2.1,2.1,0,0,1-.56-2.85m0,23.46a2.09,2.09,0,0,1,1.78-1,2,2,0,0,1,1.12.33,2.07,2.07,0,0,1,.94,1.33,2.1,2.1,0,0,1-.28,1.58,2.14,2.14,0,0,1-2.91.65l-.09-.06a2.1,2.1,0,0,1-.56-2.85m0,26.3a2.11,2.11,0,1,1,3.56,2.26,2.15,2.15,0,0,1-2.91.66l-.09-.07a2.09,2.09,0,0,1-.56-2.85"/><path d="M110.68,109.1A6.12,6.12,0,0,0,100,113.84a20,20,0,0,1-5.33,1.33,4,4,0,0,1-2.22-1,10.78,10.78,0,0,0-4.15-1.85,37.66,37.66,0,0,0,8.58-12.83,6.12,6.12,0,1,0-5.48-9.24A6.12,6.12,0,0,0,93,98.34c-4,9.22-9.21,13.08-12.56,14.68a2,2,0,0,0-.36.17,11.22,11.22,0,0,1-2.56.81v4a12.69,12.69,0,0,0,4.25-1.19c5.34-1.36,6.84-.36,8.4.71a7.93,7.93,0,0,0,4.27,1.65h.31a23.61,23.61,0,0,0,7-1.72,6.1,6.1,0,0,0,8.26.27,6,6,0,0,0,2.12-4.17,6.08,6.08,0,0,0-1.45-4.46M94.8,92.33a2.1,2.1,0,0,1,1.82-1,2.07,2.07,0,0,1,1.08.3,2.11,2.11,0,1,1-2.17,3.62,2.11,2.11,0,0,1-.73-2.89m12.6,22.36a2.07,2.07,0,0,1-1.37.51,2.13,2.13,0,1,1,1.37-.51"/><path d="M86.5,46.21l.21,0-.21,0"/><path d="M108.45,33.21a6.12,6.12,0,1,0-11,4.81,13.36,13.36,0,0,1-10,4.3A28.93,28.93,0,0,0,77.5,40v4a24.75,24.75,0,0,1,8.75,2.13h0a21.46,21.46,0,0,1,8.61,7c-.13.17-.26.35-.38.54a6.18,6.18,0,1,0,3.78-2.67,26.23,26.23,0,0,0-5.35-5.57,16.24,16.24,0,0,0,7.78-5.09,6.28,6.28,0,0,0,1.77.27,6.12,6.12,0,0,0,6-7.45M97.88,55.85a2,2,0,0,1,.67-.66,2.11,2.11,0,0,1,1.12-.32,2.16,2.16,0,0,1,1.13.33,2.13,2.13,0,0,1,.66,2.92,2.15,2.15,0,0,1-1.8,1,2,2,0,0,1-1.12-.33,2.12,2.12,0,0,1-.66-2.92m6.38-20.19a2.13,2.13,0,0,1-2.91.66l-.1-.07a2.11,2.11,0,0,1,2.35-3.5,2.14,2.14,0,0,1,.94,1.33,2.09,2.09,0,0,1-.28,1.58"/><path d="M117.15,74.19a6,6,0,0,0,2.11,2.65l.28.19a6.12,6.12,0,1,0,3.27-11.29h-.38a25.63,25.63,0,0,1,0-11.26l.34,0a6.12,6.12,0,1,0-4.15-1.62s0,0,.07.06a28.59,28.59,0,0,0,0,14.41,5.49,5.49,0,0,0-.43.4,5.67,5.67,0,0,0-.63.83,6.13,6.13,0,0,0-.71,1.57,15.33,15.33,0,0,0-6.83,2.73c-2,1.33-4,2.58-9.63,2.67a32.82,32.82,0,0,0-5.29-.12,48.41,48.41,0,0,1-4.85,0c-1.34-.07-2.11-.89-3.46-2.43-1.8-2-4.22-4.64-9.37-5v4c3.3.3,4.8,1.89,6.36,3.67s3.17,3.61,6.25,3.78c2.12.11,3.76,0,5.21,0a24.43,24.43,0,0,1,7.86.68c2.6.65,12.09,9.68,14.77,14.33a4.25,4.25,0,0,0-.31.43,6.09,6.09,0,0,0,1.62,8.25l.28.19A6.12,6.12,0,1,0,126.07,93a6.18,6.18,0,0,0-3.26-.94,6.49,6.49,0,0,0-1.54.19c-2.56-4.18-8.66-10.45-13.19-13.79a17.66,17.66,0,0,0,4.21-2.19,11.33,11.33,0,0,1,4.86-2.06M121,47.26a2.11,2.11,0,1,1,3.56,2.26,2.13,2.13,0,0,1-2.91.65l-.09-.06a2.1,2.1,0,0,1-.56-2.85m0,23.47a2.11,2.11,0,0,1,2.9-.66,2.13,2.13,0,0,1,.94,1.33,2.09,2.09,0,0,1-.28,1.58,2.13,2.13,0,0,1-2.91.66l-.09-.06a2.1,2.1,0,0,1-.56-2.85M121,97a2.11,2.11,0,0,1,2.9-.66,2.11,2.11,0,1,1-2.25,3.57l-.09-.06A2.1,2.1,0,0,1,121,97"/></g></g><path class="cls-7" d="M110.68,112.1A6.12,6.12,0,0,0,100,116.84a20,20,0,0,1-5.33,1.33,4,4,0,0,1-2.22-1,10.78,10.78,0,0,0-4.15-1.85,37.66,37.66,0,0,0,8.58-12.83,6.12,6.12,0,1,0-5.48-9.24A6.12,6.12,0,0,0,93,101.34c-4,9.22-9.21,13.08-12.56,14.68a2,2,0,0,0-.36.17,11.22,11.22,0,0,1-2.56.81v4a12.69,12.69,0,0,0,4.25-1.19c5.34-1.36,6.84-.36,8.4.71a7.93,7.93,0,0,0,4.27,1.65h.31a23.61,23.61,0,0,0,7-1.72,6.1,6.1,0,0,0,8.26.27,6,6,0,0,0,2.12-4.17,6.08,6.08,0,0,0-1.45-4.46M94.8,95.33a2.1,2.1,0,0,1,1.82-1,2.07,2.07,0,0,1,1.08.3,2.11,2.11,0,1,1-2.17,3.62,2.11,2.11,0,0,1-.73-2.89m12.6,22.36a2.07,2.07,0,0,1-1.37.51,2.13,2.13,0,1,1,1.37-.51"/><path d="M86.5,48.61l.21,0-.21,0"/><path class="cls-7" d="M108.45,35.21a6.12,6.12,0,0,0-2.71-3.85,6.18,6.18,0,0,0-3.26-.94,6.12,6.12,0,0,0-5,9.61,13.38,13.38,0,0,1-10,4.29A29.12,29.12,0,0,0,77.5,42v4a24.79,24.79,0,0,1,8.75,2.14h0a21.54,21.54,0,0,1,8.61,7c-.13.17-.26.35-.38.54a6.14,6.14,0,0,0,1.9,8.44,6.1,6.1,0,0,0,8.45-1.9,6.13,6.13,0,0,0-1.9-8.45,6.23,6.23,0,0,0-4.67-.75,25.77,25.77,0,0,0-5.35-5.57,16.34,16.34,0,0,0,7.78-5.1,6.28,6.28,0,0,0,1.77.27,6.12,6.12,0,0,0,6-7.45M97.88,57.86a2,2,0,0,1,.67-.67,2.2,2.2,0,0,1,1.12-.31,2.12,2.12,0,1,1,0,4.23,2.12,2.12,0,0,1-1.78-3.25m6.38-20.19a2.14,2.14,0,0,1-2.91.65l-.1-.06a2.11,2.11,0,0,1,2.35-3.51,2.16,2.16,0,0,1,.94,1.34,2.1,2.1,0,0,1-.28,1.58"/><path class="cls-7" d="M117.15,77.19a6,6,0,0,0,2.11,2.65l.28.19a6.12,6.12,0,1,0,3.27-11.29h-.38a25.63,25.63,0,0,1,0-11.26l.34,0a6.12,6.12,0,1,0-4.15-1.62s0,0,.07.06a28.59,28.59,0,0,0,0,14.41c-.15.14-.3.26-.43.4a5.67,5.67,0,0,0-.63.83,6.13,6.13,0,0,0-.71,1.57,15.33,15.33,0,0,0-6.83,2.73c-2,1.33-4,2.58-9.63,2.67a32.82,32.82,0,0,0-5.29-.12,48.41,48.41,0,0,1-4.85,0c-1.34-.07-2.11-.89-3.46-2.43-1.8-2-4.22-4.64-9.37-5v4c3.3.3,4.8,1.89,6.36,3.67s3.17,3.61,6.25,3.78c2.12.11,3.76,0,5.21,0a24.43,24.43,0,0,1,7.86.68c2.6.65,12.09,9.68,14.77,14.33a4.25,4.25,0,0,0-.31.43,6.09,6.09,0,0,0,1.62,8.25l.28.19A6.12,6.12,0,1,0,126.07,96a6.18,6.18,0,0,0-3.26-.94,6.49,6.49,0,0,0-1.54.19c-2.56-4.18-8.66-10.45-13.19-13.79a17.66,17.66,0,0,0,4.21-2.19,11.33,11.33,0,0,1,4.86-2.06M121,50.26a2.09,2.09,0,0,1,1.78-1,2,2,0,0,1,1.12.33,2.07,2.07,0,0,1,.94,1.33,2.1,2.1,0,0,1-.28,1.58,2.13,2.13,0,0,1-2.91.65l-.09-.06a2.09,2.09,0,0,1-.56-2.85m0,23.47a2.11,2.11,0,0,1,2.9-.66,2.13,2.13,0,0,1,.94,1.33,2.09,2.09,0,0,1-.28,1.58,2.13,2.13,0,0,1-2.91.66l-.09-.06a2.1,2.1,0,0,1-.56-2.85m0,26.3a2.11,2.11,0,0,1,2.9-.66,2.11,2.11,0,1,1-2.25,3.57l-.09-.06A2.1,2.1,0,0,1,121,100"/><path class="cls-8" d="M110.68,109.1A6.12,6.12,0,0,0,100,113.84a20,20,0,0,1-5.33,1.33,4,4,0,0,1-2.22-1,10.78,10.78,0,0,0-4.15-1.85,37.66,37.66,0,0,0,8.58-12.83,6.12,6.12,0,1,0-5.48-9.24A6.12,6.12,0,0,0,93,98.34c-4,9.22-9.21,13.08-12.56,14.68a2,2,0,0,0-.36.17,11.22,11.22,0,0,1-2.56.81v4a12.69,12.69,0,0,0,4.25-1.19c5.34-1.36,6.84-.36,8.4.71a7.93,7.93,0,0,0,4.27,1.65h.31a23.61,23.61,0,0,0,7-1.72,6.1,6.1,0,0,0,8.26.27,6,6,0,0,0,2.12-4.17,6.08,6.08,0,0,0-1.45-4.46M94.8,92.33a2.1,2.1,0,0,1,1.82-1,2.07,2.07,0,0,1,1.08.3,2.11,2.11,0,1,1-2.17,3.62,2.11,2.11,0,0,1-.73-2.89m12.6,22.36a2.07,2.07,0,0,1-1.37.51,2.13,2.13,0,1,1,1.37-.51"/><path class="cls-8" d="M86.5,46.21l.21,0-.21,0"/><path class="cls-8" d="M108.45,33.21a6.12,6.12,0,1,0-11,4.81,13.36,13.36,0,0,1-10,4.3A28.93,28.93,0,0,0,77.5,40v4a24.75,24.75,0,0,1,8.75,2.13h0a21.46,21.46,0,0,1,8.61,7c-.13.17-.26.35-.38.54a6.18,6.18,0,1,0,3.78-2.67,26.23,26.23,0,0,0-5.35-5.57,16.24,16.24,0,0,0,7.78-5.09,6.28,6.28,0,0,0,1.77.27,6.12,6.12,0,0,0,6-7.45M97.88,55.85a2,2,0,0,1,.67-.66,2.11,2.11,0,0,1,1.12-.32,2.16,2.16,0,0,1,1.13.33,2.13,2.13,0,0,1,.66,2.92,2.15,2.15,0,0,1-1.8,1,2,2,0,0,1-1.12-.33,2.12,2.12,0,0,1-.66-2.92m6.38-20.19a2.13,2.13,0,0,1-2.91.66l-.1-.07a2.11,2.11,0,0,1,2.35-3.5,2.14,2.14,0,0,1,.94,1.33,2.09,2.09,0,0,1-.28,1.58"/><path class="cls-8" d="M117.15,74.19a6,6,0,0,0,2.11,2.65l.28.19a6.12,6.12,0,1,0,3.27-11.29h-.38a25.63,25.63,0,0,1,0-11.26l.34,0a6.12,6.12,0,1,0-4.15-1.62s0,0,.07.06a28.59,28.59,0,0,0,0,14.41,5.49,5.49,0,0,0-.43.4,5.67,5.67,0,0,0-.63.83,6.13,6.13,0,0,0-.71,1.57,15.33,15.33,0,0,0-6.83,2.73c-2,1.33-4,2.58-9.63,2.67a32.82,32.82,0,0,0-5.29-.12,48.41,48.41,0,0,1-4.85,0c-1.34-.07-2.11-.89-3.46-2.43-1.8-2-4.22-4.64-9.37-5v4c3.3.3,4.8,1.89,6.36,3.67s3.17,3.61,6.25,3.78c2.12.11,3.76,0,5.21,0a24.43,24.43,0,0,1,7.86.68c2.6.65,12.09,9.68,14.77,14.33a4.25,4.25,0,0,0-.31.43,6.09,6.09,0,0,0,1.62,8.25l.28.19A6.12,6.12,0,1,0,126.07,93a6.18,6.18,0,0,0-3.26-.94,6.49,6.49,0,0,0-1.54.19c-2.56-4.18-8.66-10.45-13.19-13.79a17.66,17.66,0,0,0,4.21-2.19,11.33,11.33,0,0,1,4.86-2.06M121,47.26a2.11,2.11,0,1,1,3.56,2.26,2.13,2.13,0,0,1-2.91.65l-.09-.06a2.1,2.1,0,0,1-.56-2.85m0,23.47a2.11,2.11,0,0,1,2.9-.66,2.13,2.13,0,0,1,.94,1.33,2.09,2.09,0,0,1-.28,1.58,2.13,2.13,0,0,1-2.91.66l-.09-.06a2.1,2.1,0,0,1-.56-2.85M121,97a2.11,2.11,0,0,1,2.9-.66,2.11,2.11,0,1,1-2.25,3.57l-.09-.06A2.1,2.1,0,0,1,121,97"/><g class="cls-9"><path d="M55.55,99.81a1.22,1.22,0,0,1-1-1.94,8.84,8.84,0,0,0,.74-1.26,9.2,9.2,0,0,0-.51-9.16,1.24,1.24,0,1,1,2.08-1.34,11.88,11.88,0,0,1,.65,11.6,12,12,0,0,1-.95,1.58,1.23,1.23,0,0,1-1,.52"/><path d="M61.23,102.75a1.16,1.16,0,0,1-.72-.24,1.23,1.23,0,0,1-.27-1.72,13.72,13.72,0,0,0,1.22-2,13.53,13.53,0,0,0-1.27-14.16,1.23,1.23,0,0,1,2-1.47,16,16,0,0,1,1.51,16.73,16.43,16.43,0,0,1-1.45,2.38,1.23,1.23,0,0,1-1,.5"/><path d="M50,96.69a1.23,1.23,0,0,1-1.07-1.84,4.93,4.93,0,0,0,.18-4.47,1.24,1.24,0,0,1,.61-1.64,1.23,1.23,0,0,1,1.63.61,7.38,7.38,0,0,1-.27,6.72,1.24,1.24,0,0,1-1.08.62"/></g><path class="cls-3" d="M55.55,97.77a1.25,1.25,0,0,1-.71-.23,1.23,1.23,0,0,1-.29-1.72,8.74,8.74,0,0,0,.74-1.25,9.22,9.22,0,0,0-.51-9.17,1.23,1.23,0,0,1,2.08-1.33,11.86,11.86,0,0,1,.65,11.59,11.52,11.52,0,0,1-.95,1.59,1.23,1.23,0,0,1-1,.52"/><path class="cls-3" d="M61.23,100.71a1.22,1.22,0,0,1-.72-.24,1.24,1.24,0,0,1-.27-1.73,13.63,13.63,0,0,0-.05-16.17,1.24,1.24,0,0,1,2-1.48,16.06,16.06,0,0,1,.06,19.11,1.24,1.24,0,0,1-1,.51"/><path class="cls-3" d="M50,94.65a1.23,1.23,0,0,1-1.07-1.85,4.91,4.91,0,0,0,.18-4.46,1.24,1.24,0,0,1,.61-1.64,1.22,1.22,0,0,1,1.63.6A7.38,7.38,0,0,1,51.07,94a1.25,1.25,0,0,1-1.08.63"/><g class="cls-9"><path d="M68.13,41.22C57.78,41.22,47.3,45,40.79,51,33.74,57.48,30,67.59,30.2,79.6a4.07,4.07,0,0,0-3.48,4v18.53a4.09,4.09,0,0,0,4.09,4.09h2.08a4.08,4.08,0,0,0,.93-.12v1.64a3.86,3.86,0,0,0,3.58,4.09h1.94a3.86,3.86,0,0,0,3.57-4.09V77.43a3.86,3.86,0,0,0-3.57-4.09H37.4a3.74,3.74,0,0,0-3.51,3.36,42.51,42.51,0,0,1,.44-5.21c1.18-7.4,4.21-13.57,8.88-17.88C49,48.26,58.78,44.8,68.13,44.8c1.06,0,3.31,0,4.37.15V41.38C71.27,41.26,69.26,41.22,68.13,41.22ZM32.89,101.75A2.71,2.71,0,0,1,30.18,99V86.75A2.71,2.71,0,0,1,32.89,84h.93v17.71Z"/></g><path class="cls-8" d="M68.13,39.17c-10.35,0-20.83,3.74-27.34,9.76C33.74,55.44,30,65.55,30.2,77.56a4.07,4.07,0,0,0-3.48,4v18.52a4.09,4.09,0,0,0,4.09,4.09h2.08a4.08,4.08,0,0,0,.93-.11v1.63a3.86,3.86,0,0,0,3.58,4.09h1.94a3.86,3.86,0,0,0,3.57-4.09V75.39a3.86,3.86,0,0,0-3.57-4.09H37.4a3.74,3.74,0,0,0-3.51,3.36,42.17,42.17,0,0,1,.44-5.21c1.18-7.4,4.21-13.57,8.88-17.89,5.8-5.35,15.57-8.81,24.92-8.81,1.06,0,3.31,0,4.37.15V39.33C71.27,39.21,69.26,39.17,68.13,39.17ZM32.89,99.7A2.71,2.71,0,0,1,30.18,97V84.71A2.71,2.71,0,0,1,32.89,82h.93V99.7Z"/></g></g></svg>