<svg xmlns="http://www.w3.org/2000/svg" viewBox="0 0 140 190"><defs><style>.cls-1{isolation:isolate;}.cls-2{fill:#353070;}.cls-3{fill:#eb743b;}.cls-4{mix-blend-mode:multiply;opacity:0.25;}.cls-5{fill:#fffedb;}</style></defs><g class="cls-1"><g id="Layer_1" data-name="Layer 1"><path class="cls-2" d="M11.89,134.94h13V142H3.32V106.7h8.57Z"/><path class="cls-2" d="M29.09,104a4.07,4.07,0,0,1,1.17-3,4.22,4.22,0,0,1,3.12-1.18A4.25,4.25,0,0,1,36.51,101a4.07,4.07,0,0,1,1.17,3,4,4,0,0,1-4.3,4.21,4.14,4.14,0,0,1-3.13-1.2A4.18,4.18,0,0,1,29.09,104Zm8.28,38H29.45V111.84h7.92Z"/><path class="cls-2" d="M56.83,133.92a2.46,2.46,0,0,0-1-1.86,19.31,19.31,0,0,0-4.27-2.3c-3.26-1.32-5.49-2.68-6.71-4.09a7.84,7.84,0,0,1-1.82-5.27,8.44,8.44,0,0,1,2.85-6.54,10.88,10.88,0,0,1,7.57-2.58,11.78,11.78,0,0,1,8,2.57,8.63,8.63,0,0,1,3,6.88H56.52q0-3.67-3.07-3.68a2.85,2.85,0,0,0-2.06.78,2.89,2.89,0,0,0-.81,2.18,2.29,2.29,0,0,0,.89,1.77A20,20,0,0,0,55.68,124q4.83,1.78,6.82,4a8.09,8.09,0,0,1,2,5.67,7.91,7.91,0,0,1-3,6.49,12.26,12.26,0,0,1-8,2.46,12.73,12.73,0,0,1-5.85-1.3,9.77,9.77,0,0,1-4-3.61,9.25,9.25,0,0,1-1.44-5h7.5a4.77,4.77,0,0,0,1,3.1,3.79,3.79,0,0,0,3,1Q56.83,136.79,56.83,133.92Z"/><path class="cls-2" d="M78.57,104.43v7.41h4v5.91h-4v15a4.4,4.4,0,0,0,.49,2.46,2.21,2.21,0,0,0,1.88.67,7.28,7.28,0,0,0,1.86-.2l0,6.13a12.13,12.13,0,0,1-4.35.76q-7.64,0-7.72-8.77v-16H67.2v-5.91h3.48v-7.41Z"/><path class="cls-2" d="M99.11,142.56q-6.08,0-9.48-3.63t-3.4-10.37v-2.39q0-7.14,3.12-11t9-3.88q5.69,0,8.56,3.64t2.93,10.75v3.87H94.09a8.27,8.27,0,0,0,1.48,4.91,5,5,0,0,0,4,1.56,8.86,8.86,0,0,0,6.61-2.71l3.09,4.77a10.16,10.16,0,0,1-4.21,3.25A14.53,14.53,0,0,1,99.11,142.56Zm-5-18.51H102v-.73a8.53,8.53,0,0,0-.89-4.09,3.11,3.11,0,0,0-2.9-1.4,3.29,3.29,0,0,0-3,1.48A10.22,10.22,0,0,0,94.15,124.05Z"/><path class="cls-2" d="M121.47,111.84l.22,3a8.35,8.35,0,0,1,7-3.54q7.78,0,8,10.9V142h-7.91V122.77a6.93,6.93,0,0,0-.77-3.72,3,3,0,0,0-2.69-1.16,3.67,3.67,0,0,0-3.34,2.2V142h-7.92V111.84Z"/><path class="cls-3" d="M1,188V152.7H13c4.12,0,7.27.84,9.44,2.5a8.61,8.61,0,0,1,3.26,7.26,9.07,9.07,0,0,1-1.19,4.7A6.91,6.91,0,0,1,21,170.09a6.74,6.74,0,0,1,3.85,2.78,8.81,8.81,0,0,1,1.36,5c0,3.52-1,6.08-3.06,7.7S18,188,13.92,188Zm8.58-20.63h4.12c2.28-.06,3.42-1.28,3.42-3.64a4.23,4.23,0,0,0-.85-3,3.4,3.4,0,0,0-2.6-.9H9.53Zm0,6v7.6h4.39a3.65,3.65,0,0,0,2.74-1,3.65,3.65,0,0,0,1-2.68q0-3.82-3.09-3.95Z"/><path class="cls-3" d="M46.31,165.45l-2.62-.22a4.3,4.3,0,0,0-4.38,2.84V188H31.4V157.84h7.44l.22,3.26c1.25-2.54,3-3.82,5.16-3.82a5.33,5.33,0,0,1,2.17.37Z"/><path class="cls-3" d="M63.84,188a11.67,11.67,0,0,1-.67-2.34,6.74,6.74,0,0,1-5.74,2.9,8.5,8.5,0,0,1-6.28-2.51,8.8,8.8,0,0,1-2.5-6.5,9.14,9.14,0,0,1,3-7.33c2-1.72,4.92-2.61,8.71-2.64h2.39v-2.43a4.57,4.57,0,0,0-.69-2.87,2.51,2.51,0,0,0-2-.84c-2,0-2.95,1.16-2.95,3.46H49.21a8.7,8.7,0,0,1,3.14-6.9,11.68,11.68,0,0,1,7.93-2.72q4.95,0,7.68,2.58t2.71,7.37v14.19a14.86,14.86,0,0,0,1.12,6.11V188Zm-4.65-5.63a4.43,4.43,0,0,0,2.23-.53,3.69,3.69,0,0,0,1.36-1.25v-6.28H60.89a4,4,0,0,0-3.16,1.29A4.86,4.86,0,0,0,56.57,179C56.57,181.25,57.44,182.37,59.19,182.37Z"/><path class="cls-3" d="M76.39,150a4.07,4.07,0,0,1,1.17-3,4.71,4.71,0,0,1,6.24,0A4.07,4.07,0,0,1,85,150a4.29,4.29,0,1,1-8.58,0Zm8.28,38H76.75V157.84h7.92Z"/><path class="cls-3" d="M98,157.84l.22,3a8.38,8.38,0,0,1,7-3.54q7.77,0,8,10.9V188h-7.92V168.77a6.94,6.94,0,0,0-.76-3.72,3,3,0,0,0-2.7-1.16,3.67,3.67,0,0,0-3.34,2.2V188H90.57V157.84Z"/><path class="cls-3" d="M127.59,181.45h11.93V188h-21.3v-4.93l11.66-18.65H118.5v-6.58h20.85v4.77Z"/><polygon class="cls-2" points="69 2.62 28.17 26.05 28.17 75.58 69 99 69 2.62"/><g class="cls-4"><path d="M57.65,67.47a.84.84,0,0,1-.47-.15.83.83,0,0,1-.2-1.15,5.47,5.47,0,0,0,.5-.84,6.16,6.16,0,0,0-.34-6.13.81.81,0,0,1,.25-1.14.82.82,0,0,1,1.14.24A7.9,7.9,0,0,1,59,66.06a7.05,7.05,0,0,1-.63,1.06.81.81,0,0,1-.68.35"/><path d="M61.46,69.44a.83.83,0,0,1-.67-1.31,8.83,8.83,0,0,0,.82-1.35,9.07,9.07,0,0,0-.85-9.48.83.83,0,1,1,1.32-1,10.73,10.73,0,0,1,1,11.2,11.06,11.06,0,0,1-1,1.59.84.84,0,0,1-.67.34"/><path d="M53.93,65.38a.85.85,0,0,1-.4-.1.82.82,0,0,1-.31-1.13,3.29,3.29,0,0,0,.12-3,.84.84,0,0,1,.4-1.1.83.83,0,0,1,1.1.41,4.93,4.93,0,0,1-.18,4.5.84.84,0,0,1-.73.41"/></g><path class="cls-3" d="M57.65,66.1a.84.84,0,0,1-.47-.15A.83.83,0,0,1,57,64.8a5.47,5.47,0,0,0,.5-.84,6.16,6.16,0,0,0-.34-6.13.81.81,0,0,1,.25-1.14.82.82,0,0,1,1.14.24A7.92,7.92,0,0,1,59,64.7a7.49,7.49,0,0,1-.63,1,.81.81,0,0,1-.68.35"/><path class="cls-3" d="M61.46,68.07a.83.83,0,0,1-.67-1.31,8.83,8.83,0,0,0,.82-1.35,9.07,9.07,0,0,0-.85-9.48.83.83,0,1,1,1.32-1,10.73,10.73,0,0,1,1,11.2,11.06,11.06,0,0,1-1,1.59.81.81,0,0,1-.67.34"/><path class="cls-3" d="M53.93,64a.86.86,0,0,1-.4-.11.82.82,0,0,1-.31-1.13,3.29,3.29,0,0,0,.12-3,.83.83,0,0,1,1.5-.69,4.93,4.93,0,0,1-.18,4.5.85.85,0,0,1-.73.42"/><g class="cls-4"><path d="M66.07,28.26c-6.92,0-13.94,2.5-18.3,6.53-4.71,4.35-7.2,11.12-7.08,19.16a2.72,2.72,0,0,0-2.33,2.69V69a2.73,2.73,0,0,0,2.74,2.74h1.39a2.57,2.57,0,0,0,.62-.08v1.1a2.59,2.59,0,0,0,2.39,2.74h1.3a2.59,2.59,0,0,0,2.4-2.74V52.49a2.58,2.58,0,0,0-2.4-2.73H45.5A2.5,2.5,0,0,0,43.16,52a30.71,30.71,0,0,1,.29-3.48,20.3,20.3,0,0,1,5.95-12c3.88-3.58,10.42-5.9,16.67-5.9.72,0,2.22,0,2.93.1V28.36C68.18,28.28,66.83,28.26,66.07,28.26ZM42.49,68.77A1.83,1.83,0,0,1,40.67,67V58.73a1.82,1.82,0,0,1,1.82-1.81h.62V68.77Z"/></g><path class="cls-5" d="M66.07,26.89c-6.92,0-13.94,2.5-18.3,6.53-4.71,4.35-7.2,11.12-7.08,19.16a2.72,2.72,0,0,0-2.33,2.69v12.4a2.73,2.73,0,0,0,2.74,2.74h1.39a2.57,2.57,0,0,0,.62-.08v1.1a2.59,2.59,0,0,0,2.39,2.74h1.3a2.59,2.59,0,0,0,2.4-2.74V51.12a2.58,2.58,0,0,0-2.4-2.73H45.5a2.5,2.5,0,0,0-2.34,2.25,30.7,30.7,0,0,1,.29-3.49,20.3,20.3,0,0,1,5.95-12c3.88-3.58,10.42-5.9,16.67-5.9.72,0,2.22,0,2.93.1V27C68.18,26.91,66.83,26.89,66.07,26.89ZM42.49,67.4a1.83,1.83,0,0,1-1.82-1.82V57.36a1.82,1.82,0,0,1,1.82-1.81h.62V67.4Z"/><polygon class="cls-3" points="72 3 72 99 113 75 113 27 72 3"/><path class="cls-5" d="M104.28,59.09a6.75,6.75,0,0,0-7.67-2.86A18.09,18.09,0,0,0,88,50.6a28.62,28.62,0,0,0,5.91-6.16,6.91,6.91,0,0,0,5.17-.83,6.77,6.77,0,1,0-9.34-2.11,6.27,6.27,0,0,0,.42.59,23.88,23.88,0,0,1-9.52,7.79h0A18.45,18.45,0,0,1,72,52v5c4,0,5.93-1.12,10-2.9a14.78,14.78,0,0,1,11,4.75,6.76,6.76,0,1,0,12.16,5.32A6.64,6.64,0,0,0,104.28,59.09ZM94.06,35.67a2.57,2.57,0,0,1,1.4-.41,2.62,2.62,0,1,1,0,5.24,2.61,2.61,0,0,1-2.22-1.21A2.63,2.63,0,0,1,94.06,35.67Zm7.06,27.6A2.61,2.61,0,0,1,100,64.91a2.56,2.56,0,0,1-1.39.41,2.62,2.62,0,0,1-1.52-4.75l.12-.07a2.65,2.65,0,0,1,3.6.8A2.59,2.59,0,0,1,101.12,63.27Z"/></g></g></svg>