<svg xmlns="http://www.w3.org/2000/svg" xmlns:xlink="http://www.w3.org/1999/xlink" viewBox="0 0 645.9 150"><defs><style>.cls-1{fill:none;}.cls-2{isolation:isolate;}.cls-3{fill:#eb743b;}.cls-4{fill:#353070;}.cls-5,.cls-9{mix-blend-mode:multiply;}.cls-5{opacity:0.07;}.cls-6{clip-path:url(#clip-path);}.cls-7{fill:#d3562c;}.cls-8{fill:#fffedb;}.cls-9{opacity:0.25;}</style><clipPath id="clip-path"><rect class="cls-1" x="70.35" y="28.32" width="51.43" height="90.79"/></clipPath></defs><g class="cls-2"><g id="Layer_1" data-name="Layer 1"><polygon class="cls-3" points="70.36 2.9 70.36 146.91 131.35 111.91 131.35 37.91 70.36 2.9"/><polygon class="cls-4" points="65.35 2.82 4.35 37.82 4.35 111.82 65.35 146.82 65.35 2.82"/><g class="cls-5"><g class="cls-6"><path d="M87.66,94.64a2.08,2.08,0,0,1,1.82-1,2,2,0,0,1,1.07.3,2.11,2.11,0,0,1-1.08,3.93,2.08,2.08,0,0,1-1.08-.31,2,2,0,0,1-1-1.29,2.08,2.08,0,0,1,.24-1.6M100.26,117a2.11,2.11,0,1,1-1.38-3.72,2.11,2.11,0,0,1,2.11,2.28,2.08,2.08,0,0,1-.73,1.44"/><path d="M79.36,48.51l.21.05-.21-.05"/><path d="M90.73,58.16a2.15,2.15,0,0,1,.68-.66,2.08,2.08,0,0,1,1.12-.31,2.17,2.17,0,0,1,1.12.31,2.12,2.12,0,1,1-2.92.66M97.11,38a2.14,2.14,0,0,1-2.91.65l-.09-.07a2.11,2.11,0,0,1,1.22-3.83,2.16,2.16,0,0,1,1.13.33,2.12,2.12,0,0,1,.93,1.33A2.08,2.08,0,0,1,97.11,38"/><path d="M113.88,49.57a2.1,2.1,0,0,1,1.78-1,2.16,2.16,0,0,1,1.13.33,2.06,2.06,0,0,1,.93,1.33,2,2,0,0,1-.28,1.58,2.15,2.15,0,0,1-2.91.66l-.09-.07a2.1,2.1,0,0,1-.56-2.85m0,23.47a2.09,2.09,0,0,1,1.78-1,2.16,2.16,0,0,1,1.13.33,2.11,2.11,0,0,1,.93,1.33,2,2,0,0,1-.28,1.58,2.13,2.13,0,0,1-2.91.66l-.09-.06a2.11,2.11,0,0,1-.56-2.85m0,26.3a2.08,2.08,0,0,1,1.78-1,2.15,2.15,0,0,1,1.13.32,2.11,2.11,0,0,1,.93,1.33,2,2,0,0,1-.28,1.59,2.14,2.14,0,0,1-2.91.65l-.09-.06a2.11,2.11,0,0,1-.56-2.85"/><path d="M103.53,109a6.12,6.12,0,0,0-10.72,4.73,19.62,19.62,0,0,1-5.33,1.33,4,4,0,0,1-2.22-1,10.7,10.7,0,0,0-4.15-1.84,37.47,37.47,0,0,0,8.58-12.84,6.12,6.12,0,0,0-.21-12.23,6.12,6.12,0,0,0-5.94,7.63,6.09,6.09,0,0,0,2.3,3.43c-4,9.21-9.22,13.08-12.57,14.68a2,2,0,0,0-.36.17,11,11,0,0,1-2.55.8v4a12.39,12.39,0,0,0,4.24-1.19c5.35-1.35,6.84-.35,8.41.71a7.94,7.94,0,0,0,4.26,1.66h.31a23.61,23.61,0,0,0,7-1.72,6.12,6.12,0,0,0,8.93-8.35M87.66,92.23a2.1,2.1,0,0,1,1.82-1,2.12,2.12,0,0,1,0,4.23,2.07,2.07,0,0,1-1.08-.3,2.1,2.1,0,0,1-.73-2.9m12.6,22.36a2,2,0,0,1-1.37.51,2.11,2.11,0,0,1-1.38-3.71,2.09,2.09,0,0,1,1.37-.51,2.15,2.15,0,0,1,1.61.73,2.13,2.13,0,0,1,.5,1.54,2,2,0,0,1-.73,1.44"/><path d="M79.36,46.11l.21,0-.21,0"/><path d="M101.3,33.11a6,6,0,0,0-2.7-3.84,6.12,6.12,0,0,0-8.3,8.66,13.35,13.35,0,0,1-9.94,4.29,29.39,29.39,0,0,0-10-2.32v4A24.91,24.91,0,0,1,79.1,46h0a21.58,21.58,0,0,1,8.6,7c-.13.18-.26.35-.38.54a6.14,6.14,0,0,0,1.91,8.44,6,6,0,0,0,3.26,1,6.13,6.13,0,0,0,3.28-11.31A6.22,6.22,0,0,0,91.12,51a25.72,25.72,0,0,0-5.34-5.57,16.39,16.39,0,0,0,7.78-5.09,6.16,6.16,0,0,0,1.77.26,6.09,6.09,0,0,0,5.17-2.85,6,6,0,0,0,.8-4.6M90.73,55.76a2,2,0,0,1,.68-.66,2.12,2.12,0,0,1,2.24,0A2.12,2.12,0,0,1,92.51,59a2.12,2.12,0,0,1-1.78-3.25m6.38-20.19a2.14,2.14,0,0,1-2.91.65l-.09-.06a2.11,2.11,0,0,1,1.22-3.83A2.09,2.09,0,0,1,97.39,34a2.08,2.08,0,0,1-.28,1.59"/><path d="M110,74.09a6.09,6.09,0,0,0,2.11,2.65l.28.19a6.12,6.12,0,1,0,6.54-10.35,6.19,6.19,0,0,0-3.27-.94l-.37,0a25.82,25.82,0,0,1,0-11.27l.34,0a6.12,6.12,0,0,0,3.27-11.3,6.19,6.19,0,0,0-3.27-.94,6.12,6.12,0,0,0-4.15,10.61l.08.06a28.64,28.64,0,0,0,0,14.42c-.14.13-.29.25-.43.4a6.58,6.58,0,0,0-.63.82,6.19,6.19,0,0,0-.71,1.58A15.16,15.16,0,0,0,103,72.8c-2,1.32-4,2.57-9.64,2.66A32.72,32.72,0,0,0,88,75.35c-1.43.05-2.91.1-4.85,0-1.33-.07-2.1-.88-3.46-2.42-1.8-2.06-4.21-4.65-9.36-5v4c3.29.29,4.79,1.88,6.35,3.66s3.18,3.62,6.26,3.78c2.12.12,3.76.05,5.2,0A24.15,24.15,0,0,1,96,80c2.61.64,12.1,9.67,14.77,14.32a4.25,4.25,0,0,0-.31.43,6.1,6.1,0,0,0,1.62,8.25l.28.2a6.11,6.11,0,1,0,1.73-11.1c-2.56-4.19-8.65-10.45-13.19-13.79a18.42,18.42,0,0,0,4.21-2.19A11.39,11.39,0,0,1,110,74.09m3.88-26.92a2.08,2.08,0,0,1,1.78-1,2.15,2.15,0,0,1,1.13.32,2.11,2.11,0,0,1,.93,1.33,2,2,0,0,1-.28,1.59,2.14,2.14,0,0,1-2.91.65l-.09-.06a2.11,2.11,0,0,1-.56-2.85m0,23.46a2.1,2.1,0,0,1,1.78-1,2.11,2.11,0,0,1,2.06,1.66,2,2,0,0,1-.28,1.58,2.14,2.14,0,0,1-2.91.65l-.09-.06a2.11,2.11,0,0,1-.56-2.85m0,26.3a2.1,2.1,0,0,1,1.78-1,2.16,2.16,0,0,1,1.13.33,2.06,2.06,0,0,1,.93,1.33,2,2,0,0,1-.28,1.58,2.15,2.15,0,0,1-2.91.66l-.09-.07a2.1,2.1,0,0,1-.56-2.85"/></g></g><path class="cls-7" d="M103.53,112a6.12,6.12,0,0,0-10.72,4.73,19.62,19.62,0,0,1-5.33,1.33,4,4,0,0,1-2.22-1,10.7,10.7,0,0,0-4.15-1.84,37.47,37.47,0,0,0,8.58-12.84,6.12,6.12,0,0,0-.21-12.23,6.12,6.12,0,0,0-5.94,7.63,6.09,6.09,0,0,0,2.3,3.43c-4,9.21-9.22,13.08-12.57,14.68a2,2,0,0,0-.36.17,11,11,0,0,1-2.55.8v4a12.39,12.39,0,0,0,4.24-1.19c5.35-1.35,6.84-.35,8.41.71a7.94,7.94,0,0,0,4.26,1.66h.31a23.61,23.61,0,0,0,7-1.72,6.12,6.12,0,0,0,8.93-8.35M87.66,95.23a2.1,2.1,0,0,1,1.82-1,2.12,2.12,0,0,1,0,4.23,2.07,2.07,0,0,1-1.08-.3,2.1,2.1,0,0,1-.73-2.9m12.6,22.36a2,2,0,0,1-1.37.51,2.11,2.11,0,0,1-1.38-3.71,2.09,2.09,0,0,1,1.37-.51,2.15,2.15,0,0,1,1.61.73,2.13,2.13,0,0,1,.5,1.54,2,2,0,0,1-.73,1.44"/><path d="M79.36,48.51l.21.05-.21-.05"/><path class="cls-7" d="M101.3,35.11a6.12,6.12,0,1,0-11,4.82,13.33,13.33,0,0,1-9.94,4.3,28.93,28.93,0,0,0-10-2.32v4A24.91,24.91,0,0,1,79.1,48h0a21.5,21.5,0,0,1,8.6,7c-.13.17-.26.35-.38.54a6.13,6.13,0,1,0,8.45-1.91A6.22,6.22,0,0,0,91.12,53a26,26,0,0,0-5.34-5.57,16.24,16.24,0,0,0,7.78-5.09,6.17,6.17,0,0,0,1.77.27,6.12,6.12,0,0,0,6-7.46M90.73,57.76a2,2,0,0,1,.68-.66,2.09,2.09,0,0,1,1.12-.32,2.18,2.18,0,0,1,1.12.32A2.12,2.12,0,0,1,92.51,61a2.06,2.06,0,0,1-1.12-.33,2.13,2.13,0,0,1-.66-2.92m6.38-20.19a2.14,2.14,0,0,1-2.91.65l-.09-.06a2.11,2.11,0,0,1,1.22-3.83,2.16,2.16,0,0,1,1.13.33A2.1,2.1,0,0,1,97.39,36a2.05,2.05,0,0,1-.28,1.58"/><path class="cls-7" d="M110,77.09a6.09,6.09,0,0,0,2.11,2.65l.28.19a6.12,6.12,0,1,0,6.54-10.35,6.19,6.19,0,0,0-3.27-.94l-.37,0a25.82,25.82,0,0,1,0-11.27l.34,0a6.12,6.12,0,0,0,3.27-11.3,6.19,6.19,0,0,0-3.27-.94,6.12,6.12,0,0,0-4.15,10.61l.08.06a28.64,28.64,0,0,0,0,14.42c-.14.13-.29.25-.43.4a6.58,6.58,0,0,0-.63.82,6,6,0,0,0-.71,1.58A15.16,15.16,0,0,0,103,75.8c-2,1.32-4,2.57-9.64,2.66A32.72,32.72,0,0,0,88,78.35c-1.43.05-2.91.1-4.85,0-1.33-.07-2.1-.88-3.46-2.42-1.8-2.06-4.21-4.65-9.36-5v4c3.29.29,4.79,1.88,6.35,3.66s3.18,3.62,6.26,3.78c2.12.12,3.76.05,5.2,0A24.15,24.15,0,0,1,96,83c2.61.64,12.1,9.67,14.77,14.32a4.25,4.25,0,0,0-.31.43,6.1,6.1,0,0,0,1.62,8.25l.28.2a6.11,6.11,0,1,0,1.73-11.1c-2.56-4.19-8.65-10.45-13.19-13.79a18.42,18.42,0,0,0,4.21-2.19A11.39,11.39,0,0,1,110,77.09m3.88-26.92a2.08,2.08,0,0,1,1.78-1,2.15,2.15,0,0,1,1.13.32,2.11,2.11,0,0,1,.93,1.33,2,2,0,0,1-.28,1.59,2.14,2.14,0,0,1-2.91.65l-.09-.06a2.11,2.11,0,0,1-.56-2.85m0,23.46a2.1,2.1,0,0,1,1.78-1,2.11,2.11,0,0,1,2.06,1.66,2,2,0,0,1-.28,1.58,2.14,2.14,0,0,1-2.91.65l-.09-.06a2.11,2.11,0,0,1-.56-2.85m0,26.3a2.1,2.1,0,0,1,1.78-1,2.16,2.16,0,0,1,1.13.33,2.06,2.06,0,0,1,.93,1.33,2,2,0,0,1-.28,1.58,2.15,2.15,0,0,1-2.91.66l-.09-.07a2.1,2.1,0,0,1-.56-2.85"/><path class="cls-8" d="M103.53,109a6.12,6.12,0,0,0-10.72,4.73,19.62,19.62,0,0,1-5.33,1.33,4,4,0,0,1-2.22-1,10.7,10.7,0,0,0-4.15-1.84,37.47,37.47,0,0,0,8.58-12.84,6.12,6.12,0,0,0-.21-12.23,6.12,6.12,0,0,0-5.94,7.63,6.09,6.09,0,0,0,2.3,3.43c-4,9.21-9.22,13.08-12.57,14.68a2,2,0,0,0-.36.17,11,11,0,0,1-2.55.8v4a12.39,12.39,0,0,0,4.24-1.19c5.35-1.35,6.84-.35,8.41.71a7.94,7.94,0,0,0,4.26,1.66h.31a23.61,23.61,0,0,0,7-1.72,6.12,6.12,0,0,0,8.93-8.35M87.66,92.23a2.1,2.1,0,0,1,1.82-1,2.12,2.12,0,0,1,0,4.23,2.07,2.07,0,0,1-1.08-.3,2.1,2.1,0,0,1-.73-2.9m12.6,22.36a2,2,0,0,1-1.37.51,2.11,2.11,0,0,1-1.38-3.71,2.09,2.09,0,0,1,1.37-.51,2.15,2.15,0,0,1,1.61.73,2.13,2.13,0,0,1,.5,1.54,2,2,0,0,1-.73,1.44"/><path class="cls-8" d="M79.36,46.11l.21,0-.21,0"/><path class="cls-8" d="M101.3,33.11a6,6,0,0,0-2.7-3.84,6.12,6.12,0,0,0-8.3,8.66,13.35,13.35,0,0,1-9.94,4.29,29.39,29.39,0,0,0-10-2.32v4A24.91,24.91,0,0,1,79.1,46h0a21.58,21.58,0,0,1,8.6,7c-.13.18-.26.35-.38.54a6.14,6.14,0,0,0,1.91,8.44,6,6,0,0,0,3.26,1,6.13,6.13,0,0,0,3.28-11.31A6.22,6.22,0,0,0,91.12,51a25.72,25.72,0,0,0-5.34-5.57,16.39,16.39,0,0,0,7.78-5.09,6.16,6.16,0,0,0,1.77.26,6.09,6.09,0,0,0,5.17-2.85,6,6,0,0,0,.8-4.6M90.73,55.76a2,2,0,0,1,.68-.66,2.12,2.12,0,0,1,2.24,0A2.12,2.12,0,0,1,92.51,59a2.12,2.12,0,0,1-1.78-3.25m6.38-20.19a2.14,2.14,0,0,1-2.91.65l-.09-.06a2.11,2.11,0,0,1,1.22-3.83A2.09,2.09,0,0,1,97.39,34a2.08,2.08,0,0,1-.28,1.59"/><path class="cls-8" d="M110,74.09a6.09,6.09,0,0,0,2.11,2.65l.28.19a6.12,6.12,0,1,0,6.54-10.35,6.19,6.19,0,0,0-3.27-.94l-.37,0a25.82,25.82,0,0,1,0-11.27l.34,0a6.12,6.12,0,0,0,3.27-11.3,6.19,6.19,0,0,0-3.27-.94,6.12,6.12,0,0,0-4.15,10.61l.08.06a28.64,28.64,0,0,0,0,14.42c-.14.13-.29.25-.43.4a6.58,6.58,0,0,0-.63.82,6.19,6.19,0,0,0-.71,1.58A15.16,15.16,0,0,0,103,72.8c-2,1.32-4,2.57-9.64,2.66A32.72,32.72,0,0,0,88,75.35c-1.43.05-2.91.1-4.85,0-1.33-.07-2.1-.88-3.46-2.42-1.8-2.06-4.21-4.65-9.36-5v4c3.29.29,4.79,1.88,6.35,3.66s3.18,3.62,6.26,3.78c2.12.12,3.76.05,5.2,0A24.15,24.15,0,0,1,96,80c2.61.64,12.1,9.67,14.77,14.32a4.25,4.25,0,0,0-.31.43,6.1,6.1,0,0,0,1.62,8.25l.28.2a6.11,6.11,0,1,0,1.73-11.1c-2.56-4.19-8.65-10.45-13.19-13.79a18.42,18.42,0,0,0,4.21-2.19A11.39,11.39,0,0,1,110,74.09m3.88-26.92a2.08,2.08,0,0,1,1.78-1,2.15,2.15,0,0,1,1.13.32,2.11,2.11,0,0,1,.93,1.33,2,2,0,0,1-.28,1.59,2.14,2.14,0,0,1-2.91.65l-.09-.06a2.11,2.11,0,0,1-.56-2.85m0,23.46a2.1,2.1,0,0,1,1.78-1,2.11,2.11,0,0,1,2.06,1.66,2,2,0,0,1-.28,1.58,2.14,2.14,0,0,1-2.91.65l-.09-.06a2.11,2.11,0,0,1-.56-2.85m0,26.3a2.1,2.1,0,0,1,1.78-1,2.16,2.16,0,0,1,1.13.33,2.06,2.06,0,0,1,.93,1.33,2,2,0,0,1-.28,1.58,2.15,2.15,0,0,1-2.91.66l-.09-.07a2.1,2.1,0,0,1-.56-2.85"/><g class="cls-9"><path d="M48.4,99.72a1.22,1.22,0,0,1-.7-.23,1.23,1.23,0,0,1-.3-1.72,9.85,9.85,0,0,0,.75-1.25,9.25,9.25,0,0,0-.52-9.17A1.23,1.23,0,0,1,49.71,86a11.81,11.81,0,0,1,.65,11.59,11.46,11.46,0,0,1-.94,1.59,1.25,1.25,0,0,1-1,.52"/><path d="M54.08,102.66a1.22,1.22,0,0,1-.72-.24,1.24,1.24,0,0,1-.27-1.73,12.87,12.87,0,0,0,1.23-2A13.55,13.55,0,0,0,53,84.52,1.24,1.24,0,0,1,55,83a16.13,16.13,0,0,1,.07,19.11,1.26,1.26,0,0,1-1,.51"/><path d="M42.84,96.6a1.2,1.2,0,0,1-.6-.16,1.25,1.25,0,0,1-.47-1.69A4.88,4.88,0,0,0,42,90.29a1.23,1.23,0,1,1,2.24-1A7.38,7.38,0,0,1,43.92,96a1.25,1.25,0,0,1-1.08.63"/></g><path class="cls-3" d="M48.4,97.67a1.21,1.21,0,0,1-.7-.22,1.24,1.24,0,0,1-.3-1.72,10,10,0,0,0,.75-1.26,9.23,9.23,0,0,0-.52-9.16A1.24,1.24,0,0,1,48,83.6a1.23,1.23,0,0,1,1.7.37,11.83,11.83,0,0,1,.65,11.6,12,12,0,0,1-.94,1.58,1.25,1.25,0,0,1-1,.52"/><path class="cls-3" d="M54.08,100.61a1.16,1.16,0,0,1-.72-.24,1.23,1.23,0,0,1-.27-1.72,13,13,0,0,0,1.23-2A13.55,13.55,0,0,0,53,82.47,1.23,1.23,0,0,1,55,81a16,16,0,0,1,1.51,16.73,16.37,16.37,0,0,1-1.44,2.38,1.25,1.25,0,0,1-1,.5"/><path class="cls-3" d="M42.84,94.55a1.2,1.2,0,0,1-.6-.16,1.24,1.24,0,0,1-.47-1.68A4.9,4.9,0,0,0,42,88.24a1.23,1.23,0,0,1,.6-1.64,1.24,1.24,0,0,1,1.64.61,7.38,7.38,0,0,1-.28,6.72,1.24,1.24,0,0,1-1.08.62"/><g class="cls-9"><path d="M61,41.13c-10.35,0-20.82,3.73-27.34,9.75-7,6.51-10.76,16.62-10.58,28.63a4.07,4.07,0,0,0-3.49,4v18.52a4.09,4.09,0,0,0,4.09,4.09h2.08a4.24,4.24,0,0,0,.94-.11v1.63a3.86,3.86,0,0,0,3.57,4.09h1.94a3.86,3.86,0,0,0,3.57-4.09V77.34a3.86,3.86,0,0,0-3.57-4.09H30.25a3.74,3.74,0,0,0-3.51,3.36,46.46,46.46,0,0,1,.44-5.21c1.18-7.4,4.22-13.57,8.89-17.89C41.86,48.16,51.64,44.7,61,44.7c1.07,0,3.31,0,4.37.15V41.28C64.13,41.16,62.12,41.13,61,41.13ZM25.74,101.65A2.71,2.71,0,0,1,23,98.94V86.66A2.71,2.71,0,0,1,25.74,84h.94v17.7Z"/></g><path class="cls-8" d="M61,39.08c-10.35,0-20.82,3.74-27.34,9.76-7,6.5-10.76,16.61-10.58,28.62a4.08,4.08,0,0,0-3.49,4V100a4.09,4.09,0,0,0,4.09,4.09h2.08a4.25,4.25,0,0,0,.94-.12v1.64a3.86,3.86,0,0,0,3.57,4.09h1.94a3.86,3.86,0,0,0,3.57-4.09V75.29a3.86,3.86,0,0,0-3.57-4.09H30.25a3.74,3.74,0,0,0-3.51,3.36,46.87,46.87,0,0,1,.44-5.21c1.18-7.4,4.22-13.57,8.89-17.88,5.79-5.35,15.57-8.81,24.91-8.81,1.07,0,3.31,0,4.37.14V39.24C64.13,39.12,62.12,39.08,61,39.08ZM25.74,99.61A2.71,2.71,0,0,1,23,96.9V84.61a2.71,2.71,0,0,1,2.71-2.71h.94V99.61Z"/><path class="cls-4" d="M169.57,91.9h24.89v10.92H156V48.22h13.6Z"/><path class="cls-4" d="M200.75,44.09a6.16,6.16,0,0,1,1.88-4.62,8.09,8.09,0,0,1,10.2,0,6.6,6.6,0,0,1,0,9.28,8,8,0,0,1-10.13,0A6.12,6.12,0,0,1,200.75,44.09ZM214,102.82H201.48V56.16H214Z"/><path class="cls-4" d="M249.52,89.93a4,4,0,0,0-2.26-3.6A25.6,25.6,0,0,0,240,84q-16.63-3.49-16.64-14.15a12.81,12.81,0,0,1,5.15-10.37Q233.66,55.3,242,55.3q8.88,0,14.21,4.18a13.19,13.19,0,0,1,5.32,10.87H249.05a6,6,0,0,0-1.73-4.42c-1.15-1.16-2.94-1.75-5.39-1.75a7.44,7.44,0,0,0-4.87,1.43,4.49,4.49,0,0,0-1.73,3.62,3.84,3.84,0,0,0,2,3.34,20.16,20.16,0,0,0,6.62,2.2,55.45,55.45,0,0,1,7.85,2.09q9.87,3.63,9.87,12.55a12.17,12.17,0,0,1-5.48,10.33q-5.48,3.95-14.14,4a24.56,24.56,0,0,1-10.41-2.1,17.35,17.35,0,0,1-7.14-5.73A13.29,13.29,0,0,1,221.88,88H233.7a6.51,6.51,0,0,0,2.45,5.09,9.77,9.77,0,0,0,6.13,1.77,9.07,9.07,0,0,0,5.41-1.36A4.23,4.23,0,0,0,249.52,89.93Z"/><path class="cls-4" d="M284.58,44.69V56.16h8v9.15h-8V88.59a5.57,5.57,0,0,0,1,3.71c.67.75,1.93,1.12,3.8,1.12a19.9,19.9,0,0,0,3.66-.3v9.44a25.51,25.51,0,0,1-7.54,1.13q-13.11,0-13.37-13.24V65.31h-6.81V56.16h6.81V44.69Z"/><path class="cls-4" d="M321,103.69q-10.26,0-16.71-6.3t-6.45-16.78v-1.2a28.18,28.18,0,0,1,2.72-12.57,19.92,19.92,0,0,1,7.7-8.54,21.56,21.56,0,0,1,11.36-3q9.57,0,15.07,6t5.5,17.12v5.09H310.46a11.56,11.56,0,0,0,3.64,7.33,11,11,0,0,0,7.7,2.76,13.44,13.44,0,0,0,11.25-5.22l6.13,6.86a18.74,18.74,0,0,1-7.59,6.18A24.77,24.77,0,0,1,321,103.69Zm-1.42-38.34a7.8,7.8,0,0,0-6,2.51,13,13,0,0,0-3,7.19h17.33v-1a9.28,9.28,0,0,0-2.24-6.43A8.06,8.06,0,0,0,319.56,65.35Z"/><path class="cls-4" d="M358.71,56.16l.39,5.39a16.31,16.31,0,0,1,13.41-6.25q7.42,0,11,4.36t3.71,13v30.14H374.8V72.91q0-4-1.73-5.77t-5.73-1.79a8.59,8.59,0,0,0-7.9,4.49v33H347V56.16Z"/><path class="cls-3" d="M396.56,102.82V48.22h21.09q10.92,0,16.78,3.87a12.64,12.64,0,0,1,5.86,11.24,12.59,12.59,0,0,1-2.13,7.26A12.21,12.21,0,0,1,432,75.16a12.16,12.16,0,0,1,7,4.45,12.32,12.32,0,0,1,2.44,7.58q0,8.1-5.58,11.87t-16.22,3.76ZM410.15,71h8.34q8.2,0,8.21-5.74c0-2.2-.67-3.76-2-4.68s-3.36-1.39-6.08-1.39h-8.48Zm0,9.23V91.9h9.56a10.36,10.36,0,0,0,6.1-1.55,4.82,4.82,0,0,0,2.15-4.1q0-5.88-7.17-6.07Z"/><path class="cls-3" d="M476,67.85a34,34,0,0,0-4.49-.35q-7.07,0-9.27,4.79v30.53H449.81V56.16h11.77l.35,5.57q3.75-6.43,10.39-6.43a13.14,13.14,0,0,1,3.88.56Z"/><path class="cls-3" d="M507.77,102.82a13.68,13.68,0,0,1-1.25-4.18,15.09,15.09,0,0,1-11.77,5,16.6,16.6,0,0,1-11.37-4,12.78,12.78,0,0,1-4.5-10q0-7.41,5.49-11.38t15.89-4H506V71.64a7.66,7.66,0,0,0-1.66-5.17c-1.11-1.29-2.85-1.94-5.24-1.94A7.42,7.42,0,0,0,494.16,66a5.15,5.15,0,0,0-1.79,4.14H479.91a12.55,12.55,0,0,1,2.5-7.51,16.67,16.67,0,0,1,7.07-5.41,25.94,25.94,0,0,1,10.27-2q8.63,0,13.69,4.33t5.07,12.19V92q0,6.64,1.85,10v.73Zm-10.31-8.66a10.73,10.73,0,0,0,5.09-1.23,8.11,8.11,0,0,0,3.45-3.3v-8h-4.66q-9.36,0-10,6.47l0,.73A5,5,0,0,0,493,92.65,6.37,6.37,0,0,0,497.46,94.16Z"/><path class="cls-3" d="M528,44.09a6.16,6.16,0,0,1,1.88-4.62,8.09,8.09,0,0,1,10.2,0,6.59,6.59,0,0,1,0,9.28,8,8,0,0,1-10.14,0A6.12,6.12,0,0,1,528,44.09Zm13.24,58.73h-12.5V56.16h12.5Z"/><path class="cls-3" d="M563,56.16l.38,5.39a16.33,16.33,0,0,1,13.42-6.25q7.41,0,11,4.36t3.7,13v30.14H579.05V72.91q0-4-1.72-5.77c-1.15-1.19-3.07-1.79-5.74-1.79a8.57,8.57,0,0,0-7.89,4.49v33H551.24V56.16Z"/><path class="cls-3" d="M615.28,92.78h22.81v10H599.36V95.23l21.95-29H600v-10H637.4v7.35Z"/></g></g></svg>