<svg id="Layer_1" data-name="Layer 1" xmlns="http://www.w3.org/2000/svg" viewBox="0 0 212.44 30.44"><defs><style>.cls-1{fill:#353070;}.cls-2{fill:#eb743b;}</style></defs><polygon class="cls-1" points="14 1.44 2 8.44 2 22.44 14 29.44 14 1.44"/><polygon class="cls-2" points="15 1.44 27 8.44 27 22.44 15 29.44 15 1.44"/><path class="cls-1" d="M40.6,21.49h9v4H35.68V5.68H40.6Z"/><path class="cls-1" d="M51.89,4.19a2.21,2.21,0,0,1,.67-1.67,2.92,2.92,0,0,1,3.7,0,2.22,2.22,0,0,1,.68,1.67,2.22,2.22,0,0,1-.69,1.68,2.58,2.58,0,0,1-1.84.66,2.54,2.54,0,0,1-1.83-.66A2.22,2.22,0,0,1,51.89,4.19Zm4.79,21.25H52.15V8.56h4.53Z"/><path class="cls-1" d="M69.54,20.78a1.48,1.48,0,0,0-.82-1.31,9.7,9.7,0,0,0-2.63-.85q-6-1.26-6-5.12a4.63,4.63,0,0,1,1.87-3.75A7.54,7.54,0,0,1,66.8,8.24,8.11,8.11,0,0,1,72,9.76a4.79,4.79,0,0,1,1.93,3.93H69.36a2.17,2.17,0,0,0-.62-1.6,2.66,2.66,0,0,0-1.95-.63A2.7,2.7,0,0,0,65,12a1.63,1.63,0,0,0-.63,1.32,1.4,1.4,0,0,0,.71,1.21,7.44,7.44,0,0,0,2.4.79,19.31,19.31,0,0,1,2.84.76c2.38.87,3.57,2.39,3.57,4.54a4.42,4.42,0,0,1-2,3.74,8.57,8.57,0,0,1-5.12,1.43A9,9,0,0,1,63.05,25a6.32,6.32,0,0,1-2.58-2.08,4.86,4.86,0,0,1-.94-2.85h4.28a2.36,2.36,0,0,0,.89,1.85,3.56,3.56,0,0,0,2.21.64,3.23,3.23,0,0,0,2-.5A1.5,1.5,0,0,0,69.54,20.78Z"/><path class="cls-1" d="M82.23,4.41V8.56h2.88v3.31H82.23v8.42a2,2,0,0,0,.35,1.34A1.78,1.78,0,0,0,84,22a7.32,7.32,0,0,0,1.32-.11v3.42a9.26,9.26,0,0,1-2.73.41q-4.74,0-4.83-4.8V11.87H75.25V8.56h2.47V4.41Z"/><path class="cls-1" d="M95.4,25.76a8.29,8.29,0,0,1-6.05-2.28A8.09,8.09,0,0,1,87,17.41V17a10.14,10.14,0,0,1,1-4.55,7.17,7.17,0,0,1,2.79-3.09A7.84,7.84,0,0,1,94.9,8.24a7,7,0,0,1,5.45,2.19,8.86,8.86,0,0,1,2,6.19v1.85H91.59a4.19,4.19,0,0,0,1.32,2.65,4,4,0,0,0,2.78,1,4.88,4.88,0,0,0,4.08-1.89L102,22.71A6.67,6.67,0,0,1,99.24,25,9,9,0,0,1,95.4,25.76Zm-.52-13.88a2.79,2.79,0,0,0-2.17.91,4.64,4.64,0,0,0-1.07,2.6h6.27V15a3.37,3.37,0,0,0-.81-2.33A2.94,2.94,0,0,0,94.88,11.88Z"/><path class="cls-1" d="M109.05,8.56l.14,1.95a5.91,5.91,0,0,1,4.86-2.27,4.89,4.89,0,0,1,4,1.58,7.3,7.3,0,0,1,1.35,4.71V25.44h-4.51V14.62a2.92,2.92,0,0,0-.63-2.09,2.79,2.79,0,0,0-2.07-.65,3.09,3.09,0,0,0-2.86,1.63V25.44h-4.51V8.56Z"/><path class="cls-2" d="M122.75,25.44V5.68h7.64a11,11,0,0,1,6.07,1.4,4.59,4.59,0,0,1,2.12,4.07,4.6,4.6,0,0,1-.77,2.63,4.48,4.48,0,0,1-2.22,1.65A4.32,4.32,0,0,1,139,19.79a4.8,4.8,0,0,1-2,4.29,10.46,10.46,0,0,1-5.87,1.36Zm4.92-11.53h3c2,0,3-.7,3-2.08a1.94,1.94,0,0,0-.72-1.7,3.91,3.91,0,0,0-2.2-.5h-3.07Zm0,3.34v4.24h3.46a3.78,3.78,0,0,0,2.21-.56,1.75,1.75,0,0,0,.78-1.48c0-1.42-.87-2.16-2.6-2.2Z"/><path class="cls-2" d="M151.51,12.79a11.18,11.18,0,0,0-1.62-.13c-1.71,0-2.82.58-3.35,1.73V25.44H142V8.56h4.27l.12,2a4.19,4.19,0,0,1,3.76-2.33,4.62,4.62,0,0,1,1.41.21Z"/><path class="cls-2" d="M163,25.44a4.81,4.81,0,0,1-.45-1.51,5.44,5.44,0,0,1-4.26,1.83,6,6,0,0,1-4.11-1.44,4.62,4.62,0,0,1-1.64-3.62,4.79,4.79,0,0,1,2-4.12,9.83,9.83,0,0,1,5.76-1.45h2.07v-1a2.76,2.76,0,0,0-.6-1.87,2.36,2.36,0,0,0-1.9-.71,2.69,2.69,0,0,0-1.78.55,1.84,1.84,0,0,0-.65,1.5h-4.51a4.57,4.57,0,0,1,.9-2.72,6.12,6.12,0,0,1,2.56-2,9.42,9.42,0,0,1,3.72-.71,7.38,7.38,0,0,1,5,1.57,5.48,5.48,0,0,1,1.84,4.41v7.32a8,8,0,0,0,.67,3.64v.26Zm-3.73-3.13a3.83,3.83,0,0,0,1.84-.45,2.88,2.88,0,0,0,1.25-1.19V17.76h-1.68c-2.26,0-3.46.78-3.61,2.35l0,.26a1.79,1.79,0,0,0,.6,1.39A2.3,2.3,0,0,0,159.27,22.31Z"/><path class="cls-2" d="M170.32,4.19A2.22,2.22,0,0,1,171,2.52a2.91,2.91,0,0,1,3.69,0,2.19,2.19,0,0,1,.69,1.67,2.2,2.2,0,0,1-.7,1.68,2.54,2.54,0,0,1-1.83.66A2.58,2.58,0,0,1,171,5.87,2.22,2.22,0,0,1,170.32,4.19Zm4.79,21.25h-4.52V8.56h4.52Z"/><path class="cls-2" d="M183,8.56l.14,1.95A5.89,5.89,0,0,1,188,8.24a4.92,4.92,0,0,1,4,1.58,7.36,7.36,0,0,1,1.34,4.71V25.44H188.8V14.62a3,3,0,0,0-.62-2.09,2.82,2.82,0,0,0-2.08-.65,3.11,3.11,0,0,0-2.86,1.63V25.44h-4.51V8.56Z"/><path class="cls-2" d="M201.91,21.81h8.26v3.63h-14V22.7l7.94-10.51h-7.71V8.56h13.54v2.65Z"/></svg>