<?xml version="1.0" encoding="utf-8"?>
<!-- Generator: Adobe Illustrator 16.0.0, SVG Export Plug-In . SVG Version: 6.00 Build 0)  -->
<!DOCTYPE svg PUBLIC "-//W3C//DTD SVG 1.1//EN" "http://www.w3.org/Graphics/SVG/1.1/DTD/svg11.dtd" [
	<!ENTITY ns_extend "http://ns.adobe.com/Extensibility/1.0/">
	<!ENTITY ns_ai "http://ns.adobe.com/AdobeIllustrator/10.0/">
	<!ENTITY ns_graphs "http://ns.adobe.com/Graphs/1.0/">
	<!ENTITY ns_vars "http://ns.adobe.com/Variables/1.0/">
	<!ENTITY ns_imrep "http://ns.adobe.com/ImageReplacement/1.0/">
	<!ENTITY ns_sfw "http://ns.adobe.com/SaveForWeb/1.0/">
	<!ENTITY ns_custom "http://ns.adobe.com/GenericCustomNamespace/1.0/">
	<!ENTITY ns_adobe_xpath "http://ns.adobe.com/XPath/1.0/">
]>
<svg version="1.1" id="Layer_1" xmlns:x="&ns_extend;" xmlns:i="&ns_ai;" xmlns:graph="&ns_graphs;"
	 xmlns="http://www.w3.org/2000/svg" xmlns:xlink="http://www.w3.org/1999/xlink" x="0px" y="0px" width="85px" height="30px"
	 viewBox="0 0 85 30" enable-background="new 0 0 85 30" xml:space="preserve">
<metadata>
	<sfw  xmlns="&ns_sfw;">
		<slices></slices>
		<sliceSourceBounds  height="28" width="80.749" y="-914" x="3012" bottomLeftOrigin="true"></sliceSourceBounds>
	</sfw>
</metadata>
<g>
</g>
<g>
	<g>
		<polygon fill="#20656C" points="14,1 2,8 2,22 14,29 		"/>
		<polygon fill="#EB743B" points="15,1 27,8 27,22 15,29 		"/>
	</g>
	<g>
		<path fill="#20656C" d="M45.902,18.231c-0.091,2.182-0.812,3.901-2.163,5.156c-1.352,1.256-3.136,1.884-5.353,1.884
			c-2.397,0-4.283-0.851-5.657-2.553s-2.062-4.103-2.062-7.202v-0.831c0-2.985,0.696-5.353,2.087-7.1
			c1.392-1.747,3.251-2.621,5.581-2.621c2.217,0,3.987,0.628,5.311,1.884s2.086,3.021,2.29,5.292h-4.818
			c0-2.148-0.927-3.223-2.782-3.223c-0.973,0-1.688,0.454-2.146,1.362c-0.458,0.909-0.693,2.317-0.704,4.225v1.073
			c0,2.101,0.223,3.583,0.67,4.446c0.446,0.862,1.19,1.294,2.23,1.294c0.916,0,1.595-0.246,2.036-0.737
			c0.441-0.492,0.667-1.275,0.679-2.35H45.902z"/>
		<path fill="#20656C" d="M58.711,21.251h-5.836L51.806,25h-4.801l6.531-19.764h4.496L64.631,25h-4.817L58.711,21.251z
			 M53.927,17.638h3.715l-1.883-6.379L53.927,17.638z"/>
		<path fill="#EB743B" d="M76.829,21.251h-5.836L69.924,25h-4.801l6.531-19.764h4.496L82.749,25h-4.817L76.829,21.251z
			 M72.045,17.638h3.715l-1.883-6.379L72.045,17.638z"/>
	</g>
</g>
</svg>
