<?xml version="1.0" encoding="utf-8"?>
<!-- Generator: Adobe Illustrator 16.0.0, SVG Export Plug-In . SVG Version: 6.00 Build 0)  -->
<!DOCTYPE svg PUBLIC "-//W3C//DTD SVG 1.1//EN" "http://www.w3.org/Graphics/SVG/1.1/DTD/svg11.dtd" [
	<!ENTITY ns_extend "http://ns.adobe.com/Extensibility/1.0/">
	<!ENTITY ns_ai "http://ns.adobe.com/AdobeIllustrator/10.0/">
	<!ENTITY ns_graphs "http://ns.adobe.com/Graphs/1.0/">
	<!ENTITY ns_vars "http://ns.adobe.com/Variables/1.0/">
	<!ENTITY ns_imrep "http://ns.adobe.com/ImageReplacement/1.0/">
	<!ENTITY ns_sfw "http://ns.adobe.com/SaveForWeb/1.0/">
	<!ENTITY ns_custom "http://ns.adobe.com/GenericCustomNamespace/1.0/">
	<!ENTITY ns_adobe_xpath "http://ns.adobe.com/XPath/1.0/">
]>
<svg version="1.1" id="Layer_1" xmlns:x="&ns_extend;" xmlns:i="&ns_ai;" xmlns:graph="&ns_graphs;"
	 xmlns="http://www.w3.org/2000/svg" xmlns:xlink="http://www.w3.org/1999/xlink" x="0px" y="0px" width="205px" height="195px"
	 viewBox="0 0 205 195" enable-background="new 0 0 205 195" xml:space="preserve">
<metadata>
	<sfw  xmlns="&ns_sfw;">
		<slices></slices>
		<sliceSourceBounds  height="188.558" width="197.219" y="-1217.558" x="3312.718" bottomLeftOrigin="true"></sliceSourceBounds>
	</sfw>
</metadata>
<g>
</g>
<g>
	<g>
		<polygon fill="#EB743B" points="104.5,3 104.5,99 145.5,75 145.5,27 		"/>
		<polygon fill="#20656C" points="101.5,3 60.5,27 60.5,75 101.5,99 		"/>
		<path fill="#FFFEDB" d="M136.781,59.087c-1.239-1.97-3.38-3.148-5.718-3.148c-0.666,0-1.324,0.103-1.956,0.295
			c-2.632-3.125-5.819-4.775-8.603-5.636c2.235-1.714,4.208-3.771,5.909-6.153c1.74,0.394,3.63,0.127,5.162-0.832
			c3.158-2.006,4.103-6.197,2.104-9.348c-1.249-1.975-3.39-3.152-5.724-3.152c-1.283,0-2.533,0.363-3.616,1.05
			c-3.146,1.991-4.093,6.181-2.105,9.336c0.13,0.207,0.271,0.404,0.422,0.596c-2.514,3.442-5.708,6.056-9.519,7.785l-0.014,0.004
			C109.593,51.487,107.5,52,104.5,52v5c4,0,5.931-1.125,10.016-2.898c1.366-0.023,6.962,0.185,10.991,4.747
			c-1.507,2.164-1.655,5.108-0.16,7.471c1.241,1.97,3.382,3.15,5.721,3.15c1.278,0,2.524-0.36,3.607-1.044
			c1.538-0.975,2.599-2.482,2.995-4.252C138.066,62.413,137.748,60.606,136.781,59.087z M126.561,35.67
			c0.423-0.266,0.901-0.405,1.396-0.405c0.903,0,1.731,0.456,2.219,1.224c0.771,1.214,0.403,2.836-0.818,3.61
			c-0.41,0.261-0.896,0.398-1.387,0.398c-0.493,0-0.974-0.134-1.39-0.391c-0.343-0.213-0.625-0.489-0.832-0.817
			C124.978,38.064,125.342,36.443,126.561,35.67z M133.619,63.27c-0.154,0.687-0.564,1.27-1.161,1.645
			c-0.413,0.264-0.896,0.406-1.391,0.406c-0.906,0-1.731-0.457-2.21-1.218c-0.745-1.18-0.441-2.727,0.691-3.528l0.117-0.078
			c1.208-0.766,2.866-0.367,3.608,0.808C133.651,61.896,133.771,62.591,133.619,63.27z"/>
		<g>
			<path fill="#FFFEDB" d="M69.563,69.727V37.154l4.962,0.986v-1.75l-5.568-1.232c-0.039-0.009-0.079-0.011-0.118-0.008
				c-0.039,0.004-0.078,0.014-0.115,0.029s-0.072,0.038-0.105,0.065c-0.034,0.027-0.065,0.06-0.094,0.099
				c-0.029,0.036-0.055,0.078-0.078,0.124c-0.022,0.047-0.042,0.097-0.058,0.15s-0.028,0.111-0.036,0.17s-0.013,0.12-0.013,0.182
				v34.949c0,0.062,0.005,0.122,0.013,0.18c0.008,0.059,0.021,0.115,0.036,0.168c0.016,0.054,0.035,0.104,0.058,0.15
				c0.023,0.047,0.049,0.09,0.078,0.128c0.028,0.036,0.06,0.068,0.094,0.095c0.033,0.026,0.068,0.047,0.105,0.063
				s0.076,0.025,0.115,0.029c0.039,0.003,0.079,0.001,0.118-0.008l5.568-1.232v-1.75L69.563,69.727z"/>
			<path fill="#FFFEDB" d="M76.381,73.367V33.52l6.45,1.091v-2.151l-4.84-0.912l-2.53-0.477c-0.062-0.012-0.123-0.016-0.183-0.012
				s-0.118,0.015-0.175,0.033c-0.056,0.019-0.109,0.044-0.16,0.075c-0.052,0.033-0.1,0.072-0.143,0.117
				c-0.044,0.046-0.083,0.098-0.117,0.154c-0.034,0.056-0.063,0.117-0.086,0.183c-0.024,0.065-0.043,0.134-0.055,0.206
				s-0.019,0.146-0.019,0.223v4.341v1.75v30.601v1.75v4.346c0,0.076,0.007,0.151,0.019,0.223c0.012,0.072,0.03,0.142,0.055,0.207
				c0.023,0.064,0.052,0.127,0.086,0.184c0.034,0.056,0.073,0.107,0.117,0.152c0.043,0.046,0.091,0.085,0.143,0.117
				c0.051,0.032,0.104,0.058,0.16,0.076c0.057,0.018,0.115,0.029,0.175,0.032c0.06,0.004,0.121,0,0.183-0.012l2.53-0.477l4.84-0.912
				v-2.151L76.381,73.367z"/>
			<rect x="85.529" y="30.1" fill="#579CA0" width="15.971" height="46.685"/>
			<path fill="#FFFEDB" d="M82.831,28.751v3.708v2.151v37.666v2.151v3.706c0,0.744,0.604,1.349,1.349,1.349h17.32v-2.698H85.529
				V30.1H101.5v-2.698H84.18C83.436,27.401,82.831,28.006,82.831,28.751z"/>
		</g>
	</g>
	<g>
		<path fill="#20656C" d="M31.425,129.911c-0.162,3.897-1.449,6.968-3.863,9.21s-5.601,3.363-9.559,3.363
			c-4.282,0-7.65-1.52-10.104-4.56s-3.681-7.327-3.681-12.861v-1.484c0-5.332,1.242-9.559,3.727-12.68s5.807-4.681,9.968-4.681
			c3.958,0,7.12,1.121,9.483,3.364s3.727,5.394,4.09,9.451h-8.604c0-3.837-1.656-5.757-4.969-5.757
			c-1.737,0-3.015,0.812-3.833,2.435c-0.818,1.622-1.237,4.137-1.257,7.545v1.916c0,3.752,0.398,6.399,1.196,7.94
			s2.126,2.313,3.984,2.313c1.636,0,2.848-0.439,3.636-1.318s1.191-2.277,1.212-4.196H31.425z"/>
		<path fill="#20656C" d="M34.921,125.944c0-4.571,1.077-8.157,3.233-10.759c2.155-2.602,5.138-3.902,8.947-3.902
			c3.847,0,6.848,1.301,9.004,3.902c2.155,2.602,3.233,6.206,3.233,10.814v1.924c0,4.59-1.069,8.177-3.206,10.759
			c-2.137,2.584-5.129,3.875-8.976,3.875c-3.865,0-6.87-1.296-9.017-3.889c-2.146-2.592-3.22-6.192-3.22-10.801V125.944z
			 M42.837,127.93c0,5.423,1.44,8.133,4.32,8.133c2.657,0,4.088-2.262,4.293-6.786l0.027-3.338c0-2.767-0.381-4.818-1.143-6.155
			s-1.84-2.006-3.233-2.006c-1.338,0-2.383,0.669-3.136,2.006c-0.752,1.337-1.129,3.389-1.129,6.155V127.93z"/>
		<path fill="#20656C" d="M73.722,130.851l3.818-19.01h8.223L77.484,142h-7.526l-8.306-30.159h8.25L73.722,130.851z"/>
		<path fill="#20656C" d="M101.289,142.558c-4.051,0-7.21-1.208-9.477-3.624c-2.268-2.415-3.401-5.871-3.401-10.369v-2.396
			c0-4.757,1.041-8.428,3.122-11.011c2.081-2.582,5.063-3.874,8.947-3.874c3.791,0,6.644,1.211,8.558,3.632
			c1.914,2.422,2.89,6.007,2.927,10.757v3.868H96.271c0.112,2.26,0.604,3.911,1.478,4.956s2.221,1.566,4.042,1.566
			c2.639,0,4.841-0.92,6.606-2.759l3.094,4.766c-0.967,1.339-2.369,2.421-4.209,3.248
			C105.442,142.144,103.444,142.558,101.289,142.558z M96.328,124.049h7.888v-0.73c-0.037-1.819-0.334-3.197-0.892-4.135
			c-0.558-0.937-1.524-1.406-2.899-1.406s-2.374,0.497-2.996,1.491C96.806,120.263,96.439,121.855,96.328,124.049z"/>
		<path fill="#20656C" d="M131.31,119.45l-2.62-0.224c-2.156,0-3.614,0.948-4.376,2.844V142h-7.917v-30.159h7.442l0.224,3.261
			c1.244-2.546,2.964-3.818,5.156-3.818c0.892,0,1.617,0.121,2.174,0.362L131.31,119.45z"/>
		<path fill="#20656C" d="M153.81,135.305h-10.423L141.478,142h-8.574l11.665-35.297h8.029L164.383,142h-8.604L153.81,135.305z
			 M145.265,128.851h6.636l-3.363-11.392L145.265,128.851z"/>
		<path fill="#20656C" d="M182.594,119.45l-2.62-0.224c-2.156,0-3.614,0.948-4.376,2.844V142h-7.917v-30.159h7.442l0.224,3.261
			c1.244-2.546,2.964-3.818,5.156-3.818c0.892,0,1.617,0.121,2.174,0.362L182.594,119.45z"/>
		<path fill="#20656C" d="M197.2,104.426v7.415h4.041v5.909H197.2v14.991c0,1.191,0.162,2.01,0.487,2.457
			c0.325,0.446,0.952,0.67,1.882,0.67c0.762,0,1.384-0.065,1.867-0.195l-0.056,6.132c-1.338,0.502-2.787,0.753-4.349,0.753
			c-5.092,0-7.665-2.921-7.721-8.763V117.75h-3.484v-5.909h3.484v-7.415H197.2z"/>
		<path fill="#EB743B" d="M37.785,184.305H27.362L25.453,191h-8.574l11.665-35.297h8.029L48.358,191h-8.604L37.785,184.305z
			 M29.24,177.851h6.636l-3.363-11.392L29.24,177.851z"/>
		<path fill="#EB743B" d="M66.569,168.45l-2.62-0.224c-2.156,0-3.614,0.948-4.376,2.844V191h-7.917v-30.159h7.442l0.224,3.261
			c1.244-2.546,2.964-3.818,5.156-3.818c0.892,0,1.617,0.121,2.174,0.362L66.569,168.45z"/>
		<path fill="#EB743B" d="M80.979,185.063c2.286,0,3.447-1.505,3.484-4.516h7.414c-0.037,3.289-1.05,5.947-3.038,7.973
			s-4.553,3.038-7.693,3.038c-3.884,0-6.848-1.208-8.892-3.624c-2.044-2.415-3.085-5.974-3.122-10.676v-2.396
			c0-4.739,1.008-8.353,3.024-10.844c2.017-2.489,4.994-3.734,8.934-3.734c3.326,0,5.946,1.026,7.86,3.08s2.89,4.966,2.927,8.738
			h-7.414c-0.019-1.709-0.298-3.023-0.836-3.943c-0.539-0.92-1.432-1.381-2.676-1.381c-1.376,0-2.36,0.491-2.955,1.473
			s-0.91,2.884-0.947,5.707v3.085c0,2.469,0.12,4.193,0.362,5.175c0.241,0.981,0.641,1.701,1.198,2.159
			S79.957,185.063,80.979,185.063z"/>
		<path fill="#EB743B" d="M104.031,163.488c1.709-2.137,3.809-3.205,6.299-3.205c2.75,0,4.841,0.966,6.272,2.898
			c1.431,1.933,2.155,4.813,2.174,8.641V191h-7.916v-19.094c0-1.765-0.274-3.043-0.822-3.833c-0.549-0.789-1.436-1.185-2.662-1.185
			c-1.432,0-2.546,0.66-3.345,1.979V191h-7.889v-42.814h7.889V163.488z"/>
		<path fill="#EB743B" d="M124.435,153.036c0-1.227,0.391-2.23,1.171-3.011s1.82-1.171,3.122-1.171c1.3,0,2.341,0.391,3.121,1.171
			c0.781,0.78,1.171,1.784,1.171,3.011c0,1.208-0.386,2.211-1.156,3.01c-0.771,0.8-1.817,1.199-3.136,1.199
			c-1.32,0-2.365-0.399-3.137-1.199C124.82,155.247,124.435,154.244,124.435,153.036z M132.713,191h-7.916v-30.159h7.916V191z"/>
		<path fill="#EB743B" d="M148.714,179.851l3.818-19.01h8.223L152.477,191h-7.526l-8.306-30.159h8.25L148.714,179.851z"/>
		<path fill="#EB743B" d="M176.28,191.558c-4.051,0-7.21-1.208-9.477-3.624c-2.268-2.415-3.401-5.871-3.401-10.369v-2.396
			c0-4.757,1.041-8.428,3.122-11.011c2.081-2.582,5.063-3.874,8.947-3.874c3.791,0,6.644,1.211,8.558,3.632
			c1.914,2.422,2.89,6.007,2.927,10.757v3.868h-15.693c0.112,2.26,0.604,3.911,1.478,4.956s2.221,1.566,4.042,1.566
			c2.639,0,4.841-0.92,6.606-2.759l3.094,4.766c-0.967,1.339-2.369,2.421-4.209,3.248
			C180.434,191.144,178.436,191.558,176.28,191.558z M171.319,173.049h7.888v-0.73c-0.037-1.819-0.334-3.197-0.892-4.135
			c-0.558-0.937-1.524-1.406-2.899-1.406s-2.374,0.497-2.996,1.491C171.797,169.263,171.431,170.855,171.319,173.049z"/>
	</g>
</g>
</svg>
