<svg id="Layer_1" data-name="Layer 1" xmlns="http://www.w3.org/2000/svg" viewBox="0 0 263.6 100"><defs><style>.cls-1{fill:#eb743b;}.cls-2{fill:#771b85;}.cls-3{fill:#fffedb;}.cls-4{fill:#b66bc2;}</style></defs><polygon class="cls-1" points="46 2 46 98 87 74 87 26 46 2"/><polygon class="cls-2" points="43 2 2 26 2 74 43 98 43 2"/><path class="cls-3" d="M78.28,58.09a6.75,6.75,0,0,0-7.67-2.86A18.09,18.09,0,0,0,62,49.6a28.62,28.62,0,0,0,5.91-6.16,6.91,6.91,0,0,0,5.17-.83,6.77,6.77,0,1,0-9.34-2.11,6.27,6.27,0,0,0,.42.59,23.88,23.88,0,0,1-9.52,7.79h0A18.45,18.45,0,0,1,46,51v5c4,0,5.93-1.12,10-2.9a14.78,14.78,0,0,1,11,4.75,6.76,6.76,0,1,0,12.16,5.32A6.64,6.64,0,0,0,78.28,58.09ZM68.06,34.67a2.57,2.57,0,0,1,1.4-.41,2.62,2.62,0,1,1,0,5.24,2.61,2.61,0,0,1-2.22-1.21A2.63,2.63,0,0,1,68.06,34.67Zm7.06,27.6A2.61,2.61,0,0,1,74,63.91a2.56,2.56,0,0,1-1.39.41,2.62,2.62,0,0,1-1.52-4.75l.12-.07a2.65,2.65,0,0,1,3.6.8A2.59,2.59,0,0,1,75.12,62.27Z"/><path class="cls-4" d="M27.12,26.47,15,32.3,8.46,67.59,20,64.66l9.73,6.89,6.57-35.29Zm-3,16.07a3.75,3.75,0,1,1,4.38-3A3.75,3.75,0,0,1,24.08,42.54Z"/><path class="cls-3" d="M35.35,26.59a18.11,18.11,0,0,0-8.6,5.63,6.79,6.79,0,0,0-2-.29,6.71,6.71,0,0,0-5.71,3.15,6.64,6.64,0,0,0-.89,5.08,6.76,6.76,0,1,0,12.16-5.32c4-4.56,11.28-5,12.65-5V25.4A21.19,21.19,0,0,0,35.35,26.59ZM22.58,37.29a2.66,2.66,0,0,1,3.61-.8l.12.07a2.62,2.62,0,0,1-1.52,4.75,2.64,2.64,0,0,1-2.55-2.05A2.58,2.58,0,0,1,22.58,37.29Z"/><path class="cls-2" d="M112.3,71.4V83h-8.79V47.7h15.06a18.12,18.12,0,0,1,7.64,1.53,11.7,11.7,0,0,1,5.13,4.35,11.58,11.58,0,0,1,1.81,6.36,10.06,10.06,0,0,1-4,8.35q-4,3.1-10.76,3.11Zm0-7.06h6.27a7,7,0,0,0,4.32-1.16A3.77,3.77,0,0,0,124.42,60a4.91,4.91,0,0,0-1.53-3.77,6.07,6.07,0,0,0-4.23-1.46H112.3Z"/><path class="cls-2" d="M138.21,45a4,4,0,0,1,1.22-3,4.53,4.53,0,0,1,3.3-1.17A4.58,4.58,0,0,1,146,42.05a4.27,4.27,0,0,1,0,6,5.17,5.17,0,0,1-6.55,0A4,4,0,0,1,138.21,45Zm8.56,38h-8.08V52.84h8.08Z"/><path class="cls-2" d="M166,77.06a5.32,5.32,0,0,0,3.62-1.22A4.32,4.32,0,0,0,171,72.58h7.55a10.22,10.22,0,0,1-1.67,5.61,11,11,0,0,1-4.5,4,14.05,14.05,0,0,1-6.31,1.41q-6.47,0-10.2-4.11t-3.74-11.36v-.53q0-7,3.71-11.12T166,52.28a12.7,12.7,0,0,1,9.07,3.22,11.37,11.37,0,0,1,3.47,8.57H171a5.53,5.53,0,0,0-1.45-3.82,5.39,5.39,0,0,0-7.93.58c-1,1.37-1.43,3.59-1.43,6.66v.84c0,3.1.47,5.34,1.42,6.7A4.92,4.92,0,0,0,166,77.06Z"/><path class="cls-2" d="M200.65,83a9.07,9.07,0,0,1-.81-2.7,9.75,9.75,0,0,1-7.61,3.26A10.7,10.7,0,0,1,184.89,81,8.24,8.24,0,0,1,182,74.53a8.52,8.52,0,0,1,3.55-7.36q3.56-2.57,10.27-2.59h3.71V62.85a5,5,0,0,0-1.08-3.35,4.22,4.22,0,0,0-3.38-1.25,4.79,4.79,0,0,0-3.19,1,3.33,3.33,0,0,0-1.16,2.68h-8.06a8.08,8.08,0,0,1,1.62-4.85,10.71,10.71,0,0,1,4.57-3.5,16.76,16.76,0,0,1,6.64-1.27c3.71,0,6.66.94,8.85,2.8A9.83,9.83,0,0,1,207.59,63V76a14.48,14.48,0,0,0,1.2,6.5V83ZM194,77.4a7,7,0,0,0,3.29-.8,5.29,5.29,0,0,0,2.23-2.13V69.29h-3c-4,0-6.18,1.39-6.44,4.18l0,.47a3.22,3.22,0,0,0,1.06,2.48A4.12,4.12,0,0,0,194,77.4Z"/><path class="cls-2" d="M230.73,60.39a23.56,23.56,0,0,0-2.9-.22q-4.58,0-6,3.1V83h-8.05V52.84h7.61l.22,3.6q2.43-4.15,6.72-4.16a8.19,8.19,0,0,1,2.51.37Z"/><path class="cls-2" d="M232.82,67.7q0-7.05,3.16-11.24a10.28,10.28,0,0,1,8.66-4.18,9.24,9.24,0,0,1,7.27,3.29V40.19H260V83h-7.27l-.39-3.21a9.49,9.49,0,0,1-7.75,3.77,10.22,10.22,0,0,1-8.54-4.2Q232.82,75.17,232.82,67.7Zm8.05.57a12,12,0,0,0,1.48,6.52,4.79,4.79,0,0,0,4.29,2.27,5.38,5.38,0,0,0,5.27-3.16v-12a5.3,5.3,0,0,0-5.21-3.16Q240.87,58.78,240.87,68.27Z"/><path class="cls-1" d="M109.08,17.47l4.49,12.1L118,17.47h5.9v18h-4.48V31.79l.46-9.43-4.86,13.07h-3l-4.84-13,.46,9.39v3.64h-4.48v-18Z"/><path class="cls-1" d="M136.24,33.87a5.14,5.14,0,0,1-4.2,1.85,4.82,4.82,0,0,1-3.76-1.42A6,6,0,0,1,127,30.14V20.08h4.1V30q0,2.4,2.19,2.4A2.94,2.94,0,0,0,136.1,31V20.08h4.12V35.43h-3.86Z"/><path class="cls-1" d="M151.62,31.19a1.31,1.31,0,0,0-.74-1.18,8.59,8.59,0,0,0-2.39-.78Q143,28.09,143,24.58a4.22,4.22,0,0,1,1.7-3.41,6.84,6.84,0,0,1,4.43-1.37,7.36,7.36,0,0,1,4.68,1.38,4.35,4.35,0,0,1,1.75,3.57h-4.1a2,2,0,0,0-.57-1.45,2.37,2.37,0,0,0-1.77-.58,2.49,2.49,0,0,0-1.61.47,1.46,1.46,0,0,0-.56,1.19,1.25,1.25,0,0,0,.64,1.1,6.78,6.78,0,0,0,2.18.73,18.16,18.16,0,0,1,2.58.68c2.17.8,3.25,2.17,3.25,4.13a4,4,0,0,1-1.8,3.4,7.74,7.74,0,0,1-4.66,1.3,8.1,8.1,0,0,1-3.42-.69,5.77,5.77,0,0,1-2.35-1.89,4.36,4.36,0,0,1-.85-2.59h3.89a2.13,2.13,0,0,0,.8,1.68,3.23,3.23,0,0,0,2,.58,3,3,0,0,0,1.78-.45A1.38,1.38,0,0,0,151.62,31.19Z"/><path class="cls-1" d="M158.22,16.11a2,2,0,0,1,.62-1.52,2.67,2.67,0,0,1,3.35,0,2,2,0,0,1,.63,1.52,2,2,0,0,1-.63,1.53,2.62,2.62,0,0,1-3.34,0A2,2,0,0,1,158.22,16.11Zm4.36,19.32h-4.12V20.08h4.12Z"/><path class="cls-1" d="M172.34,32.41a2.66,2.66,0,0,0,1.84-.62,2.21,2.21,0,0,0,.74-1.66h3.84a5.26,5.26,0,0,1-.85,2.86,5.67,5.67,0,0,1-2.29,2,7.14,7.14,0,0,1-3.21.72,6.66,6.66,0,0,1-5.19-2.09,8.3,8.3,0,0,1-1.91-5.79v-.27a8.18,8.18,0,0,1,1.89-5.66,6.59,6.59,0,0,1,5.18-2.11A6.48,6.48,0,0,1,177,21.44a5.76,5.76,0,0,1,1.76,4.36h-3.84a2.84,2.84,0,0,0-.74-1.95,2.75,2.75,0,0,0-4,.3,6,6,0,0,0-.73,3.39V28a6.19,6.19,0,0,0,.72,3.42A2.49,2.49,0,0,0,172.34,32.41Z"/><path class="cls-1" d="M181.06,35.43v-18H188a10,10,0,0,1,5.52,1.27,4.18,4.18,0,0,1,1.93,3.7,4.2,4.2,0,0,1-.7,2.39,4,4,0,0,1-2,1.5A4,4,0,0,1,195,27.8a4,4,0,0,1,.81,2.49A4.37,4.37,0,0,1,194,34.2a9.57,9.57,0,0,1-5.33,1.23ZM185.53,25h2.75c1.79,0,2.69-.63,2.69-1.89a1.73,1.73,0,0,0-.65-1.54,3.48,3.48,0,0,0-2-.46h-2.79Zm0,3v3.85h3.15a3.38,3.38,0,0,0,2-.51,1.59,1.59,0,0,0,.71-1.35c0-1.29-.79-1.95-2.36-2Z"/><path class="cls-1" d="M207.21,23.93a10.58,10.58,0,0,0-1.48-.12c-1.55,0-2.57.53-3,1.58v10h-4.1V20.08h3.87l.12,1.83A3.78,3.78,0,0,1,206,19.8a4.4,4.4,0,0,1,1.28.18Z"/><path class="cls-1" d="M217.65,35.43a4.27,4.27,0,0,1-.41-1.37,5,5,0,0,1-3.88,1.66,5.47,5.47,0,0,1-3.74-1.31,4.21,4.21,0,0,1-1.48-3.29A4.33,4.33,0,0,1,210,27.38a9,9,0,0,1,5.23-1.32h1.89v-.88a2.58,2.58,0,0,0-.55-1.71,2.16,2.16,0,0,0-1.72-.63,2.46,2.46,0,0,0-1.63.49,1.7,1.7,0,0,0-.59,1.36h-4.1a4.15,4.15,0,0,1,.82-2.46,5.44,5.44,0,0,1,2.33-1.78A8.32,8.32,0,0,1,215,19.8a6.64,6.64,0,0,1,4.5,1.43,5,5,0,0,1,1.67,4v6.66a7.28,7.28,0,0,0,.61,3.3v.24Zm-3.39-2.85a3.52,3.52,0,0,0,1.67-.4,2.67,2.67,0,0,0,1.14-1.09V28.45h-1.54q-3.08,0-3.27,2.13l0,.24a1.67,1.67,0,0,0,.54,1.27A2.1,2.1,0,0,0,214.26,32.58Z"/><path class="cls-1" d="M224.3,16.11a2,2,0,0,1,.62-1.52,2.67,2.67,0,0,1,3.35,0,2,2,0,0,1,.63,1.52,2,2,0,0,1-.63,1.53,2.62,2.62,0,0,1-3.34,0A2,2,0,0,1,224.3,16.11Zm4.36,19.32h-4.12V20.08h4.12Z"/><path class="cls-1" d="M235.81,20.08l.13,1.78a5.34,5.34,0,0,1,4.41-2.06A4.47,4.47,0,0,1,244,21.23a6.75,6.75,0,0,1,1.22,4.29v9.91h-4.1V25.59a2.64,2.64,0,0,0-.57-1.89,2.49,2.49,0,0,0-1.88-.59,2.83,2.83,0,0,0-2.6,1.47V35.43H232V20.08Z"/><path class="cls-1" d="M253,32.13h7.5v3.3H247.78V32.94L255,23.39h-7V20.08h12.3V22.5Z"/></svg>