<svg id="Layer_1" data-name="Layer 1" xmlns="http://www.w3.org/2000/svg" viewBox="0 0 125.71 30"><defs><style>.cls-1{fill:#771b85;}.cls-2{fill:#eb743b;}</style></defs><polygon class="cls-1" points="14 1 2 8 2 22 14 29 14 1"/><polygon class="cls-2" points="15 1 27 8 27 22 15 29 15 1"/><path class="cls-1" d="M40.6,18.5V25H35.68V5.24h8.43a10.19,10.19,0,0,1,4.28.85,6.57,6.57,0,0,1,2.87,2.44,6.49,6.49,0,0,1,1,3.56,5.62,5.62,0,0,1-2.22,4.67,9.51,9.51,0,0,1-6,1.74Zm0-3.95h3.51a4,4,0,0,0,2.42-.65,2.1,2.1,0,0,0,.85-1.78A2.74,2.74,0,0,0,46.53,10a3.36,3.36,0,0,0-2.37-.82H40.6Z"/><path class="cls-1" d="M55.11,3.74a2.21,2.21,0,0,1,.68-1.67,2.94,2.94,0,0,1,3.69,0,2.22,2.22,0,0,1,.69,1.67,2.24,2.24,0,0,1-.7,1.69,2.53,2.53,0,0,1-1.83.65,2.57,2.57,0,0,1-1.84-.65A2.23,2.23,0,0,1,55.11,3.74ZM59.9,25H55.37V8.11H59.9Z"/><path class="cls-1" d="M70.64,21.68a3,3,0,0,0,2-.69,2.41,2.41,0,0,0,.81-1.83h4.23a5.82,5.82,0,0,1-.94,3.15,6.09,6.09,0,0,1-2.52,2.21,7.82,7.82,0,0,1-3.53.79A7.36,7.36,0,0,1,65,23a9.11,9.11,0,0,1-2.09-6.36v-.3A9,9,0,0,1,65,10.13,7.24,7.24,0,0,1,70.68,7.8a7.09,7.09,0,0,1,5.08,1.8,6.39,6.39,0,0,1,1.95,4.8H73.48a3.09,3.09,0,0,0-.81-2.14,3,3,0,0,0-4.44.33,6.57,6.57,0,0,0-.81,3.72v.47a6.74,6.74,0,0,0,.8,3.75A2.74,2.74,0,0,0,70.64,21.68Z"/><path class="cls-1" d="M90.07,25a4.9,4.9,0,0,1-.45-1.51,5.5,5.5,0,0,1-4.26,1.82,6,6,0,0,1-4.12-1.43,4.65,4.65,0,0,1-1.63-3.62,4.81,4.81,0,0,1,2-4.13,9.89,9.89,0,0,1,5.75-1.45h2.08v-1a2.81,2.81,0,0,0-.6-1.88,2.4,2.4,0,0,0-1.9-.7,2.68,2.68,0,0,0-1.79.55,1.85,1.85,0,0,0-.64,1.5H80a4.55,4.55,0,0,1,.9-2.72,6,6,0,0,1,2.56-2,9.38,9.38,0,0,1,3.72-.71,7.33,7.33,0,0,1,5,1.57A5.5,5.5,0,0,1,94,13.78V21.1a7.87,7.87,0,0,0,.67,3.63V25Zm-3.73-3.14a4,4,0,0,0,1.84-.44,3,3,0,0,0,1.25-1.2v-2.9H87.74c-2.25,0-3.46.78-3.6,2.34l0,.27a1.81,1.81,0,0,0,.6,1.39A2.3,2.3,0,0,0,86.34,21.86Z"/><path class="cls-1" d="M106.91,12.34a12.88,12.88,0,0,0-1.62-.12c-1.71,0-2.83.57-3.36,1.73V25H97.42V8.11h4.26l.13,2a4.17,4.17,0,0,1,3.76-2.33A4.88,4.88,0,0,1,107,8Z"/><path class="cls-1" d="M108.08,16.43a10.19,10.19,0,0,1,1.77-6.29A5.75,5.75,0,0,1,114.7,7.8a5.19,5.19,0,0,1,4.07,1.84V1h4.53V25h-4.08L119,23.21a5.3,5.3,0,0,1-4.33,2.1A5.73,5.73,0,0,1,109.88,23,10.5,10.5,0,0,1,108.08,16.43Zm4.51.32a6.75,6.75,0,0,0,.83,3.66,2.7,2.7,0,0,0,2.4,1.27,3,3,0,0,0,3-1.78V13.21a3,3,0,0,0-2.92-1.77Q112.6,11.44,112.59,16.75Z"/></svg>