<svg id="Layer_1" data-name="Layer 1" xmlns="http://www.w3.org/2000/svg" viewBox="0 0 145 175"><defs><style>.cls-1{fill:#eb743b;}.cls-2{fill:#771b85;}.cls-3{fill:#fffedb;}.cls-4{fill:#b66bc2;}</style></defs><polygon class="cls-1" points="74.5 3 74.5 99 115.5 75 115.5 27 74.5 3"/><polygon class="cls-2" points="71.5 3 30.5 27 30.5 75 71.5 99 71.5 3"/><path class="cls-3" d="M106.78,59.09a6.75,6.75,0,0,0-7.67-2.86A18.09,18.09,0,0,0,90.5,50.6a28.62,28.62,0,0,0,5.91-6.16,6.91,6.91,0,0,0,5.17-.83,6.77,6.77,0,1,0-9.34-2.11,6.27,6.27,0,0,0,.42.59,23.88,23.88,0,0,1-9.52,7.79h0A18.45,18.45,0,0,1,74.5,52v5c4,0,5.93-1.12,10-2.9a14.78,14.78,0,0,1,11,4.75,6.76,6.76,0,1,0,12.16,5.32A6.64,6.64,0,0,0,106.78,59.09ZM96.56,35.67a2.57,2.57,0,0,1,1.4-.41,2.62,2.62,0,1,1,0,5.24,2.61,2.61,0,0,1-2.22-1.21A2.63,2.63,0,0,1,96.56,35.67Zm7.06,27.6a2.61,2.61,0,0,1-1.16,1.64,2.56,2.56,0,0,1-1.39.41,2.62,2.62,0,0,1-1.52-4.75l.12-.07a2.65,2.65,0,0,1,3.6.8A2.59,2.59,0,0,1,103.62,63.27Z"/><path class="cls-4" d="M55.62,27.47,43.53,33.3,37,68.59l11.56-2.93,9.73,6.89,6.57-35.29Zm-3,16.07a3.75,3.75,0,1,1,4.38-3A3.75,3.75,0,0,1,52.58,43.54Z"/><path class="cls-3" d="M63.85,27.59a18.11,18.11,0,0,0-8.6,5.63,6.79,6.79,0,0,0-2-.29,6.71,6.71,0,0,0-5.71,3.15,6.64,6.64,0,0,0-.89,5.08,6.76,6.76,0,1,0,12.16-5.32c4-4.56,11.28-5,12.65-5V26.4A21.19,21.19,0,0,0,63.85,27.59ZM51.08,38.29a2.66,2.66,0,0,1,3.61-.8l.12.07a2.62,2.62,0,0,1-1.52,4.75,2.64,2.64,0,0,1-2.55-2.05A2.58,2.58,0,0,1,51.08,38.29Z"/><path class="cls-2" d="M11.4,161.18v11.57H2.83v-35.3H16a12.56,12.56,0,0,1,9.15,3.41,11.86,11.86,0,0,1,3.48,8.86A10.7,10.7,0,0,1,25.16,158,13.15,13.15,0,0,1,16,161.18Zm0-7.12H16A3.78,3.78,0,0,0,19,152.84a4.65,4.65,0,0,0,1-3.06A5.88,5.88,0,0,0,18.91,146a3.58,3.58,0,0,0-3-1.41H11.4Z"/><path class="cls-2" d="M33.63,134.79a4.07,4.07,0,0,1,1.17-3,4.73,4.73,0,0,1,6.25,0,4.07,4.07,0,0,1,1.17,3,4.3,4.3,0,1,1-8.59,0Zm8.28,38H34V142.59h7.92Z"/><path class="cls-2" d="M58.91,166.76q3.44,0,3.49-4.46h7.41a11,11,0,0,1-3,8,10.31,10.31,0,0,1-7.69,3q-5.82,0-8.89-3.63T47.07,159v-2.4q0-7.11,3-10.84T59,142a10.21,10.21,0,0,1,7.85,3.08q2.88,3.09,2.93,8.74H62.4a7.9,7.9,0,0,0-.84-3.9,2.86,2.86,0,0,0-2.67-1.37,3.19,3.19,0,0,0-3,1.47q-.88,1.45-1,5.67v3.07a23.91,23.91,0,0,0,.37,5.14,3.88,3.88,0,0,0,1.19,2.14A3.64,3.64,0,0,0,58.91,166.76Z"/><path class="cls-2" d="M88.6,172.75a11,11,0,0,1-.67-2.34,6.75,6.75,0,0,1-5.74,2.9,8.51,8.51,0,0,1-6.29-2.51,8.83,8.83,0,0,1-2.49-6.5,9.16,9.16,0,0,1,3-7.33c2-1.72,4.92-2.61,8.71-2.64h2.4V151.9a4.5,4.5,0,0,0-.7-2.87,2.48,2.48,0,0,0-2-.84c-2,0-3,1.16-3,3.46H74a8.73,8.73,0,0,1,3.14-6.9A11.68,11.68,0,0,1,85,142q5,0,7.68,2.58T95.43,152v14.19a14.88,14.88,0,0,0,1.11,6.11v.47Zm-4.66-5.63a4.41,4.41,0,0,0,2.23-.53,3.72,3.72,0,0,0,1.37-1.25v-6.28h-1.9a4,4,0,0,0-3.16,1.29,4.9,4.9,0,0,0-1.16,3.42C81.32,166,82.2,167.12,83.94,167.12Z"/><path class="cls-2" d="M116,150.2l-2.62-.22a4.3,4.3,0,0,0-4.38,2.84v19.93h-7.92V142.59h7.45l.22,3.26c1.24-2.54,3-3.82,5.16-3.82a5.36,5.36,0,0,1,2.17.37Z"/><path class="cls-2" d="M118.48,156.75q0-7.41,2.51-11.07a8.31,8.31,0,0,1,7.3-3.65,7.05,7.05,0,0,1,5.8,3v-15.1H142v42.81h-7.16l-.36-3.07a7.27,7.27,0,0,1-6.25,3.63,8.23,8.23,0,0,1-7.23-3.63q-2.49-3.62-2.55-10.64Zm7.92,2q0,4.46.94,6.23a3.35,3.35,0,0,0,3.21,1.77,3.85,3.85,0,0,0,3.54-2.09V150.87a3.75,3.75,0,0,0-3.51-2.23,3.39,3.39,0,0,0-3.18,1.76q-1,1.75-1,6.24Z"/><path class="cls-1" d="M8.61,107.22l3.18,12.06L15,107.22h5.75v18H16.33v-3.57l.42-8.36-3.53,11.93H10.34L6.82,113.31l.42,8.3v3.57H2.87v-18Z"/><path class="cls-1" d="M31.16,123.78a4,4,0,0,1-3.35,1.69A3.77,3.77,0,0,1,24.6,124a7,7,0,0,1-1.09-4.23v-10h4v10c0,1.49.51,2.24,1.49,2.24a2.08,2.08,0,0,0,2-1.19v-11.1h4v15.35H31.27Z"/><path class="cls-1" d="M44.71,121.07a1.27,1.27,0,0,0-.49-.94A9.55,9.55,0,0,0,42,119a9.1,9.1,0,0,1-3.41-2.09,4,4,0,0,1-.93-2.68,4.3,4.3,0,0,1,1.45-3.33A5.56,5.56,0,0,1,43,109.55a6,6,0,0,1,4,1.3,4.41,4.41,0,0,1,1.52,3.51h-4c0-1.25-.52-1.87-1.56-1.87a1.47,1.47,0,0,0-1.05.39,1.5,1.5,0,0,0-.41,1.11,1.16,1.16,0,0,0,.45.9A10.13,10.13,0,0,0,44.13,116a8.78,8.78,0,0,1,3.46,2,4.09,4.09,0,0,1,1,2.88,4,4,0,0,1-1.55,3.31A6.27,6.27,0,0,1,43,125.47a6.43,6.43,0,0,1-3-.66A5,5,0,0,1,38,123a4.78,4.78,0,0,1-.73-2.54h3.82a2.44,2.44,0,0,0,.49,1.58,1.92,1.92,0,0,0,1.51.52C44.17,122.53,44.71,122,44.71,121.07Z"/><path class="cls-1" d="M51.11,105.86a2.06,2.06,0,0,1,.59-1.53,2.41,2.41,0,0,1,3.18,0,2.07,2.07,0,0,1,.6,1.53,2.19,2.19,0,1,1-4.37,0Zm4.21,19.32h-4V109.83h4Z"/><path class="cls-1" d="M64,122.13c1.17,0,1.76-.75,1.78-2.27h3.77A5.64,5.64,0,0,1,68,123.92a5.27,5.27,0,0,1-3.92,1.55,5.6,5.6,0,0,1-4.53-1.85,8.33,8.33,0,0,1-1.59-5.43V117a8.64,8.64,0,0,1,1.54-5.52,5.51,5.51,0,0,1,4.55-1.9,5.18,5.18,0,0,1,4,1.57,6.35,6.35,0,0,1,1.49,4.45H65.75a4,4,0,0,0-.43-2,1.46,1.46,0,0,0-1.36-.7,1.61,1.61,0,0,0-1.5.75,6.23,6.23,0,0,0-.49,2.89v1.56a12.49,12.49,0,0,0,.19,2.61,2,2,0,0,0,.61,1.1A1.84,1.84,0,0,0,64,122.13Z"/><path class="cls-1" d="M71.75,125.18v-18h6.11a7.76,7.76,0,0,1,4.8,1.27,4.36,4.36,0,0,1,1.66,3.69,4.59,4.59,0,0,1-.6,2.39,3.57,3.57,0,0,1-1.78,1.5,3.43,3.43,0,0,1,2,1.41,4.55,4.55,0,0,1,.7,2.55A4.69,4.69,0,0,1,83,124a7.49,7.49,0,0,1-4.69,1.23Zm4.36-10.5h2.1A1.61,1.61,0,0,0,80,112.83a2.17,2.17,0,0,0-.43-1.52,1.76,1.76,0,0,0-1.32-.45H76.11Zm0,3v3.87h2.24a1.69,1.69,0,0,0,1.88-1.86c0-1.3-.52-2-1.57-2Z"/><path class="cls-1" d="M94.84,113.71l-1.34-.12A2.19,2.19,0,0,0,91.28,115v10.14h-4V109.83H91l.12,1.66a2.91,2.91,0,0,1,2.62-1.94,2.86,2.86,0,0,1,1.11.18Z"/><path class="cls-1" d="M103.76,125.18a5.44,5.44,0,0,1-.34-1.19,3.42,3.42,0,0,1-2.92,1.48,4.32,4.32,0,0,1-3.2-1.28,4.46,4.46,0,0,1-1.27-3.3,4.65,4.65,0,0,1,1.54-3.74,6.71,6.71,0,0,1,4.43-1.34h1.22v-1.24a2.35,2.35,0,0,0-.35-1.46,1.29,1.29,0,0,0-1-.42c-1,0-1.5.58-1.5,1.75h-4a4.45,4.45,0,0,1,1.6-3.51,5.94,5.94,0,0,1,4-1.38,5.47,5.47,0,0,1,3.91,1.31,4.91,4.91,0,0,1,1.39,3.75v7.23a7.53,7.53,0,0,0,.56,3.1v.24Zm-2.37-2.86a2.26,2.26,0,0,0,1.14-.27,1.87,1.87,0,0,0,.69-.64v-3.19h-1a2.07,2.07,0,0,0-1.61.65,2.49,2.49,0,0,0-.59,1.75C100.06,121.75,100.5,122.32,101.39,122.32Z"/><path class="cls-1" d="M110.14,105.86a2.07,2.07,0,0,1,.6-1.53,2.41,2.41,0,0,1,3.18,0,2.06,2.06,0,0,1,.59,1.53,2.1,2.1,0,0,1-.58,1.53,2.19,2.19,0,0,1-3.79-1.53Zm4.22,19.32h-4V109.83h4Z"/><path class="cls-1" d="M121.14,109.83l.11,1.52a4.27,4.27,0,0,1,3.57-1.8q3.95,0,4.07,5.55v10.08h-4v-9.79a3.51,3.51,0,0,0-.39-1.89,1.53,1.53,0,0,0-1.37-.59,1.87,1.87,0,0,0-1.7,1.12v11.15h-4V109.83Z"/><path class="cls-1" d="M136.21,121.85h6.07v3.33H131.44v-2.51l5.93-9.49h-5.79v-3.35H142.2v2.43Z"/></svg>