<svg id="Layer_1" data-name="Layer 1" xmlns="http://www.w3.org/2000/svg" viewBox="0 0 245 100"><defs><style>.cls-1{fill:#eb743b;}.cls-2{fill:#771b85;}.cls-3{fill:#fffedb;}.cls-4{fill:#b66bc2;}</style></defs><polygon class="cls-1" points="46 2 46 98 87 74 87 26 46 2"/><polygon class="cls-2" points="43 2 2 26 2 74 43 98 43 2"/><path class="cls-3" d="M78.28,58.09a6.75,6.75,0,0,0-7.67-2.86A18.09,18.09,0,0,0,62,49.6a28.62,28.62,0,0,0,5.91-6.16,6.91,6.91,0,0,0,5.17-.83,6.77,6.77,0,1,0-9.34-2.11,6.27,6.27,0,0,0,.42.59,23.88,23.88,0,0,1-9.52,7.79h0A18.45,18.45,0,0,1,46,51v5c4,0,5.93-1.12,10-2.9a14.78,14.78,0,0,1,11,4.75,6.76,6.76,0,1,0,12.16,5.32A6.64,6.64,0,0,0,78.28,58.09ZM68.06,34.67a2.57,2.57,0,0,1,1.4-.41,2.62,2.62,0,1,1,0,5.24,2.61,2.61,0,0,1-2.22-1.21A2.63,2.63,0,0,1,68.06,34.67Zm7.06,27.6A2.61,2.61,0,0,1,74,63.91a2.56,2.56,0,0,1-1.39.41,2.62,2.62,0,0,1-1.52-4.75l.12-.07a2.65,2.65,0,0,1,3.6.8A2.59,2.59,0,0,1,75.12,62.27Z"/><path class="cls-4" d="M27.12,26.47,15,32.3,8.46,67.59,20,64.66l9.73,6.89,6.57-35.29Zm-3,16.07a3.75,3.75,0,1,1,4.38-3A3.75,3.75,0,0,1,24.08,42.54Z"/><path class="cls-3" d="M35.35,26.59a18.11,18.11,0,0,0-8.6,5.63,6.79,6.79,0,0,0-2-.29,6.71,6.71,0,0,0-5.71,3.15,6.64,6.64,0,0,0-.89,5.08,6.76,6.76,0,1,0,12.16-5.32c4-4.56,11.28-5,12.65-5V25.4A21.19,21.19,0,0,0,35.35,26.59ZM22.58,37.29a2.66,2.66,0,0,1,3.61-.8l.12.07a2.62,2.62,0,0,1-1.52,4.75,2.64,2.64,0,0,1-2.55-2.05A2.58,2.58,0,0,1,22.58,37.29Z"/><path class="cls-2" d="M111.88,71.37V83H103.3V47.7h13.12a12.56,12.56,0,0,1,9.15,3.4,11.83,11.83,0,0,1,3.48,8.84,10.64,10.64,0,0,1-3.42,8.28,13.12,13.12,0,0,1-9.12,3.15Zm0-7.06h4.54a3.78,3.78,0,0,0,3.09-1.22,4.6,4.6,0,0,0,1-3.06,5.88,5.88,0,0,0-1.12-3.77,3.61,3.61,0,0,0-3-1.41h-4.54Z"/><path class="cls-2" d="M134.11,45a4.07,4.07,0,0,1,1.17-3,4.71,4.71,0,0,1,6.24,0,4.07,4.07,0,0,1,1.17,3,4.29,4.29,0,1,1-8.58,0Zm8.28,38h-7.92V52.84h7.92Z"/><path class="cls-2" d="M159.39,77.06c2.28,0,3.45-1.5,3.48-4.51h7.42a11.09,11.09,0,0,1-3,8,10.33,10.33,0,0,1-7.69,3q-5.84,0-8.9-3.63t-3.12-10.67v-2.4q0-7.11,3-10.84t8.93-3.74a10.22,10.22,0,0,1,7.86,3.08q2.87,3.09,2.93,8.74h-7.42a8.05,8.05,0,0,0-.83-3.94,2.86,2.86,0,0,0-2.68-1.38,3.18,3.18,0,0,0-3,1.47c-.6,1-.91,2.88-.95,5.71V69a25.11,25.11,0,0,0,.36,5.18,3.89,3.89,0,0,0,1.2,2.16A3.7,3.7,0,0,0,159.39,77.06Z"/><path class="cls-2" d="M189.08,83a10.45,10.45,0,0,1-.67-2.34,6.77,6.77,0,0,1-5.75,2.9,8.5,8.5,0,0,1-6.28-2.51,8.8,8.8,0,0,1-2.5-6.5,9.14,9.14,0,0,1,3-7.33c2-1.72,4.92-2.61,8.71-2.64H188V62.15a4.57,4.57,0,0,0-.7-2.87,2.5,2.5,0,0,0-2-.84c-2,0-2.95,1.16-2.95,3.46h-7.89a8.73,8.73,0,0,1,3.14-6.9,11.68,11.68,0,0,1,7.93-2.72c3.3,0,5.87.86,7.68,2.58s2.71,4.18,2.71,7.37V76.42A14.86,14.86,0,0,0,197,82.53V83Zm-4.66-5.63a4.43,4.43,0,0,0,2.23-.53A3.8,3.8,0,0,0,188,75.59V69.31h-1.9A4,4,0,0,0,183,70.6,4.9,4.9,0,0,0,181.8,74C181.8,76.25,182.67,77.37,184.42,77.37Z"/><path class="cls-2" d="M216.5,60.45l-2.62-.22a4.29,4.29,0,0,0-4.37,2.84V83h-7.92V52.84H209l.23,3.26c1.24-2.54,3-3.82,5.15-3.82a5.41,5.41,0,0,1,2.18.37Z"/><path class="cls-2" d="M219,67q0-7.41,2.5-11.07a8.33,8.33,0,0,1,7.31-3.65,7,7,0,0,1,5.79,3V40.19h7.95V83h-7.16L235,79.93a7.24,7.24,0,0,1-6.24,3.63,8.22,8.22,0,0,1-7.23-3.63Q219,76.32,219,69.29Zm7.91,2q0,4.45.95,6.23A3.34,3.34,0,0,0,231,77a3.83,3.83,0,0,0,3.54-2.09V61.12a3.75,3.75,0,0,0-3.51-2.23,3.36,3.36,0,0,0-3.17,1.76q-1,1.76-1,6.24Z"/><path class="cls-1" d="M108.83,17.47,112,29.53l3.18-12.06h5.75v18h-4.38V31.86L117,23.5l-3.53,11.93h-2.89l-3.51-11.87.41,8.3v3.57H103.1v-18Z"/><path class="cls-1" d="M131.38,34A3.93,3.93,0,0,1,128,35.72a3.77,3.77,0,0,1-3.21-1.46A7,7,0,0,1,123.74,30v-10h4V30.13c0,1.49.52,2.24,1.49,2.24a2.08,2.08,0,0,0,2-1.19V20.08h4V35.43H131.5Z"/><path class="cls-1" d="M144.93,31.32a1.24,1.24,0,0,0-.49-.94,9.4,9.4,0,0,0-2.17-1.17,9.16,9.16,0,0,1-3.42-2.09,4,4,0,0,1-.93-2.68,4.31,4.31,0,0,1,1.46-3.33,5.55,5.55,0,0,1,3.85-1.31,6,6,0,0,1,4.05,1.3,4.41,4.41,0,0,1,1.51,3.51h-4c0-1.25-.52-1.87-1.56-1.87a1.38,1.38,0,0,0-1.46,1.5,1.16,1.16,0,0,0,.45.9,10,10,0,0,0,2.14,1.11,8.84,8.84,0,0,1,3.47,2,4.09,4.09,0,0,1,1,2.88,4,4,0,0,1-1.55,3.31,6.27,6.27,0,0,1-4.06,1.25,6.47,6.47,0,0,1-3-.66,5,5,0,0,1-2-1.84,4.69,4.69,0,0,1-.73-2.54h3.82a2.38,2.38,0,0,0,.49,1.58,1.9,1.9,0,0,0,1.51.52C144.39,32.78,144.93,32.29,144.93,31.32Z"/><path class="cls-1" d="M151.33,16.11a2.07,2.07,0,0,1,.6-1.53,2.41,2.41,0,0,1,3.18,0,2.1,2.1,0,0,1,.59,1.53,2.06,2.06,0,0,1-.59,1.53,2.09,2.09,0,0,1-1.59.61,2.06,2.06,0,0,1-2.19-2.14Zm4.22,19.32h-4V20.08h4Z"/><path class="cls-1" d="M164.2,32.41c1.16,0,1.76-.76,1.77-2.3h3.78a5.65,5.65,0,0,1-1.55,4.06,5.25,5.25,0,0,1-3.91,1.55,5.6,5.6,0,0,1-4.53-1.85,8.33,8.33,0,0,1-1.59-5.43V27.22a8.58,8.58,0,0,1,1.54-5.52,5.5,5.5,0,0,1,4.55-1.9,5.2,5.2,0,0,1,4,1.57,6.4,6.4,0,0,1,1.49,4.45H166a4.18,4.18,0,0,0-.42-2,1.45,1.45,0,0,0-1.36-.7,1.65,1.65,0,0,0-1.51.74,6.5,6.5,0,0,0-.48,2.91v1.57a12.92,12.92,0,0,0,.18,2.63,2,2,0,0,0,.62,1.1A1.79,1.79,0,0,0,164.2,32.41Z"/><path class="cls-1" d="M172,35.43v-18h6.1a7.79,7.79,0,0,1,4.81,1.27,4.38,4.38,0,0,1,1.65,3.69,4.59,4.59,0,0,1-.6,2.39,3.54,3.54,0,0,1-1.77,1.5,3.46,3.46,0,0,1,2,1.41,4.54,4.54,0,0,1,.69,2.55,4.69,4.69,0,0,1-1.56,3.92,7.45,7.45,0,0,1-4.68,1.23Zm4.36-10.5h2.1a1.61,1.61,0,0,0,1.74-1.85,2.17,2.17,0,0,0-.43-1.52,1.77,1.77,0,0,0-1.33-.45h-2.08Zm0,3v3.87h2.24A1.7,1.7,0,0,0,180.46,30c0-1.3-.53-2-1.57-2Z"/><path class="cls-1" d="M195.06,24l-1.33-.12a2.2,2.2,0,0,0-2.23,1.45V35.43h-4V20.08h3.79l.11,1.66A2.89,2.89,0,0,1,195.11,20Z"/><path class="cls-1" d="M204,35.43a4.93,4.93,0,0,1-.34-1.19,3.43,3.43,0,0,1-2.93,1.48,4.35,4.35,0,0,1-3.2-1.28,4.5,4.5,0,0,1-1.27-3.3,4.68,4.68,0,0,1,1.54-3.74,6.76,6.76,0,0,1,4.44-1.34h1.22V24.82a2.28,2.28,0,0,0-.36-1.46,1.26,1.26,0,0,0-1-.42c-1,0-1.51.58-1.51,1.75h-4a4.47,4.47,0,0,1,1.59-3.51,6,6,0,0,1,4-1.38,5.48,5.48,0,0,1,3.91,1.31,4.94,4.94,0,0,1,1.38,3.75v7.23a7.51,7.51,0,0,0,.57,3.1v.24Zm-2.37-2.86a2.22,2.22,0,0,0,1.13-.27,1.83,1.83,0,0,0,.7-.64V28.47h-1a2.09,2.09,0,0,0-1.61.65,2.54,2.54,0,0,0-.59,1.75C200.28,32,200.73,32.57,201.62,32.57Z"/><path class="cls-1" d="M210.37,16.11a2.07,2.07,0,0,1,.6-1.53,2.12,2.12,0,0,1,1.59-.6,2.15,2.15,0,0,1,1.59.6,2.21,2.21,0,1,1-3.78,1.53Zm4.21,19.32h-4V20.08h4Z"/><path class="cls-1" d="M221.37,20.08l.11,1.52A4.27,4.27,0,0,1,225,19.8q4,0,4.07,5.55V35.43h-4V25.64a3.51,3.51,0,0,0-.39-1.89,1.51,1.51,0,0,0-1.36-.59,1.9,1.9,0,0,0-1.71,1.12V35.43h-4V20.08Z"/><path class="cls-1" d="M236.43,32.13h6.08v3.3H231.67V32.94l5.93-9.51h-5.79V20.08h10.61v2.43Z"/></svg>