<svg id="Layer_1" data-name="Layer 1" xmlns="http://www.w3.org/2000/svg" viewBox="0 0 50 30"><defs><style>.cls-1{fill:#771b85;}.cls-2{fill:#eb743b;}</style></defs><polygon class="cls-1" points="14 1 2 8 2 22 14 29 14 1"/><polygon class="cls-2" points="15 1 27 8 27 22 15 29 15 1"/><path class="cls-1" d="M36.2,18.5V25H31.28V5.24h8.43A10.19,10.19,0,0,1,44,6.09a6.57,6.57,0,0,1,2.87,2.44,6.49,6.49,0,0,1,1,3.56,5.62,5.62,0,0,1-2.22,4.67,9.51,9.51,0,0,1-6,1.74Zm0-3.95h3.51a4,4,0,0,0,2.42-.65A2.1,2.1,0,0,0,43,12.12,2.74,2.74,0,0,0,42.13,10a3.36,3.36,0,0,0-2.37-.82H36.2Z"/></svg>