<svg xmlns="http://www.w3.org/2000/svg" viewBox="0 0 220 265"><defs><style>.cls-1{isolation:isolate;}.cls-2{fill:#eb743b;}.cls-3{fill:#771b85;}.cls-4{fill:#591463;}.cls-5{fill:#b66bc2;}.cls-6{fill:#fffedb;}.cls-7{mix-blend-mode:multiply;opacity:0.07;}.cls-8{fill:#d3562c;}</style></defs><g class="cls-1"><g id="Layer_1" data-name="Layer 1"><polygon class="cls-2" points="111.97 2.46 111.97 146.46 172.97 111.46 172.97 37.46 111.97 2.46"/><polygon class="cls-3" points="106.97 2.46 45.97 37.46 45.97 111.46 106.97 146.46 106.97 2.46"/><path class="cls-4" d="M83.43,44.93l-18,8.67L55.7,106l17.17-4.35L87.33,111.9l9.75-52.42ZM79.87,63.44A5.57,5.57,0,1,1,86.36,59,5.57,5.57,0,0,1,79.87,63.44Z"/><path class="cls-4" d="M107,41.86l-.61-.14c-5.79-1.35-16.45-3.83-24.18,8.8a7.48,7.48,0,0,0-1.33-.12,7.57,7.57,0,0,0-1.38,15,8.17,8.17,0,0,0,1.39.13,7.56,7.56,0,0,0,5-13.28c6.2-9.78,14.25-7.9,19.64-6.65L107,46ZM84.4,58.62a3.61,3.61,0,0,1-4.17,2.86,3.57,3.57,0,0,1,.65-7.08,3.68,3.68,0,0,1,.66.06A3.59,3.59,0,0,1,84.4,58.62Z"/><path class="cls-5" d="M83.43,42.53l-18,8.66L55.7,103.61l17.17-4.36,14.46,10.24,9.75-52.41ZM79.87,61a5.57,5.57,0,1,1,6.49-4.46A5.58,5.58,0,0,1,79.87,61Z"/><path class="cls-6" d="M107,39.46l-.61-.15c-5.79-1.35-16.45-3.82-24.18,8.8A8.54,8.54,0,0,0,80.88,48,7.57,7.57,0,0,0,79.5,63a7.27,7.27,0,0,0,1.39.13,7.56,7.56,0,0,0,5-13.28c6.2-9.77,14.25-7.9,19.64-6.64l1.52.34ZM84.4,56.22a3.61,3.61,0,0,1-4.17,2.85A3.57,3.57,0,0,1,80.88,52a3.68,3.68,0,0,1,.66.06A3.6,3.6,0,0,1,84.4,56.22Z"/><g class="cls-7"><path d="M129.27,94.19a2.11,2.11,0,0,1,1.82-1,2.07,2.07,0,0,1,1.08.3,2.11,2.11,0,0,1-1.09,3.93,2.2,2.2,0,0,1-1.08-.3,2.13,2.13,0,0,1-.73-2.9Zm12.6,22.36a2.09,2.09,0,0,1-1.37.51,2.11,2.11,0,0,1-1.38-3.71,2.06,2.06,0,0,1,1.37-.52,2.11,2.11,0,0,1,1.61.74,2.12,2.12,0,0,1-.23,3Z"/><path d="M121,48.07l.21,0Z"/><path d="M132.35,57.71a2.11,2.11,0,0,1,.67-.66,2.17,2.17,0,0,1,1.12-.31,2.09,2.09,0,0,1,1.12.32,2.11,2.11,0,0,1-1.13,3.9,2.1,2.1,0,0,1-1.78-3.25Zm6.38-20.18a2.15,2.15,0,0,1-2.92.65l-.09-.06a2.11,2.11,0,0,1-.56-2.85,2.08,2.08,0,0,1,1.78-1,2.15,2.15,0,0,1,1.13.32,2.11,2.11,0,0,1,.93,1.33A2.07,2.07,0,0,1,138.73,37.53Z"/><path d="M155.49,49.12a2.12,2.12,0,0,1,3.85.68,2.09,2.09,0,0,1-.28,1.58,2.14,2.14,0,0,1-2.91.66l-.1-.07A2.1,2.1,0,0,1,155.49,49.12Zm0,23.47a2.12,2.12,0,0,1,2.91-.66,2.16,2.16,0,0,1,.94,1.33,2.11,2.11,0,0,1-3.19,2.24l-.1-.06A2.11,2.11,0,0,1,155.49,72.59Zm0,26.3a2.12,2.12,0,0,1,1.79-1,2,2,0,0,1,1.12.33,2.1,2.1,0,0,1,.66,2.91,2.14,2.14,0,0,1-2.91.65l-.1-.06A2.11,2.11,0,0,1,155.49,98.89Z"/><path d="M145.14,108.56a6.12,6.12,0,0,0-10.72,4.74,19.86,19.86,0,0,1-5.32,1.33,4.11,4.11,0,0,1-2.23-1,10.56,10.56,0,0,0-4.15-1.85A37.66,37.66,0,0,0,131.31,99a6.12,6.12,0,0,0,2.91-11.37,6.07,6.07,0,0,0-3.13-.86,6.15,6.15,0,0,0-5.26,3,6.13,6.13,0,0,0,1.62,8.07c-4,9.21-9.22,13.08-12.56,14.68a2,2,0,0,0-.36.17,11.77,11.77,0,0,1-2.56.81v4a12.54,12.54,0,0,0,4.24-1.2c5.35-1.35,6.84-.35,8.41.71a7.79,7.79,0,0,0,4.26,1.66h.31a23.61,23.61,0,0,0,7-1.72,6.18,6.18,0,0,0,4.29,1.75h0a6.12,6.12,0,0,0,4.64-10.11ZM129.27,91.79a2.1,2.1,0,0,1,1.82-1,2.17,2.17,0,0,1,1.08.3,2.12,2.12,0,0,1,.73,2.9,2.11,2.11,0,0,1-3.63-2.16Zm12.6,22.36a2.09,2.09,0,0,1-1.37.51,2.11,2.11,0,0,1-1.38-3.72,2.09,2.09,0,0,1,1.37-.51,2.11,2.11,0,0,1,1.61.74,2.06,2.06,0,0,1,.5,1.54A2.08,2.08,0,0,1,141.87,114.15Z"/><path d="M121,45.66l.21.05Z"/><path d="M142.92,32.66a6.12,6.12,0,1,0-11,4.82A13.31,13.31,0,0,1,122,41.77a29.12,29.12,0,0,0-10-2.31v4a24.91,24.91,0,0,1,8.74,2.14h0a21.76,21.76,0,0,1,8.61,7,5.93,5.93,0,0,0-.38.54,6.12,6.12,0,1,0,8.44-1.91,6.2,6.2,0,0,0-4.66-.75,26,26,0,0,0-5.35-5.57,16.39,16.39,0,0,0,7.78-5.09,6.21,6.21,0,0,0,1.77.26,6.13,6.13,0,0,0,6-7.45ZM132.35,55.31a2,2,0,0,1,.67-.66,2.12,2.12,0,0,1,2.24,0,2.12,2.12,0,0,1-1.13,3.91,2.07,2.07,0,0,1-1.13-.33A2.12,2.12,0,0,1,132.35,55.31Zm6.38-20.19a2.15,2.15,0,0,1-2.92.65l-.09-.06a2.11,2.11,0,0,1,1.22-3.83,2.12,2.12,0,0,1,1.79,3.24Z"/><path d="M151.61,73.64a6,6,0,0,0,2.11,2.65l.28.2a6.15,6.15,0,0,0,8.45-1.9,6.13,6.13,0,0,0-5.17-9.4l-.38,0a25.63,25.63,0,0,1,0-11.26l.33,0a6.12,6.12,0,0,0,3.27-11.3,6.18,6.18,0,0,0-3.26-.94,6.11,6.11,0,0,0-4.15,10.61l.07.06a28.64,28.64,0,0,0,0,14.42,5.25,5.25,0,0,0-.42.4,6.43,6.43,0,0,0-.64.82,6.35,6.35,0,0,0-.71,1.58,15.16,15.16,0,0,0-6.82,2.73c-2,1.33-4,2.57-9.64,2.67a32.77,32.77,0,0,0-5.29-.12c-1.43,0-2.91.11-4.85,0-1.33-.07-2.1-.88-3.45-2.42-1.81-2.06-4.22-4.65-9.37-5v4c3.29.3,4.79,1.88,6.35,3.66s3.18,3.62,6.26,3.79c2.12.11,3.76,0,5.21,0a24.35,24.35,0,0,1,7.85.68c2.61.64,12.1,9.67,14.78,14.32-.11.14-.22.29-.32.44a6.11,6.11,0,0,0,1.62,8.25l.28.19a6.12,6.12,0,0,0,8.45-1.9,6.12,6.12,0,0,0-5.17-9.39,6.15,6.15,0,0,0-1.55.19c-2.56-4.18-8.65-10.45-13.19-13.79a17.83,17.83,0,0,0,4.21-2.19A11.39,11.39,0,0,1,151.61,73.64Zm3.88-26.92a2.12,2.12,0,0,1,2.91-.66,2.16,2.16,0,0,1,.94,1.33,2.11,2.11,0,0,1-3.19,2.24l-.1-.06A2.11,2.11,0,0,1,155.49,46.72Zm0,23.46a2.12,2.12,0,0,1,1.79-1,2,2,0,0,1,1.12.33,2.1,2.1,0,0,1,.66,2.91,2.14,2.14,0,0,1-2.91.65l-.1-.06A2.1,2.1,0,0,1,155.49,70.18Zm0,26.31a2.12,2.12,0,0,1,2.91-.66,2.11,2.11,0,1,1-2.25,3.57l-.1-.06A2.11,2.11,0,0,1,155.49,96.49Z"/></g><path class="cls-8" d="M145.14,111.56a6.12,6.12,0,0,0-10.72,4.74,19.86,19.86,0,0,1-5.32,1.33,4.11,4.11,0,0,1-2.23-1,10.56,10.56,0,0,0-4.15-1.85A37.66,37.66,0,0,0,131.31,102a6.12,6.12,0,0,0,2.91-11.37,6.07,6.07,0,0,0-3.13-.86,6.15,6.15,0,0,0-5.26,3,6.13,6.13,0,0,0,1.62,8.07c-4,9.21-9.22,13.08-12.56,14.68a2,2,0,0,0-.36.17,11.77,11.77,0,0,1-2.56.81v4a12.54,12.54,0,0,0,4.24-1.2c5.35-1.35,6.84-.35,8.41.71a7.79,7.79,0,0,0,4.26,1.66h.31a23.61,23.61,0,0,0,7-1.72,6.18,6.18,0,0,0,4.29,1.75h0a6.12,6.12,0,0,0,4.64-10.11ZM129.27,94.79a2.1,2.1,0,0,1,1.82-1,2.17,2.17,0,0,1,1.08.3,2.12,2.12,0,0,1,.73,2.9,2.11,2.11,0,0,1-3.63-2.16Zm12.6,22.36a2.09,2.09,0,0,1-1.37.51,2.11,2.11,0,0,1-1.38-3.72,2.09,2.09,0,0,1,1.37-.51,2.11,2.11,0,0,1,1.61.74,2.06,2.06,0,0,1,.5,1.54A2.08,2.08,0,0,1,141.87,117.15Z"/><path d="M121,48.07l.21,0Z"/><path class="cls-8" d="M142.92,35.67a6.12,6.12,0,1,0-11,4.82A13.35,13.35,0,0,1,122,44.78a28.93,28.93,0,0,0-10-2.32v4a24.65,24.65,0,0,1,8.74,2.13h0a21.68,21.68,0,0,1,8.61,7,4,4,0,0,0-.38.54,6.12,6.12,0,1,0,8.44-1.91,6.2,6.2,0,0,0-4.66-.76A26.19,26.19,0,0,0,127.39,48a16.34,16.34,0,0,0,7.78-5.1,6.22,6.22,0,0,0,1.77.27,6.13,6.13,0,0,0,6-7.45ZM132.35,58.31a2.11,2.11,0,0,1,.67-.66,2.09,2.09,0,0,1,2.24,0,2.11,2.11,0,0,1-1.13,3.9,2.1,2.1,0,0,1-1.78-3.25Zm6.38-20.19a2.14,2.14,0,0,1-2.92.66l-.09-.06a2.12,2.12,0,0,1,1.22-3.84,2.16,2.16,0,0,1,1.13.33,2.09,2.09,0,0,1,.93,1.33A2,2,0,0,1,138.73,38.12Z"/><path class="cls-8" d="M151.61,76.64a6,6,0,0,0,2.11,2.65l.28.2a6.15,6.15,0,0,0,8.45-1.9,6.13,6.13,0,0,0-5.17-9.4l-.38,0a25.63,25.63,0,0,1,0-11.26l.33,0a6.12,6.12,0,0,0,3.27-11.3,6.18,6.18,0,0,0-3.26-.94,6.11,6.11,0,0,0-4.15,10.61l.07.06a28.64,28.64,0,0,0,0,14.42,5.25,5.25,0,0,0-.42.4,6.43,6.43,0,0,0-.64.82,6.35,6.35,0,0,0-.71,1.58,15.16,15.16,0,0,0-6.82,2.73c-2,1.33-4,2.57-9.64,2.67a32.77,32.77,0,0,0-5.29-.12c-1.43,0-2.91.11-4.85,0-1.33-.07-2.1-.88-3.45-2.42-1.81-2.06-4.22-4.65-9.37-5v4c3.29.3,4.79,1.88,6.35,3.66s3.18,3.62,6.26,3.79c2.12.11,3.76,0,5.21,0a24.35,24.35,0,0,1,7.85.68c2.61.64,12.1,9.67,14.78,14.32-.11.14-.22.29-.32.44a6.11,6.11,0,0,0,1.62,8.25l.28.19a6.12,6.12,0,0,0,8.45-1.9,6.12,6.12,0,0,0-5.17-9.39,6.15,6.15,0,0,0-1.55.19c-2.56-4.18-8.65-10.45-13.19-13.79a17.83,17.83,0,0,0,4.21-2.19A11.39,11.39,0,0,1,151.61,76.64Zm3.88-26.92a2.12,2.12,0,0,1,2.91-.66,2.16,2.16,0,0,1,.94,1.33,2.11,2.11,0,0,1-3.19,2.24l-.1-.06A2.11,2.11,0,0,1,155.49,49.72Zm0,23.46a2.12,2.12,0,0,1,1.79-1,2,2,0,0,1,1.12.33,2.1,2.1,0,0,1,.66,2.91,2.14,2.14,0,0,1-2.91.65l-.1-.06A2.1,2.1,0,0,1,155.49,73.18Zm0,26.31a2.12,2.12,0,0,1,2.91-.66,2.11,2.11,0,1,1-2.25,3.57l-.1-.06A2.11,2.11,0,0,1,155.49,99.49Z"/><path class="cls-6" d="M145.14,108.56a6.12,6.12,0,0,0-10.72,4.74,19.86,19.86,0,0,1-5.32,1.33,4.11,4.11,0,0,1-2.23-1,10.56,10.56,0,0,0-4.15-1.85A37.66,37.66,0,0,0,131.31,99a6.12,6.12,0,0,0,2.91-11.37,6.07,6.07,0,0,0-3.13-.86,6.15,6.15,0,0,0-5.26,3,6.13,6.13,0,0,0,1.62,8.07c-4,9.21-9.22,13.08-12.56,14.68a2,2,0,0,0-.36.17,11.77,11.77,0,0,1-2.56.81v4a12.54,12.54,0,0,0,4.24-1.2c5.35-1.35,6.84-.35,8.41.71a7.79,7.79,0,0,0,4.26,1.66h.31a23.61,23.61,0,0,0,7-1.72,6.18,6.18,0,0,0,4.29,1.75h0a6.12,6.12,0,0,0,4.64-10.11ZM129.27,91.79a2.1,2.1,0,0,1,1.82-1,2.17,2.17,0,0,1,1.08.3,2.12,2.12,0,0,1,.73,2.9,2.11,2.11,0,0,1-3.63-2.16Zm12.6,22.36a2.09,2.09,0,0,1-1.37.51,2.11,2.11,0,0,1-1.38-3.72,2.09,2.09,0,0,1,1.37-.51,2.11,2.11,0,0,1,1.61.74,2.06,2.06,0,0,1,.5,1.54A2.08,2.08,0,0,1,141.87,114.15Z"/><path class="cls-6" d="M121,45.66l.21.05Z"/><path class="cls-6" d="M142.92,32.66a6.12,6.12,0,1,0-11,4.82A13.31,13.31,0,0,1,122,41.77a29.12,29.12,0,0,0-10-2.31v4a24.91,24.91,0,0,1,8.74,2.14h0a21.76,21.76,0,0,1,8.61,7,5.93,5.93,0,0,0-.38.54,6.12,6.12,0,1,0,8.44-1.91,6.2,6.2,0,0,0-4.66-.75,26,26,0,0,0-5.35-5.57,16.39,16.39,0,0,0,7.78-5.09,6.21,6.21,0,0,0,1.77.26,6.13,6.13,0,0,0,6-7.45ZM132.35,55.31a2,2,0,0,1,.67-.66,2.12,2.12,0,0,1,2.24,0,2.12,2.12,0,0,1-1.13,3.91,2.07,2.07,0,0,1-1.13-.33A2.12,2.12,0,0,1,132.35,55.31Zm6.38-20.19a2.15,2.15,0,0,1-2.92.65l-.09-.06a2.11,2.11,0,0,1,1.22-3.83,2.12,2.12,0,0,1,1.79,3.24Z"/><path class="cls-6" d="M151.61,73.64a6,6,0,0,0,2.11,2.65l.28.2a6.15,6.15,0,0,0,8.45-1.9,6.13,6.13,0,0,0-5.17-9.4l-.38,0a25.63,25.63,0,0,1,0-11.26l.33,0a6.12,6.12,0,0,0,3.27-11.3,6.18,6.18,0,0,0-3.26-.94,6.11,6.11,0,0,0-4.15,10.61l.07.06a28.64,28.64,0,0,0,0,14.42,5.25,5.25,0,0,0-.42.4,6.43,6.43,0,0,0-.64.82,6.35,6.35,0,0,0-.71,1.58,15.16,15.16,0,0,0-6.82,2.73c-2,1.33-4,2.57-9.64,2.67a32.77,32.77,0,0,0-5.29-.12c-1.43,0-2.91.11-4.85,0-1.33-.07-2.1-.88-3.45-2.42-1.81-2.06-4.22-4.65-9.37-5v4c3.29.3,4.79,1.88,6.35,3.66s3.18,3.62,6.26,3.79c2.12.11,3.76,0,5.21,0a24.35,24.35,0,0,1,7.85.68c2.61.64,12.1,9.67,14.78,14.32-.11.14-.22.29-.32.44a6.11,6.11,0,0,0,1.62,8.25l.28.19a6.12,6.12,0,0,0,8.45-1.9,6.12,6.12,0,0,0-5.17-9.39,6.15,6.15,0,0,0-1.55.19c-2.56-4.18-8.65-10.45-13.19-13.79a17.83,17.83,0,0,0,4.21-2.19A11.39,11.39,0,0,1,151.61,73.64Zm3.88-26.92a2.12,2.12,0,0,1,2.91-.66,2.16,2.16,0,0,1,.94,1.33,2.11,2.11,0,0,1-3.19,2.24l-.1-.06A2.11,2.11,0,0,1,155.49,46.72Zm0,23.46a2.12,2.12,0,0,1,1.79-1,2,2,0,0,1,1.12.33,2.1,2.1,0,0,1,.66,2.91,2.14,2.14,0,0,1-2.91.65l-.1-.06A2.1,2.1,0,0,1,155.49,70.18Zm0,26.31a2.12,2.12,0,0,1,2.91-.66,2.11,2.11,0,1,1-2.25,3.57l-.1-.06A2.11,2.11,0,0,1,155.49,96.49Z"/><path class="cls-3" d="M15.47,242.15v17.9H2.21v-54.6H22.5q8.78,0,14.16,5.27t5.39,13.71q0,8-5.3,12.84t-14.1,4.88Zm0-11h7a5.87,5.87,0,0,0,4.79-1.87,7.2,7.2,0,0,0,1.54-4.74,9.14,9.14,0,0,0-1.73-5.83,5.6,5.6,0,0,0-4.6-2.18h-7Z"/><path class="cls-3" d="M49.87,201.32a6.3,6.3,0,0,1,1.81-4.66,6.56,6.56,0,0,1,4.83-1.81,6.56,6.56,0,0,1,4.83,1.81,6.3,6.3,0,0,1,1.81,4.66,6.64,6.64,0,1,1-13.28,0Zm12.81,58.73H50.43V213.4H62.68Z"/><path class="cls-3" d="M89,250.78q5.31,0,5.39-6.9h11.47q-.07,7.63-4.7,12.34a16,16,0,0,1-11.9,4.7q-9,0-13.76-5.61t-4.83-16.52v-3.7q0-11,4.68-16.78t13.82-5.78q7.72,0,12.17,4.77t4.52,13.52H94.37a12.3,12.3,0,0,0-1.29-6,4.44,4.44,0,0,0-4.14-2.11,4.92,4.92,0,0,0-4.57,2.26Q83,227.2,82.9,233.71v4.74a38.37,38.37,0,0,0,.56,8,6,6,0,0,0,1.86,3.32A5.66,5.66,0,0,0,89,250.78Z"/><path class="cls-3" d="M134.91,260.05a16.73,16.73,0,0,1-1-3.62,10.42,10.42,0,0,1-8.88,4.49,13.16,13.16,0,0,1-9.72-3.88A13.62,13.62,0,0,1,111.41,247q0-7.34,4.67-11.34t13.48-4.1h3.71V227.8q0-3.15-1.08-4.44a3.85,3.85,0,0,0-3.15-1.3c-3,0-4.57,1.79-4.57,5.35h-12.2a13.51,13.51,0,0,1,4.85-10.67,18,18,0,0,1,12.27-4.21c5.11,0,9.08,1.33,11.88,4s4.2,6.46,4.2,11.41v21.95a23,23,0,0,0,1.73,9.44v.73Zm-7.2-8.71a6.78,6.78,0,0,0,3.45-.82,5.78,5.78,0,0,0,2.11-1.94v-9.7h-2.93a6.27,6.27,0,0,0-4.9,2,7.67,7.67,0,0,0-1.79,5.31Q123.65,251.35,127.71,251.34Z"/><path class="cls-3" d="M177.34,225.17l-4.05-.35c-3.34,0-5.59,1.47-6.77,4.4v30.83H154.27V213.4h11.51l.35,5c1.93-3.94,4.58-5.91,8-5.91a8.59,8.59,0,0,1,3.36.56Z"/><path class="cls-3" d="M181.14,235.3q0-11.46,3.88-17.12t11.3-5.65a10.89,10.89,0,0,1,9,4.66V193.82h12.29v66.23H206.49l-.56-4.74q-3.75,5.61-9.66,5.61-7.32,0-11.19-5.61t-3.94-16.47Zm12.24,3.06c0,4.6.49,7.82,1.47,9.64a5.16,5.16,0,0,0,5,2.74,6,6,0,0,0,5.48-3.23V226.2a5.82,5.82,0,0,0-5.44-3.45,5.24,5.24,0,0,0-4.91,2.72q-1.56,2.72-1.56,9.66Z"/><path class="cls-2" d="M11.26,158.57l4.9,18.62,4.91-18.62H30v27.74H23.19v-5.52l.64-12.91-5.45,18.43H13.92L8.49,168l.65,12.81v5.52H2.4V158.57Z"/><path class="cls-2" d="M46.08,184.14a6.11,6.11,0,0,1-5.17,2.61A5.81,5.81,0,0,1,36,184.51q-1.7-2.25-1.69-6.54V162.61h6.2v15.51c0,2.31.79,3.46,2.3,3.46a3.2,3.2,0,0,0,3.07-1.84V162.61h6.24v23.7H46.25Z"/><path class="cls-2" d="M67,180a1.93,1.93,0,0,0-.76-1.46,15.07,15.07,0,0,0-3.36-1.8,14.11,14.11,0,0,1-5.27-3.23,6.13,6.13,0,0,1-1.43-4.14,6.63,6.63,0,0,1,2.24-5.13,8.55,8.55,0,0,1,6-2,9.25,9.25,0,0,1,6.25,2A6.76,6.76,0,0,1,73,169.6h-6.2c0-1.93-.8-2.89-2.41-2.89a2.22,2.22,0,0,0-1.62.61,2.25,2.25,0,0,0-.64,1.71,1.82,1.82,0,0,0,.7,1.39,15.79,15.79,0,0,0,3.31,1.72,13.63,13.63,0,0,1,5.36,3.12A6.39,6.39,0,0,1,73,179.72a6.22,6.22,0,0,1-2.39,5.1,9.66,9.66,0,0,1-6.27,1.93,10,10,0,0,1-4.6-1,7.71,7.71,0,0,1-3.12-2.83A7.35,7.35,0,0,1,55.52,179h5.89a3.76,3.76,0,0,0,.76,2.44,3,3,0,0,0,2.33.81C66.17,182.22,67,181.46,67,180Z"/><path class="cls-2" d="M76.88,156.47a3.2,3.2,0,0,1,.92-2.36,3.74,3.74,0,0,1,4.91,0,3.2,3.2,0,0,1,.92,2.36,3.38,3.38,0,1,1-6.75,0Zm6.51,29.84H77.17v-23.7h6.22Z"/><path class="cls-2" d="M96.75,181.6q2.7,0,2.74-3.5h5.83a8.72,8.72,0,0,1-2.39,6.26,8.07,8.07,0,0,1-6.05,2.39,8.65,8.65,0,0,1-7-2.85c-1.6-1.9-2.42-4.69-2.45-8.39v-1.88q0-5.59,2.38-8.52t7-2.94a8.07,8.07,0,0,1,6.18,2.42,9.88,9.88,0,0,1,2.3,6.87H99.49a6.11,6.11,0,0,0-.66-3.07,2.25,2.25,0,0,0-2.1-1.07,2.5,2.5,0,0,0-2.32,1.15,9.77,9.77,0,0,0-.75,4.46v2.41a19.29,19.29,0,0,0,.29,4,3,3,0,0,0,.94,1.69A2.92,2.92,0,0,0,96.75,181.6Z"/><path class="cls-2" d="M108.76,186.31V158.57h9.43q4.86,0,7.42,2a6.79,6.79,0,0,1,2.56,5.71,7.12,7.12,0,0,1-.93,3.69,5.45,5.45,0,0,1-2.74,2.31,5.28,5.28,0,0,1,3,2.18,6.89,6.89,0,0,1,1.08,3.94c0,2.76-.81,4.78-2.41,6s-4,1.9-7.24,1.9Zm6.74-16.21h3.24c1.79,0,2.69-1,2.69-2.86a3.33,3.33,0,0,0-.67-2.35,2.69,2.69,0,0,0-2.05-.7H115.5Zm0,4.69v6H119a2.63,2.63,0,0,0,2.91-2.86c0-2-.81-3.05-2.43-3.11Z"/><path class="cls-2" d="M144.41,168.59l-2.06-.18a3.39,3.39,0,0,0-3.44,2.24v15.66h-6.22v-23.7h5.85l.17,2.56q1.47-3,4.06-3a4.36,4.36,0,0,1,1.71.28Z"/><path class="cls-2" d="M158.19,186.31a8.67,8.67,0,0,1-.52-1.84,5.32,5.32,0,0,1-4.52,2.28,6.71,6.71,0,0,1-4.94-2,6.94,6.94,0,0,1-2-5.11,7.16,7.16,0,0,1,2.38-5.76q2.37-2,6.84-2.08h1.89v-1.9a3.55,3.55,0,0,0-.55-2.26,2,2,0,0,0-1.6-.66c-1.55,0-2.32.91-2.32,2.72h-6.2a6.86,6.86,0,0,1,2.46-5.42,9.17,9.17,0,0,1,6.24-2.14,8.41,8.41,0,0,1,6,2,7.58,7.58,0,0,1,2.14,5.79v11.15a11.76,11.76,0,0,0,.87,4.8v.37Zm-3.66-4.42a3.41,3.41,0,0,0,1.75-.42,3,3,0,0,0,1.08-1v-4.93h-1.49a3.2,3.2,0,0,0-2.49,1,3.92,3.92,0,0,0-.91,2.7C152.47,181,153.16,181.89,154.53,181.89Z"/><path class="cls-2" d="M168.05,156.47a3.2,3.2,0,0,1,.92-2.36,3.74,3.74,0,0,1,4.91,0,3.2,3.2,0,0,1,.92,2.36,3.31,3.31,0,0,1-.91,2.37,3.38,3.38,0,0,1-5.84-2.37Zm6.51,29.84h-6.23v-23.7h6.23Z"/><path class="cls-2" d="M185,162.61l.17,2.34a6.6,6.6,0,0,1,5.5-2.78q6.12,0,6.29,8.57v15.57h-6.22V171.2a5.48,5.48,0,0,0-.6-2.93,2.38,2.38,0,0,0-2.12-.91,2.91,2.91,0,0,0-2.63,1.73v17.22H179.2v-23.7Z"/><path class="cls-2" d="M208.3,181.17h9.37v5.14H200.93v-3.87l9.16-14.66h-8.94v-5.17h16.39v3.74Z"/></g></g></svg>