<svg xmlns="http://www.w3.org/2000/svg" viewBox="0 0 404.39 150"><defs><style>.cls-1{isolation:isolate;}.cls-2{fill:#eb743b;}.cls-3{fill:#771b85;}.cls-4{fill:#591463;}.cls-5{fill:#b66bc2;}.cls-6{fill:#fffedb;}.cls-7{mix-blend-mode:multiply;opacity:0.07;}.cls-8{fill:#d3562c;}</style></defs><g class="cls-1"><g id="Layer_1" data-name="Layer 1"><polygon class="cls-2" points="70.35 2.82 70.35 146.82 131.35 111.82 131.35 37.82 70.35 2.82"/><polygon class="cls-3" points="65.35 2.82 4.35 37.82 4.35 111.82 65.35 146.82 65.35 2.82"/><path class="cls-4" d="M41.81,45.3,23.84,54l-9.75,52.42L31.26,102l14.45,10.24,9.76-52.41ZM38.25,63.81a5.57,5.57,0,1,1,6.5-4.46A5.57,5.57,0,0,1,38.25,63.81Z"/><path class="cls-4" d="M65.39,42.23l-.61-.14C59,40.74,48.33,38.26,40.6,50.89a7.48,7.48,0,0,0-1.33-.12,7.56,7.56,0,0,0-1.38,15,7.19,7.19,0,0,0,1.39.13,7.56,7.56,0,0,0,4.94-13.28c6.21-9.77,14.26-7.9,19.65-6.64l1.52.35ZM42.78,59a3.57,3.57,0,1,1-7-1.31,3.55,3.55,0,0,1,3.5-2.91,3.68,3.68,0,0,1,.66.06A3.57,3.57,0,0,1,42.78,59Z"/><path class="cls-5" d="M41.81,42.9l-18,8.66L14.09,104l17.17-4.35,14.45,10.24,9.76-52.42ZM38.25,61.4A5.57,5.57,0,1,1,44.75,57,5.57,5.57,0,0,1,38.25,61.4Z"/><path class="cls-6" d="M65.39,39.82l-.61-.14C59,38.33,48.33,35.85,40.6,48.48a7.48,7.48,0,0,0-1.33-.12,7.57,7.57,0,0,0-1.38,15,8.08,8.08,0,0,0,1.39.13,7.56,7.56,0,0,0,4.94-13.28c6.21-9.77,14.26-7.9,19.65-6.64l1.52.34ZM42.78,56.58a3.56,3.56,0,1,1-7-1.3,3.56,3.56,0,0,1,3.5-2.92,3.68,3.68,0,0,1,.66.06A3.57,3.57,0,0,1,42.78,56.58Z"/><g class="cls-7"><path d="M87.66,94.56a2.08,2.08,0,0,1,1.82-1,2.11,2.11,0,1,1,0,4.22,2.13,2.13,0,0,1-2-1.59A2.13,2.13,0,0,1,87.66,94.56Zm12.6,22.36a2.11,2.11,0,1,1-1.38-3.72,2.11,2.11,0,0,1,2.11,2.28A2.08,2.08,0,0,1,100.26,116.92Z"/><path d="M79.36,48.43l.21,0Z"/><path d="M90.73,58.08a2,2,0,0,1,.68-.66,2.12,2.12,0,0,1,2.24,0,2.12,2.12,0,0,1-1.13,3.91A2.07,2.07,0,0,1,91.39,61,2.13,2.13,0,0,1,90.73,58.08Zm6.38-20.19a2.15,2.15,0,0,1-2.91.66l-.09-.07a2.11,2.11,0,0,1,1.22-3.83,2.16,2.16,0,0,1,1.13.33,2.11,2.11,0,0,1,.65,2.91Z"/><path d="M113.88,49.49a2.1,2.1,0,0,1,1.78-1,2.12,2.12,0,0,1,1.79,3.24,2.15,2.15,0,0,1-2.92.65l-.09-.06A2.11,2.11,0,0,1,113.88,49.49Zm0,23.46a2.1,2.1,0,0,1,1.78-1,2.16,2.16,0,0,1,1.13.33,2.12,2.12,0,0,1,.66,2.91,2.15,2.15,0,0,1-2.92.66l-.09-.07A2.1,2.1,0,0,1,113.88,73Zm0,26.31a2.08,2.08,0,0,1,1.78-1,2.15,2.15,0,0,1,1.13.32,2.11,2.11,0,0,1,.93,1.33,2.07,2.07,0,0,1-.27,1.59,2.15,2.15,0,0,1-2.92.65l-.09-.06A2.11,2.11,0,0,1,113.88,99.26Z"/><path d="M103.53,108.93a6.12,6.12,0,0,0-10.72,4.73A19.62,19.62,0,0,1,87.48,115a4,4,0,0,1-2.22-1,10.7,10.7,0,0,0-4.15-1.84A37.62,37.62,0,0,0,89.7,99.34a6.09,6.09,0,1,0-3.86-1.18c-4,9.22-9.22,13.08-12.57,14.69a2,2,0,0,0-.36.17,10.91,10.91,0,0,1-2.56.8v4a12.63,12.63,0,0,0,4.25-1.19c5.35-1.36,6.84-.35,8.41.71A7.94,7.94,0,0,0,87.27,119h.31a23.61,23.61,0,0,0,7-1.72A6.12,6.12,0,0,0,98.89,119h0a6.11,6.11,0,0,0,4.64-10.1ZM87.66,92.15a2.1,2.1,0,0,1,1.82-1,2,2,0,0,1,1.07.3,2.11,2.11,0,0,1-1.08,3.93,2.17,2.17,0,0,1-1.08-.3,2.09,2.09,0,0,1-1-1.3A2.14,2.14,0,0,1,87.66,92.15Zm12.6,22.36a2.09,2.09,0,0,1-1.37.51,2.11,2.11,0,0,1-1.38-3.71,2.06,2.06,0,0,1,1.37-.52,2.11,2.11,0,0,1,1.61.75,2.07,2.07,0,0,1,.5,1.53A2,2,0,0,1,100.26,114.51Z"/><path d="M79.36,46l.21,0Z"/><path d="M101.3,33a6.06,6.06,0,0,0-2.7-3.85,6.19,6.19,0,0,0-3.27-.94,6.12,6.12,0,0,0-5,9.61,13.35,13.35,0,0,1-9.94,4.29,29.44,29.44,0,0,0-10-2.32v4A24.65,24.65,0,0,1,79.1,46h0a21.58,21.58,0,0,1,8.6,7c-.13.17-.26.35-.38.54A6.14,6.14,0,0,0,89.25,62a6,6,0,0,0,3.27,1,6.12,6.12,0,0,0,3.27-11.3,6.22,6.22,0,0,0-4.67-.75,26,26,0,0,0-5.34-5.57,16.38,16.38,0,0,0,7.78-5.1,6.17,6.17,0,0,0,1.77.27,6.09,6.09,0,0,0,5.17-2.85A6,6,0,0,0,101.3,33ZM90.73,55.67a2.15,2.15,0,0,1,.68-.66,2.17,2.17,0,0,1,1.12-.31,2.09,2.09,0,0,1,1.12.32,2.12,2.12,0,0,1-1.13,3.91,2.13,2.13,0,0,1-1.79-3.26Zm6.38-20.18a2.14,2.14,0,0,1-2.91.65l-.09-.06a2.1,2.1,0,0,1-.56-2.85,2.07,2.07,0,0,1,1.78-1,2.15,2.15,0,0,1,1.13.32,2.11,2.11,0,0,1,.93,1.33A2.08,2.08,0,0,1,97.11,35.49Z"/><path d="M110,74a6,6,0,0,0,2.11,2.65l.28.19a6.12,6.12,0,1,0,6.54-10.35,6.19,6.19,0,0,0-3.27-.94l-.37,0a25.82,25.82,0,0,1,0-11.27l.34,0a6.12,6.12,0,1,0-4.15-1.63l.08.06a28.64,28.64,0,0,0,0,14.42c-.14.13-.29.25-.43.4a6.58,6.58,0,0,0-.63.82,6,6,0,0,0-.71,1.58A15.16,15.16,0,0,0,103,72.72c-2,1.32-4,2.57-9.64,2.66A32.72,32.72,0,0,0,88,75.27c-1.43,0-2.91.1-4.85,0-1.33-.07-2.1-.88-3.46-2.42-1.8-2.06-4.22-4.65-9.37-5v4c3.3.3,4.8,1.89,6.36,3.67s3.18,3.62,6.26,3.78c2.11.12,3.76,0,5.2,0A24.15,24.15,0,0,1,96,80c2.61.64,12.1,9.67,14.77,14.32-.1.14-.22.28-.31.43a6.1,6.1,0,0,0,1.62,8.25l.28.2a6.13,6.13,0,1,0,1.73-11.1c-2.56-4.19-8.65-10.46-13.19-13.79a18.42,18.42,0,0,0,4.21-2.19A11.39,11.39,0,0,1,110,74Zm3.88-26.92a2.08,2.08,0,0,1,1.78-1,2.15,2.15,0,0,1,1.13.32,2.09,2.09,0,0,1,.93,1.33,2,2,0,0,1-.27,1.58,2.14,2.14,0,0,1-2.92.66l-.09-.06A2.11,2.11,0,0,1,113.88,47.09Zm0,23.46a2.08,2.08,0,0,1,1.78-1,2.15,2.15,0,0,1,1.13.32,2.11,2.11,0,0,1,.93,1.33,2.07,2.07,0,0,1-.27,1.59,2.15,2.15,0,0,1-2.92.65l-.09-.06A2.11,2.11,0,0,1,113.88,70.55Zm0,26.3a2.1,2.1,0,0,1,1.78-1,2.12,2.12,0,0,1,1.79,3.24,2.15,2.15,0,0,1-2.92.65l-.09-.06A2.1,2.1,0,0,1,113.88,96.85Z"/></g><path class="cls-8" d="M103.53,111.93a6.12,6.12,0,0,0-10.72,4.73A19.62,19.62,0,0,1,87.48,118a4,4,0,0,1-2.22-1,10.7,10.7,0,0,0-4.15-1.84,37.62,37.62,0,0,0,8.59-12.84,6.09,6.09,0,1,0-3.86-1.18c-4,9.22-9.22,13.08-12.57,14.69a2,2,0,0,0-.36.17,10.91,10.91,0,0,1-2.56.8v4a12.63,12.63,0,0,0,4.25-1.19c5.35-1.36,6.84-.35,8.41.71A7.94,7.94,0,0,0,87.27,122h.31a23.61,23.61,0,0,0,7-1.72A6.12,6.12,0,0,0,98.89,122h0a6.11,6.11,0,0,0,4.64-10.1ZM87.66,95.15a2.1,2.1,0,0,1,1.82-1,2,2,0,0,1,1.07.3,2.11,2.11,0,0,1-1.08,3.93,2.17,2.17,0,0,1-1.08-.3,2.09,2.09,0,0,1-1-1.3A2.14,2.14,0,0,1,87.66,95.15Zm12.6,22.36a2.09,2.09,0,0,1-1.37.51,2.11,2.11,0,0,1-1.38-3.71,2.06,2.06,0,0,1,1.37-.52,2.11,2.11,0,0,1,1.61.75,2.07,2.07,0,0,1,.5,1.53A2,2,0,0,1,100.26,117.51Z"/><path d="M79.36,48.43l.21,0Z"/><path class="cls-8" d="M101.3,36a6,6,0,0,0-2.7-3.84,6.12,6.12,0,0,0-8.3,8.66,13.27,13.27,0,0,1-9.94,4.29,29.17,29.17,0,0,0-10-2.31v4A24.91,24.91,0,0,1,79.1,49h0a21.67,21.67,0,0,1,8.6,7l-.38.54a6.13,6.13,0,1,0,8.45-1.91,6.22,6.22,0,0,0-4.67-.75,26,26,0,0,0-5.34-5.57,16.43,16.43,0,0,0,7.78-5.09,6.16,6.16,0,0,0,1.77.26,6.06,6.06,0,0,0,5.17-2.85A6,6,0,0,0,101.3,36ZM90.73,58.68a2,2,0,0,1,.68-.66,2.12,2.12,0,0,1,2.24,0,2.12,2.12,0,0,1-1.13,3.91,2.07,2.07,0,0,1-1.13-.33A2.13,2.13,0,0,1,90.73,58.68Zm6.38-20.19a2.14,2.14,0,0,1-2.91.65l-.09-.06a2.11,2.11,0,0,1,1.22-3.83,2.11,2.11,0,0,1,1.78,3.24Z"/><path class="cls-8" d="M110,77a6,6,0,0,0,2.11,2.65l.28.19a6.12,6.12,0,1,0,6.54-10.35,6.19,6.19,0,0,0-3.27-.94l-.37,0a25.82,25.82,0,0,1,0-11.27l.34,0a6.12,6.12,0,1,0-4.15-1.63l.08.06a28.64,28.64,0,0,0,0,14.42c-.14.13-.29.25-.43.4a6.58,6.58,0,0,0-.63.82,6,6,0,0,0-.71,1.58A15.16,15.16,0,0,0,103,75.72c-2,1.32-4,2.57-9.64,2.66A32.72,32.72,0,0,0,88,78.27c-1.43,0-2.91.1-4.85,0-1.33-.07-2.1-.88-3.46-2.42-1.8-2.06-4.22-4.65-9.37-5v4c3.3.3,4.8,1.89,6.36,3.67s3.18,3.62,6.26,3.78c2.11.12,3.76,0,5.2,0A24.15,24.15,0,0,1,96,83c2.61.64,12.1,9.67,14.77,14.32-.1.14-.22.28-.31.43a6.1,6.1,0,0,0,1.62,8.25l.28.2a6.13,6.13,0,1,0,1.73-11.1c-2.56-4.19-8.65-10.46-13.19-13.79a18.42,18.42,0,0,0,4.21-2.19A11.39,11.39,0,0,1,110,77Zm3.88-26.92a2.08,2.08,0,0,1,1.78-1,2.15,2.15,0,0,1,1.13.32,2.09,2.09,0,0,1,.93,1.33,2,2,0,0,1-.27,1.58,2.14,2.14,0,0,1-2.92.66l-.09-.06A2.11,2.11,0,0,1,113.88,50.09Zm0,23.46a2.08,2.08,0,0,1,1.78-1,2.15,2.15,0,0,1,1.13.32,2.11,2.11,0,0,1,.93,1.33,2.07,2.07,0,0,1-.27,1.59,2.15,2.15,0,0,1-2.92.65l-.09-.06A2.11,2.11,0,0,1,113.88,73.55Zm0,26.3a2.1,2.1,0,0,1,1.78-1,2.12,2.12,0,0,1,1.79,3.24,2.15,2.15,0,0,1-2.92.65l-.09-.06A2.1,2.1,0,0,1,113.88,99.85Z"/><path class="cls-6" d="M103.53,108.93a6.12,6.12,0,0,0-10.72,4.73A19.62,19.62,0,0,1,87.48,115a4,4,0,0,1-2.22-1,10.7,10.7,0,0,0-4.15-1.84A37.62,37.62,0,0,0,89.7,99.34a6.09,6.09,0,1,0-3.86-1.18c-4,9.22-9.22,13.08-12.57,14.69a2,2,0,0,0-.36.17,10.91,10.91,0,0,1-2.56.8v4a12.63,12.63,0,0,0,4.25-1.19c5.35-1.36,6.84-.35,8.41.71A7.94,7.94,0,0,0,87.27,119h.31a23.61,23.61,0,0,0,7-1.72A6.12,6.12,0,0,0,98.89,119h0a6.11,6.11,0,0,0,4.64-10.1ZM87.66,92.15a2.1,2.1,0,0,1,1.82-1,2,2,0,0,1,1.07.3,2.11,2.11,0,0,1-1.08,3.93,2.17,2.17,0,0,1-1.08-.3,2.09,2.09,0,0,1-1-1.3A2.14,2.14,0,0,1,87.66,92.15Zm12.6,22.36a2.09,2.09,0,0,1-1.37.51,2.11,2.11,0,0,1-1.38-3.71,2.06,2.06,0,0,1,1.37-.52,2.11,2.11,0,0,1,1.61.75,2.07,2.07,0,0,1,.5,1.53A2,2,0,0,1,100.26,114.51Z"/><path class="cls-6" d="M79.36,46l.21,0Z"/><path class="cls-6" d="M101.3,33a6.06,6.06,0,0,0-2.7-3.85,6.19,6.19,0,0,0-3.27-.94,6.12,6.12,0,0,0-5,9.61,13.35,13.35,0,0,1-9.94,4.29,29.44,29.44,0,0,0-10-2.32v4A24.65,24.65,0,0,1,79.1,46h0a21.58,21.58,0,0,1,8.6,7c-.13.17-.26.35-.38.54A6.14,6.14,0,0,0,89.25,62a6,6,0,0,0,3.27,1,6.12,6.12,0,0,0,3.27-11.3,6.22,6.22,0,0,0-4.67-.75,26,26,0,0,0-5.34-5.57,16.38,16.38,0,0,0,7.78-5.1,6.17,6.17,0,0,0,1.77.27,6.09,6.09,0,0,0,5.17-2.85A6,6,0,0,0,101.3,33ZM90.73,55.67a2.15,2.15,0,0,1,.68-.66,2.17,2.17,0,0,1,1.12-.31,2.09,2.09,0,0,1,1.12.32,2.12,2.12,0,0,1-1.13,3.91,2.13,2.13,0,0,1-1.79-3.26Zm6.38-20.18a2.14,2.14,0,0,1-2.91.65l-.09-.06a2.1,2.1,0,0,1-.56-2.85,2.07,2.07,0,0,1,1.78-1,2.15,2.15,0,0,1,1.13.32,2.11,2.11,0,0,1,.93,1.33A2.08,2.08,0,0,1,97.11,35.49Z"/><path class="cls-6" d="M110,74a6,6,0,0,0,2.11,2.65l.28.19a6.12,6.12,0,1,0,6.54-10.35,6.19,6.19,0,0,0-3.27-.94l-.37,0a25.82,25.82,0,0,1,0-11.27l.34,0a6.12,6.12,0,1,0-4.15-1.63l.08.06a28.64,28.64,0,0,0,0,14.42c-.14.13-.29.25-.43.4a6.58,6.58,0,0,0-.63.82,6,6,0,0,0-.71,1.58A15.16,15.16,0,0,0,103,72.72c-2,1.32-4,2.57-9.64,2.66A32.72,32.72,0,0,0,88,75.27c-1.43,0-2.91.1-4.85,0-1.33-.07-2.1-.88-3.46-2.42-1.8-2.06-4.22-4.65-9.37-5v4c3.3.3,4.8,1.89,6.36,3.67s3.18,3.62,6.26,3.78c2.11.12,3.76,0,5.2,0A24.15,24.15,0,0,1,96,80c2.61.64,12.1,9.67,14.77,14.32-.1.14-.22.28-.31.43a6.1,6.1,0,0,0,1.62,8.25l.28.2a6.13,6.13,0,1,0,1.73-11.1c-2.56-4.19-8.65-10.46-13.19-13.79a18.42,18.42,0,0,0,4.21-2.19A11.39,11.39,0,0,1,110,74Zm3.88-26.92a2.08,2.08,0,0,1,1.78-1,2.15,2.15,0,0,1,1.13.32,2.09,2.09,0,0,1,.93,1.33,2,2,0,0,1-.27,1.58,2.14,2.14,0,0,1-2.92.66l-.09-.06A2.11,2.11,0,0,1,113.88,47.09Zm0,23.46a2.08,2.08,0,0,1,1.78-1,2.15,2.15,0,0,1,1.13.32,2.11,2.11,0,0,1,.93,1.33,2.07,2.07,0,0,1-.27,1.59,2.15,2.15,0,0,1-2.92.65l-.09-.06A2.11,2.11,0,0,1,113.88,70.55Zm0,26.3a2.1,2.1,0,0,1,1.78-1,2.12,2.12,0,0,1,1.79,3.24,2.15,2.15,0,0,1-2.92.65l-.09-.06A2.1,2.1,0,0,1,113.88,96.85Z"/><path class="cls-3" d="M169.73,107.52v18H156.14V70.87h23.29a28,28,0,0,1,11.82,2.36A18.16,18.16,0,0,1,199.19,80,17.88,17.88,0,0,1,202,89.8a15.57,15.57,0,0,1-6.14,12.92q-6.15,4.8-16.64,4.8Zm0-10.92h9.7a10.9,10.9,0,0,0,6.68-1.79,5.84,5.84,0,0,0,2.37-4.94A7.61,7.61,0,0,0,186.11,84a9.38,9.38,0,0,0-6.54-2.25h-9.84Z"/><path class="cls-3" d="M209.82,66.74a6.16,6.16,0,0,1,1.88-4.62,8.08,8.08,0,0,1,10.19,0,6.59,6.59,0,0,1,0,9.28,8,8,0,0,1-10.13,0A6.12,6.12,0,0,1,209.82,66.74Zm13.24,58.73H210.55V78.81h12.51Z"/><path class="cls-3" d="M252.73,116.29a8.12,8.12,0,0,0,5.6-1.9,6.67,6.67,0,0,0,2.25-5h11.68a16,16,0,0,1-2.59,8.69,17,17,0,0,1-7,6.13,21.82,21.82,0,0,1-9.77,2.17q-10,0-15.78-6.36t-5.78-17.57v-.82q0-10.77,5.74-17.2T252.86,78q8.75,0,14,5t5.37,13.26H260.58a8.58,8.58,0,0,0-2.25-5.92,8.35,8.35,0,0,0-12.27.9q-2.22,3.18-2.22,10.3v1.3q0,7.22,2.2,10.36A7.6,7.6,0,0,0,252.73,116.29Z"/><path class="cls-3" d="M306.42,125.47a13.41,13.41,0,0,1-1.25-4.18,15.1,15.1,0,0,1-11.78,5,16.57,16.57,0,0,1-11.36-4,12.79,12.79,0,0,1-4.51-10q0-7.41,5.5-11.38t15.89-4h5.74V94.29A7.72,7.72,0,0,0,303,89.12q-1.67-1.94-5.24-1.94a7.4,7.4,0,0,0-4.94,1.51A5.15,5.15,0,0,0,291,92.83H278.56a12.52,12.52,0,0,1,2.5-7.51,16.61,16.61,0,0,1,7.07-5.41,25.75,25.75,0,0,1,10.26-2q8.63,0,13.7,4.33t5.06,12.19v20.22q0,6.65,1.86,10v.73Zm-10.31-8.67a10.72,10.72,0,0,0,5.09-1.22,8.11,8.11,0,0,0,3.45-3.3v-8H300q-9.36,0-10,6.46l0,.74a5,5,0,0,0,1.64,3.84A6.37,6.37,0,0,0,296.11,116.8Z"/><path class="cls-3" d="M353,90.5a34.11,34.11,0,0,0-4.49-.35q-7.06,0-9.27,4.79v30.53H326.73V78.81H338.5l.34,5.57q3.77-6.43,10.4-6.43a13.19,13.19,0,0,1,3.88.56Z"/><path class="cls-3" d="M356.18,101.8q0-10.92,4.9-17.38A15.88,15.88,0,0,1,374.47,78,14.29,14.29,0,0,1,385.72,83V59.24h12.51v66.23H387l-.6-5a14.67,14.67,0,0,1-12,5.82,15.84,15.84,0,0,1-13.22-6.49Q356.18,113.36,356.18,101.8Zm12.46.88q0,6.58,2.29,10.1a7.44,7.44,0,0,0,6.64,3.51q5.78,0,8.15-4.9V92.89Q383.4,88,377.66,88,368.65,88,368.64,102.68Z"/><path class="cls-2" d="M164.94,24l6.94,18.72L178.77,24h9.14V51.75H181V46.12l.71-14.59-7.51,20.22h-4.6L162.08,31.6l.72,14.52v5.63h-6.94V24Z"/><path class="cls-2" d="M206.94,49.34a7.94,7.94,0,0,1-6.49,2.85A7.51,7.51,0,0,1,194.62,50c-1.33-1.47-2-3.61-2.05-6.43V28h6.34V43.37q0,3.71,3.38,3.71,3.22,0,4.43-2.24V28h6.37V51.75h-6Z"/><path class="cls-2" d="M230.73,45.19a2.05,2.05,0,0,0-1.16-1.83,13.15,13.15,0,0,0-3.69-1.2q-8.48-1.77-8.47-7.19A6.51,6.51,0,0,1,220,29.69a10.58,10.58,0,0,1,6.86-2.11,11.4,11.4,0,0,1,7.22,2.12,6.71,6.71,0,0,1,2.72,5.53h-6.35a3.11,3.11,0,0,0-.87-2.25,3.74,3.74,0,0,0-2.75-.89,3.79,3.79,0,0,0-2.47.73,2.27,2.27,0,0,0-.88,1.84,2,2,0,0,0,1,1.7,10.25,10.25,0,0,0,3.37,1.12,28,28,0,0,1,4,1.06q5,1.85,5,6.39a6.19,6.19,0,0,1-2.79,5.25,12,12,0,0,1-7.19,2,12.54,12.54,0,0,1-5.3-1.06A8.9,8.9,0,0,1,218,48.21a6.77,6.77,0,0,1-1.32-4h6a3.32,3.32,0,0,0,1.25,2.58,5,5,0,0,0,3.12.9,4.59,4.59,0,0,0,2.75-.69A2.13,2.13,0,0,0,230.73,45.19Z"/><path class="cls-2" d="M240.93,21.87a3.16,3.16,0,0,1,.95-2.35,4.12,4.12,0,0,1,5.19,0,3.34,3.34,0,0,1,0,4.72,4.08,4.08,0,0,1-5.16,0A3.1,3.1,0,0,1,240.93,21.87Zm6.73,29.88H241.3V28h6.36Z"/><path class="cls-2" d="M262.75,47.08a4.15,4.15,0,0,0,2.86-1,3.38,3.38,0,0,0,1.14-2.56h5.94A8.11,8.11,0,0,1,271.38,48a8.73,8.73,0,0,1-3.55,3.11,11.06,11.06,0,0,1-5,1.11,10.35,10.35,0,0,1-8-3.23q-2.93-3.24-2.93-9V39.6a12.69,12.69,0,0,1,2.91-8.76,10.19,10.19,0,0,1,8-3.26A10,10,0,0,1,270,30.11a9,9,0,0,1,2.73,6.75h-5.94a4.4,4.4,0,0,0-1.14-3,4.25,4.25,0,0,0-6.24.46c-.76,1.08-1.13,2.83-1.13,5.24v.66q0,3.67,1.11,5.27A3.87,3.87,0,0,0,262.75,47.08Z"/><path class="cls-2" d="M276.24,51.75V24H287q5.55,0,8.54,2a6.42,6.42,0,0,1,3,5.72,6.34,6.34,0,0,1-1.09,3.69,6.19,6.19,0,0,1-3.11,2.33,6.21,6.21,0,0,1,3.58,2.26,6.27,6.27,0,0,1,1.24,3.86q0,4.13-2.84,6T288,51.75Zm6.92-16.21h4.24c2.78,0,4.17-1,4.17-2.92a2.7,2.7,0,0,0-1-2.39,5.47,5.47,0,0,0-3.09-.7h-4.31Zm0,4.69v6H288a5.28,5.28,0,0,0,3.1-.79,2.46,2.46,0,0,0,1.1-2.09q0-3-3.65-3.09Z"/><path class="cls-2" d="M316.67,34a16.72,16.72,0,0,0-2.28-.18c-2.4,0-4,.82-4.72,2.44V51.75h-6.34V28h6l.18,2.83a5.85,5.85,0,0,1,5.28-3.26,6.67,6.67,0,0,1,2,.28Z"/><path class="cls-2" d="M332.82,51.75a7.06,7.06,0,0,1-.64-2.13,7.67,7.67,0,0,1-6,2.57,8.42,8.42,0,0,1-5.78-2,6.47,6.47,0,0,1-2.29-5.09,6.71,6.71,0,0,1,2.8-5.79c1.86-1.34,4.56-2,8.08-2h2.92V35.89a3.87,3.87,0,0,0-.85-2.63,3.31,3.31,0,0,0-2.66-1,3.77,3.77,0,0,0-2.51.77,2.59,2.59,0,0,0-.91,2.1h-6.34a6.34,6.34,0,0,1,1.27-3.81,8.48,8.48,0,0,1,3.6-2.76,13.2,13.2,0,0,1,5.22-1,10.34,10.34,0,0,1,7,2.2,7.72,7.72,0,0,1,2.58,6.2V46.27a11.5,11.5,0,0,0,.94,5.11v.37Zm-5.24-4.41a5.52,5.52,0,0,0,2.58-.62A4.15,4.15,0,0,0,331.92,45V41h-2.37c-3.17,0-4.86,1.09-5.07,3.29l0,.37a2.55,2.55,0,0,0,.83,2A3.22,3.22,0,0,0,327.58,47.34Z"/><path class="cls-2" d="M343.11,21.87a3.12,3.12,0,0,1,.95-2.35,4.12,4.12,0,0,1,5.19,0,3.34,3.34,0,0,1,0,4.72,4.08,4.08,0,0,1-5.16,0A3.1,3.1,0,0,1,343.11,21.87Zm6.73,29.88h-6.36V28h6.36Z"/><path class="cls-2" d="M360.9,28l.2,2.75a8.28,8.28,0,0,1,6.82-3.18c2.52,0,4.39.73,5.62,2.21s1.85,3.69,1.88,6.63V51.75h-6.34V36.54a4.17,4.17,0,0,0-.87-2.94,3.93,3.93,0,0,0-2.92-.91,4.37,4.37,0,0,0-4,2.28V51.75h-6.34V28Z"/><path class="cls-2" d="M387.51,46.64h11.61v5.11h-19.7V47.89l11.16-14.76H379.75V28h19v3.74Z"/></g></g></svg>