<?xml version="1.0" encoding="utf-8"?>
<!-- Generator: Adobe Illustrator 17.0.0, SVG Export Plug-In . SVG Version: 6.00 Build 0)  -->
<!DOCTYPE svg PUBLIC "-//W3C//DTD SVG 1.1//EN" "http://www.w3.org/Graphics/SVG/1.1/DTD/svg11.dtd">
<svg version="1.1" id="Layer_1" xmlns="http://www.w3.org/2000/svg" xmlns:xlink="http://www.w3.org/1999/xlink" x="0px" y="0px"
	 width="245px" height="100px" viewBox="0 0 245 100" enable-background="new 0 0 245 100" xml:space="preserve">
<g>
</g>
<g>
	<g>
		<polygon fill="#EB743B" points="46,2 46,98 87,74 87,26 		"/>
		<polygon fill="#771B85" points="43,2 2,26 2,74 43,98 		"/>
		<path fill="#FFFEDB" d="M78.281,58.087c-1.239-1.97-3.38-3.148-5.718-3.148c-0.666,0-1.324,0.103-1.956,0.295
			c-2.632-3.125-5.819-4.775-8.602-5.636c2.235-1.714,4.208-3.771,5.909-6.153c1.74,0.394,3.63,0.127,5.162-0.832
			c3.158-2.006,4.103-6.197,2.104-9.348c-1.249-1.975-3.39-3.152-5.724-3.152c-1.283,0-2.533,0.363-3.616,1.05
			c-3.146,1.991-4.093,6.181-2.105,9.336c0.13,0.207,0.27,0.404,0.422,0.596c-2.514,3.442-5.708,6.056-9.519,7.785l-0.014,0.004
			C51.093,50.487,49,51,46,51v5c4,0,5.931-1.125,10.016-2.898c1.366-0.024,6.962,0.184,10.991,4.747
			c-1.507,2.164-1.655,5.108-0.16,7.471c1.241,1.97,3.382,3.15,5.721,3.15c1.278,0,2.524-0.36,3.607-1.044
			c1.538-0.975,2.599-2.482,2.995-4.252C79.566,61.413,79.248,59.606,78.281,58.087z M68.061,34.67
			c0.423-0.266,0.901-0.405,1.396-0.405c0.903,0,1.731,0.456,2.219,1.224c0.772,1.214,0.403,2.836-0.818,3.61
			c-0.41,0.261-0.896,0.399-1.387,0.399c-0.493,0-0.974-0.134-1.39-0.391c-0.343-0.213-0.625-0.489-0.832-0.817
			C66.478,37.064,66.842,35.443,68.061,34.67z M75.119,62.27c-0.154,0.687-0.564,1.27-1.161,1.645
			c-0.413,0.264-0.896,0.406-1.391,0.406c-0.906,0-1.731-0.457-2.21-1.218c-0.745-1.18-0.441-2.727,0.691-3.528l0.117-0.078
			c1.208-0.766,2.866-0.367,3.608,0.808C75.151,60.896,75.271,61.591,75.119,62.27z"/>
		<g>
			<path fill="#B66BC2" d="M27.125,26.467l-12.1,5.832L8.461,67.588l11.56-2.932l9.73,6.893l6.567-35.29L27.125,26.467z
				 M24.085,42.54c-2.034-0.379-3.378-2.336-2.999-4.37c0.379-2.037,2.336-3.38,4.371-3.001c2.036,0.379,3.379,2.336,3.002,4.373
				C28.079,41.576,26.121,42.919,24.085,42.54z"/>
			<path fill="#FFFEDB" d="M35.352,26.587c-2.783,0.86-5.971,2.511-8.603,5.636c-0.632-0.192-1.29-0.295-1.956-0.295
				c-2.338,0-4.478,1.179-5.718,3.148c-0.967,1.52-1.285,3.326-0.889,5.087c0.396,1.769,1.457,3.277,2.995,4.252
				c1.083,0.684,2.329,1.044,3.608,1.044c2.339,0,4.479-1.181,5.721-3.15c1.495-2.362,1.347-5.307-0.16-7.471
				c4.029-4.562,11.284-5.021,12.65-4.998v-4.442C40.542,25.251,38.135,25.727,35.352,26.587z M22.582,37.293
				c0.742-1.175,2.4-1.573,3.608-0.808l0.117,0.078c1.133,0.802,1.437,2.349,0.691,3.528c-0.479,0.761-1.304,1.218-2.21,1.218
				c-0.494,0-0.978-0.143-1.391-0.406c-0.597-0.375-1.007-0.958-1.161-1.645C22.085,38.58,22.205,37.885,22.582,37.293z"/>
		</g>
	</g>
	<g>
		<g>
			<path fill="#771B85" d="M111.876,71.365V83h-8.574V47.703h13.119c3.777,0,6.827,1.134,9.15,3.4
				c2.322,2.267,3.483,5.213,3.483,8.839c0,3.445-1.141,6.205-3.423,8.28c-2.283,2.075-5.323,3.123-9.12,3.142H111.876z
				 M111.876,64.307h4.545c1.394,0,2.424-0.404,3.091-1.212c0.666-0.808,0.999-1.828,0.999-3.061c0-1.575-0.374-2.833-1.121-3.771
				c-0.747-0.939-1.737-1.409-2.969-1.409h-4.545V64.307z"/>
			<path fill="#771B85" d="M134.107,45.036c0-1.226,0.391-2.23,1.171-3.011c0.78-0.78,1.82-1.171,3.122-1.171
				c1.3,0,2.341,0.391,3.121,1.171c0.781,0.78,1.171,1.784,1.171,3.011c0,1.208-0.386,2.211-1.156,3.01
				c-0.771,0.8-1.817,1.199-3.136,1.199c-1.32,0-2.365-0.399-3.137-1.199C134.493,47.247,134.107,46.244,134.107,45.036z
				 M142.386,83h-7.916V52.841h7.916V83z"/>
			<path fill="#771B85" d="M159.389,77.063c2.286,0,3.447-1.505,3.484-4.516h7.414c-0.037,3.289-1.05,5.947-3.038,7.973
				c-1.988,2.025-4.553,3.038-7.693,3.038c-3.884,0-6.848-1.208-8.892-3.624c-2.044-2.415-3.085-5.974-3.122-10.676v-2.396
				c0-4.739,1.008-8.352,3.024-10.844c2.017-2.489,4.994-3.734,8.934-3.734c3.326,0,5.946,1.026,7.86,3.08
				c1.914,2.054,2.89,4.966,2.927,8.738h-7.414c-0.018-1.709-0.298-3.024-0.836-3.943c-0.539-0.92-1.432-1.381-2.676-1.381
				c-1.376,0-2.36,0.491-2.955,1.473c-0.595,0.981-0.91,2.884-0.947,5.707v3.085c0,2.469,0.12,4.193,0.362,5.175
				c0.241,0.981,0.641,1.701,1.198,2.159S158.366,77.063,159.389,77.063z"/>
			<path fill="#771B85" d="M189.075,83c-0.223-0.464-0.446-1.245-0.669-2.342c-1.412,1.934-3.326,2.899-5.742,2.899
				c-2.527,0-4.623-0.836-6.285-2.509c-1.664-1.673-2.495-3.837-2.495-6.494c0-3.159,1.008-5.604,3.024-7.331
				c2.016-1.729,4.92-2.61,8.711-2.648h2.396V62.15c0-1.356-0.232-2.313-0.696-2.871c-0.465-0.558-1.144-0.836-2.035-0.836
				c-1.97,0-2.954,1.152-2.954,3.456h-7.889c0-2.787,1.045-5.087,3.136-6.898c2.091-1.813,4.733-2.718,7.93-2.718
				c3.308,0,5.868,0.859,7.68,2.578c1.812,1.719,2.718,4.177,2.718,7.373v14.187c0.037,2.602,0.408,4.637,1.115,6.104V83H189.075z
				 M184.42,77.369c0.873,0,1.617-0.176,2.23-0.529c0.613-0.353,1.068-0.771,1.365-1.254v-6.272h-1.895
				c-1.338,0-2.393,0.428-3.163,1.282c-0.771,0.855-1.157,1.998-1.157,3.429C181.8,76.255,182.673,77.369,184.42,77.369z"/>
			<path fill="#771B85" d="M216.503,60.45l-2.62-0.224c-2.156,0-3.614,0.948-4.376,2.844V83h-7.917V52.841h7.442l0.224,3.261
				c1.244-2.546,2.964-3.818,5.156-3.818c0.892,0,1.617,0.121,2.174,0.362L216.503,60.45z"/>
			<path fill="#771B85" d="M218.955,67c0-4.942,0.837-8.631,2.509-11.065c1.673-2.435,4.106-3.651,7.303-3.651
				c2.323,0,4.256,1.003,5.798,3.01V44h7.944v39h-7.163l-0.363-3.066c-1.616,2.416-3.697,3.624-6.243,3.624
				c-3.159,0-5.57-1.208-7.233-3.624c-1.663-2.415-2.514-5.965-2.551-10.647V67z M226.871,68.979c0,2.974,0.316,5.05,0.948,6.229
				c0.632,1.181,1.7,1.771,3.205,1.771c1.562,0,2.741-0.697,3.54-2.091v-13.77c-0.78-1.486-1.951-2.23-3.512-2.23
				c-1.449,0-2.509,0.586-3.178,1.757c-0.669,1.17-1.004,3.252-1.004,6.243V68.979z"/>
		</g>
	</g>
	<g>
		<path fill="#EB743B" d="M108.835,17.469l3.177,12.059l3.178-12.059h5.752v17.966h-4.38v-3.578l0.416-8.358l-3.531,11.937h-2.884
			l-3.516-11.875l0.416,8.297v3.578h-4.364V17.469H108.835z"/>
		<path fill="#EB743B" d="M131.385,34.03c-0.833,1.125-1.949,1.688-3.349,1.688c-1.409,0-2.479-0.485-3.207-1.455
			c-0.729-0.969-1.092-2.381-1.092-4.234v-9.946h4.015v10.045c0.02,1.495,0.516,2.242,1.49,2.242c0.917,0,1.579-0.397,1.986-1.192
			V20.083h4.043v15.352h-3.773L131.385,34.03z"/>
		<path fill="#EB743B" d="M144.935,31.32c0-0.341-0.164-0.655-0.49-0.943c-0.326-0.289-1.052-0.679-2.178-1.171
			c-1.655-0.672-2.793-1.366-3.412-2.086c-0.619-0.719-0.93-1.612-0.93-2.681c0-1.344,0.485-2.452,1.455-3.327
			c0.969-0.875,2.253-1.313,3.852-1.313c1.684,0,3.031,0.435,4.044,1.305c1.012,0.871,1.518,2.039,1.518,3.505h-4.015
			c0-1.249-0.521-1.873-1.561-1.873c-0.426,0-0.776,0.133-1.051,0.398c-0.274,0.265-0.411,0.634-0.411,1.106
			c0,0.341,0.151,0.641,0.454,0.901c0.303,0.26,1.017,0.631,2.142,1.113c1.636,0.605,2.792,1.279,3.469,2.021
			c0.676,0.743,1.015,1.705,1.015,2.888c0,1.371-0.516,2.474-1.547,3.306c-1.031,0.832-2.384,1.249-4.058,1.249
			c-1.126,0-2.119-0.221-2.979-0.66c-0.86-0.44-1.534-1.052-2.021-1.837c-0.487-0.785-0.73-1.632-0.73-2.54h3.816
			c0.019,0.7,0.182,1.225,0.489,1.575c0.308,0.35,0.811,0.524,1.511,0.524C144.395,32.781,144.935,32.294,144.935,31.32z"/>
		<path fill="#EB743B" d="M151.332,16.11c0-0.624,0.199-1.135,0.597-1.532c0.396-0.397,0.927-0.596,1.589-0.596
			c0.662,0,1.191,0.199,1.589,0.596c0.398,0.398,0.596,0.908,0.596,1.532c0,0.615-0.196,1.126-0.589,1.532
			c-0.393,0.407-0.925,0.61-1.596,0.61c-0.672,0-1.204-0.203-1.597-0.61C151.528,17.236,151.332,16.726,151.332,16.11z
			 M155.546,35.435h-4.029V20.083h4.029V35.435z"/>
		<path fill="#EB743B" d="M164.201,32.412c1.163,0,1.755-0.766,1.773-2.298h3.774c-0.019,1.674-0.535,3.026-1.547,4.058
			c-1.012,1.031-2.317,1.547-3.916,1.547c-1.977,0-3.485-0.615-4.525-1.845c-1.041-1.229-1.57-3.041-1.59-5.434V27.22
			c0-2.412,0.514-4.251,1.54-5.518c1.026-1.268,2.542-1.901,4.547-1.901c1.693,0,3.026,0.522,4.001,1.567
			c0.975,1.045,1.471,2.528,1.49,4.448h-3.774c-0.01-0.87-0.151-1.539-0.426-2.008c-0.274-0.468-0.729-0.702-1.362-0.702
			c-0.699,0-1.201,0.25-1.504,0.749c-0.303,0.5-0.463,1.469-0.481,2.905v1.57c0,1.256,0.061,2.134,0.184,2.634
			c0.123,0.5,0.327,0.866,0.61,1.099C163.279,32.296,163.681,32.412,164.201,32.412z"/>
		<path fill="#EB743B" d="M171.977,35.435V17.469h6.106c2.098,0,3.699,0.424,4.804,1.271c1.105,0.849,1.658,2.08,1.658,3.694
			c0,0.915-0.2,1.711-0.602,2.39c-0.4,0.679-0.992,1.178-1.773,1.496c0.843,0.247,1.496,0.717,1.959,1.411
			c0.462,0.694,0.693,1.545,0.693,2.553c0,1.788-0.519,3.095-1.558,3.917c-1.038,0.822-2.601,1.233-4.688,1.233H171.977z
			 M176.341,24.933h2.098c1.161-0.031,1.742-0.647,1.742-1.851c0-0.71-0.145-1.216-0.432-1.52c-0.288-0.303-0.73-0.454-1.326-0.454
			h-2.082V24.933z M176.341,27.971v3.871h2.236c0.606,0,1.071-0.165,1.396-0.496c0.323-0.33,0.485-0.784,0.485-1.362
			c0-1.301-0.524-1.972-1.572-2.013H176.341z"/>
		<path fill="#EB743B" d="M195.064,23.957l-1.334-0.114c-1.098,0-1.84,0.482-2.228,1.447v10.145h-4.029V20.083h3.788l0.113,1.66
			c0.634-1.296,1.509-1.943,2.625-1.943c0.454,0,0.823,0.061,1.107,0.185L195.064,23.957z"/>
		<path fill="#EB743B" d="M203.987,35.435c-0.113-0.236-0.227-0.634-0.341-1.191c-0.719,0.983-1.693,1.476-2.923,1.476
			c-1.286,0-2.353-0.426-3.199-1.277c-0.847-0.852-1.27-1.953-1.27-3.306c0-1.608,0.513-2.851,1.539-3.731
			c1.026-0.88,2.505-1.329,4.434-1.348h1.221v-1.234c0-0.691-0.118-1.178-0.354-1.462c-0.236-0.283-0.582-0.425-1.036-0.425
			c-1.003,0-1.504,0.586-1.504,1.759h-4.015c0-1.419,0.531-2.589,1.596-3.512c1.064-0.922,2.409-1.383,4.036-1.383
			c1.684,0,2.987,0.438,3.909,1.313c0.922,0.875,1.383,2.126,1.383,3.752v7.222c0.02,1.324,0.208,2.36,0.568,3.108v0.241H203.987z
			 M201.618,32.568c0.444,0,0.822-0.09,1.135-0.27c0.313-0.18,0.544-0.393,0.695-0.639v-3.191h-0.965
			c-0.681,0-1.218,0.217-1.61,0.652c-0.393,0.435-0.589,1.017-0.589,1.745C200.284,32.001,200.729,32.568,201.618,32.568z"/>
		<path fill="#EB743B" d="M210.371,16.11c0-0.624,0.199-1.135,0.597-1.532c0.396-0.397,0.927-0.596,1.589-0.596
			c0.662,0,1.191,0.199,1.589,0.596c0.398,0.398,0.596,0.908,0.596,1.532c0,0.615-0.196,1.126-0.589,1.532
			c-0.393,0.407-0.925,0.61-1.596,0.61c-0.672,0-1.204-0.203-1.597-0.61C210.567,17.236,210.371,16.726,210.371,16.11z
			 M214.585,35.435h-4.029V20.083h4.029V35.435z"/>
		<path fill="#EB743B" d="M221.367,20.083l0.113,1.519c0.908-1.201,2.096-1.802,3.562-1.802c2.639,0,3.996,1.849,4.072,5.547v10.088
			h-4.029v-9.79c0-0.87-0.131-1.501-0.391-1.894c-0.26-0.393-0.717-0.589-1.369-0.589c-0.729,0-1.296,0.374-1.702,1.121v11.151
			h-4.029V20.083H221.367z"/>
		<path fill="#EB743B" d="M236.435,32.129h6.072v3.306h-10.84v-2.49l5.931-9.513h-5.788v-3.349h10.612v2.427L236.435,32.129z"/>
	</g>
</g>
</svg>
