<?xml version="1.0" encoding="utf-8"?>
<!-- Generator: Adobe Illustrator 17.0.0, SVG Export Plug-In . SVG Version: 6.00 Build 0)  -->
<!DOCTYPE svg PUBLIC "-//W3C//DTD SVG 1.1//EN" "http://www.w3.org/Graphics/SVG/1.1/DTD/svg11.dtd">
<svg version="1.1" id="Layer_1" xmlns="http://www.w3.org/2000/svg" xmlns:xlink="http://www.w3.org/1999/xlink" x="0px" y="0px"
	 width="145px" height="175px" viewBox="0 0 145 175" enable-background="new 0 0 145 175" xml:space="preserve">
<g>
</g>
<g>
	<g>
		<polygon fill="#EB743B" points="74.5,3 74.5,99 115.5,75 115.5,27 		"/>
		<polygon fill="#771B85" points="71.5,3 30.5,27 30.5,75 71.5,99 		"/>
		<path fill="#FFFEDB" d="M106.781,59.087c-1.239-1.97-3.38-3.148-5.718-3.148c-0.666,0-1.324,0.103-1.956,0.295
			c-2.632-3.125-5.819-4.775-8.603-5.636c2.235-1.714,4.208-3.771,5.909-6.153c1.74,0.394,3.63,0.127,5.162-0.832
			c3.158-2.006,4.103-6.197,2.104-9.348c-1.249-1.975-3.39-3.152-5.724-3.152c-1.283,0-2.533,0.363-3.616,1.05
			c-3.146,1.991-4.093,6.181-2.105,9.336c0.13,0.207,0.271,0.404,0.422,0.596c-2.514,3.442-5.708,6.056-9.519,7.785l-0.014,0.004
			C79.593,51.487,77.5,52,74.5,52v5c4,0,5.931-1.125,10.016-2.898c1.366-0.024,6.962,0.184,10.991,4.747
			c-1.507,2.164-1.655,5.108-0.16,7.471c1.241,1.97,3.382,3.15,5.721,3.15c1.278,0,2.524-0.36,3.607-1.044
			c1.538-0.975,2.599-2.482,2.995-4.252C108.066,62.413,107.748,60.606,106.781,59.087z M96.561,35.67
			c0.423-0.266,0.901-0.405,1.396-0.405c0.903,0,1.731,0.456,2.219,1.224c0.772,1.214,0.403,2.836-0.818,3.61
			c-0.41,0.261-0.896,0.399-1.387,0.399c-0.493,0-0.974-0.134-1.39-0.391c-0.343-0.213-0.625-0.489-0.832-0.817
			C94.978,38.064,95.342,36.443,96.561,35.67z M103.619,63.27c-0.154,0.687-0.564,1.27-1.161,1.645
			c-0.413,0.264-0.896,0.406-1.391,0.406c-0.906,0-1.731-0.457-2.21-1.218c-0.745-1.18-0.441-2.727,0.691-3.528l0.117-0.078
			c1.208-0.766,2.866-0.367,3.608,0.808C103.651,61.896,103.771,62.591,103.619,63.27z"/>
		<g>
			<path fill="#B66BC2" d="M55.625,27.467l-12.1,5.832l-6.564,35.289l11.56-2.932l9.73,6.893l6.567-35.29L55.625,27.467z
				 M52.585,43.54c-2.034-0.379-3.378-2.336-2.999-4.37c0.379-2.037,2.336-3.38,4.371-3.001c2.036,0.379,3.379,2.336,3.002,4.373
				C56.579,42.576,54.621,43.919,52.585,43.54z"/>
			<path fill="#FFFEDB" d="M63.852,27.587c-2.783,0.86-5.971,2.511-8.603,5.636c-0.632-0.192-1.29-0.295-1.956-0.295
				c-2.338,0-4.479,1.179-5.718,3.148c-0.967,1.52-1.285,3.326-0.889,5.087c0.396,1.769,1.457,3.277,2.995,4.252
				c1.083,0.684,2.329,1.044,3.608,1.044c2.339,0,4.479-1.181,5.721-3.15c1.495-2.362,1.347-5.307-0.16-7.471
				c4.029-4.562,11.284-5.021,12.65-4.998v-4.442C69.042,26.251,66.635,26.727,63.852,27.587z M51.082,38.293
				c0.742-1.175,2.4-1.573,3.608-0.808l0.117,0.078c1.133,0.802,1.437,2.349,0.691,3.528c-0.479,0.761-1.304,1.218-2.21,1.218
				c-0.494,0-0.978-0.143-1.391-0.406c-0.597-0.375-1.007-0.958-1.161-1.645C50.585,39.58,50.705,38.885,51.082,38.293z"/>
		</g>
	</g>
	<g>
		<g>
			<path fill="#771B85" d="M11.4,161.115v11.635H2.826v-35.297h13.119c3.777,0,6.828,1.134,9.15,3.4s3.484,5.213,3.484,8.839
				c0,3.445-1.141,6.205-3.424,8.28c-2.283,2.075-5.322,3.123-9.119,3.143H11.4z M11.4,154.057h4.545
				c1.394,0,2.424-0.404,3.092-1.212c0.666-0.808,0.998-1.828,0.998-3.061c0-1.575-0.373-2.833-1.121-3.771
				c-0.746-0.939-1.736-1.409-2.969-1.409H11.4V154.057z"/>
			<path fill="#771B85" d="M33.633,134.786c0-1.227,0.391-2.23,1.17-3.011c0.781-0.78,1.82-1.171,3.123-1.171
				c1.299,0,2.34,0.391,3.121,1.171c0.781,0.78,1.17,1.784,1.17,3.011c0,1.208-0.385,2.211-1.156,3.01
				c-0.771,0.8-1.816,1.199-3.135,1.199c-1.32,0-2.365-0.399-3.137-1.199C34.018,136.997,33.633,135.994,33.633,134.786z
				 M41.91,172.75h-7.916v-30.159h7.916V172.75z"/>
			<path fill="#771B85" d="M58.914,166.813c2.285,0,3.447-1.505,3.484-4.516h7.414c-0.037,3.289-1.051,5.947-3.039,7.973
				c-1.988,2.025-4.553,3.038-7.693,3.038c-3.883,0-6.848-1.208-8.891-3.624c-2.045-2.415-3.086-5.974-3.123-10.676v-2.396
				c0-4.739,1.008-8.352,3.025-10.844c2.016-2.489,4.994-3.734,8.934-3.734c3.326,0,5.945,1.026,7.859,3.08
				c1.914,2.054,2.891,4.966,2.928,8.738h-7.414c-0.02-1.709-0.299-3.023-0.836-3.943c-0.539-0.92-1.432-1.381-2.676-1.381
				c-1.377,0-2.361,0.491-2.955,1.473c-0.596,0.981-0.91,2.884-0.947,5.707v3.085c0,2.469,0.119,4.193,0.361,5.175
				s0.641,1.701,1.199,2.159C57.102,166.584,57.891,166.813,58.914,166.813z"/>
			<path fill="#771B85" d="M88.6,172.75c-0.223-0.464-0.445-1.245-0.668-2.342c-1.412,1.934-3.326,2.899-5.742,2.899
				c-2.527,0-4.623-0.836-6.285-2.509c-1.664-1.673-2.496-3.837-2.496-6.494c0-3.159,1.008-5.604,3.025-7.331
				c2.016-1.729,4.92-2.61,8.711-2.648h2.396V151.9c0-1.357-0.232-2.314-0.697-2.871c-0.465-0.558-1.143-0.836-2.035-0.836
				c-1.969,0-2.953,1.152-2.953,3.456h-7.889c0-2.787,1.045-5.087,3.135-6.898c2.092-1.813,4.734-2.718,7.93-2.718
				c3.308,0,5.869,0.859,7.68,2.578c1.813,1.719,2.719,4.177,2.719,7.373v14.188c0.037,2.602,0.408,4.637,1.115,6.104v0.474H88.6z
				 M83.945,167.119c0.873,0,1.617-0.176,2.23-0.529c0.613-0.352,1.068-0.77,1.365-1.254v-6.272h-1.896
				c-1.338,0-2.393,0.428-3.162,1.282c-0.771,0.855-1.158,1.998-1.158,3.429C81.324,166.005,82.197,167.119,83.945,167.119z"/>
			<path fill="#771B85" d="M116.027,150.2l-2.619-0.224c-2.156,0-3.615,0.948-4.377,2.844v19.93h-7.916v-30.159h7.441l0.225,3.261
				c1.244-2.546,2.963-3.818,5.156-3.818c0.891,0,1.617,0.121,2.174,0.362L116.027,150.2z"/>
			<path fill="#771B85" d="M118.48,156.75c0-4.942,0.837-8.631,2.509-11.065c1.673-2.435,4.106-3.651,7.303-3.651
				c2.323,0,4.256,1.003,5.798,3.01V133.75h7.944v39h-7.163l-0.363-3.066c-1.616,2.416-3.697,3.624-6.243,3.624
				c-3.159,0-5.57-1.208-7.233-3.624c-1.663-2.415-2.514-5.965-2.551-10.647V156.75z M126.396,158.73
				c0,2.974,0.316,5.05,0.948,6.229c0.632,1.181,1.7,1.771,3.205,1.771c1.561,0,2.741-0.697,3.54-2.091v-13.77
				c-0.78-1.486-1.951-2.23-3.512-2.23c-1.449,0-2.509,0.586-3.178,1.757c-0.669,1.17-1.004,3.252-1.004,6.243V158.73z"/>
		</g>
	</g>
	<g>
		<path fill="#EB743B" d="M8.608,107.219l3.177,12.059l3.178-12.059h5.752v17.966h-4.38v-3.578l0.416-8.358l-3.531,11.937h-2.884
			L6.82,113.31l0.416,8.297v3.578H2.872v-17.966H8.608z"/>
		<path fill="#EB743B" d="M31.158,123.78c-0.833,1.125-1.949,1.689-3.349,1.689c-1.409,0-2.479-0.485-3.207-1.455
			c-0.729-0.969-1.092-2.381-1.092-4.234v-9.946h4.015v10.045c0.02,1.495,0.516,2.242,1.49,2.242c0.917,0,1.579-0.397,1.986-1.192
			v-11.095h4.043v15.352h-3.773L31.158,123.78z"/>
		<path fill="#EB743B" d="M44.708,121.07c0-0.341-0.164-0.655-0.49-0.943c-0.326-0.289-1.052-0.679-2.178-1.171
			c-1.655-0.672-2.793-1.366-3.412-2.086c-0.619-0.719-0.93-1.612-0.93-2.681c0-1.344,0.485-2.452,1.455-3.327
			c0.969-0.875,2.253-1.313,3.852-1.313c1.684,0,3.031,0.435,4.044,1.305c1.012,0.871,1.518,2.039,1.518,3.505h-4.015
			c0-1.249-0.521-1.873-1.561-1.873c-0.426,0-0.776,0.133-1.051,0.397c-0.274,0.265-0.411,0.634-0.411,1.106
			c0,0.341,0.151,0.641,0.454,0.901c0.303,0.26,1.017,0.631,2.143,1.113c1.636,0.605,2.792,1.279,3.469,2.021
			c0.676,0.743,1.015,1.705,1.015,2.888c0,1.371-0.516,2.474-1.547,3.306c-1.031,0.832-2.384,1.249-4.058,1.249
			c-1.126,0-2.119-0.221-2.98-0.66c-0.86-0.439-1.534-1.052-2.021-1.837c-0.487-0.785-0.73-1.632-0.73-2.54h3.816
			c0.019,0.7,0.182,1.225,0.489,1.575c0.308,0.35,0.81,0.525,1.511,0.525C44.168,122.531,44.708,122.044,44.708,121.07z"/>
		<path fill="#EB743B" d="M51.105,105.86c0-0.624,0.199-1.135,0.597-1.532c0.396-0.396,0.927-0.596,1.589-0.596
			c0.662,0,1.191,0.199,1.589,0.596c0.397,0.397,0.596,0.908,0.596,1.532c0,0.615-0.196,1.126-0.589,1.532
			c-0.393,0.407-0.925,0.61-1.596,0.61c-0.672,0-1.204-0.203-1.597-0.61C51.302,106.986,51.105,106.476,51.105,105.86z
			 M55.319,125.185H51.29v-15.352h4.029V125.185z"/>
		<path fill="#EB743B" d="M63.975,122.162c1.163,0,1.755-0.766,1.773-2.298h3.774c-0.02,1.674-0.535,3.026-1.547,4.058
			c-1.012,1.031-2.317,1.547-3.916,1.547c-1.977,0-3.485-0.615-4.525-1.845c-1.041-1.229-1.57-3.041-1.59-5.434v-1.221
			c0-2.412,0.514-4.251,1.54-5.519c1.026-1.268,2.542-1.901,4.547-1.901c1.693,0,3.026,0.523,4.001,1.567
			c0.975,1.045,1.471,2.528,1.49,4.448h-3.774c-0.01-0.87-0.151-1.539-0.426-2.008c-0.274-0.468-0.729-0.702-1.362-0.702
			c-0.699,0-1.201,0.25-1.504,0.749c-0.303,0.5-0.463,1.469-0.481,2.905v1.57c0,1.256,0.061,2.134,0.184,2.634
			c0.123,0.5,0.327,0.866,0.61,1.099C63.053,122.046,63.454,122.162,63.975,122.162z"/>
		<path fill="#EB743B" d="M71.75,125.185v-17.966h6.106c2.098,0,3.699,0.424,4.804,1.271c1.105,0.849,1.658,2.08,1.658,3.694
			c0,0.915-0.2,1.711-0.602,2.39c-0.4,0.679-0.992,1.178-1.773,1.496c0.843,0.247,1.496,0.717,1.959,1.411
			c0.462,0.694,0.693,1.545,0.693,2.553c0,1.788-0.519,3.095-1.558,3.917c-1.038,0.822-2.601,1.233-4.688,1.233H71.75z
			 M76.114,114.683h2.098c1.161-0.031,1.742-0.647,1.742-1.851c0-0.71-0.145-1.216-0.432-1.52c-0.288-0.303-0.73-0.454-1.326-0.454
			h-2.082V114.683z M76.114,117.721v3.871h2.236c0.606,0,1.071-0.165,1.396-0.496c0.323-0.33,0.485-0.784,0.485-1.362
			c0-1.301-0.524-1.972-1.572-2.013H76.114z"/>
		<path fill="#EB743B" d="M94.837,113.707l-1.334-0.114c-1.098,0-1.84,0.482-2.228,1.447v10.145h-4.029v-15.352h3.788l0.113,1.66
			c0.634-1.296,1.509-1.943,2.625-1.943c0.454,0,0.823,0.062,1.106,0.185L94.837,113.707z"/>
		<path fill="#EB743B" d="M103.761,125.185c-0.113-0.236-0.226-0.634-0.341-1.191c-0.719,0.983-1.693,1.476-2.923,1.476
			c-1.286,0-2.353-0.426-3.199-1.277c-0.847-0.852-1.27-1.953-1.27-3.306c0-1.608,0.513-2.851,1.539-3.731
			c1.026-0.88,2.505-1.329,4.434-1.348h1.221v-1.234c0-0.691-0.118-1.178-0.354-1.462c-0.236-0.283-0.582-0.425-1.036-0.425
			c-1.003,0-1.504,0.586-1.504,1.759h-4.015c0-1.419,0.531-2.589,1.596-3.512c1.064-0.922,2.409-1.383,4.036-1.383
			c1.684,0,2.987,0.438,3.909,1.313s1.383,2.126,1.383,3.752v7.222c0.02,1.324,0.208,2.36,0.568,3.107v0.241H103.761z
			 M101.392,122.318c0.444,0,0.822-0.09,1.135-0.27c0.313-0.18,0.544-0.392,0.695-0.639v-3.191h-0.965
			c-0.681,0-1.218,0.217-1.61,0.652c-0.393,0.435-0.589,1.017-0.589,1.745C100.058,121.751,100.502,122.318,101.392,122.318z"/>
		<path fill="#EB743B" d="M110.145,105.86c0-0.624,0.199-1.135,0.597-1.532c0.396-0.396,0.927-0.596,1.589-0.596
			s1.191,0.199,1.589,0.596c0.397,0.397,0.596,0.908,0.596,1.532c0,0.615-0.196,1.126-0.589,1.532
			c-0.393,0.407-0.925,0.61-1.596,0.61c-0.672,0-1.204-0.203-1.597-0.61C110.341,106.986,110.145,106.476,110.145,105.86z
			 M114.358,125.185h-4.029v-15.352h4.029V125.185z"/>
		<path fill="#EB743B" d="M121.141,109.833l0.113,1.519c0.908-1.201,2.096-1.802,3.562-1.802c2.639,0,3.996,1.849,4.072,5.547
			v10.088h-4.029v-9.79c0-0.87-0.131-1.501-0.391-1.894c-0.26-0.393-0.717-0.589-1.369-0.589c-0.729,0-1.296,0.374-1.702,1.121
			v11.151h-4.029v-15.352H121.141z"/>
		<path fill="#EB743B" d="M136.208,121.879h6.072v3.306h-10.84v-2.49l5.931-9.513h-5.788v-3.349h10.612v2.427L136.208,121.879z"/>
	</g>
</g>
</svg>
