<?xml version="1.0" encoding="utf-8"?>
<!-- Generator: Adobe Illustrator 16.0.0, SVG Export Plug-In . SVG Version: 6.00 Build 0)  -->
<!DOCTYPE svg PUBLIC "-//W3C//DTD SVG 1.1//EN" "http://www.w3.org/Graphics/SVG/1.1/DTD/svg11.dtd" [
	<!ENTITY ns_extend "http://ns.adobe.com/Extensibility/1.0/">
	<!ENTITY ns_ai "http://ns.adobe.com/AdobeIllustrator/10.0/">
	<!ENTITY ns_graphs "http://ns.adobe.com/Graphs/1.0/">
	<!ENTITY ns_vars "http://ns.adobe.com/Variables/1.0/">
	<!ENTITY ns_imrep "http://ns.adobe.com/ImageReplacement/1.0/">
	<!ENTITY ns_sfw "http://ns.adobe.com/SaveForWeb/1.0/">
	<!ENTITY ns_custom "http://ns.adobe.com/GenericCustomNamespace/1.0/">
	<!ENTITY ns_adobe_xpath "http://ns.adobe.com/XPath/1.0/">
]>
<svg version="1.1" id="Layer_1" xmlns:x="&ns_extend;" xmlns:i="&ns_ai;" xmlns:graph="&ns_graphs;"
	 xmlns="http://www.w3.org/2000/svg" xmlns:xlink="http://www.w3.org/1999/xlink" x="0px" y="0px" width="220px" height="265px"
	 viewBox="0 0 220 265" enable-background="new 0 0 220 265" xml:space="preserve">
<metadata>
	<sfw  xmlns="&ns_sfw;">
		<slices></slices>
		<sliceSourceBounds  height="258.46" width="215.465" y="-949.46" x="3368.242" bottomLeftOrigin="true"></sliceSourceBounds>
	</sfw>
</metadata>
<g>
</g>
<g>
	<g>
		<g>
			<polygon fill="#EB743B" points="111.967,2.457 111.967,146.457 172.967,111.457 172.967,37.457 			"/>
			<polygon fill="#771B85" points="106.967,2.457 45.967,37.457 45.967,111.457 106.967,146.457 			"/>
			<g>
				<g>
					<path fill="#591463" d="M83.427,44.935l-17.973,8.664l-9.75,52.414l17.17-4.354l14.453,10.237l9.754-52.414L83.427,44.935z
						 M79.866,63.442c-3.023-0.563-5.018-3.469-4.455-6.492c0.563-3.024,3.469-5.019,6.492-4.456c3.025,0.563,5.02,3.47,4.457,6.493
						C85.798,62.01,82.89,64.005,79.866,63.442z"/>
					<path fill="#591463" d="M107.005,41.862c-0.201-0.046-0.406-0.094-0.615-0.143c-5.787-1.35-16.445-3.828-24.182,8.8
						c-0.439-0.078-0.887-0.12-1.33-0.12c-3.641,0-6.768,2.602-7.432,6.185c-0.371,1.988,0.055,4,1.199,5.667
						c1.143,1.666,2.867,2.788,4.855,3.157c0.459,0.086,0.926,0.129,1.391,0.129c3.641,0,6.77-2.601,7.436-6.185
						c0.508-2.73-0.533-5.393-2.492-7.097c6.209-9.771,14.258-7.898,19.646-6.642c0.547,0.128,1.053,0.246,1.523,0.345V41.862z
						 M84.396,58.621c-0.355,1.904-2.24,3.208-4.162,2.855c-1.936-0.36-3.215-2.227-2.855-4.161c0.314-1.689,1.785-2.916,3.5-2.916
						c0.221,0,0.441,0.021,0.66,0.061C83.472,54.82,84.753,56.688,84.396,58.621z"/>
				</g>
				<g>
					<path fill="#B66BC2" d="M83.427,42.529l-17.973,8.664l-9.75,52.414l17.17-4.354l14.453,10.237l9.754-52.414L83.427,42.529z
						 M79.866,61.037c-3.023-0.563-5.018-3.469-4.455-6.492c0.563-3.024,3.469-5.019,6.492-4.456c3.025,0.563,5.02,3.47,4.457,6.493
						C85.798,59.604,82.89,61.6,79.866,61.037z"/>
					<path fill="#FFFEDB" d="M107.005,39.457c-0.201-0.046-0.406-0.094-0.615-0.143c-5.787-1.35-16.445-3.828-24.182,8.8
						c-0.439-0.078-0.887-0.12-1.33-0.12c-3.641,0-6.768,2.602-7.432,6.185c-0.371,1.988,0.055,4,1.199,5.667
						c1.143,1.666,2.867,2.788,4.855,3.157c0.459,0.086,0.926,0.129,1.391,0.129c3.641,0,6.77-2.601,7.436-6.185
						c0.508-2.73-0.533-5.393-2.492-7.097c6.209-9.771,14.258-7.898,19.646-6.642c0.547,0.128,1.053,0.246,1.523,0.345V39.457z
						 M84.396,56.216c-0.355,1.904-2.24,3.208-4.162,2.855c-1.936-0.36-3.215-2.227-2.855-4.161c0.314-1.689,1.785-2.916,3.5-2.916
						c0.221,0,0.441,0.021,0.66,0.061C83.472,52.415,84.753,54.282,84.396,56.216z"/>
				</g>
			</g>
			<g>
				<g opacity="0.07">
					<path d="M129.269,94.19c0.386-0.645,1.066-1.03,1.819-1.03c0.378,0,0.752,0.104,1.078,0.297c1,0.601,1.331,1.899,0.735,2.898
						c-0.385,0.646-1.064,1.032-1.817,1.032c-0.379,0-0.755-0.104-1.084-0.301c-0.483-0.288-0.826-0.748-0.964-1.294
						C128.897,95.244,128.98,94.676,129.269,94.19z M141.871,116.553c-0.49,0.421-1.018,0.509-1.373,0.509
						c-0.621,0-1.207-0.269-1.608-0.734c-0.758-0.885-0.654-2.222,0.231-2.981c0.492-0.423,1.018-0.512,1.373-0.512
						c0.617,0,1.201,0.269,1.605,0.74c0.368,0.43,0.547,0.976,0.504,1.538S142.302,116.185,141.871,116.553z"/>
					<path d="M120.968,48.067c0.07,0.019,0.142,0.034,0.212,0.046C121.107,48.102,121.037,48.086,120.968,48.067z"/>
					<path d="M132.347,57.714c0.169-0.267,0.395-0.49,0.673-0.661c0.335-0.207,0.722-0.316,1.121-0.316
						c0.4,0,0.79,0.112,1.122,0.321c0.987,0.627,1.283,1.936,0.66,2.919c-0.392,0.618-1.063,0.988-1.795,0.988
						c-0.397,0-0.785-0.113-1.124-0.327C132.02,60.014,131.726,58.701,132.347,57.714z M138.726,37.526
						c-0.6,0.951-1.938,1.271-2.912,0.653l-0.096-0.063c-0.914-0.647-1.161-1.897-0.558-2.851c0.386-0.613,1.053-0.98,1.784-0.98
						c0.397,0,0.787,0.113,1.124,0.326c0.479,0.304,0.813,0.775,0.937,1.33C139.127,36.488,139.03,37.049,138.726,37.526z"/>
					<path d="M155.492,49.125c0.388-0.614,1.054-0.98,1.783-0.98c0.399,0,0.79,0.113,1.125,0.325c0.48,0.304,0.813,0.775,0.937,1.33
						c0.122,0.546,0.024,1.106-0.279,1.584c-0.598,0.951-1.938,1.272-2.912,0.653l-0.094-0.063
						C155.135,51.328,154.89,50.078,155.492,49.125z M155.492,72.588c0.388-0.614,1.054-0.98,1.783-0.98
						c0.399,0,0.79,0.112,1.125,0.326c0.48,0.304,0.813,0.774,0.937,1.329c0.122,0.546,0.024,1.107-0.279,1.585
						c-0.598,0.95-1.938,1.271-2.912,0.652l-0.094-0.063C155.135,74.791,154.89,73.541,155.492,72.588z M155.492,98.891
						c0.388-0.613,1.054-0.979,1.783-0.979c0.399,0,0.79,0.112,1.125,0.325c0.48,0.304,0.813,0.775,0.937,1.33
						c0.122,0.547,0.024,1.106-0.279,1.584c-0.598,0.951-1.938,1.271-2.912,0.653l-0.094-0.063
						C155.135,101.094,154.89,99.845,155.492,98.891z"/>
					<path d="M145.143,108.561c-1.165-1.36-2.858-2.139-4.648-2.139c-1.459,0-2.875,0.525-3.983,1.477
						c-1.612,1.383-2.326,3.429-2.087,5.397c-1.948,0.7-4.258,1.365-5.328,1.332c-0.821-0.044-1.302-0.346-2.224-0.972
						c-1.172-0.795-2.418-1.512-4.148-1.847c2.936-2.761,6.009-6.83,8.584-12.834c2.061-0.076,3.976-1.193,5.038-2.972
						c1.725-2.896,0.773-6.659-2.124-8.394c-0.949-0.565-2.032-0.864-3.134-0.864c-2.146,0-4.161,1.144-5.261,2.986
						c-0.838,1.405-1.079,3.05-0.678,4.636c0.351,1.393,1.16,2.59,2.302,3.429c-4.053,9.218-9.219,13.081-12.565,14.685
						c-0.128,0.045-0.248,0.101-0.36,0.168c-1.187,0.531-2.05,0.704-2.559,0.808v4c0.275-0.03,1.885-0.118,4.247-1.192
						c5.348-1.357,6.839-0.354,8.407,0.709c1.021,0.692,2.291,1.554,4.263,1.656c0.1,0.005,0.204,0.008,0.309,0.008
						c2.109,0,5.172-1.022,7.021-1.723c1.144,1.116,2.676,1.75,4.285,1.75l0,0c1.461,0,2.876-0.524,3.983-1.476
						c1.24-1.062,1.993-2.546,2.118-4.176C146.725,111.382,146.207,109.799,145.143,108.561z M129.269,91.785
						c0.386-0.645,1.066-1.03,1.819-1.03c0.378,0,0.752,0.104,1.078,0.297c1,0.601,1.331,1.899,0.735,2.898
						c-0.385,0.646-1.064,1.032-1.817,1.032c-0.379,0-0.755-0.104-1.084-0.301c-0.483-0.288-0.826-0.748-0.964-1.294
						C128.897,92.839,128.98,92.271,129.269,91.785z M141.871,114.147c-0.49,0.421-1.018,0.509-1.373,0.509
						c-0.621,0-1.207-0.269-1.608-0.734c-0.758-0.885-0.654-2.222,0.231-2.981c0.492-0.423,1.018-0.512,1.373-0.512
						c0.617,0,1.201,0.269,1.605,0.74c0.368,0.43,0.547,0.976,0.504,1.538S142.302,113.779,141.871,114.147z"/>
					<path d="M120.968,45.662c0.07,0.019,0.142,0.034,0.212,0.046C121.107,45.696,121.037,45.681,120.968,45.662z"/>
					<path d="M142.917,32.661c-0.357-1.599-1.317-2.964-2.708-3.844c-0.98-0.617-2.109-0.944-3.265-0.944
						c-2.117,0-4.053,1.066-5.174,2.85c-1.354,2.138-1.218,4.799,0.144,6.759c-3.646,4.124-8.706,4.313-9.942,4.293
						c-3.692-1.604-7.234-2.164-10.005-2.317v3.996c2.441,0.144,5.553,0.686,8.748,2.136c0.005,0.002,0.01,0.002,0.015,0.005
						c3.445,1.563,6.334,3.928,8.607,7.041c-0.136,0.173-0.265,0.352-0.382,0.538c-1.796,2.854-0.942,6.644,1.903,8.444
						c0.98,0.622,2.111,0.951,3.27,0.951c2.113,0,4.051-1.065,5.183-2.852c1.806-2.851,0.951-6.642-1.908-8.453
						c-1.384-0.871-3.092-1.113-4.667-0.755c-1.538-2.154-3.323-4.017-5.345-5.566c2.517-0.778,5.401-2.269,7.78-5.096
						c0.572,0.172,1.166,0.267,1.77,0.267c2.116,0,4.051-1.068,5.172-2.849C142.987,35.89,143.273,34.256,142.917,32.661z
						 M132.347,55.309c0.169-0.267,0.395-0.49,0.673-0.661c0.335-0.207,0.722-0.316,1.121-0.316c0.4,0,0.79,0.112,1.122,0.321
						c0.987,0.627,1.283,1.936,0.66,2.919c-0.392,0.618-1.063,0.988-1.795,0.988c-0.397,0-0.785-0.113-1.124-0.327
						C132.02,57.608,131.726,56.296,132.347,55.309z M138.726,35.121c-0.6,0.951-1.938,1.271-2.912,0.653l-0.096-0.063
						c-0.914-0.647-1.161-1.897-0.558-2.851c0.386-0.613,1.053-0.98,1.784-0.98c0.397,0,0.787,0.113,1.124,0.326
						c0.479,0.304,0.813,0.775,0.937,1.33C139.127,34.083,139.03,34.644,138.726,35.121z"/>
					<path d="M151.612,73.645c0.425,1.035,1.136,1.962,2.109,2.649c0.072,0.052,0.151,0.105,0.283,0.191
						c0.981,0.621,2.11,0.949,3.268,0.949c2.116,0,4.052-1.068,5.173-2.849c0.875-1.375,1.16-3.01,0.805-4.604
						c-0.358-1.598-1.318-2.964-2.709-3.844c-0.98-0.617-2.109-0.944-3.266-0.944c-0.125,0-0.25,0.008-0.375,0.018
						c-0.71-3.157-0.919-7.769,0.035-11.265c0.112,0.011,0.225,0.024,0.337,0.024c2.116,0,4.052-1.067,5.173-2.849
						c0.875-1.375,1.16-3.009,0.805-4.604c-0.358-1.599-1.318-2.964-2.709-3.844c-0.98-0.617-2.109-0.944-3.266-0.944
						c-2.114,0-4.051,1.066-5.173,2.85c-1.604,2.532-1.12,5.804,1.024,7.765c0.021,0.02,0.048,0.037,0.071,0.059
						c-1.349,4.518-1.146,10.324-0.036,14.417c-0.144,0.132-0.294,0.254-0.426,0.399c-0.229,0.255-0.445,0.526-0.634,0.824
						c-0.318,0.502-0.551,1.033-0.71,1.578c-3.371,0.488-5.198,1.671-6.824,2.729c-2.035,1.324-3.961,2.572-9.636,2.665
						c-1.964-0.23-3.553-0.177-5.29-0.116c-1.431,0.052-2.91,0.106-4.849,0.003c-1.335-0.071-2.104-0.882-3.458-2.424
						c-1.803-2.055-4.219-4.648-9.369-5.022v4c3.295,0.3,4.796,1.888,6.356,3.667c1.487,1.694,3.175,3.615,6.256,3.782
						c2.118,0.114,3.76,0.052,5.208,0.001c2.491-0.092,4.453-0.161,7.855,0.684c2.607,0.643,12.099,9.673,14.773,14.322
						c-0.108,0.142-0.219,0.282-0.313,0.434c-1.743,2.755-1.026,6.385,1.619,8.251c0.072,0.052,0.151,0.104,0.283,0.191
						c0.981,0.621,2.11,0.948,3.268,0.948c2.116,0,4.052-1.068,5.173-2.849c0.875-1.374,1.16-3.009,0.805-4.603
						c-0.358-1.6-1.318-2.965-2.709-3.845c-0.98-0.617-2.109-0.944-3.266-0.944c-0.528,0-1.047,0.067-1.543,0.195
						c-2.561-4.187-8.652-10.455-13.189-13.792c1.813-0.628,3.05-1.435,4.212-2.188C148.183,74.782,149.369,74.021,151.612,73.645z
						 M155.492,46.72c0.388-0.614,1.054-0.98,1.783-0.98c0.399,0,0.79,0.113,1.125,0.325c0.48,0.304,0.813,0.775,0.937,1.33
						c0.122,0.546,0.024,1.106-0.279,1.584c-0.598,0.951-1.938,1.272-2.912,0.653l-0.094-0.063
						C155.135,48.923,154.89,47.673,155.492,46.72z M155.492,70.183c0.388-0.614,1.054-0.98,1.783-0.98
						c0.399,0,0.79,0.112,1.125,0.326c0.48,0.304,0.813,0.774,0.937,1.329c0.122,0.546,0.024,1.107-0.279,1.585
						c-0.598,0.95-1.938,1.271-2.912,0.652l-0.094-0.063C155.135,72.386,154.89,71.136,155.492,70.183z M155.492,96.485
						c0.388-0.613,1.054-0.979,1.783-0.979c0.399,0,0.79,0.112,1.125,0.325c0.48,0.304,0.813,0.775,0.937,1.33
						c0.122,0.547,0.024,1.106-0.279,1.584c-0.598,0.951-1.938,1.271-2.912,0.653l-0.094-0.063
						C155.135,98.688,154.89,97.439,155.492,96.485z"/>
				</g>
				<g>
					<g>
						<path fill="#D3562C" d="M145.143,111.561c-1.165-1.36-2.858-2.139-4.648-2.139c-1.459,0-2.875,0.525-3.983,1.477
							c-1.612,1.383-2.326,3.429-2.087,5.397c-1.948,0.7-4.258,1.365-5.328,1.332c-0.821-0.044-1.302-0.346-2.224-0.972
							c-1.172-0.795-2.418-1.512-4.148-1.847c2.936-2.761,6.009-6.83,8.584-12.834c2.061-0.076,3.976-1.193,5.038-2.972
							c1.725-2.896,0.773-6.659-2.124-8.394c-0.949-0.565-2.032-0.864-3.134-0.864c-2.146,0-4.161,1.144-5.261,2.986
							c-0.838,1.405-1.079,3.05-0.678,4.636c0.351,1.393,1.16,2.59,2.302,3.429c-4.053,9.218-9.219,13.081-12.565,14.685
							c-0.128,0.045-0.248,0.101-0.36,0.168c-1.187,0.531-2.05,0.704-2.559,0.808v4c0.275-0.03,1.885-0.118,4.247-1.192
							c5.348-1.357,6.839-0.354,8.407,0.709c1.021,0.692,2.291,1.554,4.263,1.656c0.1,0.005,0.204,0.008,0.309,0.008
							c2.109,0,5.172-1.022,7.021-1.723c1.144,1.116,2.676,1.75,4.285,1.75l0,0c1.461,0,2.876-0.524,3.983-1.476
							c1.24-1.062,1.993-2.546,2.118-4.176C146.725,114.382,146.207,112.799,145.143,111.561z M129.269,94.785
							c0.386-0.645,1.066-1.03,1.819-1.03c0.378,0,0.752,0.104,1.078,0.297c1,0.601,1.331,1.899,0.735,2.898
							c-0.385,0.646-1.064,1.032-1.817,1.032c-0.379,0-0.755-0.104-1.084-0.301c-0.483-0.288-0.826-0.748-0.964-1.294
							C128.897,95.839,128.98,95.271,129.269,94.785z M141.871,117.147c-0.49,0.421-1.018,0.509-1.373,0.509
							c-0.621,0-1.207-0.269-1.608-0.734c-0.758-0.885-0.654-2.222,0.231-2.981c0.492-0.423,1.018-0.512,1.373-0.512
							c0.617,0,1.201,0.269,1.605,0.74c0.368,0.43,0.547,0.976,0.504,1.538S142.302,116.779,141.871,117.147z"/>
						<path d="M120.968,48.067c0.07,0.019,0.142,0.034,0.212,0.046C121.107,48.102,121.037,48.086,120.968,48.067z"/>
						<path fill="#D3562C" d="M142.917,35.665c-0.357-1.599-1.317-2.964-2.708-3.844c-0.98-0.617-2.109-0.944-3.265-0.944
							c-2.117,0-4.053,1.066-5.174,2.85c-1.354,2.138-1.218,4.799,0.144,6.759c-3.646,4.124-8.706,4.313-9.942,4.293
							c-3.692-1.604-7.234-2.164-10.005-2.317v3.996c2.441,0.144,5.553,0.686,8.748,2.136c0.005,0.002,0.01,0.002,0.015,0.005
							c3.445,1.563,6.334,3.928,8.607,7.041c-0.136,0.173-0.265,0.352-0.382,0.538c-1.796,2.854-0.942,6.644,1.903,8.444
							c0.98,0.622,2.111,0.951,3.27,0.951c2.113,0,4.051-1.065,5.183-2.852c1.806-2.851,0.951-6.642-1.908-8.453
							c-1.384-0.871-3.092-1.113-4.667-0.755c-1.538-2.154-3.323-4.017-5.345-5.566c2.517-0.778,5.401-2.269,7.78-5.096
							c0.572,0.172,1.166,0.267,1.77,0.267c2.116,0,4.051-1.068,5.172-2.849C142.987,38.894,143.273,37.26,142.917,35.665z
							 M132.347,58.313c0.169-0.267,0.395-0.49,0.673-0.661c0.335-0.207,0.722-0.316,1.121-0.316c0.4,0,0.79,0.112,1.122,0.321
							c0.987,0.627,1.283,1.936,0.66,2.919c-0.392,0.618-1.063,0.988-1.795,0.988c-0.397,0-0.785-0.113-1.124-0.327
							C132.02,60.612,131.726,59.3,132.347,58.313z M138.726,38.125c-0.6,0.951-1.938,1.271-2.912,0.653l-0.096-0.063
							c-0.914-0.647-1.161-1.897-0.558-2.851c0.386-0.613,1.053-0.98,1.784-0.98c0.397,0,0.787,0.113,1.124,0.326
							c0.479,0.304,0.813,0.775,0.937,1.33C139.127,37.087,139.03,37.647,138.726,38.125z"/>
						<path fill="#D3562C" d="M151.612,76.645c0.425,1.035,1.136,1.962,2.109,2.649c0.072,0.052,0.151,0.105,0.283,0.191
							c0.981,0.621,2.11,0.949,3.268,0.949c2.116,0,4.052-1.068,5.173-2.849c0.875-1.375,1.16-3.01,0.805-4.604
							c-0.358-1.598-1.318-2.964-2.709-3.844c-0.98-0.617-2.109-0.944-3.266-0.944c-0.125,0-0.25,0.008-0.375,0.018
							c-0.71-3.157-0.919-7.769,0.035-11.265c0.112,0.011,0.225,0.024,0.337,0.024c2.116,0,4.052-1.067,5.173-2.849
							c0.875-1.375,1.16-3.009,0.805-4.604c-0.358-1.599-1.318-2.964-2.709-3.844c-0.98-0.617-2.109-0.944-3.266-0.944
							c-2.114,0-4.051,1.066-5.173,2.85c-1.604,2.532-1.12,5.804,1.024,7.765c0.021,0.02,0.048,0.037,0.071,0.059
							c-1.349,4.518-1.146,10.324-0.036,14.417c-0.144,0.132-0.294,0.254-0.426,0.399c-0.229,0.255-0.445,0.526-0.634,0.824
							c-0.318,0.502-0.551,1.033-0.71,1.578c-3.371,0.488-5.198,1.671-6.824,2.729c-2.035,1.324-3.961,2.572-9.636,2.665
							c-1.964-0.23-3.553-0.177-5.29-0.116c-1.431,0.052-2.91,0.106-4.849,0.003c-1.335-0.071-2.104-0.882-3.458-2.424
							c-1.803-2.055-4.219-4.648-9.369-5.022v4c3.295,0.3,4.796,1.888,6.356,3.667c1.487,1.694,3.175,3.615,6.256,3.782
							c2.118,0.114,3.76,0.052,5.208,0.001c2.491-0.092,4.453-0.161,7.855,0.684c2.607,0.643,12.099,9.673,14.773,14.322
							c-0.108,0.142-0.219,0.282-0.313,0.434c-1.743,2.755-1.026,6.385,1.619,8.251c0.072,0.052,0.151,0.104,0.283,0.191
							c0.981,0.621,2.11,0.948,3.268,0.948c2.116,0,4.052-1.068,5.173-2.849c0.875-1.374,1.16-3.009,0.805-4.603
							c-0.358-1.6-1.318-2.965-2.709-3.845c-0.98-0.617-2.109-0.944-3.266-0.944c-0.528,0-1.047,0.067-1.543,0.195
							c-2.561-4.187-8.652-10.455-13.189-13.792c1.813-0.628,3.05-1.435,4.212-2.188C148.183,77.782,149.369,77.021,151.612,76.645z
							 M155.492,49.72c0.388-0.614,1.054-0.98,1.783-0.98c0.399,0,0.79,0.113,1.125,0.325c0.48,0.304,0.813,0.775,0.937,1.33
							c0.122,0.546,0.024,1.106-0.279,1.584c-0.598,0.951-1.938,1.272-2.912,0.653l-0.094-0.063
							C155.135,51.923,154.89,50.673,155.492,49.72z M155.492,73.183c0.388-0.614,1.054-0.98,1.783-0.98
							c0.399,0,0.79,0.112,1.125,0.326c0.48,0.304,0.813,0.774,0.937,1.329c0.122,0.546,0.024,1.107-0.279,1.585
							c-0.598,0.95-1.938,1.271-2.912,0.652l-0.094-0.063C155.135,75.386,154.89,74.136,155.492,73.183z M155.492,99.485
							c0.388-0.613,1.054-0.979,1.783-0.979c0.399,0,0.79,0.112,1.125,0.325c0.48,0.304,0.813,0.775,0.937,1.33
							c0.122,0.547,0.024,1.106-0.279,1.584c-0.598,0.951-1.938,1.271-2.912,0.653l-0.094-0.063
							C155.135,101.688,154.89,100.439,155.492,99.485z"/>
					</g>
					<g>
						<path fill="#FFFEDB" d="M145.143,108.561c-1.165-1.36-2.858-2.139-4.648-2.139c-1.459,0-2.875,0.525-3.983,1.477
							c-1.612,1.383-2.326,3.429-2.087,5.397c-1.948,0.7-4.258,1.365-5.328,1.332c-0.821-0.044-1.302-0.346-2.224-0.972
							c-1.172-0.795-2.418-1.512-4.148-1.847c2.936-2.761,6.009-6.83,8.584-12.834c2.061-0.076,3.976-1.193,5.038-2.972
							c1.725-2.896,0.773-6.659-2.124-8.394c-0.949-0.565-2.032-0.864-3.134-0.864c-2.146,0-4.161,1.144-5.261,2.986
							c-0.838,1.405-1.079,3.05-0.678,4.636c0.351,1.393,1.16,2.59,2.302,3.429c-4.053,9.218-9.219,13.081-12.565,14.685
							c-0.128,0.045-0.248,0.101-0.36,0.168c-1.187,0.531-2.05,0.704-2.559,0.808v4c0.275-0.03,1.885-0.118,4.247-1.192
							c5.348-1.357,6.839-0.354,8.407,0.709c1.021,0.692,2.291,1.554,4.263,1.656c0.1,0.005,0.204,0.008,0.309,0.008
							c2.109,0,5.172-1.022,7.021-1.723c1.144,1.116,2.676,1.75,4.285,1.75l0,0c1.461,0,2.876-0.524,3.983-1.476
							c1.24-1.062,1.993-2.546,2.118-4.176C146.725,111.382,146.207,109.799,145.143,108.561z M129.269,91.785
							c0.386-0.645,1.066-1.03,1.819-1.03c0.378,0,0.752,0.104,1.078,0.297c1,0.601,1.331,1.899,0.735,2.898
							c-0.385,0.646-1.064,1.032-1.817,1.032c-0.379,0-0.755-0.104-1.084-0.301c-0.483-0.288-0.826-0.748-0.964-1.294
							C128.897,92.839,128.98,92.271,129.269,91.785z M141.871,114.147c-0.49,0.421-1.018,0.509-1.373,0.509
							c-0.621,0-1.207-0.269-1.608-0.734c-0.758-0.885-0.654-2.222,0.231-2.981c0.492-0.423,1.018-0.512,1.373-0.512
							c0.617,0,1.201,0.269,1.605,0.74c0.368,0.43,0.547,0.976,0.504,1.538S142.302,113.779,141.871,114.147z"/>
						<path fill="#FFFEDB" d="M120.968,45.662c0.07,0.019,0.142,0.034,0.212,0.046C121.107,45.696,121.037,45.681,120.968,45.662z"
							/>
						<path fill="#FFFEDB" d="M142.917,32.661c-0.357-1.599-1.317-2.964-2.708-3.844c-0.98-0.617-2.109-0.944-3.265-0.944
							c-2.117,0-4.053,1.066-5.174,2.85c-1.354,2.138-1.218,4.799,0.144,6.759c-3.646,4.124-8.706,4.313-9.942,4.293
							c-3.692-1.604-7.234-2.164-10.005-2.317v3.996c2.441,0.144,5.553,0.686,8.748,2.136c0.005,0.002,0.01,0.002,0.015,0.005
							c3.445,1.563,6.334,3.928,8.607,7.041c-0.136,0.173-0.265,0.352-0.382,0.538c-1.796,2.854-0.942,6.644,1.903,8.444
							c0.98,0.622,2.111,0.951,3.27,0.951c2.113,0,4.051-1.065,5.183-2.852c1.806-2.851,0.951-6.642-1.908-8.453
							c-1.384-0.871-3.092-1.113-4.667-0.755c-1.538-2.154-3.323-4.017-5.345-5.566c2.517-0.778,5.401-2.269,7.78-5.096
							c0.572,0.172,1.166,0.267,1.77,0.267c2.116,0,4.051-1.068,5.172-2.849C142.987,35.89,143.273,34.256,142.917,32.661z
							 M132.347,55.309c0.169-0.267,0.395-0.49,0.673-0.661c0.335-0.207,0.722-0.316,1.121-0.316c0.4,0,0.79,0.112,1.122,0.321
							c0.987,0.627,1.283,1.936,0.66,2.919c-0.392,0.618-1.063,0.988-1.795,0.988c-0.397,0-0.785-0.113-1.124-0.327
							C132.02,57.608,131.726,56.296,132.347,55.309z M138.726,35.121c-0.6,0.951-1.938,1.271-2.912,0.653l-0.096-0.063
							c-0.914-0.647-1.161-1.897-0.558-2.851c0.386-0.613,1.053-0.98,1.784-0.98c0.397,0,0.787,0.113,1.124,0.326
							c0.479,0.304,0.813,0.775,0.937,1.33C139.127,34.083,139.03,34.644,138.726,35.121z"/>
						<path fill="#FFFEDB" d="M151.612,73.645c0.425,1.035,1.136,1.962,2.109,2.649c0.072,0.052,0.151,0.105,0.283,0.191
							c0.981,0.621,2.11,0.949,3.268,0.949c2.116,0,4.052-1.068,5.173-2.849c0.875-1.375,1.16-3.01,0.805-4.604
							c-0.358-1.598-1.318-2.964-2.709-3.844c-0.98-0.617-2.109-0.944-3.266-0.944c-0.125,0-0.25,0.008-0.375,0.018
							c-0.71-3.157-0.919-7.769,0.035-11.265c0.112,0.011,0.225,0.024,0.337,0.024c2.116,0,4.052-1.067,5.173-2.849
							c0.875-1.375,1.16-3.009,0.805-4.604c-0.358-1.599-1.318-2.964-2.709-3.844c-0.98-0.617-2.109-0.944-3.266-0.944
							c-2.114,0-4.051,1.066-5.173,2.85c-1.604,2.532-1.12,5.804,1.024,7.765c0.021,0.02,0.048,0.037,0.071,0.059
							c-1.349,4.518-1.146,10.324-0.036,14.417c-0.144,0.132-0.294,0.254-0.426,0.399c-0.229,0.255-0.445,0.526-0.634,0.824
							c-0.318,0.502-0.551,1.033-0.71,1.578c-3.371,0.488-5.198,1.671-6.824,2.729c-2.035,1.324-3.961,2.572-9.636,2.665
							c-1.964-0.23-3.553-0.177-5.29-0.116c-1.431,0.052-2.91,0.106-4.849,0.003c-1.335-0.071-2.104-0.882-3.458-2.424
							c-1.803-2.055-4.219-4.648-9.369-5.022v4c3.295,0.3,4.796,1.888,6.356,3.667c1.487,1.694,3.175,3.615,6.256,3.782
							c2.118,0.114,3.76,0.052,5.208,0.001c2.491-0.092,4.453-0.161,7.855,0.684c2.607,0.643,12.099,9.673,14.773,14.322
							c-0.108,0.142-0.219,0.282-0.313,0.434c-1.743,2.755-1.026,6.385,1.619,8.251c0.072,0.052,0.151,0.104,0.283,0.191
							c0.981,0.621,2.11,0.948,3.268,0.948c2.116,0,4.052-1.068,5.173-2.849c0.875-1.374,1.16-3.009,0.805-4.603
							c-0.358-1.6-1.318-2.965-2.709-3.845c-0.98-0.617-2.109-0.944-3.266-0.944c-0.528,0-1.047,0.067-1.543,0.195
							c-2.561-4.187-8.652-10.455-13.189-13.792c1.813-0.628,3.05-1.435,4.212-2.188C148.183,74.782,149.369,74.021,151.612,73.645z
							 M155.492,46.72c0.388-0.614,1.054-0.98,1.783-0.98c0.399,0,0.79,0.113,1.125,0.325c0.48,0.304,0.813,0.775,0.937,1.33
							c0.122,0.546,0.024,1.106-0.279,1.584c-0.598,0.951-1.938,1.272-2.912,0.653l-0.094-0.063
							C155.135,48.923,154.89,47.673,155.492,46.72z M155.492,70.183c0.388-0.614,1.054-0.98,1.783-0.98
							c0.399,0,0.79,0.112,1.125,0.326c0.48,0.304,0.813,0.774,0.937,1.329c0.122,0.546,0.024,1.107-0.279,1.585
							c-0.598,0.95-1.938,1.271-2.912,0.652l-0.094-0.063C155.135,72.386,154.89,71.136,155.492,70.183z M155.492,96.485
							c0.388-0.613,1.054-0.979,1.783-0.979c0.399,0,0.79,0.112,1.125,0.325c0.48,0.304,0.813,0.775,0.937,1.33
							c0.122,0.547,0.024,1.106-0.279,1.584c-0.598,0.951-1.938,1.271-2.912,0.653l-0.094-0.063
							C155.135,98.688,154.89,97.439,155.492,96.485z"/>
					</g>
				</g>
			</g>
		</g>
	</g>
	<g>
		<g>
			<path fill="#771B85" d="M15.474,242.056v17.999H2.209v-54.607h20.296c5.843,0,10.562,1.753,14.156,5.26
				c3.593,3.507,5.39,8.065,5.39,13.676c0,5.33-1.766,9.6-5.296,12.811c-3.532,3.21-8.234,4.831-14.109,4.862H15.474z
				 M15.474,231.134h7.031c2.156,0,3.75-0.625,4.781-1.875c1.031-1.249,1.547-2.828,1.547-4.734c0-2.438-0.579-4.383-1.734-5.836
				c-1.156-1.452-2.688-2.179-4.594-2.179h-7.031V231.134z"/>
			<path fill="#771B85" d="M49.867,201.32c0-1.897,0.604-3.449,1.812-4.657c1.207-1.207,2.817-1.812,4.83-1.812
				c2.012,0,3.622,0.604,4.829,1.812c1.208,1.208,1.812,2.76,1.812,4.657c0,1.869-0.597,3.422-1.789,4.657
				c-1.193,1.236-2.811,1.854-4.852,1.854c-2.042,0-3.659-0.618-4.852-1.854C50.464,204.742,49.867,203.189,49.867,201.32z
				 M62.675,260.055H50.428v-46.659h12.247V260.055z"/>
			<path fill="#771B85" d="M88.98,250.869c3.536,0,5.333-2.328,5.391-6.985h11.471c-0.058,5.088-1.624,9.2-4.7,12.333
				c-3.076,3.134-7.044,4.7-11.902,4.7c-6.009,0-10.594-1.868-13.756-5.605c-3.163-3.737-4.772-9.243-4.83-16.517v-3.709
				c0-7.331,1.56-12.922,4.679-16.774s7.726-5.779,13.821-5.779c5.146,0,9.199,1.589,12.161,4.766
				c2.96,3.177,4.47,7.684,4.527,13.52H94.371c-0.029-2.645-0.46-4.678-1.294-6.102c-0.834-1.423-2.214-2.136-4.14-2.136
				c-2.128,0-3.651,0.76-4.571,2.278s-1.408,4.462-1.466,8.83v4.772c0,3.818,0.187,6.486,0.561,8.005
				c0.373,1.519,0.992,2.632,1.854,3.341S87.399,250.869,88.98,250.869z"/>
			<path fill="#771B85" d="M134.907,260.055c-0.346-0.719-0.69-1.926-1.035-3.622c-2.186,2.99-5.146,4.484-8.884,4.484
				c-3.91,0-7.151-1.294-9.724-3.881c-2.573-2.588-3.86-5.937-3.86-10.048c0-4.887,1.56-8.668,4.68-11.342
				c3.118-2.674,7.611-4.038,13.476-4.097h3.709v-3.752c0-2.098-0.36-3.579-1.078-4.441c-0.719-0.862-1.769-1.294-3.148-1.294
				c-3.048,0-4.571,1.783-4.571,5.348h-12.203c0-4.313,1.617-7.87,4.851-10.673c3.234-2.803,7.324-4.205,12.269-4.205
				c5.117,0,9.078,1.33,11.881,3.989s4.205,6.462,4.205,11.406v21.95c0.057,4.025,0.632,7.173,1.725,9.443v0.733H134.907z
				 M127.705,251.344c1.352,0,2.501-0.272,3.45-0.819c0.948-0.546,1.652-1.192,2.113-1.94v-9.703h-2.933
				c-2.07,0-3.702,0.662-4.895,1.983c-1.193,1.323-1.79,3.091-1.79,5.305C123.651,249.619,125.003,251.344,127.705,251.344z"/>
			<path fill="#771B85" d="M177.341,225.168l-4.054-0.345c-3.335,0-5.592,1.466-6.771,4.398v30.833H154.27v-46.659h11.514
				l0.346,5.045c1.926-3.938,4.585-5.908,7.978-5.908c1.38,0,2.501,0.188,3.363,0.561L177.341,225.168z"/>
			<path fill="#771B85" d="M181.136,235.302c0-7.646,1.294-13.354,3.882-17.12c2.587-3.766,6.353-5.649,11.298-5.649
				c3.594,0,6.583,1.553,8.97,4.658v-23.373h12.29v66.237h-11.083l-0.561-4.743c-2.501,3.737-5.721,5.605-9.659,5.605
				c-4.888,0-8.618-1.868-11.19-5.605c-2.573-3.737-3.889-9.229-3.946-16.474V235.302z M193.383,238.363
				c0,4.601,0.489,7.813,1.467,9.639c0.977,1.826,2.63,2.738,4.959,2.738c2.415,0,4.24-1.078,5.477-3.234v-21.303
				c-1.207-2.3-3.019-3.45-5.434-3.45c-2.242,0-3.881,0.905-4.916,2.717s-1.553,5.031-1.553,9.659V238.363z"/>
		</g>
		<g>
			<path fill="#EB743B" d="M11.257,158.57l4.905,18.622l4.906-18.622h8.883v27.743h-6.764v-5.524l0.644-12.908l-5.454,18.433h-4.453
				l-5.43-18.337l0.644,12.813v5.524h-6.74V158.57H11.257z"/>
			<path fill="#EB743B" d="M46.078,184.145c-1.285,1.738-3.009,2.607-5.171,2.607c-2.176,0-3.826-0.749-4.951-2.246
				s-1.687-3.677-1.687-6.54v-15.357h6.2v15.511c0.029,2.309,0.796,3.462,2.3,3.462c1.417,0,2.439-0.613,3.067-1.84v-17.133h6.244
				v23.705h-5.827L46.078,184.145z"/>
			<path fill="#EB743B" d="M67.001,179.96c0-0.526-0.252-1.012-0.756-1.457s-1.625-1.048-3.363-1.808
				c-2.556-1.037-4.313-2.11-5.269-3.221c-0.957-1.109-1.436-2.49-1.436-4.141c0-2.074,0.749-3.786,2.246-5.138
				c1.497-1.351,3.479-2.026,5.948-2.026c2.6,0,4.681,0.672,6.244,2.016c1.563,1.344,2.344,3.147,2.344,5.411h-6.2
				c0-1.928-0.803-2.892-2.41-2.892c-0.657,0-1.197,0.204-1.621,0.613s-0.635,0.979-0.635,1.709c0,0.525,0.233,0.989,0.701,1.392
				c0.467,0.401,1.569,0.975,3.308,1.72c2.527,0.935,4.313,1.976,5.357,3.122c1.044,1.146,1.566,2.633,1.566,4.458
				c0,2.118-0.797,3.819-2.389,5.104c-1.592,1.286-3.681,1.929-6.266,1.929c-1.738,0-3.272-0.34-4.601-1.02
				c-1.33-0.679-2.37-1.624-3.122-2.837c-0.753-1.212-1.129-2.52-1.129-3.922h5.894c0.029,1.081,0.281,1.892,0.756,2.433
				c0.475,0.54,1.252,0.811,2.334,0.811C66.169,182.217,67.001,181.465,67.001,179.96z"/>
			<path fill="#EB743B" d="M76.882,156.474c0-0.964,0.307-1.753,0.92-2.366s1.432-0.92,2.454-0.92c1.021,0,1.84,0.307,2.453,0.92
				c0.614,0.613,0.921,1.402,0.921,2.366c0,0.949-0.304,1.738-0.909,2.366c-0.606,0.628-1.428,0.941-2.465,0.941
				s-1.859-0.313-2.465-0.941C77.185,158.212,76.882,157.423,76.882,156.474z M83.389,186.313h-6.223v-23.705h6.223V186.313z"/>
			<path fill="#EB743B" d="M96.754,181.646c1.796,0,2.709-1.183,2.738-3.549h5.828c-0.029,2.585-0.825,4.674-2.389,6.266
				c-1.563,1.593-3.578,2.389-6.047,2.389c-3.053,0-5.382-0.949-6.988-2.849c-1.607-1.898-2.425-4.695-2.454-8.391v-1.885
				c0-3.725,0.792-6.565,2.377-8.522s3.926-2.936,7.022-2.936c2.614,0,4.674,0.807,6.178,2.421s2.271,3.903,2.301,6.868h-5.828
				c-0.015-1.343-0.233-2.376-0.657-3.1c-0.424-0.723-1.125-1.085-2.104-1.085c-1.081,0-1.854,0.386-2.322,1.157
				s-0.716,2.268-0.745,4.486v2.425c0,1.939,0.096,3.295,0.285,4.067c0.189,0.771,0.504,1.337,0.942,1.697
				C95.33,181.467,95.95,181.646,96.754,181.646z"/>
			<path fill="#EB743B" d="M108.759,186.313V158.57h9.431c3.239,0,5.712,0.654,7.418,1.964c1.707,1.311,2.561,3.212,2.561,5.704
				c0,1.413-0.31,2.644-0.929,3.691s-1.532,1.817-2.739,2.31c1.302,0.381,2.311,1.107,3.024,2.179
				c0.715,1.072,1.072,2.386,1.072,3.941c0,2.763-0.802,4.779-2.405,6.049c-1.604,1.271-4.017,1.905-7.239,1.905H108.759z
				 M115.499,170.096h3.238c1.794-0.047,2.691-1,2.691-2.857c0-1.096-0.223-1.877-0.667-2.346c-0.444-0.468-1.128-0.702-2.048-0.702
				h-3.215V170.096z M115.499,174.787v5.978h3.453c0.937,0,1.654-0.255,2.154-0.765c0.501-0.51,0.751-1.211,0.751-2.104
				c0-2.008-0.811-3.044-2.43-3.108H115.499z"/>
			<path fill="#EB743B" d="M144.41,168.589l-2.06-0.175c-1.694,0-2.841,0.745-3.439,2.234v15.665h-6.223v-23.705h5.85l0.176,2.563
				c0.979-2.001,2.329-3.001,4.053-3.001c0.701,0,1.271,0.095,1.709,0.284L144.41,168.589z"/>
			<path fill="#EB743B" d="M158.19,186.313c-0.175-0.365-0.351-0.979-0.525-1.841c-1.11,1.52-2.615,2.279-4.514,2.279
				c-1.986,0-3.633-0.657-4.94-1.972c-1.308-1.315-1.961-3.017-1.961-5.105c0-2.482,0.792-4.403,2.377-5.762
				s3.867-2.052,6.847-2.081h1.885v-1.906c0-1.066-0.183-1.818-0.548-2.257s-0.898-0.657-1.6-0.657
				c-1.548,0-2.322,0.905-2.322,2.717h-6.2c0-2.191,0.821-3.999,2.465-5.423s3.721-2.136,6.233-2.136c2.6,0,4.611,0.676,6.035,2.026
				c1.425,1.352,2.137,3.283,2.137,5.795v11.151c0.029,2.046,0.321,3.645,0.876,4.799v0.372H158.19z M154.532,181.888
				c0.687,0,1.271-0.139,1.752-0.416c0.482-0.277,0.84-0.606,1.074-0.986v-4.93h-1.49c-1.052,0-1.881,0.337-2.486,1.008
				c-0.606,0.673-0.909,1.57-0.909,2.695C152.473,181.012,153.159,181.888,154.532,181.888z"/>
			<path fill="#EB743B" d="M168.05,156.474c0-0.964,0.307-1.753,0.92-2.366s1.432-0.92,2.454-0.92c1.021,0,1.84,0.307,2.453,0.92
				c0.614,0.613,0.921,1.402,0.921,2.366c0,0.949-0.304,1.738-0.909,2.366c-0.606,0.628-1.428,0.941-2.465,0.941
				s-1.859-0.313-2.465-0.941C168.353,158.212,168.05,157.423,168.05,156.474z M174.557,186.313h-6.223v-23.705h6.223V186.313z"/>
			<path fill="#EB743B" d="M185.029,162.608l0.176,2.344c1.402-1.854,3.235-2.782,5.499-2.782c4.075,0,6.171,2.855,6.288,8.566
				v15.577h-6.223v-15.117c0-1.344-0.2-2.318-0.603-2.925c-0.401-0.606-1.106-0.909-2.114-0.909c-1.124,0-2.001,0.577-2.629,1.73
				v17.221h-6.222v-23.705H185.029z"/>
			<path fill="#EB743B" d="M208.297,181.209h9.377v5.104h-16.738v-3.845l9.158-14.69h-8.939v-5.17h16.388v3.746L208.297,181.209z"/>
		</g>
	</g>
</g>
</svg>
