<?xml version="1.0" encoding="utf-8"?>
<!-- Generator: Adobe Illustrator 17.0.0, SVG Export Plug-In . SVG Version: 6.00 Build 0)  -->
<!DOCTYPE svg PUBLIC "-//W3C//DTD SVG 1.1//EN" "http://www.w3.org/Graphics/SVG/1.1/DTD/svg11.dtd">
<svg version="1.1" id="Layer_1" xmlns="http://www.w3.org/2000/svg" xmlns:xlink="http://www.w3.org/1999/xlink" x="0px" y="0px"
	 width="445px" height="100px" viewBox="0 0 445 100" enable-background="new 0 0 445 100" xml:space="preserve">
<g>
</g>
<g>
	<g>
		<path fill="#353070" d="M114.775,63.289h14.626v8.534h-25.304V28.022h10.678V63.289z"/>
		<path fill="#353070" d="M167.726,62.034c0-1.061-0.415-1.977-1.245-2.75c-0.83-0.771-2.421-1.723-4.773-2.854
			c-3.759-1.406-6.578-2.997-8.457-4.773c-1.88-1.775-2.819-4.081-2.819-6.918c0-3.043,1.205-5.643,3.615-7.8
			c2.409-2.155,5.598-3.233,9.564-3.233c4.151,0,7.46,1.106,9.928,3.32c2.467,2.214,3.654,5.039,3.563,8.475l-0.104,0.207h-9.477
			c0-1.567-0.323-2.813-0.969-3.735c-0.646-0.922-1.638-1.384-2.975-1.384c-1.061,0-1.96,0.357-2.698,1.072
			c-0.738,0.715-1.107,1.58-1.107,2.595c0,1.106,0.368,2,1.107,2.681c0.738,0.68,2.341,1.608,4.808,2.784
			c3.921,1.338,6.826,2.923,8.717,4.756c1.891,1.833,2.837,4.237,2.837,7.212c0,3.183-1.269,5.788-3.806,7.817
			c-2.536,2.029-5.868,3.044-9.996,3.044c-4.313,0-7.726-1.257-10.238-3.771c-2.514-2.513-3.713-5.35-3.598-8.509l0.069-0.208h8.993
			c0.046,1.983,0.507,3.413,1.384,4.289c0.876,0.877,2.087,1.314,3.632,1.314c1.314,0,2.317-0.322,3.01-0.968
			C167.38,64.053,167.726,63.164,167.726,62.034z"/>
		<path fill="#353070" d="M193.841,25.093v9.305h5.188v7.125h-5.188v18.782c0,1.522,0.22,2.611,0.657,3.269
			c0.438,0.657,1.038,0.986,1.799,0.986c0.6,0,1.107-0.028,1.522-0.087c0.415-0.057,0.876-0.155,1.383-0.294l0.762,7.472
			c-1.038,0.322-2.029,0.554-2.975,0.691c-0.946,0.139-2.019,0.208-3.217,0.208c-3.16,0-5.575-0.974-7.247-2.923
			c-1.672-1.948-2.508-5.044-2.508-9.287V41.522h-4.427v-7.125h4.427v-9.305H193.841z"/>
		<path fill="#353070" d="M219.126,72.55c-4.704,0-8.44-1.545-11.207-4.635c-2.767-3.09-4.15-6.987-4.15-11.691v-5.258
			c0-5.05,1.285-9.188,3.856-12.418c2.571-3.228,6.128-4.842,10.671-4.842c4.381,0,7.771,1.464,10.17,4.392
			c2.397,2.929,3.597,6.918,3.597,11.968v6.019h-18.505v0.139c0,2.468,0.559,4.496,1.678,6.088c1.118,1.591,2.807,2.387,5.067,2.387
			c1.844,0,3.343-0.208,4.496-0.623c1.153-0.415,2.525-1.106,4.116-2.075l2.49,6.261c-1.291,1.245-3.015,2.272-5.171,3.078
			C224.078,72.146,221.709,72.55,219.126,72.55z M218.296,41.558c-1.568,0-2.721,0.718-3.459,2.154
			c-0.738,1.436-1.153,3.369-1.245,5.801h8.82v-1.39c0-2.084-0.323-3.699-0.969-4.846C220.798,42.131,219.749,41.558,218.296,41.558
			z"/>
		<path fill="#353070" d="M246.002,34.397l0.415,5.154c1.037-1.845,2.311-3.28,3.822-4.307c1.51-1.026,3.176-1.539,4.998-1.539
			c3.112,0,5.563,1.199,7.35,3.597c1.787,2.398,2.681,6.169,2.681,11.311v23.21h-9.857V48.587c0-2.585-0.363-4.402-1.09-5.453
			c-0.727-1.051-1.851-1.576-3.372-1.576c-0.877,0-1.684,0.232-2.422,0.692c-0.738,0.462-1.36,1.097-1.867,1.904v27.669h-9.823
			V34.397H246.002z"/>
		<path fill="#EB743B" d="M272.341,71.823V28.022h15.566c4.662,0,8.29,1.021,10.885,3.064c2.594,2.043,3.892,5.057,3.892,9.042
			c0,2.081-0.596,3.941-1.786,5.583c-1.19,1.642-2.864,2.876-5.02,3.703c2.882,0.627,5.044,1.843,6.485,3.647
			s2.162,3.947,2.162,6.429c0,4.086-1.229,7.162-3.685,9.231c-2.457,2.067-6.028,3.101-10.715,3.101H272.341z M283.019,46.257h5.076
			c1.278-0.025,2.249-0.429,2.913-1.212c0.664-0.783,0.997-1.92,0.997-3.41c0-1.769-0.339-3.057-1.016-3.865
			c-0.677-0.809-1.704-1.213-3.083-1.213h-4.888V46.257z M283.019,53.213v10.076h7.106c1.429,0,2.412-0.373,2.951-1.12
			c0.539-0.746,0.809-1.94,0.809-3.582c0-1.842-0.27-3.197-0.809-4.067c-0.539-0.871-1.522-1.307-2.951-1.307H283.019z"/>
		<path fill="#EB743B" d="M327.939,43.356l-3.701-0.104c-1.037,0-1.897,0.255-2.577,0.762c-0.68,0.507-1.205,1.223-1.573,2.145
			v25.665h-9.823V34.397h9.166l0.38,5.016l0.174,0.069c0.599-1.799,1.435-3.211,2.507-4.237c1.072-1.026,2.323-1.539,3.753-1.539
			c0.438,0,0.905,0.04,1.401,0.121c0.495,0.081,0.928,0.179,1.297,0.294L327.939,43.356z"/>
		<path fill="#EB743B" d="M351.148,71.823c-0.277-0.623-0.525-1.303-0.744-2.041c-0.219-0.737-0.386-1.487-0.501-2.248
			c-0.923,1.521-2.047,2.738-3.373,3.649c-1.326,0.91-2.865,1.366-4.617,1.366c-3.091,0-5.563-1.015-7.42-3.044
			c-1.857-2.029-2.784-4.739-2.784-8.129c0-3.666,1.182-6.514,3.545-8.543c2.364-2.029,5.875-3.044,10.533-3.044h3.701v-3.044
			c0-1.821-0.329-3.223-0.986-4.203c-0.657-0.979-1.643-1.47-2.957-1.47c-1.107,0-1.938,0.393-2.49,1.176
			c-0.554,0.784-0.831,1.926-0.831,3.425l-9.512-0.035l-0.104-0.207c-0.116-3.252,1.09-6.018,3.614-8.302
			c2.525-2.283,5.852-3.424,9.979-3.424c3.897,0,7.062,1.136,9.494,3.406c2.433,2.272,3.649,5.506,3.649,9.703v15.149
			c0,1.846,0.127,3.563,0.381,5.154c0.253,1.591,0.646,3.159,1.176,4.704H351.148z M344.749,65.147c0.991,0,1.908-0.265,2.75-0.796
			c0.842-0.53,1.505-1.21,1.989-2.04v-6.884h-3.701c-1.5,0-2.583,0.519-3.252,1.557c-0.669,1.038-1.003,2.352-1.003,3.943
			c0,1.245,0.288,2.26,0.865,3.044C342.974,64.756,343.758,65.147,344.749,65.147z"/>
		<path fill="#EB743B" d="M391.688,34.397l0.415,5.154c1.037-1.845,2.312-3.28,3.822-4.307c1.51-1.026,3.176-1.539,4.998-1.539
			c3.112,0,5.563,1.199,7.35,3.597c1.787,2.398,2.681,6.169,2.681,11.311v23.21h-9.857V48.587c0-2.585-0.363-4.402-1.09-5.453
			c-0.727-1.051-1.851-1.576-3.372-1.576c-0.877,0-1.684,0.232-2.422,0.692c-0.738,0.462-1.36,1.097-1.867,1.904v27.669h-9.823
			V34.397H391.688z"/>
		<path fill="#EB743B" d="M427.452,63.972h14.632v7.851h-25.908v-5.846l14.251-23.729h-13.836v-7.852h25.251v5.707L427.452,63.972z"
			/>
		<path fill="#EB743B" d="M365.571,24.713c0-1.523,0.484-2.768,1.453-3.736c0.969-0.969,2.26-1.452,3.874-1.452
			c1.613,0,2.905,0.483,3.874,1.452c0.969,0.969,1.452,2.214,1.452,3.736c0,1.499-0.479,2.744-1.435,3.735
			c-0.958,0.991-2.255,1.487-3.892,1.487c-1.638,0-2.935-0.496-3.892-1.487C366.05,27.457,365.571,26.212,365.571,24.713z
			 M375.845,71.823h-9.823V34.397h9.823V71.823z"/>
		<path fill="#353070" d="M134.412,24.713c0-1.523,0.484-2.768,1.453-3.736c0.969-0.969,2.26-1.452,3.874-1.452
			c1.613,0,2.905,0.483,3.874,1.452c0.969,0.969,1.452,2.214,1.452,3.736c0,1.499-0.479,2.744-1.435,3.735
			c-0.958,0.991-2.255,1.487-3.892,1.487c-1.638,0-2.935-0.496-3.892-1.487C134.891,27.457,134.412,26.212,134.412,24.713z
			 M144.686,71.823h-9.823V34.397h9.823V71.823z"/>
	</g>
	<g>
		<polygon fill="#EB743B" points="47,2 47,98 88,74 88,26 		"/>
		<polygon fill="#353070" points="44,2 3,26 3,74 44,98 		"/>
		<path fill="#FFFEDB" d="M79.281,58.087c-1.239-1.97-3.38-3.148-5.718-3.148c-0.666,0-1.324,0.103-1.956,0.295
			c-2.632-3.125-5.819-4.775-8.602-5.636c2.235-1.714,4.208-3.771,5.909-6.153c1.74,0.394,3.63,0.127,5.162-0.832
			c3.158-2.006,4.103-6.197,2.104-9.348c-1.249-1.975-3.39-3.152-5.724-3.152c-1.283,0-2.533,0.363-3.616,1.05
			c-3.146,1.991-4.093,6.181-2.105,9.336c0.13,0.207,0.271,0.404,0.422,0.596c-2.514,3.442-5.708,6.056-9.519,7.785l-0.014,0.004
			C52.093,50.487,50,51,47,51v5c4,0,5.931-1.125,10.016-2.898c1.366-0.024,6.962,0.184,10.991,4.747
			c-1.507,2.164-1.655,5.108-0.16,7.471c1.241,1.97,3.382,3.15,5.721,3.15c1.278,0,2.524-0.36,3.607-1.044
			c1.538-0.975,2.599-2.482,2.995-4.252C80.566,61.413,80.248,59.606,79.281,58.087z M69.061,34.67
			c0.423-0.266,0.901-0.405,1.396-0.405c0.903,0,1.731,0.456,2.219,1.224c0.772,1.214,0.403,2.836-0.818,3.61
			c-0.41,0.261-0.896,0.399-1.387,0.399c-0.493,0-0.974-0.134-1.39-0.391c-0.343-0.213-0.625-0.489-0.832-0.817
			C67.478,37.064,67.842,35.443,69.061,34.67z M76.119,62.27c-0.154,0.687-0.564,1.27-1.161,1.645
			c-0.413,0.264-0.896,0.406-1.391,0.406c-0.906,0-1.731-0.457-2.21-1.218c-0.745-1.18-0.441-2.727,0.691-3.528l0.117-0.078
			c1.208-0.766,2.866-0.367,3.608,0.808C76.151,60.896,76.271,61.591,76.119,62.27z"/>
		<path fill="#FFFEDB" d="M13.335,57.053c-1.939,0-3.747-0.771-5.089-2.171c-1.305-1.358-2.002-3.145-1.962-5.028
			c0.039-1.883,0.809-3.639,2.168-4.942c1.319-1.267,3.054-1.964,4.882-1.964c1.939,0,3.747,0.771,5.091,2.17
			c1.305,1.36,2.001,3.146,1.962,5.029c-0.039,1.883-0.81,3.639-2.17,4.942C16.897,56.355,15.164,57.053,13.335,57.053z
			 M13.334,46.447c-0.921,0-1.794,0.352-2.458,0.989c-0.686,0.657-1.073,1.541-1.093,2.49c-0.02,0.948,0.331,1.848,0.988,2.532
			c1.315,1.371,3.652,1.42,5.022,0.104c0.686-0.657,1.074-1.541,1.094-2.49c0.02-0.948-0.331-1.848-0.988-2.532
			C15.223,46.836,14.311,46.447,13.334,46.447z"/>
		<path fill="#EB743B" d="M29.875,58.484c-0.298,0-0.598-0.088-0.859-0.272c-0.679-0.476-0.844-1.411-0.368-2.089
			c0.327-0.467,0.621-0.965,0.876-1.482c1.714-3.495,1.473-7.537-0.647-10.811c-0.45-0.695-0.252-1.624,0.443-2.074
			c0.694-0.448,1.623-0.254,2.074,0.443c2.658,4.104,2.974,9.378,0.822,13.764c-0.323,0.657-0.696,1.289-1.111,1.881
			C30.813,58.262,30.348,58.484,29.875,58.484z"/>
		<path fill="#EB743B" d="M35.598,61.943c-0.306,0-0.614-0.093-0.881-0.286c-0.67-0.487-0.818-1.425-0.332-2.096
			c0.545-0.75,1.029-1.554,1.438-2.388c2.674-5.451,2.069-11.856-1.576-16.717c-0.497-0.663-0.362-1.604,0.3-2.101
			c0.665-0.496,1.603-0.362,2.101,0.3c4.326,5.769,5.042,13.37,1.869,19.838c-0.484,0.988-1.059,1.941-1.704,2.831
			C36.519,61.729,36.062,61.943,35.598,61.943z"/>
		<path fill="#EB743B" d="M24.624,54.811c-0.249,0-0.501-0.062-0.733-0.192c-0.723-0.405-0.979-1.32-0.573-2.042
			c0.905-1.611,0.979-3.575,0.196-5.253c-0.351-0.751-0.025-1.644,0.726-1.993c0.751-0.353,1.643-0.025,1.993,0.726
			c1.189,2.552,1.077,5.538-0.3,7.989C25.657,54.535,25.148,54.811,24.624,54.811z"/>
	</g>
</g>
</svg>
