<?xml version="1.0" encoding="utf-8"?>
<!-- Generator: Adobe Illustrator 17.0.0, SVG Export Plug-In . SVG Version: 6.00 Build 0)  -->
<!DOCTYPE svg PUBLIC "-//W3C//DTD SVG 1.1//EN" "http://www.w3.org/Graphics/SVG/1.1/DTD/svg11.dtd">
<svg version="1.1" id="Layer_1" xmlns="http://www.w3.org/2000/svg" xmlns:xlink="http://www.w3.org/1999/xlink" x="0px" y="0px"
	 width="140px" height="190px" viewBox="0 0 140 190" enable-background="new 0 0 140 190" xml:space="preserve">
<g>
</g>
<g>
	<g>
		<path fill="#353070" d="M14.118,135.122h11.785V142H5.514v-35.297h8.604V135.122z"/>
		<path fill="#353070" d="M56.788,134.111c0-0.854-0.335-1.593-1.004-2.216c-0.669-0.622-1.951-1.389-3.847-2.3
			c-3.029-1.133-5.301-2.415-6.815-3.847c-1.515-1.431-2.271-3.289-2.271-5.574c0-2.453,0.971-4.548,2.913-6.286
			c1.941-1.737,4.511-2.605,7.707-2.605c3.345,0,6.011,0.892,8,2.676c1.988,1.784,2.945,4.061,2.871,6.829l-0.084,0.167H56.62
			c0-1.264-0.26-2.267-0.78-3.011c-0.521-0.742-1.319-1.114-2.397-1.114c-0.855,0-1.579,0.288-2.174,0.864
			c-0.595,0.576-0.892,1.272-0.892,2.09c0,0.893,0.297,1.612,0.892,2.16c0.595,0.549,1.886,1.297,3.875,2.244
			c3.158,1.078,5.5,2.355,7.023,3.833c1.523,1.477,2.286,3.414,2.286,5.811c0,2.565-1.022,4.664-3.066,6.3
			c-2.044,1.635-4.729,2.452-8.056,2.452c-3.475,0-6.226-1.013-8.25-3.038c-2.026-2.025-2.992-4.311-2.9-6.857l0.056-0.168h7.247
			c0.037,1.599,0.409,2.751,1.115,3.457c0.706,0.706,1.682,1.059,2.927,1.059c1.059,0,1.868-0.26,2.425-0.78
			C56.509,135.738,56.788,135.023,56.788,134.111z"/>
		<path fill="#353070" d="M77.832,104.343v7.498h4.182v5.741h-4.182v15.136c0,1.227,0.177,2.104,0.53,2.635
			c0.353,0.529,0.836,0.794,1.449,0.794c0.483,0,0.892-0.023,1.227-0.069c0.334-0.047,0.706-0.126,1.115-0.237l0.613,6.021
			c-0.837,0.261-1.636,0.446-2.397,0.558c-0.763,0.111-1.626,0.167-2.593,0.167c-2.546,0-4.492-0.784-5.839-2.355
			c-1.348-1.57-2.021-4.066-2.021-7.484v-15.164h-3.567v-5.741h3.567v-7.498H77.832z"/>
		<path fill="#353070" d="M98.209,142.585c-3.791,0-6.802-1.244-9.031-3.734c-2.23-2.49-3.346-5.631-3.346-9.422v-4.236
			c0-4.07,1.036-7.405,3.108-10.007c2.072-2.602,4.938-3.902,8.599-3.902c3.531,0,6.263,1.18,8.195,3.54
			c1.933,2.359,2.899,5.574,2.899,9.645v4.85H93.721v0.111c0,1.989,0.45,3.624,1.352,4.906c0.901,1.282,2.263,1.923,4.084,1.923
			c1.486,0,2.694-0.167,3.624-0.502c0.929-0.334,2.034-0.892,3.316-1.672l2.007,5.045c-1.041,1.004-2.43,1.831-4.167,2.48
			C102.199,142.26,100.289,142.585,98.209,142.585z M97.539,117.61c-1.264,0-2.192,0.579-2.787,1.736
			c-0.595,1.157-0.93,2.715-1.003,4.675h7.107v-1.12c0-1.679-0.261-2.981-0.78-3.905C99.556,118.072,98.71,117.61,97.539,117.61z"/>
		<path fill="#353070" d="M119.866,111.841l0.335,4.152c0.836-1.486,1.862-2.643,3.08-3.47c1.217-0.827,2.559-1.24,4.027-1.24
			c2.509,0,4.483,0.966,5.923,2.898c1.441,1.933,2.16,4.972,2.16,9.115V142h-7.943v-18.725c0-2.084-0.293-3.549-0.878-4.396
			c-0.586-0.847-1.491-1.27-2.718-1.27c-0.707,0-1.357,0.187-1.951,0.559c-0.595,0.372-1.097,0.884-1.506,1.534V142h-7.916v-30.159
			H119.866z"/>
		<path fill="#EB743B" d="M2.297,188v-35.297H14.84c3.757,0,6.681,0.823,8.771,2.47c2.09,1.646,3.136,4.074,3.136,7.286
			c0,1.677-0.481,3.177-1.44,4.499c-0.96,1.323-2.308,2.318-4.045,2.984c2.323,0.505,4.064,1.484,5.227,2.939
			c1.161,1.454,1.742,3.181,1.742,5.181c0,3.292-0.99,5.771-2.969,7.438c-1.98,1.667-4.858,2.5-8.636,2.5H2.297z M10.901,167.398
			h4.09c1.03-0.021,1.812-0.346,2.349-0.977c0.534-0.632,0.803-1.548,0.803-2.749c0-1.425-0.273-2.463-0.818-3.114
			c-0.545-0.651-1.374-0.977-2.484-0.977h-3.938V167.398z M10.901,173.003v8.119h5.726c1.151,0,1.944-0.3,2.379-0.902
			c0.434-0.601,0.651-1.563,0.651-2.887c0-1.483-0.218-2.576-0.651-3.277c-0.435-0.702-1.228-1.053-2.379-1.053H10.901z"/>
		<path fill="#EB743B" d="M47.1,165.06l-2.982-0.083c-0.836,0-1.528,0.204-2.076,0.613c-0.549,0.408-0.972,0.984-1.269,1.728V188
			h-7.916v-30.159h7.387l0.307,4.041l0.139,0.056c0.483-1.449,1.157-2.587,2.021-3.414c0.864-0.827,1.872-1.24,3.024-1.24
			c0.352,0,0.728,0.032,1.129,0.098c0.399,0.065,0.747,0.143,1.045,0.236L47.1,165.06z"/>
		<path fill="#EB743B" d="M65.803,188c-0.223-0.502-0.423-1.05-0.6-1.645c-0.177-0.595-0.312-1.198-0.403-1.812
			c-0.744,1.227-1.649,2.206-2.718,2.941c-1.069,0.733-2.31,1.101-3.722,1.101c-2.49,0-4.483-0.817-5.979-2.452
			c-1.496-1.636-2.244-3.819-2.244-6.551c0-2.954,0.952-5.249,2.857-6.885c1.904-1.635,4.733-2.453,8.487-2.453h2.982v-2.453
			c0-1.468-0.265-2.597-0.794-3.387c-0.53-0.789-1.324-1.185-2.384-1.185c-0.892,0-1.561,0.316-2.007,0.948
			c-0.446,0.632-0.669,1.552-0.669,2.76l-7.665-0.028l-0.084-0.167c-0.093-2.62,0.878-4.851,2.913-6.69
			c2.034-1.839,4.715-2.759,8.041-2.759c3.141,0,5.691,0.915,7.651,2.745c1.961,1.831,2.941,4.436,2.941,7.818v12.209
			c0,1.487,0.101,2.871,0.307,4.153c0.204,1.282,0.52,2.546,0.947,3.791H65.803z M60.646,182.62c0.799,0,1.537-0.213,2.216-0.641
			c0.678-0.428,1.212-0.976,1.602-1.645v-5.547h-2.982c-1.208,0-2.081,0.418-2.62,1.254c-0.539,0.836-0.809,1.895-0.809,3.178
			c0,1.004,0.232,1.821,0.697,2.453C59.215,182.305,59.847,182.62,60.646,182.62z"/>
		<path fill="#EB743B" d="M98.471,157.841l0.335,4.152c0.836-1.486,1.862-2.643,3.08-3.47c1.217-0.827,2.56-1.24,4.027-1.24
			c2.509,0,4.483,0.966,5.923,2.898c1.44,1.933,2.16,4.972,2.16,9.115V188h-7.943v-18.725c0-2.084-0.293-3.549-0.878-4.396
			c-0.586-0.847-1.491-1.27-2.718-1.27c-0.707,0-1.357,0.187-1.951,0.559c-0.595,0.372-1.097,0.884-1.506,1.534V188h-7.916v-30.159
			H98.471z"/>
		<path fill="#EB743B" d="M127.293,181.673h11.791V188h-20.878v-4.711l11.484-19.121h-11.149v-6.327h20.348v4.599L127.293,181.673z"
			/>
		<path fill="#EB743B" d="M77.427,150.036c0-1.227,0.391-2.23,1.171-3.011c0.78-0.78,1.82-1.171,3.122-1.171
			c1.3,0,2.341,0.391,3.121,1.171c0.781,0.78,1.171,1.784,1.171,3.011c0,1.208-0.386,2.211-1.156,3.01
			c-0.771,0.8-1.817,1.199-3.136,1.199c-1.32,0-2.365-0.399-3.137-1.199C77.813,152.247,77.427,151.244,77.427,150.036z M85.705,188
			h-7.916v-30.159h7.916V188z"/>
		<path fill="#353070" d="M29.862,104.036c0-1.227,0.391-2.23,1.171-3.011c0.78-0.78,1.82-1.171,3.122-1.171
			c1.3,0,2.341,0.391,3.121,1.171c0.781,0.78,1.171,1.784,1.171,3.011c0,1.208-0.386,2.211-1.156,3.01
			c-0.771,0.8-1.817,1.199-3.136,1.199c-1.32,0-2.365-0.399-3.137-1.199C30.248,106.247,29.862,105.244,29.862,104.036z M38.141,142
			h-7.916v-30.159h7.916V142z"/>
	</g>
	<g>
		<polygon fill="#EB743B" points="72,3 72,99 113,75 113,27 		"/>
		<polygon fill="#353070" points="69,3 28,27 28,75 69,99 		"/>
		<path fill="#FFFEDB" d="M104.281,59.087c-1.239-1.97-3.38-3.148-5.718-3.148c-0.666,0-1.324,0.103-1.956,0.295
			c-2.632-3.125-5.819-4.775-8.603-5.636c2.235-1.714,4.208-3.771,5.909-6.153c1.74,0.394,3.63,0.127,5.162-0.832
			c3.158-2.006,4.103-6.197,2.104-9.348c-1.249-1.975-3.39-3.152-5.724-3.152c-1.283,0-2.533,0.363-3.616,1.05
			c-3.146,1.991-4.093,6.181-2.105,9.336c0.13,0.207,0.271,0.404,0.422,0.596c-2.514,3.442-5.708,6.056-9.519,7.785l-0.014,0.004
			C77.093,51.487,75,52,72,52v5c4,0,5.931-1.125,10.016-2.898c1.366-0.024,6.962,0.184,10.991,4.747
			c-1.507,2.164-1.655,5.108-0.16,7.471c1.241,1.97,3.382,3.15,5.721,3.15c1.278,0,2.524-0.36,3.607-1.044
			c1.538-0.975,2.599-2.482,2.995-4.252C105.566,62.413,105.248,60.606,104.281,59.087z M94.061,35.67
			c0.423-0.266,0.901-0.405,1.396-0.405c0.903,0,1.731,0.456,2.219,1.224c0.772,1.214,0.403,2.836-0.818,3.61
			c-0.41,0.261-0.896,0.399-1.387,0.399c-0.493,0-0.974-0.134-1.39-0.391c-0.343-0.213-0.625-0.489-0.832-0.817
			C92.478,38.064,92.842,36.443,94.061,35.67z M101.119,63.27c-0.154,0.687-0.564,1.27-1.161,1.645
			c-0.413,0.264-0.896,0.406-1.391,0.406c-0.906,0-1.731-0.457-2.21-1.218c-0.745-1.18-0.441-2.727,0.691-3.528l0.117-0.078
			c1.208-0.766,2.866-0.367,3.608,0.808C101.151,61.896,101.271,62.591,101.119,63.27z"/>
		<path fill="#FFFEDB" d="M38.335,58.053c-1.939,0-3.747-0.771-5.089-2.171c-1.305-1.358-2.002-3.145-1.962-5.028
			c0.039-1.883,0.809-3.639,2.168-4.942c1.319-1.267,3.054-1.964,4.882-1.964c1.939,0,3.747,0.771,5.091,2.17
			c1.305,1.36,2.001,3.146,1.962,5.029c-0.039,1.883-0.81,3.639-2.17,4.942C41.897,57.355,40.164,58.053,38.335,58.053z
			 M38.334,47.447c-0.921,0-1.794,0.352-2.458,0.989c-0.686,0.657-1.073,1.541-1.093,2.49c-0.02,0.948,0.331,1.848,0.988,2.532
			c1.315,1.372,3.652,1.421,5.022,0.104c0.686-0.657,1.074-1.541,1.094-2.49c0.02-0.948-0.331-1.848-0.988-2.532
			C40.223,47.836,39.312,47.447,38.334,47.447z"/>
		<path fill="#EB743B" d="M54.875,59.484c-0.298,0-0.598-0.088-0.859-0.272c-0.679-0.476-0.844-1.411-0.368-2.089
			c0.327-0.467,0.621-0.965,0.876-1.482c1.714-3.495,1.473-7.537-0.647-10.811c-0.45-0.695-0.252-1.624,0.443-2.074
			c0.693-0.448,1.623-0.253,2.074,0.443c2.658,4.104,2.974,9.378,0.822,13.764c-0.323,0.657-0.696,1.289-1.111,1.881
			C55.813,59.262,55.348,59.484,54.875,59.484z"/>
		<path fill="#EB743B" d="M60.598,62.943c-0.306,0-0.614-0.093-0.881-0.286c-0.67-0.487-0.818-1.425-0.332-2.096
			c0.545-0.75,1.029-1.554,1.438-2.388c2.674-5.451,2.069-11.856-1.576-16.717c-0.497-0.663-0.362-1.604,0.3-2.101
			c0.665-0.496,1.603-0.362,2.101,0.3c4.326,5.769,5.042,13.37,1.869,19.838c-0.484,0.988-1.059,1.941-1.704,2.831
			C61.519,62.729,61.062,62.943,60.598,62.943z"/>
		<path fill="#EB743B" d="M49.624,55.811c-0.249,0-0.501-0.062-0.733-0.192c-0.723-0.405-0.979-1.32-0.573-2.042
			c0.905-1.611,0.978-3.575,0.196-5.253c-0.351-0.751-0.025-1.644,0.726-1.993c0.75-0.352,1.644-0.025,1.993,0.726
			c1.19,2.552,1.077,5.538-0.3,7.989C50.657,55.535,50.148,55.811,49.624,55.811z"/>
	</g>
</g>
</svg>
