<?xml version="1.0" encoding="utf-8"?>
<!-- Generator: Adobe Illustrator 17.0.0, SVG Export Plug-In . SVG Version: 6.00 Build 0)  -->
<!DOCTYPE svg PUBLIC "-//W3C//DTD SVG 1.1//EN" "http://www.w3.org/Graphics/SVG/1.1/DTD/svg11.dtd">
<svg version="1.1" id="Layer_1" xmlns="http://www.w3.org/2000/svg" xmlns:xlink="http://www.w3.org/1999/xlink" x="0px" y="0px"
	 width="220px" height="290px" viewBox="0 0 220 290" enable-background="new 0 0 220 290" xml:space="preserve">
<g>
</g>
<g>
	<g>
		<path fill="#353070" d="M23.545,205.816h18.234v10.641H10.233V161.85h13.312V205.816z"/>
		<path fill="#353070" d="M89.56,204.253c0-1.322-0.518-2.465-1.552-3.428c-1.035-0.963-3.02-2.149-5.951-3.559
			c-4.687-1.753-8.201-3.736-10.544-5.95c-2.344-2.214-3.515-5.089-3.515-8.625c0-3.795,1.502-7.036,4.507-9.725
			c3.003-2.688,6.979-4.032,11.923-4.032c5.175,0,9.3,1.38,12.377,4.141c3.076,2.76,4.556,6.281,4.441,10.564l-0.129,0.259H89.301
			c0-1.954-0.402-3.507-1.207-4.657c-0.806-1.149-2.042-1.725-3.709-1.725c-1.322,0-2.443,0.446-3.363,1.337
			c-0.921,0.892-1.38,1.97-1.38,3.234c0,1.38,0.459,2.494,1.38,3.342c0.92,0.849,2.917,2.005,5.994,3.472
			c4.887,1.667,8.51,3.644,10.867,5.93c2.357,2.285,3.536,5.282,3.536,8.991c0,3.967-1.582,7.216-4.744,9.745
			c-3.162,2.53-7.316,3.795-12.462,3.795c-5.377,0-9.632-1.566-12.765-4.7c-3.134-3.133-4.629-6.669-4.485-10.608l0.086-0.259
			h11.213c0.057,2.473,0.632,4.255,1.725,5.348c1.092,1.093,2.602,1.639,4.528,1.639c1.639,0,2.889-0.402,3.751-1.208
			C89.129,206.77,89.56,205.662,89.56,204.253z"/>
		<path fill="#353070" d="M122.118,158.197v11.601h6.469v8.883h-6.469v23.416c0,1.897,0.273,3.256,0.819,4.075
			c0.546,0.819,1.294,1.23,2.242,1.23c0.748,0,1.38-0.036,1.897-0.108c0.518-0.071,1.093-0.193,1.726-0.366l0.948,9.314
			c-1.294,0.402-2.53,0.69-3.708,0.862c-1.18,0.173-2.517,0.259-4.011,0.259c-3.939,0-6.95-1.214-9.034-3.644
			c-2.085-2.429-3.127-6.289-3.127-11.579v-23.459h-5.52v-8.883h5.52v-11.601H122.118z"/>
		<path fill="#353070" d="M153.641,217.362c-5.864,0-10.521-1.926-13.972-5.778c-3.45-3.852-5.175-8.711-5.175-14.575v-6.556
			c0-6.296,1.603-11.456,4.809-15.48c3.205-4.025,7.64-6.038,13.303-6.038c5.462,0,9.688,1.826,12.679,5.478
			c2.989,3.65,4.485,8.624,4.485,14.92v7.504h-23.071v0.173c0,3.076,0.696,5.605,2.091,7.589c1.395,1.984,3.5,2.976,6.318,2.976
			c2.3,0,4.168-0.259,5.605-0.775c1.438-0.518,3.148-1.381,5.132-2.588l3.105,7.806c-1.611,1.552-3.76,2.832-6.447,3.838
			C159.814,216.859,156.86,217.362,153.641,217.362z M152.605,178.724c-1.955,0-3.393,0.895-4.312,2.686
			c-0.921,1.79-1.438,4.201-1.553,7.232h10.996v-1.732c0-2.599-0.402-4.612-1.207-6.042
			C155.725,179.438,154.417,178.724,152.605,178.724z"/>
		<path fill="#353070" d="M187.148,169.798l0.518,6.425c1.293-2.3,2.882-4.089,4.765-5.369c1.883-1.278,3.96-1.919,6.231-1.919
			c3.881,0,6.936,1.495,9.164,4.485c2.227,2.99,3.342,7.69,3.342,14.102v28.936h-12.29v-28.969c0-3.224-0.453-5.489-1.358-6.8
			c-0.905-1.309-2.308-1.965-4.205-1.965c-1.093,0-2.099,0.289-3.019,0.864c-0.92,0.575-1.696,1.367-2.328,2.374v34.495h-12.247
			v-46.659H187.148z"/>
		<path fill="#EB743B" d="M5.256,285.457V230.85h19.405c5.813,0,10.336,1.273,13.57,3.82c3.234,2.547,4.851,6.305,4.851,11.272
			c0,2.595-0.742,4.915-2.226,6.961c-1.485,2.047-3.571,3.586-6.258,4.617c3.593,0.781,6.288,2.297,8.085,4.547
			c1.797,2.25,2.695,4.922,2.695,8.016c0,5.094-1.531,8.929-4.593,11.507c-3.063,2.578-7.517,3.867-13.359,3.867H5.256z
			 M18.567,253.583h6.328c1.594-0.031,2.805-0.535,3.633-1.512c0.827-0.977,1.242-2.394,1.242-4.251
			c0-2.205-0.422-3.811-1.266-4.818c-0.844-1.008-2.125-1.512-3.844-1.512h-6.094V253.583z M18.567,262.255v12.561h8.859
			c1.781,0,3.007-0.465,3.68-1.396c0.672-0.931,1.008-2.419,1.008-4.466c0-2.296-0.336-3.986-1.008-5.071
			c-0.673-1.086-1.898-1.629-3.68-1.629H18.567z"/>
		<path fill="#EB743B" d="M74.57,249.967l-4.614-0.13c-1.294,0-2.365,0.316-3.213,0.949c-0.849,0.633-1.503,1.523-1.962,2.673
			v31.998H52.534v-46.659h11.428l0.474,6.253l0.216,0.086c0.747-2.242,1.79-4.003,3.127-5.283c1.336-1.278,2.896-1.919,4.679-1.919
			c0.546,0,1.128,0.051,1.746,0.151c0.618,0.101,1.157,0.223,1.617,0.366L74.57,249.967z"/>
		<path fill="#EB743B" d="M103.506,285.457c-0.345-0.776-0.654-1.624-0.927-2.544c-0.273-0.92-0.482-1.854-0.626-2.804
			c-1.149,1.897-2.552,3.414-4.204,4.55c-1.653,1.136-3.572,1.703-5.757,1.703c-3.854,0-6.937-1.265-9.25-3.795
			c-2.315-2.529-3.472-5.907-3.472-10.134c0-4.571,1.473-8.121,4.42-10.651c2.947-2.529,7.324-3.795,13.132-3.795h4.613v-3.795
			c0-2.271-0.409-4.018-1.229-5.239c-0.819-1.222-2.049-1.833-3.688-1.833c-1.38,0-2.414,0.489-3.104,1.467
			c-0.69,0.978-1.035,2.4-1.035,4.268l-11.858-0.043l-0.13-0.259c-0.145-4.054,1.358-7.503,4.507-10.35
			c3.147-2.846,7.294-4.27,12.44-4.27c4.858,0,8.805,1.417,11.838,4.248c3.032,2.832,4.55,6.864,4.55,12.096v18.889
			c0,2.3,0.157,4.441,0.474,6.425c0.316,1.984,0.805,3.939,1.467,5.865H103.506z M95.528,277.134c1.235,0,2.378-0.33,3.428-0.991
			c1.05-0.661,1.876-1.51,2.479-2.545v-8.581h-4.613c-1.869,0-3.221,0.646-4.054,1.94c-0.835,1.294-1.251,2.933-1.251,4.916
			c0,1.553,0.359,2.818,1.078,3.795C93.314,276.646,94.292,277.134,95.528,277.134z"/>
		<path fill="#EB743B" d="M154.047,238.798l0.518,6.425c1.293-2.3,2.882-4.089,4.765-5.369c1.883-1.278,3.96-1.919,6.231-1.919
			c3.881,0,6.936,1.495,9.164,4.485c2.228,2.99,3.342,7.69,3.342,14.102v28.935h-12.29v-28.969c0-3.224-0.453-5.489-1.358-6.8
			c-0.905-1.309-2.308-1.965-4.205-1.965c-1.093,0-2.099,0.289-3.019,0.864c-0.92,0.575-1.696,1.367-2.328,2.374v34.495h-12.247
			v-46.659H154.047z"/>
		<path fill="#EB743B" d="M198.637,275.668h18.241v9.789h-32.3v-7.288l17.768-29.582h-17.25v-9.789h31.48v7.115L198.637,275.668z"/>
		<g>
			<g>
				<path fill="#EB743B" d="M121.49,226.723c0-1.897,0.604-3.449,1.812-4.657c1.207-1.207,2.817-1.812,4.83-1.812
					c2.012,0,3.622,0.605,4.829,1.812c1.208,1.208,1.812,2.76,1.812,4.657c0,1.869-0.597,3.422-1.789,4.657
					c-1.193,1.236-2.811,1.854-4.852,1.854c-2.042,0-3.659-0.618-4.852-1.854C122.086,230.144,121.49,228.592,121.49,226.723z
					 M134.297,285.457H122.05v-46.659h12.247V285.457z"/>
			</g>
			<g>
				<path fill="#353070" d="M47.946,157.089c0-1.897,0.604-3.449,1.812-4.657c1.207-1.207,2.817-1.812,4.83-1.812
					c2.012,0,3.622,0.605,4.829,1.812c1.208,1.208,1.812,2.76,1.812,4.657c0,1.869-0.597,3.422-1.789,4.657
					c-1.193,1.236-2.811,1.854-4.852,1.854c-2.042,0-3.659-0.618-4.852-1.854C48.543,160.511,47.946,158.958,47.946,157.089z
					 M60.754,215.823H48.507v-46.659h12.247V215.823z"/>
			</g>
		</g>
	</g>
	<g>
		<polygon fill="#EB743B" points="111.967,2.457 111.967,146.457 172.967,111.457 172.967,37.457 		"/>
		<polygon fill="#353070" points="106.967,2.457 45.967,37.457 45.967,111.457 106.967,146.457 		"/>
		<g>
			<g opacity="0.07">
				<path d="M129.269,94.19c0.386-0.645,1.066-1.03,1.819-1.03c0.378,0,0.752,0.104,1.078,0.297c1,0.601,1.331,1.899,0.735,2.898
					c-0.385,0.646-1.064,1.032-1.817,1.032c-0.379,0-0.755-0.104-1.084-0.301c-0.483-0.288-0.826-0.748-0.964-1.294
					C128.898,95.244,128.98,94.676,129.269,94.19z M141.871,116.553c-0.49,0.421-1.018,0.509-1.373,0.509
					c-0.621,0-1.207-0.269-1.608-0.734c-0.758-0.885-0.654-2.222,0.231-2.981c0.492-0.423,1.018-0.512,1.373-0.512
					c0.617,0,1.201,0.269,1.605,0.74c0.368,0.43,0.547,0.976,0.504,1.538C142.561,115.675,142.302,116.185,141.871,116.553z"/>
				<path d="M120.968,48.067c0.07,0.018,0.142,0.034,0.212,0.046C121.107,48.102,121.037,48.086,120.968,48.067z"/>
				<path d="M132.347,57.714c0.169-0.267,0.395-0.49,0.673-0.661c0.335-0.207,0.722-0.316,1.121-0.316c0.4,0,0.79,0.112,1.122,0.321
					c0.987,0.627,1.283,1.936,0.66,2.919c-0.392,0.618-1.063,0.988-1.795,0.988c-0.397,0-0.785-0.113-1.124-0.327
					C132.02,60.014,131.726,58.701,132.347,57.714z M138.726,37.526c-0.6,0.951-1.938,1.271-2.912,0.653l-0.096-0.063
					c-0.914-0.647-1.161-1.897-0.558-2.851c0.386-0.613,1.053-0.981,1.784-0.981c0.397,0,0.787,0.113,1.124,0.326
					c0.479,0.304,0.813,0.775,0.936,1.33C139.127,36.488,139.03,37.049,138.726,37.526z"/>
				<path d="M155.492,49.125c0.388-0.614,1.054-0.98,1.783-0.98c0.399,0,0.79,0.113,1.125,0.325c0.48,0.304,0.813,0.775,0.936,1.33
					c0.122,0.546,0.024,1.106-0.279,1.584c-0.598,0.951-1.939,1.272-2.912,0.653l-0.094-0.063
					C155.135,51.328,154.89,50.078,155.492,49.125z M155.492,72.588c0.388-0.614,1.054-0.98,1.783-0.98
					c0.399,0,0.79,0.112,1.125,0.326c0.48,0.304,0.813,0.774,0.936,1.329c0.122,0.546,0.024,1.107-0.279,1.585
					c-0.598,0.95-1.939,1.271-2.912,0.652l-0.094-0.063C155.135,74.791,154.89,73.541,155.492,72.588z M155.492,98.891
					c0.388-0.613,1.054-0.979,1.783-0.979c0.399,0,0.79,0.112,1.125,0.325c0.48,0.304,0.813,0.775,0.936,1.33
					c0.122,0.547,0.024,1.106-0.279,1.584c-0.598,0.951-1.939,1.271-2.912,0.653l-0.094-0.063
					C155.135,101.094,154.89,99.845,155.492,98.891z"/>
				<path d="M145.143,108.561c-1.165-1.36-2.858-2.139-4.648-2.139c-1.459,0-2.875,0.525-3.983,1.477
					c-1.612,1.383-2.326,3.429-2.087,5.397c-1.948,0.7-4.258,1.365-5.328,1.332c-0.821-0.044-1.302-0.346-2.224-0.972
					c-1.172-0.795-2.418-1.512-4.148-1.847c2.936-2.761,6.009-6.83,8.584-12.834c2.061-0.076,3.976-1.193,5.038-2.972
					c1.725-2.896,0.773-6.659-2.124-8.394c-0.949-0.565-2.032-0.864-3.134-0.864c-2.146,0-4.161,1.144-5.261,2.986
					c-0.838,1.405-1.079,3.05-0.678,4.636c0.351,1.393,1.16,2.59,2.302,3.429c-4.053,9.218-9.219,13.081-12.566,14.685
					c-0.128,0.045-0.248,0.101-0.36,0.168c-1.187,0.531-2.05,0.704-2.559,0.808v4c0.275-0.03,1.885-0.118,4.247-1.192
					c5.348-1.357,6.839-0.354,8.407,0.709c1.021,0.692,2.291,1.554,4.263,1.656c0.1,0.005,0.204,0.008,0.309,0.008
					c2.109,0,5.172-1.023,7.021-1.723c1.143,1.116,2.676,1.75,4.285,1.75l0,0c1.461,0,2.876-0.524,3.983-1.476
					c1.24-1.062,1.993-2.546,2.118-4.176C146.725,111.382,146.207,109.799,145.143,108.561z M129.269,91.785
					c0.386-0.645,1.066-1.03,1.819-1.03c0.378,0,0.752,0.104,1.078,0.297c1,0.601,1.331,1.899,0.735,2.899
					c-0.385,0.646-1.064,1.032-1.817,1.032c-0.379,0-0.755-0.104-1.084-0.301c-0.483-0.288-0.826-0.748-0.964-1.294
					C128.898,92.839,128.98,92.271,129.269,91.785z M141.871,114.147c-0.49,0.421-1.018,0.509-1.373,0.509
					c-0.621,0-1.207-0.268-1.608-0.734c-0.758-0.885-0.654-2.222,0.231-2.981c0.492-0.423,1.018-0.512,1.373-0.512
					c0.617,0,1.201,0.268,1.605,0.74c0.368,0.43,0.547,0.976,0.504,1.538C142.561,113.27,142.302,113.779,141.871,114.147z"/>
				<path d="M120.968,45.662c0.07,0.018,0.142,0.034,0.212,0.046C121.107,45.696,121.037,45.681,120.968,45.662z"/>
				<path d="M142.917,32.661c-0.357-1.599-1.317-2.964-2.708-3.844c-0.98-0.617-2.109-0.944-3.265-0.944
					c-2.117,0-4.053,1.066-5.174,2.85c-1.354,2.138-1.218,4.799,0.144,6.759c-3.645,4.124-8.706,4.313-9.942,4.293
					c-3.692-1.604-7.234-2.164-10.005-2.317v3.996c2.441,0.144,5.553,0.686,8.748,2.136c0.005,0.002,0.01,0.002,0.015,0.005
					c3.445,1.563,6.334,3.928,8.607,7.041c-0.136,0.173-0.265,0.352-0.382,0.538c-1.796,2.855-0.942,6.644,1.903,8.444
					c0.98,0.622,2.111,0.951,3.27,0.951c2.113,0,4.051-1.065,5.183-2.851c1.806-2.851,0.951-6.642-1.908-8.453
					c-1.384-0.871-3.092-1.113-4.667-0.755c-1.538-2.154-3.323-4.017-5.345-5.566c2.517-0.778,5.401-2.269,7.78-5.096
					c0.572,0.172,1.166,0.267,1.77,0.267c2.116,0,4.051-1.068,5.172-2.849C142.987,35.89,143.273,34.256,142.917,32.661z
					 M132.347,55.309c0.169-0.267,0.395-0.49,0.673-0.661c0.335-0.207,0.722-0.316,1.121-0.316c0.4,0,0.79,0.112,1.122,0.321
					c0.987,0.627,1.283,1.936,0.66,2.919c-0.392,0.618-1.063,0.988-1.795,0.988c-0.397,0-0.785-0.113-1.124-0.327
					C132.02,57.608,131.726,56.296,132.347,55.309z M138.726,35.121c-0.6,0.951-1.938,1.271-2.912,0.653l-0.096-0.063
					c-0.914-0.647-1.161-1.897-0.558-2.851c0.386-0.613,1.053-0.981,1.784-0.981c0.397,0,0.787,0.113,1.124,0.326
					c0.479,0.304,0.813,0.775,0.936,1.33C139.127,34.083,139.03,34.644,138.726,35.121z"/>
				<path d="M151.612,73.645c0.425,1.035,1.136,1.962,2.109,2.649c0.072,0.052,0.151,0.105,0.283,0.191
					c0.981,0.621,2.11,0.949,3.268,0.949c2.116,0,4.052-1.068,5.173-2.849c0.875-1.375,1.16-3.01,0.805-4.604
					c-0.358-1.598-1.318-2.964-2.709-3.844c-0.98-0.617-2.109-0.944-3.266-0.944c-0.125,0-0.25,0.008-0.375,0.018
					c-0.71-3.157-0.919-7.768,0.035-11.265c0.112,0.011,0.225,0.024,0.337,0.024c2.116,0,4.052-1.067,5.173-2.849
					c0.875-1.375,1.16-3.009,0.805-4.604c-0.358-1.599-1.318-2.964-2.709-3.844c-0.98-0.617-2.109-0.944-3.266-0.944
					c-2.114,0-4.051,1.066-5.173,2.85c-1.604,2.532-1.12,5.804,1.025,7.765c0.021,0.02,0.048,0.037,0.071,0.059
					c-1.349,4.518-1.145,10.324-0.036,14.417c-0.143,0.132-0.294,0.254-0.426,0.399c-0.229,0.255-0.445,0.526-0.634,0.824
					c-0.318,0.502-0.551,1.033-0.71,1.578c-3.371,0.488-5.198,1.671-6.824,2.729c-2.035,1.324-3.961,2.572-9.636,2.665
					c-1.964-0.23-3.553-0.177-5.29-0.116c-1.431,0.052-2.91,0.106-4.849,0.003c-1.335-0.071-2.104-0.882-3.458-2.424
					c-1.803-2.055-4.219-4.648-9.369-5.022v4c3.295,0.3,4.796,1.888,6.356,3.667c1.487,1.694,3.175,3.615,6.256,3.782
					c2.118,0.114,3.76,0.052,5.208,0.001c2.491-0.092,4.453-0.161,7.855,0.684c2.607,0.643,12.099,9.673,14.773,14.322
					c-0.108,0.142-0.219,0.282-0.314,0.434c-1.743,2.755-1.026,6.385,1.619,8.251c0.072,0.052,0.151,0.104,0.283,0.191
					c0.981,0.621,2.11,0.948,3.268,0.948c2.116,0,4.052-1.068,5.173-2.849c0.875-1.374,1.16-3.009,0.805-4.603
					c-0.358-1.6-1.318-2.965-2.709-3.845c-0.98-0.617-2.109-0.944-3.266-0.944c-0.528,0-1.047,0.067-1.543,0.195
					c-2.561-4.187-8.652-10.455-13.189-13.792c1.813-0.628,3.05-1.435,4.212-2.188C148.183,74.782,149.369,74.021,151.612,73.645z
					 M155.492,46.72c0.388-0.614,1.054-0.98,1.783-0.98c0.399,0,0.79,0.113,1.125,0.325c0.48,0.304,0.813,0.775,0.936,1.33
					c0.122,0.546,0.024,1.106-0.279,1.584c-0.598,0.951-1.939,1.272-2.912,0.653l-0.094-0.063
					C155.135,48.923,154.89,47.673,155.492,46.72z M155.492,70.183c0.388-0.614,1.054-0.98,1.783-0.98
					c0.399,0,0.79,0.112,1.125,0.326c0.48,0.304,0.813,0.774,0.936,1.329c0.122,0.546,0.024,1.107-0.279,1.585
					c-0.598,0.95-1.939,1.271-2.912,0.652l-0.094-0.063C155.135,72.386,154.89,71.136,155.492,70.183z M155.492,96.485
					c0.388-0.613,1.054-0.979,1.783-0.979c0.399,0,0.79,0.112,1.125,0.325c0.48,0.304,0.813,0.775,0.936,1.33
					c0.122,0.547,0.024,1.106-0.279,1.584c-0.598,0.951-1.939,1.271-2.912,0.653l-0.094-0.063
					C155.135,98.688,154.89,97.439,155.492,96.485z"/>
			</g>
			<g>
				<g>
					<path fill="#D3562C" d="M145.143,111.561c-1.165-1.36-2.858-2.139-4.648-2.139c-1.459,0-2.875,0.525-3.983,1.477
						c-1.612,1.383-2.326,3.429-2.087,5.397c-1.948,0.7-4.258,1.365-5.328,1.332c-0.821-0.044-1.302-0.346-2.224-0.972
						c-1.172-0.795-2.418-1.512-4.148-1.847c2.936-2.761,6.009-6.83,8.584-12.834c2.061-0.076,3.976-1.193,5.038-2.972
						c1.725-2.896,0.773-6.659-2.124-8.394c-0.949-0.565-2.032-0.864-3.134-0.864c-2.146,0-4.161,1.144-5.261,2.986
						c-0.838,1.405-1.079,3.05-0.678,4.636c0.351,1.393,1.16,2.59,2.302,3.429c-4.053,9.218-9.219,13.081-12.566,14.685
						c-0.128,0.045-0.248,0.101-0.36,0.168c-1.187,0.531-2.05,0.704-2.559,0.808v4c0.275-0.03,1.885-0.118,4.247-1.192
						c5.348-1.357,6.839-0.354,8.407,0.709c1.021,0.692,2.291,1.554,4.263,1.656c0.1,0.005,0.204,0.008,0.309,0.008
						c2.109,0,5.172-1.023,7.021-1.723c1.143,1.116,2.676,1.75,4.285,1.75l0,0c1.461,0,2.876-0.524,3.983-1.476
						c1.24-1.062,1.993-2.546,2.118-4.176C146.725,114.382,146.207,112.799,145.143,111.561z M129.269,94.785
						c0.386-0.645,1.066-1.03,1.819-1.03c0.378,0,0.752,0.104,1.078,0.297c1,0.601,1.331,1.899,0.735,2.899
						c-0.385,0.646-1.064,1.032-1.817,1.032c-0.379,0-0.755-0.104-1.084-0.301c-0.483-0.288-0.826-0.748-0.964-1.294
						C128.898,95.839,128.98,95.271,129.269,94.785z M141.871,117.147c-0.49,0.421-1.018,0.509-1.373,0.509
						c-0.621,0-1.207-0.268-1.608-0.734c-0.758-0.885-0.654-2.222,0.231-2.981c0.492-0.423,1.018-0.512,1.373-0.512
						c0.617,0,1.201,0.268,1.605,0.74c0.368,0.43,0.547,0.976,0.504,1.538C142.561,116.27,142.302,116.779,141.871,117.147z"/>
					<path d="M120.968,48.067c0.07,0.018,0.142,0.034,0.212,0.046C121.107,48.102,121.037,48.086,120.968,48.067z"/>
					<path fill="#D3562C" d="M142.917,34.665c-0.357-1.599-1.317-2.964-2.708-3.844c-0.98-0.617-2.109-0.944-3.265-0.944
						c-2.117,0-4.053,1.066-5.174,2.85c-1.354,2.138-1.218,4.799,0.144,6.759c-3.645,4.124-8.706,4.314-9.942,4.293
						c-3.692-1.604-7.234-2.164-10.005-2.317v3.996c2.441,0.144,5.553,0.686,8.748,2.136c0.005,0.002,0.01,0.002,0.015,0.005
						c3.445,1.563,6.334,3.928,8.607,7.041c-0.136,0.173-0.265,0.352-0.382,0.538c-1.796,2.854-0.942,6.644,1.903,8.444
						c0.98,0.622,2.111,0.951,3.27,0.951c2.113,0,4.051-1.065,5.183-2.851c1.806-2.851,0.951-6.642-1.908-8.453
						c-1.384-0.871-3.092-1.113-4.667-0.755c-1.538-2.154-3.323-4.017-5.345-5.566c2.517-0.778,5.401-2.269,7.78-5.096
						c0.572,0.172,1.166,0.267,1.77,0.267c2.116,0,4.051-1.068,5.172-2.849C142.987,37.894,143.273,36.26,142.917,34.665z
						 M132.347,57.313c0.169-0.267,0.395-0.49,0.673-0.661c0.335-0.207,0.722-0.316,1.121-0.316c0.4,0,0.79,0.112,1.122,0.321
						c0.987,0.627,1.283,1.936,0.66,2.919c-0.392,0.618-1.063,0.988-1.795,0.988c-0.397,0-0.785-0.113-1.124-0.327
						C132.02,59.612,131.726,58.3,132.347,57.313z M138.726,37.125c-0.6,0.951-1.938,1.271-2.912,0.653l-0.096-0.063
						c-0.914-0.648-1.161-1.898-0.558-2.851c0.386-0.613,1.053-0.98,1.784-0.98c0.397,0,0.787,0.113,1.124,0.326
						c0.479,0.304,0.813,0.775,0.936,1.33C139.127,36.087,139.03,36.647,138.726,37.125z"/>
					<path fill="#D3562C" d="M151.612,76.645c0.425,1.035,1.136,1.962,2.109,2.649c0.072,0.052,0.151,0.105,0.283,0.191
						c0.981,0.621,2.11,0.949,3.268,0.949c2.116,0,4.052-1.068,5.173-2.849c0.875-1.375,1.16-3.01,0.805-4.604
						c-0.358-1.598-1.318-2.964-2.709-3.844c-0.98-0.617-2.109-0.944-3.266-0.944c-0.125,0-0.25,0.008-0.375,0.018
						c-0.71-3.157-0.919-7.768,0.035-11.265c0.112,0.011,0.225,0.024,0.337,0.024c2.116,0,4.052-1.067,5.173-2.849
						c0.875-1.375,1.16-3.009,0.805-4.604c-0.358-1.599-1.318-2.964-2.709-3.844c-0.98-0.617-2.109-0.944-3.266-0.944
						c-2.114,0-4.051,1.066-5.173,2.85c-1.604,2.532-1.12,5.804,1.025,7.765c0.021,0.02,0.048,0.037,0.071,0.059
						c-1.349,4.518-1.145,10.324-0.036,14.417c-0.143,0.132-0.294,0.254-0.426,0.399c-0.229,0.255-0.445,0.526-0.634,0.824
						c-0.318,0.502-0.551,1.033-0.71,1.578c-3.371,0.488-5.198,1.671-6.824,2.729c-2.035,1.324-3.961,2.572-9.636,2.665
						c-1.964-0.23-3.553-0.177-5.29-0.116c-1.431,0.052-2.91,0.106-4.849,0.003c-1.335-0.071-2.104-0.882-3.458-2.424
						c-1.803-2.055-4.219-4.648-9.369-5.022v4c3.295,0.3,4.796,1.888,6.356,3.667c1.487,1.694,3.175,3.615,6.256,3.782
						c2.118,0.114,3.76,0.052,5.208,0.001c2.491-0.092,4.453-0.161,7.855,0.684c2.607,0.643,12.099,9.673,14.773,14.322
						c-0.108,0.142-0.219,0.282-0.314,0.434c-1.743,2.755-1.026,6.385,1.619,8.251c0.072,0.052,0.151,0.104,0.283,0.191
						c0.981,0.621,2.11,0.948,3.268,0.948c2.116,0,4.052-1.068,5.173-2.849c0.875-1.374,1.16-3.009,0.805-4.603
						c-0.358-1.6-1.318-2.965-2.709-3.845c-0.98-0.617-2.109-0.944-3.266-0.944c-0.528,0-1.047,0.067-1.543,0.195
						c-2.561-4.187-8.652-10.455-13.189-13.792c1.813-0.628,3.05-1.435,4.212-2.188C148.183,77.782,149.369,77.021,151.612,76.645z
						 M155.492,49.72c0.388-0.614,1.054-0.98,1.783-0.98c0.399,0,0.79,0.113,1.125,0.325c0.48,0.304,0.813,0.775,0.936,1.33
						c0.122,0.546,0.024,1.106-0.279,1.584c-0.598,0.951-1.939,1.272-2.912,0.653l-0.094-0.063
						C155.135,51.923,154.89,50.673,155.492,49.72z M155.492,73.183c0.388-0.614,1.054-0.98,1.783-0.98
						c0.399,0,0.79,0.112,1.125,0.326c0.48,0.304,0.813,0.774,0.936,1.329c0.122,0.546,0.024,1.107-0.279,1.585
						c-0.598,0.95-1.939,1.271-2.912,0.652l-0.094-0.063C155.135,75.386,154.89,74.136,155.492,73.183z M155.492,99.485
						c0.388-0.613,1.054-0.979,1.783-0.979c0.399,0,0.79,0.112,1.125,0.325c0.48,0.304,0.813,0.775,0.936,1.33
						c0.122,0.547,0.024,1.106-0.279,1.584c-0.598,0.951-1.939,1.271-2.912,0.653l-0.094-0.063
						C155.135,101.688,154.89,100.439,155.492,99.485z"/>
				</g>
				<g>
					<path fill="#FFFEDB" d="M145.143,108.561c-1.165-1.36-2.858-2.139-4.648-2.139c-1.459,0-2.875,0.525-3.983,1.477
						c-1.612,1.383-2.326,3.429-2.087,5.397c-1.948,0.7-4.258,1.365-5.328,1.332c-0.821-0.044-1.302-0.346-2.224-0.972
						c-1.172-0.795-2.418-1.512-4.148-1.847c2.936-2.761,6.009-6.83,8.584-12.834c2.061-0.076,3.976-1.193,5.038-2.972
						c1.725-2.896,0.773-6.659-2.124-8.394c-0.949-0.565-2.032-0.864-3.134-0.864c-2.146,0-4.161,1.144-5.261,2.986
						c-0.838,1.405-1.079,3.05-0.678,4.636c0.351,1.393,1.16,2.59,2.302,3.429c-4.053,9.218-9.219,13.081-12.566,14.685
						c-0.128,0.045-0.248,0.101-0.36,0.168c-1.187,0.531-2.05,0.704-2.559,0.808v4c0.275-0.03,1.885-0.118,4.247-1.192
						c5.348-1.357,6.839-0.354,8.407,0.709c1.021,0.692,2.291,1.554,4.263,1.656c0.1,0.005,0.204,0.008,0.309,0.008
						c2.109,0,5.172-1.023,7.021-1.723c1.143,1.116,2.676,1.75,4.285,1.75l0,0c1.461,0,2.876-0.524,3.983-1.476
						c1.24-1.062,1.993-2.546,2.118-4.176C146.725,111.382,146.207,109.799,145.143,108.561z M129.269,91.785
						c0.386-0.645,1.066-1.03,1.819-1.03c0.378,0,0.752,0.104,1.078,0.297c1,0.601,1.331,1.899,0.735,2.899
						c-0.385,0.646-1.064,1.032-1.817,1.032c-0.379,0-0.755-0.104-1.084-0.301c-0.483-0.288-0.826-0.748-0.964-1.294
						C128.898,92.839,128.98,92.271,129.269,91.785z M141.871,114.147c-0.49,0.421-1.018,0.509-1.373,0.509
						c-0.621,0-1.207-0.268-1.608-0.734c-0.758-0.885-0.654-2.222,0.231-2.981c0.492-0.423,1.018-0.512,1.373-0.512
						c0.617,0,1.201,0.268,1.605,0.74c0.368,0.43,0.547,0.976,0.504,1.538C142.561,113.27,142.302,113.779,141.871,114.147z"/>
					<path fill="#FFFEDB" d="M120.968,45.662c0.07,0.018,0.142,0.034,0.212,0.046C121.107,45.696,121.037,45.681,120.968,45.662z"/>
					<path fill="#FFFEDB" d="M142.917,32.661c-0.357-1.599-1.317-2.964-2.708-3.844c-0.98-0.617-2.109-0.944-3.265-0.944
						c-2.117,0-4.053,1.066-5.174,2.85c-1.354,2.138-1.218,4.799,0.144,6.759c-3.645,4.124-8.706,4.313-9.942,4.293
						c-3.692-1.604-7.234-2.164-10.005-2.317v3.996c2.441,0.144,5.553,0.686,8.748,2.136c0.005,0.002,0.01,0.002,0.015,0.005
						c3.445,1.563,6.334,3.928,8.607,7.041c-0.136,0.173-0.265,0.352-0.382,0.538c-1.796,2.855-0.942,6.644,1.903,8.444
						c0.98,0.622,2.111,0.951,3.27,0.951c2.113,0,4.051-1.065,5.183-2.851c1.806-2.851,0.951-6.642-1.908-8.453
						c-1.384-0.871-3.092-1.113-4.667-0.755c-1.538-2.154-3.323-4.017-5.345-5.566c2.517-0.778,5.401-2.269,7.78-5.096
						c0.572,0.172,1.166,0.267,1.77,0.267c2.116,0,4.051-1.068,5.172-2.849C142.987,35.89,143.273,34.256,142.917,32.661z
						 M132.347,55.309c0.169-0.267,0.395-0.49,0.673-0.661c0.335-0.207,0.722-0.316,1.121-0.316c0.4,0,0.79,0.112,1.122,0.321
						c0.987,0.627,1.283,1.936,0.66,2.919c-0.392,0.618-1.063,0.988-1.795,0.988c-0.397,0-0.785-0.113-1.124-0.327
						C132.02,57.608,131.726,56.296,132.347,55.309z M138.726,35.121c-0.6,0.951-1.938,1.271-2.912,0.653l-0.096-0.063
						c-0.914-0.647-1.161-1.897-0.558-2.851c0.386-0.613,1.053-0.981,1.784-0.981c0.397,0,0.787,0.113,1.124,0.326
						c0.479,0.304,0.813,0.775,0.936,1.33C139.127,34.083,139.03,34.644,138.726,35.121z"/>
					<path fill="#FFFEDB" d="M151.612,73.645c0.425,1.035,1.136,1.962,2.109,2.649c0.072,0.052,0.151,0.105,0.283,0.191
						c0.981,0.621,2.11,0.949,3.268,0.949c2.116,0,4.052-1.068,5.173-2.849c0.875-1.375,1.16-3.01,0.805-4.604
						c-0.358-1.598-1.318-2.964-2.709-3.844c-0.98-0.617-2.109-0.944-3.266-0.944c-0.125,0-0.25,0.008-0.375,0.018
						c-0.71-3.157-0.919-7.768,0.035-11.265c0.112,0.011,0.225,0.024,0.337,0.024c2.116,0,4.052-1.067,5.173-2.849
						c0.875-1.375,1.16-3.009,0.805-4.604c-0.358-1.599-1.318-2.964-2.709-3.844c-0.98-0.617-2.109-0.944-3.266-0.944
						c-2.114,0-4.051,1.066-5.173,2.85c-1.604,2.532-1.12,5.804,1.025,7.765c0.021,0.02,0.048,0.037,0.071,0.059
						c-1.349,4.518-1.145,10.324-0.036,14.417c-0.143,0.132-0.294,0.254-0.426,0.399c-0.229,0.255-0.445,0.526-0.634,0.824
						c-0.318,0.502-0.551,1.033-0.71,1.578c-3.371,0.488-5.198,1.671-6.824,2.729c-2.035,1.324-3.961,2.572-9.636,2.665
						c-1.964-0.23-3.553-0.177-5.29-0.116c-1.431,0.052-2.91,0.106-4.849,0.003c-1.335-0.071-2.104-0.882-3.458-2.424
						c-1.803-2.055-4.219-4.648-9.369-5.022v4c3.295,0.3,4.796,1.888,6.356,3.667c1.487,1.694,3.175,3.615,6.256,3.782
						c2.118,0.114,3.76,0.052,5.208,0.001c2.491-0.092,4.453-0.161,7.855,0.684c2.607,0.643,12.099,9.673,14.773,14.322
						c-0.108,0.142-0.219,0.282-0.314,0.434c-1.743,2.755-1.026,6.385,1.619,8.251c0.072,0.052,0.151,0.104,0.283,0.191
						c0.981,0.621,2.11,0.948,3.268,0.948c2.116,0,4.052-1.068,5.173-2.849c0.875-1.374,1.16-3.009,0.805-4.603
						c-0.358-1.6-1.318-2.965-2.709-3.845c-0.98-0.617-2.109-0.944-3.266-0.944c-0.528,0-1.047,0.067-1.543,0.195
						c-2.561-4.187-8.652-10.455-13.189-13.792c1.813-0.628,3.05-1.435,4.212-2.188C148.183,74.782,149.369,74.021,151.612,73.645z
						 M155.492,46.72c0.388-0.614,1.054-0.98,1.783-0.98c0.399,0,0.79,0.113,1.125,0.325c0.48,0.304,0.813,0.775,0.936,1.33
						c0.122,0.546,0.024,1.106-0.279,1.584c-0.598,0.951-1.939,1.272-2.912,0.653l-0.094-0.063
						C155.135,48.923,154.89,47.673,155.492,46.72z M155.492,70.183c0.388-0.614,1.054-0.98,1.783-0.98
						c0.399,0,0.79,0.112,1.125,0.326c0.48,0.304,0.813,0.774,0.936,1.329c0.122,0.546,0.024,1.107-0.279,1.585
						c-0.598,0.95-1.939,1.271-2.912,0.652l-0.094-0.063C155.135,72.386,154.89,71.136,155.492,70.183z M155.492,96.485
						c0.388-0.613,1.054-0.979,1.783-0.979c0.399,0,0.79,0.112,1.125,0.325c0.48,0.304,0.813,0.775,0.936,1.33
						c0.122,0.547,0.024,1.106-0.279,1.584c-0.598,0.951-1.939,1.271-2.912,0.653l-0.094-0.063
						C155.135,98.688,154.89,97.439,155.492,96.485z"/>
				</g>
			</g>
		</g>
		<g>
			<g opacity="0.3">
				<path d="M64.238,68.679c-2.683,0-5.183-1.066-7.04-3.002c-1.804-1.88-2.768-4.351-2.714-6.955c0.054-2.605,1.119-5.034,3-6.838
					c1.825-1.752,4.224-2.717,6.753-2.717c2.683,0,5.184,1.066,7.04,3.002c1.805,1.88,2.769,4.351,2.715,6.956
					c-0.054,2.605-1.119,5.034-3,6.838C69.167,67.714,66.769,68.679,64.238,68.679z M64.237,54.167
					c-1.232,0-2.401,0.471-3.292,1.324c-0.916,0.88-1.436,2.063-1.462,3.333c-0.026,1.271,0.444,2.475,1.323,3.392
					c0.905,0.943,2.124,1.463,3.432,1.463c1.233,0,2.402-0.471,3.293-1.324c0.916-0.88,1.435-2.063,1.462-3.333
					c0.026-1.271-0.444-2.475-1.323-3.392C66.765,54.687,65.546,54.167,64.237,54.167z"/>
				<path d="M94.515,99.962H75.171c-1.104,0-2-0.896-2-2s0.896-2,2-2h19.344c1.104,0,2,0.896,2,2S95.619,99.962,94.515,99.962z"/>
				<path d="M94.515,112.084H75.171c-1.104,0-2-0.896-2-2c0-1.104,0.896-2,2-2h19.344c1.104,0,2,0.896,2,2
					C96.515,111.188,95.619,112.084,94.515,112.084z"/>
				<circle cx="64.326" cy="97.962" r="3"/>
				<circle cx="64.326" cy="110.084" r="3"/>
				<path d="M94.515,87.839H75.171c-1.104,0-2-0.896-2-2s0.896-2,2-2h19.344c1.104,0,2,0.896,2,2S95.619,87.839,94.515,87.839z"/>
				<circle cx="64.326" cy="85.839" r="3"/>
				<path d="M86.868,70.479c-0.396,0-0.796-0.117-1.146-0.361c-0.904-0.634-1.124-1.881-0.491-2.786
					c0.449-0.641,0.854-1.325,1.202-2.035c2.354-4.799,2.023-10.349-0.888-14.844c-0.601-0.927-0.336-2.165,0.592-2.766
					c0.928-0.602,2.166-0.336,2.766,0.592c3.627,5.601,4.057,12.797,1.121,18.781c-0.44,0.895-0.949,1.757-1.516,2.566
					C88.119,70.183,87.499,70.479,86.868,70.479z"/>
				<path d="M94.698,75.212c-0.407,0-0.818-0.124-1.174-0.382c-0.894-0.649-1.092-1.9-0.442-2.794
					c0.744-1.024,1.408-2.126,1.973-3.275c3.667-7.475,2.839-16.261-2.162-22.927c-0.663-0.884-0.484-2.138,0.399-2.8
					c0.884-0.664,2.139-0.482,2.8,0.4c5.908,7.876,6.887,18.257,2.554,27.09c-0.666,1.355-1.448,2.655-2.327,3.864
					C95.927,74.926,95.317,75.212,94.698,75.212z"/>
				<path d="M79.684,65.453c-0.331,0-0.668-0.082-0.978-0.256c-0.963-0.541-1.306-1.76-0.765-2.724
					c1.247-2.22,1.348-4.925,0.271-7.236c-0.467-1.001-0.033-2.191,0.968-2.657c1-0.469,2.19-0.035,2.657,0.968
					c1.62,3.476,1.468,7.544-0.407,10.885C81.063,65.086,80.383,65.453,79.684,65.453z"/>
			</g>
			<g>
				<path fill="#FFFEDB" d="M64.238,65.679c-2.683,0-5.183-1.066-7.04-3.002c-1.804-1.88-2.768-4.351-2.714-6.955
					c0.054-2.605,1.119-5.034,3-6.838c1.825-1.752,4.224-2.717,6.753-2.717c2.683,0,5.184,1.066,7.04,3.002
					c1.805,1.88,2.769,4.351,2.715,6.956c-0.054,2.605-1.119,5.034-3,6.838C69.167,64.714,66.769,65.679,64.238,65.679z
					 M64.237,51.167c-1.232,0-2.401,0.471-3.292,1.324c-0.916,0.88-1.436,2.063-1.462,3.333c-0.026,1.271,0.444,2.475,1.323,3.392
					c0.905,0.943,2.124,1.463,3.432,1.463c1.233,0,2.402-0.471,3.293-1.324c0.916-0.88,1.435-2.063,1.462-3.333
					c0.026-1.271-0.444-2.475-1.323-3.392C66.765,51.687,65.546,51.167,64.237,51.167z"/>
				<path fill="#FFFEDB" d="M94.515,96.962H75.171c-1.104,0-2-0.896-2-2s0.896-2,2-2h19.344c1.104,0,2,0.896,2,2
					S95.619,96.962,94.515,96.962z"/>
				<path fill="#FFFEDB" d="M94.515,109.084H75.171c-1.104,0-2-0.896-2-2c0-1.104,0.896-2,2-2h19.344c1.104,0,2,0.896,2,2
					C96.515,108.188,95.619,109.084,94.515,109.084z"/>
				<circle fill="#FFFEDB" cx="64.326" cy="94.962" r="3"/>
				<circle fill="#FFFEDB" cx="64.326" cy="107.084" r="3"/>
				<path fill="#FFFEDB" d="M94.515,84.839H75.171c-1.104,0-2-0.896-2-2s0.896-2,2-2h19.344c1.104,0,2,0.896,2,2
					S95.619,84.839,94.515,84.839z"/>
				<circle fill="#FFFEDB" cx="64.326" cy="82.839" r="3"/>
				<path fill="#EB743B" d="M86.868,67.479c-0.396,0-0.796-0.117-1.146-0.361c-0.904-0.634-1.124-1.881-0.491-2.786
					c0.449-0.641,0.854-1.325,1.202-2.035c2.354-4.799,2.023-10.349-0.888-14.844c-0.601-0.927-0.336-2.165,0.592-2.766
					c0.928-0.602,2.166-0.336,2.766,0.592c3.627,5.601,4.057,12.797,1.121,18.781c-0.44,0.895-0.949,1.757-1.516,2.566
					C88.119,67.183,87.499,67.479,86.868,67.479z"/>
				<path fill="#EB743B" d="M94.698,72.212c-0.407,0-0.818-0.124-1.174-0.382c-0.894-0.649-1.092-1.9-0.442-2.794
					c0.744-1.024,1.408-2.126,1.973-3.275c3.667-7.475,2.839-16.261-2.162-22.927c-0.663-0.884-0.484-2.138,0.399-2.8
					c0.884-0.664,2.139-0.482,2.8,0.4c5.908,7.876,6.887,18.257,2.554,27.09c-0.666,1.355-1.448,2.655-2.327,3.864
					C95.927,71.926,95.317,72.212,94.698,72.212z"/>
				<path fill="#EB743B" d="M79.684,62.453c-0.331,0-0.668-0.082-0.978-0.256c-0.963-0.541-1.306-1.76-0.765-2.724
					c1.247-2.22,1.348-4.925,0.271-7.236c-0.467-1.001-0.033-2.191,0.968-2.657c1-0.469,2.19-0.035,2.657,0.968
					c1.62,3.476,1.468,7.544-0.407,10.885C81.063,62.086,80.383,62.453,79.684,62.453z"/>
			</g>
		</g>
	</g>
</g>
</svg>
