<?xml version="1.0" encoding="utf-8"?>
<!-- Generator: Adobe Illustrator 17.0.0, SVG Export Plug-In . SVG Version: 6.00 Build 0)  -->
<!DOCTYPE svg PUBLIC "-//W3C//DTD SVG 1.1//EN" "http://www.w3.org/Graphics/SVG/1.1/DTD/svg11.dtd">
<svg version="1.1" id="Layer_1" xmlns="http://www.w3.org/2000/svg" xmlns:xlink="http://www.w3.org/1999/xlink" x="0px" y="0px"
	 width="62px" height="30px" viewBox="0 0 62 30" enable-background="new 0 0 62 30" xml:space="preserve">
<g>
	<g>
		<polygon fill="#353070" points="14,1 2,8 2,22 14,29 		"/>
		<polygon fill="#EB743B" points="15,1 27,8 27,22 15,29 		"/>
	</g>
	<g>
		<path fill="#353070" d="M36.267,21.149h6.6V25H31.448V5.236h4.818V21.149z"/>
		<path fill="#EB743B" d="M45.783,25V5.236h7.023c2.104,0,3.741,0.461,4.911,1.383c1.171,0.922,1.756,2.281,1.756,4.08
			c0,0.938-0.269,1.778-0.806,2.52c-0.537,0.74-1.292,1.297-2.265,1.671c1.301,0.282,2.276,0.831,2.927,1.646
			c0.649,0.813,0.975,1.781,0.975,2.9c0,1.844-0.554,3.231-1.662,4.165C57.534,24.533,55.923,25,53.808,25H45.783z M50.602,13.464
			h2.29c0.577-0.011,1.015-0.193,1.314-0.547s0.45-0.866,0.45-1.538c0-0.798-0.153-1.38-0.458-1.744
			c-0.306-0.365-0.77-0.547-1.392-0.547h-2.205V13.464z M50.602,16.603v4.547h3.206c0.645,0,1.089-0.169,1.332-0.506
			c0.243-0.336,0.364-0.875,0.364-1.616c0-0.831-0.121-1.442-0.364-1.835s-0.688-0.59-1.332-0.59H50.602z"/>
	</g>
</g>
</svg>
