<?xml version="1.0" encoding="utf-8"?>
<!-- Generator: Adobe Illustrator 17.0.0, SVG Export Plug-In . SVG Version: 6.00 Build 0)  -->
<!DOCTYPE svg PUBLIC "-//W3C//DTD SVG 1.1//EN" "http://www.w3.org/Graphics/SVG/1.1/DTD/svg11.dtd">
<svg version="1.1" id="Layer_1" xmlns="http://www.w3.org/2000/svg" xmlns:xlink="http://www.w3.org/1999/xlink" x="0px" y="0px"
	 width="565px" height="100px" viewBox="0 0 565 100" enable-background="new 0 0 565 100" xml:space="preserve">
<g>
</g>
<g>
	<g>
		<path fill="#20656C" d="M136.131,56.822c-0.201,4.836-1.799,8.645-4.794,11.429s-6.949,4.174-11.861,4.174
			c-5.314,0-9.493-1.886-12.539-5.658c-3.045-3.773-4.568-9.092-4.568-15.96v-1.843c0-6.617,1.542-11.861,4.625-15.734
			c3.083-3.872,7.206-5.809,12.369-5.809c4.912,0,8.836,1.392,11.769,4.175c2.933,2.783,4.624,6.693,5.075,11.729h-10.678
			c0-4.762-2.056-7.144-6.166-7.144c-2.155,0-3.74,1.007-4.756,3.021c-1.015,2.014-1.535,5.135-1.561,9.363v2.378
			c0,4.656,0.495,7.94,1.485,9.853c0.99,1.912,2.638,2.869,4.944,2.869c2.03,0,3.534-0.546,4.512-1.636
			c0.978-1.091,1.479-2.826,1.504-5.207H136.131z"/>
		<path fill="#20656C" d="M140.47,51.899c0-5.672,1.338-10.122,4.013-13.351c2.675-3.228,6.376-4.842,11.104-4.842
			c4.773,0,8.497,1.614,11.172,4.842c2.675,3.229,4.013,7.702,4.013,13.421v2.387c0,5.696-1.326,10.146-3.977,13.352
			c-2.652,3.205-6.365,4.808-11.138,4.808c-4.797,0-8.526-1.608-11.191-4.825c-2.663-3.217-3.995-7.684-3.995-13.403V51.899z
			 M150.294,54.363c0,6.729,1.786,10.093,5.361,10.093c3.297,0,5.072-2.808,5.326-8.422l0.035-4.142c0-3.434-0.474-5.98-1.419-7.64
			c-0.945-1.658-2.282-2.488-4.012-2.488c-1.66,0-2.958,0.83-3.892,2.488c-0.934,1.659-1.4,4.206-1.4,7.64V54.363z"/>
		<path fill="#20656C" d="M188.618,57.987l4.739-23.59h10.203l-10.272,37.426h-9.339l-10.309-37.426h10.239L188.618,57.987z"/>
		<path fill="#20656C" d="M222.827,72.515c-5.027,0-8.947-1.498-11.761-4.496c-2.814-2.997-4.22-7.287-4.22-12.867v-2.975
			c0-5.903,1.291-10.458,3.874-13.663c2.582-3.205,6.283-4.808,11.102-4.808c4.704,0,8.244,1.502,10.619,4.507
			c2.375,3.005,3.586,7.454,3.632,13.349v4.8h-19.474c0.139,2.804,0.749,4.854,1.833,6.149c1.084,1.297,2.756,1.945,5.016,1.945
			c3.274,0,6.007-1.142,8.198-3.425l3.839,5.915c-1.199,1.66-2.94,3.004-5.223,4.029C227.98,72.002,225.502,72.515,222.827,72.515z
			 M216.67,49.548h9.789v-0.907c-0.047-2.258-0.415-3.968-1.107-5.131c-0.691-1.163-1.891-1.745-3.597-1.745
			c-1.707,0-2.946,0.617-3.719,1.851C217.264,44.849,216.809,46.826,216.67,49.548z"/>
		<path fill="#20656C" d="M260.08,43.841l-3.251-0.277c-2.676,0-4.485,1.176-5.431,3.528v24.731h-9.823V34.397h9.235l0.276,4.047
			c1.545-3.159,3.678-4.738,6.399-4.738c1.107,0,2.006,0.149,2.698,0.449L260.08,43.841z"/>
		<path fill="#20656C" d="M288.001,63.515h-12.934l-2.369,8.309h-10.64l14.475-43.801h9.964l14.625,43.801h-10.678L288.001,63.515z
			 M277.398,55.506h8.233l-4.173-14.137L277.398,55.506z"/>
		<path fill="#20656C" d="M323.72,43.841l-3.251-0.277c-2.676,0-4.485,1.176-5.431,3.528v24.731h-9.823V34.397h9.235l0.276,4.047
			c1.545-3.159,3.678-4.738,6.399-4.738c1.106,0,2.006,0.149,2.698,0.449L323.72,43.841z"/>
		<path fill="#20656C" d="M341.845,25.196v9.201h5.016v7.333h-5.016v18.604c0,1.478,0.202,2.494,0.605,3.049
			c0.403,0.554,1.182,0.831,2.335,0.831c0.945,0,1.718-0.081,2.317-0.242l-0.069,7.609c-1.66,0.623-3.459,0.934-5.396,0.934
			c-6.318,0-9.513-3.624-9.581-10.873V41.73h-4.324v-7.333h4.324v-9.201H341.845z"/>
		<path fill="#EB743B" d="M375.128,63.515h-12.934l-2.369,8.309h-10.64l14.475-43.801h9.964l14.625,43.801h-10.678L375.128,63.515z
			 M364.525,55.506h8.233l-4.173-14.137L364.525,55.506z"/>
		<path fill="#EB743B" d="M410.846,43.841l-3.251-0.277c-2.676,0-4.485,1.176-5.431,3.528v24.731h-9.823V34.397h9.235l0.276,4.047
			c1.545-3.159,3.678-4.738,6.4-4.738c1.106,0,2.006,0.149,2.698,0.449L410.846,43.841z"/>
		<path fill="#EB743B" d="M428.728,64.456c2.837,0,4.277-1.868,4.324-5.604h9.2c-0.046,4.081-1.303,7.379-3.77,9.893
			c-2.468,2.514-5.65,3.77-9.547,3.77c-4.82,0-8.498-1.498-11.034-4.496c-2.537-2.997-3.828-7.414-3.874-13.248v-2.975
			c0-5.88,1.251-10.365,3.753-13.455c2.502-3.09,6.197-4.635,11.086-4.635c4.128,0,7.379,1.274,9.754,3.821
			c2.375,2.549,3.586,6.163,3.632,10.845h-9.2c-0.023-2.121-0.369-3.752-1.038-4.895c-0.669-1.142-1.775-1.713-3.32-1.713
			c-1.707,0-2.929,0.609-3.667,1.828c-0.738,1.218-1.13,3.578-1.176,7.082v3.828c0,3.063,0.149,5.203,0.45,6.421
			c0.299,1.218,0.795,2.111,1.487,2.68C426.48,64.172,427.46,64.456,428.728,64.456z"/>
		<path fill="#EB743B" d="M457.334,37.684c2.121-2.651,4.726-3.978,7.817-3.978c3.412,0,6.007,1.199,7.782,3.597
			c1.775,2.398,2.675,5.973,2.698,10.723v23.798h-9.823V48.13c0-2.19-0.341-3.776-1.021-4.757c-0.681-0.979-1.781-1.47-3.304-1.47
			c-1.775,0-3.159,0.819-4.15,2.456v27.464h-9.789V24.694h9.789V37.684z"/>
		<path fill="#EB743B" d="M482.653,24.713c0-1.523,0.484-2.768,1.453-3.736c0.969-0.969,2.26-1.452,3.874-1.452
			c1.613,0,2.905,0.483,3.874,1.452c0.969,0.969,1.452,2.214,1.452,3.736c0,1.499-0.479,2.744-1.435,3.735
			c-0.958,0.991-2.255,1.487-3.892,1.487c-1.638,0-2.935-0.496-3.892-1.487C483.132,27.457,482.653,26.212,482.653,24.713z
			 M492.927,71.823h-9.823V34.397h9.823V71.823z"/>
		<path fill="#EB743B" d="M512.781,57.987l4.739-23.59h10.203l-10.272,37.426h-9.339l-10.309-37.426h10.239L512.781,57.987z"/>
		<path fill="#EB743B" d="M546.99,72.515c-5.027,0-8.947-1.498-11.761-4.496c-2.813-2.997-4.22-7.287-4.22-12.867v-2.975
			c0-5.903,1.291-10.458,3.874-13.663c2.582-3.205,6.283-4.808,11.103-4.808c4.704,0,8.244,1.502,10.619,4.507
			c2.375,3.005,3.586,7.454,3.632,13.349v4.8h-19.474c0.139,2.804,0.749,4.854,1.833,6.149c1.084,1.297,2.756,1.945,5.016,1.945
			c3.274,0,6.007-1.142,8.198-3.425l3.839,5.915c-1.199,1.66-2.94,3.004-5.223,4.029C552.144,72.002,549.665,72.515,546.99,72.515z
			 M540.833,49.548h9.789v-0.907c-0.047-2.258-0.415-3.968-1.107-5.131c-0.691-1.163-1.891-1.745-3.597-1.745
			c-1.707,0-2.946,0.617-3.719,1.851C541.427,44.849,540.972,46.826,540.833,49.548z"/>
	</g>
	<g>
		<polygon fill="#EB743B" points="47,2 47,98 88,74 88,26 		"/>
		<polygon fill="#20656C" points="44,2 3,26 3,74 44,98 		"/>
		<path fill="#FFFEDB" d="M79.281,58.087c-1.239-1.97-3.38-3.148-5.718-3.148c-0.666,0-1.324,0.103-1.956,0.295
			c-2.632-3.125-5.819-4.775-8.602-5.636c2.235-1.714,4.208-3.771,5.909-6.153c1.74,0.394,3.63,0.127,5.162-0.832
			c3.158-2.006,4.103-6.197,2.104-9.348c-1.249-1.975-3.39-3.152-5.724-3.152c-1.283,0-2.533,0.363-3.616,1.05
			c-3.146,1.991-4.093,6.181-2.105,9.336c0.13,0.207,0.271,0.404,0.422,0.596c-2.514,3.442-5.708,6.056-9.519,7.785l-0.014,0.004
			C52.093,50.487,50,51,47,51v5c4,0,5.931-1.125,10.016-2.898c1.366-0.024,6.962,0.184,10.991,4.747
			c-1.507,2.164-1.655,5.108-0.16,7.471c1.241,1.97,3.382,3.15,5.721,3.15c1.278,0,2.524-0.36,3.607-1.044
			c1.538-0.975,2.599-2.482,2.995-4.252C80.566,61.413,80.248,59.606,79.281,58.087z M69.061,34.67
			c0.423-0.266,0.901-0.405,1.396-0.405c0.903,0,1.731,0.456,2.219,1.224c0.772,1.214,0.403,2.836-0.818,3.61
			c-0.41,0.261-0.896,0.399-1.387,0.399c-0.493,0-0.974-0.134-1.39-0.391c-0.343-0.213-0.625-0.489-0.832-0.817
			C67.478,37.064,67.842,35.443,69.061,34.67z M76.119,62.27c-0.154,0.687-0.564,1.27-1.161,1.645
			c-0.413,0.264-0.896,0.406-1.391,0.406c-0.906,0-1.731-0.457-2.21-1.218c-0.745-1.18-0.441-2.727,0.691-3.528l0.117-0.078
			c1.208-0.766,2.866-0.367,3.608,0.808C76.151,60.896,76.271,61.591,76.119,62.27z"/>
		<g>
			<path fill="#FFFEDB" d="M12.063,68.727V36.154l4.962,0.986v-1.75l-5.568-1.232c-0.039-0.009-0.079-0.011-0.118-0.008
				c-0.039,0.004-0.078,0.014-0.115,0.029c-0.037,0.016-0.072,0.038-0.106,0.065c-0.034,0.027-0.065,0.06-0.094,0.099
				c-0.029,0.036-0.055,0.078-0.078,0.124c-0.022,0.047-0.042,0.097-0.058,0.15c-0.016,0.054-0.028,0.111-0.036,0.17
				c-0.008,0.059-0.013,0.12-0.013,0.182v34.949c0,0.062,0.005,0.122,0.013,0.18c0.008,0.059,0.021,0.115,0.036,0.168
				c0.016,0.054,0.035,0.104,0.058,0.15c0.023,0.047,0.049,0.09,0.078,0.128c0.028,0.036,0.06,0.068,0.094,0.095
				c0.033,0.026,0.068,0.047,0.106,0.063c0.037,0.016,0.076,0.025,0.115,0.029c0.039,0.003,0.079,0.001,0.118-0.008l5.568-1.232
				v-1.75L12.063,68.727z"/>
			<path fill="#FFFEDB" d="M18.881,72.367V32.52l6.45,1.091v-2.151l-4.84-0.912l-2.53-0.477c-0.061-0.012-0.123-0.016-0.183-0.012
				c-0.059,0.004-0.118,0.015-0.175,0.033c-0.056,0.019-0.109,0.044-0.16,0.075c-0.052,0.033-0.1,0.072-0.143,0.117
				c-0.044,0.046-0.083,0.098-0.117,0.154c-0.034,0.056-0.063,0.117-0.086,0.183c-0.024,0.065-0.043,0.134-0.055,0.206
				c-0.012,0.072-0.019,0.146-0.019,0.223v4.341v1.75v30.601v1.75v4.346c0,0.076,0.007,0.151,0.019,0.223
				c0.012,0.072,0.03,0.142,0.055,0.207c0.023,0.064,0.052,0.127,0.086,0.184c0.034,0.056,0.073,0.107,0.117,0.152
				c0.043,0.046,0.091,0.085,0.143,0.117c0.051,0.032,0.104,0.058,0.16,0.076c0.057,0.018,0.115,0.029,0.175,0.032
				c0.06,0.004,0.121,0,0.183-0.012l2.53-0.477l4.84-0.912v-2.151L18.881,72.367z"/>
			<rect x="28.029" y="29.1" fill="#579CA0" width="15.971" height="46.685"/>
			<path fill="#FFFEDB" d="M25.331,27.751v3.708v2.151v37.666v2.151v3.706c0,0.744,0.604,1.349,1.349,1.349H44v-2.698H28.029V29.1
				H44v-2.698H26.68C25.935,26.401,25.331,27.006,25.331,27.751z"/>
		</g>
	</g>
</g>
</svg>
