<?xml version="1.0" encoding="utf-8"?>
<!-- Generator: Adobe Illustrator 17.0.0, SVG Export Plug-In . SVG Version: 6.00 Build 0)  -->
<!DOCTYPE svg PUBLIC "-//W3C//DTD SVG 1.1//EN" "http://www.w3.org/Graphics/SVG/1.1/DTD/svg11.dtd">
<svg version="1.1" id="Layer_1" xmlns="http://www.w3.org/2000/svg" xmlns:xlink="http://www.w3.org/1999/xlink" x="0px" y="0px"
	 width="315px" height="305px" viewBox="0 0 315 305" enable-background="new 0 0 315 305" xml:space="preserve">
<g>
</g>
<g>
	<g>
		<path fill="#20656C" d="M47.54,202.378c-0.25,6.029-2.242,10.779-5.977,14.248c-3.734,3.47-8.664,5.204-14.789,5.204
			c-6.625,0-11.834-2.35-15.631-7.055c-3.797-4.702-5.695-11.335-5.695-19.898v-2.297c0-8.25,1.922-14.788,5.766-19.616
			c3.844-4.828,8.982-7.242,15.42-7.242c6.125,0,11.016,1.735,14.672,5.205c3.656,3.47,5.766,8.345,6.328,14.622H34.321
			c0-5.937-2.563-8.905-7.688-8.905c-2.688,0-4.664,1.255-5.93,3.765c-1.266,2.511-1.914,6.401-1.945,11.673v2.965
			c0,5.805,0.617,9.9,1.851,12.284c1.234,2.385,3.289,3.577,6.164,3.577c2.531,0,4.406-0.68,5.625-2.039
			c1.219-1.359,1.844-3.522,1.875-6.491H47.54z"/>
		<path fill="#20656C" d="M52.948,196.241c0-7.072,1.668-12.621,5.002-16.645c3.336-4.025,7.949-6.038,13.844-6.038
			c5.951,0,10.594,2.013,13.93,6.038c3.334,4.024,5.002,9.602,5.002,16.731v2.976c0,7.102-1.654,12.65-4.959,16.645
			c-3.307,3.996-7.936,5.994-13.887,5.994c-5.98,0-10.629-2.005-13.951-6.016c-3.32-4.011-4.98-9.58-4.98-16.71V196.241z
			 M65.196,199.313c0,8.389,2.227,12.582,6.684,12.582c4.111,0,6.324-3.499,6.641-10.5l0.043-5.163c0-4.28-0.59-7.455-1.768-9.523
			c-1.18-2.068-2.846-3.103-5.002-3.103c-2.07,0-3.688,1.034-4.852,3.103c-1.164,2.068-1.746,5.243-1.746,9.523V199.313z"/>
		<path fill="#20656C" d="M112.978,203.831l5.906-29.41h12.723l-12.809,46.659h-11.643l-12.852-46.659h12.766L112.978,203.831z"/>
		<path fill="#20656C" d="M155.626,221.942c-6.268,0-11.154-1.868-14.662-5.605c-3.508-3.737-5.262-9.085-5.262-16.042v-3.709
			c0-7.359,1.611-13.037,4.83-17.034c3.221-3.995,7.834-5.994,13.844-5.994c5.865,0,10.277,1.874,13.238,5.62
			c2.961,3.746,4.471,9.293,4.527,16.642v5.984h-24.277c0.172,3.495,0.934,6.051,2.285,7.667c1.352,1.616,3.436,2.424,6.252,2.424
			c4.082,0,7.49-1.423,10.221-4.269l4.787,7.374c-1.496,2.069-3.666,3.745-6.512,5.023
			C162.052,221.303,158.96,221.942,155.626,221.942z M147.95,193.309h12.203v-1.132c-0.057-2.813-0.518-4.945-1.379-6.395
			c-0.863-1.45-2.357-2.176-4.484-2.176c-2.129,0-3.674,0.77-4.637,2.307C148.69,187.45,148.122,189.915,147.95,193.309z"/>
		<path fill="#20656C" d="M202.069,186.193l-4.053-0.345c-3.336,0-5.592,1.466-6.771,4.398v30.833h-12.246v-46.659h11.514
			l0.346,5.045c1.926-3.939,4.584-5.908,7.977-5.908c1.381,0,2.502,0.188,3.363,0.561L202.069,186.193z"/>
		<path fill="#20656C" d="M236.88,210.721h-16.125l-2.953,10.359h-13.264l18.045-54.607h12.422l18.234,54.607h-13.313
			L236.88,210.721z M223.661,200.737h10.266l-5.203-17.625L223.661,200.737z"/>
		<path fill="#20656C" d="M281.411,186.193l-4.053-0.345c-3.336,0-5.592,1.466-6.771,4.398v30.833h-12.246v-46.659h11.514
			l0.346,5.045c1.926-3.939,4.584-5.908,7.977-5.908c1.381,0,2.502,0.188,3.363,0.561L281.411,186.193z"/>
		<path fill="#20656C" d="M304.009,162.949v11.472h6.252v9.142h-6.252v23.193c0,1.843,0.252,3.109,0.754,3.801
			c0.504,0.691,1.475,1.036,2.912,1.036c1.178,0,2.141-0.1,2.889-0.302l-0.086,9.487c-2.07,0.776-4.313,1.164-6.729,1.164
			c-7.877,0-11.857-4.519-11.943-13.556v-24.824h-5.391v-9.142h5.391v-11.472H304.009z"/>
		<path fill="#EB743B" d="M57.38,289.721H41.255l-2.953,10.359H25.036l18.047-54.607h12.422l18.232,54.607h-13.31L57.38,289.721z
			 M44.161,279.737h10.266l-5.203-17.625L44.161,279.737z"/>
		<path fill="#EB743B" d="M101.911,265.193l-4.055-0.345c-3.334,0-5.592,1.466-6.77,4.398v30.833H78.839v-46.659h11.514l0.346,5.045
			c1.926-3.938,4.586-5.908,7.979-5.908c1.379,0,2.5,0.188,3.363,0.561L101.911,265.193z"/>
		<path fill="#EB743B" d="M124.206,290.895c3.535,0,5.332-2.328,5.391-6.985h11.471c-0.059,5.088-1.625,9.2-4.701,12.333
			c-3.076,3.134-7.043,4.7-11.902,4.7c-6.008,0-10.594-1.868-13.756-5.605c-3.162-3.737-4.771-9.243-4.83-16.517v-3.709
			c0-7.331,1.561-12.922,4.68-16.774c3.119-3.853,7.725-5.779,13.82-5.779c5.146,0,9.199,1.589,12.162,4.766
			c2.959,3.177,4.469,7.684,4.527,13.52h-11.471c-0.029-2.645-0.461-4.678-1.295-6.102c-0.834-1.423-2.213-2.136-4.139-2.136
			c-2.129,0-3.652,0.76-4.572,2.278c-0.92,1.519-1.408,4.462-1.465,8.83v4.772c0,3.818,0.186,6.486,0.561,8.005
			c0.373,1.518,0.992,2.632,1.854,3.341C121.403,290.541,122.624,290.895,124.206,290.895z"/>
		<path fill="#EB743B" d="M191.435,241.346c0-1.898,0.605-3.449,1.813-4.657c1.207-1.207,2.816-1.811,4.83-1.811
			c2.012,0,3.621,0.604,4.828,1.811c1.209,1.208,1.813,2.76,1.813,4.657c0,1.869-0.598,3.422-1.789,4.657
			c-1.193,1.236-2.811,1.855-4.852,1.855c-2.043,0-3.66-0.618-4.852-1.855C192.032,244.768,191.435,243.215,191.435,241.346z
			 M204.243,300.08h-12.248v-46.659h12.248V300.08z"/>
		<path fill="#EB743B" d="M228.995,282.831l5.908-29.41h12.721l-12.807,46.659h-11.645l-12.85-46.659h12.764L228.995,282.831z"/>
		<path fill="#EB743B" d="M271.646,300.942c-6.27,0-11.156-1.868-14.662-5.605c-3.508-3.737-5.262-9.085-5.262-16.042v-3.709
			c0-7.359,1.609-13.037,4.83-17.034c3.219-3.995,7.834-5.994,13.842-5.994c5.865,0,10.277,1.874,13.24,5.62
			c2.959,3.746,4.469,9.293,4.527,16.642v5.984h-24.279c0.174,3.495,0.934,6.051,2.285,7.667c1.352,1.616,3.436,2.424,6.254,2.424
			c4.082,0,7.488-1.423,10.221-4.269l4.787,7.374c-1.496,2.069-3.666,3.745-6.512,5.023
			C278.069,300.303,274.979,300.942,271.646,300.942z M263.968,272.309h12.205v-1.132c-0.059-2.813-0.517-4.945-1.381-6.396
			c-0.861-1.45-2.357-2.176-4.484-2.176c-2.127,0-3.672,0.77-4.635,2.307C264.708,266.45,264.142,268.915,263.968,272.309z"/>
		<path fill="#EB743B" d="M159.869,257.517c2.645-3.306,5.894-4.96,9.746-4.96c4.254,0,7.488,1.495,9.703,4.485
			c2.213,2.99,3.334,7.446,3.363,13.368v29.669h-12.247v-29.54c0-2.73-0.425-4.707-1.272-5.929
			c-0.848-1.222-2.221-1.833-4.118-1.833c-2.214,0-3.939,1.021-5.175,3.062v34.24h-12.204v-59h12.204V257.517z"/>
	</g>
	<g>
		<polygon fill="#EB743B" points="159.467,7.08 159.467,151.08 220.467,116.08 220.467,42.08 		"/>
		<polygon fill="#20656C" points="154.467,7.08 93.467,42.08 93.467,116.08 154.467,151.08 		"/>
		<g>
			<g opacity="0.07">
				<path d="M176.768,98.813c0.386-0.645,1.067-1.03,1.819-1.03c0.378,0,0.752,0.104,1.078,0.297c1,0.601,1.331,1.899,0.735,2.898
					c-0.385,0.646-1.064,1.032-1.817,1.032c-0.379,0-0.755-0.104-1.084-0.301c-0.483-0.288-0.826-0.748-0.964-1.294
					C176.398,99.867,176.48,99.299,176.768,98.813z M189.371,121.176c-0.49,0.421-1.018,0.509-1.373,0.509
					c-0.621,0-1.207-0.269-1.608-0.734c-0.758-0.885-0.654-2.222,0.231-2.982c0.492-0.423,1.018-0.512,1.373-0.512
					c0.617,0,1.201,0.269,1.605,0.74c0.368,0.43,0.547,0.976,0.504,1.538S189.802,120.808,189.371,121.176z"/>
				<path d="M168.468,52.69c0.07,0.019,0.142,0.034,0.212,0.046C168.607,52.725,168.537,52.709,168.468,52.69z"/>
				<path d="M179.847,62.337c0.169-0.267,0.395-0.49,0.673-0.661c0.335-0.207,0.722-0.317,1.121-0.317c0.4,0,0.79,0.112,1.122,0.321
					c0.987,0.627,1.283,1.936,0.66,2.919c-0.392,0.618-1.063,0.988-1.795,0.988c-0.397,0-0.785-0.113-1.124-0.327
					C179.52,64.637,179.226,63.324,179.847,62.337z M186.226,42.149c-0.6,0.951-1.938,1.271-2.912,0.653l-0.096-0.063
					c-0.914-0.647-1.161-1.897-0.558-2.851c0.386-0.613,1.053-0.98,1.784-0.98c0.397,0,0.787,0.113,1.124,0.326
					c0.479,0.304,0.813,0.775,0.936,1.33C186.627,41.111,186.53,41.672,186.226,42.149z"/>
				<path d="M202.992,53.748c0.388-0.614,1.054-0.98,1.783-0.98c0.399,0,0.79,0.113,1.125,0.325c0.48,0.304,0.813,0.775,0.936,1.33
					c0.122,0.546,0.024,1.107-0.279,1.584c-0.598,0.951-1.939,1.272-2.912,0.653l-0.094-0.063
					C202.635,55.951,202.39,54.701,202.992,53.748z M202.992,77.211c0.388-0.614,1.054-0.98,1.783-0.98
					c0.399,0,0.79,0.112,1.125,0.326c0.48,0.304,0.813,0.774,0.936,1.329c0.122,0.546,0.024,1.107-0.279,1.585
					c-0.598,0.95-1.939,1.271-2.912,0.652l-0.094-0.063C202.635,79.414,202.39,78.164,202.992,77.211z M202.992,103.514
					c0.388-0.613,1.054-0.979,1.783-0.979c0.399,0,0.79,0.112,1.125,0.325c0.48,0.304,0.813,0.775,0.936,1.33
					c0.122,0.547,0.024,1.106-0.279,1.584c-0.598,0.951-1.939,1.271-2.912,0.653l-0.094-0.063
					C202.635,105.717,202.39,104.468,202.992,103.514z"/>
				<path d="M192.643,113.184c-1.165-1.36-2.858-2.139-4.648-2.139c-1.459,0-2.875,0.525-3.983,1.477
					c-1.612,1.383-2.326,3.429-2.087,5.397c-1.948,0.7-4.258,1.365-5.328,1.332c-0.821-0.044-1.302-0.346-2.224-0.972
					c-1.172-0.795-2.418-1.512-4.148-1.847c2.936-2.761,6.009-6.83,8.584-12.834c2.061-0.076,3.976-1.193,5.038-2.972
					c1.725-2.896,0.773-6.659-2.124-8.394c-0.949-0.565-2.032-0.864-3.134-0.864c-2.146,0-4.161,1.144-5.261,2.986
					c-0.838,1.405-1.079,3.05-0.678,4.636c0.351,1.393,1.16,2.59,2.302,3.429c-4.053,9.218-9.219,13.081-12.566,14.685
					c-0.128,0.045-0.248,0.101-0.36,0.168c-1.187,0.531-2.05,0.704-2.559,0.808v4c0.275-0.03,1.885-0.118,4.247-1.192
					c5.348-1.358,6.839-0.354,8.407,0.709c1.021,0.692,2.291,1.554,4.263,1.656c0.1,0.005,0.204,0.008,0.309,0.008
					c2.109,0,5.172-1.022,7.021-1.723c1.143,1.116,2.676,1.75,4.285,1.75l0,0c1.461,0,2.876-0.524,3.983-1.476
					c1.24-1.062,1.993-2.546,2.118-4.176C194.225,116.005,193.707,114.422,192.643,113.184z M176.768,96.408
					c0.386-0.645,1.067-1.03,1.819-1.03c0.378,0,0.752,0.104,1.078,0.297c1,0.601,1.331,1.899,0.735,2.898
					c-0.385,0.646-1.064,1.032-1.817,1.032c-0.379,0-0.755-0.104-1.084-0.301c-0.483-0.288-0.826-0.748-0.964-1.294
					C176.398,97.462,176.48,96.894,176.768,96.408z M189.371,118.771c-0.49,0.421-1.018,0.509-1.373,0.509
					c-0.621,0-1.207-0.269-1.608-0.734c-0.758-0.885-0.654-2.222,0.231-2.981c0.492-0.423,1.018-0.512,1.373-0.512
					c0.617,0,1.201,0.269,1.605,0.74c0.368,0.43,0.547,0.976,0.504,1.538S189.802,118.402,189.371,118.771z"/>
				<path d="M168.468,50.285c0.07,0.019,0.142,0.034,0.212,0.046C168.607,50.319,168.537,50.304,168.468,50.285z"/>
				<path d="M190.417,37.284c-0.357-1.599-1.317-2.964-2.708-3.844c-0.98-0.617-2.109-0.944-3.265-0.944
					c-2.117,0-4.053,1.066-5.174,2.85c-1.354,2.138-1.218,4.799,0.144,6.759c-3.646,4.124-8.706,4.313-9.942,4.293
					c-3.692-1.604-7.234-2.164-10.005-2.317v3.996c2.441,0.144,5.553,0.686,8.748,2.136c0.005,0.002,0.01,0.002,0.015,0.005
					c3.445,1.563,6.334,3.928,8.607,7.041c-0.136,0.173-0.265,0.351-0.382,0.538c-1.796,2.854-0.942,6.644,1.903,8.444
					c0.98,0.622,2.111,0.951,3.27,0.951c2.113,0,4.051-1.065,5.183-2.852c1.806-2.851,0.951-6.642-1.908-8.453
					c-1.384-0.871-3.092-1.113-4.667-0.755c-1.538-2.154-3.323-4.017-5.345-5.566c2.517-0.778,5.401-2.269,7.78-5.096
					c0.572,0.172,1.166,0.267,1.77,0.267c2.116,0,4.051-1.068,5.172-2.849C190.487,40.513,190.773,38.879,190.417,37.284z
					 M179.847,59.932c0.169-0.267,0.395-0.49,0.673-0.661c0.335-0.207,0.722-0.316,1.121-0.316c0.4,0,0.79,0.112,1.122,0.321
					c0.987,0.627,1.283,1.936,0.66,2.919c-0.392,0.618-1.063,0.988-1.795,0.988c-0.397,0-0.785-0.113-1.124-0.327
					C179.52,62.231,179.226,60.919,179.847,59.932z M186.226,39.744c-0.6,0.951-1.938,1.271-2.912,0.653l-0.096-0.063
					c-0.914-0.647-1.161-1.897-0.558-2.851c0.386-0.613,1.053-0.98,1.784-0.98c0.397,0,0.787,0.113,1.124,0.326
					c0.479,0.304,0.813,0.775,0.936,1.33C186.627,38.706,186.53,39.267,186.226,39.744z"/>
				<path d="M199.112,78.268c0.425,1.035,1.136,1.962,2.109,2.649c0.072,0.052,0.151,0.105,0.283,0.191
					c0.981,0.621,2.11,0.949,3.268,0.949c2.116,0,4.052-1.068,5.173-2.849c0.875-1.375,1.16-3.01,0.805-4.604
					c-0.358-1.598-1.318-2.964-2.709-3.844c-0.98-0.617-2.109-0.944-3.266-0.944c-0.125,0-0.25,0.008-0.375,0.018
					c-0.71-3.157-0.919-7.769,0.035-11.265c0.112,0.011,0.225,0.024,0.337,0.024c2.116,0,4.052-1.067,5.173-2.849
					c0.875-1.375,1.16-3.009,0.805-4.603c-0.358-1.599-1.318-2.964-2.709-3.844c-0.98-0.617-2.109-0.944-3.266-0.944
					c-2.114,0-4.051,1.066-5.173,2.85c-1.604,2.532-1.12,5.804,1.024,7.765c0.021,0.02,0.048,0.037,0.071,0.059
					c-1.349,4.518-1.145,10.324-0.036,14.417c-0.144,0.132-0.294,0.254-0.426,0.399c-0.229,0.255-0.445,0.526-0.634,0.824
					c-0.318,0.502-0.551,1.033-0.71,1.578c-3.371,0.488-5.198,1.671-6.824,2.729c-2.035,1.324-3.961,2.572-9.636,2.665
					c-1.964-0.23-3.553-0.177-5.29-0.116c-1.431,0.052-2.91,0.106-4.849,0.003c-1.335-0.071-2.104-0.882-3.458-2.424
					c-1.803-2.055-4.219-4.648-9.369-5.022v4c3.295,0.3,4.796,1.888,6.356,3.667c1.487,1.694,3.175,3.615,6.256,3.782
					c2.118,0.114,3.76,0.052,5.208,0.001c2.491-0.092,4.453-0.161,7.855,0.684c2.607,0.643,12.099,9.673,14.773,14.322
					c-0.108,0.142-0.219,0.282-0.314,0.434c-1.743,2.755-1.026,6.385,1.619,8.251c0.072,0.052,0.151,0.104,0.283,0.191
					c0.981,0.621,2.11,0.948,3.268,0.948c2.116,0,4.052-1.068,5.173-2.849c0.875-1.374,1.16-3.009,0.805-4.603
					c-0.358-1.6-1.318-2.965-2.709-3.845c-0.98-0.617-2.109-0.944-3.266-0.944c-0.528,0-1.047,0.067-1.543,0.195
					c-2.561-4.187-8.652-10.455-13.189-13.792c1.813-0.628,3.05-1.435,4.212-2.188C195.683,79.405,196.869,78.645,199.112,78.268z
					 M202.992,51.343c0.388-0.614,1.054-0.98,1.783-0.98c0.399,0,0.79,0.113,1.125,0.325c0.48,0.304,0.813,0.775,0.936,1.33
					c0.122,0.546,0.024,1.106-0.279,1.584c-0.598,0.951-1.939,1.272-2.912,0.653l-0.094-0.063
					C202.635,53.546,202.39,52.296,202.992,51.343z M202.992,74.806c0.388-0.614,1.054-0.98,1.783-0.98
					c0.399,0,0.79,0.112,1.125,0.326c0.48,0.304,0.813,0.774,0.936,1.329c0.122,0.546,0.024,1.107-0.279,1.585
					c-0.598,0.95-1.939,1.271-2.912,0.652l-0.094-0.063C202.635,77.009,202.39,75.759,202.992,74.806z M202.992,101.108
					c0.388-0.613,1.054-0.979,1.783-0.979c0.399,0,0.79,0.112,1.125,0.325c0.48,0.304,0.813,0.775,0.936,1.33
					c0.122,0.547,0.024,1.106-0.279,1.584c-0.598,0.951-1.939,1.271-2.912,0.653l-0.094-0.063
					C202.635,103.312,202.39,102.063,202.992,101.108z"/>
			</g>
			<g>
				<g>
					<path fill="#D3562C" d="M192.643,116.184c-1.165-1.36-2.858-2.139-4.648-2.139c-1.459,0-2.875,0.525-3.983,1.477
						c-1.612,1.383-2.326,3.429-2.087,5.397c-1.948,0.7-4.258,1.365-5.328,1.332c-0.821-0.044-1.302-0.346-2.224-0.972
						c-1.172-0.795-2.418-1.512-4.148-1.847c2.936-2.761,6.009-6.83,8.584-12.834c2.061-0.076,3.976-1.193,5.038-2.972
						c1.725-2.896,0.773-6.659-2.124-8.394c-0.949-0.565-2.032-0.864-3.134-0.864c-2.146,0-4.161,1.144-5.261,2.986
						c-0.838,1.405-1.079,3.05-0.678,4.636c0.351,1.393,1.16,2.59,2.302,3.429c-4.053,9.218-9.219,13.081-12.566,14.685
						c-0.128,0.045-0.248,0.101-0.36,0.168c-1.187,0.531-2.05,0.704-2.559,0.808v4c0.275-0.03,1.885-0.118,4.247-1.192
						c5.348-1.358,6.839-0.354,8.407,0.709c1.021,0.692,2.291,1.554,4.263,1.656c0.1,0.005,0.204,0.008,0.309,0.008
						c2.109,0,5.172-1.022,7.021-1.723c1.143,1.116,2.676,1.75,4.285,1.75l0,0c1.461,0,2.876-0.524,3.983-1.476
						c1.24-1.062,1.993-2.546,2.118-4.176C194.225,119.005,193.707,117.422,192.643,116.184z M176.768,99.408
						c0.386-0.645,1.067-1.03,1.819-1.03c0.378,0,0.752,0.104,1.078,0.297c1,0.601,1.331,1.899,0.735,2.898
						c-0.385,0.646-1.064,1.032-1.817,1.032c-0.379,0-0.755-0.104-1.084-0.301c-0.483-0.288-0.826-0.748-0.964-1.294
						C176.398,100.462,176.48,99.894,176.768,99.408z M189.371,121.771c-0.49,0.421-1.018,0.509-1.373,0.509
						c-0.621,0-1.207-0.269-1.608-0.734c-0.758-0.885-0.654-2.222,0.231-2.981c0.492-0.423,1.018-0.512,1.373-0.512
						c0.617,0,1.201,0.269,1.605,0.74c0.368,0.43,0.547,0.976,0.504,1.538S189.802,121.402,189.371,121.771z"/>
					<path d="M168.468,52.69c0.07,0.019,0.142,0.034,0.212,0.046C168.607,52.725,168.537,52.709,168.468,52.69z"/>
					<path fill="#D3562C" d="M190.417,40.288c-0.357-1.599-1.317-2.964-2.708-3.844c-0.98-0.617-2.109-0.944-3.265-0.944
						c-2.117,0-4.053,1.066-5.174,2.85c-1.354,2.138-1.218,4.799,0.144,6.759c-3.646,4.124-8.706,4.313-9.942,4.293
						c-3.692-1.604-7.234-2.164-10.005-2.317v3.996c2.441,0.144,5.553,0.686,8.748,2.136c0.005,0.002,0.01,0.002,0.015,0.005
						c3.445,1.563,6.334,3.928,8.607,7.041c-0.136,0.173-0.265,0.352-0.382,0.538c-1.796,2.854-0.942,6.643,1.903,8.444
						c0.98,0.622,2.111,0.951,3.27,0.951c2.113,0,4.051-1.065,5.183-2.852c1.806-2.851,0.951-6.642-1.908-8.453
						c-1.384-0.871-3.092-1.113-4.667-0.755c-1.538-2.154-3.323-4.017-5.345-5.566c2.517-0.778,5.401-2.269,7.78-5.096
						c0.572,0.172,1.166,0.267,1.77,0.267c2.116,0,4.051-1.068,5.172-2.849C190.487,43.517,190.773,41.883,190.417,40.288z
						 M179.847,62.936c0.169-0.267,0.395-0.49,0.673-0.661c0.335-0.207,0.722-0.316,1.121-0.316c0.4,0,0.79,0.112,1.122,0.321
						c0.987,0.627,1.283,1.935,0.66,2.919c-0.392,0.618-1.063,0.988-1.795,0.988c-0.397,0-0.785-0.113-1.124-0.327
						C179.52,65.235,179.226,63.923,179.847,62.936z M186.226,42.748c-0.6,0.951-1.938,1.271-2.912,0.653l-0.096-0.063
						c-0.914-0.647-1.161-1.897-0.558-2.85c0.386-0.613,1.053-0.98,1.784-0.98c0.397,0,0.787,0.113,1.124,0.326
						c0.479,0.304,0.813,0.775,0.936,1.33C186.627,41.71,186.53,42.271,186.226,42.748z"/>
					<path fill="#D3562C" d="M199.112,81.268c0.425,1.035,1.136,1.962,2.109,2.649c0.072,0.052,0.151,0.105,0.283,0.191
						c0.981,0.621,2.11,0.949,3.268,0.949c2.116,0,4.052-1.068,5.173-2.849c0.875-1.375,1.16-3.01,0.805-4.604
						c-0.358-1.598-1.318-2.964-2.709-3.844c-0.98-0.617-2.109-0.944-3.266-0.944c-0.125,0-0.25,0.008-0.375,0.018
						c-0.71-3.157-0.919-7.769,0.035-11.265c0.112,0.011,0.225,0.024,0.337,0.024c2.116,0,4.052-1.067,5.173-2.849
						c0.875-1.375,1.16-3.009,0.805-4.603c-0.358-1.599-1.318-2.964-2.709-3.844c-0.98-0.617-2.109-0.944-3.266-0.944
						c-2.114,0-4.051,1.066-5.173,2.85c-1.604,2.532-1.12,5.804,1.024,7.765c0.021,0.02,0.048,0.037,0.071,0.059
						c-1.349,4.518-1.145,10.324-0.036,14.417c-0.144,0.132-0.294,0.254-0.426,0.399c-0.229,0.255-0.445,0.526-0.634,0.824
						c-0.318,0.502-0.551,1.033-0.71,1.578c-3.371,0.488-5.198,1.671-6.824,2.729c-2.035,1.324-3.961,2.572-9.636,2.665
						c-1.964-0.23-3.553-0.177-5.29-0.116c-1.431,0.052-2.91,0.106-4.849,0.003c-1.335-0.071-2.104-0.882-3.458-2.424
						c-1.803-2.055-4.219-4.648-9.369-5.022v4c3.295,0.3,4.796,1.888,6.356,3.667c1.487,1.694,3.175,3.615,6.256,3.782
						c2.118,0.114,3.76,0.052,5.208,0.001c2.491-0.092,4.453-0.161,7.855,0.684c2.607,0.643,12.099,9.673,14.773,14.322
						c-0.108,0.142-0.219,0.282-0.314,0.434c-1.743,2.755-1.026,6.385,1.619,8.251c0.072,0.052,0.151,0.104,0.283,0.191
						c0.981,0.621,2.11,0.948,3.268,0.948c2.116,0,4.052-1.068,5.173-2.849c0.875-1.374,1.16-3.009,0.805-4.603
						c-0.358-1.6-1.318-2.965-2.709-3.845c-0.98-0.617-2.109-0.944-3.266-0.944c-0.528,0-1.047,0.067-1.543,0.195
						c-2.561-4.187-8.652-10.455-13.189-13.792c1.813-0.628,3.05-1.435,4.212-2.188C195.683,82.405,196.869,81.645,199.112,81.268z
						 M202.992,54.343c0.388-0.614,1.054-0.98,1.783-0.98c0.399,0,0.79,0.113,1.125,0.325c0.48,0.304,0.813,0.775,0.936,1.33
						c0.122,0.546,0.024,1.106-0.279,1.584c-0.598,0.951-1.939,1.272-2.912,0.653l-0.094-0.063
						C202.635,56.546,202.39,55.296,202.992,54.343z M202.992,77.806c0.388-0.614,1.054-0.98,1.783-0.98
						c0.399,0,0.79,0.112,1.125,0.326c0.48,0.304,0.813,0.774,0.936,1.329c0.122,0.546,0.024,1.107-0.279,1.585
						c-0.598,0.95-1.939,1.271-2.912,0.652l-0.094-0.063C202.635,80.009,202.39,78.759,202.992,77.806z M202.992,104.108
						c0.388-0.613,1.054-0.979,1.783-0.979c0.399,0,0.79,0.112,1.125,0.325c0.48,0.304,0.813,0.775,0.936,1.33
						c0.122,0.547,0.024,1.106-0.279,1.584c-0.598,0.951-1.939,1.271-2.912,0.653l-0.094-0.063
						C202.635,106.312,202.39,105.063,202.992,104.108z"/>
				</g>
				<g>
					<path fill="#FFFEDB" d="M192.643,113.184c-1.165-1.36-2.858-2.139-4.648-2.139c-1.459,0-2.875,0.525-3.983,1.477
						c-1.612,1.383-2.326,3.429-2.087,5.397c-1.948,0.7-4.258,1.365-5.328,1.332c-0.821-0.044-1.302-0.346-2.224-0.972
						c-1.172-0.795-2.418-1.512-4.148-1.847c2.936-2.761,6.009-6.83,8.584-12.834c2.061-0.076,3.976-1.193,5.038-2.972
						c1.725-2.896,0.773-6.659-2.124-8.394c-0.949-0.565-2.032-0.864-3.134-0.864c-2.146,0-4.161,1.144-5.261,2.986
						c-0.838,1.405-1.079,3.05-0.678,4.636c0.351,1.393,1.16,2.59,2.302,3.429c-4.053,9.218-9.219,13.081-12.566,14.685
						c-0.128,0.045-0.248,0.101-0.36,0.168c-1.187,0.531-2.05,0.704-2.559,0.808v4c0.275-0.03,1.885-0.118,4.247-1.192
						c5.348-1.358,6.839-0.354,8.407,0.709c1.021,0.692,2.291,1.554,4.263,1.656c0.1,0.005,0.204,0.008,0.309,0.008
						c2.109,0,5.172-1.022,7.021-1.723c1.143,1.116,2.676,1.75,4.285,1.75l0,0c1.461,0,2.876-0.524,3.983-1.476
						c1.24-1.062,1.993-2.546,2.118-4.176C194.225,116.005,193.707,114.422,192.643,113.184z M176.768,96.408
						c0.386-0.645,1.067-1.03,1.819-1.03c0.378,0,0.752,0.104,1.078,0.297c1,0.601,1.331,1.899,0.735,2.898
						c-0.385,0.646-1.064,1.032-1.817,1.032c-0.379,0-0.755-0.104-1.084-0.301c-0.483-0.288-0.826-0.748-0.964-1.294
						C176.398,97.462,176.48,96.894,176.768,96.408z M189.371,118.771c-0.49,0.421-1.018,0.509-1.373,0.509
						c-0.621,0-1.207-0.269-1.608-0.734c-0.758-0.885-0.654-2.222,0.231-2.981c0.492-0.423,1.018-0.512,1.373-0.512
						c0.617,0,1.201,0.269,1.605,0.74c0.368,0.43,0.547,0.976,0.504,1.538S189.802,118.402,189.371,118.771z"/>
					<path fill="#FFFEDB" d="M168.468,50.285c0.07,0.019,0.142,0.034,0.212,0.046C168.607,50.319,168.537,50.304,168.468,50.285z"/>
					<path fill="#FFFEDB" d="M190.417,37.284c-0.357-1.599-1.317-2.964-2.708-3.844c-0.98-0.617-2.109-0.944-3.265-0.944
						c-2.117,0-4.053,1.066-5.174,2.85c-1.354,2.138-1.218,4.799,0.144,6.759c-3.646,4.124-8.706,4.313-9.942,4.293
						c-3.692-1.604-7.234-2.164-10.005-2.317v3.996c2.441,0.144,5.553,0.686,8.748,2.136c0.005,0.002,0.01,0.002,0.015,0.005
						c3.445,1.563,6.334,3.928,8.607,7.041c-0.136,0.173-0.265,0.351-0.382,0.538c-1.796,2.854-0.942,6.644,1.903,8.444
						c0.98,0.622,2.111,0.951,3.27,0.951c2.113,0,4.051-1.065,5.183-2.852c1.806-2.851,0.951-6.642-1.908-8.453
						c-1.384-0.871-3.092-1.113-4.667-0.755c-1.538-2.154-3.323-4.017-5.345-5.566c2.517-0.778,5.401-2.269,7.78-5.096
						c0.572,0.172,1.166,0.267,1.77,0.267c2.116,0,4.051-1.068,5.172-2.849C190.487,40.513,190.773,38.879,190.417,37.284z
						 M179.847,59.932c0.169-0.267,0.395-0.49,0.673-0.661c0.335-0.207,0.722-0.316,1.121-0.316c0.4,0,0.79,0.112,1.122,0.321
						c0.987,0.627,1.283,1.936,0.66,2.919c-0.392,0.618-1.063,0.988-1.795,0.988c-0.397,0-0.785-0.113-1.124-0.327
						C179.52,62.231,179.226,60.919,179.847,59.932z M186.226,39.744c-0.6,0.951-1.938,1.271-2.912,0.653l-0.096-0.063
						c-0.914-0.647-1.161-1.897-0.558-2.851c0.386-0.613,1.053-0.98,1.784-0.98c0.397,0,0.787,0.113,1.124,0.326
						c0.479,0.304,0.813,0.775,0.936,1.33C186.627,38.706,186.53,39.267,186.226,39.744z"/>
					<path fill="#FFFEDB" d="M199.112,78.268c0.425,1.035,1.136,1.962,2.109,2.649c0.072,0.052,0.151,0.105,0.283,0.191
						c0.981,0.621,2.11,0.949,3.268,0.949c2.116,0,4.052-1.068,5.173-2.849c0.875-1.375,1.16-3.01,0.805-4.604
						c-0.358-1.598-1.318-2.964-2.709-3.844c-0.98-0.617-2.109-0.944-3.266-0.944c-0.125,0-0.25,0.008-0.375,0.018
						c-0.71-3.157-0.919-7.769,0.035-11.265c0.112,0.011,0.225,0.024,0.337,0.024c2.116,0,4.052-1.067,5.173-2.849
						c0.875-1.375,1.16-3.009,0.805-4.603c-0.358-1.599-1.318-2.964-2.709-3.844c-0.98-0.617-2.109-0.944-3.266-0.944
						c-2.114,0-4.051,1.066-5.173,2.85c-1.604,2.532-1.12,5.804,1.024,7.765c0.021,0.02,0.048,0.037,0.071,0.059
						c-1.349,4.518-1.145,10.324-0.036,14.417c-0.144,0.132-0.294,0.254-0.426,0.399c-0.229,0.255-0.445,0.526-0.634,0.824
						c-0.318,0.502-0.551,1.033-0.71,1.578c-3.371,0.488-5.198,1.671-6.824,2.729c-2.035,1.324-3.961,2.572-9.636,2.665
						c-1.964-0.23-3.553-0.177-5.29-0.116c-1.431,0.052-2.91,0.106-4.849,0.003c-1.335-0.071-2.104-0.882-3.458-2.424
						c-1.803-2.055-4.219-4.648-9.369-5.022v4c3.295,0.3,4.796,1.888,6.356,3.667c1.487,1.694,3.175,3.615,6.256,3.782
						c2.118,0.114,3.76,0.052,5.208,0.001c2.491-0.092,4.453-0.161,7.855,0.684c2.607,0.643,12.099,9.673,14.773,14.322
						c-0.108,0.142-0.219,0.282-0.314,0.434c-1.743,2.755-1.026,6.385,1.619,8.251c0.072,0.052,0.151,0.104,0.283,0.191
						c0.981,0.621,2.11,0.948,3.268,0.948c2.116,0,4.052-1.068,5.173-2.849c0.875-1.374,1.16-3.009,0.805-4.603
						c-0.358-1.6-1.318-2.965-2.709-3.845c-0.98-0.617-2.109-0.944-3.266-0.944c-0.528,0-1.047,0.067-1.543,0.195
						c-2.561-4.187-8.652-10.455-13.189-13.792c1.813-0.628,3.05-1.435,4.212-2.188C195.683,79.405,196.869,78.645,199.112,78.268z
						 M202.992,51.343c0.388-0.614,1.054-0.98,1.783-0.98c0.399,0,0.79,0.113,1.125,0.325c0.48,0.304,0.813,0.775,0.936,1.33
						c0.122,0.546,0.024,1.106-0.279,1.584c-0.598,0.951-1.939,1.272-2.912,0.653l-0.094-0.063
						C202.635,53.546,202.39,52.296,202.992,51.343z M202.992,74.806c0.388-0.614,1.054-0.98,1.783-0.98
						c0.399,0,0.79,0.112,1.125,0.326c0.48,0.304,0.813,0.774,0.936,1.329c0.122,0.546,0.024,1.107-0.279,1.585
						c-0.598,0.95-1.939,1.271-2.912,0.652l-0.094-0.063C202.635,77.009,202.39,75.759,202.992,74.806z M202.992,101.108
						c0.388-0.613,1.054-0.979,1.783-0.979c0.399,0,0.79,0.112,1.125,0.325c0.48,0.304,0.813,0.775,0.936,1.33
						c0.122,0.547,0.024,1.106-0.279,1.584c-0.598,0.951-1.939,1.271-2.912,0.653l-0.094-0.063
						C202.635,103.312,202.39,102.063,202.992,101.108z"/>
				</g>
			</g>
		</g>
		<g>
			<g>
				<polygon fill="#264346" points="106.56,110.17 114.003,108.691 114.003,62.791 106.56,61.312 				"/>
				<path fill="#264346" d="M106.56,110.17V61.312l7.443,1.479v-2.625l-8.353-1.849c-0.059-0.014-0.119-0.017-0.177-0.012
					c-0.06,0.006-0.117,0.021-0.174,0.044c-0.055,0.023-0.108,0.057-0.158,0.098c-0.051,0.041-0.098,0.09-0.14,0.148
					c-0.044,0.054-0.083,0.117-0.117,0.187c-0.034,0.069-0.064,0.145-0.087,0.226c-0.023,0.08-0.042,0.166-0.055,0.254
					c-0.012,0.089-0.019,0.181-0.019,0.273v52.423c0,0.093,0.007,0.184,0.019,0.271c0.013,0.088,0.031,0.172,0.055,0.252
					c0.023,0.08,0.053,0.155,0.087,0.226c0.034,0.069,0.073,0.134,0.117,0.191c0.042,0.055,0.089,0.103,0.14,0.142
					c0.05,0.04,0.104,0.071,0.158,0.095c0.057,0.022,0.114,0.037,0.174,0.043c0.058,0.005,0.118,0.002,0.177-0.012l8.353-1.849
					v-2.625L106.56,110.17z"/>
				<polygon fill="#264346" points="116.788,115.631 126.463,113.994 126.463,57.496 116.788,55.859 				"/>
				<path fill="#264346" d="M116.788,115.631V55.859l9.675,1.637v-3.228l-7.26-1.368l-3.796-0.715
					c-0.092-0.018-0.184-0.023-0.273-0.018c-0.089,0.006-0.177,0.022-0.262,0.05c-0.084,0.027-0.165,0.065-0.241,0.113
					c-0.077,0.049-0.148,0.107-0.214,0.176c-0.065,0.068-0.124,0.146-0.175,0.23c-0.052,0.084-0.095,0.177-0.13,0.274
					c-0.036,0.098-0.063,0.201-0.082,0.31c-0.018,0.107-0.027,0.219-0.027,0.333v6.512v2.625v45.9v2.625v6.52
					c0,0.114,0.01,0.227,0.027,0.334c0.019,0.107,0.046,0.212,0.082,0.31c0.035,0.098,0.078,0.19,0.13,0.275
					c0.051,0.084,0.109,0.161,0.175,0.229c0.065,0.068,0.137,0.127,0.214,0.176c0.076,0.048,0.157,0.086,0.241,0.113
					c0.085,0.027,0.173,0.044,0.262,0.049c0.09,0.006,0.182,0,0.273-0.017l3.796-0.715l7.26-1.368v-3.228L116.788,115.631z"/>
				<rect x="130.51" y="50.729" fill="#264346" width="23.957" height="70.027"/>
				<path fill="#264346" d="M126.463,48.706v5.563v3.228v56.498v3.228v5.559c0,1.117,0.906,2.024,2.023,2.024h25.98v-4.047H130.51
					V50.729h23.957v-4.047h-25.98C127.369,46.683,126.463,47.589,126.463,48.706z"/>
			</g>
			<g>
				<polygon fill="#20656C" points="106.56,107.17 114.003,105.691 114.003,59.791 106.56,58.312 				"/>
				<path fill="#FFFEDB" d="M106.56,107.17V58.312l7.443,1.479v-2.625l-8.353-1.849c-0.059-0.014-0.119-0.017-0.177-0.012
					c-0.06,0.006-0.117,0.021-0.174,0.044c-0.055,0.023-0.108,0.057-0.158,0.098c-0.051,0.041-0.098,0.09-0.14,0.148
					c-0.044,0.054-0.083,0.117-0.117,0.187c-0.034,0.069-0.064,0.145-0.087,0.226c-0.023,0.08-0.042,0.166-0.055,0.254
					c-0.012,0.089-0.019,0.181-0.019,0.273v52.423c0,0.093,0.007,0.184,0.019,0.271c0.013,0.088,0.031,0.172,0.055,0.252
					c0.023,0.08,0.053,0.155,0.087,0.226c0.034,0.069,0.073,0.134,0.117,0.191c0.042,0.055,0.089,0.103,0.14,0.142
					c0.05,0.04,0.104,0.071,0.158,0.095c0.057,0.022,0.114,0.037,0.174,0.043c0.058,0.005,0.118,0.002,0.177-0.012l8.353-1.849
					v-2.625L106.56,107.17z"/>
				<polygon fill="#20656C" points="116.788,112.631 126.463,110.994 126.463,54.496 116.788,52.859 				"/>
				<path fill="#FFFEDB" d="M116.788,112.631V52.859l9.675,1.637v-3.228l-7.26-1.368l-3.796-0.715
					c-0.092-0.018-0.184-0.023-0.273-0.018c-0.089,0.006-0.177,0.022-0.262,0.05c-0.084,0.027-0.165,0.065-0.241,0.113
					c-0.077,0.049-0.148,0.107-0.214,0.176c-0.065,0.068-0.124,0.146-0.175,0.23c-0.052,0.084-0.095,0.177-0.13,0.274
					c-0.036,0.098-0.063,0.201-0.082,0.31c-0.018,0.107-0.027,0.219-0.027,0.333v6.512v2.625v45.9v2.625v6.52
					c0,0.114,0.01,0.227,0.027,0.334c0.019,0.107,0.046,0.212,0.082,0.31c0.035,0.098,0.078,0.19,0.13,0.275
					c0.051,0.084,0.109,0.161,0.175,0.229c0.065,0.068,0.137,0.127,0.214,0.176c0.076,0.048,0.157,0.086,0.241,0.113
					c0.085,0.027,0.173,0.044,0.262,0.049c0.09,0.006,0.182,0,0.273-0.017l3.796-0.715l7.26-1.368v-3.228L116.788,112.631z"/>
				<rect x="130.51" y="47.729" fill="#579CA0" width="23.957" height="70.027"/>
				<path fill="#FFFEDB" d="M126.463,45.706v5.563v3.228v56.498v3.228v5.559c0,1.117,0.906,2.024,2.023,2.024h25.98v-4.047H130.51
					V47.729h23.957v-4.047h-25.98C127.369,43.683,126.463,44.589,126.463,45.706z"/>
			</g>
		</g>
	</g>
</g>
</svg>
