<svg xmlns="http://www.w3.org/2000/svg" viewBox="0 0 441.11 114.05"><defs><style>.a{fill:#eb743b;}.b{fill:#5aa854;}.c{fill:#fffedb;}.d{fill:#444;}</style></defs><title>MetaBrainz_Community_logo_small</title><polygon class="a" points="44 0 44 96 85 72 85 24 44 0"/><polygon class="b" points="41 0 0 24 0 72 41 96 41 0"/><path class="c" d="M84.28,63.09a6.74,6.74,0,0,0-7.67-2.85A18.09,18.09,0,0,0,68,54.6a28.75,28.75,0,0,0,5.91-6.15,6.92,6.92,0,0,0,5.16-.83,6.77,6.77,0,1,0-9.34-2.11,6.69,6.69,0,0,0,.42.6,23.88,23.88,0,0,1-9.52,7.79h0A18.53,18.53,0,0,1,52,56v5c4,0,5.93-1.12,10-2.9a14.75,14.75,0,0,1,11,4.75,6.77,6.77,0,1,0,12.16,5.33A6.68,6.68,0,0,0,84.28,63.09ZM74.06,39.67a2.62,2.62,0,1,1,1.41,4.83,2.64,2.64,0,0,1-1.39-.39,2.59,2.59,0,0,1-.83-0.82A2.63,2.63,0,0,1,74.06,39.67Zm7.06,27.6A2.61,2.61,0,1,1,77,64.57l0.12-.08a2.66,2.66,0,0,1,3.61.81A2.58,2.58,0,0,1,81.12,67.27Z" transform="translate(-8 -7)"/><path class="c" d="M19.62,42.93a6.74,6.74,0,0,0,6.26,5.28C27.3,52,29.94,55.42,32.41,57a18.85,18.85,0,0,0-6.18,3.46A6.92,6.92,0,0,0,21,59.9a6.77,6.77,0,1,0,8.47,4.46,6.68,6.68,0,0,0-.25-0.68c3.32-2.67,5.41-3.11,9.54-3.8h0A20.34,20.34,0,0,1,49,61V56c-3.56-1-6.74-1-11.14-.34-1.33-.33-5.45-3-7.7-8.69a6.77,6.77,0,1,0-9.65-9.12A6.68,6.68,0,0,0,19.62,42.93Zm4.19,25.94a2.62,2.62,0,1,1-.11-5,2.64,2.64,0,0,1,1.24.74,2.59,2.59,0,0,1,.59,1A2.63,2.63,0,0,1,23.81,68.87ZM24,40.06A2.61,2.61,0,1,1,26.93,44L26.8,44a2.66,2.66,0,0,1-3.12-2A2.58,2.58,0,0,1,24,40.06Z" transform="translate(-8 -7)"/><path class="b" d="M121.68,33.9l9.68,30.17L141,33.9h13.76V77.27H144.29V67.14l1-20.73L134.82,77.27h-6.91L117.39,46.38l1,20.76V77.27H108V33.9h13.73Z" transform="translate(-8 -7)"/><path class="b" d="M176.55,77.87a18.64,18.64,0,0,1-7-1.25,15.19,15.19,0,0,1-5.21-3.4,14.69,14.69,0,0,1-3.23-5,16.24,16.24,0,0,1-1.12-6V61.1a21.61,21.61,0,0,1,1-6.57,14.64,14.64,0,0,1,2.92-5.29,13.65,13.65,0,0,1,4.85-3.52,16.68,16.68,0,0,1,6.78-1.28,16.27,16.27,0,0,1,6.15,1.1,12.6,12.6,0,0,1,4.62,3.16,13.86,13.86,0,0,1,2.89,5,20.18,20.18,0,0,1,1,6.55v4.08h-20a7.23,7.23,0,0,0,2.35,4.26,7,7,0,0,0,4.71,1.55,11,11,0,0,0,4-.77,8.12,8.12,0,0,0,3.41-2.56l4.59,5.42a11.64,11.64,0,0,1-2,2.08,13.79,13.79,0,0,1-2.81,1.8,17.88,17.88,0,0,1-3.6,1.28A18.06,18.06,0,0,1,176.55,77.87Zm-1.13-25.67a5,5,0,0,0-2.2.45,4.33,4.33,0,0,0-1.53,1.22,6,6,0,0,0-1,1.85,13.28,13.28,0,0,0-.54,2.32H180.3V57.26a5,5,0,0,0-1.22-3.74A4.86,4.86,0,0,0,175.41,52.19Z" transform="translate(-8 -7)"/><path class="b" d="M205.86,37v8h5.3v7h-5.3V66.76a6.36,6.36,0,0,0,.16,1.58,2.15,2.15,0,0,0,.54,1,2,2,0,0,0,1,.52,6.86,6.86,0,0,0,1.55.15q0.86,0,1.43,0t1.07-.13V77a18.85,18.85,0,0,1-2.68.64,18.49,18.49,0,0,1-3,.22,15.4,15.4,0,0,1-4.3-.55,7.88,7.88,0,0,1-3.19-1.74,7.53,7.53,0,0,1-2-3.07,13.43,13.43,0,0,1-.67-4.5V52h-4.11V45h4.11V37h10Z" transform="translate(-8 -7)"/><path class="b" d="M233.26,77.27a6.94,6.94,0,0,1-.55-1.33q-0.22-.73-0.4-1.56a9.24,9.24,0,0,1-7.74,3.48,12.32,12.32,0,0,1-4.21-.71,11.15,11.15,0,0,1-3.47-2,9.4,9.4,0,0,1-2.37-3.05,8.79,8.79,0,0,1-.88-3.93,10.53,10.53,0,0,1,.91-4.47,8.46,8.46,0,0,1,2.77-3.32A13.72,13.72,0,0,1,222,58.31a27.41,27.41,0,0,1,6.75-.73h3.1v-1.7a5.3,5.3,0,0,0-.89-3.25A3.45,3.45,0,0,0,228,51.45a3.74,3.74,0,0,0-2.65.86,3.47,3.47,0,0,0-.92,2.65h-10a9,9,0,0,1,1-4.17,9.78,9.78,0,0,1,2.84-3.34,14.27,14.27,0,0,1,4.45-2.21,19.73,19.73,0,0,1,5.82-.8,19.07,19.07,0,0,1,5.35.71,12,12,0,0,1,4.25,2.16,10.05,10.05,0,0,1,2.8,3.6,11.69,11.69,0,0,1,1,5v13.2q0,1.58.09,2.74a16.84,16.84,0,0,0,.27,2,10.64,10.64,0,0,0,.43,1.56,9.44,9.44,0,0,0,.58,1.28v0.51h-10ZM227,70.72a5.59,5.59,0,0,0,3.11-.8,5,5,0,0,0,1.77-1.82V62.95H228.7a6.4,6.4,0,0,0-2.37.39,4,4,0,0,0-1.55,1,3.91,3.91,0,0,0-.83,1.5,6.16,6.16,0,0,0-.25,1.77,2.88,2.88,0,0,0,.92,2.22A3.34,3.34,0,0,0,227,70.72Z" transform="translate(-8 -7)"/><path class="a" d="M247.94,77.27V33.9h15.58a32.21,32.21,0,0,1,7.19.73,15.89,15.89,0,0,1,5.38,2.22,10,10,0,0,1,3.37,3.74,11.38,11.38,0,0,1,1.16,5.29,12.42,12.42,0,0,1-.33,2.87,9.18,9.18,0,0,1-1.06,2.61,8.54,8.54,0,0,1-1.89,2.19,9.65,9.65,0,0,1-2.83,1.59,9.94,9.94,0,0,1,3.28,1.46A8.48,8.48,0,0,1,280,58.8a8.78,8.78,0,0,1,1.21,2.7,11.72,11.72,0,0,1,.37,2.93q0,6.43-4.11,9.64t-12.18,3.2H247.94ZM258.4,52h5.45q3.42,0,4.88-1.25a4.43,4.43,0,0,0,1.46-3.6,4.65,4.65,0,0,0-1.58-3.95Q267,42,263.52,42H258.4V52Zm0,6.85v10.4h6.85a8.26,8.26,0,0,0,2.7-.39,4.91,4.91,0,0,0,1.82-1.06,4.09,4.09,0,0,0,1-1.56,5.57,5.57,0,0,0,.33-1.94,8,8,0,0,0-.3-2.26,4.2,4.2,0,0,0-1-1.71,4.36,4.36,0,0,0-1.7-1.09,7.3,7.3,0,0,0-2.53-.39H258.4Z" transform="translate(-8 -7)"/><path class="a" d="M306.32,54.13l-0.73-.08L304.7,54l-0.91-.06-0.77,0a8.91,8.91,0,0,0-3.9.73,4.48,4.48,0,0,0-2.17,2.25v20.4h-10V45h9.41l0.33,4.14a9.82,9.82,0,0,1,3-3.48,6.92,6.92,0,0,1,4.09-1.25,12.31,12.31,0,0,1,1.47.09,8.13,8.13,0,0,1,1.33.27Z" transform="translate(-8 -7)"/><path class="a" d="M327.2,77.27a6.94,6.94,0,0,1-.55-1.33q-0.22-.73-0.4-1.56a9.24,9.24,0,0,1-7.74,3.48,12.32,12.32,0,0,1-4.21-.71,11.15,11.15,0,0,1-3.47-2,9.4,9.4,0,0,1-2.37-3.05,8.79,8.79,0,0,1-.88-3.93,10.53,10.53,0,0,1,.91-4.47,8.46,8.46,0,0,1,2.77-3.32A13.72,13.72,0,0,1,316,58.31a27.41,27.41,0,0,1,6.75-.73h3.1v-1.7a5.3,5.3,0,0,0-.89-3.25A3.45,3.45,0,0,0,322,51.45a3.74,3.74,0,0,0-2.65.86,3.47,3.47,0,0,0-.92,2.65h-10a9,9,0,0,1,1-4.17,9.78,9.78,0,0,1,2.84-3.34,14.27,14.27,0,0,1,4.45-2.21,19.73,19.73,0,0,1,5.82-.8,19.07,19.07,0,0,1,5.35.71,12,12,0,0,1,4.25,2.16,10.05,10.05,0,0,1,2.8,3.6,11.69,11.69,0,0,1,1,5v13.2q0,1.58.09,2.74a16.84,16.84,0,0,0,.27,2,10.64,10.64,0,0,0,.43,1.56,9.44,9.44,0,0,0,.58,1.28v0.51h-10Zm-6.29-6.55a5.59,5.59,0,0,0,3.11-.8,5,5,0,0,0,1.77-1.82V62.95h-3.16a6.4,6.4,0,0,0-2.37.39,4,4,0,0,0-1.55,1,3.91,3.91,0,0,0-.83,1.5,6.16,6.16,0,0,0-.25,1.77,2.88,2.88,0,0,0,.92,2.22A3.34,3.34,0,0,0,320.92,70.72Z" transform="translate(-8 -7)"/><path class="a" d="M341.35,36.73a4.73,4.73,0,0,1,.4-2,4.51,4.51,0,0,1,1.15-1.55,5.29,5.29,0,0,1,1.76-1,7.35,7.35,0,0,1,4.53,0,5.3,5.3,0,0,1,1.76,1,4.51,4.51,0,0,1,1.15,1.55,5,5,0,0,1,0,3.93,4.5,4.5,0,0,1-1.15,1.55,5.28,5.28,0,0,1-1.76,1,7.35,7.35,0,0,1-4.53,0,5.28,5.28,0,0,1-1.76-1,4.5,4.5,0,0,1-1.15-1.55A4.72,4.72,0,0,1,341.35,36.73ZM352,77.27H341.94V45H352V77.27Z" transform="translate(-8 -7)"/><path class="a" d="M367.41,45l0.33,3.78a10.82,10.82,0,0,1,4-3.26,12,12,0,0,1,5.23-1.12,12.53,12.53,0,0,1,4.1.64,7.61,7.61,0,0,1,3.2,2.11,10,10,0,0,1,2.07,3.87A20.57,20.57,0,0,1,387,57V77.27H377V57a7.56,7.56,0,0,0-.31-2.38,3.44,3.44,0,0,0-.89-1.46,3.07,3.07,0,0,0-1.43-.73,8.68,8.68,0,0,0-1.92-.19,5.16,5.16,0,0,0-2.67.63,4.91,4.91,0,0,0-1.71,1.7V77.27H358V45h9.41Z" transform="translate(-8 -7)"/><path class="a" d="M404.43,69.53h14.68v7.74H391.75v-5.6L406,52.79H392.37V45h26.42v5.42Z" transform="translate(-8 -7)"/><path class="d" d="M270.53,103.34a10.39,10.39,0,0,1-.93,4,9.11,9.11,0,0,1-2.32,3.08,10.69,10.69,0,0,1-3.56,2,14.24,14.24,0,0,1-4.65.71,12.5,12.5,0,0,1-5-.93,10.07,10.07,0,0,1-3.69-2.67,11.79,11.79,0,0,1-2.3-4.25,18.64,18.64,0,0,1-.79-5.63v-1.5a17.86,17.86,0,0,1,.83-5.63,12.17,12.17,0,0,1,2.36-4.26,10.34,10.34,0,0,1,3.68-2.69,11.83,11.83,0,0,1,4.8-.94,14.06,14.06,0,0,1,4.79.75,10.28,10.28,0,0,1,3.53,2.08,9.57,9.57,0,0,1,2.27,3.16,12.32,12.32,0,0,1,1,4h-6.66a7.94,7.94,0,0,0-.31-2.06,3.54,3.54,0,0,0-.87-1.48,3.77,3.77,0,0,0-1.5-.9,7.17,7.17,0,0,0-2.25-.3,4.76,4.76,0,0,0-2.15.46,3.77,3.77,0,0,0-1.52,1.45,7.53,7.53,0,0,0-.91,2.56,20.85,20.85,0,0,0-.29,3.78v1.54a22.81,22.81,0,0,0,.27,3.77,7.67,7.67,0,0,0,.85,2.56,3.53,3.53,0,0,0,1.52,1.46,5.27,5.27,0,0,0,2.31.46,5.13,5.13,0,0,0,3.52-1.09,4.61,4.61,0,0,0,1.29-3.45h6.65Z" transform="translate(-8 -7)"/><path class="d" d="M272.58,102.24a13,13,0,0,1,.65-4.17,9.5,9.5,0,0,1,1.9-3.33,8.66,8.66,0,0,1,3.11-2.2,12,12,0,0,1,8.55,0,8.66,8.66,0,0,1,3.11,2.2,9.5,9.5,0,0,1,1.9,3.33,13,13,0,0,1,.65,4.17v0.4a13.16,13.16,0,0,1-.64,4.18,9.29,9.29,0,0,1-1.9,3.31,8.69,8.69,0,0,1-3.11,2.19,12,12,0,0,1-8.55,0,8.78,8.78,0,0,1-3.12-2.19,9.31,9.31,0,0,1-1.91-3.31,13,13,0,0,1-.65-4.18v-0.4Zm6.42,0.4a13.79,13.79,0,0,0,.16,2.17,5.39,5.39,0,0,0,.57,1.75,3,3,0,0,0,2.81,1.6,2.92,2.92,0,0,0,2.76-1.6,5.69,5.69,0,0,0,.57-1.75,13,13,0,0,0,.17-2.17v-0.4a13.53,13.53,0,0,0-.16-2.13,5.5,5.5,0,0,0-.57-1.76,3.28,3.28,0,0,0-1.1-1.2,3.07,3.07,0,0,0-1.71-.45,3,3,0,0,0-1.69.45,3.22,3.22,0,0,0-1.08,1.2,5.8,5.8,0,0,0-.57,1.76,12.73,12.73,0,0,0-.17,2.13v0.4Z" transform="translate(-8 -7)"/><path class="d" d="M301.36,92.13l0.21,2.42a7.11,7.11,0,0,1,5.88-2.8,6.64,6.64,0,0,1,3.18.73,4.74,4.74,0,0,1,2.09,2.37,7,7,0,0,1,2.5-2.29,7.34,7.34,0,0,1,3.56-.82,7.87,7.87,0,0,1,2.59.41,4.87,4.87,0,0,1,2,1.35A6.47,6.47,0,0,1,324.74,96a12.93,12.93,0,0,1,.48,3.78v13h-6.44v-13a5.76,5.76,0,0,0-.17-1.55,2.21,2.21,0,0,0-.49-0.93,1.61,1.61,0,0,0-.78-0.46,4,4,0,0,0-1-.12,3.1,3.1,0,0,0-1.69.45,3.33,3.33,0,0,0-1.14,1.25,2.6,2.6,0,0,1,0,.3v14h-6.44V99.8a6.3,6.3,0,0,0-.16-1.58,2.24,2.24,0,0,0-.48-1,1.53,1.53,0,0,0-.78-0.46,4.45,4.45,0,0,0-1.06-.11,3,3,0,0,0-1.65.45,3.47,3.47,0,0,0-1.17,1.25v14.34h-6.42V92.13h6Z" transform="translate(-8 -7)"/><path class="d" d="M335,92.13l0.21,2.42a7.11,7.11,0,0,1,5.88-2.8,6.64,6.64,0,0,1,3.18.73,4.74,4.74,0,0,1,2.09,2.37,7,7,0,0,1,2.5-2.29,7.34,7.34,0,0,1,3.56-.82,7.87,7.87,0,0,1,2.59.41,4.87,4.87,0,0,1,2,1.35A6.47,6.47,0,0,1,358.33,96a12.93,12.93,0,0,1,.48,3.78v13h-6.44v-13a5.76,5.76,0,0,0-.17-1.55,2.21,2.21,0,0,0-.49-0.93,1.61,1.61,0,0,0-.78-0.46,4,4,0,0,0-1-.12,3.1,3.1,0,0,0-1.69.45,3.33,3.33,0,0,0-1.14,1.25,2.6,2.6,0,0,1,0,.3v14h-6.44V99.8a6.3,6.3,0,0,0-.16-1.58,2.24,2.24,0,0,0-.48-1,1.53,1.53,0,0,0-.78-0.46,4.45,4.45,0,0,0-1.06-.11,3,3,0,0,0-1.65.45,3.47,3.47,0,0,0-1.17,1.25v14.34h-6.42V92.13h6Z" transform="translate(-8 -7)"/><path class="d" d="M374.75,110.5a6.81,6.81,0,0,1-2.34,1.92,7,7,0,0,1-3.16.69,8.65,8.65,0,0,1-2.79-.43,5.43,5.43,0,0,1-2.17-1.35,6.29,6.29,0,0,1-1.41-2.38,10.73,10.73,0,0,1-.5-3.49V92.13h6.42v13.37a2.73,2.73,0,0,0,.66,2,2.62,2.62,0,0,0,1.91.65,4,4,0,0,0,2-.42,3.12,3.12,0,0,0,1.19-1.16V92.13H381v20.6h-6Z" transform="translate(-8 -7)"/><path class="d" d="M390.37,92.13l0.21,2.42a6.93,6.93,0,0,1,2.54-2.09,7.66,7.66,0,0,1,3.34-.71,8,8,0,0,1,2.62.41,4.87,4.87,0,0,1,2,1.35A6.4,6.4,0,0,1,402.45,96a13.17,13.17,0,0,1,.47,3.78v13h-6.44v-13a4.85,4.85,0,0,0-.2-1.52,2.21,2.21,0,0,0-.57-0.93,2,2,0,0,0-.91-0.47,5.52,5.52,0,0,0-1.23-.12,3.31,3.31,0,0,0-1.7.4,3.14,3.14,0,0,0-1.09,1.09v14.55h-6.42V92.13h6Z" transform="translate(-8 -7)"/><path class="d" d="M406.42,86.81a3,3,0,0,1,.26-1.26,2.89,2.89,0,0,1,.73-1,3.39,3.39,0,0,1,1.12-.65,4.7,4.7,0,0,1,2.89,0,3.39,3.39,0,0,1,1.12.65,2.89,2.89,0,0,1,.73,1,3.2,3.2,0,0,1,0,2.51,2.89,2.89,0,0,1-.73,1,3.39,3.39,0,0,1-1.12.65,4.7,4.7,0,0,1-2.89,0,3.38,3.38,0,0,1-1.12-.65,2.89,2.89,0,0,1-.73-1A3,3,0,0,1,406.42,86.81Zm6.82,25.92H406.8V92.13h6.44v20.6Z" transform="translate(-8 -7)"/><path class="d" d="M424.66,87v5.12h3.39v4.46h-3.39V106a4,4,0,0,0,.11,1,1.36,1.36,0,0,0,.34.64,1.29,1.29,0,0,0,.64.33,4.3,4.3,0,0,0,1,.1q0.55,0,.91,0t0.69-.09v4.59a12.1,12.1,0,0,1-1.71.41,11.91,11.91,0,0,1-1.9.14,9.83,9.83,0,0,1-2.75-.35,5,5,0,0,1-2-1.11,4.78,4.78,0,0,1-1.26-2,8.56,8.56,0,0,1-.43-2.87V96.58h-2.63V92.13h2.63V87h6.42Z" transform="translate(-8 -7)"/><path class="d" d="M438.81,103.74l3.43-11.62h6.88l-8.26,23.67a16,16,0,0,1-.7,1.69,6.4,6.4,0,0,1-1.21,1.7,6.33,6.33,0,0,1-2,1.32,7.19,7.19,0,0,1-3,.53l-0.79,0a5.16,5.16,0,0,1-.58-0.07l-0.56-.11-0.71-.18v-4.59h0.82a6.28,6.28,0,0,0,1.29-.11,2.74,2.74,0,0,0,.89-0.34,1.89,1.89,0,0,0,.58-0.56,3.52,3.52,0,0,0,.37-0.77l0.51-1.37L428.7,92.13h6.86Z" transform="translate(-8 -7)"/></svg>