<svg xmlns="http://www.w3.org/2000/svg" viewBox="0 0 220 290"><defs><style>.cls-1{isolation:isolate;}.cls-2{fill:#754e37;}.cls-3{fill:#eb743b;}.cls-4{fill:#573a29;}.cls-5{fill:#fffedb;}.cls-6{fill:#cfa691;}.cls-7{mix-blend-mode:multiply;opacity:0.07;}.cls-8{fill:#d3562c;}</style></defs><g class="cls-1"><g id="Layer_1" data-name="Layer 1"><path class="cls-2" d="M25.73,216.46V161.85H44.29q9.57,0,14.61,3.87c3.35,2.57,5,6.32,5,11.22a14.11,14.11,0,0,1-1.82,7.27,10.76,10.76,0,0,1-5.39,4.54,10.43,10.43,0,0,1,6,4.29,13.74,13.74,0,0,1,2.11,7.76q0,8.16-4.74,11.91t-14.25,3.75ZM39,184.54h6.37c3.53-.1,5.3-2,5.3-5.63,0-2.16-.44-3.69-1.31-4.62a5.33,5.33,0,0,0-4-1.38H39Zm0,9.23v11.77h6.79a5.18,5.18,0,0,0,5.72-5.65q0-5.92-4.78-6.12Z"/><path class="cls-2" d="M71.45,191.62q0-10.6,5-16.65t13.85-6q8.92,0,13.93,6t5,16.73v3q0,10.65-5,16.65t-13.89,6q-9,0-13.95-6t-5-16.71Zm12.25,3.06q0,12.51,6.68,12.51,6.16,0,6.64-10.44l0-5.13c0-4.26-.59-7.41-1.77-9.47a5.52,5.52,0,0,0-5-3.08,5.37,5.37,0,0,0-4.85,3.08c-1.17,2.06-1.75,5.21-1.75,9.47Z"/><path class="cls-2" d="M115.39,191.62q0-10.6,5-16.65t13.84-6q8.92,0,13.93,6t5,16.73v3q0,10.65-5,16.65t-13.88,6q-9,0-14-6t-5-16.71Zm12.25,3.06q0,12.51,6.69,12.51,6.16,0,6.64-10.44l0-5.13c0-4.26-.59-7.41-1.77-9.47a5.51,5.51,0,0,0-5-3.08,5.37,5.37,0,0,0-4.85,3.08c-1.17,2.06-1.75,5.21-1.75,9.47Z"/><path class="cls-2" d="M176.24,198.47,173,202.14v14.32h-12.2V150.22H173V186l1.51-2.24,8.46-14h14.53L183.92,189l14.83,27.43h-14Z"/><path class="cls-3" d="M3.18,285.46V230.85H21.74q9.57,0,14.6,3.87c3.36,2.57,5,6.32,5,11.22a14,14,0,0,1-1.83,7.27,10.72,10.72,0,0,1-5.39,4.54,10.45,10.45,0,0,1,6,4.29,13.73,13.73,0,0,1,2.1,7.76q0,8.16-4.73,11.91t-14.25,3.75Zm13.26-31.92h6.38c3.53-.1,5.3-2,5.3-5.63,0-2.16-.44-3.69-1.32-4.62a5.32,5.32,0,0,0-4-1.38H16.44Zm0,9.23v11.77h6.8A5.69,5.69,0,0,0,27.48,273,5.62,5.62,0,0,0,29,268.89q0-5.92-4.78-6.12Z"/><path class="cls-3" d="M73.35,250.57l-4-.34q-5,0-6.77,4.39v30.84H50.28V238.8H61.79l.35,5q2.88-5.91,8-5.91a8.39,8.39,0,0,1,3.36.57Z"/><path class="cls-3" d="M100.47,285.46a17.17,17.17,0,0,1-1-3.63,10.42,10.42,0,0,1-8.88,4.49,13.14,13.14,0,0,1-9.73-3.88A13.66,13.66,0,0,1,77,272.39q0-7.33,4.68-11.34T95.13,257h3.71V253.2q0-3.15-1.08-4.44a3.88,3.88,0,0,0-3.15-1.3c-3,0-4.57,1.79-4.57,5.35H77.83a13.49,13.49,0,0,1,4.86-10.67A18.06,18.06,0,0,1,95,237.93q7.68,0,11.88,4T111,253.33v21.95a23,23,0,0,0,1.72,9.44v.74Zm-7.2-8.71a6.88,6.88,0,0,0,3.45-.82A5.91,5.91,0,0,0,98.84,274v-9.71H95.9a6.26,6.26,0,0,0-4.89,2,7.62,7.62,0,0,0-1.79,5.3Q89.22,276.75,93.27,276.75Z"/><path class="cls-3" d="M119.88,226.72a6.28,6.28,0,0,1,1.81-4.65,7.32,7.32,0,0,1,9.66,0,6.28,6.28,0,0,1,1.81,4.65,6.64,6.64,0,1,1-13.28,0Zm12.81,58.74H120.44V238.8h12.25Z"/><path class="cls-3" d="M153.3,238.8l.35,4.61a12.94,12.94,0,0,1,10.82-5.48q12,0,12.38,16.87v30.66H164.6V255.7q0-4-1.19-5.75c-.79-1.2-2.17-1.79-4.16-1.79-2.21,0-3.94,1.13-5.17,3.4v33.9H141.83V238.8Z"/><path class="cls-3" d="M199.1,275.32h18.46v10.14H184.61v-7.64l18-28.85H185V238.8H217.3v7.37Z"/><polygon class="cls-3" points="111.97 2.46 111.97 146.46 172.97 111.46 172.97 37.46 111.97 2.46"/><polygon class="cls-2" points="106.97 2.46 45.97 37.46 45.97 111.46 106.97 146.46 106.97 2.46"/><path class="cls-4" d="M107,124.75h-7a1.6,1.6,0,0,1-1.6-1.6c0-2.31,0-4.92-8.35-6-8.71-1.16-31.48-4.94-31.71-5A1.59,1.59,0,0,1,57,110.56V48.73a1.59,1.59,0,0,1,.54-1.19,1.53,1.53,0,0,1,1.24-.4l7.2.8a1.6,1.6,0,0,1-.35,3.18l-5.43-.6V109.2c5,.83,22.84,3.74,30.27,4.74,8.47,1.13,10.61,4.2,11,7.61H107Z"/><path class="cls-4" d="M103.37,57c0-9.4-17.46-22.43-37.6-17.78v61.83c20.67-.86,37.6,6.65,37.6,16.15Z"/><path class="cls-4" d="M77.19,54.74a1.57,1.57,0,0,0-1.57,1.51,1.41,1.41,0,0,0,1.51,1.63c14.48,0,26.24,12.35,26.24,16.19V69.88c0-4-11-15.14-26.12-15.14Z"/><path class="cls-4" d="M77.19,65.64a1.57,1.57,0,0,0-1.57,1.51,1.41,1.41,0,0,0,1.51,1.63c14.48,0,26.24,12.35,26.24,16.19V80.78c0-4-11-15.14-26.12-15.14Z"/><path class="cls-4" d="M77.19,76.53A1.57,1.57,0,0,0,75.62,78a1.41,1.41,0,0,0,1.51,1.63c14.48,0,26.24,12.36,26.24,16.2V91.68c0-4-11-15.15-26.12-15.15Z"/><path class="cls-5" d="M107,121.75h-7a1.6,1.6,0,0,1-1.6-1.6c0-2.31,0-4.92-8.35-6-8.71-1.16-31.48-4.94-31.71-5A1.59,1.59,0,0,1,57,107.56V45.73a1.59,1.59,0,0,1,.54-1.19,1.53,1.53,0,0,1,1.24-.4l7.2.8a1.6,1.6,0,0,1-.35,3.18l-5.43-.6V106.2c5,.83,22.84,3.74,30.27,4.74,8.47,1.13,10.61,4.2,11,7.61H107Z"/><path class="cls-6" d="M103.37,54c0-9.4-17.46-22.43-37.6-17.78V98.09c20.67-.86,37.6,6.65,37.6,16.15Z"/><path class="cls-5" d="M77.19,51.74a1.57,1.57,0,0,0-1.57,1.51,1.41,1.41,0,0,0,1.51,1.63c14.48,0,26.24,12.35,26.24,16.19V66.88c0-4-11-15.14-26.12-15.14Z"/><path class="cls-5" d="M77.19,62.64a1.57,1.57,0,0,0-1.57,1.51,1.41,1.41,0,0,0,1.51,1.63c14.48,0,26.24,12.35,26.24,16.19V77.78c0-4-11-15.14-26.12-15.14Z"/><path class="cls-5" d="M77.19,73.53A1.57,1.57,0,0,0,75.62,75a1.41,1.41,0,0,0,1.51,1.63c14.48,0,26.24,12.36,26.24,16.2V88.68c0-4-11-15.15-26.12-15.15Z"/><g class="cls-7"><path d="M129.27,94.19a2.11,2.11,0,0,1,1.82-1,2.07,2.07,0,0,1,1.08.3,2.11,2.11,0,0,1-1.09,3.93,2.2,2.2,0,0,1-1.08-.3,2.13,2.13,0,0,1-.73-2.9Zm12.6,22.36a2.09,2.09,0,0,1-1.37.51,2.11,2.11,0,0,1-1.38-3.71,2.06,2.06,0,0,1,1.37-.52,2.11,2.11,0,0,1,1.61.74,2.12,2.12,0,0,1-.23,3Z"/><path d="M121,48.07l.21,0Z"/><path d="M132.35,57.71a2.11,2.11,0,0,1,.67-.66,2.17,2.17,0,0,1,1.12-.31,2.09,2.09,0,0,1,1.12.32,2.11,2.11,0,0,1-1.13,3.9,2.1,2.1,0,0,1-1.78-3.25Zm6.38-20.18a2.15,2.15,0,0,1-2.92.65l-.09-.06a2.11,2.11,0,0,1-.56-2.85,2.08,2.08,0,0,1,1.78-1,2.15,2.15,0,0,1,1.13.32,2.11,2.11,0,0,1,.93,1.33A2.07,2.07,0,0,1,138.73,37.53Z"/><path d="M155.49,49.12a2.12,2.12,0,0,1,3.85.68,2.09,2.09,0,0,1-.28,1.58,2.14,2.14,0,0,1-2.91.66l-.1-.07A2.1,2.1,0,0,1,155.49,49.12Zm0,23.47a2.12,2.12,0,0,1,2.91-.66,2.16,2.16,0,0,1,.94,1.33,2.11,2.11,0,0,1-3.19,2.24l-.1-.06A2.11,2.11,0,0,1,155.49,72.59Zm0,26.3a2.12,2.12,0,0,1,1.79-1,2,2,0,0,1,1.12.33,2.1,2.1,0,0,1,.66,2.91,2.14,2.14,0,0,1-2.91.65l-.1-.06A2.11,2.11,0,0,1,155.49,98.89Z"/><path d="M145.14,108.56a6.12,6.12,0,0,0-10.72,4.74,19.86,19.86,0,0,1-5.32,1.33,4.11,4.11,0,0,1-2.23-1,10.56,10.56,0,0,0-4.15-1.85A37.66,37.66,0,0,0,131.31,99a6.12,6.12,0,0,0,2.91-11.37,6.07,6.07,0,0,0-3.13-.86,6.15,6.15,0,0,0-5.26,3,6.13,6.13,0,0,0,1.62,8.07c-4,9.21-9.22,13.08-12.56,14.68a2,2,0,0,0-.36.17,11.77,11.77,0,0,1-2.56.81v4a12.54,12.54,0,0,0,4.24-1.2c5.35-1.35,6.84-.35,8.41.71a7.79,7.79,0,0,0,4.26,1.66h.31a23.61,23.61,0,0,0,7-1.72,6.18,6.18,0,0,0,4.29,1.75h0a6.12,6.12,0,0,0,4.64-10.11ZM129.27,91.79a2.1,2.1,0,0,1,1.82-1,2.17,2.17,0,0,1,1.08.3,2.12,2.12,0,0,1,.73,2.9,2.11,2.11,0,0,1-3.63-2.16Zm12.6,22.36a2.09,2.09,0,0,1-1.37.51,2.11,2.11,0,0,1-1.38-3.72,2.09,2.09,0,0,1,1.37-.51,2.11,2.11,0,0,1,1.61.74,2.06,2.06,0,0,1,.5,1.54A2.08,2.08,0,0,1,141.87,114.15Z"/><path d="M121,45.66l.21.05Z"/><path d="M142.92,32.66a6.12,6.12,0,1,0-11,4.82A13.31,13.31,0,0,1,122,41.77a29.12,29.12,0,0,0-10-2.31v4a24.91,24.91,0,0,1,8.74,2.14h0a21.76,21.76,0,0,1,8.61,7,5.93,5.93,0,0,0-.38.54,6.12,6.12,0,1,0,8.44-1.91,6.2,6.2,0,0,0-4.66-.75,26,26,0,0,0-5.35-5.57,16.39,16.39,0,0,0,7.78-5.09,6.21,6.21,0,0,0,1.77.26,6.13,6.13,0,0,0,6-7.45ZM132.35,55.31a2,2,0,0,1,.67-.66,2.12,2.12,0,0,1,2.24,0,2.12,2.12,0,0,1-1.13,3.91,2.07,2.07,0,0,1-1.13-.33A2.12,2.12,0,0,1,132.35,55.31Zm6.38-20.19a2.15,2.15,0,0,1-2.92.65l-.09-.06a2.11,2.11,0,0,1,1.22-3.83,2.12,2.12,0,0,1,1.79,3.24Z"/><path d="M151.61,73.64a6,6,0,0,0,2.11,2.65l.28.2a6.15,6.15,0,0,0,8.45-1.9,6.13,6.13,0,0,0-5.17-9.4l-.38,0a25.63,25.63,0,0,1,0-11.26l.33,0a6.12,6.12,0,0,0,3.27-11.3,6.18,6.18,0,0,0-3.26-.94,6.11,6.11,0,0,0-4.15,10.61l.07.06a28.64,28.64,0,0,0,0,14.42,5.25,5.25,0,0,0-.42.4,6.43,6.43,0,0,0-.64.82,6.35,6.35,0,0,0-.71,1.58,15.16,15.16,0,0,0-6.82,2.73c-2,1.33-4,2.57-9.64,2.67a32.77,32.77,0,0,0-5.29-.12c-1.43,0-2.91.11-4.85,0-1.33-.07-2.1-.88-3.45-2.42-1.81-2.06-4.22-4.65-9.37-5v4c3.29.3,4.79,1.88,6.35,3.66s3.18,3.62,6.26,3.79c2.12.11,3.76,0,5.21,0a24.35,24.35,0,0,1,7.85.68c2.61.64,12.1,9.67,14.78,14.32-.11.14-.22.29-.32.44a6.11,6.11,0,0,0,1.62,8.25l.28.19a6.12,6.12,0,0,0,8.45-1.9,6.12,6.12,0,0,0-5.17-9.39,6.15,6.15,0,0,0-1.55.19c-2.56-4.18-8.65-10.45-13.19-13.79a17.83,17.83,0,0,0,4.21-2.19A11.39,11.39,0,0,1,151.61,73.64Zm3.88-26.92a2.12,2.12,0,0,1,2.91-.66,2.16,2.16,0,0,1,.94,1.33,2.11,2.11,0,0,1-3.19,2.24l-.1-.06A2.11,2.11,0,0,1,155.49,46.72Zm0,23.46a2.12,2.12,0,0,1,1.79-1,2,2,0,0,1,1.12.33,2.1,2.1,0,0,1,.66,2.91,2.14,2.14,0,0,1-2.91.65l-.1-.06A2.1,2.1,0,0,1,155.49,70.18Zm0,26.31a2.12,2.12,0,0,1,2.91-.66,2.11,2.11,0,1,1-2.25,3.57l-.1-.06A2.11,2.11,0,0,1,155.49,96.49Z"/></g><path class="cls-8" d="M145.14,111.56a6.12,6.12,0,0,0-10.72,4.74,19.86,19.86,0,0,1-5.32,1.33,4.11,4.11,0,0,1-2.23-1,10.56,10.56,0,0,0-4.15-1.85A37.66,37.66,0,0,0,131.31,102a6.12,6.12,0,0,0,2.91-11.37,6.07,6.07,0,0,0-3.13-.86,6.15,6.15,0,0,0-5.26,3,6.13,6.13,0,0,0,1.62,8.07c-4,9.21-9.22,13.08-12.56,14.68a2,2,0,0,0-.36.17,11.77,11.77,0,0,1-2.56.81v4a12.54,12.54,0,0,0,4.24-1.2c5.35-1.35,6.84-.35,8.41.71a7.79,7.79,0,0,0,4.26,1.66h.31a23.61,23.61,0,0,0,7-1.72,6.18,6.18,0,0,0,4.29,1.75h0a6.12,6.12,0,0,0,4.64-10.11ZM129.27,94.79a2.1,2.1,0,0,1,1.82-1,2.17,2.17,0,0,1,1.08.3,2.12,2.12,0,0,1,.73,2.9,2.11,2.11,0,0,1-3.63-2.16Zm12.6,22.36a2.09,2.09,0,0,1-1.37.51,2.11,2.11,0,0,1-1.38-3.72,2.09,2.09,0,0,1,1.37-.51,2.11,2.11,0,0,1,1.61.74,2.06,2.06,0,0,1,.5,1.54A2.08,2.08,0,0,1,141.87,117.15Z"/><path d="M121,48.07l.21,0Z"/><path class="cls-8" d="M142.92,35.67a6.12,6.12,0,1,0-11,4.82A13.35,13.35,0,0,1,122,44.78a28.93,28.93,0,0,0-10-2.32v4a24.65,24.65,0,0,1,8.74,2.13h0a21.68,21.68,0,0,1,8.61,7,4,4,0,0,0-.38.54,6.12,6.12,0,1,0,8.44-1.91,6.2,6.2,0,0,0-4.66-.76A26.19,26.19,0,0,0,127.39,48a16.34,16.34,0,0,0,7.78-5.1,6.22,6.22,0,0,0,1.77.27,6.13,6.13,0,0,0,6-7.45ZM132.35,58.31a2.11,2.11,0,0,1,.67-.66,2.09,2.09,0,0,1,2.24,0,2.11,2.11,0,0,1-1.13,3.9,2.1,2.1,0,0,1-1.78-3.25Zm6.38-20.19a2.14,2.14,0,0,1-2.92.66l-.09-.06a2.12,2.12,0,0,1,1.22-3.84,2.16,2.16,0,0,1,1.13.33,2.09,2.09,0,0,1,.93,1.33A2,2,0,0,1,138.73,38.12Z"/><path class="cls-8" d="M151.61,76.64a6,6,0,0,0,2.11,2.65l.28.2a6.15,6.15,0,0,0,8.45-1.9,6.13,6.13,0,0,0-5.17-9.4l-.38,0a25.63,25.63,0,0,1,0-11.26l.33,0a6.12,6.12,0,0,0,3.27-11.3,6.18,6.18,0,0,0-3.26-.94,6.11,6.11,0,0,0-4.15,10.61l.07.06a28.64,28.64,0,0,0,0,14.42,5.25,5.25,0,0,0-.42.4,6.43,6.43,0,0,0-.64.82,6.35,6.35,0,0,0-.71,1.58,15.16,15.16,0,0,0-6.82,2.73c-2,1.33-4,2.57-9.64,2.67a32.77,32.77,0,0,0-5.29-.12c-1.43,0-2.91.11-4.85,0-1.33-.07-2.1-.88-3.45-2.42-1.81-2.06-4.22-4.65-9.37-5v4c3.29.3,4.79,1.88,6.35,3.66s3.18,3.62,6.26,3.79c2.12.11,3.76,0,5.21,0a24.35,24.35,0,0,1,7.85.68c2.61.64,12.1,9.67,14.78,14.32-.11.14-.22.29-.32.44a6.11,6.11,0,0,0,1.62,8.25l.28.19a6.12,6.12,0,0,0,8.45-1.9,6.12,6.12,0,0,0-5.17-9.39,6.15,6.15,0,0,0-1.55.19c-2.56-4.18-8.65-10.45-13.19-13.79a17.83,17.83,0,0,0,4.21-2.19A11.39,11.39,0,0,1,151.61,76.64Zm3.88-26.92a2.12,2.12,0,0,1,2.91-.66,2.16,2.16,0,0,1,.94,1.33,2.11,2.11,0,0,1-3.19,2.24l-.1-.06A2.11,2.11,0,0,1,155.49,49.72Zm0,23.46a2.12,2.12,0,0,1,1.79-1,2,2,0,0,1,1.12.33,2.1,2.1,0,0,1,.66,2.91,2.14,2.14,0,0,1-2.91.65l-.1-.06A2.1,2.1,0,0,1,155.49,73.18Zm0,26.31a2.12,2.12,0,0,1,2.91-.66,2.11,2.11,0,1,1-2.25,3.57l-.1-.06A2.11,2.11,0,0,1,155.49,99.49Z"/><path class="cls-5" d="M145.14,108.56a6.12,6.12,0,0,0-10.72,4.74,19.86,19.86,0,0,1-5.32,1.33,4.11,4.11,0,0,1-2.23-1,10.56,10.56,0,0,0-4.15-1.85A37.66,37.66,0,0,0,131.31,99a6.12,6.12,0,0,0,2.91-11.37,6.07,6.07,0,0,0-3.13-.86,6.15,6.15,0,0,0-5.26,3,6.13,6.13,0,0,0,1.62,8.07c-4,9.21-9.22,13.08-12.56,14.68a2,2,0,0,0-.36.17,11.77,11.77,0,0,1-2.56.81v4a12.54,12.54,0,0,0,4.24-1.2c5.35-1.35,6.84-.35,8.41.71a7.79,7.79,0,0,0,4.26,1.66h.31a23.61,23.61,0,0,0,7-1.72,6.18,6.18,0,0,0,4.29,1.75h0a6.12,6.12,0,0,0,4.64-10.11ZM129.27,91.79a2.1,2.1,0,0,1,1.82-1,2.17,2.17,0,0,1,1.08.3,2.12,2.12,0,0,1,.73,2.9,2.11,2.11,0,0,1-3.63-2.16Zm12.6,22.36a2.09,2.09,0,0,1-1.37.51,2.11,2.11,0,0,1-1.38-3.72,2.09,2.09,0,0,1,1.37-.51,2.11,2.11,0,0,1,1.61.74,2.06,2.06,0,0,1,.5,1.54A2.08,2.08,0,0,1,141.87,114.15Z"/><path class="cls-5" d="M121,45.66l.21.05Z"/><path class="cls-5" d="M142.92,32.66a6.12,6.12,0,1,0-11,4.82A13.31,13.31,0,0,1,122,41.77a29.12,29.12,0,0,0-10-2.31v4a24.91,24.91,0,0,1,8.74,2.14h0a21.76,21.76,0,0,1,8.61,7,5.93,5.93,0,0,0-.38.54,6.12,6.12,0,1,0,8.44-1.91,6.2,6.2,0,0,0-4.66-.75,26,26,0,0,0-5.35-5.57,16.39,16.39,0,0,0,7.78-5.09,6.21,6.21,0,0,0,1.77.26,6.13,6.13,0,0,0,6-7.45ZM132.35,55.31a2,2,0,0,1,.67-.66,2.12,2.12,0,0,1,2.24,0,2.12,2.12,0,0,1-1.13,3.91,2.07,2.07,0,0,1-1.13-.33A2.12,2.12,0,0,1,132.35,55.31Zm6.38-20.19a2.15,2.15,0,0,1-2.92.65l-.09-.06a2.11,2.11,0,0,1,1.22-3.83,2.12,2.12,0,0,1,1.79,3.24Z"/><path class="cls-5" d="M151.61,73.64a6,6,0,0,0,2.11,2.65l.28.2a6.15,6.15,0,0,0,8.45-1.9,6.13,6.13,0,0,0-5.17-9.4l-.38,0a25.63,25.63,0,0,1,0-11.26l.33,0a6.12,6.12,0,0,0,3.27-11.3,6.18,6.18,0,0,0-3.26-.94,6.11,6.11,0,0,0-4.15,10.61l.07.06a28.64,28.64,0,0,0,0,14.42,5.25,5.25,0,0,0-.42.4,6.43,6.43,0,0,0-.64.82,6.35,6.35,0,0,0-.71,1.58,15.16,15.16,0,0,0-6.82,2.73c-2,1.33-4,2.57-9.64,2.67a32.77,32.77,0,0,0-5.29-.12c-1.43,0-2.91.11-4.85,0-1.33-.07-2.1-.88-3.45-2.42-1.81-2.06-4.22-4.65-9.37-5v4c3.29.3,4.79,1.88,6.35,3.66s3.18,3.62,6.26,3.79c2.12.11,3.76,0,5.21,0a24.35,24.35,0,0,1,7.85.68c2.61.64,12.1,9.67,14.78,14.32-.11.14-.22.29-.32.44a6.11,6.11,0,0,0,1.62,8.25l.28.19a6.12,6.12,0,0,0,8.45-1.9,6.12,6.12,0,0,0-5.17-9.39,6.15,6.15,0,0,0-1.55.19c-2.56-4.18-8.65-10.45-13.19-13.79a17.83,17.83,0,0,0,4.21-2.19A11.39,11.39,0,0,1,151.61,73.64Zm3.88-26.92a2.12,2.12,0,0,1,2.91-.66,2.16,2.16,0,0,1,.94,1.33,2.11,2.11,0,0,1-3.19,2.24l-.1-.06A2.11,2.11,0,0,1,155.49,46.72Zm0,23.46a2.12,2.12,0,0,1,1.79-1,2,2,0,0,1,1.12.33,2.1,2.1,0,0,1,.66,2.91,2.14,2.14,0,0,1-2.91.65l-.1-.06A2.1,2.1,0,0,1,155.49,70.18Zm0,26.31a2.12,2.12,0,0,1,2.91-.66,2.11,2.11,0,1,1-2.25,3.57l-.1-.06A2.11,2.11,0,0,1,155.49,96.49Z"/></g></g></svg>