<svg xmlns="http://www.w3.org/2000/svg" viewBox="0 0 599.83 150"><defs><style>.cls-1{isolation:isolate;}.cls-2{fill:#eb743b;}.cls-3{fill:#754e37;}.cls-4{fill:#573a29;}.cls-5{fill:#fffedb;}.cls-6{fill:#cfa691;}.cls-7{mix-blend-mode:multiply;opacity:0.07;}.cls-8{fill:#d3562c;}</style></defs><g class="cls-1"><g id="Layer_1" data-name="Layer 1"><polygon class="cls-2" points="70.35 2.82 70.35 146.82 131.35 111.82 131.35 37.82 70.35 2.82"/><polygon class="cls-3" points="65.35 2.82 4.35 37.82 4.35 111.82 65.35 146.82 65.35 2.82"/><path class="cls-4" d="M65.35,125.11h-7a1.6,1.6,0,0,1-1.6-1.6c0-2.3,0-4.92-8.34-6-8.71-1.17-31.48-4.94-31.71-5a1.61,1.61,0,0,1-1.34-1.58V49.09a1.61,1.61,0,0,1,.53-1.19,1.63,1.63,0,0,1,1.25-.4l7.2.81a1.58,1.58,0,0,1,1.41,1.76A1.6,1.6,0,0,1,24,51.49l-5.42-.61v58.69c5,.82,22.83,3.74,30.27,4.73,8.47,1.14,10.61,4.21,11,7.61h5.48Z"/><path class="cls-4" d="M61.76,57.4C61.76,48,44.29,35,24.16,39.63v61.83c20.67-.87,37.6,6.65,37.6,16.14Z"/><path class="cls-4" d="M35.58,55.11A1.57,1.57,0,0,0,34,56.62a1.4,1.4,0,0,0,1.51,1.63C50,58.25,61.76,70.6,61.76,74.44V70.25c0-4-11-15.14-26.12-15.14Z"/><path class="cls-4" d="M35.58,66A1.57,1.57,0,0,0,34,67.51a1.4,1.4,0,0,0,1.51,1.63c14.48,0,26.24,12.36,26.24,16.2V81.15c0-4-11-15.15-26.12-15.15Z"/><path class="cls-4" d="M35.58,76.9A1.57,1.57,0,0,0,34,78.41,1.4,1.4,0,0,0,35.52,80C50,80,61.76,92.39,61.76,96.23V92c0-4-11-15.14-26.12-15.14Z"/><path class="cls-5" d="M65.35,122.11h-7a1.6,1.6,0,0,1-1.6-1.6c0-2.3,0-4.92-8.34-6-8.71-1.17-31.48-4.94-31.71-5a1.61,1.61,0,0,1-1.34-1.58V46.09a1.61,1.61,0,0,1,.53-1.19,1.63,1.63,0,0,1,1.25-.4l7.2.81a1.58,1.58,0,0,1,1.41,1.76A1.6,1.6,0,0,1,24,48.49l-5.42-.61v58.69c5,.82,22.83,3.74,30.27,4.73,8.47,1.14,10.61,4.21,11,7.61h5.48Z"/><path class="cls-6" d="M61.76,54.4C61.76,45,44.29,32,24.16,36.63V98.46c20.67-.87,37.6,6.65,37.6,16.14Z"/><path class="cls-5" d="M35.58,52.11A1.57,1.57,0,0,0,34,53.62a1.4,1.4,0,0,0,1.51,1.63C50,55.25,61.76,67.6,61.76,71.44V67.25c0-4-11-15.14-26.12-15.14Z"/><path class="cls-5" d="M35.58,63A1.57,1.57,0,0,0,34,64.51a1.4,1.4,0,0,0,1.51,1.63c14.48,0,26.24,12.36,26.24,16.2V78.15c0-4-11-15.15-26.12-15.15Z"/><path class="cls-5" d="M35.58,73.9A1.57,1.57,0,0,0,34,75.41,1.4,1.4,0,0,0,35.52,77C50,77,61.76,89.39,61.76,93.23V89c0-4-11-15.14-26.12-15.14Z"/><g class="cls-7"><path d="M87.66,94.56a2.08,2.08,0,0,1,1.82-1,2.11,2.11,0,1,1,0,4.22,2.13,2.13,0,0,1-2-1.59A2.13,2.13,0,0,1,87.66,94.56Zm12.6,22.36a2.11,2.11,0,1,1-1.38-3.72,2.11,2.11,0,0,1,2.11,2.28A2.08,2.08,0,0,1,100.26,116.92Z"/><path d="M79.36,48.43l.21,0Z"/><path d="M90.73,58.08a2,2,0,0,1,.68-.66,2.12,2.12,0,0,1,2.24,0,2.12,2.12,0,0,1-1.13,3.91A2.07,2.07,0,0,1,91.39,61,2.13,2.13,0,0,1,90.73,58.08Zm6.38-20.19a2.15,2.15,0,0,1-2.91.66l-.09-.07a2.11,2.11,0,0,1,1.22-3.83,2.16,2.16,0,0,1,1.13.33,2.11,2.11,0,0,1,.65,2.91Z"/><path d="M113.88,49.49a2.1,2.1,0,0,1,1.78-1,2.12,2.12,0,0,1,1.79,3.24,2.15,2.15,0,0,1-2.92.65l-.09-.06A2.11,2.11,0,0,1,113.88,49.49Zm0,23.46a2.1,2.1,0,0,1,1.78-1,2.16,2.16,0,0,1,1.13.33,2.12,2.12,0,0,1,.66,2.91,2.15,2.15,0,0,1-2.92.66l-.09-.07A2.1,2.1,0,0,1,113.88,73Zm0,26.31a2.08,2.08,0,0,1,1.78-1,2.15,2.15,0,0,1,1.13.32,2.11,2.11,0,0,1,.93,1.33,2.07,2.07,0,0,1-.27,1.59,2.15,2.15,0,0,1-2.92.65l-.09-.06A2.11,2.11,0,0,1,113.88,99.26Z"/><path d="M103.53,108.93a6.12,6.12,0,0,0-10.72,4.73A19.62,19.62,0,0,1,87.48,115a4,4,0,0,1-2.22-1,10.7,10.7,0,0,0-4.15-1.84A37.62,37.62,0,0,0,89.7,99.34a6.09,6.09,0,1,0-3.86-1.18c-4,9.22-9.22,13.08-12.57,14.69a2,2,0,0,0-.36.17,10.91,10.91,0,0,1-2.56.8v4a12.63,12.63,0,0,0,4.25-1.19c5.35-1.36,6.84-.35,8.41.71A7.94,7.94,0,0,0,87.27,119h.31a23.61,23.61,0,0,0,7-1.72A6.12,6.12,0,0,0,98.89,119h0a6.11,6.11,0,0,0,4.64-10.1ZM87.66,92.15a2.1,2.1,0,0,1,1.82-1,2,2,0,0,1,1.07.3,2.11,2.11,0,0,1-1.08,3.93,2.17,2.17,0,0,1-1.08-.3,2.09,2.09,0,0,1-1-1.3A2.14,2.14,0,0,1,87.66,92.15Zm12.6,22.36a2.09,2.09,0,0,1-1.37.51,2.11,2.11,0,0,1-1.38-3.71,2.06,2.06,0,0,1,1.37-.52,2.11,2.11,0,0,1,1.61.75,2.07,2.07,0,0,1,.5,1.53A2,2,0,0,1,100.26,114.51Z"/><path d="M79.36,46l.21,0Z"/><path d="M101.3,33a6.06,6.06,0,0,0-2.7-3.85,6.19,6.19,0,0,0-3.27-.94,6.12,6.12,0,0,0-5,9.61,13.35,13.35,0,0,1-9.94,4.29,29.44,29.44,0,0,0-10-2.32v4A24.65,24.65,0,0,1,79.1,46h0a21.58,21.58,0,0,1,8.6,7c-.13.17-.26.35-.38.54A6.14,6.14,0,0,0,89.25,62a6,6,0,0,0,3.27,1,6.12,6.12,0,0,0,3.27-11.3,6.22,6.22,0,0,0-4.67-.75,26,26,0,0,0-5.34-5.57,16.38,16.38,0,0,0,7.78-5.1,6.17,6.17,0,0,0,1.77.27,6.09,6.09,0,0,0,5.17-2.85A6,6,0,0,0,101.3,33ZM90.73,55.67a2.15,2.15,0,0,1,.68-.66,2.17,2.17,0,0,1,1.12-.31,2.09,2.09,0,0,1,1.12.32,2.12,2.12,0,0,1-1.13,3.91,2.13,2.13,0,0,1-1.79-3.26Zm6.38-20.18a2.14,2.14,0,0,1-2.91.65l-.09-.06a2.1,2.1,0,0,1-.56-2.85,2.07,2.07,0,0,1,1.78-1,2.15,2.15,0,0,1,1.13.32,2.11,2.11,0,0,1,.93,1.33A2.08,2.08,0,0,1,97.11,35.49Z"/><path d="M110,74a6,6,0,0,0,2.11,2.65l.28.19a6.12,6.12,0,1,0,6.54-10.35,6.19,6.19,0,0,0-3.27-.94l-.37,0a25.82,25.82,0,0,1,0-11.27l.34,0a6.12,6.12,0,1,0-4.15-1.63l.08.06a28.64,28.64,0,0,0,0,14.42c-.14.13-.29.25-.43.4a6.58,6.58,0,0,0-.63.82,6,6,0,0,0-.71,1.58A15.16,15.16,0,0,0,103,72.72c-2,1.32-4,2.57-9.64,2.66A32.72,32.72,0,0,0,88,75.27c-1.43,0-2.91.1-4.85,0-1.33-.07-2.1-.88-3.46-2.42-1.8-2.06-4.22-4.65-9.37-5v4c3.3.3,4.8,1.89,6.36,3.67s3.18,3.62,6.26,3.78c2.11.12,3.76,0,5.2,0A24.15,24.15,0,0,1,96,80c2.61.64,12.1,9.67,14.77,14.32-.1.14-.22.28-.31.43a6.1,6.1,0,0,0,1.62,8.25l.28.2a6.13,6.13,0,1,0,1.73-11.1c-2.56-4.19-8.65-10.46-13.19-13.79a18.42,18.42,0,0,0,4.21-2.19A11.39,11.39,0,0,1,110,74Zm3.88-26.92a2.08,2.08,0,0,1,1.78-1,2.15,2.15,0,0,1,1.13.32,2.09,2.09,0,0,1,.93,1.33,2,2,0,0,1-.27,1.58,2.14,2.14,0,0,1-2.92.66l-.09-.06A2.11,2.11,0,0,1,113.88,47.09Zm0,23.46a2.08,2.08,0,0,1,1.78-1,2.15,2.15,0,0,1,1.13.32,2.11,2.11,0,0,1,.93,1.33,2.07,2.07,0,0,1-.27,1.59,2.15,2.15,0,0,1-2.92.65l-.09-.06A2.11,2.11,0,0,1,113.88,70.55Zm0,26.3a2.1,2.1,0,0,1,1.78-1,2.12,2.12,0,0,1,1.79,3.24,2.15,2.15,0,0,1-2.92.65l-.09-.06A2.1,2.1,0,0,1,113.88,96.85Z"/></g><path class="cls-8" d="M103.53,111.93a6.12,6.12,0,0,0-10.72,4.73A19.62,19.62,0,0,1,87.48,118a4,4,0,0,1-2.22-1,10.7,10.7,0,0,0-4.15-1.84,37.62,37.62,0,0,0,8.59-12.84,6.09,6.09,0,1,0-3.86-1.18c-4,9.22-9.22,13.08-12.57,14.69a2,2,0,0,0-.36.17,10.91,10.91,0,0,1-2.56.8v4a12.63,12.63,0,0,0,4.25-1.19c5.35-1.36,6.84-.35,8.41.71A7.94,7.94,0,0,0,87.27,122h.31a23.61,23.61,0,0,0,7-1.72A6.12,6.12,0,0,0,98.89,122h0a6.11,6.11,0,0,0,4.64-10.1ZM87.66,95.15a2.1,2.1,0,0,1,1.82-1,2,2,0,0,1,1.07.3,2.11,2.11,0,0,1-1.08,3.93,2.17,2.17,0,0,1-1.08-.3,2.09,2.09,0,0,1-1-1.3A2.14,2.14,0,0,1,87.66,95.15Zm12.6,22.36a2.09,2.09,0,0,1-1.37.51,2.11,2.11,0,0,1-1.38-3.71,2.06,2.06,0,0,1,1.37-.52,2.11,2.11,0,0,1,1.61.75,2.07,2.07,0,0,1,.5,1.53A2,2,0,0,1,100.26,117.51Z"/><path d="M79.36,48.43l.21,0Z"/><path class="cls-8" d="M101.3,36a6,6,0,0,0-2.7-3.84,6.12,6.12,0,0,0-8.3,8.66,13.27,13.27,0,0,1-9.94,4.29,29.17,29.17,0,0,0-10-2.31v4A24.91,24.91,0,0,1,79.1,49h0a21.67,21.67,0,0,1,8.6,7l-.38.54a6.13,6.13,0,1,0,8.45-1.91,6.22,6.22,0,0,0-4.67-.75,26,26,0,0,0-5.34-5.57,16.43,16.43,0,0,0,7.78-5.09,6.16,6.16,0,0,0,1.77.26,6.06,6.06,0,0,0,5.17-2.85A6,6,0,0,0,101.3,36ZM90.73,58.68a2,2,0,0,1,.68-.66,2.12,2.12,0,0,1,2.24,0,2.12,2.12,0,0,1-1.13,3.91,2.07,2.07,0,0,1-1.13-.33A2.13,2.13,0,0,1,90.73,58.68Zm6.38-20.19a2.14,2.14,0,0,1-2.91.65l-.09-.06a2.11,2.11,0,0,1,1.22-3.83,2.11,2.11,0,0,1,1.78,3.24Z"/><path class="cls-8" d="M110,77a6,6,0,0,0,2.11,2.65l.28.19a6.12,6.12,0,1,0,6.54-10.35,6.19,6.19,0,0,0-3.27-.94l-.37,0a25.82,25.82,0,0,1,0-11.27l.34,0a6.12,6.12,0,1,0-4.15-1.63l.08.06a28.64,28.64,0,0,0,0,14.42c-.14.13-.29.25-.43.4a6.58,6.58,0,0,0-.63.82,6,6,0,0,0-.71,1.58A15.16,15.16,0,0,0,103,75.72c-2,1.32-4,2.57-9.64,2.66A32.72,32.72,0,0,0,88,78.27c-1.43,0-2.91.1-4.85,0-1.33-.07-2.1-.88-3.46-2.42-1.8-2.06-4.22-4.65-9.37-5v4c3.3.3,4.8,1.89,6.36,3.67s3.18,3.62,6.26,3.78c2.11.12,3.76,0,5.2,0A24.15,24.15,0,0,1,96,83c2.61.64,12.1,9.67,14.77,14.32-.1.14-.22.28-.31.43a6.1,6.1,0,0,0,1.62,8.25l.28.2a6.13,6.13,0,1,0,1.73-11.1c-2.56-4.19-8.65-10.46-13.19-13.79a18.42,18.42,0,0,0,4.21-2.19A11.39,11.39,0,0,1,110,77Zm3.88-26.92a2.08,2.08,0,0,1,1.78-1,2.15,2.15,0,0,1,1.13.32,2.09,2.09,0,0,1,.93,1.33,2,2,0,0,1-.27,1.58,2.14,2.14,0,0,1-2.92.66l-.09-.06A2.11,2.11,0,0,1,113.88,50.09Zm0,23.46a2.08,2.08,0,0,1,1.78-1,2.15,2.15,0,0,1,1.13.32,2.11,2.11,0,0,1,.93,1.33,2.07,2.07,0,0,1-.27,1.59,2.15,2.15,0,0,1-2.92.65l-.09-.06A2.11,2.11,0,0,1,113.88,73.55Zm0,26.3a2.1,2.1,0,0,1,1.78-1,2.12,2.12,0,0,1,1.79,3.24,2.15,2.15,0,0,1-2.92.65l-.09-.06A2.1,2.1,0,0,1,113.88,99.85Z"/><path class="cls-5" d="M103.53,108.93a6.12,6.12,0,0,0-10.72,4.73A19.62,19.62,0,0,1,87.48,115a4,4,0,0,1-2.22-1,10.7,10.7,0,0,0-4.15-1.84A37.62,37.62,0,0,0,89.7,99.34a6.09,6.09,0,1,0-3.86-1.18c-4,9.22-9.22,13.08-12.57,14.69a2,2,0,0,0-.36.17,10.91,10.91,0,0,1-2.56.8v4a12.63,12.63,0,0,0,4.25-1.19c5.35-1.36,6.84-.35,8.41.71A7.94,7.94,0,0,0,87.27,119h.31a23.61,23.61,0,0,0,7-1.72A6.12,6.12,0,0,0,98.89,119h0a6.11,6.11,0,0,0,4.64-10.1ZM87.66,92.15a2.1,2.1,0,0,1,1.82-1,2,2,0,0,1,1.07.3,2.11,2.11,0,0,1-1.08,3.93,2.17,2.17,0,0,1-1.08-.3,2.09,2.09,0,0,1-1-1.3A2.14,2.14,0,0,1,87.66,92.15Zm12.6,22.36a2.09,2.09,0,0,1-1.37.51,2.11,2.11,0,0,1-1.38-3.71,2.06,2.06,0,0,1,1.37-.52,2.11,2.11,0,0,1,1.61.75,2.07,2.07,0,0,1,.5,1.53A2,2,0,0,1,100.26,114.51Z"/><path class="cls-5" d="M79.36,46l.21,0Z"/><path class="cls-5" d="M101.3,33a6.06,6.06,0,0,0-2.7-3.85,6.19,6.19,0,0,0-3.27-.94,6.12,6.12,0,0,0-5,9.61,13.35,13.35,0,0,1-9.94,4.29,29.44,29.44,0,0,0-10-2.32v4A24.65,24.65,0,0,1,79.1,46h0a21.58,21.58,0,0,1,8.6,7c-.13.17-.26.35-.38.54A6.14,6.14,0,0,0,89.25,62a6,6,0,0,0,3.27,1,6.12,6.12,0,0,0,3.27-11.3,6.22,6.22,0,0,0-4.67-.75,26,26,0,0,0-5.34-5.57,16.38,16.38,0,0,0,7.78-5.1,6.17,6.17,0,0,0,1.77.27,6.09,6.09,0,0,0,5.17-2.85A6,6,0,0,0,101.3,33ZM90.73,55.67a2.15,2.15,0,0,1,.68-.66,2.17,2.17,0,0,1,1.12-.31,2.09,2.09,0,0,1,1.12.32,2.12,2.12,0,0,1-1.13,3.91,2.13,2.13,0,0,1-1.79-3.26Zm6.38-20.18a2.14,2.14,0,0,1-2.91.65l-.09-.06a2.1,2.1,0,0,1-.56-2.85,2.07,2.07,0,0,1,1.78-1,2.15,2.15,0,0,1,1.13.32,2.11,2.11,0,0,1,.93,1.33A2.08,2.08,0,0,1,97.11,35.49Z"/><path class="cls-5" d="M110,74a6,6,0,0,0,2.11,2.65l.28.19a6.12,6.12,0,1,0,6.54-10.35,6.19,6.19,0,0,0-3.27-.94l-.37,0a25.82,25.82,0,0,1,0-11.27l.34,0a6.12,6.12,0,1,0-4.15-1.63l.08.06a28.64,28.64,0,0,0,0,14.42c-.14.13-.29.25-.43.4a6.58,6.58,0,0,0-.63.82,6,6,0,0,0-.71,1.58A15.16,15.16,0,0,0,103,72.72c-2,1.32-4,2.57-9.64,2.66A32.72,32.72,0,0,0,88,75.27c-1.43,0-2.91.1-4.85,0-1.33-.07-2.1-.88-3.46-2.42-1.8-2.06-4.22-4.65-9.37-5v4c3.3.3,4.8,1.89,6.36,3.67s3.18,3.62,6.26,3.78c2.11.12,3.76,0,5.2,0A24.15,24.15,0,0,1,96,80c2.61.64,12.1,9.67,14.77,14.32-.1.14-.22.28-.31.43a6.1,6.1,0,0,0,1.62,8.25l.28.2a6.13,6.13,0,1,0,1.73-11.1c-2.56-4.19-8.65-10.46-13.19-13.79a18.42,18.42,0,0,0,4.21-2.19A11.39,11.39,0,0,1,110,74Zm3.88-26.92a2.08,2.08,0,0,1,1.78-1,2.15,2.15,0,0,1,1.13.32,2.09,2.09,0,0,1,.93,1.33,2,2,0,0,1-.27,1.58,2.14,2.14,0,0,1-2.92.66l-.09-.06A2.11,2.11,0,0,1,113.88,47.09Zm0,23.46a2.08,2.08,0,0,1,1.78-1,2.15,2.15,0,0,1,1.13.32,2.11,2.11,0,0,1,.93,1.33,2.07,2.07,0,0,1-.27,1.59,2.15,2.15,0,0,1-2.92.65l-.09-.06A2.11,2.11,0,0,1,113.88,70.55Zm0,26.3a2.1,2.1,0,0,1,1.78-1,2.12,2.12,0,0,1,1.79,3.24,2.15,2.15,0,0,1-2.92.65l-.09-.06A2.1,2.1,0,0,1,113.88,96.85Z"/><path class="cls-3" d="M156,102.82V48.22h21.1q10.92,0,16.78,3.87a12.66,12.66,0,0,1,5.86,11.24,12.52,12.52,0,0,1-2.14,7.26,12.23,12.23,0,0,1-6.11,4.57,12.19,12.19,0,0,1,7,4.45,12.37,12.37,0,0,1,2.43,7.58q0,8.1-5.57,11.87t-16.22,3.76ZM169.57,71h8.34q8.21,0,8.2-5.74,0-3.3-2-4.68t-6.07-1.39h-8.48Zm0,9.23V91.9h9.56a10.32,10.32,0,0,0,6.09-1.55,4.81,4.81,0,0,0,2.16-4.1q0-5.88-7.17-6.07Z"/><path class="cls-3" d="M207.29,79.06A27.66,27.66,0,0,1,210,66.69a19.5,19.5,0,0,1,7.7-8.41,22.4,22.4,0,0,1,11.66-3q9.45,0,15.42,5.78t6.66,15.7l.09,3.19q0,10.74-6,17.23t-16.08,6.49q-10.09,0-16.11-6.47t-6-17.6Zm12.46.89q0,6.64,2.5,10.17a9,9,0,0,0,14.23,0Q239,86.68,239,79q0-6.53-2.55-10.11a8.27,8.27,0,0,0-7.16-3.58,8.15,8.15,0,0,0-7.07,3.56Q219.75,72.48,219.75,80Z"/><path class="cls-3" d="M257.22,79.06a27.67,27.67,0,0,1,2.68-12.37,19.5,19.5,0,0,1,7.7-8.41,22.35,22.35,0,0,1,11.66-3q9.45,0,15.42,5.78t6.66,15.7l.09,3.19q0,10.74-6,17.23t-16.08,6.49q-10.1,0-16.11-6.47t-6-17.6Zm12.47.89q0,6.64,2.5,10.17a9,9,0,0,0,14.23,0Q289,86.68,289,79q0-6.53-2.54-10.11a8.27,8.27,0,0,0-7.16-3.58,8.13,8.13,0,0,0-7.07,3.56Q269.68,72.48,269.69,80Z"/><path class="cls-3" d="M326.05,84.11l-4.49,4.48v14.23H309.1V36.59h12.46V73.28l2.42-3.1,11.94-14h15L334,75.61l18.32,27.21H338Z"/><path class="cls-2" d="M356.13,102.82V48.22h21.09q10.93,0,16.78,3.87a12.64,12.64,0,0,1,5.86,11.24,12.59,12.59,0,0,1-2.13,7.26,12.23,12.23,0,0,1-6.11,4.57,12.19,12.19,0,0,1,7,4.45,12.37,12.37,0,0,1,2.43,7.58q0,8.1-5.58,11.87t-16.21,3.76ZM369.72,71h8.35q8.21,0,8.2-5.74,0-3.3-2-4.68t-6.07-1.39h-8.49Zm0,9.23V91.9h9.57a10.34,10.34,0,0,0,6.09-1.55,4.81,4.81,0,0,0,2.16-4.1q0-5.88-7.17-6.07Z"/><path class="cls-2" d="M435.6,67.85a33.84,33.84,0,0,0-4.48-.35q-7.08,0-9.27,4.79v30.53H409.39V56.16h11.77l.34,5.57q3.75-6.43,10.4-6.43a13.19,13.19,0,0,1,3.88.56Z"/><path class="cls-2" d="M467.34,102.82a14,14,0,0,1-1.25-4.18,15.09,15.09,0,0,1-11.77,5,16.58,16.58,0,0,1-11.36-4,12.76,12.76,0,0,1-4.51-10q0-7.41,5.5-11.38t15.89-4h5.74V71.64a7.72,7.72,0,0,0-1.66-5.17q-1.67-1.93-5.24-1.94A7.4,7.4,0,0,0,453.74,66,5.12,5.12,0,0,0,452,70.18H439.49a12.55,12.55,0,0,1,2.5-7.51,16.55,16.55,0,0,1,7.07-5.41,25.92,25.92,0,0,1,10.26-2q8.63,0,13.69,4.33t5.07,12.19V92q0,6.64,1.86,10v.73ZM457,94.16a10.75,10.75,0,0,0,5.09-1.23,8.11,8.11,0,0,0,3.45-3.3v-8h-4.66q-9.36,0-10,6.47l0,.73a5,5,0,0,0,1.64,3.84A6.4,6.4,0,0,0,457,94.16Z"/><path class="cls-2" d="M487.57,44.09a6.15,6.15,0,0,1,1.87-4.62,8.09,8.09,0,0,1,10.2,0,6.59,6.59,0,0,1,0,9.28,8,8,0,0,1-10.13,0A6.12,6.12,0,0,1,487.57,44.09Zm13.24,58.73H488.3V56.16h12.51Z"/><path class="cls-2" d="M522.54,56.16l.39,5.39a16.31,16.31,0,0,1,13.41-6.25q7.42,0,11,4.36t3.71,13v30.14H538.63V72.91q0-4-1.73-5.77t-5.73-1.79a8.59,8.59,0,0,0-7.9,4.49v33H510.81V56.16Z"/><path class="cls-2" d="M574.85,92.78h22.81v10H558.94V95.23l21.95-29H559.58v-10H597v7.35Z"/></g></g></svg>