<svg id="Layer_1" data-name="Layer 1" xmlns="http://www.w3.org/2000/svg" viewBox="0 0 460.71 100"><defs><style>.cls-1{fill:#754e37;}.cls-2{fill:#eb743b;}.cls-3{fill:#fffedb;}.cls-4{fill:#cfa691;}</style></defs><path class="cls-1" d="M103.72,71.82V28h16.92q8.76,0,13.46,3.11a10.15,10.15,0,0,1,4.7,9A10.07,10.07,0,0,1,137.09,46a9.83,9.83,0,0,1-4.91,3.67,9.7,9.7,0,0,1,5.64,3.56,9.9,9.9,0,0,1,2,6.09c0,4.32-1.49,7.5-4.48,9.51s-7.32,3-13,3Zm10.91-25.56h6.69c4.38,0,6.58-1.54,6.58-4.61a4.25,4.25,0,0,0-1.6-3.75,8.53,8.53,0,0,0-4.87-1.12h-6.8Zm0,7.4v9.4h7.67a8.24,8.24,0,0,0,4.88-1.24,3.86,3.86,0,0,0,1.73-3.29c0-3.14-1.91-4.77-5.75-4.87Z"/><path class="cls-1" d="M144.88,52.76A22.15,22.15,0,0,1,147,42.84a15.65,15.65,0,0,1,6.17-6.75,18,18,0,0,1,9.36-2.38,17,17,0,0,1,12.36,4.63q4.8,4.63,5.35,12.59l.07,2.56q0,8.61-4.81,13.82t-12.9,5.2q-8.1,0-12.92-5.18t-4.83-14.12Zm10,.71q0,5.34,2,8.16a7.21,7.21,0,0,0,11.42,0c1.36-1.86,2-4.84,2-8.92q0-5.23-2-8.11a6.64,6.64,0,0,0-5.74-2.88,6.55,6.55,0,0,0-5.68,2.86Q154.89,47.49,154.88,53.47Z"/><path class="cls-1" d="M184.94,52.76a22.15,22.15,0,0,1,2.14-9.92,15.71,15.71,0,0,1,6.17-6.75,18,18,0,0,1,9.36-2.38A17.06,17.06,0,0,1,215,38.34q4.78,4.63,5.34,12.59l.07,2.56q0,8.61-4.81,13.82t-12.9,5.2q-8.1,0-12.92-5.18t-4.82-14.12Zm10,.71q0,5.34,2,8.16a7.2,7.2,0,0,0,11.41,0c1.36-1.86,2-4.84,2-8.92q0-5.23-2-8.11a6.62,6.62,0,0,0-5.74-2.88,6.53,6.53,0,0,0-5.67,2.86Q194.93,47.49,194.93,53.47Z"/><path class="cls-1" d="M240.14,56.81l-3.6,3.6V71.82h-10V18.69h10V48.13l1.94-2.49,9.58-11.24h12L246.54,50l14.7,21.82H249.76Z"/><path class="cls-2" d="M264.27,71.82V28h16.92q8.76,0,13.46,3.11a10.15,10.15,0,0,1,4.7,9A10.07,10.07,0,0,1,297.64,46a9.83,9.83,0,0,1-4.91,3.67,9.7,9.7,0,0,1,5.64,3.56,10,10,0,0,1,2,6.09c0,4.32-1.5,7.5-4.48,9.51s-7.32,3-13,3Zm10.9-25.56h6.7c4.38,0,6.58-1.54,6.58-4.61a4.25,4.25,0,0,0-1.6-3.75A8.53,8.53,0,0,0,282,36.78h-6.81Zm0,7.4v9.4h7.67a8.26,8.26,0,0,0,4.89-1.24,3.88,3.88,0,0,0,1.73-3.29c0-3.14-1.92-4.77-5.75-4.87Z"/><path class="cls-2" d="M328,43.77a28.13,28.13,0,0,0-3.6-.28q-5.67,0-7.44,3.84V71.82H307V34.4h9.44l.27,4.46q3-5.16,8.34-5.15a10.39,10.39,0,0,1,3.11.45Z"/><path class="cls-2" d="M353.47,71.82a11.16,11.16,0,0,1-1-3.35,12.08,12.08,0,0,1-9.44,4,13.25,13.25,0,0,1-9.12-3.18,10.22,10.22,0,0,1-3.61-8,10.57,10.57,0,0,1,4.41-9.13Q339.12,49,347.46,49h4.6V46.82a6.19,6.19,0,0,0-1.34-4.16,5.25,5.25,0,0,0-4.2-1.55,6,6,0,0,0-4,1.21,4.1,4.1,0,0,0-1.43,3.32h-10a10,10,0,0,1,2-6,13.21,13.21,0,0,1,5.67-4.34A20.65,20.65,0,0,1,347,33.71q6.91,0,11,3.47T362.09,47V63.18c0,3.55.51,6.23,1.48,8.06v.58Zm-8.26-6.95a8.6,8.6,0,0,0,4.08-1,6.44,6.44,0,0,0,2.77-2.64V54.81h-3.74q-7.5,0-8,5.18l0,.59a4,4,0,0,0,1.31,3.08A5.09,5.09,0,0,0,345.21,64.87Z"/><path class="cls-2" d="M369.7,24.71a4.93,4.93,0,0,1,1.5-3.7,6.49,6.49,0,0,1,8.18,0,4.91,4.91,0,0,1,1.52,3.7,4.91,4.91,0,0,1-1.54,3.74,6.42,6.42,0,0,1-8.13,0A4.94,4.94,0,0,1,369.7,24.71Zm10.61,47.11h-10V34.4h10Z"/><path class="cls-2" d="M397.75,34.4l.31,4.32a13.07,13.07,0,0,1,10.76-5q5.94,0,8.85,3.49t3,10.45V71.82h-10v-24c0-2.12-.46-3.67-1.38-4.63s-2.46-1.44-4.6-1.44a6.87,6.87,0,0,0-6.33,3.61V71.82h-10V34.4Z"/><path class="cls-2" d="M439.7,63.76H458v8.06H426.94V65.74l17.61-23.28H427.46V34.4h30v5.89Z"/><polygon class="cls-2" points="47 2 47 98 88 74 88 26 47 2"/><polygon class="cls-1" points="44 2 3 26 3 74 44 98 44 2"/><path class="cls-3" d="M79.28,58.09a6.75,6.75,0,0,0-7.67-2.86A18.09,18.09,0,0,0,63,49.6a28.62,28.62,0,0,0,5.91-6.16,6.91,6.91,0,0,0,5.17-.83,6.77,6.77,0,1,0-9.34-2.11,6.27,6.27,0,0,0,.42.59,23.88,23.88,0,0,1-9.52,7.79h0A18.45,18.45,0,0,1,47,51v5c4,0,5.93-1.12,10-2.9a14.78,14.78,0,0,1,11,4.75,6.76,6.76,0,1,0,12.16,5.32A6.64,6.64,0,0,0,79.28,58.09ZM69.06,34.67a2.57,2.57,0,0,1,1.4-.41,2.62,2.62,0,1,1,0,5.24,2.61,2.61,0,0,1-2.22-1.21A2.63,2.63,0,0,1,69.06,34.67Zm7.06,27.6A2.61,2.61,0,0,1,75,63.91a2.56,2.56,0,0,1-1.39.41,2.62,2.62,0,0,1-1.52-4.75l.12-.07a2.65,2.65,0,0,1,3.6.8A2.59,2.59,0,0,1,76.12,62.27Z"/><path class="cls-3" d="M44,81.73H39.32a1.07,1.07,0,0,1-1.07-1.07c0-1.54,0-3.28-5.58-4-5.82-.78-21-3.3-21.19-3.33a1.06,1.06,0,0,1-.9-1V30.92a1.09,1.09,0,0,1,.36-.8,1.06,1.06,0,0,1,.83-.26l4.81.54a1.07,1.07,0,1,1-.23,2.12l-3.63-.4V71.34c3.36.55,15.27,2.5,20.24,3.17,5.65.76,7.09,2.81,7.37,5.08H44Z"/><path class="cls-4" d="M41.6,36.48c0-6.28-11.68-15-25.13-11.88V65.92c13.81-.57,25.13,4.45,25.13,10.79Z"/><path class="cls-3" d="M24.1,34.94a1,1,0,0,0-1.05,1,.94.94,0,0,0,1,1.09C33.74,37,41.6,45.3,41.6,47.86v-2.8c0-2.69-7.34-10.12-17.46-10.12Z"/><path class="cls-3" d="M24.1,42.22a1.06,1.06,0,0,0-1.05,1,.94.94,0,0,0,1,1.09c9.68,0,17.54,8.26,17.54,10.83v-2.8c0-2.69-7.34-10.13-17.46-10.13Z"/><path class="cls-3" d="M24.1,49.51a1,1,0,0,0-1.05,1,.94.94,0,0,0,1,1.09c9.68,0,17.54,8.25,17.54,10.82v-2.8c0-2.69-7.34-10.12-17.46-10.12Z"/></svg>