<?xml version="1.0" encoding="utf-8"?>
<!-- Generator: Adobe Illustrator 16.0.0, SVG Export Plug-In . SVG Version: 6.00 Build 0)  -->
<!DOCTYPE svg PUBLIC "-//W3C//DTD SVG 1.1//EN" "http://www.w3.org/Graphics/SVG/1.1/DTD/svg11.dtd">
<svg version="1.1" id="Layer_1" xmlns="http://www.w3.org/2000/svg" xmlns:xlink="http://www.w3.org/1999/xlink" x="0px" y="0px"
	 width="410px" height="244px" viewBox="0 0 410 244" enable-background="new 0 0 410 244" xml:space="preserve">
<g>
	<polygon fill="#EB743B" points="207.499,7.823 207.499,151.823 268.499,116.823 268.499,42.823 	"/>
	<polygon fill="#754E37" points="202.499,7.823 141.499,42.823 141.499,116.823 202.499,151.823 	"/>
	<g>
		<path fill="#573A29" d="M202.499,130.112h-7c-0.884,0-1.6-0.716-1.6-1.6c0-2.306,0-4.92-8.347-6.037
			c-8.708-1.164-31.48-4.937-31.708-4.975c-0.773-0.128-1.339-0.796-1.339-1.579V54.094c0-0.455,0.193-0.888,0.532-1.192
			c0.339-0.303,0.794-0.453,1.244-0.398l7.2,0.801c0.878,0.098,1.511,0.889,1.413,1.767c-0.097,0.878-0.885,1.514-1.767,1.413
			l-5.424-0.603v58.683c5.025,0.828,22.834,3.744,30.271,4.738c8.465,1.134,10.609,4.203,11.034,7.609h5.488V130.112z"/>
		<path fill="#573A29" d="M198.905,62.403c0-9.393-17.466-22.424-37.6-17.773v61.826c20.667-0.861,37.6,6.65,37.6,16.148V62.403z"/>
		<path fill="#573A29" d="M172.723,60.106c-0.84,0-1.536,0.664-1.567,1.51c-0.033,0.865,0.363,1.629,1.509,1.629
			c14.479,0,26.242,12.355,26.242,16.195v-4.188c0-4.026-10.985-15.146-26.123-15.146H172.723z"/>
		<path fill="#573A29" d="M172.723,71.003c-0.84,0-1.536,0.664-1.567,1.51c-0.033,0.865,0.363,1.63,1.509,1.63
			c14.479,0,26.242,12.354,26.242,16.194v-4.189c0-4.025-10.985-15.145-26.123-15.145H172.723z"/>
		<path fill="#573A29" d="M172.723,81.899c-0.84,0-1.536,0.664-1.567,1.51c-0.033,0.865,0.363,1.629,1.509,1.629
			c14.479,0,26.242,12.355,26.242,16.195v-4.189c0-4.025-10.985-15.145-26.123-15.145H172.723z"/>
		<path fill="#FFFEDB" d="M202.499,127.112h-7c-0.884,0-1.6-0.716-1.6-1.6c0-2.306,0-4.92-8.347-6.037
			c-8.708-1.164-31.48-4.937-31.708-4.975c-0.773-0.128-1.339-0.796-1.339-1.579V51.094c0-0.455,0.193-0.888,0.532-1.192
			c0.339-0.303,0.794-0.453,1.244-0.398l7.2,0.801c0.878,0.098,1.511,0.889,1.413,1.767c-0.097,0.878-0.885,1.514-1.767,1.413
			l-5.424-0.603v58.683c5.025,0.828,22.834,3.744,30.271,4.738c8.465,1.134,10.609,4.203,11.034,7.609h5.488V127.112z"/>
		<path fill="#CFA691" d="M198.905,59.403c0-9.393-17.466-22.424-37.6-17.773v61.826c20.667-0.861,37.6,6.65,37.6,16.148V59.403z"/>
		<path fill="#FFFEDB" d="M172.723,57.106c-0.84,0-1.536,0.664-1.567,1.51c-0.033,0.865,0.363,1.629,1.509,1.629
			c14.479,0,26.242,12.355,26.242,16.195v-4.188c0-4.026-10.985-15.146-26.123-15.146H172.723z"/>
		<path fill="#FFFEDB" d="M172.723,68.003c-0.84,0-1.536,0.664-1.567,1.51c-0.033,0.865,0.363,1.63,1.509,1.63
			c14.479,0,26.242,12.354,26.242,16.194v-4.189c0-4.025-10.985-15.145-26.123-15.145H172.723z"/>
		<path fill="#FFFEDB" d="M172.723,78.899c-0.84,0-1.536,0.664-1.567,1.51c-0.033,0.865,0.363,1.629,1.509,1.629
			c14.479,0,26.242,12.355,26.242,16.195v-4.189c0-4.025-10.985-15.145-26.123-15.145H172.723z"/>
		<g>
			<defs>
				<rect id="SVGID_1_" x="207.499" y="33.239" width="51.433" height="90.792"/>
			</defs>
			<clipPath id="SVGID_2_">
				<use xlink:href="#SVGID_1_"  overflow="visible"/>
			</clipPath>
			<path clip-path="url(#SVGID_2_)" d="M224.802,99.557c0.385-0.645,1.065-1.03,1.818-1.03c0.379,0,0.753,0.104,1.078,0.297
				c1,0.601,1.331,1.899,0.735,2.898c-0.385,0.646-1.064,1.032-1.817,1.032c-0.379,0-0.755-0.105-1.084-0.301
				c-0.483-0.288-0.825-0.748-0.964-1.294C224.43,100.61,224.513,100.042,224.802,99.557 M237.403,121.919
				c-0.49,0.421-1.018,0.509-1.373,0.509c-0.621,0-1.207-0.269-1.607-0.734c-0.758-0.885-0.655-2.222,0.23-2.981
				c0.492-0.423,1.019-0.512,1.373-0.512c0.617,0,1.201,0.269,1.606,0.739c0.368,0.431,0.546,0.977,0.503,1.539
				S237.835,121.551,237.403,121.919"/>
			<path clip-path="url(#SVGID_2_)" d="M216.5,53.434c0.07,0.019,0.143,0.034,0.212,0.046
				C216.641,53.468,216.569,53.453,216.5,53.434"/>
			<path clip-path="url(#SVGID_2_)" d="M227.879,63.08c0.169-0.266,0.396-0.49,0.673-0.661c0.335-0.207,0.723-0.316,1.121-0.316
				c0.4,0,0.79,0.112,1.122,0.321c0.987,0.627,1.283,1.936,0.66,2.918c-0.391,0.619-1.063,0.988-1.795,0.988
				c-0.397,0-0.785-0.113-1.124-0.326C227.552,65.379,227.258,64.067,227.879,63.08 M234.258,42.893
				c-0.6,0.951-1.937,1.271-2.912,0.653l-0.096-0.062c-0.914-0.648-1.161-1.898-0.557-2.851c0.385-0.613,1.052-0.98,1.784-0.98
				c0.396,0,0.786,0.113,1.123,0.326c0.479,0.304,0.812,0.775,0.937,1.33C234.659,41.854,234.563,42.415,234.258,42.893"/>
			<path clip-path="url(#SVGID_2_)" d="M251.024,54.491c0.389-0.614,1.055-0.98,1.783-0.98c0.4,0,0.79,0.113,1.125,0.325
				c0.481,0.304,0.813,0.775,0.938,1.33c0.121,0.546,0.023,1.107-0.28,1.584c-0.598,0.951-1.938,1.273-2.912,0.653l-0.093-0.062
				C250.668,56.694,250.423,55.444,251.024,54.491 M251.024,77.953c0.389-0.613,1.055-0.979,1.783-0.979
				c0.4,0,0.79,0.112,1.125,0.326c0.481,0.304,0.813,0.774,0.938,1.329c0.121,0.546,0.023,1.107-0.28,1.585
				c-0.598,0.95-1.938,1.271-2.912,0.651l-0.093-0.062C250.668,80.156,250.423,78.906,251.024,77.953 M251.024,104.257
				c0.389-0.613,1.055-0.98,1.783-0.98c0.4,0,0.79,0.113,1.125,0.326c0.481,0.304,0.813,0.775,0.938,1.33
				c0.121,0.547,0.023,1.106-0.28,1.584c-0.598,0.951-1.938,1.271-2.912,0.653l-0.093-0.062
				C250.668,106.46,250.423,105.211,251.024,104.257"/>
			<path clip-path="url(#SVGID_2_)" d="M240.675,113.927c-1.165-1.36-2.858-2.139-4.648-2.139c-1.459,0-2.875,0.525-3.982,1.477
				c-1.613,1.383-2.326,3.429-2.087,5.396c-1.949,0.701-4.259,1.366-5.328,1.332c-0.822-0.043-1.303-0.345-2.225-0.971
				c-1.172-0.795-2.418-1.512-4.148-1.847c2.936-2.761,6.009-6.83,8.584-12.834c2.061-0.076,3.976-1.193,5.039-2.972
				c1.724-2.896,0.772-6.659-2.124-8.394c-0.95-0.565-2.033-0.864-3.135-0.864c-2.146,0-4.16,1.144-5.261,2.986
				c-0.838,1.405-1.079,3.05-0.678,4.636c0.351,1.393,1.161,2.59,2.302,3.429c-4.053,9.218-9.219,13.08-12.564,14.685
				c-0.128,0.045-0.248,0.101-0.361,0.168c-1.187,0.531-2.05,0.704-2.558,0.808v4c0.274-0.03,1.884-0.118,4.246-1.192
				c5.348-1.357,6.84-0.354,8.407,0.709c1.021,0.692,2.291,1.554,4.264,1.655c0.099,0.006,0.203,0.009,0.308,0.009
				c2.11,0,5.172-1.022,7.021-1.723c1.144,1.116,2.677,1.75,4.285,1.75c1.461,0,2.876-0.524,3.983-1.476
				c1.241-1.062,1.994-2.546,2.119-4.176C242.258,116.748,241.739,115.165,240.675,113.927 M224.802,97.151
				c0.385-0.645,1.065-1.031,1.818-1.031c0.379,0,0.753,0.104,1.078,0.298c1,0.601,1.331,1.899,0.735,2.898
				c-0.385,0.646-1.064,1.032-1.817,1.032c-0.379,0-0.755-0.105-1.084-0.301c-0.483-0.288-0.825-0.748-0.964-1.294
				C224.43,98.205,224.513,97.637,224.802,97.151 M237.403,119.514c-0.49,0.421-1.018,0.509-1.373,0.509
				c-0.621,0-1.207-0.269-1.607-0.734c-0.758-0.885-0.655-2.222,0.23-2.981c0.492-0.423,1.019-0.512,1.373-0.512
				c0.617,0,1.201,0.269,1.606,0.739c0.368,0.431,0.546,0.977,0.503,1.539S237.835,119.146,237.403,119.514"/>
			<path clip-path="url(#SVGID_2_)" d="M216.5,51.028c0.07,0.019,0.143,0.034,0.212,0.046
				C216.641,51.062,216.569,51.047,216.5,51.028"/>
			<path clip-path="url(#SVGID_2_)" d="M238.449,38.027c-0.357-1.599-1.317-2.964-2.708-3.844c-0.98-0.617-2.109-0.944-3.264-0.944
				c-2.117,0-4.054,1.066-5.175,2.85c-1.354,2.137-1.218,4.798,0.145,6.758c-3.646,4.124-8.707,4.314-9.943,4.293
				c-3.691-1.604-7.233-2.164-10.005-2.317v3.996c2.442,0.144,5.553,0.686,8.748,2.136c0.005,0.002,0.01,0.002,0.015,0.005
				c3.445,1.562,6.334,3.927,8.607,7.041c-0.135,0.173-0.264,0.351-0.381,0.538c-1.796,2.854-0.943,6.643,1.902,8.444
				c0.98,0.622,2.111,0.95,3.27,0.95c2.114,0,4.051-1.064,5.183-2.85c1.807-2.851,0.951-6.642-1.907-8.453
				c-1.385-0.872-3.093-1.114-4.668-0.755c-1.537-2.155-3.322-4.017-5.345-5.567c2.518-0.778,5.401-2.268,7.78-5.095
				c0.573,0.171,1.166,0.266,1.77,0.266c2.116,0,4.052-1.068,5.173-2.848C238.521,41.256,238.806,39.622,238.449,38.027
				 M227.879,60.674c0.169-0.266,0.396-0.49,0.673-0.661c0.335-0.207,0.723-0.316,1.121-0.316c0.4,0,0.79,0.112,1.122,0.321
				c0.987,0.627,1.283,1.936,0.66,2.919c-0.391,0.618-1.063,0.988-1.795,0.988c-0.397,0-0.785-0.113-1.124-0.327
				C227.552,62.974,227.258,61.662,227.879,60.674 M234.258,40.487c-0.6,0.951-1.937,1.271-2.912,0.653l-0.096-0.062
				c-0.914-0.648-1.161-1.898-0.557-2.851c0.385-0.613,1.052-0.98,1.784-0.98c0.396,0,0.786,0.113,1.123,0.326
				c0.479,0.304,0.812,0.775,0.937,1.33C234.659,39.449,234.563,40.009,234.258,40.487"/>
			<path clip-path="url(#SVGID_2_)" d="M247.145,79.011c0.425,1.034,1.136,1.962,2.11,2.649c0.072,0.052,0.15,0.105,0.283,0.191
				c0.98,0.621,2.109,0.949,3.267,0.949c2.116,0,4.052-1.068,5.173-2.848c0.875-1.375,1.16-3.011,0.805-4.605
				c-0.358-1.598-1.318-2.965-2.709-3.844c-0.98-0.617-2.109-0.944-3.266-0.944c-0.125,0-0.25,0.008-0.375,0.019
				c-0.71-3.158-0.919-7.77,0.035-11.266c0.113,0.011,0.225,0.024,0.337,0.024c2.116,0,4.052-1.067,5.173-2.848
				c0.875-1.375,1.16-3.009,0.805-4.604c-0.358-1.598-1.318-2.964-2.709-3.844c-0.98-0.617-2.109-0.944-3.266-0.944
				c-2.114,0-4.051,1.066-5.173,2.85c-1.604,2.532-1.12,5.803,1.024,7.764c0.021,0.02,0.049,0.037,0.071,0.059
				c-1.349,4.518-1.145,10.324-0.036,14.417c-0.144,0.132-0.294,0.254-0.426,0.399c-0.228,0.254-0.445,0.526-0.634,0.824
				c-0.318,0.502-0.55,1.033-0.71,1.578c-3.371,0.488-5.198,1.672-6.824,2.729c-2.035,1.324-3.961,2.572-9.636,2.666
				c-1.963-0.23-3.552-0.178-5.29-0.116c-1.43,0.052-2.91,0.106-4.848,0.003c-1.336-0.07-2.104-0.882-3.458-2.424
				c-1.804-2.055-4.22-4.648-9.369-5.021v4c3.295,0.299,4.796,1.887,6.355,3.666c1.487,1.694,3.175,3.615,6.256,3.782
				c2.118,0.114,3.761,0.052,5.208,0.001c2.491-0.092,4.453-0.161,7.855,0.683c2.607,0.644,12.099,9.674,14.773,14.323
				c-0.108,0.142-0.219,0.282-0.313,0.434c-1.743,2.755-1.026,6.385,1.62,8.251c0.072,0.052,0.15,0.104,0.283,0.191
				c0.98,0.621,2.109,0.948,3.267,0.948c2.116,0,4.052-1.068,5.173-2.849c0.875-1.374,1.16-3.009,0.805-4.603
				c-0.358-1.6-1.318-2.965-2.709-3.845c-0.98-0.617-2.109-0.944-3.266-0.944c-0.528,0-1.047,0.067-1.543,0.195
				c-2.56-4.188-8.652-10.455-13.189-13.792c1.813-0.628,3.051-1.436,4.213-2.188C243.715,80.148,244.901,79.388,247.145,79.011
				 M251.024,52.085c0.389-0.614,1.055-0.98,1.783-0.98c0.4,0,0.79,0.113,1.125,0.325c0.481,0.304,0.813,0.775,0.938,1.33
				c0.121,0.546,0.023,1.107-0.28,1.584c-0.598,0.951-1.938,1.273-2.912,0.653l-0.093-0.062
				C250.668,54.289,250.423,53.039,251.024,52.085 M251.024,75.549c0.389-0.614,1.055-0.98,1.783-0.98c0.4,0,0.79,0.112,1.125,0.326
				c0.481,0.305,0.813,0.773,0.938,1.329c0.121,0.546,0.023,1.106-0.28,1.585c-0.598,0.949-1.938,1.271-2.912,0.652l-0.093-0.062
				C250.668,77.752,250.423,76.502,251.024,75.549 M251.024,101.852c0.389-0.613,1.055-0.98,1.783-0.98
				c0.4,0,0.79,0.113,1.125,0.326c0.481,0.304,0.813,0.775,0.938,1.33c0.121,0.547,0.023,1.106-0.28,1.584
				c-0.598,0.951-1.938,1.271-2.912,0.653l-0.093-0.062C250.668,104.055,250.423,102.806,251.024,101.852"/>
		</g>
		<path fill="#D3562C" d="M240.675,116.927c-1.165-1.36-2.858-2.139-4.648-2.139c-1.459,0-2.875,0.525-3.982,1.477
			c-1.613,1.383-2.326,3.429-2.087,5.396c-1.949,0.701-4.259,1.366-5.328,1.332c-0.822-0.043-1.303-0.345-2.225-0.971
			c-1.172-0.795-2.418-1.512-4.148-1.847c2.936-2.761,6.009-6.83,8.584-12.834c2.061-0.076,3.976-1.193,5.039-2.972
			c1.724-2.896,0.772-6.659-2.124-8.394c-0.95-0.565-2.033-0.864-3.135-0.864c-2.146,0-4.16,1.144-5.261,2.986
			c-0.838,1.405-1.079,3.05-0.678,4.636c0.351,1.393,1.161,2.59,2.302,3.429c-4.053,9.218-9.219,13.08-12.564,14.685
			c-0.128,0.045-0.248,0.101-0.361,0.168c-1.187,0.531-2.05,0.704-2.558,0.808v4c0.274-0.03,1.884-0.118,4.246-1.192
			c5.348-1.357,6.84-0.354,8.407,0.709c1.021,0.692,2.291,1.554,4.264,1.655c0.099,0.006,0.203,0.009,0.308,0.009
			c2.11,0,5.172-1.022,7.021-1.723c1.144,1.116,2.677,1.75,4.285,1.75c1.461,0,2.876-0.524,3.983-1.476
			c1.241-1.062,1.994-2.546,2.119-4.176C242.258,119.748,241.739,118.165,240.675,116.927 M224.802,100.151
			c0.385-0.645,1.065-1.031,1.818-1.031c0.379,0,0.753,0.104,1.078,0.298c1,0.601,1.331,1.899,0.735,2.898
			c-0.385,0.646-1.064,1.032-1.817,1.032c-0.379,0-0.755-0.105-1.084-0.301c-0.483-0.288-0.825-0.748-0.964-1.294
			C224.43,101.205,224.513,100.637,224.802,100.151 M237.403,122.514c-0.49,0.421-1.018,0.509-1.373,0.509
			c-0.621,0-1.207-0.269-1.607-0.734c-0.758-0.885-0.655-2.222,0.23-2.981c0.492-0.423,1.019-0.512,1.373-0.512
			c0.617,0,1.201,0.269,1.606,0.739c0.368,0.431,0.546,0.977,0.503,1.539S237.835,122.146,237.403,122.514"/>
		<path d="M216.5,53.434c0.07,0.019,0.143,0.034,0.212,0.046C216.641,53.468,216.569,53.453,216.5,53.434"/>
		<path fill="#D3562C" d="M238.449,41.031c-0.357-1.599-1.317-2.964-2.708-3.844c-0.98-0.617-2.109-0.944-3.264-0.944
			c-2.117,0-4.054,1.066-5.175,2.85c-1.354,2.137-1.218,4.798,0.145,6.758c-3.646,4.124-8.707,4.314-9.943,4.293
			c-3.691-1.604-7.233-2.164-10.005-2.317v3.996c2.442,0.144,5.553,0.686,8.748,2.136c0.005,0.002,0.01,0.002,0.015,0.005
			c3.445,1.562,6.334,3.927,8.607,7.041c-0.135,0.172-0.264,0.351-0.381,0.538c-1.796,2.854-0.943,6.643,1.902,8.444
			c0.98,0.622,2.111,0.95,3.27,0.95c2.114,0,4.051-1.064,5.183-2.85c1.807-2.852,0.951-6.643-1.907-8.454
			c-1.385-0.872-3.093-1.114-4.668-0.755c-1.537-2.155-3.322-4.017-5.345-5.567c2.518-0.778,5.401-2.268,7.78-5.095
			c0.573,0.171,1.166,0.266,1.77,0.266c2.116,0,4.052-1.068,5.173-2.849C238.521,44.259,238.806,42.626,238.449,41.031
			 M227.879,63.678c0.169-0.266,0.396-0.49,0.673-0.661c0.335-0.207,0.723-0.316,1.121-0.316c0.4,0,0.79,0.112,1.122,0.321
			c0.987,0.627,1.283,1.936,0.66,2.919c-0.391,0.617-1.063,0.988-1.795,0.988c-0.397,0-0.785-0.113-1.124-0.328
			C227.552,65.979,227.258,64.666,227.879,63.678 M234.258,43.491c-0.6,0.951-1.937,1.271-2.912,0.653l-0.096-0.062
			c-0.914-0.648-1.161-1.898-0.557-2.851c0.385-0.613,1.052-0.98,1.784-0.98c0.396,0,0.786,0.113,1.123,0.326
			c0.479,0.304,0.812,0.775,0.937,1.33C234.659,42.453,234.563,43.013,234.258,43.491"/>
		<path fill="#D3562C" d="M247.145,82.011c0.425,1.035,1.136,1.962,2.11,2.649c0.072,0.052,0.15,0.105,0.283,0.191
			c0.98,0.621,2.109,0.949,3.267,0.949c2.116,0,4.052-1.068,5.173-2.849c0.875-1.375,1.16-3.01,0.805-4.604
			c-0.358-1.598-1.318-2.965-2.709-3.844c-0.98-0.617-2.109-0.944-3.266-0.944c-0.125,0-0.25,0.008-0.375,0.019
			c-0.71-3.158-0.919-7.77,0.035-11.266c0.113,0.011,0.225,0.024,0.337,0.024c2.116,0,4.052-1.067,5.173-2.848
			c0.875-1.375,1.16-3.009,0.805-4.604c-0.358-1.598-1.318-2.964-2.709-3.844c-0.98-0.617-2.109-0.944-3.266-0.944
			c-2.114,0-4.051,1.066-5.173,2.85c-1.604,2.532-1.12,5.803,1.024,7.764c0.021,0.02,0.049,0.037,0.071,0.059
			c-1.349,4.518-1.145,10.324-0.036,14.417c-0.144,0.132-0.294,0.254-0.426,0.399c-0.228,0.254-0.445,0.526-0.634,0.824
			c-0.318,0.502-0.55,1.033-0.71,1.578c-3.371,0.488-5.198,1.672-6.824,2.729c-2.035,1.324-3.961,2.572-9.636,2.666
			c-1.963-0.23-3.552-0.178-5.29-0.116c-1.43,0.052-2.91,0.105-4.848,0.003c-1.336-0.071-2.104-0.882-3.458-2.424
			c-1.804-2.055-4.22-4.648-9.369-5.021v4c3.295,0.299,4.796,1.887,6.355,3.666c1.487,1.694,3.175,3.615,6.256,3.782
			c2.118,0.114,3.761,0.052,5.208,0.001c2.491-0.092,4.453-0.161,7.855,0.683c2.607,0.644,12.099,9.674,14.773,14.323
			c-0.108,0.142-0.219,0.282-0.313,0.434c-1.743,2.755-1.026,6.385,1.62,8.251c0.072,0.052,0.15,0.104,0.283,0.191
			c0.98,0.621,2.109,0.948,3.267,0.948c2.116,0,4.052-1.068,5.173-2.849c0.875-1.374,1.16-3.009,0.805-4.603
			c-0.358-1.6-1.318-2.965-2.709-3.845c-0.98-0.617-2.109-0.944-3.266-0.944c-0.528,0-1.047,0.067-1.543,0.195
			c-2.56-4.188-8.652-10.455-13.189-13.792c1.813-0.628,3.051-1.436,4.213-2.188C243.715,83.148,244.901,82.388,247.145,82.011
			 M251.024,55.085c0.389-0.614,1.055-0.98,1.783-0.98c0.4,0,0.79,0.113,1.125,0.325c0.481,0.304,0.813,0.775,0.938,1.33
			c0.121,0.546,0.023,1.107-0.28,1.584c-0.598,0.951-1.938,1.273-2.912,0.653l-0.093-0.062
			C250.668,57.289,250.423,56.039,251.024,55.085 M251.024,78.549c0.389-0.614,1.055-0.98,1.783-0.98c0.4,0,0.79,0.112,1.125,0.326
			c0.481,0.305,0.813,0.773,0.938,1.329c0.121,0.546,0.023,1.106-0.28,1.585c-0.598,0.95-1.938,1.271-2.912,0.652l-0.093-0.062
			C250.668,80.752,250.423,79.502,251.024,78.549 M251.024,104.852c0.389-0.613,1.055-0.98,1.783-0.98c0.4,0,0.79,0.113,1.125,0.326
			c0.481,0.304,0.813,0.775,0.938,1.33c0.121,0.547,0.023,1.106-0.28,1.584c-0.598,0.951-1.938,1.271-2.912,0.653l-0.093-0.062
			C250.668,107.055,250.423,105.806,251.024,104.852"/>
		<path fill="#FFFEDB" d="M240.675,113.927c-1.165-1.36-2.858-2.139-4.648-2.139c-1.459,0-2.875,0.525-3.982,1.477
			c-1.613,1.383-2.326,3.429-2.087,5.396c-1.949,0.701-4.259,1.366-5.328,1.332c-0.822-0.043-1.303-0.345-2.225-0.971
			c-1.172-0.795-2.418-1.512-4.148-1.847c2.936-2.761,6.009-6.83,8.584-12.834c2.061-0.076,3.976-1.193,5.039-2.972
			c1.724-2.896,0.772-6.659-2.124-8.394c-0.95-0.565-2.033-0.864-3.135-0.864c-2.146,0-4.16,1.144-5.261,2.986
			c-0.838,1.405-1.079,3.05-0.678,4.636c0.351,1.393,1.161,2.59,2.302,3.429c-4.053,9.218-9.219,13.08-12.564,14.685
			c-0.128,0.045-0.248,0.101-0.361,0.168c-1.187,0.531-2.05,0.704-2.558,0.808v4c0.274-0.03,1.884-0.118,4.246-1.192
			c5.348-1.357,6.84-0.354,8.407,0.709c1.021,0.692,2.291,1.554,4.264,1.655c0.099,0.006,0.203,0.009,0.308,0.009
			c2.11,0,5.172-1.022,7.021-1.723c1.144,1.116,2.677,1.75,4.285,1.75c1.461,0,2.876-0.524,3.983-1.476
			c1.241-1.062,1.994-2.546,2.119-4.176C242.258,116.748,241.739,115.165,240.675,113.927 M224.802,97.151
			c0.385-0.645,1.065-1.031,1.818-1.031c0.379,0,0.753,0.104,1.078,0.298c1,0.601,1.331,1.899,0.735,2.898
			c-0.385,0.646-1.064,1.032-1.817,1.032c-0.379,0-0.755-0.105-1.084-0.301c-0.483-0.288-0.825-0.748-0.964-1.294
			C224.43,98.205,224.513,97.637,224.802,97.151 M237.403,119.514c-0.49,0.421-1.018,0.509-1.373,0.509
			c-0.621,0-1.207-0.269-1.607-0.734c-0.758-0.885-0.655-2.222,0.23-2.981c0.492-0.423,1.019-0.512,1.373-0.512
			c0.617,0,1.201,0.269,1.606,0.739c0.368,0.431,0.546,0.977,0.503,1.539S237.835,119.146,237.403,119.514"/>
		<path fill="#FFFEDB" d="M216.5,51.028c0.07,0.019,0.143,0.034,0.212,0.046C216.641,51.062,216.569,51.047,216.5,51.028"/>
		<path fill="#FFFEDB" d="M238.449,38.027c-0.357-1.599-1.317-2.964-2.708-3.844c-0.98-0.617-2.109-0.944-3.264-0.944
			c-2.117,0-4.054,1.066-5.175,2.85c-1.354,2.137-1.218,4.798,0.145,6.758c-3.646,4.124-8.707,4.314-9.943,4.293
			c-3.691-1.604-7.233-2.164-10.005-2.317v3.996c2.442,0.144,5.553,0.686,8.748,2.136c0.005,0.002,0.01,0.002,0.015,0.005
			c3.445,1.562,6.334,3.927,8.607,7.041c-0.135,0.173-0.264,0.351-0.381,0.538c-1.796,2.854-0.943,6.643,1.902,8.444
			c0.98,0.622,2.111,0.95,3.27,0.95c2.114,0,4.051-1.064,5.183-2.85c1.807-2.851,0.951-6.642-1.907-8.453
			c-1.385-0.872-3.093-1.114-4.668-0.755c-1.537-2.155-3.322-4.017-5.345-5.567c2.518-0.778,5.401-2.268,7.78-5.095
			c0.573,0.171,1.166,0.266,1.77,0.266c2.116,0,4.052-1.068,5.173-2.848C238.521,41.256,238.806,39.622,238.449,38.027
			 M227.879,60.674c0.169-0.266,0.396-0.49,0.673-0.661c0.335-0.207,0.723-0.316,1.121-0.316c0.4,0,0.79,0.112,1.122,0.321
			c0.987,0.627,1.283,1.936,0.66,2.919c-0.391,0.618-1.063,0.988-1.795,0.988c-0.397,0-0.785-0.113-1.124-0.327
			C227.552,62.974,227.258,61.662,227.879,60.674 M234.258,40.487c-0.6,0.951-1.937,1.271-2.912,0.653l-0.096-0.062
			c-0.914-0.648-1.161-1.898-0.557-2.851c0.385-0.613,1.052-0.98,1.784-0.98c0.396,0,0.786,0.113,1.123,0.326
			c0.479,0.304,0.812,0.775,0.937,1.33C234.659,39.449,234.563,40.009,234.258,40.487"/>
		<path fill="#FFFEDB" d="M247.145,79.011c0.425,1.034,1.136,1.962,2.11,2.649c0.072,0.052,0.15,0.105,0.283,0.191
			c0.98,0.621,2.109,0.949,3.267,0.949c2.116,0,4.052-1.068,5.173-2.848c0.875-1.375,1.16-3.011,0.805-4.605
			c-0.358-1.598-1.318-2.965-2.709-3.844c-0.98-0.617-2.109-0.944-3.266-0.944c-0.125,0-0.25,0.008-0.375,0.019
			c-0.71-3.158-0.919-7.77,0.035-11.266c0.113,0.011,0.225,0.024,0.337,0.024c2.116,0,4.052-1.067,5.173-2.848
			c0.875-1.375,1.16-3.009,0.805-4.604c-0.358-1.598-1.318-2.964-2.709-3.844c-0.98-0.617-2.109-0.944-3.266-0.944
			c-2.114,0-4.051,1.066-5.173,2.85c-1.604,2.532-1.12,5.803,1.024,7.764c0.021,0.02,0.049,0.037,0.071,0.059
			c-1.349,4.518-1.145,10.324-0.036,14.417c-0.144,0.132-0.294,0.254-0.426,0.399c-0.228,0.254-0.445,0.526-0.634,0.824
			c-0.318,0.502-0.55,1.033-0.71,1.578c-3.371,0.488-5.198,1.672-6.824,2.729c-2.035,1.324-3.961,2.572-9.636,2.666
			c-1.963-0.23-3.552-0.178-5.29-0.116c-1.43,0.052-2.91,0.106-4.848,0.003c-1.336-0.07-2.104-0.882-3.458-2.424
			c-1.804-2.055-4.22-4.648-9.369-5.021v4c3.295,0.299,4.796,1.887,6.355,3.666c1.487,1.694,3.175,3.615,6.256,3.782
			c2.118,0.114,3.761,0.052,5.208,0.001c2.491-0.092,4.453-0.161,7.855,0.683c2.607,0.644,12.099,9.674,14.773,14.323
			c-0.108,0.142-0.219,0.282-0.313,0.434c-1.743,2.755-1.026,6.385,1.62,8.251c0.072,0.052,0.15,0.104,0.283,0.191
			c0.98,0.621,2.109,0.948,3.267,0.948c2.116,0,4.052-1.068,5.173-2.849c0.875-1.374,1.16-3.009,0.805-4.603
			c-0.358-1.6-1.318-2.965-2.709-3.845c-0.98-0.617-2.109-0.944-3.266-0.944c-0.528,0-1.047,0.067-1.543,0.195
			c-2.56-4.188-8.652-10.455-13.189-13.792c1.813-0.628,3.051-1.436,4.213-2.188C243.715,80.148,244.901,79.388,247.145,79.011
			 M251.024,52.085c0.389-0.614,1.055-0.98,1.783-0.98c0.4,0,0.79,0.113,1.125,0.325c0.481,0.304,0.813,0.775,0.938,1.33
			c0.121,0.546,0.023,1.107-0.28,1.584c-0.598,0.951-1.938,1.273-2.912,0.653l-0.093-0.062
			C250.668,54.289,250.423,53.039,251.024,52.085 M251.024,75.549c0.389-0.614,1.055-0.98,1.783-0.98c0.4,0,0.79,0.112,1.125,0.326
			c0.481,0.305,0.813,0.773,0.938,1.329c0.121,0.546,0.023,1.106-0.28,1.585c-0.598,0.949-1.938,1.271-2.912,0.652l-0.093-0.062
			C250.668,77.752,250.423,76.502,251.024,75.549 M251.024,101.852c0.389-0.613,1.055-0.98,1.783-0.98c0.4,0,0.79,0.113,1.125,0.326
			c0.481,0.304,0.813,0.775,0.938,1.33c0.121,0.547,0.023,1.106-0.28,1.584c-0.598,0.951-1.938,1.271-2.912,0.653l-0.093-0.062
			C250.668,104.055,250.423,102.806,251.024,101.852"/>
	</g>
</g>
<g>
	<path fill="#754E37" d="M11.132,229.942v-54.031h19.408c6.952,0,12.24,1.274,15.864,3.822c3.624,2.548,5.437,6.247,5.437,11.096
		c0,2.796-0.644,5.183-1.93,7.162c-1.287,1.979-3.179,3.438-5.678,4.379c2.82,0.742,4.985,2.128,6.494,4.156
		c1.509,2.029,2.264,4.503,2.264,7.422c0,5.295-1.676,9.271-5.028,11.931c-3.353,2.66-8.319,4.015-14.899,4.063H11.132z
		 M24.158,198.437h6.791c2.845-0.024,4.874-0.546,6.086-1.563c1.212-1.017,1.818-2.518,1.818-4.504c0-2.282-0.656-3.926-1.967-4.931
		c-1.312-1.005-3.427-1.508-6.346-1.508h-6.383V198.437z M24.158,206.972v12.951h8.535c2.35,0,4.156-0.538,5.418-1.614
		s1.893-2.591,1.893-4.546c0-4.502-2.239-6.766-6.717-6.791H24.158z"/>
	<path fill="#754E37" d="M58.001,209.495c0-4.008,0.779-7.576,2.338-10.706c1.559-3.129,3.797-5.535,6.717-7.218
		c2.919-1.683,6.346-2.523,10.279-2.523c6.012,0,10.749,1.862,14.213,5.585c3.463,3.724,5.195,8.789,5.195,15.196v0.445
		c0,6.26-1.738,11.226-5.214,14.899c-3.476,3.674-8.183,5.511-14.12,5.511c-5.715,0-10.304-1.713-13.768-5.14
		c-3.464-3.426-5.332-8.071-5.604-13.935L58.001,209.495z M70.507,210.274c0,3.711,0.581,6.433,1.744,8.164
		c1.163,1.732,2.882,2.598,5.158,2.598c4.453,0,6.729-3.426,6.828-10.279v-1.262c0-7.199-2.301-10.799-6.902-10.799
		c-4.181,0-6.445,3.104-6.791,9.314L70.507,210.274z"/>
	<path fill="#754E37" d="M100.677,209.495c0-4.008,0.779-7.576,2.338-10.706c1.559-3.129,3.797-5.535,6.717-7.218
		c2.919-1.683,6.346-2.523,10.279-2.523c6.012,0,10.749,1.862,14.213,5.585c3.463,3.724,5.195,8.789,5.195,15.196v0.445
		c0,6.26-1.738,11.226-5.214,14.899c-3.476,3.674-8.183,5.511-14.12,5.511c-5.715,0-10.304-1.713-13.768-5.14
		c-3.464-3.426-5.332-8.071-5.604-13.935L100.677,209.495z M113.183,210.274c0,3.711,0.581,6.433,1.744,8.164
		c1.163,1.732,2.882,2.598,5.158,2.598c4.453,0,6.729-3.426,6.828-10.279v-1.262c0-7.199-2.301-10.799-6.902-10.799
		c-4.181,0-6.445,3.104-6.791,9.314L113.183,210.274z"/>
	<path fill="#754E37" d="M161.054,214.987l-3.525,3.525v11.43h-12.506v-57.037h12.506v30.281l1.262-1.67l9.426-11.727h14.992
		l-14.064,16.514l14.992,23.639h-14.324L161.054,214.987z"/>
</g>
<g>
	<path fill="#EB743B" d="M187.073,229.942v-54.031h19.408c6.951,0,12.239,1.274,15.864,3.822c3.624,2.548,5.437,6.247,5.437,11.096
		c0,2.796-0.644,5.183-1.93,7.162c-1.287,1.979-3.18,3.438-5.678,4.379c2.82,0.742,4.984,2.128,6.494,4.156
		c1.509,2.029,2.264,4.503,2.264,7.422c0,5.295-1.677,9.271-5.028,11.931c-3.353,2.66-8.319,4.015-14.899,4.063H187.073z
		 M200.098,198.437h6.791c2.845-0.024,4.873-0.546,6.086-1.563c1.212-1.017,1.818-2.518,1.818-4.504
		c0-2.282-0.656-3.926-1.967-4.931c-1.312-1.005-3.427-1.508-6.346-1.508h-6.383V198.437z M200.098,206.972v12.951h8.535
		c2.35,0,4.156-0.538,5.418-1.614s1.893-2.591,1.893-4.546c0-4.502-2.239-6.766-6.717-6.791H200.098z"/>
	<path fill="#EB743B" d="M259.807,201.108l-4.119-0.297c-3.934,0-6.457,1.237-7.57,3.711v25.42h-12.506V189.79h11.727l0.408,5.158
		c2.103-3.934,5.034-5.9,8.795-5.9c1.336,0,2.498,0.148,3.488,0.445L259.807,201.108z"/>
	<path fill="#EB743B" d="M285.87,229.942c-0.445-0.816-0.842-2.016-1.188-3.6c-2.301,2.895-5.518,4.342-9.648,4.342
		c-3.785,0-7.002-1.144-9.648-3.433c-2.647-2.288-3.971-5.164-3.971-8.628c0-4.354,1.607-7.645,4.824-9.871
		c3.216-2.227,7.892-3.34,14.027-3.34h3.859v-2.126c0-3.703-1.596-5.556-4.787-5.556c-2.969,0-4.453,1.467-4.453,4.4h-12.506
		c0-3.879,1.651-7.03,4.954-9.451s7.515-3.633,12.636-3.633s9.166,1.249,12.135,3.748s4.49,5.925,4.564,10.279v17.775
		c0.049,3.687,0.618,6.507,1.707,8.461v0.631H285.87z M278.04,221.778c1.559,0,2.851-0.334,3.878-1.002
		c1.026-0.668,1.763-1.422,2.208-2.264v-6.42h-3.637c-4.354,0-6.531,1.955-6.531,5.863c0,1.139,0.383,2.06,1.15,2.765
		C275.875,221.426,276.852,221.778,278.04,221.778z"/>
	<path fill="#EB743B" d="M303.497,179.437c0-1.781,0.643-3.241,1.93-4.379c1.286-1.138,2.956-1.707,5.01-1.707
		c2.053,0,3.723,0.569,5.01,1.707c1.286,1.138,1.93,2.598,1.93,4.379s-0.644,3.241-1.93,4.379c-1.287,1.138-2.957,1.707-5.01,1.707
		c-2.054,0-3.724-0.569-5.01-1.707C304.139,182.678,303.497,181.218,303.497,179.437z M316.782,229.942h-12.543V189.79h12.543
		V229.942z"/>
	<path fill="#EB743B" d="M335.967,189.79l0.408,4.713c2.771-3.637,6.593-5.455,11.467-5.455c4.181,0,7.303,1.249,9.37,3.748
		s3.137,6.259,3.211,11.281v25.865h-12.543v-25.346c0-2.028-0.408-3.519-1.225-4.472c-0.816-0.952-2.301-1.429-4.453-1.429
		c-2.449,0-4.268,0.965-5.455,2.895v28.352h-12.506V189.79H335.967z"/>
	<path fill="#EB743B" d="M382.095,220.294h18.295v9.648h-34.104v-6.977l17.812-23.527h-17.033v-9.648h32.916v6.754L382.095,220.294z
		"/>
</g>
</svg>
