<svg id="Layer_1" data-name="Layer 1" xmlns="http://www.w3.org/2000/svg" viewBox="0 0 196.71 30"><defs><style>.cls-1{fill:#754e37;}.cls-2{fill:#eb743b;}</style></defs><polygon class="cls-1" points="14 1 2 8 2 22 14 29 14 1"/><polygon class="cls-2" points="15 1 27 8 27 22 15 29 15 1"/><path class="cls-1" d="M35.68,25V5.24h7.63a11,11,0,0,1,6.08,1.4,4.58,4.58,0,0,1,2.12,4.07,4.56,4.56,0,0,1-.77,2.62A4.44,4.44,0,0,1,48.52,15a4.4,4.4,0,0,1,2.55,1.61A4.51,4.51,0,0,1,52,19.34a4.81,4.81,0,0,1-2,4.3A10.48,10.48,0,0,1,44.06,25ZM40.6,13.46h3q3,0,3-2.07a1.93,1.93,0,0,0-.72-1.7,3.93,3.93,0,0,0-2.2-.5H40.6Zm0,3.35v4.24h3.46a3.78,3.78,0,0,0,2.21-.56A1.76,1.76,0,0,0,47.05,19c0-1.42-.87-2.15-2.6-2.19Z"/><path class="cls-1" d="M54.25,16.4a10,10,0,0,1,1-4.48,7.06,7.06,0,0,1,2.78-3A8.14,8.14,0,0,1,62.23,7.8a7.74,7.74,0,0,1,5.58,2.09,8.43,8.43,0,0,1,2.41,5.68l0,1.16A8.83,8.83,0,0,1,68.08,23a7.54,7.54,0,0,1-5.82,2.35A7.57,7.57,0,0,1,56.43,23a9,9,0,0,1-2.18-6.37Zm4.51.32a6.25,6.25,0,0,0,.91,3.68,3.25,3.25,0,0,0,5.15,0,7,7,0,0,0,.92-4,6.31,6.31,0,0,0-.92-3.66,3,3,0,0,0-2.59-1.29,2.93,2.93,0,0,0-2.56,1.29A7,7,0,0,0,58.76,16.72Z"/><path class="cls-1" d="M72.32,16.4a10.1,10.1,0,0,1,1-4.48,7.14,7.14,0,0,1,2.79-3A8.1,8.1,0,0,1,80.3,7.8a7.7,7.7,0,0,1,5.58,2.09,8.43,8.43,0,0,1,2.41,5.68l0,1.16A8.79,8.79,0,0,1,86.15,23a7.51,7.51,0,0,1-5.82,2.35A7.59,7.59,0,0,1,74.5,23a9,9,0,0,1-2.18-6.37Zm4.51.32a6.32,6.32,0,0,0,.91,3.68,3.25,3.25,0,0,0,5.15,0,7,7,0,0,0,.92-4,6.31,6.31,0,0,0-.92-3.66,3,3,0,0,0-2.59-1.29,2.94,2.94,0,0,0-2.56,1.29A7,7,0,0,0,76.83,16.72Z"/><path class="cls-1" d="M97.23,18.23l-1.62,1.62V25H91.1V1h4.51V14.31l.87-1.12,4.33-5.08h5.41l-6.1,7L106.75,25h-5.18Z"/><path class="cls-2" d="M108.12,25V5.24h7.63a11,11,0,0,1,6.08,1.4A4.58,4.58,0,0,1,124,10.71a4.56,4.56,0,0,1-.77,2.62A4.44,4.44,0,0,1,121,15a4.32,4.32,0,0,1,3.43,4.35,4.81,4.81,0,0,1-2,4.3A10.46,10.46,0,0,1,116.5,25ZM113,13.46h3q3,0,3-2.07a1.93,1.93,0,0,0-.72-1.7,3.93,3.93,0,0,0-2.2-.5H113Zm0,3.35v4.24h3.46a3.78,3.78,0,0,0,2.21-.56,1.76,1.76,0,0,0,.78-1.49c0-1.42-.87-2.15-2.6-2.19Z"/><path class="cls-2" d="M136.88,12.34a12.62,12.62,0,0,0-1.62-.12c-1.71,0-2.82.57-3.35,1.73V25h-4.52V8.11h4.27l.12,2a4.19,4.19,0,0,1,3.76-2.33A5,5,0,0,1,137,8Z"/><path class="cls-2" d="M148.37,25a4.9,4.9,0,0,1-.45-1.51,5.47,5.47,0,0,1-4.26,1.82,6,6,0,0,1-4.12-1.43,4.65,4.65,0,0,1-1.63-3.62,4.81,4.81,0,0,1,2-4.13,9.9,9.9,0,0,1,5.76-1.45h2.07v-1a2.81,2.81,0,0,0-.6-1.88,2.39,2.39,0,0,0-1.9-.7,2.63,2.63,0,0,0-1.78.55,1.82,1.82,0,0,0-.65,1.5h-4.51a4.55,4.55,0,0,1,.9-2.72,6,6,0,0,1,2.56-2,9.42,9.42,0,0,1,3.72-.71,7.33,7.33,0,0,1,4.95,1.57,5.47,5.47,0,0,1,1.84,4.41V21.1a8,8,0,0,0,.67,3.63V25Zm-3.73-3.14a3.93,3.93,0,0,0,1.84-.44,3,3,0,0,0,1.25-1.2v-2.9H146q-3.37,0-3.6,2.34l0,.27a1.81,1.81,0,0,0,.6,1.39A2.3,2.3,0,0,0,144.64,21.86Z"/><path class="cls-2" d="M155.69,3.74a2.25,2.25,0,0,1,.68-1.67,2.94,2.94,0,0,1,3.69,0,2.22,2.22,0,0,1,.69,1.67,2.2,2.2,0,0,1-.7,1.69,2.53,2.53,0,0,1-1.83.65,2.57,2.57,0,0,1-1.84-.65A2.23,2.23,0,0,1,155.69,3.74ZM160.48,25H156V8.11h4.52Z"/><path class="cls-2" d="M168.35,8.11l.14,2a5.91,5.91,0,0,1,4.85-2.26,4.92,4.92,0,0,1,4,1.58,7.36,7.36,0,0,1,1.34,4.71V25h-4.51V14.17a2.91,2.91,0,0,0-.63-2.08,2.73,2.73,0,0,0-2.07-.65,3.11,3.11,0,0,0-2.86,1.62V25H164.1V8.11Z"/><path class="cls-2" d="M187.28,21.36h8.26V25h-14V22.25l7.94-10.5h-7.71V8.11h13.54v2.66Z"/></svg>