<svg id="Layer_1" data-name="Layer 1" xmlns="http://www.w3.org/2000/svg" viewBox="0 0 245 100"><defs><style>.cls-1{fill:#eb743b;}.cls-2{fill:#754e37;}.cls-3{fill:#fffedb;}.cls-4{fill:#cfa691;}</style></defs><polygon class="cls-1" points="46 2 46 98 87 74 87 26 46 2"/><polygon class="cls-2" points="43 2 2 26 2 74 43 98 43 2"/><path class="cls-3" d="M78.28,58.09a6.75,6.75,0,0,0-7.67-2.86A18.09,18.09,0,0,0,62,49.6a28.62,28.62,0,0,0,5.91-6.16,6.91,6.91,0,0,0,5.17-.83,6.77,6.77,0,1,0-9.34-2.11,6.27,6.27,0,0,0,.42.59,23.88,23.88,0,0,1-9.52,7.79h0A18.45,18.45,0,0,1,46,51v5c4,0,5.93-1.12,10-2.9a14.78,14.78,0,0,1,11,4.75,6.76,6.76,0,1,0,12.16,5.32A6.64,6.64,0,0,0,78.28,58.09ZM68.06,34.67a2.57,2.57,0,0,1,1.4-.41,2.62,2.62,0,1,1,0,5.24,2.61,2.61,0,0,1-2.22-1.21A2.63,2.63,0,0,1,68.06,34.67Zm7.06,27.6A2.61,2.61,0,0,1,74,63.91a2.56,2.56,0,0,1-1.39.41,2.62,2.62,0,0,1-1.52-4.75l.12-.07a2.65,2.65,0,0,1,3.6.8A2.59,2.59,0,0,1,75.12,62.27Z"/><path class="cls-3" d="M43,81.73H38.32a1.07,1.07,0,0,1-1.07-1.07c0-1.54,0-3.28-5.58-4-5.82-.78-21-3.3-21.19-3.33a1.06,1.06,0,0,1-.9-1V30.92a1.09,1.09,0,0,1,.36-.8,1.06,1.06,0,0,1,.83-.26l4.81.54a1.07,1.07,0,1,1-.23,2.12l-3.63-.4V71.34c3.36.55,15.27,2.5,20.24,3.17,5.65.76,7.09,2.81,7.37,5.08H43Z"/><path class="cls-4" d="M40.6,36.48c0-6.28-11.68-15-25.13-11.88V65.92c13.81-.57,25.13,4.45,25.13,10.79Z"/><path class="cls-3" d="M23.1,34.94a1,1,0,0,0-1.05,1,.94.94,0,0,0,1,1.09C32.74,37,40.6,45.3,40.6,47.86v-2.8c0-2.69-7.34-10.12-17.46-10.12Z"/><path class="cls-3" d="M23.1,42.22a1.06,1.06,0,0,0-1.05,1,.94.94,0,0,0,1,1.09c9.68,0,17.54,8.26,17.54,10.83v-2.8c0-2.69-7.34-10.13-17.46-10.13Z"/><path class="cls-3" d="M23.1,49.51a1,1,0,0,0-1.05,1,.94.94,0,0,0,1,1.09c9.68,0,17.54,8.25,17.54,10.82v-2.8c0-2.69-7.34-10.12-17.46-10.12Z"/><path class="cls-2" d="M103.3,46V10.7h12c4.12,0,7.27.84,9.44,2.5A8.61,8.61,0,0,1,128,20.46a9.07,9.07,0,0,1-1.19,4.7,6.91,6.91,0,0,1-3.48,2.93,6.77,6.77,0,0,1,3.85,2.78,8.81,8.81,0,0,1,1.36,5c0,3.52-1,6.08-3.06,7.7S120.37,46,116.27,46Zm8.58-20.63H116c2.28-.06,3.42-1.28,3.42-3.64a4.23,4.23,0,0,0-.85-3,3.4,3.4,0,0,0-2.6-.9h-4.09Zm0,6v7.6h4.39a3.35,3.35,0,0,0,3.7-3.65q0-3.82-3.09-3.95Z"/><path class="cls-2" d="M132.85,29.94q0-6.85,3.24-10.75a12.26,12.26,0,0,1,17.95,0q3.22,3.9,3.23,10.81v1.92q0,6.88-3.2,10.76a12.37,12.37,0,0,1-18,0q-3.21-3.89-3.22-10.8Zm7.92,2q0,8.09,4.32,8.09,4,0,4.29-6.75l0-3.32a12.68,12.68,0,0,0-1.14-6.11,3.56,3.56,0,0,0-3.23-2,3.48,3.48,0,0,0-3.14,2,12.82,12.82,0,0,0-1.13,6.11Z"/><path class="cls-2" d="M161.26,29.94q0-6.85,3.23-10.75a12.26,12.26,0,0,1,17.95,0q3.24,3.9,3.24,10.81v1.92q0,6.88-3.21,10.76a12.36,12.36,0,0,1-18,0q-3.22-3.89-3.22-10.8Zm7.91,2q0,8.09,4.32,8.09,4,0,4.3-6.75l0-3.32a12.68,12.68,0,0,0-1.14-6.11,3.56,3.56,0,0,0-3.23-2,3.49,3.49,0,0,0-3.14,2,12.82,12.82,0,0,0-1.13,6.11Z"/><path class="cls-2" d="M200.59,34.38l-2.12,2.37V46h-7.89V3.19h7.89V26.32l1-1.45,5.46-9h9.39l-8.75,12.43L215.14,46h-9Z"/><path class="cls-1" d="M103.3,92V56.7h12c4.12,0,7.27.84,9.44,2.5A8.61,8.61,0,0,1,128,66.46a9.07,9.07,0,0,1-1.19,4.7,6.91,6.91,0,0,1-3.48,2.93,6.77,6.77,0,0,1,3.85,2.78,8.81,8.81,0,0,1,1.36,5c0,3.52-1,6.08-3.06,7.7S120.37,92,116.27,92Zm8.58-20.63H116c2.28-.06,3.42-1.28,3.42-3.64a4.23,4.23,0,0,0-.85-3,3.4,3.4,0,0,0-2.6-.9h-4.09Zm0,6v7.6h4.39a3.35,3.35,0,0,0,3.7-3.65q0-3.83-3.09-4Z"/><path class="cls-1" d="M148.66,69.45,146,69.23a4.3,4.3,0,0,0-4.38,2.84V92h-7.91V61.84h7.44l.22,3.26c1.25-2.54,3-3.82,5.16-3.82a5.33,5.33,0,0,1,2.17.37Z"/><path class="cls-1" d="M166.19,92a11.67,11.67,0,0,1-.67-2.34,6.74,6.74,0,0,1-5.74,2.9,8.49,8.49,0,0,1-6.28-2.51,8.8,8.8,0,0,1-2.5-6.5,9.14,9.14,0,0,1,3-7.33c2-1.72,4.92-2.61,8.71-2.64h2.39V71.15a4.57,4.57,0,0,0-.69-2.87,2.51,2.51,0,0,0-2-.84c-2,0-3,1.16-3,3.46h-7.89a8.72,8.72,0,0,1,3.13-6.9,11.71,11.71,0,0,1,7.93-2.72q5,0,7.68,2.58C172.12,65.58,173,68,173,71.23V85.42a14.86,14.86,0,0,0,1.12,6.11V92Zm-4.65-5.63a4.46,4.46,0,0,0,2.23-.53,3.69,3.69,0,0,0,1.36-1.25V78.31h-1.89a4,4,0,0,0-3.17,1.29A4.9,4.9,0,0,0,158.92,83C158.92,85.25,159.79,86.37,161.54,86.37Z"/><path class="cls-1" d="M178.74,54a4.07,4.07,0,0,1,1.17-3,4.71,4.71,0,0,1,6.24,0,4.07,4.07,0,0,1,1.17,3,4.18,4.18,0,0,1-1.16,3,4.29,4.29,0,0,1-7.42-3ZM187,92H179.1V61.84H187Z"/><path class="cls-1" d="M200.34,61.84l.22,3a8.37,8.37,0,0,1,7-3.54q7.77,0,8,10.9V92h-7.92V72.77a6.93,6.93,0,0,0-.77-3.72,3,3,0,0,0-2.69-1.16,3.67,3.67,0,0,0-3.34,2.2V92h-7.92V61.84Z"/><path class="cls-1" d="M229.94,85.45h11.93V92h-21.3V87.07l11.65-18.65H220.85V61.84H241.7v4.77Z"/></svg>