<svg xmlns="http://www.w3.org/2000/svg" viewBox="0 0 400.76 150"><defs><style>.cls-1{isolation:isolate;}.cls-2{fill:#754e37;}.cls-3{fill:#eb743b;}.cls-4{fill:#573a29;}.cls-5{fill:#fffedb;}.cls-6{fill:#cfa691;}.cls-7{mix-blend-mode:multiply;opacity:0.07;}.cls-8{fill:#d3562c;}</style></defs><g class="cls-1"><g id="Layer_1" data-name="Layer 1"><path class="cls-2" d="M156.64,69.83V15.23h21.09q10.92,0,16.78,3.87a12.64,12.64,0,0,1,5.86,11.24,12.56,12.56,0,0,1-2.13,7.26,12.16,12.16,0,0,1-6.12,4.57,12.18,12.18,0,0,1,7,4.45,12.32,12.32,0,0,1,2.44,7.58q0,8.1-5.58,11.87T179.8,69.83ZM170.23,38h8.35q8.21,0,8.2-5.74,0-3.3-2-4.68t-6.07-1.39h-8.49Zm0,9.23V58.91h9.57a10.27,10.27,0,0,0,6.09-1.55,4.81,4.81,0,0,0,2.16-4.1q0-5.88-7.18-6.07Z"/><path class="cls-2" d="M208,46.07a27.53,27.53,0,0,1,2.68-12.37,19.5,19.5,0,0,1,7.7-8.41,22.35,22.35,0,0,1,11.66-3q9.45,0,15.42,5.78t6.66,15.7l.09,3.19q0,10.74-6,17.23T230.08,70.7Q220,70.7,214,64.23t-6-17.6Zm12.47.89q0,6.65,2.5,10.17a9,9,0,0,0,14.23,0q2.53-3.48,2.54-11.12,0-6.52-2.54-10.11A8.27,8.27,0,0,0,230,32.36a8.13,8.13,0,0,0-7.07,3.56Q220.42,39.49,220.42,47Z"/><path class="cls-2" d="M257.89,46.07a27.66,27.66,0,0,1,2.67-12.37,19.56,19.56,0,0,1,7.7-8.41,22.41,22.41,0,0,1,11.67-3q9.44,0,15.41,5.78T302,43.79l.08,3.19q0,10.74-6,17.23T280,70.7q-10.08,0-16.1-6.47t-6-17.6Zm12.46.89q0,6.65,2.5,10.17a9,9,0,0,0,14.24,0q2.54-3.48,2.54-11.12,0-6.52-2.54-10.11a8.28,8.28,0,0,0-7.16-3.58,8.16,8.16,0,0,0-7.08,3.56Q270.36,39.49,270.35,47Z"/><path class="cls-2" d="M326.72,51.12l-4.49,4.48V69.83H309.77V3.6h12.46V40.29l2.42-3.1,11.94-14h15L334.69,42.62,353,69.83H338.7Z"/><path class="cls-3" d="M156.64,138.83V84.23h21.09q10.92,0,16.78,3.87a13.61,13.61,0,0,1,3.73,18.5,12.16,12.16,0,0,1-6.12,4.57,12.18,12.18,0,0,1,7,4.45,12.32,12.32,0,0,1,2.44,7.58q0,8.1-5.58,11.87t-16.21,3.76ZM170.23,107h8.35q8.21,0,8.2-5.74,0-3.3-2-4.68t-6.07-1.39h-8.49Zm0,9.23v11.72h9.57a10.27,10.27,0,0,0,6.09-1.55,4.81,4.81,0,0,0,2.16-4.1q0-5.88-7.18-6.07Z"/><path class="cls-3" d="M236.11,103.86a33.67,33.67,0,0,0-4.48-.34q-7.08,0-9.27,4.78v30.53H209.89V92.17h11.78l.34,5.57q3.75-6.43,10.39-6.43a13.25,13.25,0,0,1,3.89.56Z"/><path class="cls-3" d="M267.85,138.83a14,14,0,0,1-1.25-4.18,15.09,15.09,0,0,1-11.77,5,16.58,16.58,0,0,1-11.36-4,12.76,12.76,0,0,1-4.51-10q0-7.41,5.5-11.38t15.89-4h5.73v-2.67a7.67,7.67,0,0,0-1.66-5.18q-1.65-1.94-5.24-1.94a7.39,7.39,0,0,0-4.93,1.51,5.12,5.12,0,0,0-1.79,4.14H240a12.5,12.5,0,0,1,2.5-7.5,16.49,16.49,0,0,1,7.07-5.42,25.92,25.92,0,0,1,10.26-2q8.63,0,13.69,4.34t5.07,12.18v20.22q0,6.64,1.85,10v.73Zm-10.3-8.66a10.69,10.69,0,0,0,5.08-1.23,8,8,0,0,0,3.45-3.3v-8h-4.65q-9.36,0-10,6.47l-.05.73a5,5,0,0,0,1.64,3.84A6.4,6.4,0,0,0,257.55,130.17Z"/><path class="cls-3" d="M288.08,80.1A6.11,6.11,0,0,1,290,75.49a8.06,8.06,0,0,1,10.2,0,6.58,6.58,0,0,1,0,9.27,8,8,0,0,1-10.13,0A6.12,6.12,0,0,1,288.08,80.1Zm13.24,58.73H288.81V92.17h12.51Z"/><path class="cls-3" d="M323.05,92.17l.39,5.39a16.3,16.3,0,0,1,13.41-6.25q7.41,0,11,4.36t3.71,13v30.14H339.14V108.92q0-4-1.73-5.77t-5.74-1.79a8.59,8.59,0,0,0-7.89,4.49v33H311.32V92.17Z"/><path class="cls-3" d="M375.36,128.79h22.81v10H359.45v-7.59l21.95-29H360.09v-10h37.39v7.35Z"/><polygon class="cls-3" points="70.03 2.83 70.03 146.83 131.03 111.83 131.03 37.83 70.03 2.83"/><polygon class="cls-2" points="65.03 2.83 4.03 37.83 4.03 111.83 65.03 146.83 65.03 2.83"/><path class="cls-4" d="M65,125.12H58a1.6,1.6,0,0,1-1.6-1.6c0-2.3,0-4.92-8.35-6-8.71-1.17-31.48-4.94-31.71-5A1.59,1.59,0,0,1,15,110.93V49.11a1.61,1.61,0,0,1,.53-1.2,1.57,1.57,0,0,1,1.24-.39l7.2.8a1.6,1.6,0,1,1-.35,3.18l-5.42-.61v58.69c5,.82,22.83,3.74,30.27,4.73,8.46,1.14,10.61,4.21,11,7.61H65Z"/><path class="cls-4" d="M61.44,57.41C61.44,48,44,35,23.84,39.64v61.83c20.66-.86,37.6,6.65,37.6,16.15Z"/><path class="cls-4" d="M35.25,55.12a1.57,1.57,0,0,0-1.57,1.51,1.41,1.41,0,0,0,1.51,1.63c14.48,0,26.25,12.35,26.25,16.19V70.26c0-4-11-15.14-26.13-15.14Z"/><path class="cls-4" d="M35.25,66a1.58,1.58,0,0,0-1.57,1.51,1.41,1.41,0,0,0,1.51,1.63c14.48,0,26.25,12.36,26.25,16.2V81.16c0-4-11-15.15-26.13-15.15Z"/><path class="cls-4" d="M35.25,76.91a1.57,1.57,0,0,0-1.57,1.51,1.41,1.41,0,0,0,1.51,1.63c14.48,0,26.25,12.35,26.25,16.19V92.05c0-4-11-15.14-26.13-15.14Z"/><path class="cls-5" d="M65,122.12H58a1.6,1.6,0,0,1-1.6-1.6c0-2.3,0-4.92-8.35-6-8.71-1.17-31.48-4.94-31.71-5A1.59,1.59,0,0,1,15,107.93V46.11a1.61,1.61,0,0,1,.53-1.2,1.57,1.57,0,0,1,1.24-.39l7.2.8a1.6,1.6,0,1,1-.35,3.18l-5.42-.61v58.69c5,.82,22.83,3.74,30.27,4.73,8.46,1.14,10.61,4.21,11,7.61H65Z"/><path class="cls-6" d="M61.44,54.41C61.44,45,44,32,23.84,36.64V98.47c20.66-.86,37.6,6.65,37.6,16.15Z"/><path class="cls-5" d="M35.25,52.12a1.57,1.57,0,0,0-1.57,1.51,1.41,1.41,0,0,0,1.51,1.63c14.48,0,26.25,12.35,26.25,16.19V67.26c0-4-11-15.14-26.13-15.14Z"/><path class="cls-5" d="M35.25,63a1.58,1.58,0,0,0-1.57,1.51,1.41,1.41,0,0,0,1.51,1.63c14.48,0,26.25,12.36,26.25,16.2V78.16c0-4-11-15.15-26.13-15.15Z"/><path class="cls-5" d="M35.25,73.91a1.57,1.57,0,0,0-1.57,1.51,1.41,1.41,0,0,0,1.51,1.63c14.48,0,26.25,12.35,26.25,16.19V89.05c0-4-11-15.14-26.13-15.14Z"/><g class="cls-7"><path d="M87.33,94.57a2.1,2.1,0,0,1,1.82-1,2.16,2.16,0,0,1,1.08.29,2.12,2.12,0,0,1,.73,2.9,2.07,2.07,0,0,1-1.81,1,2.11,2.11,0,0,1-1.09-.3,2.11,2.11,0,0,1-.73-2.89Zm12.6,22.36a2.07,2.07,0,0,1-1.37.51,2.11,2.11,0,1,1,2.11-2A2.14,2.14,0,0,1,99.93,116.93Z"/><path d="M79,48.44l.21.05Z"/><path d="M90.41,58.09a2,2,0,0,1,.67-.66,2.11,2.11,0,0,1,1.12-.32,2.24,2.24,0,0,1,1.13.32,2.12,2.12,0,0,1-1.14,3.91A2,2,0,0,1,91.07,61,2.12,2.12,0,0,1,90.41,58.09ZM96.79,37.9a2.15,2.15,0,0,1-2.91.66l-.1-.07A2.11,2.11,0,0,1,95,34.66a2.15,2.15,0,0,1,1.12.33,2.11,2.11,0,0,1,.94,1.33A2.09,2.09,0,0,1,96.79,37.9Z"/><path d="M113.55,49.5a2.12,2.12,0,0,1,1.79-1,2,2,0,0,1,1.12.33,2.07,2.07,0,0,1,.94,1.33,2.1,2.1,0,0,1-.28,1.58,2.14,2.14,0,0,1-2.91.65l-.1-.06A2.11,2.11,0,0,1,113.55,49.5Zm0,23.46a2.12,2.12,0,0,1,1.79-1,2.11,2.11,0,0,1,1.78,3.24,2.14,2.14,0,0,1-2.91.66l-.1-.07A2.11,2.11,0,0,1,113.55,73Zm0,26.31a2.12,2.12,0,0,1,2.91-.66,2.11,2.11,0,1,1-2.25,3.57l-.1-.06A2.12,2.12,0,0,1,113.55,99.27Z"/><path d="M103.21,108.94a6.12,6.12,0,0,0-10.72,4.73A19.62,19.62,0,0,1,87.16,115a4,4,0,0,1-2.23-1,10.65,10.65,0,0,0-4.14-1.84,37.76,37.76,0,0,0,8.58-12.84,6.11,6.11,0,1,0-6.16-4.6,6,6,0,0,0,2.3,3.42c-4.05,9.22-9.22,13.08-12.56,14.69a1.49,1.49,0,0,0-.36.17,11,11,0,0,1-2.56.8v4a12.47,12.47,0,0,0,4.25-1.19c5.34-1.36,6.84-.35,8.4.71A8,8,0,0,0,87,119h.3a23.68,23.68,0,0,0,7-1.72A6.1,6.1,0,0,0,98.56,119h0a6.12,6.12,0,0,0,4.65-10.1ZM87.33,92.16a2.12,2.12,0,0,1,1.82-1,2.17,2.17,0,0,1,1.08.3,2.12,2.12,0,0,1,.73,2.9,2.09,2.09,0,0,1-1.81,1,2.21,2.21,0,0,1-1.09-.3,2.13,2.13,0,0,1-.73-2.9Zm12.6,22.36a2,2,0,0,1-1.37.51,2.11,2.11,0,0,1-1.38-3.71,2.11,2.11,0,0,1,3,.23,2.08,2.08,0,0,1-.23,3Z"/><path d="M79,46l.21.05Z"/><path d="M101,33a6.12,6.12,0,0,0-2.71-3.85A6.18,6.18,0,0,0,95,28.25a6.12,6.12,0,0,0-5,9.61,13.38,13.38,0,0,1-10,4.29,29.39,29.39,0,0,0-10-2.32v4A24.79,24.79,0,0,1,78.78,46h0a21.54,21.54,0,0,1,8.61,7,4,4,0,0,0-.38.54A6.14,6.14,0,0,0,88.92,62a6,6,0,0,0,3.27,1,6.13,6.13,0,0,0,3.27-11.31,6.2,6.2,0,0,0-4.66-.75,26,26,0,0,0-5.35-5.57,16.34,16.34,0,0,0,7.78-5.1,5.94,5.94,0,0,0,1.77.27,6.07,6.07,0,0,0,5.17-2.85A6,6,0,0,0,101,33ZM90.41,55.69a2.14,2.14,0,0,1,.67-.67,2.2,2.2,0,0,1,1.12-.31,2.12,2.12,0,1,1,0,4.23,2.12,2.12,0,0,1-1.78-3.25ZM96.79,35.5a2.14,2.14,0,0,1-2.91.65l-.1-.06A2.11,2.11,0,0,1,95,32.26a2.14,2.14,0,0,1,1.12.32,2.16,2.16,0,0,1,.94,1.33A2.12,2.12,0,0,1,96.79,35.5Z"/><path d="M109.67,74a6.09,6.09,0,0,0,2.11,2.65l.29.19a6.12,6.12,0,1,0,6.53-10.35,6.18,6.18,0,0,0-3.26-.94l-.38,0a25.67,25.67,0,0,1,0-11.27l.33,0a6.12,6.12,0,1,0-4.14-1.63l.07.06a28.75,28.75,0,0,0,0,14.42,5.25,5.25,0,0,0-.42.4,5.1,5.1,0,0,0-.63.82,5.73,5.73,0,0,0-.71,1.58,15.21,15.21,0,0,0-6.83,2.73c-2,1.32-4,2.57-9.63,2.66a32.76,32.76,0,0,0-5.29-.11c-1.44,0-2.92.1-4.85,0-1.34-.07-2.11-.88-3.46-2.42-1.8-2.06-4.22-4.65-9.37-5v4c3.29.3,4.8,1.89,6.36,3.67s3.17,3.62,6.25,3.78a49.83,49.83,0,0,0,5.21,0,24.19,24.19,0,0,1,7.86.69c2.6.64,12.09,9.67,14.77,14.32a4.25,4.25,0,0,0-.31.43,6.1,6.1,0,0,0,1.61,8.25l.29.2a6.12,6.12,0,1,0,3.27-11.3,6.16,6.16,0,0,0-1.55.2c-2.56-4.19-8.65-10.46-13.18-13.79a18.42,18.42,0,0,0,4.21-2.19A11.34,11.34,0,0,1,109.67,74Zm3.88-26.92a2.12,2.12,0,0,1,2.91-.66A2.11,2.11,0,1,1,114.21,50l-.1-.06A2.12,2.12,0,0,1,113.55,47.1Zm0,23.46a2.12,2.12,0,0,1,1.79-1,2,2,0,0,1,1.12.33,2.08,2.08,0,0,1,.94,1.32,2.11,2.11,0,0,1-3.19,2.24l-.1-.06A2.12,2.12,0,0,1,113.55,70.56Zm0,26.3a2.12,2.12,0,0,1,1.79-1,2.1,2.1,0,0,1,1.12.33,2.07,2.07,0,0,1,.94,1.33,2.1,2.1,0,0,1-.28,1.58,2.15,2.15,0,0,1-2.91.66l-.1-.07A2.11,2.11,0,0,1,113.55,96.86Z"/></g><path class="cls-8" d="M103.21,111.94a6.12,6.12,0,0,0-10.72,4.73A19.62,19.62,0,0,1,87.16,118a4,4,0,0,1-2.23-1,10.65,10.65,0,0,0-4.14-1.84,37.76,37.76,0,0,0,8.58-12.84,6.11,6.11,0,1,0-6.16-4.6,6,6,0,0,0,2.3,3.42c-4.05,9.22-9.22,13.08-12.56,14.69a1.49,1.49,0,0,0-.36.17,11,11,0,0,1-2.56.8v4a12.47,12.47,0,0,0,4.25-1.19c5.34-1.36,6.84-.35,8.4.71A8,8,0,0,0,87,122h.3a23.68,23.68,0,0,0,7-1.72A6.1,6.1,0,0,0,98.56,122h0a6.12,6.12,0,0,0,4.65-10.1ZM87.33,95.16a2.12,2.12,0,0,1,1.82-1,2.17,2.17,0,0,1,1.08.3,2.12,2.12,0,0,1,.73,2.9,2.09,2.09,0,0,1-1.81,1,2.21,2.21,0,0,1-1.09-.3,2.13,2.13,0,0,1-.73-2.9Zm12.6,22.36a2,2,0,0,1-1.37.51,2.11,2.11,0,0,1-1.38-3.71,2.11,2.11,0,0,1,3,.23,2.08,2.08,0,0,1-.23,3Z"/><path d="M79,48.44l.21.05Z"/><path class="cls-8" d="M101,36a6.12,6.12,0,1,0-11,4.82,13.36,13.36,0,0,1-10,4.3,28.93,28.93,0,0,0-10-2.32v4A25,25,0,0,1,78.78,49h0A21.57,21.57,0,0,1,87.4,56a4.7,4.7,0,0,0-.38.53,6.2,6.2,0,1,0,3.78-2.66,26.24,26.24,0,0,0-5.35-5.57,16.39,16.39,0,0,0,7.78-5.09,6.27,6.27,0,0,0,1.77.26A6.12,6.12,0,0,0,101,36ZM90.41,58.69a2,2,0,0,1,.67-.66,2.11,2.11,0,0,1,1.12-.32,2.12,2.12,0,1,1,0,4.23,2,2,0,0,1-1.12-.33A2.12,2.12,0,0,1,90.41,58.69ZM96.79,38.5a2.15,2.15,0,0,1-2.91.66l-.1-.07A2.11,2.11,0,0,1,95,35.26a2.15,2.15,0,0,1,1.12.33,2.1,2.1,0,0,1,.66,2.91Z"/><path class="cls-8" d="M109.67,77a6.09,6.09,0,0,0,2.11,2.65l.29.19a6.12,6.12,0,1,0,6.53-10.35,6.18,6.18,0,0,0-3.26-.94l-.38,0a25.67,25.67,0,0,1,0-11.27l.33,0a6.12,6.12,0,1,0-4.14-1.63l.07.06a28.75,28.75,0,0,0,0,14.42,5.25,5.25,0,0,0-.42.4,5.1,5.1,0,0,0-.63.82,5.73,5.73,0,0,0-.71,1.58,15.21,15.21,0,0,0-6.83,2.73c-2,1.32-4,2.57-9.63,2.66a32.76,32.76,0,0,0-5.29-.11c-1.44,0-2.92.1-4.85,0-1.34-.07-2.11-.88-3.46-2.42-1.8-2.06-4.22-4.65-9.37-5v4c3.29.3,4.8,1.89,6.36,3.67s3.17,3.62,6.25,3.78a49.83,49.83,0,0,0,5.21,0,24.19,24.19,0,0,1,7.86.69c2.6.64,12.09,9.67,14.77,14.32a4.25,4.25,0,0,0-.31.43,6.1,6.1,0,0,0,1.61,8.25l.29.2a6.12,6.12,0,1,0,3.27-11.3,6.16,6.16,0,0,0-1.55.2c-2.56-4.19-8.65-10.46-13.18-13.79a18.42,18.42,0,0,0,4.21-2.19A11.34,11.34,0,0,1,109.67,77Zm3.88-26.92a2.12,2.12,0,0,1,2.91-.66A2.11,2.11,0,1,1,114.21,53l-.1-.06A2.12,2.12,0,0,1,113.55,50.1Zm0,23.46a2.12,2.12,0,0,1,1.79-1,2,2,0,0,1,1.12.33,2.08,2.08,0,0,1,.94,1.32,2.11,2.11,0,0,1-3.19,2.24l-.1-.06A2.12,2.12,0,0,1,113.55,73.56Zm0,26.3a2.12,2.12,0,0,1,1.79-1,2.1,2.1,0,0,1,1.12.33,2.07,2.07,0,0,1,.94,1.33,2.1,2.1,0,0,1-.28,1.58,2.15,2.15,0,0,1-2.91.66l-.1-.07A2.11,2.11,0,0,1,113.55,99.86Z"/><path class="cls-5" d="M103.21,108.94a6.12,6.12,0,0,0-10.72,4.73A19.62,19.62,0,0,1,87.16,115a4,4,0,0,1-2.23-1,10.65,10.65,0,0,0-4.14-1.84,37.76,37.76,0,0,0,8.58-12.84,6.11,6.11,0,1,0-6.16-4.6,6,6,0,0,0,2.3,3.42c-4.05,9.22-9.22,13.08-12.56,14.69a1.49,1.49,0,0,0-.36.17,11,11,0,0,1-2.56.8v4a12.47,12.47,0,0,0,4.25-1.19c5.34-1.36,6.84-.35,8.4.71A8,8,0,0,0,87,119h.3a23.68,23.68,0,0,0,7-1.72A6.1,6.1,0,0,0,98.56,119h0a6.12,6.12,0,0,0,4.65-10.1ZM87.33,92.16a2.12,2.12,0,0,1,1.82-1,2.17,2.17,0,0,1,1.08.3,2.12,2.12,0,0,1,.73,2.9,2.09,2.09,0,0,1-1.81,1,2.21,2.21,0,0,1-1.09-.3,2.13,2.13,0,0,1-.73-2.9Zm12.6,22.36a2,2,0,0,1-1.37.51,2.11,2.11,0,0,1-1.38-3.71,2.11,2.11,0,0,1,3,.23,2.08,2.08,0,0,1-.23,3Z"/><path class="cls-5" d="M79,46l.21.05Z"/><path class="cls-5" d="M101,33a6.12,6.12,0,0,0-2.71-3.85A6.18,6.18,0,0,0,95,28.25a6.12,6.12,0,0,0-5,9.61,13.38,13.38,0,0,1-10,4.29,29.39,29.39,0,0,0-10-2.32v4A24.79,24.79,0,0,1,78.78,46h0a21.54,21.54,0,0,1,8.61,7,4,4,0,0,0-.38.54A6.14,6.14,0,0,0,88.92,62a6,6,0,0,0,3.27,1,6.13,6.13,0,0,0,3.27-11.31,6.2,6.2,0,0,0-4.66-.75,26,26,0,0,0-5.35-5.57,16.34,16.34,0,0,0,7.78-5.1,5.94,5.94,0,0,0,1.77.27,6.07,6.07,0,0,0,5.17-2.85A6,6,0,0,0,101,33ZM90.41,55.69a2.14,2.14,0,0,1,.67-.67,2.2,2.2,0,0,1,1.12-.31,2.12,2.12,0,1,1,0,4.23,2.12,2.12,0,0,1-1.78-3.25ZM96.79,35.5a2.14,2.14,0,0,1-2.91.65l-.1-.06A2.11,2.11,0,0,1,95,32.26a2.14,2.14,0,0,1,1.12.32,2.16,2.16,0,0,1,.94,1.33A2.12,2.12,0,0,1,96.79,35.5Z"/><path class="cls-5" d="M109.67,74a6.09,6.09,0,0,0,2.11,2.65l.29.19a6.12,6.12,0,1,0,6.53-10.35,6.18,6.18,0,0,0-3.26-.94l-.38,0a25.67,25.67,0,0,1,0-11.27l.33,0a6.12,6.12,0,1,0-4.14-1.63l.07.06a28.75,28.75,0,0,0,0,14.42,5.25,5.25,0,0,0-.42.4,5.1,5.1,0,0,0-.63.82,5.73,5.73,0,0,0-.71,1.58,15.21,15.21,0,0,0-6.83,2.73c-2,1.32-4,2.57-9.63,2.66a32.76,32.76,0,0,0-5.29-.11c-1.44,0-2.92.1-4.85,0-1.34-.07-2.11-.88-3.46-2.42-1.8-2.06-4.22-4.65-9.37-5v4c3.29.3,4.8,1.89,6.36,3.67s3.17,3.62,6.25,3.78a49.83,49.83,0,0,0,5.21,0,24.19,24.19,0,0,1,7.86.69c2.6.64,12.09,9.67,14.77,14.32a4.25,4.25,0,0,0-.31.43,6.1,6.1,0,0,0,1.61,8.25l.29.2a6.12,6.12,0,1,0,3.27-11.3,6.16,6.16,0,0,0-1.55.2c-2.56-4.19-8.65-10.46-13.18-13.79a18.42,18.42,0,0,0,4.21-2.19A11.34,11.34,0,0,1,109.67,74Zm3.88-26.92a2.12,2.12,0,0,1,2.91-.66A2.11,2.11,0,1,1,114.21,50l-.1-.06A2.12,2.12,0,0,1,113.55,47.1Zm0,23.46a2.12,2.12,0,0,1,1.79-1,2,2,0,0,1,1.12.33,2.08,2.08,0,0,1,.94,1.32,2.11,2.11,0,0,1-3.19,2.24l-.1-.06A2.12,2.12,0,0,1,113.55,70.56Zm0,26.3a2.12,2.12,0,0,1,1.79-1,2.1,2.1,0,0,1,1.12.33,2.07,2.07,0,0,1,.94,1.33,2.1,2.1,0,0,1-.28,1.58,2.15,2.15,0,0,1-2.91.66l-.1-.07A2.11,2.11,0,0,1,113.55,96.86Z"/></g></g></svg>