<svg id="Layer_1" data-name="Layer 1" xmlns="http://www.w3.org/2000/svg" viewBox="0 0 140 190"><defs><style>.cls-1{fill:#754e37;}.cls-2{fill:#eb743b;}.cls-3{fill:#fffedb;}.cls-4{fill:#cfa691;}</style></defs><path class="cls-1" d="M15.53,142V106.7h12c4.12,0,7.27.84,9.44,2.5a8.6,8.6,0,0,1,3.25,7.26,9.06,9.06,0,0,1-1.18,4.7,7,7,0,0,1-3.48,2.93,6.77,6.77,0,0,1,3.85,2.78,8.81,8.81,0,0,1,1.36,5c0,3.52-1,6.08-3.06,7.7S32.6,142,28.5,142Zm8.58-20.63h4.12c2.28-.06,3.42-1.28,3.42-3.64a4.23,4.23,0,0,0-.85-3,3.4,3.4,0,0,0-2.6-.9H24.11Zm0,6v7.6H28.5a3.35,3.35,0,0,0,3.7-3.65q0-3.82-3.1-3.95Z"/><path class="cls-1" d="M45.08,125.94q0-6.85,3.24-10.75a11,11,0,0,1,8.94-3.91,11,11,0,0,1,9,3.91q3.23,3.9,3.23,10.81v1.92q0,6.88-3.2,10.76a11,11,0,0,1-9,3.88,11.08,11.08,0,0,1-9-3.89q-3.21-3.88-3.22-10.8Zm7.92,2Q53,136,57.32,136q4,0,4.29-6.75l0-3.32a12.68,12.68,0,0,0-1.14-6.11,3.56,3.56,0,0,0-3.24-2,3.47,3.47,0,0,0-3.13,2A12.82,12.82,0,0,0,53,125.94Z"/><path class="cls-1" d="M73.49,125.94q0-6.85,3.23-10.75a11,11,0,0,1,9-3.91,11,11,0,0,1,9,3.91q3.24,3.9,3.24,10.81v1.92q0,6.88-3.21,10.76a11,11,0,0,1-9,3.88,11,11,0,0,1-9-3.89q-3.22-3.88-3.22-10.8Zm7.91,2q0,8.08,4.32,8.09,4,0,4.3-6.75l0-3.32a12.68,12.68,0,0,0-1.14-6.11,3.56,3.56,0,0,0-3.23-2,3.49,3.49,0,0,0-3.14,2,12.82,12.82,0,0,0-1.13,6.11Z"/><path class="cls-1" d="M112.82,130.38l-2.12,2.37V142h-7.89V99.19h7.89v23.13l1-1.45,5.47-9h9.39l-8.75,12.43L127.37,142h-9Z"/><path class="cls-2" d="M1,188V152.7H13c4.12,0,7.27.84,9.44,2.5a8.61,8.61,0,0,1,3.26,7.26,9.07,9.07,0,0,1-1.19,4.7A6.91,6.91,0,0,1,21,170.09a6.74,6.74,0,0,1,3.85,2.78,8.81,8.81,0,0,1,1.36,5c0,3.52-1,6.08-3.06,7.7S18,188,13.92,188Zm8.58-20.63h4.12c2.28-.06,3.42-1.28,3.42-3.64a4.23,4.23,0,0,0-.85-3,3.4,3.4,0,0,0-2.6-.9H9.53Zm0,6v7.6h4.39a3.65,3.65,0,0,0,2.74-1,3.65,3.65,0,0,0,1-2.68q0-3.82-3.09-3.95Z"/><path class="cls-2" d="M46.31,165.45l-2.62-.22a4.3,4.3,0,0,0-4.38,2.84V188H31.4V157.84h7.44l.22,3.26c1.25-2.54,3-3.82,5.16-3.82a5.33,5.33,0,0,1,2.17.37Z"/><path class="cls-2" d="M63.84,188a11.67,11.67,0,0,1-.67-2.34,6.74,6.74,0,0,1-5.74,2.9,8.5,8.5,0,0,1-6.28-2.51,8.8,8.8,0,0,1-2.5-6.5,9.14,9.14,0,0,1,3-7.33c2-1.72,4.92-2.61,8.71-2.64h2.39v-2.43a4.57,4.57,0,0,0-.69-2.87,2.51,2.51,0,0,0-2-.84c-2,0-2.95,1.16-2.95,3.46H49.21a8.7,8.7,0,0,1,3.14-6.9,11.68,11.68,0,0,1,7.93-2.72q4.95,0,7.68,2.58t2.71,7.37v14.19a14.86,14.86,0,0,0,1.12,6.11V188Zm-4.65-5.63a4.43,4.43,0,0,0,2.23-.53,3.69,3.69,0,0,0,1.36-1.25v-6.28H60.89a4,4,0,0,0-3.16,1.29A4.86,4.86,0,0,0,56.57,179C56.57,181.25,57.44,182.37,59.19,182.37Z"/><path class="cls-2" d="M76.39,150a4.07,4.07,0,0,1,1.17-3,4.71,4.71,0,0,1,6.24,0A4.07,4.07,0,0,1,85,150a4.29,4.29,0,1,1-8.58,0Zm8.28,38H76.75V157.84h7.92Z"/><path class="cls-2" d="M98,157.84l.22,3a8.38,8.38,0,0,1,7-3.54q7.77,0,8,10.9V188h-7.92V168.77a6.94,6.94,0,0,0-.76-3.72,3,3,0,0,0-2.7-1.16,3.67,3.67,0,0,0-3.34,2.2V188H90.57V157.84Z"/><path class="cls-2" d="M127.59,181.45h11.93V188h-21.3v-4.93l11.66-18.65H118.5v-6.58h20.85v4.77Z"/><polygon class="cls-2" points="72 3 72 99 113 75 113 27 72 3"/><polygon class="cls-1" points="69 3 28 27 28 75 69 99 69 3"/><path class="cls-3" d="M104.28,59.09a6.75,6.75,0,0,0-7.67-2.86A18.09,18.09,0,0,0,88,50.6a28.62,28.62,0,0,0,5.91-6.16,6.91,6.91,0,0,0,5.17-.83,6.77,6.77,0,1,0-9.34-2.11,6.27,6.27,0,0,0,.42.59,23.88,23.88,0,0,1-9.52,7.79h0A18.45,18.45,0,0,1,72,52v5c4,0,5.93-1.12,10-2.9a14.78,14.78,0,0,1,11,4.75,6.76,6.76,0,1,0,12.16,5.32A6.64,6.64,0,0,0,104.28,59.09ZM94.06,35.67a2.57,2.57,0,0,1,1.4-.41,2.62,2.62,0,1,1,0,5.24,2.61,2.61,0,0,1-2.22-1.21A2.63,2.63,0,0,1,94.06,35.67Zm7.06,27.6A2.61,2.61,0,0,1,100,64.91a2.56,2.56,0,0,1-1.39.41,2.62,2.62,0,0,1-1.52-4.75l.12-.07a2.65,2.65,0,0,1,3.6.8A2.59,2.59,0,0,1,101.12,63.27Z"/><path class="cls-3" d="M69,82.73H64.32a1.07,1.07,0,0,1-1.07-1.07c0-1.54,0-3.28-5.58-4-5.82-.78-21-3.3-21.19-3.33a1.06,1.06,0,0,1-.9-1V31.92a1.09,1.09,0,0,1,.36-.8,1.06,1.06,0,0,1,.83-.26l4.81.54a1.07,1.07,0,1,1-.23,2.12l-3.63-.4V72.34c3.36.55,15.27,2.5,20.24,3.17,5.65.76,7.09,2.81,7.37,5.08H69Z"/><path class="cls-4" d="M66.6,37.48c0-6.28-11.68-15-25.13-11.88V66.92c13.81-.57,25.13,4.45,25.13,10.79Z"/><path class="cls-3" d="M49.1,35.94a1,1,0,0,0-1.05,1,.94.94,0,0,0,1,1.09C58.74,38,66.6,46.3,66.6,48.86v-2.8c0-2.69-7.34-10.12-17.46-10.12Z"/><path class="cls-3" d="M49.1,43.22a1.06,1.06,0,0,0-1.05,1,.94.94,0,0,0,1,1.09c9.68,0,17.54,8.26,17.54,10.83v-2.8c0-2.69-7.34-10.13-17.46-10.13Z"/><path class="cls-3" d="M49.1,50.51a1,1,0,0,0-1.05,1,.94.94,0,0,0,1,1.09c9.68,0,17.54,8.25,17.54,10.82v-2.8c0-2.69-7.34-10.12-17.46-10.12Z"/></svg>