<svg id="Layer_1" data-name="Layer 1" xmlns="http://www.w3.org/2000/svg" viewBox="0 0 420 100"><defs><style>.cls-1{fill:#754e37;}.cls-2{fill:#eb743b;}.cls-3{fill:#fffedb;}.cls-4{fill:#cfa691;}</style></defs><path class="cls-1" d="M103.46,71.82V28h14.89q7.66,0,11.71,3.1t4,9A11.25,11.25,0,0,1,132.63,46a8.6,8.6,0,0,1-4.32,3.64A8.41,8.41,0,0,1,133.09,53a11.06,11.06,0,0,1,1.69,6.23q0,6.54-3.8,9.55t-11.43,3Zm10.64-25.6h5.11q4.25-.12,4.25-4.51a5.32,5.32,0,0,0-1-3.71,4.3,4.3,0,0,0-3.24-1.1H114.1Zm0,7.41v9.43h5.45a4.16,4.16,0,0,0,4.59-4.53q0-4.76-3.84-4.9Z"/><path class="cls-1" d="M140.13,51.9q0-8.51,4-13.35t11.11-4.84q7.16,0,11.17,4.84t4,13.42v2.39q0,8.53-4,13.35t-11.13,4.8q-7.2,0-11.19-4.82t-4-13.4ZM150,54.36q0,10.1,5.36,10.1,4.94,0,5.32-8.43l0-4.14c0-3.43-.48-6-1.42-7.64a4.41,4.41,0,0,0-4-2.49,4.3,4.3,0,0,0-3.89,2.49c-.94,1.66-1.4,4.21-1.4,7.64Z"/><path class="cls-1" d="M175.38,51.9q0-8.51,4-13.35t11.1-4.84q7.17,0,11.18,4.84t4,13.42v2.39q0,8.53-4,13.35t-11.14,4.8q-7.19,0-11.19-4.82t-4-13.4Zm9.82,2.46q0,10.1,5.36,10.1,5,0,5.33-8.43l0-4.14q0-5.14-1.41-7.64a4.43,4.43,0,0,0-4-2.49,4.31,4.31,0,0,0-3.89,2.49q-1.4,2.49-1.4,7.64Z"/><path class="cls-1" d="M224.18,57.4l-2.63,2.94V71.82h-9.78V18.69h9.78V47.4l1.22-1.8,6.77-11.2H241.2L230.34,49.82l11.9,22H231Z"/><path class="cls-2" d="M245.56,71.82V28h14.89q7.67,0,11.71,3.1t4,9A11.34,11.34,0,0,1,274.74,46a8.62,8.62,0,0,1-4.33,3.64A8.41,8.41,0,0,1,275.19,53a11.06,11.06,0,0,1,1.69,6.23q0,6.54-3.8,9.55t-11.43,3Zm10.64-25.6h5.11q4.24-.12,4.25-4.51A5.32,5.32,0,0,0,264.51,38a4.29,4.29,0,0,0-3.23-1.1H256.2Zm0,7.41v9.43h5.45a4.16,4.16,0,0,0,4.59-4.53q0-4.76-3.84-4.9Z"/><path class="cls-2" d="M301.84,43.84l-3.25-.28a5.35,5.35,0,0,0-5.43,3.53V71.82h-9.82V34.4h9.23l.28,4q2.32-4.72,6.4-4.73a6.84,6.84,0,0,1,2.7.45Z"/><path class="cls-2" d="M323.6,71.82a14.12,14.12,0,0,1-.83-2.9,8.35,8.35,0,0,1-7.12,3.59,10.51,10.51,0,0,1-7.8-3.11,10.91,10.91,0,0,1-3.1-8.06q0-5.88,3.75-9.09T319.31,49h3V46a5.61,5.61,0,0,0-.87-3.56,3.1,3.1,0,0,0-2.52-1q-3.67,0-3.67,4.29h-9.79a10.84,10.84,0,0,1,3.89-8.56,14.5,14.5,0,0,1,9.84-3.37q6.16,0,9.53,3.2t3.38,9.14V63.66a18.32,18.32,0,0,0,1.38,7.58v.58Zm-5.77-7a5.42,5.42,0,0,0,2.76-.66,4.71,4.71,0,0,0,1.7-1.56V54.84h-2.36A5,5,0,0,0,316,56.43a6.1,6.1,0,0,0-1.44,4.26C314.57,63.45,315.66,64.84,317.83,64.84Z"/><path class="cls-2" d="M339.17,24.71A5,5,0,0,1,340.62,21a5.87,5.87,0,0,1,7.75,0,5,5,0,0,1,1.45,3.73,5.33,5.33,0,1,1-10.65,0Zm10.27,47.11h-9.82V34.4h9.82Z"/><path class="cls-2" d="M366,34.4l.28,3.7a10.37,10.37,0,0,1,8.68-4.39q9.66,0,9.93,13.52V71.82H375V48a8.53,8.53,0,0,0-1-4.62,3.68,3.68,0,0,0-3.33-1.44,4.56,4.56,0,0,0-4.15,2.74V71.82h-9.83V34.4Z"/><path class="cls-2" d="M402.71,63.76h14.8v8.06H391.09V65.75l14.45-23.19H391.43V34.4H417.3v5.91Z"/><polygon class="cls-2" points="47 2 47 98 88 74 88 26 47 2"/><polygon class="cls-1" points="44 2 3 26 3 74 44 98 44 2"/><path class="cls-3" d="M79.28,58.09a6.75,6.75,0,0,0-7.67-2.86A18.09,18.09,0,0,0,63,49.6a28.62,28.62,0,0,0,5.91-6.16,6.91,6.91,0,0,0,5.17-.83,6.77,6.77,0,1,0-9.34-2.11,6.27,6.27,0,0,0,.42.59,23.88,23.88,0,0,1-9.52,7.79h0A18.45,18.45,0,0,1,47,51v5c4,0,5.93-1.12,10-2.9a14.78,14.78,0,0,1,11,4.75,6.76,6.76,0,1,0,12.16,5.32A6.64,6.64,0,0,0,79.28,58.09ZM69.06,34.67a2.57,2.57,0,0,1,1.4-.41,2.62,2.62,0,1,1,0,5.24,2.61,2.61,0,0,1-2.22-1.21A2.63,2.63,0,0,1,69.06,34.67Zm7.06,27.6A2.61,2.61,0,0,1,75,63.91a2.56,2.56,0,0,1-1.39.41,2.62,2.62,0,0,1-1.52-4.75l.12-.07a2.65,2.65,0,0,1,3.6.8A2.59,2.59,0,0,1,76.12,62.27Z"/><path class="cls-3" d="M44,81.73H39.32a1.07,1.07,0,0,1-1.07-1.07c0-1.54,0-3.28-5.58-4-5.82-.78-21-3.3-21.19-3.33a1.06,1.06,0,0,1-.9-1V30.92a1.09,1.09,0,0,1,.36-.8,1.06,1.06,0,0,1,.83-.26l4.81.54a1.07,1.07,0,1,1-.23,2.12l-3.63-.4V71.34c3.36.55,15.27,2.5,20.24,3.17,5.65.76,7.09,2.81,7.37,5.08H44Z"/><path class="cls-4" d="M41.6,36.48c0-6.28-11.68-15-25.13-11.88V65.92c13.81-.57,25.13,4.45,25.13,10.79Z"/><path class="cls-3" d="M24.1,34.94a1,1,0,0,0-1.05,1,.94.94,0,0,0,1,1.09C33.74,37,41.6,45.3,41.6,47.86v-2.8c0-2.69-7.34-10.12-17.46-10.12Z"/><path class="cls-3" d="M24.1,42.22a1.06,1.06,0,0,0-1.05,1,.94.94,0,0,0,1,1.09c9.68,0,17.54,8.26,17.54,10.83v-2.8c0-2.69-7.34-10.13-17.46-10.13Z"/><path class="cls-3" d="M24.1,49.51a1,1,0,0,0-1.05,1,.94.94,0,0,0,1,1.09c9.68,0,17.54,8.25,17.54,10.82v-2.8c0-2.69-7.34-10.12-17.46-10.12Z"/></svg>