<svg id="Layer_1" data-name="Layer 1" xmlns="http://www.w3.org/2000/svg" viewBox="0 0 70 30"><defs><style>.cls-1{fill:#754e37;}.cls-2{fill:#eb743b;}</style></defs><polygon class="cls-1" points="14 1 2 8 2 22 14 29 14 1"/><polygon class="cls-2" points="15 1 27 8 27 22 15 29 15 1"/><path class="cls-1" d="M31.28,25V5.24h7.63A11,11,0,0,1,45,6.64a4.58,4.58,0,0,1,2.12,4.07,4.5,4.5,0,0,1-.78,2.62A4.37,4.37,0,0,1,44.12,15a4.4,4.4,0,0,1,2.55,1.61,4.51,4.51,0,0,1,.88,2.74,4.81,4.81,0,0,1-2,4.3A10.48,10.48,0,0,1,39.66,25ZM36.2,13.46h3q3,0,3-2.07a1.93,1.93,0,0,0-.72-1.7,3.93,3.93,0,0,0-2.2-.5H36.2Zm0,3.35v4.24h3.46a3.8,3.8,0,0,0,2.21-.56A1.78,1.78,0,0,0,42.65,19c0-1.42-.87-2.15-2.6-2.19Z"/><path class="cls-2" d="M50.5,25V5.24h7.63a11,11,0,0,1,6.08,1.4,4.58,4.58,0,0,1,2.12,4.07,4.56,4.56,0,0,1-.77,2.62A4.44,4.44,0,0,1,63.34,15a4.4,4.4,0,0,1,2.55,1.61,4.51,4.51,0,0,1,.88,2.74,4.81,4.81,0,0,1-2,4.3A10.48,10.48,0,0,1,58.88,25Zm4.92-11.54h3q3,0,3-2.07a1.93,1.93,0,0,0-.72-1.7,3.93,3.93,0,0,0-2.2-.5H55.42Zm0,3.35v4.24h3.46a3.78,3.78,0,0,0,2.21-.56A1.76,1.76,0,0,0,61.87,19c0-1.42-.87-2.15-2.6-2.19Z"/></svg>