<svg id="Layer_1" data-name="Layer 1" xmlns="http://www.w3.org/2000/svg" viewBox="0 0 236.94 32"><defs><style>.cls-1{fill:#36b5b2;}.cls-2{fill:#eb743b;}</style></defs><polygon class="cls-1" points="14 1 2 8 2 22 14 29 14 1"/><polygon class="cls-2" points="15 1 27 8 27 22 15 29 15 1"/><path class="cls-1" d="M52.75,18.23a6.87,6.87,0,0,1-2.56,5.14A9.5,9.5,0,0,1,44,25.27a8.47,8.47,0,0,1-6.49-2.52,9.93,9.93,0,0,1-2.43-6.94V14.69a10.14,10.14,0,0,1,2.4-7.08A8.33,8.33,0,0,1,44,5a9.31,9.31,0,0,1,6.15,1.92,7.55,7.55,0,0,1,2.64,5.29h-4.9Q47.7,8.91,44,8.92t-4,5.4v1.26A7.82,7.82,0,0,0,40.93,20,3.47,3.47,0,0,0,44,21.32a4.49,4.49,0,0,0,2.79-.74,3,3,0,0,0,1-2.35Z"/><path class="cls-1" d="M64.82,12.34a12.89,12.89,0,0,0-1.63-.12c-1.7,0-2.82.57-3.35,1.73V25H55.33V8.11h4.26l.12,2A4.19,4.19,0,0,1,63.47,7.8a5,5,0,0,1,1.41.2Z"/><path class="cls-1" d="M67,3.74a2.25,2.25,0,0,1,.68-1.67,2.94,2.94,0,0,1,3.69,0A2.22,2.22,0,0,1,72,3.74a2.23,2.23,0,0,1-.69,1.69,2.57,2.57,0,0,1-1.84.65,2.53,2.53,0,0,1-1.83-.65A2.2,2.2,0,0,1,67,3.74ZM71.74,25H67.22V8.11h4.52Z"/><path class="cls-1" d="M80.86,4V8.11h2.89v3.31H80.86v8.43a2,2,0,0,0,.36,1.34,1.81,1.81,0,0,0,1.37.41,7.52,7.52,0,0,0,1.33-.11v3.42a9.35,9.35,0,0,1-2.73.4q-4.75,0-4.84-4.79v-9.1H73.88V8.11h2.47V4Z"/><path class="cls-1" d="M86.23,3.74a2.21,2.21,0,0,1,.68-1.67,2.94,2.94,0,0,1,3.69,0,2.21,2.21,0,0,1,.68,1.67,2.23,2.23,0,0,1-.69,1.69,2.92,2.92,0,0,1-3.67,0A2.23,2.23,0,0,1,86.23,3.74ZM91,25H86.49V8.11H91Z"/><path class="cls-1" d="M94,16.4a10.11,10.11,0,0,1,1.77-6.29,5.79,5.79,0,0,1,4.86-2.31A5.18,5.18,0,0,1,105,9.88l.29-1.77h4V31.49h-4.53V23.55a5.21,5.21,0,0,1-4.09,1.76A5.73,5.73,0,0,1,95.83,23,10.56,10.56,0,0,1,94,16.4Zm4.51.32a6.67,6.67,0,0,0,.85,3.69,2.75,2.75,0,0,0,2.4,1.27A3,3,0,0,0,104.72,20V13a3,3,0,0,0-2.9-1.59A2.76,2.76,0,0,0,99.4,12.7,7.37,7.37,0,0,0,98.54,16.72Z"/><path class="cls-1" d="M122.9,23.28a5.62,5.62,0,0,1-4.61,2,5.33,5.33,0,0,1-4.15-1.56,6.66,6.66,0,0,1-1.46-4.57V8.11h4.51V19c0,1.76.8,2.64,2.41,2.64a3.27,3.27,0,0,0,3.15-1.6v-12h4.52V25H123Z"/><path class="cls-1" d="M138.45,25.31a8.29,8.29,0,0,1-6-2.28A8.11,8.11,0,0,1,130.07,17v-.43a10.24,10.24,0,0,1,1-4.55,7.23,7.23,0,0,1,2.79-3.09A7.75,7.75,0,0,1,138,7.8,7,7,0,0,1,143.4,10a8.84,8.84,0,0,1,2,6.19V18H134.64A4.24,4.24,0,0,0,136,20.68a4,4,0,0,0,2.79,1,4.87,4.87,0,0,0,4.07-1.89L145,22.27a6.85,6.85,0,0,1-2.75,2.24A9.13,9.13,0,0,1,138.45,25.31Zm-.52-13.87a2.79,2.79,0,0,0-2.17.91,4.61,4.61,0,0,0-1.07,2.6H141v-.36a3.35,3.35,0,0,0-.81-2.33A2.91,2.91,0,0,0,137.93,11.44Z"/><path class="cls-2" d="M147.9,25V5.24h7.64a11,11,0,0,1,6.07,1.4,4.58,4.58,0,0,1,2.12,4.07,4.56,4.56,0,0,1-.77,2.62A4.39,4.39,0,0,1,160.74,15a4.32,4.32,0,0,1,3.43,4.35,4.81,4.81,0,0,1-2,4.3A10.46,10.46,0,0,1,156.28,25Zm4.92-11.54h3q3,0,3-2.07a1.93,1.93,0,0,0-.72-1.7,3.91,3.91,0,0,0-2.2-.5h-3.07Zm0,3.35v4.24h3.46a3.78,3.78,0,0,0,2.21-.56,1.76,1.76,0,0,0,.78-1.49c0-1.42-.87-2.15-2.6-2.19Z"/><path class="cls-2" d="M176.67,12.34a12.89,12.89,0,0,0-1.63-.12c-1.71,0-2.82.57-3.35,1.73V25h-4.51V8.11h4.26l.12,2a4.19,4.19,0,0,1,3.76-2.33,5,5,0,0,1,1.41.2Z"/><path class="cls-2" d="M188.15,25a4.9,4.9,0,0,1-.45-1.51,5.47,5.47,0,0,1-4.26,1.82,6,6,0,0,1-4.11-1.43,4.62,4.62,0,0,1-1.63-3.62,4.8,4.8,0,0,1,2-4.13,9.9,9.9,0,0,1,5.76-1.45h2.07v-1a2.81,2.81,0,0,0-.6-1.88,2.39,2.39,0,0,0-1.9-.7,2.63,2.63,0,0,0-1.78.55,1.85,1.85,0,0,0-.65,1.5h-4.51a4.55,4.55,0,0,1,.9-2.72,6,6,0,0,1,2.56-2,9.45,9.45,0,0,1,3.72-.71,7.33,7.33,0,0,1,4.95,1.57A5.47,5.47,0,0,1,192,13.78V21.1a8,8,0,0,0,.67,3.63V25Zm-3.73-3.14a3.93,3.93,0,0,0,1.84-.44,2.91,2.91,0,0,0,1.25-1.2v-2.9h-1.68c-2.26,0-3.46.78-3.61,2.34v.27a1.8,1.8,0,0,0,.59,1.39A2.31,2.31,0,0,0,184.42,21.86Z"/><path class="cls-2" d="M195.47,3.74a2.25,2.25,0,0,1,.68-1.67,2.94,2.94,0,0,1,3.69,0,2.22,2.22,0,0,1,.69,1.67,2.2,2.2,0,0,1-.7,1.69,2.9,2.9,0,0,1-3.66,0A2.2,2.2,0,0,1,195.47,3.74ZM200.26,25h-4.52V8.11h4.52Z"/><path class="cls-2" d="M208.13,8.11l.14,2a5.91,5.91,0,0,1,4.85-2.26,4.91,4.91,0,0,1,4,1.58,7.36,7.36,0,0,1,1.34,4.71V25H214V14.17a3,3,0,0,0-.62-2.08,2.77,2.77,0,0,0-2.08-.65,3.11,3.11,0,0,0-2.86,1.62V25h-4.51V8.11Z"/><path class="cls-2" d="M227.06,21.36h8.26V25h-14V22.25l7.95-10.5h-7.71V8.11h13.53v2.66Z"/></svg>