<svg id="Layer_1" data-name="Layer 1" xmlns="http://www.w3.org/2000/svg" viewBox="0 0 180 200"><defs><style>.cls-1{fill:#eb743b;}.cls-2{fill:#36b5b2;}.cls-3{fill:#fffedb;}.cls-4{fill:#65d9d7;}</style></defs><polygon class="cls-1" points="92 3 92 99 133 75 133 27 92 3"/><polygon class="cls-2" points="89 3 48 27 48 75 89 99 89 3"/><path class="cls-3" d="M124.28,59.09a6.75,6.75,0,0,0-7.67-2.86A18.09,18.09,0,0,0,108,50.6a28.62,28.62,0,0,0,5.91-6.16,6.91,6.91,0,0,0,5.17-.83,6.77,6.77,0,1,0-9.34-2.11,6.27,6.27,0,0,0,.42.59,23.88,23.88,0,0,1-9.52,7.79h0A18.45,18.45,0,0,1,92,52v5c4,0,5.93-1.12,10-2.9a14.78,14.78,0,0,1,11,4.75,6.76,6.76,0,1,0,12.16,5.32A6.64,6.64,0,0,0,124.28,59.09ZM114.06,35.67a2.57,2.57,0,0,1,1.4-.41,2.62,2.62,0,1,1,0,5.24,2.61,2.61,0,0,1-2.22-1.21A2.63,2.63,0,0,1,114.06,35.67Zm7.06,27.6A2.61,2.61,0,0,1,120,64.91a2.56,2.56,0,0,1-1.39.41,2.62,2.62,0,0,1-1.52-4.75l.12-.07a2.65,2.65,0,0,1,3.6.8A2.59,2.59,0,0,1,121.12,63.27Z"/><polygon class="cls-4" points="59.04 32.14 58.11 58.94 64.11 65.85 64.29 65.86 63.68 74.33 80.03 66.51 89 66.88 89 27.09 65.95 26.14 59.04 32.14"/><path class="cls-3" d="M69.38,53.47a2.8,2.8,0,0,0,2.42,2.68L89,57V52l-17-.84A2.5,2.5,0,0,0,69.38,53.47Z"/><path class="cls-3" d="M69.38,41.15a2.81,2.81,0,0,0,2.42,2.68l17.2.85v-5l-17-.85A2.51,2.51,0,0,0,69.38,41.15Z"/><path class="cls-2" d="M29.28,135.91a12.72,12.72,0,0,1-3.86,9.21,13.52,13.52,0,0,1-9.56,3.36,12.29,12.29,0,0,1-10.11-4.56q-3.67-4.56-3.68-12.86v-1.48q0-8,3.73-12.68a12.08,12.08,0,0,1,10-4.68c3.95,0,7.12,1.13,9.48,3.39S29,121,29.34,125.09H20.73q0-5.75-5-5.75a4,4,0,0,0-3.84,2.43c-.82,1.61-1.23,4.12-1.25,7.52v1.91c0,3.74.39,6.38,1.19,7.92a4.15,4.15,0,0,0,4,2.31,4.64,4.64,0,0,0,3.63-1.32,6.28,6.28,0,0,0,1.21-4.2Z"/><path class="cls-2" d="M48.58,125.45,46,125.23a4.3,4.3,0,0,0-4.38,2.84V148H33.67V117.84h7.44l.22,3.26c1.25-2.54,3-3.82,5.16-3.82a5.33,5.33,0,0,1,2.17.37Z"/><path class="cls-2" d="M52.62,110a4.07,4.07,0,0,1,1.17-3A4.73,4.73,0,0,1,60,107a4.07,4.07,0,0,1,1.17,3,4,4,0,0,1-4.3,4.21,4.14,4.14,0,0,1-3.13-1.2A4.18,4.18,0,0,1,52.62,110Zm8.28,38H53V117.84H60.9Z"/><path class="cls-2" d="M76.17,110.43v7.41h4v5.91h-4v15a4.49,4.49,0,0,0,.49,2.46,2.22,2.22,0,0,0,1.88.67,7.31,7.31,0,0,0,1.87-.2l0,6.13a12.13,12.13,0,0,1-4.35.76q-7.64,0-7.72-8.77v-16H64.8v-5.91h3.49v-7.41Z"/><path class="cls-2" d="M84.54,110a4.07,4.07,0,0,1,1.17-3A4.71,4.71,0,0,1,92,107a4.07,4.07,0,0,1,1.17,3,4.29,4.29,0,1,1-8.58,0Zm8.27,38H84.9V117.84h7.91Z"/><path class="cls-2" d="M97.86,131.94q0-7.41,2.48-11a8.33,8.33,0,0,1,7.36-3.63,7.2,7.2,0,0,1,6.3,3.57l.5-3h6.88V159.6h-7.91V145.66a6.94,6.94,0,0,1-5.8,2.9,8.19,8.19,0,0,1-7.26-3.7q-2.49-3.69-2.55-10.63Zm7.92,2q0,4.38.94,6.23A3.35,3.35,0,0,0,110,142a3.81,3.81,0,0,0,3.51-1.87V125.78a3.74,3.74,0,0,0-3.49-2,3.35,3.35,0,0,0-3.21,1.82c-.65,1.2-1,3.22-1,6Z"/><path class="cls-2" d="M142.12,145.24a7.75,7.75,0,0,1-6.57,3.32,7.38,7.38,0,0,1-6.3-2.86c-1.44-1.9-2.15-4.68-2.15-8.32V117.84H135v19.74c0,2.93,1,4.4,2.93,4.4a4.07,4.07,0,0,0,3.9-2.34v-21.8h7.94V148h-7.41Z"/><path class="cls-2" d="M167.57,148.56q-6.07,0-9.47-3.63t-3.41-10.37v-2.39q0-7.14,3.13-11t8.94-3.88q5.69,0,8.56,3.64t2.93,10.75v3.87h-15.7a8.27,8.27,0,0,0,1.48,4.91,5,5,0,0,0,4,1.56,8.85,8.85,0,0,0,6.61-2.71l3.09,4.77a10.13,10.13,0,0,1-4.2,3.25A14.58,14.58,0,0,1,167.57,148.56Zm-5-18.51h7.89v-.73a8.41,8.41,0,0,0-.89-4.09,3.11,3.11,0,0,0-2.9-1.4,3.29,3.29,0,0,0-3,1.48A10.22,10.22,0,0,0,162.61,130.05Z"/><path class="cls-1" d="M21,197V161.7H33c4.12,0,7.27.84,9.44,2.5a8.61,8.61,0,0,1,3.26,7.26,9.07,9.07,0,0,1-1.19,4.7A6.91,6.91,0,0,1,41,179.09a6.74,6.74,0,0,1,3.85,2.78,8.81,8.81,0,0,1,1.36,5c0,3.52-1,6.08-3.06,7.7S38,197,33.92,197Zm8.58-20.63h4.12c2.28-.06,3.42-1.28,3.42-3.64a4.23,4.23,0,0,0-.85-3,3.4,3.4,0,0,0-2.6-.9H29.53Zm0,6v7.6h4.39a3.35,3.35,0,0,0,3.7-3.65q0-3.82-3.09-3.95Z"/><path class="cls-1" d="M66.31,174.45l-2.62-.22a4.3,4.3,0,0,0-4.38,2.84V197H51.4V166.84h7.44l.22,3.26c1.25-2.54,3-3.82,5.16-3.82a5.33,5.33,0,0,1,2.17.37Z"/><path class="cls-1" d="M83.84,197a11.67,11.67,0,0,1-.67-2.34,6.74,6.74,0,0,1-5.74,2.9,8.5,8.5,0,0,1-6.28-2.51,8.8,8.8,0,0,1-2.5-6.5,9.14,9.14,0,0,1,3-7.33c2-1.72,4.92-2.61,8.71-2.64h2.39v-2.43a4.57,4.57,0,0,0-.69-2.87,2.51,2.51,0,0,0-2-.84c-2,0-3,1.16-3,3.46H69.21a8.7,8.7,0,0,1,3.14-6.9,11.68,11.68,0,0,1,7.93-2.72q4.95,0,7.68,2.58t2.71,7.37v14.19a14.86,14.86,0,0,0,1.12,6.11V197Zm-4.65-5.63a4.43,4.43,0,0,0,2.23-.53,3.69,3.69,0,0,0,1.36-1.25v-6.28H80.89a4,4,0,0,0-3.16,1.29A4.86,4.86,0,0,0,76.57,188C76.57,190.25,77.44,191.37,79.19,191.37Z"/><path class="cls-1" d="M96.39,159a4.07,4.07,0,0,1,1.17-3,4.71,4.71,0,0,1,6.24,0,4.07,4.07,0,0,1,1.17,3,4.29,4.29,0,1,1-8.58,0Zm8.28,38H96.75V166.84h7.92Z"/><path class="cls-1" d="M118,166.84l.22,3a8.38,8.38,0,0,1,7-3.54q7.77,0,8,10.9V197h-7.92V177.77a6.94,6.94,0,0,0-.76-3.72,3,3,0,0,0-2.7-1.16,3.67,3.67,0,0,0-3.34,2.2V197h-7.92V166.84Z"/><path class="cls-1" d="M147.59,190.45h11.93V197h-21.3v-4.93l11.66-18.65H138.5v-6.58h20.85v4.77Z"/></svg>