<svg xmlns="http://www.w3.org/2000/svg" viewBox="0 0 280 305"><defs><style>.cls-1{isolation:isolate;}.cls-2{fill:#36b5b2;}.cls-3{fill:#eb743b;}.cls-4{fill:#289793;}.cls-5{fill:#65d9d7;}.cls-6{fill:#fffedb;}.cls-7{mix-blend-mode:multiply;opacity:0.07;}.cls-8{fill:#d3562c;}</style></defs><g class="cls-1"><g id="Layer_1" data-name="Layer 1"><path class="cls-2" d="M46.06,205.75q-.37,9-6,14.25t-14.79,5.21q-9.93,0-15.63-7.06T4,198.25V196q0-12.37,5.76-19.62a18.7,18.7,0,0,1,15.42-7.24q9.2,0,14.67,5.25T46.15,189H32.84q0-8.91-7.69-8.9a6.25,6.25,0,0,0-5.93,3.75q-1.89,3.75-1.94,11.64v3q0,8.68,1.85,12.25a6.4,6.4,0,0,0,6.16,3.57q3.8,0,5.63-2t1.87-6.5Z"/><path class="cls-2" d="M75.92,189.57l-4-.34q-5,0-6.78,4.39v30.84H52.85V177.8H64.36l.35,5q2.88-5.91,8-5.91a8.45,8.45,0,0,1,3.37.57Z"/><path class="cls-2" d="M82.17,165.72A6.32,6.32,0,0,1,84,161.07a7.32,7.32,0,0,1,9.66,0,6.28,6.28,0,0,1,1.81,4.65,6.64,6.64,0,1,1-13.28,0ZM95,224.46H82.73V177.8H95Z"/><path class="cls-2" d="M118.61,166.33V177.8h6.25v9.14h-6.25v23.19a6.75,6.75,0,0,0,.76,3.8,3.4,3.4,0,0,0,2.91,1,11.48,11.48,0,0,0,2.89-.3l-.09,9.49a19.14,19.14,0,0,1-6.73,1.16q-11.8,0-11.94-13.56V186.94H101V177.8h5.39V166.33Z"/><path class="cls-2" d="M131.55,165.72a6.28,6.28,0,0,1,1.81-4.65,7.32,7.32,0,0,1,9.66,0,6.28,6.28,0,0,1,1.81,4.65,6.64,6.64,0,1,1-13.28,0Zm12.81,58.74H132.11V177.8h12.25Z"/><path class="cls-2" d="M152.16,199.62q0-11.48,3.84-17.08t11.38-5.61q6.13,0,9.75,5.53l.78-4.66h10.65v64.6H176.31V220.83a10.7,10.7,0,0,1-9,4.49q-7.36,0-11.23-5.71t-4-16.46Zm12.25,3.06c0,4.51.49,7.73,1.47,9.64a5.15,5.15,0,0,0,5,2.87,5.88,5.88,0,0,0,5.43-2.89V190.09a5.78,5.78,0,0,0-5.39-3,5.18,5.18,0,0,0-5,2.8q-1.49,2.81-1.53,9.36Z"/><path class="cls-2" d="M220.64,220.19a12,12,0,0,1-10.18,5.13q-6.42,0-9.74-4.42T197.4,208V177.8h12.2v30.53q.09,6.81,4.53,6.81a6.31,6.31,0,0,0,6-3.62V177.8h12.29v46.66H221Z"/><path class="cls-2" d="M260,225.32q-9.39,0-14.66-5.61t-5.26-16V200q0-11,4.83-17t13.84-6q8.81,0,13.24,5.62t4.53,16.65v6H252.25c.17,3.47.94,6,2.29,7.6s3.43,2.41,6.25,2.41A13.72,13.72,0,0,0,271,211l4.79,7.38a15.83,15.83,0,0,1-6.51,5A22.38,22.38,0,0,1,260,225.32Zm-7.67-28.63h12.2v-1.13a13.06,13.06,0,0,0-1.38-6.33c-.86-1.44-2.36-2.16-4.48-2.16a5.08,5.08,0,0,0-4.64,2.28C253.08,190.88,252.51,193.32,252.34,196.69Z"/><path class="cls-3" d="M33.18,302.46V247.85H51.74q9.57,0,14.6,3.87c3.36,2.57,5,6.32,5,11.22a14,14,0,0,1-1.83,7.27,10.72,10.72,0,0,1-5.39,4.54,10.45,10.45,0,0,1,6,4.29,13.73,13.73,0,0,1,2.1,7.76q0,8.16-4.73,11.91t-14.25,3.75Zm13.26-31.92h6.38c3.53-.1,5.3-2,5.3-5.63,0-2.16-.44-3.69-1.32-4.62a5.32,5.32,0,0,0-4-1.38H46.44Zm0,9.23v11.77h6.8A5.69,5.69,0,0,0,57.48,290,5.62,5.62,0,0,0,59,285.89q0-5.92-4.78-6.12Z"/><path class="cls-3" d="M103.35,267.57l-4-.34q-5,0-6.77,4.39v30.84H80.28V255.8H91.79l.35,5q2.88-5.91,8-5.91a8.39,8.39,0,0,1,3.36.57Z"/><path class="cls-3" d="M130.47,302.46a17.17,17.17,0,0,1-1-3.63,10.42,10.42,0,0,1-8.88,4.49,13.14,13.14,0,0,1-9.73-3.88A13.66,13.66,0,0,1,107,289.39q0-7.33,4.68-11.34t13.48-4.1h3.71V270.2q0-3.15-1.08-4.44a3.88,3.88,0,0,0-3.15-1.3c-3,0-4.57,1.79-4.57,5.35H107.83a13.49,13.49,0,0,1,4.86-10.67A18.06,18.06,0,0,1,125,254.93q7.68,0,11.88,4T141,270.33v21.95a23,23,0,0,0,1.72,9.44v.74Zm-7.2-8.71a6.88,6.88,0,0,0,3.45-.82,5.91,5.91,0,0,0,2.12-1.94v-9.71H125.9a6.26,6.26,0,0,0-4.89,2,7.62,7.62,0,0,0-1.79,5.3Q119.22,293.75,123.27,293.75Z"/><path class="cls-3" d="M149.88,243.72a6.28,6.28,0,0,1,1.81-4.65,7.32,7.32,0,0,1,9.66,0,6.28,6.28,0,0,1,1.81,4.65,6.64,6.64,0,1,1-13.28,0Zm12.81,58.74H150.44V255.8h12.25Z"/><path class="cls-3" d="M183.3,255.8l.35,4.61a12.94,12.94,0,0,1,10.82-5.48q12,0,12.38,16.87v30.66H194.6V272.7q0-4-1.19-5.75c-.79-1.2-2.17-1.79-4.16-1.79-2.21,0-3.94,1.13-5.17,3.4v33.9H171.83V255.8Z"/><path class="cls-3" d="M229.1,292.32h18.46v10.14H214.61v-7.64l18-28.85H215V255.8H247.3v7.37Z"/><polygon class="cls-3" points="141.97 2.46 141.97 146.46 202.97 111.46 202.97 37.46 141.97 2.46"/><polygon class="cls-2" points="136.97 2.46 75.97 37.46 75.97 111.46 136.97 146.46 136.97 2.46"/><polygon class="cls-4" points="91.96 49.24 90.55 89.52 99.57 99.9 99.83 99.91 98.93 112.64 123.5 100.88 136.97 101.43 136.97 41.65 102.34 40.23 91.96 49.24"/><polygon class="cls-5" points="91.96 46.24 90.55 86.52 99.57 96.9 99.83 96.91 98.93 109.64 123.5 97.88 136.97 98.43 136.97 38.65 102.34 37.23 91.96 46.24"/><path class="cls-6" d="M110.34,55.38a1.57,1.57,0,0,0,0,3.14l26.68,1V56.39l-26.57-1Z"/><path class="cls-6" d="M108.78,67.92a1.56,1.56,0,0,0,1.51,1.63l26.68,1V67.42l-26.57-1A1.53,1.53,0,0,0,108.78,67.92Z"/><path class="cls-6" d="M108.78,79a1.56,1.56,0,0,0,1.51,1.63l26.68,1V78.45l-26.57-1A1.53,1.53,0,0,0,108.78,79Z"/><g class="cls-7"><path d="M159.27,94.19a2.1,2.1,0,0,1,1.82-1,2.07,2.07,0,0,1,1.08.3,2.11,2.11,0,0,1-1.09,3.93,2.2,2.2,0,0,1-1.08-.3,2.13,2.13,0,0,1-.73-2.9Zm12.6,22.36a2.09,2.09,0,0,1-1.37.51,2.11,2.11,0,0,1-1.38-3.71,2.06,2.06,0,0,1,1.37-.52,2.11,2.11,0,0,1,1.61.74,2.12,2.12,0,0,1-.23,3Z"/><path d="M151,48.07l.21,0Z"/><path d="M162.35,57.71a2.11,2.11,0,0,1,.67-.66,2.17,2.17,0,0,1,1.12-.31,2.09,2.09,0,0,1,1.12.32,2.11,2.11,0,0,1-1.13,3.9,2.1,2.1,0,0,1-1.78-3.25Zm6.38-20.18a2.15,2.15,0,0,1-2.92.65l-.09-.06a2.11,2.11,0,0,1-.56-2.85,2.08,2.08,0,0,1,1.78-1,2.15,2.15,0,0,1,1.13.32,2.11,2.11,0,0,1,.93,1.33A2.07,2.07,0,0,1,168.73,37.53Z"/><path d="M185.49,49.12a2.12,2.12,0,0,1,3.85.68,2.09,2.09,0,0,1-.28,1.58,2.14,2.14,0,0,1-2.91.66l-.1-.07A2.1,2.1,0,0,1,185.49,49.12Zm0,23.47a2.12,2.12,0,0,1,2.91-.66,2.16,2.16,0,0,1,.94,1.33,2.11,2.11,0,0,1-3.19,2.24l-.1-.06A2.11,2.11,0,0,1,185.49,72.59Zm0,26.3a2.12,2.12,0,0,1,1.79-1,2,2,0,0,1,1.12.33,2.1,2.1,0,0,1,.66,2.91,2.14,2.14,0,0,1-2.91.65l-.1-.06A2.11,2.11,0,0,1,185.49,98.89Z"/><path d="M175.14,108.56a6.12,6.12,0,0,0-10.72,4.74,19.86,19.86,0,0,1-5.32,1.33,4.11,4.11,0,0,1-2.23-1,10.56,10.56,0,0,0-4.15-1.85A37.66,37.66,0,0,0,161.31,99a6.12,6.12,0,0,0,2.91-11.37,6.07,6.07,0,0,0-3.13-.86,6.15,6.15,0,0,0-5.26,3,6.13,6.13,0,0,0,1.62,8.07c-4,9.21-9.22,13.08-12.56,14.68a2,2,0,0,0-.36.17,11.77,11.77,0,0,1-2.56.81v4a12.54,12.54,0,0,0,4.24-1.2c5.35-1.35,6.84-.35,8.41.71a7.79,7.79,0,0,0,4.26,1.66h.31a23.61,23.61,0,0,0,7-1.72,6.18,6.18,0,0,0,4.29,1.75h0a6.12,6.12,0,0,0,4.64-10.11ZM159.27,91.79a2.09,2.09,0,0,1,1.82-1,2.17,2.17,0,0,1,1.08.3,2.12,2.12,0,0,1,.73,2.9,2.11,2.11,0,0,1-3.63-2.16Zm12.6,22.36a2.09,2.09,0,0,1-1.37.51,2.11,2.11,0,0,1-1.38-3.72,2.09,2.09,0,0,1,1.37-.51,2.11,2.11,0,0,1,1.61.74,2.06,2.06,0,0,1,.5,1.54A2.08,2.08,0,0,1,171.87,114.15Z"/><path d="M151,45.66l.21.05Z"/><path d="M172.92,32.66a6.12,6.12,0,1,0-11,4.82A13.31,13.31,0,0,1,152,41.77a29.12,29.12,0,0,0-10-2.31v4a24.91,24.91,0,0,1,8.74,2.14h0a21.76,21.76,0,0,1,8.61,7,5.93,5.93,0,0,0-.38.54,6.12,6.12,0,1,0,8.44-1.91,6.2,6.2,0,0,0-4.66-.75,26,26,0,0,0-5.35-5.57,16.39,16.39,0,0,0,7.78-5.09,6.21,6.21,0,0,0,1.77.26,6.13,6.13,0,0,0,6-7.45ZM162.35,55.31a2,2,0,0,1,.67-.66,2.12,2.12,0,0,1,2.24,0,2.12,2.12,0,0,1-1.13,3.91,2.07,2.07,0,0,1-1.13-.33A2.12,2.12,0,0,1,162.35,55.31Zm6.38-20.19a2.15,2.15,0,0,1-2.92.65l-.09-.06a2.11,2.11,0,0,1,1.22-3.83,2.12,2.12,0,0,1,1.79,3.24Z"/><path d="M181.61,73.64a6,6,0,0,0,2.11,2.65l.28.2a6.15,6.15,0,0,0,8.45-1.9,6.13,6.13,0,0,0-5.17-9.4l-.38,0a25.63,25.63,0,0,1,0-11.26l.33,0a6.12,6.12,0,0,0,3.27-11.3,6.18,6.18,0,0,0-3.26-.94,6.11,6.11,0,0,0-4.15,10.61l.07.06a28.64,28.64,0,0,0,0,14.42,5.25,5.25,0,0,0-.42.4,6.43,6.43,0,0,0-.64.82,6.35,6.35,0,0,0-.71,1.58,15.16,15.16,0,0,0-6.82,2.73c-2,1.33-4,2.57-9.64,2.67a32.77,32.77,0,0,0-5.29-.12c-1.43,0-2.91.11-4.85,0-1.33-.07-2.1-.88-3.45-2.42-1.81-2.06-4.22-4.65-9.37-5v4c3.29.3,4.79,1.88,6.35,3.66s3.18,3.62,6.26,3.79c2.12.11,3.76,0,5.21,0a24.35,24.35,0,0,1,7.85.68c2.61.64,12.1,9.67,14.78,14.32-.11.14-.22.29-.32.44a6.11,6.11,0,0,0,1.62,8.25l.28.19a6.12,6.12,0,0,0,8.45-1.9,6.12,6.12,0,0,0-5.17-9.39,6.15,6.15,0,0,0-1.55.19c-2.56-4.18-8.65-10.45-13.19-13.79a17.83,17.83,0,0,0,4.21-2.19A11.39,11.39,0,0,1,181.61,73.64Zm3.88-26.92a2.12,2.12,0,0,1,2.91-.66,2.16,2.16,0,0,1,.94,1.33,2.11,2.11,0,0,1-3.19,2.24l-.1-.06A2.11,2.11,0,0,1,185.49,46.72Zm0,23.46a2.12,2.12,0,0,1,1.79-1,2,2,0,0,1,1.12.33,2.1,2.1,0,0,1,.66,2.91,2.14,2.14,0,0,1-2.91.65l-.1-.06A2.1,2.1,0,0,1,185.49,70.18Zm0,26.31a2.12,2.12,0,0,1,2.91-.66,2.11,2.11,0,1,1-2.25,3.57l-.1-.06A2.11,2.11,0,0,1,185.49,96.49Z"/></g><path class="cls-8" d="M175.14,111.56a6.12,6.12,0,0,0-10.72,4.74,19.86,19.86,0,0,1-5.32,1.33,4.11,4.11,0,0,1-2.23-1,10.56,10.56,0,0,0-4.15-1.85A37.66,37.66,0,0,0,161.31,102a6.12,6.12,0,0,0,2.91-11.37,6.07,6.07,0,0,0-3.13-.86,6.15,6.15,0,0,0-5.26,3,6.13,6.13,0,0,0,1.62,8.07c-4,9.21-9.22,13.08-12.56,14.68a2,2,0,0,0-.36.17,11.77,11.77,0,0,1-2.56.81v4a12.54,12.54,0,0,0,4.24-1.2c5.35-1.35,6.84-.35,8.41.71a7.79,7.79,0,0,0,4.26,1.66h.31a23.61,23.61,0,0,0,7-1.72,6.18,6.18,0,0,0,4.29,1.75h0a6.12,6.12,0,0,0,4.64-10.11ZM159.27,94.79a2.09,2.09,0,0,1,1.82-1,2.17,2.17,0,0,1,1.08.3,2.12,2.12,0,0,1,.73,2.9,2.11,2.11,0,0,1-3.63-2.16Zm12.6,22.36a2.09,2.09,0,0,1-1.37.51,2.11,2.11,0,0,1-1.38-3.72,2.09,2.09,0,0,1,1.37-.51,2.11,2.11,0,0,1,1.61.74,2.06,2.06,0,0,1,.5,1.54A2.08,2.08,0,0,1,171.87,117.15Z"/><path d="M151,48.07l.21,0Z"/><path class="cls-8" d="M172.92,35.67a6.12,6.12,0,1,0-11,4.82A13.35,13.35,0,0,1,152,44.78a28.93,28.93,0,0,0-10-2.32v4a24.65,24.65,0,0,1,8.74,2.13h0a21.68,21.68,0,0,1,8.61,7,4,4,0,0,0-.38.54,6.12,6.12,0,1,0,8.44-1.91,6.2,6.2,0,0,0-4.66-.76A26.19,26.19,0,0,0,157.39,48a16.34,16.34,0,0,0,7.78-5.1,6.22,6.22,0,0,0,1.77.27,6.13,6.13,0,0,0,6-7.45ZM162.35,58.31a2.11,2.11,0,0,1,.67-.66,2.09,2.09,0,0,1,2.24,0,2.11,2.11,0,0,1-1.13,3.9,2.1,2.1,0,0,1-1.78-3.25Zm6.38-20.19a2.14,2.14,0,0,1-2.92.66l-.09-.06a2.12,2.12,0,0,1,1.22-3.84,2.16,2.16,0,0,1,1.13.33,2.09,2.09,0,0,1,.93,1.33A2,2,0,0,1,168.73,38.12Z"/><path class="cls-8" d="M181.61,76.64a6,6,0,0,0,2.11,2.65l.28.2a6.15,6.15,0,0,0,8.45-1.9,6.13,6.13,0,0,0-5.17-9.4l-.38,0a25.63,25.63,0,0,1,0-11.26l.33,0a6.12,6.12,0,0,0,3.27-11.3,6.18,6.18,0,0,0-3.26-.94,6.11,6.11,0,0,0-4.15,10.61l.07.06a28.64,28.64,0,0,0,0,14.42,5.25,5.25,0,0,0-.42.4,6.43,6.43,0,0,0-.64.82,6.35,6.35,0,0,0-.71,1.58,15.16,15.16,0,0,0-6.82,2.73c-2,1.33-4,2.57-9.64,2.67a32.77,32.77,0,0,0-5.29-.12c-1.43,0-2.91.11-4.85,0-1.33-.07-2.1-.88-3.45-2.42-1.81-2.06-4.22-4.65-9.37-5v4c3.29.3,4.79,1.88,6.35,3.66s3.18,3.62,6.26,3.79c2.12.11,3.76,0,5.21,0a24.35,24.35,0,0,1,7.85.68c2.61.64,12.1,9.67,14.78,14.32-.11.14-.22.29-.32.44a6.11,6.11,0,0,0,1.62,8.25l.28.19a6.12,6.12,0,0,0,8.45-1.9,6.12,6.12,0,0,0-5.17-9.39,6.15,6.15,0,0,0-1.55.19c-2.56-4.18-8.65-10.45-13.19-13.79a17.83,17.83,0,0,0,4.21-2.19A11.39,11.39,0,0,1,181.61,76.64Zm3.88-26.92a2.12,2.12,0,0,1,2.91-.66,2.16,2.16,0,0,1,.94,1.33,2.11,2.11,0,0,1-3.19,2.24l-.1-.06A2.11,2.11,0,0,1,185.49,49.72Zm0,23.46a2.12,2.12,0,0,1,1.79-1,2,2,0,0,1,1.12.33,2.1,2.1,0,0,1,.66,2.91,2.14,2.14,0,0,1-2.91.65l-.1-.06A2.1,2.1,0,0,1,185.49,73.18Zm0,26.31a2.12,2.12,0,0,1,2.91-.66,2.11,2.11,0,1,1-2.25,3.57l-.1-.06A2.11,2.11,0,0,1,185.49,99.49Z"/><path class="cls-6" d="M175.14,108.56a6.12,6.12,0,0,0-10.72,4.74,19.86,19.86,0,0,1-5.32,1.33,4.11,4.11,0,0,1-2.23-1,10.56,10.56,0,0,0-4.15-1.85A37.66,37.66,0,0,0,161.31,99a6.12,6.12,0,0,0,2.91-11.37,6.07,6.07,0,0,0-3.13-.86,6.15,6.15,0,0,0-5.26,3,6.13,6.13,0,0,0,1.62,8.07c-4,9.21-9.22,13.08-12.56,14.68a2,2,0,0,0-.36.17,11.77,11.77,0,0,1-2.56.81v4a12.54,12.54,0,0,0,4.24-1.2c5.35-1.35,6.84-.35,8.41.71a7.79,7.79,0,0,0,4.26,1.66h.31a23.61,23.61,0,0,0,7-1.72,6.18,6.18,0,0,0,4.29,1.75h0a6.12,6.12,0,0,0,4.64-10.11ZM159.27,91.79a2.09,2.09,0,0,1,1.82-1,2.17,2.17,0,0,1,1.08.3,2.12,2.12,0,0,1,.73,2.9,2.11,2.11,0,0,1-3.63-2.16Zm12.6,22.36a2.09,2.09,0,0,1-1.37.51,2.11,2.11,0,0,1-1.38-3.72,2.09,2.09,0,0,1,1.37-.51,2.11,2.11,0,0,1,1.61.74,2.06,2.06,0,0,1,.5,1.54A2.08,2.08,0,0,1,171.87,114.15Z"/><path class="cls-6" d="M151,45.66l.21.05Z"/><path class="cls-6" d="M172.92,32.66a6.12,6.12,0,1,0-11,4.82A13.31,13.31,0,0,1,152,41.77a29.12,29.12,0,0,0-10-2.31v4a24.91,24.91,0,0,1,8.74,2.14h0a21.76,21.76,0,0,1,8.61,7,5.93,5.93,0,0,0-.38.54,6.12,6.12,0,1,0,8.44-1.91,6.2,6.2,0,0,0-4.66-.75,26,26,0,0,0-5.35-5.57,16.39,16.39,0,0,0,7.78-5.09,6.21,6.21,0,0,0,1.77.26,6.13,6.13,0,0,0,6-7.45ZM162.35,55.31a2,2,0,0,1,.67-.66,2.12,2.12,0,0,1,2.24,0,2.12,2.12,0,0,1-1.13,3.91,2.07,2.07,0,0,1-1.13-.33A2.12,2.12,0,0,1,162.35,55.31Zm6.38-20.19a2.15,2.15,0,0,1-2.92.65l-.09-.06a2.11,2.11,0,0,1,1.22-3.83,2.12,2.12,0,0,1,1.79,3.24Z"/><path class="cls-6" d="M181.61,73.64a6,6,0,0,0,2.11,2.65l.28.2a6.15,6.15,0,0,0,8.45-1.9,6.13,6.13,0,0,0-5.17-9.4l-.38,0a25.63,25.63,0,0,1,0-11.26l.33,0a6.12,6.12,0,0,0,3.27-11.3,6.18,6.18,0,0,0-3.26-.94,6.11,6.11,0,0,0-4.15,10.61l.07.06a28.64,28.64,0,0,0,0,14.42,5.25,5.25,0,0,0-.42.4,6.43,6.43,0,0,0-.64.82,6.35,6.35,0,0,0-.71,1.58,15.16,15.16,0,0,0-6.82,2.73c-2,1.33-4,2.57-9.64,2.67a32.77,32.77,0,0,0-5.29-.12c-1.43,0-2.91.11-4.85,0-1.33-.07-2.1-.88-3.45-2.42-1.81-2.06-4.22-4.65-9.37-5v4c3.29.3,4.79,1.88,6.35,3.66s3.18,3.62,6.26,3.79c2.12.11,3.76,0,5.21,0a24.35,24.35,0,0,1,7.85.68c2.61.64,12.1,9.67,14.78,14.32-.11.14-.22.29-.32.44a6.11,6.11,0,0,0,1.62,8.25l.28.19a6.12,6.12,0,0,0,8.45-1.9,6.12,6.12,0,0,0-5.17-9.39,6.15,6.15,0,0,0-1.55.19c-2.56-4.18-8.65-10.45-13.19-13.79a17.83,17.83,0,0,0,4.21-2.19A11.39,11.39,0,0,1,181.61,73.64Zm3.88-26.92a2.12,2.12,0,0,1,2.91-.66,2.16,2.16,0,0,1,.94,1.33,2.11,2.11,0,0,1-3.19,2.24l-.1-.06A2.11,2.11,0,0,1,185.49,46.72Zm0,23.46a2.12,2.12,0,0,1,1.79-1,2,2,0,0,1,1.12.33,2.1,2.1,0,0,1,.66,2.91,2.14,2.14,0,0,1-2.91.65l-.1-.06A2.1,2.1,0,0,1,185.49,70.18Zm0,26.31a2.12,2.12,0,0,1,2.91-.66,2.11,2.11,0,1,1-2.25,3.57l-.1-.06A2.11,2.11,0,0,1,185.49,96.49Z"/></g></g></svg>