<svg xmlns="http://www.w3.org/2000/svg" viewBox="0 0 464.81 150"><defs><style>.cls-1{isolation:isolate;}.cls-2{fill:#36b5b2;}.cls-3{fill:#eb743b;}.cls-4{fill:#289793;}.cls-5{fill:#65d9d7;}.cls-6{fill:#fffedb;}.cls-7{mix-blend-mode:multiply;opacity:0.07;}.cls-8{fill:#d3562c;}</style></defs><g class="cls-1"><g id="Layer_1" data-name="Layer 1"><path class="cls-2" d="M203.79,51.13a18.9,18.9,0,0,1-7,14.2q-6.5,5.25-17.08,5.25-11.4,0-17.93-7T155,44.43v-3.1q0-12.22,6.63-19.54t17.93-7.31q10.59,0,17,5.29t7.31,14.63H190.3q-.48-9-10.74-9-10.68,0-11,14.93v3.46q0,8.39,2.6,12.13t8.51,3.74q5.1,0,7.71-2t2.83-6.48Z"/><path class="cls-2" d="M237.14,34.86a33.67,33.67,0,0,0-4.48-.34q-7.08,0-9.27,4.78V69.83H210.93V23.17H222.7l.34,5.57q3.75-6.43,10.4-6.43a13.19,13.19,0,0,1,3.88.56Z"/><path class="cls-2" d="M243.05,11.1a6.12,6.12,0,0,1,1.88-4.61,8.06,8.06,0,0,1,10.2,0A6.09,6.09,0,0,1,257,11.1a6.15,6.15,0,0,1-1.91,4.66,8,8,0,0,1-10.14,0A6.12,6.12,0,0,1,243.05,11.1Zm13.24,58.73h-12.5V23.17h12.5Z"/><path class="cls-2" d="M281.47,11.7V23.17h8v9.15h-8V55.6a5.51,5.51,0,0,0,1,3.71c.66.75,1.92,1.12,3.79,1.12a20.09,20.09,0,0,0,3.67-.3v9.45a26,26,0,0,1-7.55,1.12q-13.11,0-13.37-13.24V32.32H262.2V23.17H269V11.7Z"/><path class="cls-2" d="M296.31,11.1a6.12,6.12,0,0,1,1.88-4.61,8,8,0,0,1,10.19,0,6.06,6.06,0,0,1,1.9,4.61,6.12,6.12,0,0,1-1.92,4.66,8,8,0,0,1-10.13,0A6.12,6.12,0,0,1,296.31,11.1Zm13.24,58.73H297V23.17h12.51Z"/><path class="cls-2" d="M317.87,46.07q0-11,4.9-17.38a16,16,0,0,1,13.43-6.38,14.31,14.31,0,0,1,11.94,5.74l.82-4.88h11v64.6H347.41v-22a14.36,14.36,0,0,1-11.3,4.88,15.89,15.89,0,0,1-13.28-6.47Q317.87,57.77,317.87,46.07Zm12.46.89q0,6.69,2.35,10.19a7.54,7.54,0,0,0,6.62,3.5q5.74,0,8.11-4.58V36.76q-2.32-4.4-8-4.4a7.61,7.61,0,0,0-6.68,3.5Q330.33,39.35,330.33,47Z"/><path class="cls-2" d="M397.65,65.09Q393,70.7,384.88,70.7q-7.5,0-11.44-4.32t-4-12.63V23.17h12.47V53.35q0,7.31,6.64,7.3,6.33,0,8.71-4.4V23.17h12.5V69.83H398Z"/><path class="cls-2" d="M440.6,70.7q-10.26,0-16.71-6.3t-6.45-16.77V46.42a28.18,28.18,0,0,1,2.72-12.57,19.92,19.92,0,0,1,7.7-8.54,21.59,21.59,0,0,1,11.36-3q9.57,0,15.07,6t5.5,17.12v5.09H430.08a11.59,11.59,0,0,0,3.64,7.33,11,11,0,0,0,7.7,2.76,13.47,13.47,0,0,0,11.26-5.22l6.12,6.86a18.76,18.76,0,0,1-7.59,6.19A24.92,24.92,0,0,1,440.6,70.7Zm-1.42-38.34a7.82,7.82,0,0,0-6,2.51,13,13,0,0,0-3,7.19h17.33v-1a9.24,9.24,0,0,0-2.24-6.44A8.06,8.06,0,0,0,439.18,32.36Z"/><path class="cls-3" d="M156.64,138.83V84.23h21.09q10.92,0,16.78,3.87a13.61,13.61,0,0,1,3.73,18.5,12.16,12.16,0,0,1-6.12,4.57,12.18,12.18,0,0,1,7,4.45,12.32,12.32,0,0,1,2.44,7.58q0,8.1-5.58,11.87t-16.21,3.76ZM170.23,107h8.35q8.19,0,8.2-5.74,0-3.3-2-4.68t-6.07-1.39h-8.49Zm0,9.23v11.72h9.57a10.27,10.27,0,0,0,6.09-1.55,4.81,4.81,0,0,0,2.16-4.1q0-5.88-7.18-6.07Z"/><path class="cls-3" d="M236.11,103.86a33.67,33.67,0,0,0-4.48-.34q-7.08,0-9.27,4.78v30.53H209.89V92.17h11.78l.34,5.57q3.75-6.43,10.39-6.43a13.25,13.25,0,0,1,3.89.56Z"/><path class="cls-3" d="M267.85,138.83a14,14,0,0,1-1.25-4.18,15.09,15.09,0,0,1-11.77,5,16.62,16.62,0,0,1-11.37-4,12.78,12.78,0,0,1-4.5-10q0-7.41,5.5-11.38t15.89-4h5.73v-2.67a7.67,7.67,0,0,0-1.66-5.18q-1.65-1.94-5.24-1.94a7.38,7.38,0,0,0-4.93,1.51,5.12,5.12,0,0,0-1.79,4.14H240a12.51,12.51,0,0,1,2.51-7.5,16.49,16.49,0,0,1,7.07-5.42,25.89,25.89,0,0,1,10.26-2q8.63,0,13.69,4.34t5.07,12.18v20.22q0,6.64,1.85,10v.73Zm-10.31-8.66a10.73,10.73,0,0,0,5.09-1.23,8,8,0,0,0,3.45-3.3v-8h-4.65q-9.36,0-10,6.47l0,.73a5,5,0,0,0,1.64,3.84A6.39,6.39,0,0,0,257.54,130.17Z"/><path class="cls-3" d="M288.08,80.1A6.11,6.11,0,0,1,290,75.49a8.06,8.06,0,0,1,10.2,0,6.58,6.58,0,0,1,0,9.27,8,8,0,0,1-10.13,0A6.12,6.12,0,0,1,288.08,80.1Zm13.24,58.73H288.81V92.17h12.51Z"/><path class="cls-3" d="M323.05,92.17l.39,5.39a16.3,16.3,0,0,1,13.41-6.25q7.41,0,11,4.36t3.71,13v30.14H339.13V108.92q0-4-1.72-5.77t-5.74-1.79a8.59,8.59,0,0,0-7.89,4.49v33H311.32V92.17Z"/><path class="cls-3" d="M375.36,128.79h22.81v10H359.45v-7.59l21.95-29H360.09v-10h37.39v7.35Z"/><polygon class="cls-3" points="70.03 2.83 70.03 146.83 131.03 111.83 131.03 37.83 70.03 2.83"/><polygon class="cls-2" points="65.03 2.83 4.03 37.83 4.03 111.83 65.03 146.83 65.03 2.83"/><polygon class="cls-4" points="20.02 49.62 18.61 89.89 27.63 100.27 27.9 100.28 26.99 113.02 51.56 101.26 65.03 101.81 65.03 42.02 30.4 40.6 20.02 49.62"/><polygon class="cls-5" points="20.02 46.62 18.61 86.89 27.63 97.27 27.9 97.28 26.99 110.02 51.56 98.26 65.03 98.81 65.03 39.02 30.4 37.6 20.02 46.62"/><path class="cls-6" d="M38.41,55.76a1.57,1.57,0,0,0-.06,3.14l26.68,1V56.77l-26.56-1Z"/><path class="cls-6" d="M36.84,68.3a1.56,1.56,0,0,0,1.51,1.62l26.68,1V67.8l-26.56-1A1.53,1.53,0,0,0,36.84,68.3Z"/><path class="cls-6" d="M36.84,79.33A1.57,1.57,0,0,0,38.35,81L65,82V78.83l-26.56-1A1.54,1.54,0,0,0,36.84,79.33Z"/><g class="cls-7"><path d="M87.33,94.57a2.1,2.1,0,0,1,1.82-1,2.16,2.16,0,0,1,1.08.29,2.12,2.12,0,0,1,.73,2.9,2.07,2.07,0,0,1-1.81,1,2.11,2.11,0,0,1-1.09-.3,2.11,2.11,0,0,1-.73-2.89Zm12.6,22.36a2.07,2.07,0,0,1-1.37.51,2.11,2.11,0,1,1,2.11-2A2.14,2.14,0,0,1,99.93,116.93Z"/><path d="M79,48.44l.21.05Z"/><path d="M90.41,58.09a2,2,0,0,1,.67-.66,2.11,2.11,0,0,1,1.12-.32,2.24,2.24,0,0,1,1.13.32,2.12,2.12,0,0,1-1.14,3.91A2,2,0,0,1,91.07,61,2.12,2.12,0,0,1,90.41,58.09ZM96.79,37.9a2.15,2.15,0,0,1-2.91.66l-.1-.07A2.11,2.11,0,0,1,95,34.66a2.15,2.15,0,0,1,1.12.33,2.11,2.11,0,0,1,.94,1.33A2.09,2.09,0,0,1,96.79,37.9Z"/><path d="M113.55,49.5a2.12,2.12,0,0,1,1.79-1,2,2,0,0,1,1.12.33,2.07,2.07,0,0,1,.94,1.33,2.1,2.1,0,0,1-.28,1.58,2.14,2.14,0,0,1-2.91.65l-.1-.06A2.11,2.11,0,0,1,113.55,49.5Zm0,23.46a2.12,2.12,0,0,1,1.79-1,2.11,2.11,0,0,1,1.78,3.24,2.14,2.14,0,0,1-2.91.66l-.1-.07A2.11,2.11,0,0,1,113.55,73Zm0,26.31a2.12,2.12,0,0,1,2.91-.66,2.11,2.11,0,1,1-2.25,3.57l-.1-.06A2.12,2.12,0,0,1,113.55,99.27Z"/><path d="M103.21,108.94a6.12,6.12,0,0,0-10.72,4.73A19.62,19.62,0,0,1,87.16,115a4,4,0,0,1-2.23-1,10.65,10.65,0,0,0-4.14-1.84,37.76,37.76,0,0,0,8.58-12.84,6.11,6.11,0,1,0-6.16-4.6,6,6,0,0,0,2.3,3.42c-4.05,9.22-9.22,13.08-12.56,14.69a1.49,1.49,0,0,0-.36.17,11,11,0,0,1-2.56.8v4a12.47,12.47,0,0,0,4.25-1.19c5.34-1.36,6.84-.35,8.4.71A8,8,0,0,0,87,119h.3a23.68,23.68,0,0,0,7-1.72A6.1,6.1,0,0,0,98.56,119h0a6.12,6.12,0,0,0,4.65-10.1ZM87.33,92.16a2.12,2.12,0,0,1,1.82-1,2.17,2.17,0,0,1,1.08.3,2.12,2.12,0,0,1,.73,2.9,2.09,2.09,0,0,1-1.81,1,2.21,2.21,0,0,1-1.09-.3,2.13,2.13,0,0,1-.73-2.9Zm12.6,22.36a2,2,0,0,1-1.37.51,2.11,2.11,0,0,1-1.38-3.71,2.11,2.11,0,0,1,3,.23,2.08,2.08,0,0,1-.23,3Z"/><path d="M79,46l.21.05Z"/><path d="M101,33a6.12,6.12,0,0,0-2.71-3.85A6.18,6.18,0,0,0,95,28.25a6.12,6.12,0,0,0-5,9.61,13.38,13.38,0,0,1-10,4.29,29.39,29.39,0,0,0-10-2.32v4A24.79,24.79,0,0,1,78.78,46h0a21.54,21.54,0,0,1,8.61,7,4,4,0,0,0-.38.54A6.14,6.14,0,0,0,88.92,62a6,6,0,0,0,3.27,1,6.13,6.13,0,0,0,3.27-11.31,6.2,6.2,0,0,0-4.66-.75,26,26,0,0,0-5.35-5.57,16.34,16.34,0,0,0,7.78-5.1,5.94,5.94,0,0,0,1.77.27,6.07,6.07,0,0,0,5.17-2.85A6,6,0,0,0,101,33ZM90.41,55.69a2.14,2.14,0,0,1,.67-.67,2.2,2.2,0,0,1,1.12-.31,2.12,2.12,0,1,1,0,4.23,2.12,2.12,0,0,1-1.78-3.25ZM96.79,35.5a2.14,2.14,0,0,1-2.91.65l-.1-.06A2.11,2.11,0,0,1,95,32.26a2.14,2.14,0,0,1,1.12.32,2.16,2.16,0,0,1,.94,1.33A2.12,2.12,0,0,1,96.79,35.5Z"/><path d="M109.67,74a6.09,6.09,0,0,0,2.11,2.65l.29.19a6.12,6.12,0,1,0,6.53-10.35,6.18,6.18,0,0,0-3.26-.94l-.38,0a25.67,25.67,0,0,1,0-11.27l.33,0a6.12,6.12,0,1,0-4.14-1.63l.07.06a28.75,28.75,0,0,0,0,14.42,5.25,5.25,0,0,0-.42.4,5.1,5.1,0,0,0-.63.82,5.73,5.73,0,0,0-.71,1.58,15.21,15.21,0,0,0-6.83,2.73c-2,1.32-4,2.57-9.63,2.66a32.76,32.76,0,0,0-5.29-.11c-1.44,0-2.92.1-4.85,0-1.34-.07-2.11-.88-3.46-2.42-1.8-2.06-4.22-4.65-9.37-5v4c3.29.3,4.8,1.89,6.36,3.67s3.17,3.62,6.25,3.78a49.83,49.83,0,0,0,5.21,0,24.19,24.19,0,0,1,7.86.69c2.6.64,12.09,9.67,14.77,14.32a4.25,4.25,0,0,0-.31.43,6.1,6.1,0,0,0,1.61,8.25l.29.2a6.12,6.12,0,1,0,3.27-11.3,6.16,6.16,0,0,0-1.55.2c-2.56-4.19-8.65-10.46-13.18-13.79a18.42,18.42,0,0,0,4.21-2.19A11.34,11.34,0,0,1,109.67,74Zm3.88-26.92a2.12,2.12,0,0,1,2.91-.66A2.11,2.11,0,1,1,114.21,50l-.1-.06A2.12,2.12,0,0,1,113.55,47.1Zm0,23.46a2.12,2.12,0,0,1,1.79-1,2,2,0,0,1,1.12.33,2.08,2.08,0,0,1,.94,1.32,2.11,2.11,0,0,1-3.19,2.24l-.1-.06A2.12,2.12,0,0,1,113.55,70.56Zm0,26.3a2.12,2.12,0,0,1,1.79-1,2.1,2.1,0,0,1,1.12.33,2.07,2.07,0,0,1,.94,1.33,2.1,2.1,0,0,1-.28,1.58,2.15,2.15,0,0,1-2.91.66l-.1-.07A2.11,2.11,0,0,1,113.55,96.86Z"/></g><path class="cls-8" d="M103.21,111.94a6.12,6.12,0,0,0-10.72,4.73A19.62,19.62,0,0,1,87.16,118a4,4,0,0,1-2.23-1,10.65,10.65,0,0,0-4.14-1.84,37.76,37.76,0,0,0,8.58-12.84,6.11,6.11,0,1,0-6.16-4.6,6,6,0,0,0,2.3,3.42c-4.05,9.22-9.22,13.08-12.56,14.69a1.49,1.49,0,0,0-.36.17,11,11,0,0,1-2.56.8v4a12.47,12.47,0,0,0,4.25-1.19c5.34-1.36,6.84-.35,8.4.71A8,8,0,0,0,87,122h.3a23.68,23.68,0,0,0,7-1.72A6.1,6.1,0,0,0,98.56,122h0a6.12,6.12,0,0,0,4.65-10.1ZM87.33,95.16a2.12,2.12,0,0,1,1.82-1,2.17,2.17,0,0,1,1.08.3,2.12,2.12,0,0,1,.73,2.9,2.09,2.09,0,0,1-1.81,1,2.21,2.21,0,0,1-1.09-.3,2.13,2.13,0,0,1-.73-2.9Zm12.6,22.36a2,2,0,0,1-1.37.51,2.11,2.11,0,0,1-1.38-3.71,2.11,2.11,0,0,1,3,.23,2.08,2.08,0,0,1-.23,3Z"/><path d="M79,48.44l.21.05Z"/><path class="cls-8" d="M101,36a6.12,6.12,0,1,0-11,4.82,13.36,13.36,0,0,1-10,4.3,28.93,28.93,0,0,0-10-2.32v4A25,25,0,0,1,78.78,49h0A21.57,21.57,0,0,1,87.4,56a4.7,4.7,0,0,0-.38.53,6.2,6.2,0,1,0,3.78-2.66,26.24,26.24,0,0,0-5.35-5.57,16.39,16.39,0,0,0,7.78-5.09,6.27,6.27,0,0,0,1.77.26A6.12,6.12,0,0,0,101,36ZM90.41,58.69a2,2,0,0,1,.67-.66,2.11,2.11,0,0,1,1.12-.32,2.12,2.12,0,1,1,0,4.23,2,2,0,0,1-1.12-.33A2.12,2.12,0,0,1,90.41,58.69ZM96.79,38.5a2.15,2.15,0,0,1-2.91.66l-.1-.07A2.11,2.11,0,0,1,95,35.26a2.15,2.15,0,0,1,1.12.33,2.1,2.1,0,0,1,.66,2.91Z"/><path class="cls-8" d="M109.67,77a6.09,6.09,0,0,0,2.11,2.65l.29.19a6.12,6.12,0,1,0,6.53-10.35,6.18,6.18,0,0,0-3.26-.94l-.38,0a25.67,25.67,0,0,1,0-11.27l.33,0a6.12,6.12,0,1,0-4.14-1.63l.07.06a28.75,28.75,0,0,0,0,14.42,5.25,5.25,0,0,0-.42.4,5.1,5.1,0,0,0-.63.82,5.73,5.73,0,0,0-.71,1.58,15.21,15.21,0,0,0-6.83,2.73c-2,1.32-4,2.57-9.63,2.66a32.76,32.76,0,0,0-5.29-.11c-1.44,0-2.92.1-4.85,0-1.34-.07-2.11-.88-3.46-2.42-1.8-2.06-4.22-4.65-9.37-5v4c3.29.3,4.8,1.89,6.36,3.67s3.17,3.62,6.25,3.78a49.83,49.83,0,0,0,5.21,0,24.19,24.19,0,0,1,7.86.69c2.6.64,12.09,9.67,14.77,14.32a4.25,4.25,0,0,0-.31.43,6.1,6.1,0,0,0,1.61,8.25l.29.2a6.12,6.12,0,1,0,3.27-11.3,6.16,6.16,0,0,0-1.55.2c-2.56-4.19-8.65-10.46-13.18-13.79a18.42,18.42,0,0,0,4.21-2.19A11.34,11.34,0,0,1,109.67,77Zm3.88-26.92a2.12,2.12,0,0,1,2.91-.66A2.11,2.11,0,1,1,114.21,53l-.1-.06A2.12,2.12,0,0,1,113.55,50.1Zm0,23.46a2.12,2.12,0,0,1,1.79-1,2,2,0,0,1,1.12.33,2.08,2.08,0,0,1,.94,1.32,2.11,2.11,0,0,1-3.19,2.24l-.1-.06A2.12,2.12,0,0,1,113.55,73.56Zm0,26.3a2.12,2.12,0,0,1,1.79-1,2.1,2.1,0,0,1,1.12.33,2.07,2.07,0,0,1,.94,1.33,2.1,2.1,0,0,1-.28,1.58,2.15,2.15,0,0,1-2.91.66l-.1-.07A2.11,2.11,0,0,1,113.55,99.86Z"/><path class="cls-6" d="M103.21,108.94a6.12,6.12,0,0,0-10.72,4.73A19.62,19.62,0,0,1,87.16,115a4,4,0,0,1-2.23-1,10.65,10.65,0,0,0-4.14-1.84,37.76,37.76,0,0,0,8.58-12.84,6.11,6.11,0,1,0-6.16-4.6,6,6,0,0,0,2.3,3.42c-4.05,9.22-9.22,13.08-12.56,14.69a1.49,1.49,0,0,0-.36.17,11,11,0,0,1-2.56.8v4a12.47,12.47,0,0,0,4.25-1.19c5.34-1.36,6.84-.35,8.4.71A8,8,0,0,0,87,119h.3a23.68,23.68,0,0,0,7-1.72A6.1,6.1,0,0,0,98.56,119h0a6.12,6.12,0,0,0,4.65-10.1ZM87.33,92.16a2.12,2.12,0,0,1,1.82-1,2.17,2.17,0,0,1,1.08.3,2.12,2.12,0,0,1,.73,2.9,2.09,2.09,0,0,1-1.81,1,2.21,2.21,0,0,1-1.09-.3,2.13,2.13,0,0,1-.73-2.9Zm12.6,22.36a2,2,0,0,1-1.37.51,2.11,2.11,0,0,1-1.38-3.71,2.11,2.11,0,0,1,3,.23,2.08,2.08,0,0,1-.23,3Z"/><path class="cls-6" d="M79,46l.21.05Z"/><path class="cls-6" d="M101,33a6.12,6.12,0,0,0-2.71-3.85A6.18,6.18,0,0,0,95,28.25a6.12,6.12,0,0,0-5,9.61,13.38,13.38,0,0,1-10,4.29,29.39,29.39,0,0,0-10-2.32v4A24.79,24.79,0,0,1,78.78,46h0a21.54,21.54,0,0,1,8.61,7,4,4,0,0,0-.38.54A6.14,6.14,0,0,0,88.92,62a6,6,0,0,0,3.27,1,6.13,6.13,0,0,0,3.27-11.31,6.2,6.2,0,0,0-4.66-.75,26,26,0,0,0-5.35-5.57,16.34,16.34,0,0,0,7.78-5.1,5.94,5.94,0,0,0,1.77.27,6.07,6.07,0,0,0,5.17-2.85A6,6,0,0,0,101,33ZM90.41,55.69a2.14,2.14,0,0,1,.67-.67,2.2,2.2,0,0,1,1.12-.31,2.12,2.12,0,1,1,0,4.23,2.12,2.12,0,0,1-1.78-3.25ZM96.79,35.5a2.14,2.14,0,0,1-2.91.65l-.1-.06A2.11,2.11,0,0,1,95,32.26a2.14,2.14,0,0,1,1.12.32,2.16,2.16,0,0,1,.94,1.33A2.12,2.12,0,0,1,96.79,35.5Z"/><path class="cls-6" d="M109.67,74a6.09,6.09,0,0,0,2.11,2.65l.29.19a6.12,6.12,0,1,0,6.53-10.35,6.18,6.18,0,0,0-3.26-.94l-.38,0a25.67,25.67,0,0,1,0-11.27l.33,0a6.12,6.12,0,1,0-4.14-1.63l.07.06a28.75,28.75,0,0,0,0,14.42,5.25,5.25,0,0,0-.42.4,5.1,5.1,0,0,0-.63.82,5.73,5.73,0,0,0-.71,1.58,15.21,15.21,0,0,0-6.83,2.73c-2,1.32-4,2.57-9.63,2.66a32.76,32.76,0,0,0-5.29-.11c-1.44,0-2.92.1-4.85,0-1.34-.07-2.11-.88-3.46-2.42-1.8-2.06-4.22-4.65-9.37-5v4c3.29.3,4.8,1.89,6.36,3.67s3.17,3.62,6.25,3.78a49.83,49.83,0,0,0,5.21,0,24.19,24.19,0,0,1,7.86.69c2.6.64,12.09,9.67,14.77,14.32a4.25,4.25,0,0,0-.31.43,6.1,6.1,0,0,0,1.61,8.25l.29.2a6.12,6.12,0,1,0,3.27-11.3,6.16,6.16,0,0,0-1.55.2c-2.56-4.19-8.65-10.46-13.18-13.79a18.42,18.42,0,0,0,4.21-2.19A11.34,11.34,0,0,1,109.67,74Zm3.88-26.92a2.12,2.12,0,0,1,2.91-.66A2.11,2.11,0,1,1,114.21,50l-.1-.06A2.12,2.12,0,0,1,113.55,47.1Zm0,23.46a2.12,2.12,0,0,1,1.79-1,2,2,0,0,1,1.12.33,2.08,2.08,0,0,1,.94,1.32,2.11,2.11,0,0,1-3.19,2.24l-.1-.06A2.12,2.12,0,0,1,113.55,70.56Zm0,26.3a2.12,2.12,0,0,1,1.79-1,2.1,2.1,0,0,1,1.12.33,2.07,2.07,0,0,1,.94,1.33,2.1,2.1,0,0,1-.28,1.58,2.15,2.15,0,0,1-2.91.66l-.1-.07A2.11,2.11,0,0,1,113.55,96.86Z"/></g></g></svg>