<svg id="Layer_1" data-name="Layer 1" xmlns="http://www.w3.org/2000/svg" viewBox="0 0 500 100"><defs><style>.cls-1{fill:#eb743b;}.cls-2{fill:#36b5b2;}.cls-3{fill:#fffedb;}.cls-4{fill:#65d9d7;}</style></defs><polygon class="cls-1" points="47 2 47 98 88 74 88 26 47 2"/><polygon class="cls-2" points="44 2 3 26 3 74 44 98 44 2"/><path class="cls-3" d="M79.28,58.09a6.75,6.75,0,0,0-7.67-2.86A18.09,18.09,0,0,0,63,49.6a28.62,28.62,0,0,0,5.91-6.16,6.91,6.91,0,0,0,5.17-.83,6.77,6.77,0,1,0-9.34-2.11,6.27,6.27,0,0,0,.42.59,23.88,23.88,0,0,1-9.52,7.79h0A18.45,18.45,0,0,1,47,51v5c4,0,5.93-1.12,10-2.9a14.78,14.78,0,0,1,11,4.75,6.76,6.76,0,1,0,12.16,5.32A6.64,6.64,0,0,0,79.28,58.09ZM69.06,34.67a2.57,2.57,0,0,1,1.4-.41,2.62,2.62,0,1,1,0,5.24,2.61,2.61,0,0,1-2.22-1.21A2.63,2.63,0,0,1,69.06,34.67Zm7.06,27.6A2.61,2.61,0,0,1,75,63.91a2.56,2.56,0,0,1-1.39.41,2.62,2.62,0,0,1-1.52-4.75l.12-.07a2.65,2.65,0,0,1,3.6.8A2.59,2.59,0,0,1,76.12,62.27Z"/><polygon class="cls-4" points="14.04 31.14 13.11 57.94 19.11 64.85 19.29 64.86 18.68 73.33 35.03 65.51 44 65.88 44 26.09 20.95 25.14 14.04 31.14"/><path class="cls-3" d="M24.38,52.47a2.8,2.8,0,0,0,2.42,2.68L44,56V51l-17-.84A2.5,2.5,0,0,0,24.38,52.47Z"/><path class="cls-3" d="M24.38,40.15a2.81,2.81,0,0,0,2.42,2.68l17.2.85v-5l-17-.85A2.51,2.51,0,0,0,24.38,40.15Z"/><path class="cls-1" d="M325.93,72.18v-44h15.21q7.85,0,12,3.1t4.13,9a11.07,11.07,0,0,1-1.5,5.83,8.82,8.82,0,0,1-4.42,3.65,8.53,8.53,0,0,1,4.88,3.44,10.83,10.83,0,0,1,1.73,6.23q0,6.54-3.88,9.55c-2.59,2-6.23,3.19-11.43,3.19Zm10.87-25.8H342c2.89-.07,4.34-1.58,4.34-4.51a5.18,5.18,0,0,0-1.08-3.7,4.38,4.38,0,0,0-3.3-1.12H336.8Zm0,7.41v9.44h5.57a4.74,4.74,0,0,0,3.48-1.2,4.5,4.5,0,0,0,1.21-3.33q0-4.76-3.92-4.91Z"/><path class="cls-1" d="M383,44.18l-3.62-.7A5.4,5.4,0,0,0,373.9,47V72H364V34.23h9.31l.28,4.08c1.56-3.18,2.85-4.31,5.59-4.31A13,13,0,0,1,383,35.27Z"/><path class="cls-2" d="M161,44.18l-3.62-.7A5.4,5.4,0,0,0,151.9,47V72H142V34.23h9.31l.28,4.08c1.56-3.18,2.85-4.31,5.59-4.31A13,13,0,0,1,161,35.27Z"/><path class="cls-2" d="M276,68a10.8,10.8,0,0,1-8.87,4c-3.45,0-5.63-.49-7.41-2.87S257,63.3,257,58.76L257,34h10V59.33c.05,3.66,1.61,4.67,4,4.67s3-.19,4-2.13V34h10V72h-8.95Z"/><path class="cls-1" d="M403.93,72.18v-3.8c-1.76,2.41-5.84,3.8-8.84,3.8s-4.89-.53-7-2.61a11.05,11.05,0,0,1-3.1-8.1q0-5.91,3.76-9.14c2.5-2.15,5.38-2.91,10.09-2.95l4.05-.2L402.59,46a5.74,5.74,0,0,0-.86-3.58,3.85,3.85,0,0,0-2.8-1.25c-2.45,0-4,1.12-4,4h-9a9.72,9.72,0,0,1,3.69-8.08c2.6-2.26,5.29-2.92,9.26-2.92s7.88.6,10.14,2.74a11.1,11.1,0,0,1,3.75,8.66V63.31c.05,3.24.28,5,1.16,6.87v2ZM398.12,65a7.69,7.69,0,0,0,3.28-.4,2.78,2.78,0,0,0,1.27-1.27V54.44h-2.53a5.21,5.21,0,0,0-3.83,2.1,6.13,6.13,0,0,0-1.44,4.27Q394.87,65,398.12,65Z"/><path class="cls-1" d="M445.93,34.18v4c2.21-3,5.34-4,8.91-4,6.43,0,9.9,3.61,10.09,12.66V72.18h-10v-24a9,9,0,0,0-1.33-4.79A3.71,3.71,0,0,0,450.26,42c-1.77,0-3.34.4-4.33,2.23v28h-10v-38Z"/><path class="cls-1" d="M482.79,63.31h14.14v8.87h-27v-7.6L484.07,43H469.93V34.18h27v7.6Z"/><rect class="cls-1" x="419.93" y="34.18" width="10" height="38"/><path class="cls-1" d="M429.86,26.15a5,5,0,1,0-5,5A5,5,0,0,0,429.86,26.15Z"/><rect class="cls-2" x="205" y="34" width="10" height="38"/><path class="cls-2" d="M214.93,26A5,5,0,1,0,205,26a5,5,0,0,0,9.93,0Z"/><rect class="cls-2" x="165" y="34" width="10" height="38"/><path class="cls-2" d="M174.93,26A5,5,0,1,0,165,26a5,5,0,0,0,9.93,0Z"/><path class="cls-2" d="M136,57c-.2,4.84-1.67,8.47-4.66,11.25S124.91,72,120,72c-5.31,0-10-1.46-13.06-5.23S102,55.87,102,49h0c0-6.62,1.91-11.9,5-15.77S113.84,27,119,27a17.53,17.53,0,0,1,12.13,4.6C134.06,34.38,135.55,38,136,43H126c0-4.76-2.89-7-7-7-2.16,0-3.38,1.19-4.39,3.2S113,43.77,113,48v4c0,4.66.54,6.88,1.53,8.8A6.21,6.21,0,0,0,120,64a4.82,4.82,0,0,0,4-2,7.4,7.4,0,0,0,2-5Z"/><path class="cls-2" d="M221,52c0-6.13,1.26-10.8,3.31-13.8S230,34,234,34c3.27,0,6.06,1,8,4V34h8V86h-9V69c-1.82,2.4-5,3-8,3-3.94,0-6.54-1-8.6-4.07s-3.35-7.35-3.4-13.09Zm10,2c0,3.64.45,6.6,1.24,8.14a4.14,4.14,0,0,0,4,2.32A5.46,5.46,0,0,0,241,62V44c-.92-1.62-2.76-2.24-4.72-2.24a4.15,4.15,0,0,0-4,2.27c-.8,1.51-1.27,3.44-1.29,7Z"/><path class="cls-2" d="M306,72.18q-7.54,0-11.76-4.5T290,54.81v-3q0-8.85,3.87-13.66c2.59-3.21,6.29-4,11.11-4s8.24.69,10.62,3.7,3.33,7.4,3.38,13.3v5H300c.14,2.8.52,4.7,1.61,6a6.14,6.14,0,0,0,5,2,10.87,10.87,0,0,0,8.2-3.43l3.84,5.92a12.69,12.69,0,0,1-5.22,4A18.08,18.08,0,0,1,306,72.18Zm-6.16-23h9.79V48.3a10.56,10.56,0,0,0-1.11-5.13,3.83,3.83,0,0,0-3.59-1.74,4,4,0,0,0-3.72,1.85A12.86,12.86,0,0,0,299.84,49.21Z"/><path class="cls-2" d="M194,25.18v9h5v7h-5v19c0,1.47,0,2.09.39,2.65a2.77,2.77,0,0,0,2.34.83,7.88,7.88,0,0,0,2.27-.48v8a13.19,13.19,0,0,1-5,1c-6.32,0-9.93-2.75-10-10v-21h-4v-7h4v-9Z"/></svg>