<svg id="Layer_1" data-name="Layer 1" xmlns="http://www.w3.org/2000/svg" viewBox="0 0 301.47 100"><defs><style>.cls-1{fill:#36b5b2;}.cls-2{fill:#eb743b;}.cls-3{fill:#fffedb;}.cls-4{fill:#65d9d7;}</style></defs><path class="cls-1" d="M134,33.91a12.21,12.21,0,0,1-4.56,9.18q-4.19,3.39-11,3.39Q111,46.48,106.8,42t-4.35-12.41v-2q0-7.91,4.29-12.63t11.59-4.73q6.84,0,11,3.42A13.5,13.5,0,0,1,134,23.09h-8.75q-.3-5.81-6.94-5.81-6.92,0-7.12,9.65v2.24q0,5.41,1.68,7.83c1.12,1.62,3,2.43,5.5,2.43a8,8,0,0,0,5-1.33,5.36,5.36,0,0,0,1.84-4.19Z"/><path class="cls-1" d="M155.55,23.39a23.42,23.42,0,0,0-2.9-.22c-3.05,0-5,1-6,3.1V46H138.6V15.84h7.61l.23,3.6q2.42-4.15,6.71-4.16a8.19,8.19,0,0,1,2.51.37Z"/><path class="cls-1" d="M159.37,8a4,4,0,0,1,1.21-3,5.22,5.22,0,0,1,6.59,0,4,4,0,0,1,1.23,3,4,4,0,0,1-1.24,3,5.17,5.17,0,0,1-6.55,0A4,4,0,0,1,159.37,8Zm8.56,38h-8.09V15.84h8.09Z"/><path class="cls-1" d="M184.21,8.43v7.41h5.15v5.91h-5.15v15a3.57,3.57,0,0,0,.64,2.4,3.21,3.21,0,0,0,2.45.72,12.93,12.93,0,0,0,2.37-.19v6.1a16.39,16.39,0,0,1-4.88.73q-8.47,0-8.64-8.56V21.75h-4.4V15.84h4.4V8.43Z"/><path class="cls-1" d="M193.79,8a4,4,0,0,1,1.22-3,5.22,5.22,0,0,1,6.59,0,4,4,0,0,1,1.23,3,4,4,0,0,1-1.25,3,5.17,5.17,0,0,1-6.55,0A4,4,0,0,1,193.79,8Zm8.56,38h-8.08V15.84h8.08Z"/><path class="cls-1" d="M207.73,30.64q0-7.11,3.16-11.23a10.36,10.36,0,0,1,8.69-4.13A9.28,9.28,0,0,1,227.3,19l.53-3.15h7.08V57.6h-8.08V43.41a9.3,9.3,0,0,1-7.31,3.15,10.27,10.27,0,0,1-8.58-4.18Q207.73,38.2,207.73,30.64Zm8.06.57c0,2.89.5,5.08,1.52,6.59a4.85,4.85,0,0,0,4.27,2.26,5.42,5.42,0,0,0,5.25-3V24.62a5.4,5.4,0,0,0-5.19-2.84A4.91,4.91,0,0,0,217.32,24Q215.79,26.31,215.79,31.21Z"/><path class="cls-1" d="M259.3,42.93a10.1,10.1,0,0,1-8.25,3.63c-3.24,0-5.7-.93-7.4-2.79s-2.57-4.58-2.61-8.17V15.84h8.06V35.35q0,4.71,4.29,4.71,4.1,0,5.63-2.84V15.84h8.08V46h-7.58Z"/><path class="cls-1" d="M287.06,46.56a14.82,14.82,0,0,1-10.8-4.07q-4.17-4.07-4.17-10.85v-.78a18.24,18.24,0,0,1,1.76-8.12,12.89,12.89,0,0,1,5-5.52,14,14,0,0,1,7.35-1.94q6.18,0,9.74,3.91t3.55,11.06v3.29h-19.2a7.48,7.48,0,0,0,2.35,4.74,7.12,7.12,0,0,0,5,1.78,8.71,8.71,0,0,0,7.28-3.37l3.95,4.43a12,12,0,0,1-4.9,4A16.09,16.09,0,0,1,287.06,46.56Zm-.92-24.78a5,5,0,0,0-3.89,1.62,8.43,8.43,0,0,0-1.91,4.65h11.21v-.64a6,6,0,0,0-1.45-4.16A5.2,5.2,0,0,0,286.14,21.78Z"/><path class="cls-2" d="M103.51,92V56.7h13.64q7,0,10.85,2.51a8.79,8.79,0,0,1,2.4,11.95,7.83,7.83,0,0,1-4,3A7.83,7.83,0,0,1,131,77a8,8,0,0,1,1.58,4.9c0,3.48-1.2,6-3.61,7.66S123.07,92,118.48,92Zm8.79-20.6h5.39q5.31,0,5.31-3.71a3.43,3.43,0,0,0-1.29-3,6.92,6.92,0,0,0-3.93-.9H112.3Zm0,6v7.57h6.18a6.65,6.65,0,0,0,3.94-1,3.11,3.11,0,0,0,1.39-2.65c0-2.54-1.54-3.84-4.63-3.92Z"/><path class="cls-2" d="M154.88,69.39a23.28,23.28,0,0,0-2.9-.22q-4.56,0-6,3.1V92h-8.05V61.84h7.6l.23,3.6q2.41-4.15,6.72-4.16a8.24,8.24,0,0,1,2.51.37Z"/><path class="cls-2" d="M175.4,92a9.07,9.07,0,0,1-.81-2.7A9.76,9.76,0,0,1,167,92.56,10.7,10.7,0,0,1,159.64,90a8.22,8.22,0,0,1-2.92-6.46,8.52,8.52,0,0,1,3.56-7.36q3.56-2.57,10.27-2.59h3.71V71.85a5,5,0,0,0-1.08-3.35,4.22,4.22,0,0,0-3.38-1.25,4.83,4.83,0,0,0-3.2,1,3.33,3.33,0,0,0-1.15,2.68h-8.06A8.08,8.08,0,0,1,159,66.05a10.71,10.71,0,0,1,4.57-3.5,16.75,16.75,0,0,1,6.63-1.27c3.72,0,6.67.94,8.85,2.8A9.8,9.8,0,0,1,182.34,72V85a14.48,14.48,0,0,0,1.2,6.5V92Zm-6.66-5.6a7,7,0,0,0,3.29-.8,5.29,5.29,0,0,0,2.23-2.13V78.29h-3c-4,0-6.18,1.39-6.44,4.18l0,.47a3.22,3.22,0,0,0,1.06,2.48A4.1,4.1,0,0,0,168.74,86.4Z"/><path class="cls-2" d="M188.47,54a4,4,0,0,1,1.21-3,5.24,5.24,0,0,1,6.6,0,4.27,4.27,0,0,1,0,6,5.17,5.17,0,0,1-6.55,0A4,4,0,0,1,188.47,54ZM197,92H189V61.84H197Z"/><path class="cls-2" d="M211.08,61.84l.25,3.48a10.53,10.53,0,0,1,8.67-4q4.78,0,7.13,2.82c1.56,1.88,2.36,4.68,2.4,8.42V92h-8.06V72.67a5.25,5.25,0,0,0-1.11-3.73,5,5,0,0,0-3.71-1.16,5.54,5.54,0,0,0-5.1,2.9V92H203.5V61.84Z"/><path class="cls-2" d="M244.89,85.51h14.74V92h-25V87.09l14.19-18.76H235V61.84h24.17v4.75Z"/><polygon class="cls-2" points="46 2 46 98 87 74 87 26 46 2"/><polygon class="cls-1" points="43 2 2 26 2 74 43 98 43 2"/><path class="cls-3" d="M78.28,58.09a6.75,6.75,0,0,0-7.67-2.86A18.09,18.09,0,0,0,62,49.6a28.62,28.62,0,0,0,5.91-6.16,6.91,6.91,0,0,0,5.17-.83,6.77,6.77,0,1,0-9.34-2.11,6.27,6.27,0,0,0,.42.59,23.88,23.88,0,0,1-9.52,7.79h0A18.45,18.45,0,0,1,46,51v5c4,0,5.93-1.12,10-2.9a14.78,14.78,0,0,1,11,4.75,6.76,6.76,0,1,0,12.16,5.32A6.64,6.64,0,0,0,78.28,58.09ZM68.06,34.67a2.57,2.57,0,0,1,1.4-.41,2.62,2.62,0,1,1,0,5.24,2.61,2.61,0,0,1-2.22-1.21A2.63,2.63,0,0,1,68.06,34.67Zm7.06,27.6A2.61,2.61,0,0,1,74,63.91a2.56,2.56,0,0,1-1.39.41,2.62,2.62,0,0,1-1.52-4.75l.12-.07a2.65,2.65,0,0,1,3.6.8A2.59,2.59,0,0,1,75.12,62.27Z"/><polygon class="cls-4" points="13.04 31.14 12.11 57.94 18.11 64.85 18.29 64.86 17.68 73.33 34.03 65.51 43 65.88 43 26.09 19.95 25.14 13.04 31.14"/><path class="cls-3" d="M23.38,52.47a2.8,2.8,0,0,0,2.42,2.68L43,56V51l-17-.84A2.5,2.5,0,0,0,23.38,52.47Z"/><path class="cls-3" d="M23.38,40.15a2.81,2.81,0,0,0,2.42,2.68l17.2.85v-5l-17-.85A2.51,2.51,0,0,0,23.38,40.15Z"/></svg>