<svg id="Layer_1" data-name="Layer 1" xmlns="http://www.w3.org/2000/svg" viewBox="0 0 70 30"><defs><style>.cls-1{fill:#36b5b2;}.cls-2{fill:#eb743b;}</style></defs><polygon class="cls-1" points="14 1 2 8 2 22 14 29 14 1"/><polygon class="cls-2" points="15 1 27 8 27 22 15 29 15 1"/><path class="cls-1" d="M48.34,18.23a6.82,6.82,0,0,1-2.55,5.14,9.5,9.5,0,0,1-6.18,1.9,8.47,8.47,0,0,1-6.49-2.52,9.93,9.93,0,0,1-2.43-6.94V14.69a10.14,10.14,0,0,1,2.4-7.08A8.33,8.33,0,0,1,39.57,5a9.31,9.31,0,0,1,6.15,1.92,7.55,7.55,0,0,1,2.64,5.29h-4.9q-.16-3.26-3.89-3.25t-4,5.4v1.26A7.82,7.82,0,0,0,36.53,20a3.47,3.47,0,0,0,3.08,1.36,4.49,4.49,0,0,0,2.79-.74,3,3,0,0,0,1-2.35Z"/><path class="cls-2" d="M50.87,25V5.24h7.64a11,11,0,0,1,6.07,1.4,4.58,4.58,0,0,1,2.12,4.07,4.56,4.56,0,0,1-.77,2.62A4.39,4.39,0,0,1,63.71,15a4.32,4.32,0,0,1,3.43,4.35,4.81,4.81,0,0,1-2,4.3A10.46,10.46,0,0,1,59.25,25Zm4.92-11.54h3q3,0,3-2.07a1.93,1.93,0,0,0-.72-1.7,3.91,3.91,0,0,0-2.2-.5H55.79Zm0,3.35v4.24h3.46a3.78,3.78,0,0,0,2.21-.56A1.76,1.76,0,0,0,62.24,19c0-1.42-.87-2.15-2.6-2.19Z"/></svg>