<svg id="Layer_1" data-name="Layer 1" xmlns="http://www.w3.org/2000/svg" viewBox="0 0 548.76 100"><defs><style>.cls-1{fill:#36b5b2;}.cls-2{fill:#eb743b;}.cls-3{fill:#fffedb;}.cls-4{fill:#65d9d7;}</style></defs><path class="cls-1" d="M141.54,56.82a15.16,15.16,0,0,1-5.65,11.39q-5.2,4.22-13.71,4.21-9.14,0-14.38-5.58t-5.39-15.39V49q0-9.81,5.32-15.67t14.38-5.87q8.49,0,13.61,4.25a16.71,16.71,0,0,1,5.86,11.73H130.72q-.37-7.21-8.61-7.22-8.58,0-8.84,12v2.78q0,6.72,2.09,9.72c1.39,2,3.66,3,6.82,3,2.73,0,4.8-.55,6.19-1.65a6.69,6.69,0,0,0,2.27-5.2Z"/><path class="cls-1" d="M168.29,43.77a27.86,27.86,0,0,0-3.59-.28q-5.67,0-7.44,3.84V71.82h-10V34.4h9.45l.27,4.46q3-5.16,8.34-5.15a10.44,10.44,0,0,1,3.11.45Z"/><path class="cls-1" d="M173,24.71a4.9,4.9,0,0,1,1.51-3.7,6.49,6.49,0,0,1,8.18,0,4.91,4.91,0,0,1,1.52,3.7,4.91,4.91,0,0,1-1.54,3.74,6.42,6.42,0,0,1-8.13,0A5,5,0,0,1,173,24.71Zm10.62,47.11h-10V34.4h10Z"/><path class="cls-1" d="M203.85,25.2v9.2h6.4v7.33h-6.4V60.41a4.45,4.45,0,0,0,.8,3,4,4,0,0,0,3,.9,16,16,0,0,0,2.94-.24v7.58a20.9,20.9,0,0,1-6,.89q-10.52,0-10.72-10.61V41.73h-5.47V34.4h5.47V25.2Z"/><path class="cls-1" d="M215.75,24.71a4.93,4.93,0,0,1,1.5-3.7,6.51,6.51,0,0,1,8.19,0,4.91,4.91,0,0,1,1.52,3.7,5,5,0,0,1-1.54,3.74,6.42,6.42,0,0,1-8.13,0A4.91,4.91,0,0,1,215.75,24.71Zm10.62,47.11h-10V34.4h10Z"/><path class="cls-1" d="M233.05,52.76q0-8.82,3.92-13.93a12.83,12.83,0,0,1,10.78-5.12,11.49,11.49,0,0,1,9.58,4.6L258,34.4h8.79V86.21h-10V68.61a11.54,11.54,0,0,1-9.06,3.9A12.74,12.74,0,0,1,237,67.33Q233,62.14,233.05,52.76Zm10,.71q0,5.37,1.89,8.18a6,6,0,0,0,5.31,2.81,6.73,6.73,0,0,0,6.5-3.68V45.3q-1.87-3.54-6.43-3.54a6.13,6.13,0,0,0-5.37,2.81C243.68,46.44,243,49.41,243,53.47Z"/><path class="cls-1" d="M297,68q-3.71,4.5-10.24,4.49-6,0-9.19-3.45t-3.23-10.14V34.4h10V58.6c0,3.9,1.77,5.86,5.32,5.86q5.08,0,7-3.54V34.4h10V71.82h-9.41Z"/><path class="cls-1" d="M331.49,72.51q-8.24,0-13.41-5.05T312.91,54V53A22.62,22.62,0,0,1,315.09,43a16,16,0,0,1,6.18-6.85,17.33,17.33,0,0,1,9.11-2.4q7.68,0,12.09,4.84t4.41,13.73v4.08H323.05A9.22,9.22,0,0,0,326,62.24a8.82,8.82,0,0,0,6.17,2.22,10.79,10.79,0,0,0,9-4.19l4.91,5.5a14.93,14.93,0,0,1-6.08,5A20,20,0,0,1,331.49,72.51Zm-1.14-30.75a6.26,6.26,0,0,0-4.83,2,10.49,10.49,0,0,0-2.37,5.77h13.91v-.8a7.45,7.45,0,0,0-1.8-5.16A6.44,6.44,0,0,0,330.35,41.76Z"/><path class="cls-2" d="M352.43,71.82V28h16.92q8.76,0,13.46,3.11a10.13,10.13,0,0,1,4.7,9A10.07,10.07,0,0,1,385.8,46a9.8,9.8,0,0,1-4.9,3.67,9.76,9.76,0,0,1,5.64,3.56,10,10,0,0,1,1.95,6.09c0,4.32-1.49,7.5-4.47,9.51s-7.32,3-13,3Zm10.91-25.56H370q6.59,0,6.58-4.61A4.23,4.23,0,0,0,375,37.9a8.51,8.51,0,0,0-4.87-1.12h-6.8Zm0,7.4v9.4H371a8.3,8.3,0,0,0,4.89-1.24,3.87,3.87,0,0,0,1.72-3.29c0-3.14-1.91-4.77-5.75-4.87Z"/><path class="cls-2" d="M416.18,43.77a28,28,0,0,0-3.6-.28q-5.67,0-7.43,3.84V71.82h-10V34.4h9.44l.28,4.46c2-3.44,4.78-5.15,8.34-5.15a10.49,10.49,0,0,1,3.11.45Z"/><path class="cls-2" d="M441.64,71.82a11.15,11.15,0,0,1-1-3.35,12.07,12.07,0,0,1-9.44,4,13.23,13.23,0,0,1-9.11-3.18,10.22,10.22,0,0,1-3.62-8,10.57,10.57,0,0,1,4.41-9.13Q427.28,49,435.62,49h4.6V46.82a6.18,6.18,0,0,0-1.33-4.16,5.27,5.27,0,0,0-4.21-1.55,6,6,0,0,0-4,1.21,4.13,4.13,0,0,0-1.43,3.32h-10a10,10,0,0,1,2-6A13.34,13.34,0,0,1,427,35.28a20.68,20.68,0,0,1,8.23-1.57q6.93,0,11,3.47T450.25,47V63.18c0,3.55.52,6.23,1.49,8.06v.58Zm-8.27-6.95a8.55,8.55,0,0,0,4.08-1,6.39,6.39,0,0,0,2.77-2.64V54.81h-3.74q-7.5,0-8,5.18l0,.59a4,4,0,0,0,1.31,3.08A5.11,5.11,0,0,0,433.37,64.87Z"/><path class="cls-2" d="M457.86,24.71a4.93,4.93,0,0,1,1.5-3.7,6.49,6.49,0,0,1,8.18,0,4.88,4.88,0,0,1,1.53,3.7,5,5,0,0,1-1.54,3.74,6.42,6.42,0,0,1-8.13,0A4.91,4.91,0,0,1,457.86,24.71Zm10.62,47.11h-10V34.4h10Z"/><path class="cls-2" d="M485.91,34.4l.31,4.32a13.08,13.08,0,0,1,10.76-5q6,0,8.86,3.49t3,10.45V71.82h-10v-24c0-2.12-.46-3.67-1.38-4.63s-2.46-1.44-4.6-1.44a6.89,6.89,0,0,0-6.33,3.61V71.82h-10V34.4Z"/><path class="cls-2" d="M527.87,63.76h18.3v8.06H515.11V65.74l17.6-23.28H515.62V34.4h30v5.89Z"/><polygon class="cls-2" points="47 2 47 98 88 74 88 26 47 2"/><polygon class="cls-1" points="44 2 3 26 3 74 44 98 44 2"/><path class="cls-3" d="M79.28,58.09a6.75,6.75,0,0,0-7.67-2.86A18.09,18.09,0,0,0,63,49.6a28.62,28.62,0,0,0,5.91-6.16,6.91,6.91,0,0,0,5.17-.83,6.77,6.77,0,1,0-9.34-2.11,6.27,6.27,0,0,0,.42.59,23.88,23.88,0,0,1-9.52,7.79h0A18.45,18.45,0,0,1,47,51v5c4,0,5.93-1.12,10-2.9a14.78,14.78,0,0,1,11,4.75,6.76,6.76,0,1,0,12.16,5.32A6.64,6.64,0,0,0,79.28,58.09ZM69.06,34.67a2.57,2.57,0,0,1,1.4-.41,2.62,2.62,0,1,1,0,5.24,2.61,2.61,0,0,1-2.22-1.21A2.63,2.63,0,0,1,69.06,34.67Zm7.06,27.6A2.61,2.61,0,0,1,75,63.91a2.56,2.56,0,0,1-1.39.41,2.62,2.62,0,0,1-1.52-4.75l.12-.07a2.65,2.65,0,0,1,3.6.8A2.59,2.59,0,0,1,76.12,62.27Z"/><polygon class="cls-4" points="14.04 31.14 13.11 57.94 19.11 64.85 19.29 64.86 18.68 73.33 35.03 65.51 44 65.88 44 26.09 20.95 25.14 14.04 31.14"/><path class="cls-3" d="M24.38,52.47a2.8,2.8,0,0,0,2.42,2.68L44,56V51l-17-.84A2.5,2.5,0,0,0,24.38,52.47Z"/><path class="cls-3" d="M24.38,40.15a2.81,2.81,0,0,0,2.42,2.68l17.2.85v-5l-17-.85A2.51,2.51,0,0,0,24.38,40.15Z"/></svg>