<svg xmlns="http://www.w3.org/2000/svg" viewBox="0 0 710.81 150"><defs><style>.cls-1{isolation:isolate;}.cls-2{fill:#eb743b;}.cls-3{fill:#36b5b2;}.cls-4{fill:#289793;}.cls-5{fill:#65d9d7;}.cls-6{fill:#fffedb;}.cls-7{mix-blend-mode:multiply;opacity:0.07;}.cls-8{fill:#d3562c;}</style></defs><g class="cls-1"><g id="Layer_1" data-name="Layer 1"><polygon class="cls-2" points="70.35 2.82 70.35 146.82 131.35 111.82 131.35 37.82 70.35 2.82"/><polygon class="cls-3" points="65.35 2.82 4.35 37.82 4.35 111.82 65.35 146.82 65.35 2.82"/><polygon class="cls-4" points="20.35 49.61 18.94 89.88 27.96 100.26 28.22 100.27 27.31 113 51.88 101.25 65.35 101.8 65.35 42.02 30.73 40.59 20.35 49.61"/><polygon class="cls-5" points="20.35 46.61 18.94 86.88 27.96 97.26 28.22 97.27 27.31 110 51.88 98.25 65.35 98.8 65.35 39.02 30.73 37.59 20.35 46.61"/><path class="cls-6" d="M38.73,55.75a1.57,1.57,0,0,0-.06,3.14l26.68,1V56.76l-26.56-1Z"/><path class="cls-6" d="M37.16,68.29a1.57,1.57,0,0,0,1.51,1.62l26.68,1V67.79l-26.56-1A1.54,1.54,0,0,0,37.16,68.29Z"/><path class="cls-6" d="M37.16,79.32A1.59,1.59,0,0,0,38.67,81l26.68,1V78.82l-26.56-1A1.54,1.54,0,0,0,37.16,79.32Z"/><g class="cls-7"><path d="M87.66,94.56a2.08,2.08,0,0,1,1.82-1,2.11,2.11,0,1,1,0,4.22,2.13,2.13,0,0,1-2-1.59A2.13,2.13,0,0,1,87.66,94.56Zm12.6,22.36a2.11,2.11,0,1,1-1.38-3.72,2.11,2.11,0,0,1,2.11,2.28A2.08,2.08,0,0,1,100.26,116.92Z"/><path d="M79.36,48.43l.21,0Z"/><path d="M90.73,58.08a2,2,0,0,1,.68-.66,2.12,2.12,0,0,1,2.24,0,2.12,2.12,0,0,1-1.13,3.91A2.07,2.07,0,0,1,91.39,61,2.13,2.13,0,0,1,90.73,58.08Zm6.38-20.19a2.15,2.15,0,0,1-2.91.66l-.09-.07a2.11,2.11,0,0,1,1.22-3.83,2.16,2.16,0,0,1,1.13.33,2.11,2.11,0,0,1,.65,2.91Z"/><path d="M113.88,49.49a2.1,2.1,0,0,1,1.78-1,2.12,2.12,0,0,1,1.79,3.24,2.15,2.15,0,0,1-2.92.65l-.09-.06A2.11,2.11,0,0,1,113.88,49.49Zm0,23.46a2.1,2.1,0,0,1,1.78-1,2.16,2.16,0,0,1,1.13.33,2.12,2.12,0,0,1,.66,2.91,2.15,2.15,0,0,1-2.92.66l-.09-.07A2.1,2.1,0,0,1,113.88,73Zm0,26.31a2.08,2.08,0,0,1,1.78-1,2.15,2.15,0,0,1,1.13.32,2.11,2.11,0,0,1,.93,1.33,2.07,2.07,0,0,1-.27,1.59,2.15,2.15,0,0,1-2.92.65l-.09-.06A2.11,2.11,0,0,1,113.88,99.26Z"/><path d="M103.53,108.93a6.12,6.12,0,0,0-10.72,4.73A19.62,19.62,0,0,1,87.48,115a4,4,0,0,1-2.22-1,10.7,10.7,0,0,0-4.15-1.84A37.62,37.62,0,0,0,89.7,99.34a6.09,6.09,0,1,0-3.86-1.18c-4,9.22-9.22,13.08-12.57,14.69a2,2,0,0,0-.36.17,10.91,10.91,0,0,1-2.56.8v4a12.63,12.63,0,0,0,4.25-1.19c5.35-1.36,6.84-.35,8.41.71A7.94,7.94,0,0,0,87.27,119h.31a23.61,23.61,0,0,0,7-1.72A6.12,6.12,0,0,0,98.89,119h0a6.11,6.11,0,0,0,4.64-10.1ZM87.66,92.15a2.1,2.1,0,0,1,1.82-1,2,2,0,0,1,1.07.3,2.11,2.11,0,0,1-1.08,3.93,2.17,2.17,0,0,1-1.08-.3,2.09,2.09,0,0,1-1-1.3A2.14,2.14,0,0,1,87.66,92.15Zm12.6,22.36a2.09,2.09,0,0,1-1.37.51,2.11,2.11,0,0,1-1.38-3.71,2.06,2.06,0,0,1,1.37-.52,2.11,2.11,0,0,1,1.61.75,2.07,2.07,0,0,1,.5,1.53A2,2,0,0,1,100.26,114.51Z"/><path d="M79.36,46l.21,0Z"/><path d="M101.3,33a6.06,6.06,0,0,0-2.7-3.85,6.19,6.19,0,0,0-3.27-.94,6.12,6.12,0,0,0-5,9.61,13.35,13.35,0,0,1-9.94,4.29,29.44,29.44,0,0,0-10-2.32v4A24.65,24.65,0,0,1,79.1,46h0a21.58,21.58,0,0,1,8.6,7c-.13.17-.26.35-.38.54A6.14,6.14,0,0,0,89.25,62a6,6,0,0,0,3.27,1,6.12,6.12,0,0,0,3.27-11.3,6.22,6.22,0,0,0-4.67-.75,26,26,0,0,0-5.34-5.57,16.38,16.38,0,0,0,7.78-5.1,6.17,6.17,0,0,0,1.77.27,6.09,6.09,0,0,0,5.17-2.85A6,6,0,0,0,101.3,33ZM90.73,55.67a2.15,2.15,0,0,1,.68-.66,2.17,2.17,0,0,1,1.12-.31,2.09,2.09,0,0,1,1.12.32,2.12,2.12,0,0,1-1.13,3.91,2.13,2.13,0,0,1-1.79-3.26Zm6.38-20.18a2.14,2.14,0,0,1-2.91.65l-.09-.06a2.1,2.1,0,0,1-.56-2.85,2.07,2.07,0,0,1,1.78-1,2.15,2.15,0,0,1,1.13.32,2.11,2.11,0,0,1,.93,1.33A2.08,2.08,0,0,1,97.11,35.49Z"/><path d="M110,74a6,6,0,0,0,2.11,2.65l.28.19a6.12,6.12,0,1,0,6.54-10.35,6.19,6.19,0,0,0-3.27-.94l-.37,0a25.82,25.82,0,0,1,0-11.27l.34,0a6.12,6.12,0,1,0-4.15-1.63l.08.06a28.64,28.64,0,0,0,0,14.42c-.14.13-.29.25-.43.4a6.58,6.58,0,0,0-.63.82,6,6,0,0,0-.71,1.58A15.16,15.16,0,0,0,103,72.72c-2,1.32-4,2.57-9.64,2.66A32.72,32.72,0,0,0,88,75.27c-1.43,0-2.91.1-4.85,0-1.33-.07-2.1-.88-3.46-2.42-1.8-2.06-4.22-4.65-9.37-5v4c3.3.3,4.8,1.89,6.36,3.67s3.18,3.62,6.26,3.78c2.11.12,3.76,0,5.2,0A24.15,24.15,0,0,1,96,80c2.61.64,12.1,9.67,14.77,14.32-.1.14-.22.28-.31.43a6.1,6.1,0,0,0,1.62,8.25l.28.2a6.13,6.13,0,1,0,1.73-11.1c-2.56-4.19-8.65-10.46-13.19-13.79a18.42,18.42,0,0,0,4.21-2.19A11.39,11.39,0,0,1,110,74Zm3.88-26.92a2.08,2.08,0,0,1,1.78-1,2.15,2.15,0,0,1,1.13.32,2.09,2.09,0,0,1,.93,1.33,2,2,0,0,1-.27,1.58,2.14,2.14,0,0,1-2.92.66l-.09-.06A2.11,2.11,0,0,1,113.88,47.09Zm0,23.46a2.08,2.08,0,0,1,1.78-1,2.15,2.15,0,0,1,1.13.32,2.11,2.11,0,0,1,.93,1.33,2.07,2.07,0,0,1-.27,1.59,2.15,2.15,0,0,1-2.92.65l-.09-.06A2.11,2.11,0,0,1,113.88,70.55Zm0,26.3a2.1,2.1,0,0,1,1.78-1,2.12,2.12,0,0,1,1.79,3.24,2.15,2.15,0,0,1-2.92.65l-.09-.06A2.1,2.1,0,0,1,113.88,96.85Z"/></g><path class="cls-8" d="M103.53,111.93a6.12,6.12,0,0,0-10.72,4.73A19.62,19.62,0,0,1,87.48,118a4,4,0,0,1-2.22-1,10.7,10.7,0,0,0-4.15-1.84,37.62,37.62,0,0,0,8.59-12.84,6.09,6.09,0,1,0-3.86-1.18c-4,9.22-9.22,13.08-12.57,14.69a2,2,0,0,0-.36.17,10.91,10.91,0,0,1-2.56.8v4a12.63,12.63,0,0,0,4.25-1.19c5.35-1.36,6.84-.35,8.41.71A7.94,7.94,0,0,0,87.27,122h.31a23.61,23.61,0,0,0,7-1.72A6.12,6.12,0,0,0,98.89,122h0a6.11,6.11,0,0,0,4.64-10.1ZM87.66,95.15a2.1,2.1,0,0,1,1.82-1,2,2,0,0,1,1.07.3,2.11,2.11,0,0,1-1.08,3.93,2.17,2.17,0,0,1-1.08-.3,2.09,2.09,0,0,1-1-1.3A2.14,2.14,0,0,1,87.66,95.15Zm12.6,22.36a2.09,2.09,0,0,1-1.37.51,2.11,2.11,0,0,1-1.38-3.71,2.06,2.06,0,0,1,1.37-.52,2.11,2.11,0,0,1,1.61.75,2.07,2.07,0,0,1,.5,1.53A2,2,0,0,1,100.26,117.51Z"/><path d="M79.36,48.43l.21,0Z"/><path class="cls-8" d="M101.3,36a6,6,0,0,0-2.7-3.84,6.12,6.12,0,0,0-8.3,8.66,13.27,13.27,0,0,1-9.94,4.29,29.17,29.17,0,0,0-10-2.31v4A24.91,24.91,0,0,1,79.1,49h0a21.67,21.67,0,0,1,8.6,7l-.38.54a6.13,6.13,0,1,0,8.45-1.91,6.22,6.22,0,0,0-4.67-.75,26,26,0,0,0-5.34-5.57,16.43,16.43,0,0,0,7.78-5.09,6.16,6.16,0,0,0,1.77.26,6.06,6.06,0,0,0,5.17-2.85A6,6,0,0,0,101.3,36ZM90.73,58.68a2,2,0,0,1,.68-.66,2.12,2.12,0,0,1,2.24,0,2.12,2.12,0,0,1-1.13,3.91,2.07,2.07,0,0,1-1.13-.33A2.13,2.13,0,0,1,90.73,58.68Zm6.38-20.19a2.14,2.14,0,0,1-2.91.65l-.09-.06a2.11,2.11,0,0,1,1.22-3.83,2.11,2.11,0,0,1,1.78,3.24Z"/><path class="cls-8" d="M110,77a6,6,0,0,0,2.11,2.65l.28.19a6.12,6.12,0,1,0,6.54-10.35,6.19,6.19,0,0,0-3.27-.94l-.37,0a25.82,25.82,0,0,1,0-11.27l.34,0a6.12,6.12,0,1,0-4.15-1.63l.08.06a28.64,28.64,0,0,0,0,14.42c-.14.13-.29.25-.43.4a6.58,6.58,0,0,0-.63.82,6,6,0,0,0-.71,1.58A15.16,15.16,0,0,0,103,75.72c-2,1.32-4,2.57-9.64,2.66A32.72,32.72,0,0,0,88,78.27c-1.43,0-2.91.1-4.85,0-1.33-.07-2.1-.88-3.46-2.42-1.8-2.06-4.22-4.65-9.37-5v4c3.3.3,4.8,1.89,6.36,3.67s3.18,3.62,6.26,3.78c2.11.12,3.76,0,5.2,0A24.15,24.15,0,0,1,96,83c2.61.64,12.1,9.67,14.77,14.32-.1.14-.22.28-.31.43a6.1,6.1,0,0,0,1.62,8.25l.28.2a6.13,6.13,0,1,0,1.73-11.1c-2.56-4.19-8.65-10.46-13.19-13.79a18.42,18.42,0,0,0,4.21-2.19A11.39,11.39,0,0,1,110,77Zm3.88-26.92a2.08,2.08,0,0,1,1.78-1,2.15,2.15,0,0,1,1.13.32,2.09,2.09,0,0,1,.93,1.33,2,2,0,0,1-.27,1.58,2.14,2.14,0,0,1-2.92.66l-.09-.06A2.11,2.11,0,0,1,113.88,50.09Zm0,23.46a2.08,2.08,0,0,1,1.78-1,2.15,2.15,0,0,1,1.13.32,2.11,2.11,0,0,1,.93,1.33,2.07,2.07,0,0,1-.27,1.59,2.15,2.15,0,0,1-2.92.65l-.09-.06A2.11,2.11,0,0,1,113.88,73.55Zm0,26.3a2.1,2.1,0,0,1,1.78-1,2.12,2.12,0,0,1,1.79,3.24,2.15,2.15,0,0,1-2.92.65l-.09-.06A2.1,2.1,0,0,1,113.88,99.85Z"/><path class="cls-6" d="M103.53,108.93a6.12,6.12,0,0,0-10.72,4.73A19.62,19.62,0,0,1,87.48,115a4,4,0,0,1-2.22-1,10.7,10.7,0,0,0-4.15-1.84A37.62,37.62,0,0,0,89.7,99.34a6.09,6.09,0,1,0-3.86-1.18c-4,9.22-9.22,13.08-12.57,14.69a2,2,0,0,0-.36.17,10.91,10.91,0,0,1-2.56.8v4a12.63,12.63,0,0,0,4.25-1.19c5.35-1.36,6.84-.35,8.41.71A7.94,7.94,0,0,0,87.27,119h.31a23.61,23.61,0,0,0,7-1.72A6.12,6.12,0,0,0,98.89,119h0a6.11,6.11,0,0,0,4.64-10.1ZM87.66,92.15a2.1,2.1,0,0,1,1.82-1,2,2,0,0,1,1.07.3,2.11,2.11,0,0,1-1.08,3.93,2.17,2.17,0,0,1-1.08-.3,2.09,2.09,0,0,1-1-1.3A2.14,2.14,0,0,1,87.66,92.15Zm12.6,22.36a2.09,2.09,0,0,1-1.37.51,2.11,2.11,0,0,1-1.38-3.71,2.06,2.06,0,0,1,1.37-.52,2.11,2.11,0,0,1,1.61.75,2.07,2.07,0,0,1,.5,1.53A2,2,0,0,1,100.26,114.51Z"/><path class="cls-6" d="M79.36,46l.21,0Z"/><path class="cls-6" d="M101.3,33a6.06,6.06,0,0,0-2.7-3.85,6.19,6.19,0,0,0-3.27-.94,6.12,6.12,0,0,0-5,9.61,13.35,13.35,0,0,1-9.94,4.29,29.44,29.44,0,0,0-10-2.32v4A24.65,24.65,0,0,1,79.1,46h0a21.58,21.58,0,0,1,8.6,7c-.13.17-.26.35-.38.54A6.14,6.14,0,0,0,89.25,62a6,6,0,0,0,3.27,1,6.12,6.12,0,0,0,3.27-11.3,6.22,6.22,0,0,0-4.67-.75,26,26,0,0,0-5.34-5.57,16.38,16.38,0,0,0,7.78-5.1,6.17,6.17,0,0,0,1.77.27,6.09,6.09,0,0,0,5.17-2.85A6,6,0,0,0,101.3,33ZM90.73,55.67a2.15,2.15,0,0,1,.68-.66,2.17,2.17,0,0,1,1.12-.31,2.09,2.09,0,0,1,1.12.32,2.12,2.12,0,0,1-1.13,3.91,2.13,2.13,0,0,1-1.79-3.26Zm6.38-20.18a2.14,2.14,0,0,1-2.91.65l-.09-.06a2.1,2.1,0,0,1-.56-2.85,2.07,2.07,0,0,1,1.78-1,2.15,2.15,0,0,1,1.13.32,2.11,2.11,0,0,1,.93,1.33A2.08,2.08,0,0,1,97.11,35.49Z"/><path class="cls-6" d="M110,74a6,6,0,0,0,2.11,2.65l.28.19a6.12,6.12,0,1,0,6.54-10.35,6.19,6.19,0,0,0-3.27-.94l-.37,0a25.82,25.82,0,0,1,0-11.27l.34,0a6.12,6.12,0,1,0-4.15-1.63l.08.06a28.64,28.64,0,0,0,0,14.42c-.14.13-.29.25-.43.4a6.58,6.58,0,0,0-.63.82,6,6,0,0,0-.71,1.58A15.16,15.16,0,0,0,103,72.72c-2,1.32-4,2.57-9.64,2.66A32.72,32.72,0,0,0,88,75.27c-1.43,0-2.91.1-4.85,0-1.33-.07-2.1-.88-3.46-2.42-1.8-2.06-4.22-4.65-9.37-5v4c3.3.3,4.8,1.89,6.36,3.67s3.18,3.62,6.26,3.78c2.11.12,3.76,0,5.2,0A24.15,24.15,0,0,1,96,80c2.61.64,12.1,9.67,14.77,14.32-.1.14-.22.28-.31.43a6.1,6.1,0,0,0,1.62,8.25l.28.2a6.13,6.13,0,1,0,1.73-11.1c-2.56-4.19-8.65-10.46-13.19-13.79a18.42,18.42,0,0,0,4.21-2.19A11.39,11.39,0,0,1,110,74Zm3.88-26.92a2.08,2.08,0,0,1,1.78-1,2.15,2.15,0,0,1,1.13.32,2.09,2.09,0,0,1,.93,1.33,2,2,0,0,1-.27,1.58,2.14,2.14,0,0,1-2.92.66l-.09-.06A2.11,2.11,0,0,1,113.88,47.09Zm0,23.46a2.08,2.08,0,0,1,1.78-1,2.15,2.15,0,0,1,1.13.32,2.11,2.11,0,0,1,.93,1.33,2.07,2.07,0,0,1-.27,1.59,2.15,2.15,0,0,1-2.92.65l-.09-.06A2.11,2.11,0,0,1,113.88,70.55Zm0,26.3a2.1,2.1,0,0,1,1.78-1,2.12,2.12,0,0,1,1.79,3.24,2.15,2.15,0,0,1-2.92.65l-.09-.06A2.1,2.1,0,0,1,113.88,96.85Z"/><path class="cls-3" d="M203.13,84.12a18.94,18.94,0,0,1-7.06,14.2q-6.48,5.25-17.08,5.25-11.4,0-17.93-7t-6.73-19.19v-3.1q0-12.22,6.64-19.54t17.92-7.31q10.61,0,17,5.29t7.31,14.63H189.63q-.47-9-10.74-9-10.68,0-11,14.93v3.46q0,8.39,2.6,12.13T179,92.65q5.1,0,7.71-2.05t2.84-6.48Z"/><path class="cls-3" d="M236.48,67.85A34,34,0,0,0,232,67.5q-7.06,0-9.27,4.79v30.53H210.26V56.16H222l.35,5.57q3.75-6.43,10.39-6.43a13.19,13.19,0,0,1,3.88.56Z"/><path class="cls-3" d="M242.38,44.09a6.16,6.16,0,0,1,1.88-4.62,8.09,8.09,0,0,1,10.2,0,6.59,6.59,0,0,1,0,9.28,8,8,0,0,1-10.14,0A6.12,6.12,0,0,1,242.38,44.09Zm13.24,58.73h-12.5V56.16h12.5Z"/><path class="cls-3" d="M280.81,44.69V56.16h8v9.15h-8V88.59a5.57,5.57,0,0,0,1,3.71c.66.75,1.93,1.12,3.79,1.12a20,20,0,0,0,3.67-.3v9.44a25.57,25.57,0,0,1-7.55,1.13q-13.11,0-13.36-13.24V65.31h-6.82V56.16h6.82V44.69Z"/><path class="cls-3" d="M295.64,44.09a6.16,6.16,0,0,1,1.88-4.62,8.09,8.09,0,0,1,10.2,0,6.59,6.59,0,0,1,0,9.28,8,8,0,0,1-10.14,0A6.12,6.12,0,0,1,295.64,44.09Zm13.24,58.73h-12.5V56.16h12.5Z"/><path class="cls-3" d="M317.2,79.06q0-11,4.9-17.38a16,16,0,0,1,13.43-6.38,14.32,14.32,0,0,1,12,5.74l.82-4.88h10.95v64.6H346.74v-22a14.35,14.35,0,0,1-11.29,4.88,15.91,15.91,0,0,1-13.29-6.47Q317.21,90.76,317.2,79.06Zm12.47.89q0,6.69,2.35,10.19a7.52,7.52,0,0,0,6.62,3.5q5.73,0,8.1-4.58V69.75q-2.33-4.4-8-4.4a7.62,7.62,0,0,0-6.68,3.5Q329.67,72.35,329.67,80Z"/><path class="cls-3" d="M397,98.08q-4.61,5.61-12.76,5.61-7.5,0-11.45-4.32t-4-12.63V56.16H381.2V86.34q0,7.3,6.64,7.3,6.35,0,8.71-4.41V56.16h12.51v46.66H397.33Z"/><path class="cls-3" d="M439.93,103.69q-10.26,0-16.71-6.3t-6.44-16.78v-1.2a28.17,28.17,0,0,1,2.71-12.57,19.92,19.92,0,0,1,7.7-8.54,21.59,21.59,0,0,1,11.36-3q9.58,0,15.08,6t5.49,17.12v5.09H429.41a11.57,11.57,0,0,0,3.65,7.33,11,11,0,0,0,7.69,2.76A13.46,13.46,0,0,0,452,88.42l6.12,6.86a18.74,18.74,0,0,1-7.59,6.18A24.74,24.74,0,0,1,439.93,103.69Zm-1.42-38.34a7.78,7.78,0,0,0-6,2.51,13,13,0,0,0-3,7.19h17.34v-1a9.29,9.29,0,0,0-2.25-6.43A8,8,0,0,0,438.51,65.35Z"/><path class="cls-2" d="M466.05,102.82V48.22h21.09q10.92,0,16.78,3.87a12.64,12.64,0,0,1,5.86,11.24,12.59,12.59,0,0,1-2.13,7.26,12.21,12.21,0,0,1-6.12,4.57,12.16,12.16,0,0,1,7,4.45A12.32,12.32,0,0,1,511,87.19q0,8.1-5.58,11.87t-16.21,3.76ZM479.64,71H488q8.19,0,8.2-5.74,0-3.3-2-4.68t-6.07-1.39h-8.49Zm0,9.23V91.9h9.57a10.34,10.34,0,0,0,6.09-1.55,4.81,4.81,0,0,0,2.16-4.1q0-5.88-7.18-6.07Z"/><path class="cls-2" d="M545.52,67.85A33.84,33.84,0,0,0,541,67.5q-7.08,0-9.27,4.79v30.53H519.3V56.16h11.78l.34,5.57q3.75-6.43,10.39-6.43a13.25,13.25,0,0,1,3.89.56Z"/><path class="cls-2" d="M577.26,102.82A14,14,0,0,1,576,98.64a15.09,15.09,0,0,1-11.77,5,16.62,16.62,0,0,1-11.37-4,12.78,12.78,0,0,1-4.5-10q0-7.41,5.5-11.38t15.89-4h5.73V71.64a7.66,7.66,0,0,0-1.66-5.17q-1.65-1.93-5.24-1.94A7.38,7.38,0,0,0,563.66,66a5.12,5.12,0,0,0-1.79,4.14H549.4a12.61,12.61,0,0,1,2.5-7.51A16.65,16.65,0,0,1,559,57.26a25.89,25.89,0,0,1,10.26-2q8.63,0,13.69,4.33T588,71.82V92q0,6.64,1.85,10v.73ZM567,94.16A10.73,10.73,0,0,0,572,92.93a8.05,8.05,0,0,0,3.45-3.3v-8h-4.66q-9.35,0-10,6.47l0,.73a5,5,0,0,0,1.64,3.84A6.39,6.39,0,0,0,567,94.16Z"/><path class="cls-2" d="M597.49,44.09a6.15,6.15,0,0,1,1.87-4.62,8.09,8.09,0,0,1,10.2,0,6.59,6.59,0,0,1,0,9.28,8,8,0,0,1-10.14,0A6.15,6.15,0,0,1,597.49,44.09Zm13.23,58.73h-12.5V56.16h12.5Z"/><path class="cls-2" d="M632.46,56.16l.39,5.39a16.3,16.3,0,0,1,13.41-6.25q7.41,0,11,4.36t3.71,13v30.14H648.54V72.91q0-4-1.72-5.77t-5.74-1.79a8.59,8.59,0,0,0-7.89,4.49v33H620.73V56.16Z"/><path class="cls-2" d="M684.77,92.78h22.81v10H668.86V95.23l21.94-29H669.5v-10h37.39v7.35Z"/></g></g></svg>