<?xml version="1.0" encoding="UTF-8" standalone="no"?>
<!-- Generator: Adobe Illustrator 16.0.0, SVG Export Plug-In . SVG Version: 6.00 Build 0)  -->

<svg
   xmlns:ns="&amp;ns_sfw;"
   xmlns:dc="http://purl.org/dc/elements/1.1/"
   xmlns:cc="http://creativecommons.org/ns#"
   xmlns:rdf="http://www.w3.org/1999/02/22-rdf-syntax-ns#"
   xmlns:svg="http://www.w3.org/2000/svg"
   xmlns="http://www.w3.org/2000/svg"
   xmlns:sodipodi="http://sodipodi.sourceforge.net/DTD/sodipodi-0.dtd"
   xmlns:inkscape="http://www.inkscape.org/namespaces/inkscape"
   version="1.1"
   id="Layer_1"
   x="0px"
   y="0px"
   width="100"
   height="100"
   viewBox="0 0 100 100"
   enable-background="new 0 0 445 100"
   xml:space="preserve"
   inkscape:version="0.91 r13725"
   sodipodi:docname="MetaBrainz_logo_small_no_text.svg"><defs
     id="defs6940" /><sodipodi:namedview
     pagecolor="#ffffff"
     bordercolor="#666666"
     borderopacity="1"
     objecttolerance="10"
     gridtolerance="10"
     guidetolerance="10"
     inkscape:pageopacity="0"
     inkscape:pageshadow="2"
     inkscape:window-width="1269"
     inkscape:window-height="566"
     id="namedview6938"
     showgrid="false"
     inkscape:zoom="0.80898876"
     inkscape:cx="73.548611"
     inkscape:cy="50"
     inkscape:window-x="0"
     inkscape:window-y="0"
     inkscape:window-maximized="0"
     inkscape:current-layer="Layer_1" /><metadata
     id="metadata6900"><ns:sfw><ns:slices /><ns:sliceSourceBounds
         height="96"
         width="411.864"
         x="2964"
         y="-1358"
         bottomLeftOrigin="true" /></ns:sfw><rdf:RDF><cc:Work
         rdf:about=""><dc:format>image/svg+xml</dc:format><dc:type
           rdf:resource="http://purl.org/dc/dcmitype/StillImage" /><dc:title></dc:title></cc:Work></rdf:RDF></metadata><g
     id="g6902" /><g
     id="g6928"
     transform="translate(4.5,0)"><polygon
       style="fill:#eb743b"
       id="polygon6930"
       points="88,74 88,26 47,2 47,98 " /><polygon
       style="fill:#5aa854"
       id="polygon6932"
       points="3,74 44,98 44,2 3,26 " /><path
       style="fill:#fffedb"
       inkscape:connector-curvature="0"
       id="path6934"
       d="m 79.281,58.087 c -1.239,-1.97 -3.38,-3.148 -5.718,-3.148 -0.666,0 -1.324,0.103 -1.956,0.295 -2.632,-3.125 -5.819,-4.775 -8.603,-5.636 2.235,-1.714 4.208,-3.771 5.909,-6.153 1.74,0.394 3.63,0.127 5.162,-0.832 3.158,-2.006 4.103,-6.197 2.104,-9.348 -1.249,-1.975 -3.39,-3.152 -5.724,-3.152 -1.283,0 -2.533,0.363 -3.616,1.05 -3.146,1.991 -4.093,6.181 -2.105,9.336 0.13,0.207 0.271,0.404 0.422,0.596 -2.514,3.442 -5.708,6.056 -9.519,7.785 l -0.014,0.004 C 52.093,50.487 50,51 47,51 l 0,5 c 4,0 5.931,-1.125 10.016,-2.898 1.366,-0.023 6.962,0.185 10.991,4.747 -1.507,2.164 -1.655,5.108 -0.16,7.471 1.241,1.97 3.382,3.15 5.721,3.15 1.278,0 2.524,-0.36 3.607,-1.044 1.538,-0.975 2.599,-2.482 2.995,-4.252 0.396,-1.761 0.078,-3.568 -0.889,-5.087 z M 69.061,34.67 c 0.423,-0.266 0.901,-0.405 1.396,-0.405 0.903,0 1.731,0.456 2.219,1.224 0.771,1.214 0.403,2.836 -0.818,3.61 -0.41,0.261 -0.896,0.398 -1.387,0.398 -0.493,0 -0.974,-0.134 -1.39,-0.391 -0.343,-0.213 -0.625,-0.489 -0.832,-0.817 -0.771,-1.225 -0.407,-2.846 0.812,-3.619 z m 7.058,27.6 c -0.154,0.687 -0.564,1.27 -1.161,1.645 -0.413,0.264 -0.896,0.406 -1.391,0.406 -0.906,0 -1.731,-0.457 -2.21,-1.218 -0.745,-1.18 -0.441,-2.727 0.691,-3.528 l 0.117,-0.078 c 1.208,-0.766 2.866,-0.367 3.608,0.808 0.378,0.591 0.498,1.286 0.346,1.965 z" /><path
       style="fill:#fffedb"
       inkscape:connector-curvature="0"
       id="path6936"
       d="m 14.624,37.93 c 0.5,2.273 2.116,4.105 4.316,4.896 0.627,0.225 1.281,0.352 1.94,0.384 1.42,3.831 4.06,7.207 6.525,8.759 -2.545,1.053 -3.707,1.422 -6.183,3.461 -1.579,-0.831 -3.474,-1.063 -5.201,-0.533 -3.57,1.12 -5.567,4.924 -4.453,8.484 0.695,2.23 2.458,3.922 4.712,4.526 1.239,0.333 2.541,0.306 3.765,-0.077 3.556,-1.109 5.554,-4.91 4.451,-8.473 -0.072,-0.233 -0.157,-0.461 -0.253,-0.685 3.319,-2.674 5.408,-3.114 9.537,-3.798 l 0.014,0 C 37.623,54.239 41.177,54.985 44,56 l 0,-5 c -3.563,-1 -6.739,-0.996 -11.144,-0.341 -1.326,-0.331 -5.453,-3.037 -7.702,-8.693 2.149,-1.526 3.285,-4.247 2.677,-6.976 -0.503,-2.274 -2.118,-4.109 -4.319,-4.899 -1.203,-0.433 -2.497,-0.515 -3.748,-0.237 -1.776,0.396 -3.285,1.457 -4.256,2.988 -0.969,1.523 -1.279,3.331 -0.884,5.088 z m 4.187,25.937 c -0.478,0.146 -0.976,0.158 -1.454,0.029 -0.872,-0.233 -1.554,-0.889 -1.826,-1.756 -0.431,-1.372 0.345,-2.844 1.726,-3.275 0.463,-0.146 0.968,-0.153 1.442,-0.026 0.477,0.128 0.905,0.382 1.241,0.737 0.275,0.295 0.477,0.635 0.592,1.005 0.427,1.383 -0.344,2.855 -1.721,3.286 z m 0.204,-28.804 c 0.377,-0.594 0.96,-1.004 1.648,-1.155 0.478,-0.108 0.981,-0.079 1.446,0.088 0.853,0.307 1.475,1.016 1.668,1.894 0.303,1.362 -0.507,2.715 -1.844,3.087 l -0.137,0.034 C 20.4,39.323 18.974,38.387 18.673,37.031 18.52,36.345 18.642,35.65 19.015,35.063 Z" /></g></svg>