<?xml version="1.0" encoding="utf-8"?>
<!-- Generator: Adobe Illustrator 16.0.0, SVG Export Plug-In . SVG Version: 6.00 Build 0)  -->
<!DOCTYPE svg PUBLIC "-//W3C//DTD SVG 1.1//EN" "http://www.w3.org/Graphics/SVG/1.1/DTD/svg11.dtd" [
	<!ENTITY ns_extend "http://ns.adobe.com/Extensibility/1.0/">
	<!ENTITY ns_ai "http://ns.adobe.com/AdobeIllustrator/10.0/">
	<!ENTITY ns_graphs "http://ns.adobe.com/Graphs/1.0/">
	<!ENTITY ns_vars "http://ns.adobe.com/Variables/1.0/">
	<!ENTITY ns_imrep "http://ns.adobe.com/ImageReplacement/1.0/">
	<!ENTITY ns_sfw "http://ns.adobe.com/SaveForWeb/1.0/">
	<!ENTITY ns_custom "http://ns.adobe.com/GenericCustomNamespace/1.0/">
	<!ENTITY ns_adobe_xpath "http://ns.adobe.com/XPath/1.0/">
]>
<svg version="1.1" id="Layer_1" xmlns:x="&ns_extend;" xmlns:i="&ns_ai;" xmlns:graph="&ns_graphs;"
	 xmlns="http://www.w3.org/2000/svg" xmlns:xlink="http://www.w3.org/1999/xlink" x="0px" y="0px" width="445px" height="100px"
	 viewBox="0 0 445 100" enable-background="new 0 0 445 100" xml:space="preserve">
<metadata>
	<sfw  xmlns="&ns_sfw;">
		<slices></slices>
		<sliceSourceBounds  height="96" width="411.864" x="2964" y="-1358" bottomLeftOrigin="true"></sliceSourceBounds>
	</sfw>
</metadata>
<g>
</g>
<g>
	<g>
		<path fill="#5AA854" d="M117.445,28.022l7.745,29.401l7.745-29.401h14.023v43.801h-10.678v-8.723l1.016-20.378l-8.61,29.101h-7.03
			l-8.572-28.95l1.015,20.228v8.723h-10.64V28.022H117.445z"/>
		<path fill="#5AA854" d="M169.134,72.515c-5.027,0-8.947-1.498-11.761-4.496c-2.813-2.997-4.22-7.287-4.22-12.867v-2.975
			c0-5.903,1.291-10.458,3.874-13.663c2.582-3.205,6.283-4.808,11.103-4.808c4.704,0,8.244,1.502,10.619,4.507
			s3.586,7.454,3.632,13.349v4.8h-19.474c0.139,2.804,0.749,4.854,1.833,6.149c1.084,1.297,2.756,1.945,5.016,1.945
			c3.274,0,6.007-1.142,8.198-3.425l3.839,5.915c-1.199,1.66-2.94,3.004-5.223,4.029C174.287,72.002,171.809,72.515,169.134,72.515z
			 M162.977,49.548h9.789v-0.907c-0.047-2.258-0.415-3.968-1.107-5.131c-0.691-1.163-1.891-1.745-3.597-1.745
			c-1.707,0-2.946,0.617-3.719,1.851S163.115,46.826,162.977,49.548z"/>
		<path fill="#5AA854" d="M199.296,25.196v9.201h5.016v7.333h-5.016v18.604c0,1.478,0.202,2.494,0.605,3.049
			c0.403,0.554,1.182,0.831,2.335,0.831c0.945,0,1.718-0.081,2.317-0.242l-0.069,7.609c-1.66,0.623-3.459,0.934-5.396,0.934
			c-6.318,0-9.513-3.624-9.581-10.873V41.73h-4.324v-7.333h4.324v-9.201H199.296z"/>
		<path fill="#5AA854" d="M227.452,71.823c-0.276-0.576-0.554-1.545-0.83-2.905c-1.753,2.398-4.128,3.597-7.126,3.597
			c-3.136,0-5.736-1.037-7.8-3.112c-2.063-2.076-3.096-4.762-3.096-8.06c0-3.92,1.251-6.952,3.753-9.097
			c2.502-2.146,6.105-3.24,10.81-3.286h2.975v-3.01c0-1.683-0.289-2.871-0.865-3.563s-1.418-1.038-2.524-1.038
			c-2.444,0-3.667,1.431-3.667,4.289h-9.788c0-3.459,1.297-6.313,3.891-8.561c2.595-2.248,5.875-3.372,9.841-3.372
			c4.104,0,7.281,1.066,9.529,3.199c2.249,2.133,3.373,5.183,3.373,9.148V63.66c0.046,3.229,0.507,5.754,1.383,7.575v0.588H227.452z
			 M221.676,64.836c1.083,0,2.006-0.219,2.767-0.657c0.762-0.438,1.326-0.956,1.695-1.557V54.84h-2.353
			c-1.66,0-2.969,0.53-3.926,1.591c-0.957,1.062-1.436,2.479-1.436,4.255C218.424,63.452,219.508,64.836,221.676,64.836z"/>
		<path fill="#EB743B" d="M242.913,71.823V28.022h14.889c5.113,0,9.017,1.034,11.711,3.102c2.694,2.068,4.042,5.07,4.042,9.005
			c0,2.231-0.488,4.173-1.466,5.827s-2.42,2.871-4.324,3.647c2.055,0.602,3.647,1.748,4.775,3.439
			c1.128,1.692,1.691,3.767,1.691,6.223c0,4.361-1.266,7.545-3.797,9.55c-2.532,2.006-6.342,3.008-11.43,3.008H242.913z
			 M253.553,46.22h5.113c2.832-0.075,4.249-1.579,4.249-4.512c0-1.729-0.352-2.964-1.053-3.703c-0.702-0.739-1.78-1.109-3.233-1.109
			h-5.076V46.22z M253.553,53.626v9.438h5.452c1.479,0,2.612-0.402,3.402-1.208c0.789-0.805,1.185-1.912,1.185-3.322
			c0-3.171-1.278-4.806-3.835-4.907H253.553z"/>
		<path fill="#EB743B" d="M299.197,43.841l-3.251-0.277c-2.676,0-4.485,1.176-5.431,3.528v24.731h-9.823V34.397h9.235l0.276,4.047
			c1.545-3.159,3.678-4.738,6.399-4.738c1.106,0,2.006,0.149,2.698,0.449L299.197,43.841z"/>
		<path fill="#EB743B" d="M320.954,71.823c-0.276-0.576-0.554-1.545-0.83-2.905c-1.753,2.398-4.128,3.597-7.126,3.597
			c-3.136,0-5.736-1.037-7.8-3.112c-2.063-2.076-3.096-4.762-3.096-8.06c0-3.92,1.251-6.952,3.753-9.097
			c2.502-2.146,6.105-3.24,10.81-3.286h2.975v-3.01c0-1.683-0.289-2.871-0.865-3.563s-1.418-1.038-2.524-1.038
			c-2.444,0-3.667,1.431-3.667,4.289h-9.788c0-3.459,1.297-6.313,3.891-8.561c2.595-2.248,5.875-3.372,9.841-3.372
			c4.104,0,7.281,1.066,9.529,3.199c2.249,2.133,3.373,5.183,3.373,9.148V63.66c0.046,3.229,0.507,5.754,1.383,7.575v0.588H320.954z
			 M315.178,64.836c1.083,0,2.006-0.219,2.767-0.657c0.762-0.438,1.326-0.956,1.695-1.557V54.84h-2.353
			c-1.66,0-2.969,0.53-3.926,1.591c-0.957,1.062-1.436,2.479-1.436,4.255C311.926,63.452,313.01,64.836,315.178,64.836z"/>
		<path fill="#EB743B" d="M336.52,24.713c0-1.522,0.484-2.768,1.453-3.736s2.26-1.452,3.874-1.452c1.613,0,2.905,0.483,3.874,1.452
			s1.452,2.214,1.452,3.736c0,1.499-0.479,2.744-1.435,3.735c-0.958,0.991-2.255,1.487-3.892,1.487
			c-1.638,0-2.935-0.496-3.892-1.487S336.52,26.212,336.52,24.713z M346.793,71.823h-9.823V34.397h9.823V71.823z"/>
		<path fill="#EB743B" d="M363.326,34.397l0.276,3.701c2.214-2.929,5.107-4.393,8.683-4.393c6.434,0,9.742,4.508,9.927,13.524
			v24.593h-9.823V47.956c0-2.121-0.317-3.66-0.951-4.617c-0.635-0.957-1.747-1.436-3.338-1.436c-1.776,0-3.16,0.911-4.151,2.732
			v27.188h-9.823V34.397H363.326z"/>
		<path fill="#EB743B" d="M400.061,63.764h14.804v8.06h-26.426v-6.07l14.458-23.192h-14.112v-8.163h25.873v5.915L400.061,63.764z"/>
	</g>
	<g>
		<polygon fill="#EB743B" points="47,2 47,98 88,74 88,26 		"/>
		<polygon fill="#5AA854" points="44,2 3,26 3,74 44,98 		"/>
		<path fill="#FFFEDB" d="M79.281,58.087c-1.239-1.97-3.38-3.148-5.718-3.148c-0.666,0-1.324,0.103-1.956,0.295
			c-2.632-3.125-5.819-4.775-8.603-5.636c2.235-1.714,4.208-3.771,5.909-6.153c1.74,0.394,3.63,0.127,5.162-0.832
			c3.158-2.006,4.103-6.197,2.104-9.348c-1.249-1.975-3.39-3.152-5.724-3.152c-1.283,0-2.533,0.363-3.616,1.05
			c-3.146,1.991-4.093,6.181-2.105,9.336c0.13,0.207,0.271,0.404,0.422,0.596c-2.514,3.442-5.708,6.056-9.519,7.785l-0.014,0.004
			C52.093,50.487,50,51,47,51v5c4,0,5.931-1.125,10.016-2.898c1.366-0.023,6.962,0.185,10.991,4.747
			c-1.507,2.164-1.655,5.108-0.16,7.471c1.241,1.97,3.382,3.15,5.721,3.15c1.278,0,2.524-0.36,3.607-1.044
			c1.538-0.975,2.599-2.482,2.995-4.252C80.566,61.413,80.248,59.606,79.281,58.087z M69.061,34.67
			c0.423-0.266,0.901-0.405,1.396-0.405c0.903,0,1.731,0.456,2.219,1.224c0.771,1.214,0.403,2.836-0.818,3.61
			c-0.41,0.261-0.896,0.398-1.387,0.398c-0.493,0-0.974-0.134-1.39-0.391c-0.343-0.213-0.625-0.489-0.832-0.817
			C67.478,37.064,67.842,35.443,69.061,34.67z M76.119,62.27c-0.154,0.687-0.564,1.27-1.161,1.645
			c-0.413,0.264-0.896,0.406-1.391,0.406c-0.906,0-1.731-0.457-2.21-1.218c-0.745-1.18-0.441-2.727,0.691-3.528l0.117-0.078
			c1.208-0.766,2.866-0.367,3.608,0.808C76.151,60.896,76.271,61.591,76.119,62.27z"/>
		<path fill="#FFFEDB" d="M14.624,37.93c0.5,2.273,2.116,4.105,4.316,4.896c0.627,0.225,1.281,0.352,1.94,0.384
			c1.42,3.831,4.06,7.207,6.525,8.759c-2.545,1.053-3.707,1.422-6.183,3.461c-1.579-0.831-3.474-1.063-5.201-0.533
			c-3.57,1.12-5.567,4.924-4.453,8.484c0.695,2.23,2.458,3.922,4.712,4.526c1.239,0.333,2.541,0.306,3.765-0.077
			c3.556-1.109,5.554-4.91,4.451-8.473c-0.072-0.233-0.157-0.461-0.253-0.685c3.319-2.674,5.408-3.114,9.537-3.798h0.014
			C37.623,54.239,41.177,54.985,44,56v-5c-3.563-1-6.739-0.996-11.144-0.341c-1.326-0.331-5.453-3.037-7.702-8.693
			c2.149-1.526,3.285-4.247,2.677-6.976c-0.503-2.274-2.118-4.109-4.319-4.899c-1.203-0.433-2.497-0.515-3.748-0.237
			c-1.776,0.396-3.285,1.457-4.256,2.988C14.539,34.365,14.229,36.173,14.624,37.93z M18.811,63.867
			c-0.478,0.146-0.976,0.158-1.454,0.029c-0.872-0.233-1.554-0.889-1.826-1.756c-0.431-1.372,0.345-2.844,1.726-3.275
			c0.463-0.146,0.968-0.153,1.442-0.026c0.477,0.128,0.905,0.382,1.241,0.737c0.275,0.295,0.477,0.635,0.592,1.005
			C20.959,61.964,20.188,63.436,18.811,63.867z M19.015,35.063c0.377-0.594,0.96-1.004,1.648-1.155
			c0.478-0.108,0.981-0.079,1.446,0.088c0.853,0.307,1.475,1.016,1.668,1.894c0.303,1.362-0.507,2.715-1.844,3.087l-0.137,0.034
			c-1.396,0.312-2.822-0.624-3.123-1.98C18.52,36.345,18.642,35.65,19.015,35.063z"/>
	</g>
</g>
</svg>
