<?xml version="1.0" encoding="utf-8"?>
<!-- Generator: Adobe Illustrator 16.0.0, SVG Export Plug-In . SVG Version: 6.00 Build 0)  -->
<!DOCTYPE svg PUBLIC "-//W3C//DTD SVG 1.1//EN" "http://www.w3.org/Graphics/SVG/1.1/DTD/svg11.dtd" [
	<!ENTITY ns_extend "http://ns.adobe.com/Extensibility/1.0/">
	<!ENTITY ns_ai "http://ns.adobe.com/AdobeIllustrator/10.0/">
	<!ENTITY ns_graphs "http://ns.adobe.com/Graphs/1.0/">
	<!ENTITY ns_vars "http://ns.adobe.com/Variables/1.0/">
	<!ENTITY ns_imrep "http://ns.adobe.com/ImageReplacement/1.0/">
	<!ENTITY ns_sfw "http://ns.adobe.com/SaveForWeb/1.0/">
	<!ENTITY ns_custom "http://ns.adobe.com/GenericCustomNamespace/1.0/">
	<!ENTITY ns_adobe_xpath "http://ns.adobe.com/XPath/1.0/">
]>
<svg version="1.1" id="Layer_1" xmlns:x="&ns_extend;" xmlns:i="&ns_ai;" xmlns:graph="&ns_graphs;"
	 xmlns="http://www.w3.org/2000/svg" xmlns:xlink="http://www.w3.org/1999/xlink" x="0px" y="0px" width="220px" height="290px"
	 viewBox="0 0 220 290" enable-background="new 0 0 220 290" xml:space="preserve">
<metadata>
	<sfw  xmlns="&ns_sfw;">
		<slices></slices>
		<sliceSourceBounds  height="283.862" width="214.376" y="-974.862" x="3369.212" bottomLeftOrigin="true"></sliceSourceBounds>
	</sfw>
</metadata>
<g>
</g>
<g>
	<g>
		<path fill="#5AA854" d="M44.818,161.85l9.656,36.655l9.656-36.655h17.483v54.607H68.302v-10.875l1.266-25.405l-10.733,36.28
			h-8.766l-10.688-36.093l1.266,25.218v10.875H27.382V161.85H44.818z"/>
		<path fill="#5AA854" d="M109.261,217.319c-6.269,0-11.155-1.868-14.662-5.605c-3.508-3.737-5.262-9.085-5.262-16.042v-3.709
			c0-7.359,1.61-13.037,4.83-17.034c3.22-3.995,7.834-5.994,13.843-5.994c5.865,0,10.277,1.874,13.239,5.62
			c2.96,3.746,4.47,9.293,4.527,16.642v5.984h-24.278c0.173,3.495,0.934,6.051,2.285,7.667s3.436,2.424,6.253,2.424
			c4.082,0,7.489-1.423,10.221-4.269l4.787,7.374c-1.496,2.069-3.666,3.745-6.512,5.023
			C115.686,216.68,112.595,217.319,109.261,217.319z M101.584,188.686h12.204v-1.132c-0.058-2.813-0.518-4.945-1.38-6.396
			s-2.357-2.176-4.484-2.176c-2.128,0-3.673,0.77-4.636,2.307C102.324,182.827,101.757,185.292,101.584,188.686z"/>
		<path fill="#5AA854" d="M146.863,158.326v11.472h6.253v9.142h-6.253v23.193c0,1.843,0.252,3.109,0.755,3.801
			s1.474,1.036,2.911,1.036c1.179,0,2.142-0.101,2.89-0.302l-0.087,9.487c-2.069,0.776-4.313,1.164-6.728,1.164
			c-7.877,0-11.858-4.519-11.944-13.556v-24.824h-5.391v-9.142h5.391v-11.472H146.863z"/>
		<path fill="#5AA854" d="M181.967,216.457c-0.346-0.719-0.69-1.926-1.035-3.622c-2.186,2.99-5.146,4.484-8.884,4.484
			c-3.91,0-7.151-1.294-9.724-3.881c-2.573-2.588-3.86-5.937-3.86-10.048c0-4.887,1.56-8.668,4.68-11.342
			c3.118-2.674,7.611-4.038,13.476-4.097h3.709V184.2c0-2.098-0.36-3.579-1.078-4.441c-0.719-0.862-1.769-1.294-3.148-1.294
			c-3.048,0-4.571,1.783-4.571,5.348h-12.203c0-4.313,1.617-7.87,4.851-10.673c3.234-2.803,7.324-4.205,12.269-4.205
			c5.117,0,9.078,1.33,11.881,3.989s4.205,6.462,4.205,11.406v21.95c0.057,4.025,0.632,7.173,1.725,9.443v0.733H181.967z
			 M174.765,207.746c1.352,0,2.501-0.272,3.45-0.819c0.948-0.546,1.652-1.192,2.113-1.94v-9.703h-2.933
			c-2.07,0-3.702,0.662-4.895,1.983c-1.193,1.323-1.79,3.091-1.79,5.305C170.711,206.021,172.063,207.746,174.765,207.746z"/>
		<path fill="#EB743B" d="M3.179,285.457V230.85H21.74c6.375,0,11.242,1.289,14.602,3.867c3.358,2.578,5.038,6.32,5.038,11.226
			c0,2.782-0.609,5.203-1.827,7.266c-1.219,2.063-3.017,3.579-5.391,4.547c2.562,0.75,4.547,2.18,5.953,4.289
			c1.405,2.109,2.108,4.695,2.108,7.758c0,5.437-1.578,9.405-4.733,11.905c-3.157,2.501-7.906,3.75-14.25,3.75H3.179z
			 M16.443,253.536h6.375c3.531-0.094,5.297-1.969,5.297-5.625c0-2.156-0.438-3.694-1.313-4.616
			c-0.875-0.922-2.219-1.383-4.031-1.383h-6.328V253.536z M16.443,262.771v11.765h6.797c1.844,0,3.258-0.501,4.242-1.506
			c0.984-1.003,1.477-2.384,1.477-4.142c0-3.952-1.594-5.991-4.781-6.117H16.443z"/>
		<path fill="#EB743B" d="M73.35,250.57l-4.054-0.345c-3.335,0-5.592,1.466-6.771,4.398v30.833H50.278v-46.659h11.514l0.346,5.045
			c1.926-3.938,4.585-5.908,7.978-5.908c1.38,0,2.501,0.188,3.363,0.561L73.35,250.57z"/>
		<path fill="#EB743B" d="M100.475,285.457c-0.346-0.719-0.69-1.926-1.035-3.622c-2.186,2.99-5.146,4.484-8.884,4.484
			c-3.91,0-7.151-1.294-9.724-3.881c-2.573-2.588-3.86-5.937-3.86-10.048c0-4.887,1.56-8.668,4.68-11.342
			c3.118-2.674,7.611-4.038,13.476-4.097h3.709V253.2c0-2.098-0.36-3.579-1.078-4.441c-0.719-0.862-1.769-1.294-3.148-1.294
			c-3.048,0-4.571,1.783-4.571,5.348H77.835c0-4.313,1.617-7.87,4.851-10.673c3.234-2.803,7.324-4.205,12.269-4.205
			c5.117,0,9.078,1.33,11.881,3.989s4.205,6.462,4.205,11.406v21.95c0.057,4.025,0.632,7.173,1.725,9.443v0.733H100.475z
			 M93.272,276.746c1.352,0,2.501-0.272,3.45-0.819c0.948-0.546,1.652-1.192,2.113-1.94v-9.703h-2.933
			c-2.07,0-3.702,0.662-4.895,1.983c-1.193,1.323-1.79,3.091-1.79,5.305C89.219,275.021,90.57,276.746,93.272,276.746z"/>
		<path fill="#EB743B" d="M119.88,227.723c0-1.897,0.604-3.449,1.812-4.657c1.207-1.207,2.817-1.812,4.83-1.812
			c2.012,0,3.622,0.604,4.829,1.812c1.208,1.208,1.812,2.76,1.812,4.657c0,1.869-0.597,3.422-1.789,4.657
			c-1.193,1.236-2.811,1.854-4.852,1.854c-2.042,0-3.659-0.618-4.852-1.854C120.477,231.145,119.88,229.592,119.88,227.723z
			 M132.688,285.457H120.44v-46.659h12.247V285.457z"/>
		<path fill="#EB743B" d="M153.301,238.798l0.346,4.614c2.76-3.651,6.367-5.478,10.823-5.478c8.021,0,12.146,5.621,12.377,16.861
			v30.661H164.6v-29.755c0-2.645-0.396-4.564-1.186-5.757c-0.792-1.193-2.178-1.79-4.162-1.79c-2.214,0-3.938,1.136-5.175,3.406
			v33.896H141.83v-46.659H153.301z"/>
		<path fill="#EB743B" d="M199.098,275.409h18.457v10.048h-32.946v-7.568l18.025-28.914h-17.595v-10.177h32.257v7.374
			L199.098,275.409z"/>
	</g>
	<g>
		<polygon fill="#EB743B" points="111.967,2.457 111.967,146.457 172.967,111.457 172.967,37.457 		"/>
		<polygon fill="#5AA854" points="106.967,2.457 45.967,37.457 45.967,111.457 106.967,146.457 		"/>
		<g>
			<g opacity="0.07">
				<path d="M129.269,94.19c0.386-0.645,1.066-1.03,1.819-1.03c0.378,0,0.752,0.104,1.078,0.297c1,0.601,1.331,1.899,0.735,2.898
					c-0.385,0.646-1.064,1.032-1.817,1.032c-0.379,0-0.755-0.104-1.084-0.301c-0.483-0.288-0.826-0.748-0.964-1.294
					C128.897,95.244,128.98,94.676,129.269,94.19z M141.871,116.553c-0.49,0.421-1.018,0.509-1.373,0.509
					c-0.621,0-1.207-0.269-1.608-0.734c-0.758-0.885-0.654-2.222,0.231-2.981c0.492-0.423,1.018-0.512,1.373-0.512
					c0.617,0,1.201,0.269,1.605,0.74c0.368,0.43,0.547,0.976,0.504,1.538S142.302,116.185,141.871,116.553z"/>
				<path d="M120.968,48.067c0.07,0.019,0.142,0.034,0.212,0.046C121.107,48.102,121.037,48.086,120.968,48.067z"/>
				<path d="M132.347,57.714c0.169-0.267,0.395-0.49,0.673-0.661c0.335-0.207,0.722-0.316,1.121-0.316c0.4,0,0.79,0.112,1.122,0.321
					c0.987,0.627,1.283,1.936,0.66,2.919c-0.392,0.618-1.063,0.988-1.795,0.988c-0.397,0-0.785-0.113-1.124-0.327
					C132.02,60.014,131.726,58.701,132.347,57.714z M138.726,37.526c-0.6,0.951-1.938,1.271-2.912,0.653l-0.096-0.063
					c-0.914-0.647-1.161-1.897-0.558-2.851c0.386-0.613,1.053-0.98,1.784-0.98c0.397,0,0.787,0.113,1.124,0.326
					c0.479,0.304,0.813,0.775,0.937,1.33C139.127,36.488,139.03,37.049,138.726,37.526z"/>
				<path d="M155.492,49.125c0.388-0.614,1.054-0.98,1.783-0.98c0.399,0,0.79,0.113,1.125,0.325c0.48,0.304,0.813,0.775,0.937,1.33
					c0.122,0.546,0.024,1.106-0.279,1.584c-0.598,0.951-1.938,1.272-2.912,0.653l-0.094-0.063
					C155.135,51.328,154.89,50.078,155.492,49.125z M155.492,72.588c0.388-0.614,1.054-0.98,1.783-0.98
					c0.399,0,0.79,0.112,1.125,0.326c0.48,0.304,0.813,0.774,0.937,1.329c0.122,0.546,0.024,1.107-0.279,1.585
					c-0.598,0.95-1.938,1.271-2.912,0.652l-0.094-0.063C155.135,74.791,154.89,73.541,155.492,72.588z M155.492,98.891
					c0.388-0.613,1.054-0.979,1.783-0.979c0.399,0,0.79,0.112,1.125,0.325c0.48,0.304,0.813,0.775,0.937,1.33
					c0.122,0.547,0.024,1.106-0.279,1.584c-0.598,0.951-1.938,1.271-2.912,0.653l-0.094-0.063
					C155.135,101.094,154.89,99.845,155.492,98.891z"/>
				<path d="M145.143,108.561c-1.165-1.36-2.858-2.139-4.648-2.139c-1.459,0-2.875,0.525-3.983,1.477
					c-1.612,1.383-2.326,3.429-2.087,5.397c-1.948,0.7-4.258,1.365-5.328,1.332c-0.821-0.044-1.302-0.346-2.224-0.972
					c-1.172-0.795-2.418-1.512-4.148-1.847c2.936-2.761,6.009-6.83,8.584-12.834c2.061-0.076,3.976-1.193,5.038-2.972
					c1.725-2.896,0.773-6.659-2.124-8.394c-0.949-0.565-2.032-0.864-3.134-0.864c-2.146,0-4.161,1.144-5.261,2.986
					c-0.838,1.405-1.079,3.05-0.678,4.636c0.351,1.393,1.16,2.59,2.302,3.429c-4.053,9.218-9.219,13.081-12.565,14.685
					c-0.128,0.045-0.248,0.101-0.36,0.168c-1.187,0.531-2.05,0.704-2.559,0.808v4c0.275-0.03,1.885-0.118,4.247-1.192
					c5.348-1.357,6.839-0.354,8.407,0.709c1.021,0.692,2.291,1.554,4.263,1.656c0.1,0.005,0.204,0.008,0.309,0.008
					c2.109,0,5.172-1.022,7.021-1.723c1.144,1.116,2.676,1.75,4.285,1.75l0,0c1.461,0,2.876-0.524,3.983-1.476
					c1.24-1.062,1.993-2.546,2.118-4.176C146.725,111.382,146.207,109.799,145.143,108.561z M129.269,91.785
					c0.386-0.645,1.066-1.03,1.819-1.03c0.378,0,0.752,0.104,1.078,0.297c1,0.601,1.331,1.899,0.735,2.898
					c-0.385,0.646-1.064,1.032-1.817,1.032c-0.379,0-0.755-0.104-1.084-0.301c-0.483-0.288-0.826-0.748-0.964-1.294
					C128.897,92.839,128.98,92.271,129.269,91.785z M141.871,114.147c-0.49,0.421-1.018,0.509-1.373,0.509
					c-0.621,0-1.207-0.269-1.608-0.734c-0.758-0.885-0.654-2.222,0.231-2.981c0.492-0.423,1.018-0.512,1.373-0.512
					c0.617,0,1.201,0.269,1.605,0.74c0.368,0.43,0.547,0.976,0.504,1.538S142.302,113.779,141.871,114.147z"/>
				<path d="M120.968,45.662c0.07,0.019,0.142,0.034,0.212,0.046C121.107,45.696,121.037,45.681,120.968,45.662z"/>
				<path d="M142.917,32.661c-0.357-1.599-1.317-2.964-2.708-3.844c-0.98-0.617-2.109-0.944-3.265-0.944
					c-2.117,0-4.053,1.066-5.174,2.85c-1.354,2.138-1.218,4.799,0.144,6.759c-3.646,4.124-8.706,4.313-9.942,4.293
					c-3.692-1.604-7.234-2.164-10.005-2.317v3.996c2.441,0.144,5.553,0.686,8.748,2.136c0.005,0.002,0.01,0.002,0.015,0.005
					c3.445,1.563,6.334,3.928,8.607,7.041c-0.136,0.173-0.265,0.352-0.382,0.538c-1.796,2.854-0.942,6.644,1.903,8.444
					c0.98,0.622,2.111,0.951,3.27,0.951c2.113,0,4.051-1.065,5.183-2.852c1.806-2.851,0.951-6.642-1.908-8.453
					c-1.384-0.871-3.092-1.113-4.667-0.755c-1.538-2.154-3.323-4.017-5.345-5.566c2.517-0.778,5.401-2.269,7.78-5.096
					c0.572,0.172,1.166,0.267,1.77,0.267c2.116,0,4.051-1.068,5.172-2.849C142.987,35.89,143.273,34.256,142.917,32.661z
					 M132.347,55.309c0.169-0.267,0.395-0.49,0.673-0.661c0.335-0.207,0.722-0.316,1.121-0.316c0.4,0,0.79,0.112,1.122,0.321
					c0.987,0.627,1.283,1.936,0.66,2.919c-0.392,0.618-1.063,0.988-1.795,0.988c-0.397,0-0.785-0.113-1.124-0.327
					C132.02,57.608,131.726,56.296,132.347,55.309z M138.726,35.121c-0.6,0.951-1.938,1.271-2.912,0.653l-0.096-0.063
					c-0.914-0.647-1.161-1.897-0.558-2.851c0.386-0.613,1.053-0.98,1.784-0.98c0.397,0,0.787,0.113,1.124,0.326
					c0.479,0.304,0.813,0.775,0.937,1.33C139.127,34.083,139.03,34.644,138.726,35.121z"/>
				<path d="M151.612,73.645c0.425,1.035,1.136,1.962,2.109,2.649c0.072,0.052,0.151,0.105,0.283,0.191
					c0.981,0.621,2.11,0.949,3.268,0.949c2.116,0,4.052-1.068,5.173-2.849c0.875-1.375,1.16-3.01,0.805-4.604
					c-0.358-1.598-1.318-2.964-2.709-3.844c-0.98-0.617-2.109-0.944-3.266-0.944c-0.125,0-0.25,0.008-0.375,0.018
					c-0.71-3.157-0.919-7.769,0.035-11.265c0.112,0.011,0.225,0.024,0.337,0.024c2.116,0,4.052-1.067,5.173-2.849
					c0.875-1.375,1.16-3.009,0.805-4.604c-0.358-1.599-1.318-2.964-2.709-3.844c-0.98-0.617-2.109-0.944-3.266-0.944
					c-2.114,0-4.051,1.066-5.173,2.85c-1.604,2.532-1.12,5.804,1.024,7.765c0.021,0.02,0.048,0.037,0.071,0.059
					c-1.349,4.518-1.146,10.324-0.036,14.417c-0.144,0.132-0.294,0.254-0.426,0.399c-0.229,0.255-0.445,0.526-0.634,0.824
					c-0.318,0.502-0.551,1.033-0.71,1.578c-3.371,0.488-5.198,1.671-6.824,2.729c-2.035,1.324-3.961,2.572-9.636,2.665
					c-1.964-0.23-3.553-0.177-5.29-0.116c-1.431,0.052-2.91,0.106-4.849,0.003c-1.335-0.071-2.104-0.882-3.458-2.424
					c-1.803-2.055-4.219-4.648-9.369-5.022v4c3.295,0.3,4.796,1.888,6.356,3.667c1.487,1.694,3.175,3.615,6.256,3.782
					c2.118,0.114,3.76,0.052,5.208,0.001c2.491-0.092,4.453-0.161,7.855,0.684c2.607,0.643,12.099,9.673,14.773,14.322
					c-0.108,0.142-0.219,0.282-0.313,0.434c-1.743,2.755-1.026,6.385,1.619,8.251c0.072,0.052,0.151,0.104,0.283,0.191
					c0.981,0.621,2.11,0.948,3.268,0.948c2.116,0,4.052-1.068,5.173-2.849c0.875-1.374,1.16-3.009,0.805-4.603
					c-0.358-1.6-1.318-2.965-2.709-3.845c-0.98-0.617-2.109-0.944-3.266-0.944c-0.528,0-1.047,0.067-1.543,0.195
					c-2.561-4.187-8.652-10.455-13.189-13.792c1.813-0.628,3.05-1.435,4.212-2.188C148.183,74.782,149.369,74.021,151.612,73.645z
					 M155.492,46.72c0.388-0.614,1.054-0.98,1.783-0.98c0.399,0,0.79,0.113,1.125,0.325c0.48,0.304,0.813,0.775,0.937,1.33
					c0.122,0.546,0.024,1.106-0.279,1.584c-0.598,0.951-1.938,1.272-2.912,0.653l-0.094-0.063
					C155.135,48.923,154.89,47.673,155.492,46.72z M155.492,70.183c0.388-0.614,1.054-0.98,1.783-0.98
					c0.399,0,0.79,0.112,1.125,0.326c0.48,0.304,0.813,0.774,0.937,1.329c0.122,0.546,0.024,1.107-0.279,1.585
					c-0.598,0.95-1.938,1.271-2.912,0.652l-0.094-0.063C155.135,72.386,154.89,71.136,155.492,70.183z M155.492,96.485
					c0.388-0.613,1.054-0.979,1.783-0.979c0.399,0,0.79,0.112,1.125,0.325c0.48,0.304,0.813,0.775,0.937,1.33
					c0.122,0.547,0.024,1.106-0.279,1.584c-0.598,0.951-1.938,1.271-2.912,0.653l-0.094-0.063
					C155.135,98.688,154.89,97.439,155.492,96.485z"/>
			</g>
			<g>
				<g>
					<path fill="#D3562C" d="M145.143,111.561c-1.165-1.36-2.858-2.139-4.648-2.139c-1.459,0-2.875,0.525-3.983,1.477
						c-1.612,1.383-2.326,3.429-2.087,5.397c-1.948,0.7-4.258,1.365-5.328,1.332c-0.821-0.044-1.302-0.346-2.224-0.972
						c-1.172-0.795-2.418-1.512-4.148-1.847c2.936-2.761,6.009-6.83,8.584-12.834c2.061-0.076,3.976-1.193,5.038-2.972
						c1.725-2.896,0.773-6.659-2.124-8.394c-0.949-0.565-2.032-0.864-3.134-0.864c-2.146,0-4.161,1.144-5.261,2.986
						c-0.838,1.405-1.079,3.05-0.678,4.636c0.351,1.393,1.16,2.59,2.302,3.429c-4.053,9.218-9.219,13.081-12.565,14.685
						c-0.128,0.045-0.248,0.101-0.36,0.168c-1.187,0.531-2.05,0.704-2.559,0.808v4c0.275-0.03,1.885-0.118,4.247-1.192
						c5.348-1.357,6.839-0.354,8.407,0.709c1.021,0.692,2.291,1.554,4.263,1.656c0.1,0.005,0.204,0.008,0.309,0.008
						c2.109,0,5.172-1.022,7.021-1.723c1.144,1.116,2.676,1.75,4.285,1.75l0,0c1.461,0,2.876-0.524,3.983-1.476
						c1.24-1.062,1.993-2.546,2.118-4.176C146.725,114.382,146.207,112.799,145.143,111.561z M129.269,94.785
						c0.386-0.645,1.066-1.03,1.819-1.03c0.378,0,0.752,0.104,1.078,0.297c1,0.601,1.331,1.899,0.735,2.898
						c-0.385,0.646-1.064,1.032-1.817,1.032c-0.379,0-0.755-0.104-1.084-0.301c-0.483-0.288-0.826-0.748-0.964-1.294
						C128.897,95.839,128.98,95.271,129.269,94.785z M141.871,117.147c-0.49,0.421-1.018,0.509-1.373,0.509
						c-0.621,0-1.207-0.269-1.608-0.734c-0.758-0.885-0.654-2.222,0.231-2.981c0.492-0.423,1.018-0.512,1.373-0.512
						c0.617,0,1.201,0.269,1.605,0.74c0.368,0.43,0.547,0.976,0.504,1.538S142.302,116.779,141.871,117.147z"/>
					<path d="M120.968,48.067c0.07,0.019,0.142,0.034,0.212,0.046C121.107,48.102,121.037,48.086,120.968,48.067z"/>
					<path fill="#D3562C" d="M142.917,35.665c-0.357-1.599-1.317-2.964-2.708-3.844c-0.98-0.617-2.109-0.944-3.265-0.944
						c-2.117,0-4.053,1.066-5.174,2.85c-1.354,2.138-1.218,4.799,0.144,6.759c-3.646,4.124-8.706,4.313-9.942,4.293
						c-3.692-1.604-7.234-2.164-10.005-2.317v3.996c2.441,0.144,5.553,0.686,8.748,2.136c0.005,0.002,0.01,0.002,0.015,0.005
						c3.445,1.563,6.334,3.928,8.607,7.041c-0.136,0.173-0.265,0.352-0.382,0.538c-1.796,2.854-0.942,6.644,1.903,8.444
						c0.98,0.622,2.111,0.951,3.27,0.951c2.113,0,4.051-1.065,5.183-2.852c1.806-2.851,0.951-6.642-1.908-8.453
						c-1.384-0.871-3.092-1.113-4.667-0.755c-1.538-2.154-3.323-4.017-5.345-5.566c2.517-0.778,5.401-2.269,7.78-5.096
						c0.572,0.172,1.166,0.267,1.77,0.267c2.116,0,4.051-1.068,5.172-2.849C142.987,38.894,143.273,37.26,142.917,35.665z
						 M132.347,58.313c0.169-0.267,0.395-0.49,0.673-0.661c0.335-0.207,0.722-0.316,1.121-0.316c0.4,0,0.79,0.112,1.122,0.321
						c0.987,0.627,1.283,1.936,0.66,2.919c-0.392,0.618-1.063,0.988-1.795,0.988c-0.397,0-0.785-0.113-1.124-0.327
						C132.02,60.612,131.726,59.3,132.347,58.313z M138.726,38.125c-0.6,0.951-1.938,1.271-2.912,0.653l-0.096-0.063
						c-0.914-0.647-1.161-1.897-0.558-2.851c0.386-0.613,1.053-0.98,1.784-0.98c0.397,0,0.787,0.113,1.124,0.326
						c0.479,0.304,0.813,0.775,0.937,1.33C139.127,37.087,139.03,37.647,138.726,38.125z"/>
					<path fill="#D3562C" d="M151.612,76.645c0.425,1.035,1.136,1.962,2.109,2.649c0.072,0.052,0.151,0.105,0.283,0.191
						c0.981,0.621,2.11,0.949,3.268,0.949c2.116,0,4.052-1.068,5.173-2.849c0.875-1.375,1.16-3.01,0.805-4.604
						c-0.358-1.598-1.318-2.964-2.709-3.844c-0.98-0.617-2.109-0.944-3.266-0.944c-0.125,0-0.25,0.008-0.375,0.018
						c-0.71-3.157-0.919-7.769,0.035-11.265c0.112,0.011,0.225,0.024,0.337,0.024c2.116,0,4.052-1.067,5.173-2.849
						c0.875-1.375,1.16-3.009,0.805-4.604c-0.358-1.599-1.318-2.964-2.709-3.844c-0.98-0.617-2.109-0.944-3.266-0.944
						c-2.114,0-4.051,1.066-5.173,2.85c-1.604,2.532-1.12,5.804,1.024,7.765c0.021,0.02,0.048,0.037,0.071,0.059
						c-1.349,4.518-1.146,10.324-0.036,14.417c-0.144,0.132-0.294,0.254-0.426,0.399c-0.229,0.255-0.445,0.526-0.634,0.824
						c-0.318,0.502-0.551,1.033-0.71,1.578c-3.371,0.488-5.198,1.671-6.824,2.729c-2.035,1.324-3.961,2.572-9.636,2.665
						c-1.964-0.23-3.553-0.177-5.29-0.116c-1.431,0.052-2.91,0.106-4.849,0.003c-1.335-0.071-2.104-0.882-3.458-2.424
						c-1.803-2.055-4.219-4.648-9.369-5.022v4c3.295,0.3,4.796,1.888,6.356,3.667c1.487,1.694,3.175,3.615,6.256,3.782
						c2.118,0.114,3.76,0.052,5.208,0.001c2.491-0.092,4.453-0.161,7.855,0.684c2.607,0.643,12.099,9.673,14.773,14.322
						c-0.108,0.142-0.219,0.282-0.313,0.434c-1.743,2.755-1.026,6.385,1.619,8.251c0.072,0.052,0.151,0.104,0.283,0.191
						c0.981,0.621,2.11,0.948,3.268,0.948c2.116,0,4.052-1.068,5.173-2.849c0.875-1.374,1.16-3.009,0.805-4.603
						c-0.358-1.6-1.318-2.965-2.709-3.845c-0.98-0.617-2.109-0.944-3.266-0.944c-0.528,0-1.047,0.067-1.543,0.195
						c-2.561-4.187-8.652-10.455-13.189-13.792c1.813-0.628,3.05-1.435,4.212-2.188C148.183,77.782,149.369,77.021,151.612,76.645z
						 M155.492,49.72c0.388-0.614,1.054-0.98,1.783-0.98c0.399,0,0.79,0.113,1.125,0.325c0.48,0.304,0.813,0.775,0.937,1.33
						c0.122,0.546,0.024,1.106-0.279,1.584c-0.598,0.951-1.938,1.272-2.912,0.653l-0.094-0.063
						C155.135,51.923,154.89,50.673,155.492,49.72z M155.492,73.183c0.388-0.614,1.054-0.98,1.783-0.98
						c0.399,0,0.79,0.112,1.125,0.326c0.48,0.304,0.813,0.774,0.937,1.329c0.122,0.546,0.024,1.107-0.279,1.585
						c-0.598,0.95-1.938,1.271-2.912,0.652l-0.094-0.063C155.135,75.386,154.89,74.136,155.492,73.183z M155.492,99.485
						c0.388-0.613,1.054-0.979,1.783-0.979c0.399,0,0.79,0.112,1.125,0.325c0.48,0.304,0.813,0.775,0.937,1.33
						c0.122,0.547,0.024,1.106-0.279,1.584c-0.598,0.951-1.938,1.271-2.912,0.653l-0.094-0.063
						C155.135,101.688,154.89,100.439,155.492,99.485z"/>
				</g>
				<g>
					<path fill="#FFFEDB" d="M145.143,108.561c-1.165-1.36-2.858-2.139-4.648-2.139c-1.459,0-2.875,0.525-3.983,1.477
						c-1.612,1.383-2.326,3.429-2.087,5.397c-1.948,0.7-4.258,1.365-5.328,1.332c-0.821-0.044-1.302-0.346-2.224-0.972
						c-1.172-0.795-2.418-1.512-4.148-1.847c2.936-2.761,6.009-6.83,8.584-12.834c2.061-0.076,3.976-1.193,5.038-2.972
						c1.725-2.896,0.773-6.659-2.124-8.394c-0.949-0.565-2.032-0.864-3.134-0.864c-2.146,0-4.161,1.144-5.261,2.986
						c-0.838,1.405-1.079,3.05-0.678,4.636c0.351,1.393,1.16,2.59,2.302,3.429c-4.053,9.218-9.219,13.081-12.565,14.685
						c-0.128,0.045-0.248,0.101-0.36,0.168c-1.187,0.531-2.05,0.704-2.559,0.808v4c0.275-0.03,1.885-0.118,4.247-1.192
						c5.348-1.357,6.839-0.354,8.407,0.709c1.021,0.692,2.291,1.554,4.263,1.656c0.1,0.005,0.204,0.008,0.309,0.008
						c2.109,0,5.172-1.022,7.021-1.723c1.144,1.116,2.676,1.75,4.285,1.75l0,0c1.461,0,2.876-0.524,3.983-1.476
						c1.24-1.062,1.993-2.546,2.118-4.176C146.725,111.382,146.207,109.799,145.143,108.561z M129.269,91.785
						c0.386-0.645,1.066-1.03,1.819-1.03c0.378,0,0.752,0.104,1.078,0.297c1,0.601,1.331,1.899,0.735,2.898
						c-0.385,0.646-1.064,1.032-1.817,1.032c-0.379,0-0.755-0.104-1.084-0.301c-0.483-0.288-0.826-0.748-0.964-1.294
						C128.897,92.839,128.98,92.271,129.269,91.785z M141.871,114.147c-0.49,0.421-1.018,0.509-1.373,0.509
						c-0.621,0-1.207-0.269-1.608-0.734c-0.758-0.885-0.654-2.222,0.231-2.981c0.492-0.423,1.018-0.512,1.373-0.512
						c0.617,0,1.201,0.269,1.605,0.74c0.368,0.43,0.547,0.976,0.504,1.538S142.302,113.779,141.871,114.147z"/>
					<path fill="#FFFEDB" d="M120.968,45.662c0.07,0.019,0.142,0.034,0.212,0.046C121.107,45.696,121.037,45.681,120.968,45.662z"/>
					<path fill="#FFFEDB" d="M142.917,32.661c-0.357-1.599-1.317-2.964-2.708-3.844c-0.98-0.617-2.109-0.944-3.265-0.944
						c-2.117,0-4.053,1.066-5.174,2.85c-1.354,2.138-1.218,4.799,0.144,6.759c-3.646,4.124-8.706,4.313-9.942,4.293
						c-3.692-1.604-7.234-2.164-10.005-2.317v3.996c2.441,0.144,5.553,0.686,8.748,2.136c0.005,0.002,0.01,0.002,0.015,0.005
						c3.445,1.563,6.334,3.928,8.607,7.041c-0.136,0.173-0.265,0.352-0.382,0.538c-1.796,2.854-0.942,6.644,1.903,8.444
						c0.98,0.622,2.111,0.951,3.27,0.951c2.113,0,4.051-1.065,5.183-2.852c1.806-2.851,0.951-6.642-1.908-8.453
						c-1.384-0.871-3.092-1.113-4.667-0.755c-1.538-2.154-3.323-4.017-5.345-5.566c2.517-0.778,5.401-2.269,7.78-5.096
						c0.572,0.172,1.166,0.267,1.77,0.267c2.116,0,4.051-1.068,5.172-2.849C142.987,35.89,143.273,34.256,142.917,32.661z
						 M132.347,55.309c0.169-0.267,0.395-0.49,0.673-0.661c0.335-0.207,0.722-0.316,1.121-0.316c0.4,0,0.79,0.112,1.122,0.321
						c0.987,0.627,1.283,1.936,0.66,2.919c-0.392,0.618-1.063,0.988-1.795,0.988c-0.397,0-0.785-0.113-1.124-0.327
						C132.02,57.608,131.726,56.296,132.347,55.309z M138.726,35.121c-0.6,0.951-1.938,1.271-2.912,0.653l-0.096-0.063
						c-0.914-0.647-1.161-1.897-0.558-2.851c0.386-0.613,1.053-0.98,1.784-0.98c0.397,0,0.787,0.113,1.124,0.326
						c0.479,0.304,0.813,0.775,0.937,1.33C139.127,34.083,139.03,34.644,138.726,35.121z"/>
					<path fill="#FFFEDB" d="M151.612,73.645c0.425,1.035,1.136,1.962,2.109,2.649c0.072,0.052,0.151,0.105,0.283,0.191
						c0.981,0.621,2.11,0.949,3.268,0.949c2.116,0,4.052-1.068,5.173-2.849c0.875-1.375,1.16-3.01,0.805-4.604
						c-0.358-1.598-1.318-2.964-2.709-3.844c-0.98-0.617-2.109-0.944-3.266-0.944c-0.125,0-0.25,0.008-0.375,0.018
						c-0.71-3.157-0.919-7.769,0.035-11.265c0.112,0.011,0.225,0.024,0.337,0.024c2.116,0,4.052-1.067,5.173-2.849
						c0.875-1.375,1.16-3.009,0.805-4.604c-0.358-1.599-1.318-2.964-2.709-3.844c-0.98-0.617-2.109-0.944-3.266-0.944
						c-2.114,0-4.051,1.066-5.173,2.85c-1.604,2.532-1.12,5.804,1.024,7.765c0.021,0.02,0.048,0.037,0.071,0.059
						c-1.349,4.518-1.146,10.324-0.036,14.417c-0.144,0.132-0.294,0.254-0.426,0.399c-0.229,0.255-0.445,0.526-0.634,0.824
						c-0.318,0.502-0.551,1.033-0.71,1.578c-3.371,0.488-5.198,1.671-6.824,2.729c-2.035,1.324-3.961,2.572-9.636,2.665
						c-1.964-0.23-3.553-0.177-5.29-0.116c-1.431,0.052-2.91,0.106-4.849,0.003c-1.335-0.071-2.104-0.882-3.458-2.424
						c-1.803-2.055-4.219-4.648-9.369-5.022v4c3.295,0.3,4.796,1.888,6.356,3.667c1.487,1.694,3.175,3.615,6.256,3.782
						c2.118,0.114,3.76,0.052,5.208,0.001c2.491-0.092,4.453-0.161,7.855,0.684c2.607,0.643,12.099,9.673,14.773,14.322
						c-0.108,0.142-0.219,0.282-0.313,0.434c-1.743,2.755-1.026,6.385,1.619,8.251c0.072,0.052,0.151,0.104,0.283,0.191
						c0.981,0.621,2.11,0.948,3.268,0.948c2.116,0,4.052-1.068,5.173-2.849c0.875-1.374,1.16-3.009,0.805-4.603
						c-0.358-1.6-1.318-2.965-2.709-3.845c-0.98-0.617-2.109-0.944-3.266-0.944c-0.528,0-1.047,0.067-1.543,0.195
						c-2.561-4.187-8.652-10.455-13.189-13.792c1.813-0.628,3.05-1.435,4.212-2.188C148.183,74.782,149.369,74.021,151.612,73.645z
						 M155.492,46.72c0.388-0.614,1.054-0.98,1.783-0.98c0.399,0,0.79,0.113,1.125,0.325c0.48,0.304,0.813,0.775,0.937,1.33
						c0.122,0.546,0.024,1.106-0.279,1.584c-0.598,0.951-1.938,1.272-2.912,0.653l-0.094-0.063
						C155.135,48.923,154.89,47.673,155.492,46.72z M155.492,70.183c0.388-0.614,1.054-0.98,1.783-0.98
						c0.399,0,0.79,0.112,1.125,0.326c0.48,0.304,0.813,0.774,0.937,1.329c0.122,0.546,0.024,1.107-0.279,1.585
						c-0.598,0.95-1.938,1.271-2.912,0.652l-0.094-0.063C155.135,72.386,154.89,71.136,155.492,70.183z M155.492,96.485
						c0.388-0.613,1.054-0.979,1.783-0.979c0.399,0,0.79,0.112,1.125,0.325c0.48,0.304,0.813,0.775,0.937,1.33
						c0.122,0.547,0.024,1.106-0.279,1.584c-0.598,0.951-1.938,1.271-2.912,0.653l-0.094-0.063
						C155.135,98.688,154.89,97.439,155.492,96.485z"/>
				</g>
			</g>
		</g>
		<g>
			<path fill="#43883E" d="M105.696,42.931c-0.473,0.216-1.355,0.563-2.623,0.834c-0.129,0.012-0.261,0.039-0.39,0.075
				c-3.641,0.683-10.077,0.615-18.772-4.422c0.426-1.348,0.371-2.789-0.166-4.117c-0.611-1.512-1.777-2.694-3.279-3.333
				c-1.97-0.836-4.268-0.569-5.995,0.696c-0.886,0.649-1.583,1.527-2.013,2.542c-1.313,3.103,0.139,6.695,3.234,8.01
				c1.903,0.805,4.105,0.578,5.809-0.575c5.61,3.315,10.484,4.785,14.477,5.278c-1.198,1.288-1.777,2.602-2.253,3.932
				c-0.375,1.048-0.583,1.571-1.218,2.091c-0.845,0.657-3.096,1.484-5.076,2.066c-0.967-1.724-2.748-2.952-4.862-3.114
				c-1.454-0.116-2.903,0.296-4.079,1.158c-1.441,1.053-2.343,2.679-2.479,4.459c-0.13,1.626,0.387,3.207,1.449,4.447
				c1.062,1.237,2.542,1.989,4.167,2.114c1.452,0.111,2.901-0.299,4.076-1.159l0.002-0.001c1.296-0.947,2.155-2.362,2.418-3.934
				c1.901-0.527,4.97-1.506,6.669-2.748c0.084-0.063,0.167-0.127,0.244-0.189c1.527-1.245,2.04-2.687,2.455-3.846
				c0.639-1.782,1.246-3.469,6.354-5.524c1.268-0.265,2.409-0.929,3.123-1.214v-4L105.696,42.931z M80.024,38.414
				c-0.15,0.352-0.391,0.655-0.697,0.878c-0.606,0.444-1.381,0.534-2.072,0.242c-1.066-0.452-1.568-1.695-1.113-2.767
				c0.146-0.35,0.386-0.654,0.692-0.876c0.604-0.444,1.382-0.535,2.07-0.24c0.519,0.219,0.921,0.628,1.133,1.149
				C80.249,37.324,80.243,37.897,80.024,38.414z M83.341,60.684c-0.287,0.21-0.765,0.45-1.406,0.399
				c-0.563-0.043-1.072-0.302-1.438-0.728s-0.545-0.974-0.501-1.535c0.048-0.617,0.36-1.18,0.855-1.541
				c0.286-0.209,0.763-0.451,1.407-0.398c1.161,0.089,2.032,1.104,1.944,2.264C84.153,59.756,83.84,60.318,83.341,60.684z"/>
			<path d="M100.5,111.284c-0.059-0.043-0.119-0.08-0.182-0.117C100.382,111.204,100.442,111.243,100.5,111.284z"/>
			<path fill="#43883E" d="M100.927,112.078c-0.005-0.004-0.01-0.005-0.012-0.009c-2.678-2.663-4.555-5.881-5.595-9.586
				c0.188-0.112,0.369-0.234,0.545-0.368c2.675-2.044,3.196-5.884,1.163-8.561c-0.699-0.923-1.643-1.624-2.724-2.027
				c-1.976-0.737-4.159-0.417-5.839,0.859c-2.684,2.035-3.206,5.876-1.165,8.568c0.989,1.296,2.505,2.118,4.101,2.333
				c0.687,2.55,1.707,4.913,3.059,7.067c-2.626-0.15-5.842,0.239-9.053,2.051c-0.474-0.36-0.996-0.655-1.561-0.866
				c-1.979-0.736-4.16-0.414-5.83,0.861c-1.297,0.981-2.133,2.41-2.356,4.023c-0.222,1.62,0.2,3.231,1.192,4.538
				c0.702,0.919,1.644,1.619,2.724,2.021c1.979,0.738,4.159,0.414,5.831-0.861c2.009-1.525,2.812-4.062,2.22-6.369
				c4.847-2.586,9.644-0.997,10.793-0.548c2.895,2.787,6.012,4.142,8.547,5.251v-4C105.048,115.466,102.911,114.054,100.927,112.078
				z M82.982,118.941c-0.575,0.439-1.325,0.55-2.009,0.295c-0.372-0.139-0.697-0.38-0.938-0.696
				c-0.344-0.452-0.489-1.009-0.412-1.569c0.076-0.554,0.362-1.043,0.813-1.385c0.891-0.68,2.255-0.513,2.95,0.405l0.066,0.092
				C84.084,117.007,83.88,118.261,82.982,118.941z M90.483,98.531c-0.704-0.93-0.524-2.256,0.4-2.958
				c0.582-0.441,1.339-0.554,2.023-0.299c0.37,0.139,0.694,0.381,0.936,0.698c0.703,0.926,0.521,2.256-0.404,2.962
				c-0.251,0.191-0.539,0.321-0.859,0.385c-0.385,0.077-0.785,0.044-1.159-0.096C91.048,99.085,90.722,98.844,90.483,98.531z"/>
			<path d="M100.5,108.879c-0.059-0.043-0.119-0.08-0.182-0.117C100.382,108.799,100.442,108.838,100.5,108.879z"/>
			<g>
				<path d="M100.5,111.284c-0.059-0.043-0.119-0.08-0.182-0.117C100.382,111.204,100.442,111.243,100.5,111.284z"/>
				<path fill="#43883E" d="M97.563,75.723c-1.352,1.54-2.119,2.348-3.45,2.419c-1.935,0.104-3.41,0.049-4.838-0.002
					c-1.429-0.051-3.984-0.819-7.983-2.603c-4-1.783-12.072-9.654-14.74-14.293c0.107-0.141,0.217-0.28,0.312-0.432
					c1.74-2.749,1.023-6.371-1.614-8.233c-0.073-0.052-0.152-0.105-0.284-0.191c-0.979-0.619-2.106-0.946-3.261-0.946
					c-2.111,0-4.042,1.065-5.161,2.843c-0.872,1.372-1.157,3.003-0.802,4.593c0.356,1.596,1.314,2.958,2.702,3.836
					c0.978,0.616,2.104,0.942,3.258,0.942c0.528,0,1.045-0.066,1.54-0.194c2.555,4.178,10.25,12.059,13.161,13.762
					c-1.809,0.627-3.044,1.431-4.202,2.184c-1.425,0.928-2.608,1.687-4.848,2.063c-0.424-1.031-1.133-1.957-2.104-2.643
					c-0.073-0.053-0.152-0.105-0.284-0.191c-0.979-0.619-2.106-0.947-3.261-0.947c-2.111,0-4.042,1.066-5.161,2.844
					c-0.872,1.371-1.157,3.003-0.802,4.593c0.356,1.596,1.314,2.958,2.702,3.836c0.978,0.616,2.104,0.942,3.258,0.942
					c0.126,0,0.248-0.021,0.373-0.031c0.709,3.15,0.92,7.761-0.033,11.253c-0.112-0.01-0.224-0.023-0.337-0.023
					c-2.111,0-4.042,1.065-5.161,2.843c-0.872,1.372-1.157,3.003-0.802,4.593c0.356,1.597,1.314,2.958,2.702,3.836
					c0.978,0.616,2.104,0.942,3.258,0.942c2.111,0,4.043-1.064,5.162-2.843c1.601-2.527,1.118-5.791-1.021-7.748
					c-0.025-0.023-0.056-0.043-0.081-0.066c1.346-4.51,1.142-10.281,0.033-14.367c0.146-0.135,0.301-0.26,0.436-0.409
					c0.229-0.256,0.445-0.525,0.633-0.822c0.317-0.501,0.551-1.031,0.708-1.575c3.365-0.487,5.188-1.667,6.811-2.724
					c1.802-1.172,3.524-2.283,7.841-2.584c2.396,1.036,4.935,1.884,6.908,1.961c1.707,0.151,3.083,0.113,5.196-0.001
					c3.075-0.165,4.758-2.082,6.242-3.773c1.559-1.775,3.049-3.481,6.398-3.905v-4C101.766,70.954,99.361,73.673,97.563,75.723z
					 M61.7,59.655c-0.397,0-0.787-0.112-1.122-0.324c-0.479-0.304-0.811-0.774-0.935-1.327c-0.122-0.546-0.024-1.104,0.278-1.582
					c0.598-0.948,1.935-1.269,2.906-0.651l0.095,0.063c0.913,0.646,1.159,1.893,0.557,2.843
					C63.095,59.289,62.429,59.655,61.7,59.655z M60.578,85.578c-0.479-0.304-0.811-0.774-0.935-1.327
					c-0.122-0.546-0.024-1.104,0.278-1.582c0.598-0.948,1.935-1.269,2.906-0.651l0.095,0.063c0.913,0.646,1.159,1.892,0.557,2.843
					c-0.385,0.612-1.051,0.979-1.779,0.979C61.303,85.902,60.913,85.789,60.578,85.578z M63.479,108.336
					c-0.385,0.613-1.051,0.979-1.779,0.979c-0.397,0-0.787-0.112-1.122-0.324c-0.479-0.303-0.811-0.774-0.935-1.326
					c-0.122-0.547-0.024-1.105,0.278-1.582c0.598-0.949,1.935-1.27,2.906-0.652l0.095,0.063
					C63.836,106.139,64.082,107.386,63.479,108.336z"/>
			</g>
			<g>
				<path fill="#FFFEDB" d="M105.696,39.931c-0.473,0.216-1.355,0.563-2.623,0.834c-0.129,0.012-0.261,0.039-0.39,0.075
					c-3.641,0.683-10.077,0.615-18.772-4.422c0.426-1.348,0.371-2.789-0.166-4.117c-0.611-1.512-1.777-2.694-3.279-3.333
					c-1.97-0.836-4.268-0.569-5.995,0.696c-0.886,0.649-1.583,1.527-2.013,2.542c-1.313,3.103,0.139,6.695,3.234,8.01
					c1.903,0.805,4.105,0.578,5.809-0.575c5.61,3.315,10.484,4.785,14.477,5.278c-1.198,1.288-1.777,2.602-2.253,3.932
					c-0.375,1.048-0.583,1.571-1.218,2.091c-0.845,0.657-3.096,1.484-5.076,2.066c-0.967-1.724-2.748-2.952-4.862-3.114
					c-1.454-0.116-2.903,0.296-4.079,1.158c-1.441,1.053-2.343,2.679-2.479,4.459c-0.13,1.626,0.387,3.207,1.449,4.447
					c1.062,1.237,2.542,1.989,4.167,2.114c1.452,0.111,2.901-0.299,4.076-1.159l0.002-0.001c1.296-0.947,2.155-2.362,2.418-3.934
					c1.901-0.527,4.97-1.506,6.669-2.748c0.084-0.063,0.167-0.127,0.244-0.189c1.527-1.245,2.04-2.687,2.455-3.846
					c0.639-1.782,1.246-3.469,6.354-5.524c1.268-0.265,2.409-0.929,3.123-1.214v-4L105.696,39.931z M80.024,35.414
					c-0.15,0.352-0.391,0.655-0.697,0.878c-0.606,0.444-1.381,0.534-2.072,0.242c-1.066-0.452-1.568-1.695-1.113-2.767
					c0.146-0.35,0.386-0.654,0.692-0.876c0.604-0.444,1.382-0.535,2.07-0.24c0.519,0.219,0.921,0.628,1.133,1.149
					C80.249,34.324,80.243,34.897,80.024,35.414z M83.341,57.684c-0.287,0.21-0.765,0.45-1.406,0.399
					c-0.563-0.043-1.072-0.302-1.438-0.728s-0.545-0.974-0.501-1.535c0.048-0.617,0.36-1.18,0.855-1.541
					c0.286-0.209,0.763-0.451,1.407-0.398c1.161,0.089,2.032,1.104,1.944,2.264C84.153,56.756,83.84,57.318,83.341,57.684z"/>
				<path fill="#FFFEDB" d="M100.5,108.879c-0.059-0.043-0.119-0.08-0.182-0.117C100.382,108.799,100.442,108.838,100.5,108.879z"/>
				<path fill="#FFFEDB" d="M100.927,109.078c-0.005-0.004-0.01-0.005-0.012-0.009c-2.678-2.663-4.555-5.881-5.595-9.586
					c0.188-0.112,0.369-0.234,0.545-0.368c2.675-2.044,3.196-5.884,1.163-8.561c-0.699-0.923-1.643-1.624-2.724-2.027
					c-1.976-0.737-4.159-0.417-5.839,0.859c-2.684,2.035-3.206,5.876-1.165,8.568c0.989,1.296,2.505,2.118,4.101,2.333
					c0.687,2.55,1.707,4.913,3.059,7.067c-2.626-0.15-5.842,0.239-9.053,2.051c-0.474-0.36-0.996-0.655-1.561-0.866
					c-1.979-0.736-4.16-0.414-5.83,0.861c-1.297,0.981-2.133,2.41-2.356,4.023c-0.222,1.62,0.2,3.231,1.192,4.538
					c0.702,0.919,1.644,1.619,2.724,2.021c1.979,0.738,4.159,0.414,5.831-0.861c2.009-1.525,2.812-4.062,2.22-6.369
					c4.847-2.586,9.644-0.997,10.793-0.548c2.895,2.787,6.012,4.142,8.547,5.251v-4
					C105.048,112.466,102.911,111.054,100.927,109.078z M82.982,115.941c-0.575,0.439-1.325,0.55-2.009,0.295
					c-0.372-0.139-0.697-0.38-0.938-0.696c-0.344-0.452-0.489-1.009-0.412-1.569c0.076-0.554,0.362-1.043,0.813-1.385
					c0.891-0.68,2.255-0.513,2.95,0.405l0.066,0.092C84.084,114.007,83.88,115.261,82.982,115.941z M90.483,95.531
					c-0.704-0.93-0.524-2.256,0.4-2.958c0.582-0.441,1.339-0.554,2.023-0.299c0.37,0.139,0.694,0.381,0.936,0.698
					c0.703,0.926,0.521,2.256-0.404,2.962c-0.251,0.191-0.539,0.321-0.859,0.385c-0.385,0.077-0.785,0.044-1.159-0.096
					C91.048,96.085,90.722,95.844,90.483,95.531z"/>
				<path fill="#FFFEDB" d="M97.563,72.738c-1.352,1.54-2.119,2.348-3.45,2.419c-1.935,0.104-3.41,0.049-4.838-0.002
					c-1.429-0.051-3.984-0.819-7.983-2.603c-4-1.783-12.072-9.654-14.74-14.293c0.107-0.141,0.217-0.28,0.312-0.432
					c1.74-2.749,1.023-6.371-1.614-8.233c-0.073-0.052-0.152-0.105-0.284-0.191c-0.979-0.619-2.106-0.946-3.261-0.946
					c-2.111,0-4.042,1.065-5.161,2.843c-0.872,1.372-1.157,3.003-0.802,4.593c0.356,1.596,1.314,2.958,2.702,3.836
					c0.978,0.616,2.104,0.942,3.258,0.942c0.528,0,1.045-0.066,1.54-0.194c2.555,4.178,10.25,12.059,13.161,13.762
					c-1.809,0.627-3.044,1.431-4.202,2.184c-1.425,0.928-2.608,1.687-4.848,2.063c-0.424-1.031-1.133-1.957-2.104-2.643
					c-0.073-0.053-0.152-0.105-0.284-0.191c-0.979-0.619-2.106-0.947-3.261-0.947c-2.111,0-4.042,1.066-5.161,2.844
					c-0.872,1.371-1.157,3.003-0.802,4.593c0.356,1.596,1.314,2.958,2.702,3.836c0.978,0.616,2.104,0.942,3.258,0.942
					c0.126,0,0.248-0.021,0.373-0.031c0.709,3.15,0.92,7.761-0.033,11.253c-0.112-0.01-0.224-0.023-0.337-0.023
					c-2.111,0-4.042,1.065-5.161,2.843c-0.872,1.372-1.157,3.003-0.802,4.593c0.356,1.597,1.314,2.958,2.702,3.836
					c0.978,0.616,2.104,0.942,3.258,0.942c2.111,0,4.043-1.064,5.162-2.843c1.601-2.527,1.118-5.791-1.021-7.748
					c-0.025-0.023-0.056-0.043-0.081-0.066c1.346-4.51,1.142-10.281,0.033-14.367c0.146-0.135,0.301-0.26,0.436-0.409
					c0.229-0.256,0.445-0.525,0.633-0.822c0.317-0.501,0.551-1.031,0.708-1.575c3.365-0.487,5.188-1.667,6.811-2.724
					c1.802-1.172,3.524-2.283,7.841-2.584c2.396,1.036,4.935,1.884,6.908,1.961c1.707,0.151,3.083,0.113,5.196-0.001
					c3.075-0.165,4.758-2.082,6.242-3.773c1.559-1.775,3.049-3.464,6.398-3.888v-4.018C101.766,67.97,99.361,70.688,97.563,72.738z
					 M61.7,56.671c-0.397,0-0.787-0.112-1.122-0.324c-0.479-0.304-0.811-0.774-0.935-1.327c-0.122-0.546-0.024-1.104,0.278-1.582
					c0.598-0.948,1.935-1.269,2.906-0.651l0.095,0.063c0.913,0.646,1.159,1.893,0.557,2.843
					C63.095,56.305,62.429,56.671,61.7,56.671z M60.578,82.594c-0.479-0.304-0.811-0.774-0.935-1.327
					c-0.122-0.546-0.024-1.104,0.278-1.582c0.598-0.948,1.935-1.269,2.906-0.651l0.095,0.063c0.913,0.646,1.159,1.892,0.557,2.843
					c-0.385,0.612-1.051,0.979-1.779,0.979C61.303,82.918,60.913,82.805,60.578,82.594z M63.479,105.352
					c-0.385,0.613-1.051,0.979-1.779,0.979c-0.397,0-0.787-0.112-1.122-0.324c-0.479-0.303-0.811-0.774-0.935-1.326
					c-0.122-0.547-0.024-1.105,0.278-1.582c0.598-0.949,1.935-1.27,2.906-0.652l0.095,0.063
					C63.836,103.154,64.082,104.401,63.479,105.352z"/>
			</g>
		</g>
	</g>
</g>
</svg>
