<?xml version="1.0" encoding="utf-8"?>
<!-- Generator: Adobe Illustrator 16.0.0, SVG Export Plug-In . SVG Version: 6.00 Build 0)  -->
<!DOCTYPE svg PUBLIC "-//W3C//DTD SVG 1.1//EN" "http://www.w3.org/Graphics/SVG/1.1/DTD/svg11.dtd" [
	<!ENTITY ns_extend "http://ns.adobe.com/Extensibility/1.0/">
	<!ENTITY ns_ai "http://ns.adobe.com/AdobeIllustrator/10.0/">
	<!ENTITY ns_graphs "http://ns.adobe.com/Graphs/1.0/">
	<!ENTITY ns_vars "http://ns.adobe.com/Variables/1.0/">
	<!ENTITY ns_imrep "http://ns.adobe.com/ImageReplacement/1.0/">
	<!ENTITY ns_sfw "http://ns.adobe.com/SaveForWeb/1.0/">
	<!ENTITY ns_custom "http://ns.adobe.com/GenericCustomNamespace/1.0/">
	<!ENTITY ns_adobe_xpath "http://ns.adobe.com/XPath/1.0/">
]>
<svg version="1.1" id="Layer_1" xmlns:x="&ns_extend;" xmlns:i="&ns_ai;" xmlns:graph="&ns_graphs;"
	 xmlns="http://www.w3.org/2000/svg" xmlns:xlink="http://www.w3.org/1999/xlink" x="0px" y="0px" width="140px" height="190px"
	 viewBox="0 0 140 190" enable-background="new 0 0 140 190" xml:space="preserve">
<metadata>
	<sfw  xmlns="&ns_sfw;">
		<slices></slices>
		<sliceSourceBounds  height="185.558" width="138.567" x="3341.953" y="-1214.558" bottomLeftOrigin="true"></sliceSourceBounds>
	</sfw>
</metadata>
<g>
</g>
<g>
	<g>
		<path fill="#5AA854" d="M27.869,106.703l6.241,23.692l6.241-23.692h11.301V142h-8.604v-7.029l0.818-16.421L36.928,142h-5.666
			l-6.907-23.329l0.817,16.3V142h-8.574v-35.297H27.869z"/>
		<path fill="#5AA854" d="M69.521,142.558c-4.051,0-7.21-1.208-9.477-3.624c-2.268-2.415-3.401-5.871-3.401-10.369v-2.396
			c0-4.757,1.041-8.428,3.122-11.011c2.081-2.582,5.063-3.874,8.947-3.874c3.791,0,6.644,1.211,8.558,3.632
			c1.914,2.422,2.89,6.007,2.927,10.757v3.868H64.504c0.112,2.26,0.604,3.911,1.478,4.956s2.221,1.566,4.042,1.566
			c2.639,0,4.841-0.92,6.606-2.759l3.094,4.766c-0.967,1.339-2.369,2.421-4.209,3.248C73.675,142.144,71.677,142.558,69.521,142.558
			z M64.561,124.049h7.888v-0.73c-0.037-1.819-0.334-3.197-0.892-4.135c-0.558-0.937-1.524-1.406-2.899-1.406
			s-2.374,0.497-2.996,1.491C65.038,120.263,64.672,121.855,64.561,124.049z"/>
		<path fill="#5AA854" d="M93.828,104.426v7.415h4.041v5.909h-4.041v14.991c0,1.191,0.162,2.01,0.487,2.457
			c0.325,0.446,0.952,0.67,1.882,0.67c0.762,0,1.384-0.065,1.867-0.195l-0.056,6.132c-1.338,0.502-2.787,0.753-4.349,0.753
			c-5.092,0-7.665-2.921-7.721-8.763V117.75h-3.484v-5.909h3.484v-7.415H93.828z"/>
		<path fill="#5AA854" d="M116.518,142c-0.223-0.464-0.446-1.245-0.669-2.342c-1.412,1.934-3.326,2.899-5.742,2.899
			c-2.527,0-4.623-0.836-6.285-2.509c-1.664-1.673-2.495-3.837-2.495-6.494c0-3.159,1.008-5.604,3.024-7.331
			c2.016-1.729,4.92-2.61,8.711-2.648h2.396v-2.425c0-1.356-0.232-2.313-0.696-2.871c-0.465-0.558-1.144-0.836-2.035-0.836
			c-1.97,0-2.954,1.152-2.954,3.456h-7.889c0-2.787,1.045-5.087,3.136-6.898c2.091-1.813,4.733-2.718,7.93-2.718
			c3.308,0,5.868,0.859,7.68,2.578s2.718,4.177,2.718,7.373v14.188c0.037,2.602,0.408,4.637,1.115,6.104V142H116.518z
			 M111.862,136.369c0.873,0,1.617-0.176,2.23-0.529c0.613-0.353,1.068-0.771,1.365-1.254v-6.272h-1.896
			c-1.338,0-2.393,0.428-3.163,1.282c-0.771,0.855-1.157,1.998-1.157,3.429C109.242,135.255,110.115,136.369,111.862,136.369z"/>
		<path fill="#EB743B" d="M0.953,188v-35.297h11.998c4.121,0,7.267,0.833,9.438,2.5c2.172,1.666,3.258,4.085,3.258,7.256
			c0,1.798-0.395,3.363-1.182,4.696c-0.788,1.333-1.95,2.313-3.484,2.938c1.655,0.485,2.938,1.409,3.848,2.772
			s1.363,3.035,1.363,5.015c0,3.515-1.021,6.08-3.061,7.695c-2.04,1.616-5.11,2.424-9.21,2.424H0.953z M9.527,167.367h4.121
			c2.282-0.061,3.424-1.272,3.424-3.636c0-1.394-0.283-2.389-0.849-2.984s-1.435-0.894-2.605-0.894H9.527V167.367z M9.527,173.336
			v7.604h4.394c1.191,0,2.105-0.324,2.742-0.973c0.636-0.649,0.954-1.541,0.954-2.678c0-2.555-1.03-3.873-3.091-3.954H9.527z"/>
		<path fill="#EB743B" d="M46.311,165.45l-2.62-0.224c-2.156,0-3.614,0.948-4.376,2.844V188h-7.917v-30.159h7.442l0.224,3.261
			c1.244-2.546,2.964-3.818,5.156-3.818c0.892,0,1.617,0.121,2.174,0.362L46.311,165.45z"/>
		<path fill="#EB743B" d="M63.843,188c-0.223-0.464-0.446-1.245-0.669-2.342c-1.412,1.934-3.326,2.899-5.742,2.899
			c-2.527,0-4.623-0.836-6.285-2.509c-1.664-1.673-2.495-3.837-2.495-6.494c0-3.159,1.008-5.604,3.024-7.331
			c2.016-1.729,4.92-2.61,8.711-2.648h2.396v-2.425c0-1.356-0.232-2.313-0.696-2.871c-0.465-0.558-1.144-0.836-2.035-0.836
			c-1.97,0-2.954,1.152-2.954,3.456h-7.889c0-2.787,1.045-5.087,3.136-6.898c2.091-1.813,4.733-2.718,7.93-2.718
			c3.308,0,5.868,0.859,7.68,2.578s2.718,4.177,2.718,7.373v14.188c0.037,2.602,0.408,4.637,1.115,6.104V188H63.843z
			 M59.188,182.369c0.873,0,1.617-0.176,2.23-0.529c0.613-0.353,1.068-0.771,1.365-1.254v-6.272h-1.896
			c-1.338,0-2.393,0.428-3.163,1.282c-0.771,0.855-1.157,1.998-1.157,3.429C56.567,181.255,57.44,182.369,59.188,182.369z"/>
		<path fill="#EB743B" d="M76.387,150.036c0-1.227,0.391-2.23,1.171-3.011s1.82-1.171,3.122-1.171c1.3,0,2.341,0.391,3.121,1.171
			c0.781,0.78,1.171,1.784,1.171,3.011c0,1.208-0.386,2.211-1.156,3.01c-0.771,0.8-1.817,1.199-3.136,1.199
			c-1.32,0-2.365-0.399-3.137-1.199C76.772,152.247,76.387,151.244,76.387,150.036z M84.665,188h-7.916v-30.159h7.916V188z"/>
		<path fill="#EB743B" d="M97.989,157.841l0.223,2.982c1.784-2.36,4.115-3.54,6.996-3.54c5.185,0,7.851,3.633,8,10.898V188h-7.916
			v-19.233c0-1.709-0.256-2.949-0.767-3.721c-0.512-0.771-1.408-1.157-2.69-1.157c-1.431,0-2.546,0.734-3.345,2.202V188h-7.916
			v-30.159H97.989z"/>
		<path fill="#EB743B" d="M127.591,181.506h11.93V188h-21.296v-4.892l11.651-18.689h-11.372v-6.578h20.85v4.766L127.591,181.506z"/>
	</g>
	<g>
		<polygon fill="#EB743B" points="72,3 72,99 113,75 113,27 		"/>
		<polygon fill="#5AA854" points="69,3 28,27 28,75 69,99 		"/>
		<path fill="#FFFEDB" d="M104.281,59.087c-1.239-1.97-3.38-3.148-5.718-3.148c-0.666,0-1.324,0.103-1.956,0.295
			c-2.632-3.125-5.819-4.775-8.603-5.636c2.235-1.714,4.208-3.771,5.909-6.153c1.74,0.394,3.63,0.127,5.162-0.832
			c3.158-2.006,4.103-6.197,2.104-9.348c-1.249-1.975-3.39-3.152-5.724-3.152c-1.283,0-2.533,0.363-3.616,1.05
			c-3.146,1.991-4.093,6.181-2.105,9.336c0.13,0.207,0.271,0.404,0.422,0.596c-2.514,3.442-5.708,6.056-9.519,7.785l-0.014,0.004
			C77.093,51.487,75,52,72,52v5c4,0,5.931-1.125,10.016-2.898c1.366-0.023,6.962,0.185,10.991,4.747
			c-1.507,2.164-1.655,5.108-0.16,7.471c1.241,1.97,3.382,3.15,5.721,3.15c1.278,0,2.524-0.36,3.607-1.044
			c1.538-0.975,2.599-2.482,2.995-4.252C105.566,62.413,105.248,60.606,104.281,59.087z M94.061,35.67
			c0.423-0.266,0.901-0.405,1.396-0.405c0.903,0,1.731,0.456,2.219,1.224c0.771,1.214,0.403,2.836-0.818,3.61
			c-0.41,0.261-0.896,0.398-1.387,0.398c-0.493,0-0.974-0.134-1.39-0.391c-0.343-0.213-0.625-0.489-0.832-0.817
			C92.478,38.064,92.842,36.443,94.061,35.67z M101.119,63.27c-0.154,0.687-0.564,1.27-1.161,1.645
			c-0.413,0.264-0.896,0.406-1.391,0.406c-0.906,0-1.731-0.457-2.21-1.218c-0.745-1.18-0.441-2.727,0.691-3.528l0.117-0.078
			c1.208-0.766,2.866-0.367,3.608,0.808C101.151,61.896,101.271,62.591,101.119,63.27z"/>
		<path fill="#FFFEDB" d="M39.624,38.93c0.5,2.273,2.116,4.105,4.316,4.896c0.627,0.225,1.281,0.352,1.94,0.384
			c1.421,3.831,4.06,7.207,6.525,8.759c-2.545,1.053-3.707,1.422-6.183,3.461c-1.579-0.831-3.474-1.063-5.201-0.533
			c-3.57,1.12-5.567,4.924-4.453,8.484c0.695,2.23,2.458,3.922,4.712,4.526c1.239,0.333,2.541,0.306,3.766-0.077
			c3.555-1.109,5.553-4.91,4.45-8.473c-0.072-0.233-0.157-0.461-0.253-0.685c3.319-2.674,5.408-3.114,9.537-3.798h0.014
			C62.623,55.239,66.177,55.985,69,57v-5c-3.563-1-6.739-0.996-11.144-0.341c-1.326-0.331-5.453-3.037-7.702-8.693
			c2.149-1.526,3.285-4.247,2.677-6.976c-0.503-2.274-2.118-4.109-4.319-4.899c-1.203-0.433-2.497-0.515-3.748-0.237
			c-1.776,0.396-3.285,1.457-4.256,2.988C39.539,35.365,39.229,37.173,39.624,38.93z M43.811,64.867
			c-0.478,0.146-0.976,0.158-1.454,0.029c-0.872-0.233-1.554-0.889-1.826-1.756c-0.431-1.372,0.345-2.844,1.726-3.275
			c0.463-0.146,0.968-0.153,1.442-0.026c0.476,0.128,0.905,0.382,1.241,0.737c0.275,0.295,0.477,0.635,0.592,1.005
			C45.959,62.964,45.188,64.436,43.811,64.867z M44.015,36.063c0.377-0.594,0.96-1.004,1.648-1.155
			c0.478-0.108,0.98-0.079,1.446,0.088c0.853,0.307,1.475,1.016,1.668,1.894c0.303,1.362-0.507,2.715-1.844,3.087l-0.137,0.034
			c-1.396,0.312-2.822-0.624-3.123-1.98C43.52,37.345,43.642,36.65,44.015,36.063z"/>
	</g>
</g>
</svg>
