<svg id="Layer_1" data-name="Layer 1" xmlns="http://www.w3.org/2000/svg" viewBox="0 0 340.88 100"><defs><style>.cls-1{fill:#eb743b;}.cls-2{fill:#20656c;}.cls-3{fill:#fffedb;}.cls-4{fill:#579ca0;}</style></defs><polygon class="cls-1" points="46 2 46 98 87 74 87 26 46 2"/><polygon class="cls-2" points="43 2 2 26 2 74 43 98 43 2"/><path class="cls-3" d="M78.28,58.09a6.75,6.75,0,0,0-7.67-2.86A18.09,18.09,0,0,0,62,49.6a28.62,28.62,0,0,0,5.91-6.16,6.91,6.91,0,0,0,5.17-.83,6.77,6.77,0,1,0-9.34-2.11,6.27,6.27,0,0,0,.42.59,23.88,23.88,0,0,1-9.52,7.79h0A18.45,18.45,0,0,1,46,51v5c4,0,5.93-1.12,10-2.9a14.78,14.78,0,0,1,11,4.75,6.76,6.76,0,1,0,12.16,5.32A6.64,6.64,0,0,0,78.28,58.09ZM68.06,34.67a2.57,2.57,0,0,1,1.4-.41,2.62,2.62,0,1,1,0,5.24,2.61,2.61,0,0,1-2.22-1.21A2.63,2.63,0,0,1,68.06,34.67Zm7.06,27.6A2.61,2.61,0,0,1,74,63.91a2.56,2.56,0,0,1-1.39.41,2.62,2.62,0,0,1-1.52-4.75l.12-.07a2.65,2.65,0,0,1,3.6.8A2.59,2.59,0,0,1,75.12,62.27Z"/><path class="cls-3" d="M11.06,68.73V36.15l5,1V35.39l-5.56-1.23h-.12a.27.27,0,0,0-.12,0l-.1.07a.28.28,0,0,0-.1.09.54.54,0,0,0-.07.13.34.34,0,0,0-.06.15.85.85,0,0,0,0,.17,1.09,1.09,0,0,0,0,.18v35a1.09,1.09,0,0,0,0,.18,1,1,0,0,0,0,.17,1,1,0,0,0,.13.27l.1.1a.41.41,0,0,0,.22.09h.12L16,69.49V67.74Z"/><path class="cls-3" d="M17.88,72.37V32.52l6.45,1.09V31.46l-4.84-.91L17,30.07a.55.55,0,0,0-.18,0,.57.57,0,0,0-.18,0l-.16.08-.14.11-.12.16a1,1,0,0,0-.08.18.73.73,0,0,0-.06.21,1.5,1.5,0,0,0,0,.22V73.84a1.64,1.64,0,0,0,0,.22.83.83,0,0,0,.06.21,1.42,1.42,0,0,0,.08.18,1,1,0,0,0,.12.15.53.53,0,0,0,.14.12l.16.08a1.13,1.13,0,0,0,.18,0H17l2.53-.48,4.84-.91V71.28Z"/><rect class="cls-4" x="27.03" y="29.1" width="15.97" height="46.68"/><path class="cls-3" d="M24.33,27.75V77.13a1.35,1.35,0,0,0,1.35,1.35H43v-2.7H27V29.1H43V26.4H25.68A1.36,1.36,0,0,0,24.33,27.75Z"/><path class="cls-2" d="M134,33.91a12.21,12.21,0,0,1-4.56,9.18q-4.19,3.39-11,3.39Q111,46.48,106.8,42t-4.35-12.41v-2q0-7.91,4.29-12.63t11.59-4.73q6.84,0,11,3.42A13.5,13.5,0,0,1,134,23.09h-8.75q-.3-5.81-6.94-5.81-6.92,0-7.12,9.65v2.24q0,5.41,1.68,7.83c1.12,1.62,3,2.43,5.5,2.43a8,8,0,0,0,5-1.33,5.36,5.36,0,0,0,1.84-4.19Z"/><path class="cls-2" d="M137.35,30.64a17.78,17.78,0,0,1,1.73-8,12.64,12.64,0,0,1,5-5.43,14.46,14.46,0,0,1,7.54-1.93,13.76,13.76,0,0,1,10,3.74,15,15,0,0,1,4.3,10.14l.06,2.07c0,4.62-1.29,8.34-3.88,11.13a15,15,0,0,1-20.8,0q-3.9-4.18-3.89-11.38Zm8.05.57A11.27,11.27,0,0,0,147,37.79a5.82,5.82,0,0,0,9.2,0c1.1-1.5,1.64-3.9,1.64-7.19a11.17,11.17,0,0,0-1.64-6.54,5.36,5.36,0,0,0-4.63-2.31,5.25,5.25,0,0,0-4.57,2.3C145.94,25.62,145.4,28,145.4,31.21Z"/><path class="cls-2" d="M181.75,36.16l5.6-20.32h8.42L185.6,46h-7.7L167.73,15.84h8.42Z"/><path class="cls-2" d="M212.83,46.56A14.82,14.82,0,0,1,202,42.49q-4.17-4.07-4.17-10.85v-.78a18.24,18.24,0,0,1,1.76-8.12,12.89,12.89,0,0,1,5-5.52,14,14,0,0,1,7.35-1.94q6.18,0,9.74,3.91t3.55,11.06v3.29H206a7.53,7.53,0,0,0,2.35,4.74,7.14,7.14,0,0,0,5,1.78,8.71,8.71,0,0,0,7.28-3.37l4,4.43a12,12,0,0,1-4.9,4A16.09,16.09,0,0,1,212.83,46.56Zm-.92-24.78A5,5,0,0,0,208,23.4a8.43,8.43,0,0,0-1.91,4.65h11.21v-.64a6,6,0,0,0-1.45-4.16A5.2,5.2,0,0,0,211.91,21.78Z"/><path class="cls-2" d="M246.75,23.39a23.28,23.28,0,0,0-2.9-.22q-4.56,0-6,3.1V46h-8.05V15.84h7.61l.22,3.6q2.42-4.15,6.72-4.16a8.24,8.24,0,0,1,2.51.37Z"/><path class="cls-2" d="M286.65,39.27H273L270.5,46h-8.78l14-35.3h8.24L298,46h-8.85Zm-11.3-6.42h8.88l-4.45-11.94Z"/><path class="cls-2" d="M318,23.39a23.56,23.56,0,0,0-2.9-.22q-4.58,0-6,3.1V46h-8.05V15.84h7.61l.22,3.6q2.43-4.15,6.72-4.16a8.19,8.19,0,0,1,2.51.37Z"/><path class="cls-2" d="M332.94,8.43v7.41h5.16v5.91h-5.16v15a3.57,3.57,0,0,0,.64,2.4,3.24,3.24,0,0,0,2.45.72,12.85,12.85,0,0,0,2.37-.19v6.1a16.34,16.34,0,0,1-4.88.73q-8.46,0-8.64-8.56V21.75h-4.4V15.84h4.4V8.43Z"/><path class="cls-1" d="M125.42,85.27H111.75L109.27,92h-8.79l14-35.3h8.24L136.78,92h-8.85Zm-11.3-6.42H123l-4.46-11.94Z"/><path class="cls-1" d="M156.79,69.39a23.28,23.28,0,0,0-2.9-.22q-4.56,0-6,3.1V92h-8.06V61.84h7.61l.23,3.6q2.41-4.15,6.72-4.16a8.13,8.13,0,0,1,2.5.37Z"/><path class="cls-1" d="M172.68,86.06a5.3,5.3,0,0,0,3.62-1.22,4.28,4.28,0,0,0,1.45-3.26h7.56a10.31,10.31,0,0,1-1.68,5.61,11,11,0,0,1-4.5,4,14.05,14.05,0,0,1-6.31,1.41q-6.47,0-10.2-4.11t-3.74-11.36v-.53q0-7,3.71-11.12t10.17-4.16a12.72,12.72,0,0,1,9.08,3.22,11.45,11.45,0,0,1,3.47,8.57h-7.56a5.48,5.48,0,0,0-1.45-3.82,5.39,5.39,0,0,0-7.93.58q-1.43,2.06-1.43,6.66v.84c0,3.1.47,5.34,1.42,6.7A4.93,4.93,0,0,0,172.68,86.06Z"/><path class="cls-1" d="M197.77,65.13a10.05,10.05,0,0,1,8-3.85q9.81,0,10,11.4V92h-8.05V72.86A5.59,5.59,0,0,0,206.6,69a4.76,4.76,0,0,0-3.7-1.24,5.48,5.48,0,0,0-5.13,2.74V92h-8.06V49.19h8.06Z"/><path class="cls-1" d="M221.79,54a4,4,0,0,1,1.22-3,5.22,5.22,0,0,1,6.59,0,4.25,4.25,0,0,1,0,6,5.17,5.17,0,0,1-6.55,0A4,4,0,0,1,221.79,54Zm8.56,38h-8.08V61.84h8.08Z"/><path class="cls-1" d="M248.27,82.16l5.61-20.32h8.41L252.12,92h-7.69L234.25,61.84h8.42Z"/><path class="cls-1" d="M279.35,92.56a14.82,14.82,0,0,1-10.8-4.07q-4.17-4.06-4.17-10.85v-.78a18.24,18.24,0,0,1,1.76-8.12,12.85,12.85,0,0,1,5-5.52,14,14,0,0,1,7.34-1.94q6.19,0,9.74,3.91t3.56,11.06v3.29H272.55a7.49,7.49,0,0,0,2.36,4.74,7.11,7.11,0,0,0,5,1.78,8.69,8.69,0,0,0,7.28-3.37l4,4.43a12.08,12.08,0,0,1-4.91,4A16.05,16.05,0,0,1,279.35,92.56Zm-.92-24.78a5,5,0,0,0-3.89,1.62,8.36,8.36,0,0,0-1.9,4.65h11.2v-.64a6,6,0,0,0-1.45-4.16A5.2,5.2,0,0,0,278.43,67.78Z"/></svg>