<svg id="Layer_1" data-name="Layer 1" xmlns="http://www.w3.org/2000/svg" viewBox="0 0 654.59 100"><defs><style>.cls-1{fill:#20656c;}.cls-2{fill:#eb743b;}.cls-3{fill:#fffedb;}.cls-4{fill:#579ca0;}</style></defs><path class="cls-1" d="M141.55,56.82a15.2,15.2,0,0,1-5.66,11.39q-5.2,4.22-13.71,4.21-9.14,0-14.38-5.58t-5.39-15.39V49q0-9.81,5.32-15.67t14.38-5.87q8.49,0,13.61,4.25a16.71,16.71,0,0,1,5.86,11.73H130.72q-.37-7.21-8.61-7.22-8.58,0-8.84,12v2.78q0,6.72,2.09,9.72c1.39,2,3.66,3,6.82,3,2.73,0,4.8-.55,6.19-1.65a6.69,6.69,0,0,0,2.27-5.2Z"/><path class="cls-1" d="M145.71,52.76a22.15,22.15,0,0,1,2.14-9.92A15.67,15.67,0,0,1,154,36.09a18,18,0,0,1,9.35-2.38,17.06,17.06,0,0,1,12.37,4.63q4.78,4.63,5.34,12.59l.07,2.56q0,8.61-4.81,13.82t-12.9,5.2q-8.08,0-12.92-5.18t-4.82-14.12Zm10,.71q0,5.34,2,8.16a7.21,7.21,0,0,0,11.42,0c1.36-1.86,2-4.84,2-8.92q0-5.23-2-8.11a6.65,6.65,0,0,0-5.75-2.88,6.54,6.54,0,0,0-5.67,2.86Q155.7,47.49,155.7,53.47Z"/><path class="cls-1" d="M200.81,59.61l6.95-25.21h10.45L205.58,71.82H196L183.41,34.4h10.45Z"/><path class="cls-1" d="M239.38,72.51q-8.24,0-13.41-5.05T220.8,54V53A22.62,22.62,0,0,1,223,43a16,16,0,0,1,6.17-6.85,17.4,17.4,0,0,1,9.12-2.4q7.68,0,12.09,4.84t4.41,13.73v4.08H230.94a9.22,9.22,0,0,0,2.92,5.88A8.8,8.8,0,0,0,240,64.46a10.8,10.8,0,0,0,9-4.19l4.91,5.5a15,15,0,0,1-6.08,5A20,20,0,0,1,239.38,72.51Zm-1.15-30.75a6.25,6.25,0,0,0-4.82,2A10.49,10.49,0,0,0,231,49.55h13.9v-.8a7.4,7.4,0,0,0-1.79-5.16A6.45,6.45,0,0,0,238.23,41.76Z"/><path class="cls-1" d="M281.47,43.77a28,28,0,0,0-3.6-.28q-5.67,0-7.43,3.84V71.82h-10V34.4h9.44l.28,4.46q3-5.16,8.34-5.15a10.49,10.49,0,0,1,3.11.45Z"/><path class="cls-1" d="M331,63.48H314L311,71.82H300L317.38,28H327.6l17.48,43.8h-11Zm-14-8h11l-5.53-14.82Z"/><path class="cls-1" d="M369.92,43.77a28,28,0,0,0-3.6-.28q-5.67,0-7.44,3.84V71.82h-10V34.4h9.44l.28,4.46q3-5.16,8.33-5.15a10.39,10.39,0,0,1,3.11.45Z"/><path class="cls-1" d="M388.42,25.2v9.2h6.4v7.33h-6.4V60.41a4.45,4.45,0,0,0,.8,3,4,4,0,0,0,3,.9A16,16,0,0,0,395.2,64v7.58a20.9,20.9,0,0,1-6.05.89q-10.51,0-10.72-10.61V41.73H373V34.4h5.47V25.2Z"/><path class="cls-2" d="M445.1,63.48h-17l-3.08,8.34H414.15L431.49,28h10.22l17.49,43.8h-11Zm-14-8h11l-5.53-14.82Z"/><path class="cls-2" d="M484,43.77a28,28,0,0,0-3.6-.28q-5.67,0-7.44,3.84V71.82H463V34.4h9.44l.28,4.46q3-5.16,8.33-5.15a10.51,10.51,0,0,1,3.12.45Z"/><path class="cls-2" d="M503.74,64.46a6.53,6.53,0,0,0,4.5-1.53,5.34,5.34,0,0,0,1.8-4h9.37a12.81,12.81,0,0,1-2.07,7,13.76,13.76,0,0,1-5.59,4.91,17.54,17.54,0,0,1-7.83,1.74q-8,0-12.66-5.1t-4.64-14.09v-.66q0-8.64,4.6-13.8t12.63-5.15q7,0,11.26,4a14.14,14.14,0,0,1,4.3,10.64H510a6.91,6.91,0,0,0-1.8-4.75,6.68,6.68,0,0,0-9.84.72q-1.78,2.55-1.78,8.26v1q0,5.79,1.76,8.32A6.11,6.11,0,0,0,503.74,64.46Z"/><path class="cls-2" d="M534.87,38.48a12.5,12.5,0,0,1,10-4.77q12.18,0,12.35,14.14v24h-10V48.08a7,7,0,0,0-1.38-4.77c-.92-1-2.46-1.55-4.6-1.55a6.82,6.82,0,0,0-6.37,3.4V71.82h-10V18.69h10Z"/><path class="cls-2" d="M564.69,24.71a4.93,4.93,0,0,1,1.5-3.7,6.49,6.49,0,0,1,8.18,0,4.88,4.88,0,0,1,1.53,3.7,5,5,0,0,1-1.54,3.74,6.42,6.42,0,0,1-8.13,0A4.91,4.91,0,0,1,564.69,24.71Zm10.62,47.11h-10V34.4h10Z"/><path class="cls-2" d="M597.55,59.61l7-25.21H615L602.32,71.82h-9.54L580.15,34.4H590.6Z"/><path class="cls-2" d="M636.12,72.51q-8.24,0-13.41-5.05T617.54,54V53A22.62,22.62,0,0,1,619.72,43a16,16,0,0,1,6.18-6.85,17.33,17.33,0,0,1,9.11-2.4q7.68,0,12.09,4.84t4.41,13.73v4.08H627.68a9.22,9.22,0,0,0,2.92,5.88,8.82,8.82,0,0,0,6.17,2.22,10.79,10.79,0,0,0,9-4.19l4.91,5.5a14.93,14.93,0,0,1-6.08,5A20,20,0,0,1,636.12,72.51ZM635,41.76a6.26,6.26,0,0,0-4.83,2,10.49,10.49,0,0,0-2.37,5.77h13.91v-.8a7.45,7.45,0,0,0-1.8-5.16A6.44,6.44,0,0,0,635,41.76Z"/><polygon class="cls-2" points="47 2 47 98 88 74 88 26 47 2"/><polygon class="cls-1" points="44 2 3 26 3 74 44 98 44 2"/><path class="cls-3" d="M79.28,58.09a6.75,6.75,0,0,0-7.67-2.86A18.09,18.09,0,0,0,63,49.6a28.62,28.62,0,0,0,5.91-6.16,6.91,6.91,0,0,0,5.17-.83,6.77,6.77,0,1,0-9.34-2.11,6.27,6.27,0,0,0,.42.59,23.88,23.88,0,0,1-9.52,7.79h0A18.45,18.45,0,0,1,47,51v5c4,0,5.93-1.12,10-2.9a14.78,14.78,0,0,1,11,4.75,6.76,6.76,0,1,0,12.16,5.32A6.64,6.64,0,0,0,79.28,58.09ZM69.06,34.67a2.57,2.57,0,0,1,1.4-.41,2.62,2.62,0,1,1,0,5.24,2.61,2.61,0,0,1-2.22-1.21A2.63,2.63,0,0,1,69.06,34.67Zm7.06,27.6A2.61,2.61,0,0,1,75,63.91a2.56,2.56,0,0,1-1.39.41,2.62,2.62,0,0,1-1.52-4.75l.12-.07a2.65,2.65,0,0,1,3.6.8A2.59,2.59,0,0,1,76.12,62.27Z"/><path class="cls-3" d="M12.06,68.73V36.15l5,1V35.39l-5.56-1.23h-.12a.27.27,0,0,0-.12,0l-.1.07a.28.28,0,0,0-.1.09.54.54,0,0,0-.07.13.34.34,0,0,0-.06.15.85.85,0,0,0,0,.17,1.09,1.09,0,0,0,0,.18v35a1.09,1.09,0,0,0,0,.18,1,1,0,0,0,0,.17,1,1,0,0,0,.13.27l.1.1a.41.41,0,0,0,.22.09h.12L17,69.49V67.74Z"/><path class="cls-3" d="M18.88,72.37V32.52l6.45,1.09V31.46l-4.84-.91L18,30.07a.55.55,0,0,0-.18,0,.57.57,0,0,0-.18,0l-.16.08-.14.11-.12.16a1,1,0,0,0-.08.18.73.73,0,0,0-.06.21,1.5,1.5,0,0,0,0,.22V73.84a1.64,1.64,0,0,0,0,.22.83.83,0,0,0,.06.21,1.42,1.42,0,0,0,.08.18,1,1,0,0,0,.12.15.53.53,0,0,0,.14.12l.16.08a1.13,1.13,0,0,0,.18,0H18l2.53-.48,4.84-.91V71.28Z"/><rect class="cls-4" x="28.03" y="29.1" width="15.97" height="46.68"/><path class="cls-3" d="M25.33,27.75V77.13a1.35,1.35,0,0,0,1.35,1.35H44v-2.7H28V29.1H44V26.4H26.68A1.36,1.36,0,0,0,25.33,27.75Z"/></svg>