<svg xmlns="http://www.w3.org/2000/svg" viewBox="0 0 333.52 305"><defs><style>.cls-1{isolation:isolate;}.cls-2{fill:#20656c;}.cls-3{fill:#eb743b;}.cls-4{mix-blend-mode:multiply;opacity:0.07;}.cls-5{fill:#d3562c;}.cls-6{fill:#fffedb;}.cls-7{fill:#264346;}.cls-8{fill:#579ca0;}</style></defs><g class="cls-1"><g id="Layer_1" data-name="Layer 1"><path class="cls-2" d="M45.35,202.38q-.37,9-6,14.25t-14.79,5.2q-9.93,0-15.63-7.05t-5.7-19.9v-2.3Q3.25,180.21,9,173a18.71,18.71,0,0,1,15.42-7.24q9.18,0,14.67,5.25t6.33,14.67H32.13q0-8.89-7.69-8.9a6.25,6.25,0,0,0-5.93,3.75q-1.89,3.76-1.94,11.64v3q0,8.68,1.85,12.25a6.4,6.4,0,0,0,6.16,3.57q3.8,0,5.63-2t1.87-6.49Z"/><path class="cls-2" d="M50.76,196.24q0-10.61,5-16.64t13.84-6q8.93,0,13.93,6t5,16.73v3q0,10.65-5,16.65t-13.88,6q-9,0-13.95-6t-5-16.71ZM63,199.3q0,12.51,6.69,12.51,6.16,0,6.64-10.44l0-5.13c0-4.25-.59-7.41-1.77-9.46a5.5,5.5,0,0,0-5-3.09,5.36,5.36,0,0,0-4.85,3.09C63.58,188.83,63,192,63,196.24Z"/><path class="cls-2" d="M110.78,203.83l5.91-29.41h12.72l-12.8,46.66H105L92.11,174.42h12.77Z"/><path class="cls-2" d="M153.43,221.94q-9.41,0-14.66-5.6t-5.26-16.05v-3.7q0-11,4.83-17t13.84-6q8.81,0,13.24,5.62T170,195.82v6H145.67c.17,3.47.93,6,2.29,7.61s3.43,2.4,6.25,2.4a13.75,13.75,0,0,0,10.22-4.18l4.79,7.37a15.75,15.75,0,0,1-6.51,5A22.38,22.38,0,0,1,153.43,221.94Zm-7.67-28.63H158v-1.12a13.11,13.11,0,0,0-1.38-6.34c-.86-1.44-2.36-2.16-4.48-2.16a5.06,5.06,0,0,0-4.64,2.29C146.5,187.5,145.93,190,145.76,193.31Z"/><path class="cls-2" d="M199.88,186.19l-4.06-.34c-3.33,0-5.59,1.46-6.77,4.4v30.83H176.8V174.42h11.52l.34,5.05q2.9-5.91,8-5.91a8.68,8.68,0,0,1,3.37.56Z"/><path class="cls-2" d="M255,210.72H238.92l-3,10.36H222.7l18-54.61h12.43l18.23,54.61H258.09Zm-13.22-10h10.27l-5.21-17.63Z"/><path class="cls-2" d="M299.57,186.19l-4.05-.34c-3.34,0-5.59,1.46-6.77,4.4v30.83H276.5V174.42H288l.34,5.05q2.89-5.91,8-5.91a8.59,8.59,0,0,1,3.36.56Z"/><path class="cls-2" d="M322.17,163v11.47h6.25v9.14h-6.25v23.2a6.88,6.88,0,0,0,.75,3.8,3.43,3.43,0,0,0,2.91,1,11.43,11.43,0,0,0,2.89-.3l-.08,9.49a19.18,19.18,0,0,1-6.73,1.16q-11.82,0-11.94-13.55V183.56h-5.4v-9.14H310V163Z"/><path class="cls-3" d="M65.36,289.72H49.24l-3,10.36H33l18-54.61H63.49l18.23,54.61H68.41Zm-13.22-10H62.41l-5.2-17.63Z"/><path class="cls-3" d="M109.89,265.19l-4-.34c-3.33,0-5.59,1.46-6.77,4.4v30.83H86.82V253.42H98.34l.34,5.05q2.89-5.91,8-5.91a8.59,8.59,0,0,1,3.36.56Z"/><path class="cls-3" d="M132.19,290.81q5.3,0,5.39-6.9h11.47q-.09,7.63-4.7,12.33a15.92,15.92,0,0,1-11.9,4.7q-9,0-13.76-5.6t-4.83-16.52v-3.71q0-11,4.68-16.77t13.82-5.78q7.72,0,12.16,4.76t4.53,13.52H137.58a12.32,12.32,0,0,0-1.29-6,4.46,4.46,0,0,0-4.14-2.11,5,5,0,0,0-4.58,2.27c-.92,1.5-1.4,4.43-1.46,8.77v4.75a38.32,38.32,0,0,0,.56,7.95,6,6,0,0,0,1.85,3.32A5.65,5.65,0,0,0,132.19,290.81Z"/><path class="cls-3" d="M167.85,257.52a12.06,12.06,0,0,1,9.75-5q6.38,0,9.7,4.48t3.36,13.37v29.67H178.42V270.54q0-4.1-1.28-5.93a4.64,4.64,0,0,0-4.11-1.83,5.77,5.77,0,0,0-5.18,3.06v34.24h-12.2V233.84h12.2Z"/><path class="cls-3" d="M199.42,241.35a6.3,6.3,0,0,1,1.81-4.66,7.35,7.35,0,0,1,9.66,0,6.3,6.3,0,0,1,1.81,4.66,6.64,6.64,0,1,1-13.28,0Zm12.81,58.73H200V253.42h12.25Z"/><path class="cls-3" d="M237,282.83l5.91-29.41h12.72L242.8,300.08H231.16l-12.85-46.66h12.76Z"/><path class="cls-3" d="M279.63,300.94q-9.4,0-14.66-5.6t-5.26-16v-3.7q0-11,4.83-17t13.84-6q8.79,0,13.24,5.62t4.52,16.64v6H271.87c.17,3.47.93,6,2.28,7.61s3.44,2.4,6.25,2.4a13.78,13.78,0,0,0,10.23-4.18l4.78,7.37a15.62,15.62,0,0,1-6.51,5A22.36,22.36,0,0,1,279.63,300.94ZM272,272.31h12.21v-1.12a13.11,13.11,0,0,0-1.38-6.34c-.87-1.44-2.36-2.16-4.49-2.16a5,5,0,0,0-4.63,2.29C272.69,266.5,272.13,269,272,272.31Z"/><polygon class="cls-3" points="167.45 7.08 167.45 151.08 228.45 116.08 228.45 42.08 167.45 7.08"/><polygon class="cls-2" points="162.45 7.08 101.45 42.08 101.45 116.08 162.45 151.08 162.45 7.08"/><g class="cls-4"><path d="M184.75,98.81a2.12,2.12,0,0,1,1.82-1,2.17,2.17,0,0,1,1.08.3,2.11,2.11,0,0,1-1.08,3.93,2.12,2.12,0,0,1-1.82-3.2Zm12.6,22.37a2.06,2.06,0,0,1-1.37.5,2.1,2.1,0,0,1-1.61-.73,2.11,2.11,0,1,1,3.21-2.75,2.09,2.09,0,0,1-.23,3Z"/><path d="M176.45,52.69l.21.05Z"/><path d="M187.83,62.34a2,2,0,0,1,.67-.66,2.11,2.11,0,0,1,1.12-.32,2.12,2.12,0,1,1,0,4.23,2.12,2.12,0,0,1-1.78-3.25Zm6.38-20.19a2.14,2.14,0,0,1-2.91.65l-.1-.06a2.11,2.11,0,0,1,1.23-3.83,2,2,0,0,1,1.12.33,2.1,2.1,0,0,1,.66,2.91Z"/><path d="M211,53.75a2.11,2.11,0,0,1,2.9-.66,2.11,2.11,0,1,1-2.25,3.57l-.09-.06A2.1,2.1,0,0,1,211,53.75Zm0,23.46a2.09,2.09,0,0,1,1.78-1,2,2,0,0,1,1.12.33,2.07,2.07,0,0,1,.94,1.33,2.1,2.1,0,0,1-.28,1.58,2.14,2.14,0,0,1-2.91.65l-.09-.06A2.1,2.1,0,0,1,211,77.21Zm0,26.3a2.11,2.11,0,1,1,3.56,2.26,2.15,2.15,0,0,1-2.91.66l-.09-.07A2.09,2.09,0,0,1,211,103.51Z"/><path d="M200.63,113.18a6.12,6.12,0,0,0-10.72,4.74,20,20,0,0,1-5.33,1.33,4,4,0,0,1-2.22-1,10.78,10.78,0,0,0-4.15-1.85,37.66,37.66,0,0,0,8.58-12.83,6.12,6.12,0,1,0-5.48-9.24,6.12,6.12,0,0,0,1.62,8.06c-4.05,9.22-9.21,13.08-12.56,14.68a2,2,0,0,0-.36.17,11.22,11.22,0,0,1-2.56.81v4a12.63,12.63,0,0,0,4.25-1.19c5.35-1.36,6.84-.36,8.4.71a7.93,7.93,0,0,0,4.27,1.65h.31a23.61,23.61,0,0,0,7-1.72,6.14,6.14,0,0,0,4.28,1.75h0a6.15,6.15,0,0,0,4-1.48,6.14,6.14,0,0,0,.66-8.63ZM184.75,96.41a2.1,2.1,0,0,1,1.82-1,2.16,2.16,0,0,1,1.08.29,2.11,2.11,0,1,1-2.17,3.63,2.11,2.11,0,0,1-.73-2.89Zm12.6,22.36a2.07,2.07,0,0,1-1.37.51,2.13,2.13,0,1,1,1.37-.51Z"/><path d="M176.45,50.29l.21,0Z"/><path d="M198.4,37.28a6.12,6.12,0,1,0-11,4.82,13.36,13.36,0,0,1-9.94,4.3,29,29,0,0,0-10-2.32v4a24.75,24.75,0,0,1,8.75,2.13h0a21.46,21.46,0,0,1,8.61,7,5.22,5.22,0,0,0-.38.54,6.12,6.12,0,1,0,8.45-1.91,6.24,6.24,0,0,0-4.67-.76,26,26,0,0,0-5.35-5.56,16.29,16.29,0,0,0,7.78-5.1,6.28,6.28,0,0,0,1.77.27,6.12,6.12,0,0,0,6-7.46ZM187.83,59.93a2.13,2.13,0,0,1,1.79-1,2.16,2.16,0,0,1,1.13.33,2.12,2.12,0,1,1-2.92.65Zm6.38-20.19a2.13,2.13,0,0,1-2.91.66l-.1-.07a2.11,2.11,0,0,1,2.35-3.5,2.14,2.14,0,0,1,.94,1.33A2.09,2.09,0,0,1,194.21,39.74Z"/><path d="M207.1,78.27a6,6,0,0,0,2.11,2.65l.28.19a6.12,6.12,0,1,0,3.27-11.29h-.38a25.78,25.78,0,0,1,0-11.26l.34,0A6.12,6.12,0,1,0,208.61,57s0,0,.07.06a28.59,28.59,0,0,0,0,14.41c-.15.14-.3.26-.43.4a5.67,5.67,0,0,0-.63.83,6,6,0,0,0-.71,1.58A15.27,15.27,0,0,0,200.05,77c-2,1.33-4,2.58-9.63,2.67a32.82,32.82,0,0,0-5.29-.12,48.41,48.41,0,0,1-4.85,0c-1.34-.08-2.11-.89-3.46-2.43-1.8-2-4.22-4.65-9.37-5v4c3.3.3,4.8,1.89,6.36,3.67s3.17,3.61,6.25,3.78c2.12.11,3.76,0,5.21,0a24.43,24.43,0,0,1,7.86.68c2.6.65,12.09,9.68,14.77,14.33a4.25,4.25,0,0,0-.31.43,6.09,6.09,0,0,0,1.62,8.25l.28.19a6.12,6.12,0,0,0,9.24-6.5A6,6,0,0,0,216,97.06a6.15,6.15,0,0,0-3.26-.94,6,6,0,0,0-1.54.2c-2.56-4.19-8.66-10.46-13.19-13.8a17.66,17.66,0,0,0,4.21-2.19A11.33,11.33,0,0,1,207.1,78.27ZM211,51.34a2.11,2.11,0,1,1,3.56,2.26,2.14,2.14,0,0,1-2.91.65l-.09-.06A2.09,2.09,0,0,1,211,51.34Zm0,23.47a2.11,2.11,0,0,1,2.9-.66,2.11,2.11,0,0,1,.66,2.92,2.14,2.14,0,0,1-2.91.65l-.09-.06A2.1,2.1,0,0,1,211,74.81Zm0,26.3a2.11,2.11,0,0,1,2.9-.66,2.11,2.11,0,1,1-2.25,3.57l-.09-.06A2.1,2.1,0,0,1,211,101.11Z"/></g><path class="cls-5" d="M200.63,116.18a6.12,6.12,0,0,0-10.72,4.74,20,20,0,0,1-5.33,1.33,4,4,0,0,1-2.22-1,10.78,10.78,0,0,0-4.15-1.85,37.66,37.66,0,0,0,8.58-12.83,6.12,6.12,0,1,0-5.48-9.24,6.12,6.12,0,0,0,1.62,8.06c-4.05,9.22-9.21,13.08-12.56,14.68a2,2,0,0,0-.36.17,11.22,11.22,0,0,1-2.56.81v4a12.63,12.63,0,0,0,4.25-1.19c5.35-1.36,6.84-.36,8.4.71a7.93,7.93,0,0,0,4.27,1.65h.31a23.61,23.61,0,0,0,7-1.72,6.14,6.14,0,0,0,4.28,1.75h0a6.15,6.15,0,0,0,4-1.48,6.14,6.14,0,0,0,.66-8.63ZM184.75,99.41a2.1,2.1,0,0,1,1.82-1,2.16,2.16,0,0,1,1.08.29,2.11,2.11,0,1,1-2.17,3.63,2.11,2.11,0,0,1-.73-2.89Zm12.6,22.36a2.07,2.07,0,0,1-1.37.51,2.13,2.13,0,1,1,1.37-.51Z"/><path d="M176.45,52.69l.21.05Z"/><path class="cls-5" d="M198.4,40.29a6.12,6.12,0,0,0-2.71-3.85,6.18,6.18,0,0,0-3.26-.94,6.12,6.12,0,0,0-5,9.61,13.37,13.37,0,0,1-9.94,4.29,29.49,29.49,0,0,0-10-2.32v4a24.79,24.79,0,0,1,8.75,2.14h0a21.54,21.54,0,0,1,8.61,7,5.22,5.22,0,0,0-.38.54,6.14,6.14,0,0,0,1.9,8.44,6,6,0,0,0,3.27,1,6.13,6.13,0,0,0,3.28-11.31,6.23,6.23,0,0,0-4.67-.75,25.77,25.77,0,0,0-5.35-5.57,16.29,16.29,0,0,0,7.78-5.1,5.94,5.94,0,0,0,1.77.27,6.12,6.12,0,0,0,6-7.45ZM187.83,62.94a2.14,2.14,0,0,1,.67-.67,2.2,2.2,0,0,1,1.12-.31,2.12,2.12,0,1,1,0,4.23,2.12,2.12,0,0,1-1.78-3.25Zm6.38-20.19a2.14,2.14,0,0,1-2.91.65l-.1-.06a2.11,2.11,0,0,1,1.23-3.83,2.09,2.09,0,0,1,1.12.32,2.16,2.16,0,0,1,.94,1.33A2.12,2.12,0,0,1,194.21,42.75Z"/><path class="cls-5" d="M207.1,81.27a6,6,0,0,0,2.11,2.65l.28.19a6.12,6.12,0,1,0,3.27-11.29h-.38a25.78,25.78,0,0,1,0-11.26l.34,0A6.12,6.12,0,1,0,208.61,60s0,0,.07.06a28.59,28.59,0,0,0,0,14.41c-.15.14-.3.26-.43.4a5.67,5.67,0,0,0-.63.83,6,6,0,0,0-.71,1.58A15.27,15.27,0,0,0,200.05,80c-2,1.33-4,2.58-9.63,2.67a32.82,32.82,0,0,0-5.29-.12,48.41,48.41,0,0,1-4.85,0c-1.34-.08-2.11-.89-3.46-2.43-1.8-2-4.22-4.65-9.37-5v4c3.3.3,4.8,1.89,6.36,3.67s3.17,3.61,6.25,3.78c2.12.11,3.76,0,5.21,0a24.43,24.43,0,0,1,7.86.68c2.6.65,12.09,9.68,14.77,14.33a4.25,4.25,0,0,0-.31.43,6.09,6.09,0,0,0,1.62,8.25l.28.19a6.12,6.12,0,0,0,9.24-6.5,6,6,0,0,0-2.71-3.85,6.15,6.15,0,0,0-3.26-.94,6,6,0,0,0-1.54.2c-2.56-4.19-8.66-10.46-13.19-13.8a17.66,17.66,0,0,0,4.21-2.19A11.33,11.33,0,0,1,207.1,81.27ZM211,54.34a2.11,2.11,0,1,1,3.56,2.26,2.14,2.14,0,0,1-2.91.65l-.09-.06A2.09,2.09,0,0,1,211,54.34Zm0,23.47a2.11,2.11,0,0,1,2.9-.66,2.11,2.11,0,0,1,.66,2.92,2.14,2.14,0,0,1-2.91.65l-.09-.06A2.1,2.1,0,0,1,211,77.81Zm0,26.3a2.11,2.11,0,0,1,2.9-.66,2.11,2.11,0,1,1-2.25,3.57l-.09-.06A2.1,2.1,0,0,1,211,104.11Z"/><path class="cls-6" d="M200.63,113.18a6.12,6.12,0,0,0-10.72,4.74,20,20,0,0,1-5.33,1.33,4,4,0,0,1-2.22-1,10.78,10.78,0,0,0-4.15-1.85,37.66,37.66,0,0,0,8.58-12.83,6.12,6.12,0,1,0-5.48-9.24,6.12,6.12,0,0,0,1.62,8.06c-4.05,9.22-9.21,13.08-12.56,14.68a2,2,0,0,0-.36.17,11.22,11.22,0,0,1-2.56.81v4a12.63,12.63,0,0,0,4.25-1.19c5.35-1.36,6.84-.36,8.4.71a7.93,7.93,0,0,0,4.27,1.65h.31a23.61,23.61,0,0,0,7-1.72,6.14,6.14,0,0,0,4.28,1.75h0a6.15,6.15,0,0,0,4-1.48,6.14,6.14,0,0,0,.66-8.63ZM184.75,96.41a2.1,2.1,0,0,1,1.82-1,2.16,2.16,0,0,1,1.08.29,2.11,2.11,0,1,1-2.17,3.63,2.11,2.11,0,0,1-.73-2.89Zm12.6,22.36a2.07,2.07,0,0,1-1.37.51,2.13,2.13,0,1,1,1.37-.51Z"/><path class="cls-6" d="M176.45,50.29l.21,0Z"/><path class="cls-6" d="M198.4,37.28a6.12,6.12,0,1,0-11,4.82,13.36,13.36,0,0,1-9.94,4.3,29,29,0,0,0-10-2.32v4a24.75,24.75,0,0,1,8.75,2.13h0a21.46,21.46,0,0,1,8.61,7,5.22,5.22,0,0,0-.38.54,6.12,6.12,0,1,0,8.45-1.91,6.24,6.24,0,0,0-4.67-.76,26,26,0,0,0-5.35-5.56,16.29,16.29,0,0,0,7.78-5.1,6.28,6.28,0,0,0,1.77.27,6.12,6.12,0,0,0,6-7.46ZM187.83,59.93a2.13,2.13,0,0,1,1.79-1,2.16,2.16,0,0,1,1.13.33,2.12,2.12,0,1,1-2.92.65Zm6.38-20.19a2.13,2.13,0,0,1-2.91.66l-.1-.07a2.11,2.11,0,0,1,2.35-3.5,2.14,2.14,0,0,1,.94,1.33A2.09,2.09,0,0,1,194.21,39.74Z"/><path class="cls-6" d="M207.1,78.27a6,6,0,0,0,2.11,2.65l.28.19a6.12,6.12,0,1,0,3.27-11.29h-.38a25.78,25.78,0,0,1,0-11.26l.34,0A6.12,6.12,0,1,0,208.61,57s0,0,.07.06a28.59,28.59,0,0,0,0,14.41c-.15.14-.3.26-.43.4a5.67,5.67,0,0,0-.63.83,6,6,0,0,0-.71,1.58A15.27,15.27,0,0,0,200.05,77c-2,1.33-4,2.58-9.63,2.67a32.82,32.82,0,0,0-5.29-.12,48.41,48.41,0,0,1-4.85,0c-1.34-.08-2.11-.89-3.46-2.43-1.8-2-4.22-4.65-9.37-5v4c3.3.3,4.8,1.89,6.36,3.67s3.17,3.61,6.25,3.78c2.12.11,3.76,0,5.21,0a24.43,24.43,0,0,1,7.86.68c2.6.65,12.09,9.68,14.77,14.33a4.25,4.25,0,0,0-.31.43,6.09,6.09,0,0,0,1.62,8.25l.28.19a6.12,6.12,0,0,0,9.24-6.5A6,6,0,0,0,216,97.06a6.15,6.15,0,0,0-3.26-.94,6,6,0,0,0-1.54.2c-2.56-4.19-8.66-10.46-13.19-13.8a17.66,17.66,0,0,0,4.21-2.19A11.33,11.33,0,0,1,207.1,78.27ZM211,51.34a2.11,2.11,0,1,1,3.56,2.26,2.14,2.14,0,0,1-2.91.65l-.09-.06A2.09,2.09,0,0,1,211,51.34Zm0,23.47a2.11,2.11,0,0,1,2.9-.66,2.11,2.11,0,0,1,.66,2.92,2.14,2.14,0,0,1-2.91.65l-.09-.06A2.1,2.1,0,0,1,211,74.81Zm0,26.3a2.11,2.11,0,0,1,2.9-.66,2.11,2.11,0,1,1-2.25,3.57l-.09-.06A2.1,2.1,0,0,1,211,101.11Z"/><polygon class="cls-7" points="114.54 110.17 121.99 108.69 121.99 62.79 114.54 61.31 114.54 110.17"/><path class="cls-7" d="M114.54,110.17V61.31L122,62.79V60.17l-8.36-1.85a.33.33,0,0,0-.17,0,.58.58,0,0,0-.18,0,.65.65,0,0,0-.15.1.5.5,0,0,0-.14.15.57.57,0,0,0-.12.18.92.92,0,0,0-.09.23,1.84,1.84,0,0,0,0,.25,2.46,2.46,0,0,0,0,.28V112a2.45,2.45,0,0,0,0,.27,1.84,1.84,0,0,0,0,.25.92.92,0,0,0,.09.23.76.76,0,0,0,.12.19.62.62,0,0,0,.14.14l.15.09a.61.61,0,0,0,.18.05h.17l8.36-1.85v-2.63Z"/><polygon class="cls-7" points="124.77 115.63 134.45 113.99 134.45 57.5 124.77 55.86 124.77 115.63"/><path class="cls-7" d="M124.77,115.63V55.86l9.68,1.64V54.27l-7.26-1.37-3.8-.71a.82.82,0,0,0-.27,0,.75.75,0,0,0-.26,0,1.12,1.12,0,0,0-.25.11,1.68,1.68,0,0,0-.21.18,1.37,1.37,0,0,0-.17.23.84.84,0,0,0-.13.27,1.58,1.58,0,0,0-.09.31c0,.11,0,.22,0,.33v64.19c0,.11,0,.22,0,.33a1.58,1.58,0,0,0,.09.31.84.84,0,0,0,.13.27,1.06,1.06,0,0,0,.17.23,1.68,1.68,0,0,0,.21.18.8.8,0,0,0,.25.11.75.75,0,0,0,.26,0,.82.82,0,0,0,.27,0l3.8-.71,7.26-1.37V114Z"/><rect class="cls-7" x="138.49" y="50.73" width="23.96" height="70.03"/><path class="cls-7" d="M134.45,48.71v74.07a2,2,0,0,0,2,2h26v-4h-24v-70h24v-4h-26A2,2,0,0,0,134.45,48.71Z"/><polygon class="cls-2" points="114.54 107.17 121.99 105.69 121.99 59.79 114.54 58.31 114.54 107.17"/><path class="cls-6" d="M114.54,107.17V58.31L122,59.79V57.17l-8.36-1.85a.33.33,0,0,0-.17,0,.58.58,0,0,0-.18,0,.65.65,0,0,0-.15.1.5.5,0,0,0-.14.15.57.57,0,0,0-.12.18.92.92,0,0,0-.09.23,1.84,1.84,0,0,0,0,.25,2.46,2.46,0,0,0,0,.28V109a2.45,2.45,0,0,0,0,.27,1.84,1.84,0,0,0,0,.25.92.92,0,0,0,.09.23.76.76,0,0,0,.12.19.62.62,0,0,0,.14.14l.15.09a.61.61,0,0,0,.18.05h.17l8.36-1.85v-2.63Z"/><polygon class="cls-2" points="124.77 112.63 134.45 110.99 134.45 54.5 124.77 52.86 124.77 112.63"/><path class="cls-6" d="M124.77,112.63V52.86l9.68,1.64V51.27l-7.26-1.37-3.8-.71a.82.82,0,0,0-.27,0,.75.75,0,0,0-.26,0,1.12,1.12,0,0,0-.25.11,1.68,1.68,0,0,0-.21.18,1.37,1.37,0,0,0-.17.23.84.84,0,0,0-.13.27,1.58,1.58,0,0,0-.09.31c0,.11,0,.22,0,.33v64.19c0,.11,0,.22,0,.33a1.58,1.58,0,0,0,.09.31.84.84,0,0,0,.13.27,1.06,1.06,0,0,0,.17.23,1.68,1.68,0,0,0,.21.18.8.8,0,0,0,.25.11.75.75,0,0,0,.26,0,.82.82,0,0,0,.27,0l3.8-.71,7.26-1.37V111Z"/><rect class="cls-8" x="138.49" y="47.73" width="23.96" height="70.03"/><path class="cls-6" d="M134.45,45.71v74.07a2,2,0,0,0,2,2h26v-4h-24v-70h24v-4h-26A2,2,0,0,0,134.45,45.71Z"/></g></g></svg>