<svg id="Layer_1" data-name="Layer 1" xmlns="http://www.w3.org/2000/svg" viewBox="0 0 565 100"><defs><style>.cls-1{fill:#20656c;}.cls-2{fill:#eb743b;}.cls-3{fill:#fffedb;}.cls-4{fill:#579ca0;}</style></defs><path class="cls-1" d="M136.13,56.82q-.3,7.26-4.79,11.43t-11.86,4.17q-8,0-12.54-5.65t-4.57-16V49q0-9.91,4.62-15.73a15,15,0,0,1,12.37-5.81q7.36,0,11.77,4.18t5.08,11.72H125.53q0-7.14-6.17-7.14a5,5,0,0,0-4.75,3c-1,2-1.54,5.14-1.56,9.36v2.38c0,4.66.49,7.94,1.48,9.86a5.15,5.15,0,0,0,5,2.87A5.76,5.76,0,0,0,124,62c1-1.09,1.48-2.83,1.5-5.21Z"/><path class="cls-1" d="M140.47,51.9q0-8.51,4-13.35t11.11-4.84q7.16,0,11.17,4.84t4,13.42v2.39q0,8.53-4,13.35t-11.13,4.8q-7.2,0-11.2-4.82t-4-13.4Zm9.82,2.46q0,10.1,5.37,10.1,4.93,0,5.32-8.43l0-4.14c0-3.43-.48-6-1.42-7.64a4.41,4.41,0,0,0-4-2.49,4.32,4.32,0,0,0-3.9,2.49q-1.4,2.49-1.4,7.64Z"/><path class="cls-1" d="M188.62,58l4.74-23.59h10.2L193.29,71.82H184L173.64,34.4h10.24Z"/><path class="cls-1" d="M222.83,72.51q-7.54,0-11.76-4.49t-4.22-12.87v-3q0-8.86,3.87-13.67t11.1-4.8q7.06,0,10.62,4.5t3.63,13.35v4.8H216.6c.14,2.81.75,4.85,1.83,6.15a6.18,6.18,0,0,0,5,1.95,10.92,10.92,0,0,0,8.2-3.43L235.49,67a12.66,12.66,0,0,1-5.23,4A18,18,0,0,1,222.83,72.51Zm-6.16-23h9.79v-.91a10.67,10.67,0,0,0-1.11-5.13,3.85,3.85,0,0,0-3.6-1.75A4,4,0,0,0,218,43.62,12.73,12.73,0,0,0,216.67,49.55Z"/><path class="cls-1" d="M260.08,43.84l-3.25-.28a5.34,5.34,0,0,0-5.43,3.53V71.82h-9.82V34.4h9.23l.28,4q2.31-4.72,6.4-4.73a6.83,6.83,0,0,1,2.69.45Z"/><path class="cls-1" d="M288,63.51H275.07l-2.37,8.31H262.06L276.53,28h10l14.62,43.8H290.44Zm-10.6-8h8.23l-4.17-14.14Z"/><path class="cls-1" d="M323.72,43.84l-3.25-.28A5.34,5.34,0,0,0,315,47.09V71.82h-9.83V34.4h9.24l.28,4q2.31-4.72,6.4-4.73a6.83,6.83,0,0,1,2.69.45Z"/><path class="cls-1" d="M341.84,25.2v9.2h5v7.33h-5v18.6a5.5,5.5,0,0,0,.61,3.05,2.71,2.71,0,0,0,2.34.83A9.19,9.19,0,0,0,347.1,64L347,71.58a15.3,15.3,0,0,1-5.39.93q-9.48,0-9.58-10.87V41.73h-4.33V34.4h4.33V25.2Z"/><path class="cls-2" d="M375.13,63.51H362.19l-2.36,8.31H349.19L363.66,28h10l14.63,43.8H377.57Zm-10.6-8h8.23l-4.17-14.14Z"/><path class="cls-2" d="M410.85,43.84l-3.26-.28a5.35,5.35,0,0,0-5.43,3.53V71.82h-9.82V34.4h9.24l.27,4q2.32-4.72,6.4-4.73a6.84,6.84,0,0,1,2.7.45Z"/><path class="cls-2" d="M428.73,64.46q4.26,0,4.32-5.61h9.2a13.74,13.74,0,0,1-3.77,9.9,12.78,12.78,0,0,1-9.54,3.76q-7.23,0-11-4.49c-2.53-3-3.83-7.42-3.87-13.25v-3q0-8.82,3.75-13.46t11.09-4.63q6.19,0,9.75,3.82t3.63,10.84h-9.2a9.93,9.93,0,0,0-1-4.89,3.54,3.54,0,0,0-3.32-1.72A4,4,0,0,0,425,43.59q-1.11,1.83-1.18,7.08V54.5a30.78,30.78,0,0,0,.45,6.42,4.82,4.82,0,0,0,1.49,2.68A4.5,4.5,0,0,0,428.73,64.46Z"/><path class="cls-2" d="M457.33,37.68a9.68,9.68,0,0,1,7.82-4,9.09,9.09,0,0,1,7.78,3.59q2.67,3.6,2.7,10.73V71.82h-9.82V48.13a8.56,8.56,0,0,0-1-4.76,3.74,3.74,0,0,0-3.31-1.47,4.64,4.64,0,0,0-4.15,2.46V71.82h-9.79V18.69h9.79Z"/><path class="cls-2" d="M482.65,24.71A5,5,0,0,1,484.11,21a5.86,5.86,0,0,1,7.74,0,5,5,0,0,1,1.46,3.73,5.33,5.33,0,1,1-10.66,0Zm10.28,47.11H483.1V34.4h9.83Z"/><path class="cls-2" d="M512.78,58l4.74-23.59h10.2L517.45,71.82h-9.34L497.8,34.4H508Z"/><path class="cls-2" d="M547,72.51q-7.54,0-11.76-4.49T531,55.15v-3q0-8.86,3.87-13.67T546,33.71q7.05,0,10.62,4.5t3.63,13.35v4.8H540.76c.14,2.81.75,4.85,1.84,6.15a6.14,6.14,0,0,0,5,1.95,10.91,10.91,0,0,0,8.2-3.43L559.65,67a12.69,12.69,0,0,1-5.22,4A18,18,0,0,1,547,72.51Zm-6.16-23h9.79v-.91a10.45,10.45,0,0,0-1.11-5.13,3.84,3.84,0,0,0-3.59-1.75,4,4,0,0,0-3.72,1.86A12.86,12.86,0,0,0,540.83,49.55Z"/><polygon class="cls-2" points="47 2 47 98 88 74 88 26 47 2"/><polygon class="cls-1" points="44 2 3 26 3 74 44 98 44 2"/><path class="cls-3" d="M79.28,58.09a6.75,6.75,0,0,0-7.67-2.86A18.09,18.09,0,0,0,63,49.6a28.62,28.62,0,0,0,5.91-6.16,6.91,6.91,0,0,0,5.17-.83,6.77,6.77,0,1,0-9.34-2.11,6.27,6.27,0,0,0,.42.59,23.88,23.88,0,0,1-9.52,7.79h0A18.45,18.45,0,0,1,47,51v5c4,0,5.93-1.12,10-2.9a14.78,14.78,0,0,1,11,4.75,6.76,6.76,0,1,0,12.16,5.32A6.64,6.64,0,0,0,79.28,58.09ZM69.06,34.67a2.57,2.57,0,0,1,1.4-.41,2.62,2.62,0,1,1,0,5.24,2.61,2.61,0,0,1-2.22-1.21A2.63,2.63,0,0,1,69.06,34.67Zm7.06,27.6A2.61,2.61,0,0,1,75,63.91a2.56,2.56,0,0,1-1.39.41,2.62,2.62,0,0,1-1.52-4.75l.12-.07a2.65,2.65,0,0,1,3.6.8A2.59,2.59,0,0,1,76.12,62.27Z"/><path class="cls-3" d="M12.06,68.73V36.15l5,1V35.39l-5.56-1.23h-.12a.27.27,0,0,0-.12,0l-.1.07a.28.28,0,0,0-.1.09.54.54,0,0,0-.07.13.34.34,0,0,0-.06.15.85.85,0,0,0,0,.17,1.09,1.09,0,0,0,0,.18v35a1.09,1.09,0,0,0,0,.18,1,1,0,0,0,0,.17,1,1,0,0,0,.13.27l.1.1a.41.41,0,0,0,.22.09h.12L17,69.49V67.74Z"/><path class="cls-3" d="M18.88,72.37V32.52l6.45,1.09V31.46l-4.84-.91L18,30.07a.55.55,0,0,0-.18,0,.57.57,0,0,0-.18,0l-.16.08-.14.11-.12.16a1,1,0,0,0-.08.18.73.73,0,0,0-.06.21,1.5,1.5,0,0,0,0,.22V73.84a1.64,1.64,0,0,0,0,.22.83.83,0,0,0,.06.21,1.42,1.42,0,0,0,.08.18,1,1,0,0,0,.12.15.53.53,0,0,0,.14.12l.16.08a1.13,1.13,0,0,0,.18,0H18l2.53-.48,4.84-.91V71.28Z"/><rect class="cls-4" x="28.03" y="29.1" width="15.97" height="46.68"/><path class="cls-3" d="M25.33,27.75V77.13a1.35,1.35,0,0,0,1.35,1.35H44v-2.7H28V29.1H44V26.4H26.68A1.36,1.36,0,0,0,25.33,27.75Z"/></svg>