<svg xmlns="http://www.w3.org/2000/svg" viewBox="0 0 522.03 150"><defs><style>.cls-1{isolation:isolate;}.cls-2{fill:#20656c;}.cls-3{fill:#eb743b;}.cls-4{mix-blend-mode:multiply;opacity:0.07;}.cls-5{fill:#d3562c;}.cls-6{fill:#fffedb;}.cls-7{fill:#264346;}.cls-8{fill:#579ca0;}</style></defs><g class="cls-1"><g id="Layer_1" data-name="Layer 1"><path class="cls-2" d="M203.79,51.13a18.9,18.9,0,0,1-7,14.2q-6.5,5.25-17.08,5.25-11.4,0-17.93-7T155,44.43v-3.1q0-12.22,6.63-19.54t17.93-7.31q10.59,0,17,5.29t7.31,14.63H190.3q-.48-9-10.74-9-10.68,0-11,14.93v3.46q0,8.39,2.6,12.13t8.51,3.74q5.1,0,7.71-2t2.83-6.48Z"/><path class="cls-2" d="M209,46.07a27.67,27.67,0,0,1,2.68-12.37,19.5,19.5,0,0,1,7.7-8.41,22.38,22.38,0,0,1,11.66-3q9.45,0,15.42,5.78t6.66,15.7l.09,3.19q0,10.74-6,17.23T231.11,70.7Q221,70.7,215,64.23t-6-17.6Zm12.47.89q0,6.65,2.5,10.17a9,9,0,0,0,14.23,0q2.55-3.48,2.54-11.12,0-6.52-2.54-10.11A8.27,8.27,0,0,0,231,32.36,8.14,8.14,0,0,0,224,35.92Q221.45,39.49,221.45,47Z"/><path class="cls-2" d="M277.68,54.61l8.67-31.44h13L283.63,69.83h-11.9L256,23.17h13Z"/><path class="cls-2" d="M325.76,70.7q-10.26,0-16.71-6.3t-6.44-16.77V46.42a28.17,28.17,0,0,1,2.71-12.57,19.92,19.92,0,0,1,7.7-8.54,21.59,21.59,0,0,1,11.36-3q9.58,0,15.08,6T345,45.47v5.09H315.24a11.59,11.59,0,0,0,3.64,7.33,11,11,0,0,0,7.7,2.76,13.47,13.47,0,0,0,11.26-5.22L344,62.29a18.76,18.76,0,0,1-7.59,6.19A24.92,24.92,0,0,1,325.76,70.7Zm-1.42-38.34a7.82,7.82,0,0,0-6,2.51,13.07,13.07,0,0,0-2.95,7.19h17.34v-1a9.29,9.29,0,0,0-2.25-6.44A8,8,0,0,0,324.34,32.36Z"/><path class="cls-2" d="M378.24,34.86a33.67,33.67,0,0,0-4.48-.34q-7.08,0-9.27,4.78V69.83H352V23.17H363.8l.34,5.57q3.75-6.43,10.4-6.43a13.19,13.19,0,0,1,3.88.56Z"/><path class="cls-2" d="M440,59.43H418.83L415,69.83H401.4L423,15.23h12.75l21.79,54.6H443.87Zm-17.49-9.94h13.74L429.33,31Z"/><path class="cls-2" d="M488.51,34.86a33.67,33.67,0,0,0-4.48-.34q-7.08,0-9.28,4.78V69.83H462.29V23.17h11.78l.34,5.57q3.75-6.43,10.39-6.43a13.14,13.14,0,0,1,3.88.56Z"/><path class="cls-2" d="M511.58,11.7V23.17h8v9.15h-8V55.6a5.57,5.57,0,0,0,1,3.71c.67.75,1.93,1.12,3.8,1.12a19.9,19.9,0,0,0,3.66-.3v9.45a25.83,25.83,0,0,1-7.54,1.12q-13.11,0-13.37-13.24V32.32h-6.81V23.17h6.81V11.7Z"/><path class="cls-3" d="M190.53,131.43H169.39l-3.84,10.4H152l21.61-54.6h12.75l21.8,54.6H194.42Zm-17.48-9.94h13.73L179.89,103Z"/><path class="cls-3" d="M239.07,106.86a33.81,33.81,0,0,0-4.49-.34q-7.07,0-9.27,4.78v30.53H212.85V95.17h11.77l.34,5.57q3.76-6.43,10.4-6.43a13.19,13.19,0,0,1,3.88.56Z"/><path class="cls-3" d="M263.65,132.65a8.14,8.14,0,0,0,5.6-1.9,6.65,6.65,0,0,0,2.25-5h11.68a16,16,0,0,1-2.59,8.69,17,17,0,0,1-7,6.12,21.83,21.83,0,0,1-9.77,2.18q-10,0-15.78-6.36t-5.78-17.58v-.82q0-10.77,5.74-17.2t15.74-6.43q8.75,0,14,5t5.37,13.26H271.5a8.55,8.55,0,0,0-2.25-5.91,8.34,8.34,0,0,0-12.27.89q-2.22,3.18-2.22,10.3v1.3q0,7.22,2.2,10.37A7.62,7.62,0,0,0,263.65,132.65Z"/><path class="cls-3" d="M302.46,100.26a15.56,15.56,0,0,1,12.46-6q15.18,0,15.4,17.64v29.88H317.85v-29.6q0-4-1.72-6t-5.74-1.92q-5.47,0-7.93,4.24v33.23H290V75.6h12.46Z"/><path class="cls-3" d="M339.63,83.1a6.12,6.12,0,0,1,1.88-4.61,8.06,8.06,0,0,1,10.2,0,6.59,6.59,0,0,1,0,9.27,8,8,0,0,1-10.13,0A6.12,6.12,0,0,1,339.63,83.1Zm13.24,58.73H340.36V95.17h12.51Z"/><path class="cls-3" d="M380.6,126.61l8.67-31.44h13l-15.74,46.66h-11.9L358.91,95.17h13Z"/><path class="cls-3" d="M428.68,142.7q-10.26,0-16.71-6.3t-6.45-16.77v-1.21a28.18,28.18,0,0,1,2.72-12.57,19.92,19.92,0,0,1,7.7-8.54,21.56,21.56,0,0,1,11.36-3q9.57,0,15.07,6t5.5,17.12v5.09H418.16a11.59,11.59,0,0,0,3.64,7.33,11,11,0,0,0,7.7,2.76,13.44,13.44,0,0,0,11.25-5.22l6.13,6.86a18.76,18.76,0,0,1-7.59,6.19A24.92,24.92,0,0,1,428.68,142.7Zm-1.42-38.34a7.8,7.8,0,0,0-6,2.51,13,13,0,0,0-2.95,7.19h17.33v-1a9.24,9.24,0,0,0-2.24-6.44A8.06,8.06,0,0,0,427.26,104.36Z"/><polygon class="cls-3" points="70.03 2.83 70.03 146.83 131.03 111.83 131.03 37.83 70.03 2.83"/><polygon class="cls-2" points="65.03 2.83 4.03 37.83 4.03 111.83 65.03 146.83 65.03 2.83"/><g class="cls-4"><path d="M87.33,94.57a2.1,2.1,0,0,1,1.82-1,2.16,2.16,0,0,1,1.08.29,2.12,2.12,0,0,1,.73,2.9,2.07,2.07,0,0,1-1.81,1,2.11,2.11,0,0,1-1.09-.3,2.11,2.11,0,0,1-.73-2.89Zm12.6,22.36a2.07,2.07,0,0,1-1.37.51,2.11,2.11,0,1,1,2.11-2A2.14,2.14,0,0,1,99.93,116.93Z"/><path d="M79,48.44l.21.05Z"/><path d="M90.41,58.09a2,2,0,0,1,.67-.66,2.11,2.11,0,0,1,1.12-.32,2.24,2.24,0,0,1,1.13.32,2.12,2.12,0,0,1-1.14,3.91A2,2,0,0,1,91.07,61,2.12,2.12,0,0,1,90.41,58.09ZM96.79,37.9a2.15,2.15,0,0,1-2.91.66l-.1-.07A2.11,2.11,0,0,1,95,34.66a2.15,2.15,0,0,1,1.12.33,2.11,2.11,0,0,1,.94,1.33A2.09,2.09,0,0,1,96.79,37.9Z"/><path d="M113.55,49.5a2.12,2.12,0,0,1,1.79-1,2,2,0,0,1,1.12.33,2.07,2.07,0,0,1,.94,1.33,2.1,2.1,0,0,1-.28,1.58,2.14,2.14,0,0,1-2.91.65l-.1-.06A2.11,2.11,0,0,1,113.55,49.5Zm0,23.46a2.12,2.12,0,0,1,1.79-1,2.11,2.11,0,0,1,1.78,3.24,2.14,2.14,0,0,1-2.91.66l-.1-.07A2.11,2.11,0,0,1,113.55,73Zm0,26.31a2.12,2.12,0,0,1,2.91-.66,2.11,2.11,0,1,1-2.25,3.57l-.1-.06A2.12,2.12,0,0,1,113.55,99.27Z"/><path d="M103.21,108.94a6.12,6.12,0,0,0-10.72,4.73A19.62,19.62,0,0,1,87.16,115a4,4,0,0,1-2.23-1,10.65,10.65,0,0,0-4.14-1.84,37.76,37.76,0,0,0,8.58-12.84,6.11,6.11,0,1,0-6.16-4.6,6,6,0,0,0,2.3,3.42c-4.05,9.22-9.22,13.08-12.56,14.69a1.49,1.49,0,0,0-.36.17,11,11,0,0,1-2.56.8v4a12.47,12.47,0,0,0,4.25-1.19c5.34-1.36,6.84-.35,8.4.71A8,8,0,0,0,87,119h.3a23.68,23.68,0,0,0,7-1.72A6.1,6.1,0,0,0,98.56,119h0a6.12,6.12,0,0,0,4.65-10.1ZM87.33,92.16a2.12,2.12,0,0,1,1.82-1,2.17,2.17,0,0,1,1.08.3,2.12,2.12,0,0,1,.73,2.9,2.09,2.09,0,0,1-1.81,1,2.21,2.21,0,0,1-1.09-.3,2.13,2.13,0,0,1-.73-2.9Zm12.6,22.36a2,2,0,0,1-1.37.51,2.11,2.11,0,0,1-1.38-3.71,2.11,2.11,0,0,1,3,.23,2.08,2.08,0,0,1-.23,3Z"/><path d="M79,46l.21.05Z"/><path d="M101,33a6.12,6.12,0,0,0-2.71-3.85A6.18,6.18,0,0,0,95,28.25a6.12,6.12,0,0,0-5,9.61,13.38,13.38,0,0,1-10,4.29,29.39,29.39,0,0,0-10-2.32v4A24.79,24.79,0,0,1,78.78,46h0a21.54,21.54,0,0,1,8.61,7,4,4,0,0,0-.38.54A6.14,6.14,0,0,0,88.92,62a6,6,0,0,0,3.27,1,6.13,6.13,0,0,0,3.27-11.31,6.2,6.2,0,0,0-4.66-.75,26,26,0,0,0-5.35-5.57,16.34,16.34,0,0,0,7.78-5.1,5.94,5.94,0,0,0,1.77.27,6.07,6.07,0,0,0,5.17-2.85A6,6,0,0,0,101,33ZM90.41,55.69a2.14,2.14,0,0,1,.67-.67,2.2,2.2,0,0,1,1.12-.31,2.12,2.12,0,1,1,0,4.23,2.12,2.12,0,0,1-1.78-3.25ZM96.79,35.5a2.14,2.14,0,0,1-2.91.65l-.1-.06A2.11,2.11,0,0,1,95,32.26a2.14,2.14,0,0,1,1.12.32,2.16,2.16,0,0,1,.94,1.33A2.12,2.12,0,0,1,96.79,35.5Z"/><path d="M109.67,74a6.09,6.09,0,0,0,2.11,2.65l.29.19a6.12,6.12,0,1,0,6.53-10.35,6.18,6.18,0,0,0-3.26-.94l-.38,0a25.67,25.67,0,0,1,0-11.27l.33,0a6.12,6.12,0,1,0-4.14-1.63l.07.06a28.75,28.75,0,0,0,0,14.42,5.25,5.25,0,0,0-.42.4,5.1,5.1,0,0,0-.63.82,5.73,5.73,0,0,0-.71,1.58,15.21,15.21,0,0,0-6.83,2.73c-2,1.32-4,2.57-9.63,2.66a32.76,32.76,0,0,0-5.29-.11c-1.44,0-2.92.1-4.85,0-1.34-.07-2.11-.88-3.46-2.42-1.8-2.06-4.22-4.65-9.37-5v4c3.29.3,4.8,1.89,6.36,3.67s3.17,3.62,6.25,3.78a49.83,49.83,0,0,0,5.21,0,24.19,24.19,0,0,1,7.86.69c2.6.64,12.09,9.67,14.77,14.32a4.25,4.25,0,0,0-.31.43,6.1,6.1,0,0,0,1.61,8.25l.29.2a6.12,6.12,0,1,0,3.27-11.3,6.16,6.16,0,0,0-1.55.2c-2.56-4.19-8.65-10.46-13.18-13.79a18.42,18.42,0,0,0,4.21-2.19A11.34,11.34,0,0,1,109.67,74Zm3.88-26.92a2.12,2.12,0,0,1,2.91-.66A2.11,2.11,0,1,1,114.21,50l-.1-.06A2.12,2.12,0,0,1,113.55,47.1Zm0,23.46a2.12,2.12,0,0,1,1.79-1,2,2,0,0,1,1.12.33,2.08,2.08,0,0,1,.94,1.32,2.11,2.11,0,0,1-3.19,2.24l-.1-.06A2.12,2.12,0,0,1,113.55,70.56Zm0,26.3a2.12,2.12,0,0,1,1.79-1,2.1,2.1,0,0,1,1.12.33,2.07,2.07,0,0,1,.94,1.33,2.1,2.1,0,0,1-.28,1.58,2.15,2.15,0,0,1-2.91.66l-.1-.07A2.11,2.11,0,0,1,113.55,96.86Z"/></g><path class="cls-5" d="M103.21,111.94a6.12,6.12,0,0,0-10.72,4.73A19.62,19.62,0,0,1,87.16,118a4,4,0,0,1-2.23-1,10.65,10.65,0,0,0-4.14-1.84,37.76,37.76,0,0,0,8.58-12.84,6.11,6.11,0,1,0-6.16-4.6,6,6,0,0,0,2.3,3.42c-4.05,9.22-9.22,13.08-12.56,14.69a1.49,1.49,0,0,0-.36.17,11,11,0,0,1-2.56.8v4a12.47,12.47,0,0,0,4.25-1.19c5.34-1.36,6.84-.35,8.4.71A8,8,0,0,0,87,122h.3a23.68,23.68,0,0,0,7-1.72A6.1,6.1,0,0,0,98.56,122h0a6.12,6.12,0,0,0,4.65-10.1ZM87.33,95.16a2.12,2.12,0,0,1,1.82-1,2.17,2.17,0,0,1,1.08.3,2.12,2.12,0,0,1,.73,2.9,2.09,2.09,0,0,1-1.81,1,2.21,2.21,0,0,1-1.09-.3,2.13,2.13,0,0,1-.73-2.9Zm12.6,22.36a2,2,0,0,1-1.37.51,2.11,2.11,0,0,1-1.38-3.71,2.11,2.11,0,0,1,3,.23,2.08,2.08,0,0,1-.23,3Z"/><path d="M79,48.44l.21.05Z"/><path class="cls-5" d="M101,36a6.12,6.12,0,1,0-11,4.82,13.36,13.36,0,0,1-10,4.3,28.93,28.93,0,0,0-10-2.32v4A25,25,0,0,1,78.78,49h0A21.57,21.57,0,0,1,87.4,56a4.7,4.7,0,0,0-.38.53,6.2,6.2,0,1,0,3.78-2.66,26.24,26.24,0,0,0-5.35-5.57,16.39,16.39,0,0,0,7.78-5.09,6.27,6.27,0,0,0,1.77.26A6.12,6.12,0,0,0,101,36ZM90.41,58.69a2,2,0,0,1,.67-.66,2.11,2.11,0,0,1,1.12-.32,2.12,2.12,0,1,1,0,4.23,2,2,0,0,1-1.12-.33A2.12,2.12,0,0,1,90.41,58.69ZM96.79,38.5a2.15,2.15,0,0,1-2.91.66l-.1-.07A2.11,2.11,0,0,1,95,35.26a2.15,2.15,0,0,1,1.12.33,2.1,2.1,0,0,1,.66,2.91Z"/><path class="cls-5" d="M109.67,77a6.09,6.09,0,0,0,2.11,2.65l.29.19a6.12,6.12,0,1,0,6.53-10.35,6.18,6.18,0,0,0-3.26-.94l-.38,0a25.67,25.67,0,0,1,0-11.27l.33,0a6.12,6.12,0,1,0-4.14-1.63l.07.06a28.75,28.75,0,0,0,0,14.42,5.25,5.25,0,0,0-.42.4,5.1,5.1,0,0,0-.63.82,5.73,5.73,0,0,0-.71,1.58,15.21,15.21,0,0,0-6.83,2.73c-2,1.32-4,2.57-9.63,2.66a32.76,32.76,0,0,0-5.29-.11c-1.44,0-2.92.1-4.85,0-1.34-.07-2.11-.88-3.46-2.42-1.8-2.06-4.22-4.65-9.37-5v4c3.29.3,4.8,1.89,6.36,3.67s3.17,3.62,6.25,3.78a49.83,49.83,0,0,0,5.21,0,24.19,24.19,0,0,1,7.86.69c2.6.64,12.09,9.67,14.77,14.32a4.25,4.25,0,0,0-.31.43,6.1,6.1,0,0,0,1.61,8.25l.29.2a6.12,6.12,0,1,0,3.27-11.3,6.16,6.16,0,0,0-1.55.2c-2.56-4.19-8.65-10.46-13.18-13.79a18.42,18.42,0,0,0,4.21-2.19A11.34,11.34,0,0,1,109.67,77Zm3.88-26.92a2.12,2.12,0,0,1,2.91-.66A2.11,2.11,0,1,1,114.21,53l-.1-.06A2.12,2.12,0,0,1,113.55,50.1Zm0,23.46a2.12,2.12,0,0,1,1.79-1,2,2,0,0,1,1.12.33,2.08,2.08,0,0,1,.94,1.32,2.11,2.11,0,0,1-3.19,2.24l-.1-.06A2.12,2.12,0,0,1,113.55,73.56Zm0,26.3a2.12,2.12,0,0,1,1.79-1,2.1,2.1,0,0,1,1.12.33,2.07,2.07,0,0,1,.94,1.33,2.1,2.1,0,0,1-.28,1.58,2.15,2.15,0,0,1-2.91.66l-.1-.07A2.11,2.11,0,0,1,113.55,99.86Z"/><path class="cls-6" d="M103.21,108.94a6.12,6.12,0,0,0-10.72,4.73A19.62,19.62,0,0,1,87.16,115a4,4,0,0,1-2.23-1,10.65,10.65,0,0,0-4.14-1.84,37.76,37.76,0,0,0,8.58-12.84,6.11,6.11,0,1,0-6.16-4.6,6,6,0,0,0,2.3,3.42c-4.05,9.22-9.22,13.08-12.56,14.69a1.49,1.49,0,0,0-.36.17,11,11,0,0,1-2.56.8v4a12.47,12.47,0,0,0,4.25-1.19c5.34-1.36,6.84-.35,8.4.71A8,8,0,0,0,87,119h.3a23.68,23.68,0,0,0,7-1.72A6.1,6.1,0,0,0,98.56,119h0a6.12,6.12,0,0,0,4.65-10.1ZM87.33,92.16a2.12,2.12,0,0,1,1.82-1,2.17,2.17,0,0,1,1.08.3,2.12,2.12,0,0,1,.73,2.9,2.09,2.09,0,0,1-1.81,1,2.21,2.21,0,0,1-1.09-.3,2.13,2.13,0,0,1-.73-2.9Zm12.6,22.36a2,2,0,0,1-1.37.51,2.11,2.11,0,0,1-1.38-3.71,2.11,2.11,0,0,1,3,.23,2.08,2.08,0,0,1-.23,3Z"/><path class="cls-6" d="M79,46l.21.05Z"/><path class="cls-6" d="M101,33a6.12,6.12,0,0,0-2.71-3.85A6.18,6.18,0,0,0,95,28.25a6.12,6.12,0,0,0-5,9.61,13.38,13.38,0,0,1-10,4.29,29.39,29.39,0,0,0-10-2.32v4A24.79,24.79,0,0,1,78.78,46h0a21.54,21.54,0,0,1,8.61,7,4,4,0,0,0-.38.54A6.14,6.14,0,0,0,88.92,62a6,6,0,0,0,3.27,1,6.13,6.13,0,0,0,3.27-11.31,6.2,6.2,0,0,0-4.66-.75,26,26,0,0,0-5.35-5.57,16.34,16.34,0,0,0,7.78-5.1,5.94,5.94,0,0,0,1.77.27,6.07,6.07,0,0,0,5.17-2.85A6,6,0,0,0,101,33ZM90.41,55.69a2.14,2.14,0,0,1,.67-.67,2.2,2.2,0,0,1,1.12-.31,2.12,2.12,0,1,1,0,4.23,2.12,2.12,0,0,1-1.78-3.25ZM96.79,35.5a2.14,2.14,0,0,1-2.91.65l-.1-.06A2.11,2.11,0,0,1,95,32.26a2.14,2.14,0,0,1,1.12.32,2.16,2.16,0,0,1,.94,1.33A2.12,2.12,0,0,1,96.79,35.5Z"/><path class="cls-6" d="M109.67,74a6.09,6.09,0,0,0,2.11,2.65l.29.19a6.12,6.12,0,1,0,6.53-10.35,6.18,6.18,0,0,0-3.26-.94l-.38,0a25.67,25.67,0,0,1,0-11.27l.33,0a6.12,6.12,0,1,0-4.14-1.63l.07.06a28.75,28.75,0,0,0,0,14.42,5.25,5.25,0,0,0-.42.4,5.1,5.1,0,0,0-.63.82,5.73,5.73,0,0,0-.71,1.58,15.21,15.21,0,0,0-6.83,2.73c-2,1.32-4,2.57-9.63,2.66a32.76,32.76,0,0,0-5.29-.11c-1.44,0-2.92.1-4.85,0-1.34-.07-2.11-.88-3.46-2.42-1.8-2.06-4.22-4.65-9.37-5v4c3.29.3,4.8,1.89,6.36,3.67s3.17,3.62,6.25,3.78a49.83,49.83,0,0,0,5.21,0,24.19,24.19,0,0,1,7.86.69c2.6.64,12.09,9.67,14.77,14.32a4.25,4.25,0,0,0-.31.43,6.1,6.1,0,0,0,1.61,8.25l.29.2a6.12,6.12,0,1,0,3.27-11.3,6.16,6.16,0,0,0-1.55.2c-2.56-4.19-8.65-10.46-13.18-13.79a18.42,18.42,0,0,0,4.21-2.19A11.34,11.34,0,0,1,109.67,74Zm3.88-26.92a2.12,2.12,0,0,1,2.91-.66A2.11,2.11,0,1,1,114.21,50l-.1-.06A2.12,2.12,0,0,1,113.55,47.1Zm0,23.46a2.12,2.12,0,0,1,1.79-1,2,2,0,0,1,1.12.33,2.08,2.08,0,0,1,.94,1.32,2.11,2.11,0,0,1-3.19,2.24l-.1-.06A2.12,2.12,0,0,1,113.55,70.56Zm0,26.3a2.12,2.12,0,0,1,1.79-1,2.1,2.1,0,0,1,1.12.33,2.07,2.07,0,0,1,.94,1.33,2.1,2.1,0,0,1-.28,1.58,2.15,2.15,0,0,1-2.91.66l-.1-.07A2.11,2.11,0,0,1,113.55,96.86Z"/><polygon class="cls-7" points="17.12 105.92 24.57 104.44 24.57 58.55 17.12 57.06 17.12 105.92"/><path class="cls-7" d="M17.12,105.92V57.07l7.45,1.47V55.92l-8.36-1.85a.5.5,0,0,0-.17,0l-.18,0-.16.1a1,1,0,0,0-.14.15.86.86,0,0,0-.11.19.85.85,0,0,0-.09.22,2,2,0,0,0,0,.26,1.18,1.18,0,0,0,0,.27v52.42a1.18,1.18,0,0,0,0,.27,1.84,1.84,0,0,0,0,.25.92.92,0,0,0,.09.23,1.18,1.18,0,0,0,.11.19l.14.14.16.1.18,0a.5.5,0,0,0,.17,0l8.36-1.85v-2.62Z"/><polygon class="cls-7" points="27.35 111.39 37.02 109.75 37.02 53.25 27.35 51.61 27.35 111.39"/><path class="cls-7" d="M27.35,111.38V51.61L37,53.25V50l-7.26-1.37L26,47.94a1.23,1.23,0,0,0-.27,0,1.28,1.28,0,0,0-.27,0,1.34,1.34,0,0,0-.24.12.83.83,0,0,0-.21.17,2,2,0,0,0-.18.23,2.39,2.39,0,0,0-.13.28,2.33,2.33,0,0,0-.08.31,3.25,3.25,0,0,0,0,.33v64.18c0,.11,0,.23,0,.33a2.33,2.33,0,0,0,.08.31,2.39,2.39,0,0,0,.13.28,2,2,0,0,0,.18.23.83.83,0,0,0,.21.17,1.34,1.34,0,0,0,.24.12l.27,0a1.23,1.23,0,0,0,.27,0l3.8-.72L37,113v-3.23Z"/><rect class="cls-7" x="41.07" y="46.48" width="23.96" height="70.03"/><path class="cls-7" d="M37,44.46v74.07a2,2,0,0,0,2,2H65v-4h-24v-70H65v-4h-26A2,2,0,0,0,37,44.46Z"/><polygon class="cls-2" points="17.12 102.92 24.57 101.44 24.57 55.55 17.12 54.06 17.12 102.92"/><path class="cls-6" d="M17.12,102.92V54.07l7.45,1.47V52.92l-8.36-1.85a.5.5,0,0,0-.17,0l-.18,0-.16.1a1,1,0,0,0-.14.15.86.86,0,0,0-.11.19.85.85,0,0,0-.09.22,2,2,0,0,0,0,.26,1.18,1.18,0,0,0,0,.27v52.42a1.18,1.18,0,0,0,0,.27,1.84,1.84,0,0,0,0,.25.92.92,0,0,0,.09.23,1.18,1.18,0,0,0,.11.19l.14.14.16.1.18,0a.5.5,0,0,0,.17,0l8.36-1.85v-2.62Z"/><polygon class="cls-2" points="27.35 108.39 37.02 106.75 37.02 50.25 27.35 48.61 27.35 108.39"/><path class="cls-6" d="M27.35,108.38V48.61L37,50.25V47l-7.26-1.37L26,44.94a1.23,1.23,0,0,0-.27,0,1.28,1.28,0,0,0-.27,0,1.34,1.34,0,0,0-.24.12.83.83,0,0,0-.21.17,2,2,0,0,0-.18.23,2.39,2.39,0,0,0-.13.28,2.33,2.33,0,0,0-.08.31,3.25,3.25,0,0,0,0,.33v64.18c0,.11,0,.23,0,.33a2.33,2.33,0,0,0,.08.31,2.39,2.39,0,0,0,.13.28,2,2,0,0,0,.18.23.83.83,0,0,0,.21.17,1.34,1.34,0,0,0,.24.12l.27,0a1.23,1.23,0,0,0,.27,0l3.8-.72L37,110v-3.23Z"/><rect class="cls-8" x="41.07" y="43.48" width="23.96" height="70.03"/><path class="cls-6" d="M37,41.46v74.07a2,2,0,0,0,2,2H65v-4h-24v-70H65v-4h-26A2,2,0,0,0,37,41.46Z"/></g></g></svg>