<svg id="Layer_1" data-name="Layer 1" xmlns="http://www.w3.org/2000/svg" viewBox="0 0 93.82 30"><defs><style>.cls-1{fill:#20656c;}.cls-2{fill:#eb743b;}</style></defs><polygon class="cls-1" points="14 1 2 8 2 22 14 29 14 1"/><polygon class="cls-2" points="15 1 27 8 27 22 15 29 15 1"/><path class="cls-1" d="M48.34,18.23a6.82,6.82,0,0,1-2.55,5.14,9.5,9.5,0,0,1-6.18,1.9,8.47,8.47,0,0,1-6.49-2.52,9.93,9.93,0,0,1-2.43-6.94V14.69a10.14,10.14,0,0,1,2.4-7.08A8.33,8.33,0,0,1,39.57,5a9.31,9.31,0,0,1,6.15,1.92,7.55,7.55,0,0,1,2.64,5.29h-4.9q-.16-3.26-3.89-3.25t-4,5.4v1.26A7.82,7.82,0,0,0,36.53,20a3.47,3.47,0,0,0,3.08,1.36,4.49,4.49,0,0,0,2.79-.74,3,3,0,0,0,1-2.35Z"/><path class="cls-1" d="M63.14,21.23H55.49L54.1,25H49.18L57,5.24h4.61L69.5,25h-5Zm-6.33-3.59h5L59.29,11Z"/><path class="cls-2" d="M83.43,21.23H75.78L74.38,25H69.47L77.29,5.24H81.9L89.79,25h-5ZM77.1,17.64h5L79.58,11Z"/></svg>