<svg xmlns="http://www.w3.org/2000/svg" viewBox="0 0 841.42 150"><defs><style>.cls-1{isolation:isolate;}.cls-2{fill:#eb743b;}.cls-3{fill:#20656c;}.cls-4{mix-blend-mode:multiply;opacity:0.07;}.cls-5{fill:#d3562c;}.cls-6{fill:#fffedb;}.cls-7{fill:#264346;}.cls-8{fill:#579ca0;}</style></defs><g class="cls-1"><g id="Layer_1" data-name="Layer 1"><polygon class="cls-2" points="70.35 2.82 70.35 146.82 131.35 111.82 131.35 37.82 70.35 2.82"/><polygon class="cls-3" points="65.35 2.82 4.35 37.82 4.35 111.82 65.35 146.82 65.35 2.82"/><g class="cls-4"><path d="M87.66,94.56a2.08,2.08,0,0,1,1.82-1,2.11,2.11,0,1,1,0,4.22,2.13,2.13,0,0,1-2-1.59A2.13,2.13,0,0,1,87.66,94.56Zm12.6,22.36a2.11,2.11,0,1,1-1.38-3.72,2.11,2.11,0,0,1,2.11,2.28A2.08,2.08,0,0,1,100.26,116.92Z"/><path d="M79.36,48.43l.21,0Z"/><path d="M90.73,58.08a2,2,0,0,1,.68-.66,2.12,2.12,0,0,1,2.24,0,2.12,2.12,0,0,1-1.13,3.91A2.07,2.07,0,0,1,91.39,61,2.13,2.13,0,0,1,90.73,58.08Zm6.38-20.19a2.15,2.15,0,0,1-2.91.66l-.09-.07a2.11,2.11,0,0,1,1.22-3.83,2.16,2.16,0,0,1,1.13.33,2.11,2.11,0,0,1,.65,2.91Z"/><path d="M113.88,49.49a2.1,2.1,0,0,1,1.78-1,2.12,2.12,0,0,1,1.79,3.24,2.15,2.15,0,0,1-2.92.65l-.09-.06A2.11,2.11,0,0,1,113.88,49.49Zm0,23.46a2.1,2.1,0,0,1,1.78-1,2.16,2.16,0,0,1,1.13.33,2.12,2.12,0,0,1,.66,2.91,2.15,2.15,0,0,1-2.92.66l-.09-.07A2.1,2.1,0,0,1,113.88,73Zm0,26.31a2.08,2.08,0,0,1,1.78-1,2.15,2.15,0,0,1,1.13.32,2.11,2.11,0,0,1,.93,1.33,2.07,2.07,0,0,1-.27,1.59,2.15,2.15,0,0,1-2.92.65l-.09-.06A2.11,2.11,0,0,1,113.88,99.26Z"/><path d="M103.53,108.93a6.12,6.12,0,0,0-10.72,4.73A19.62,19.62,0,0,1,87.48,115a4,4,0,0,1-2.22-1,10.7,10.7,0,0,0-4.15-1.84A37.62,37.62,0,0,0,89.7,99.34a6.09,6.09,0,1,0-3.86-1.18c-4,9.22-9.22,13.08-12.57,14.69a2,2,0,0,0-.36.17,10.91,10.91,0,0,1-2.56.8v4a12.63,12.63,0,0,0,4.25-1.19c5.35-1.36,6.84-.35,8.41.71A7.94,7.94,0,0,0,87.27,119h.31a23.61,23.61,0,0,0,7-1.72A6.12,6.12,0,0,0,98.89,119h0a6.11,6.11,0,0,0,4.64-10.1ZM87.66,92.15a2.1,2.1,0,0,1,1.82-1,2,2,0,0,1,1.07.3,2.11,2.11,0,0,1-1.08,3.93,2.17,2.17,0,0,1-1.08-.3,2.09,2.09,0,0,1-1-1.3A2.14,2.14,0,0,1,87.66,92.15Zm12.6,22.36a2.09,2.09,0,0,1-1.37.51,2.11,2.11,0,0,1-1.38-3.71,2.06,2.06,0,0,1,1.37-.52,2.11,2.11,0,0,1,1.61.75,2.07,2.07,0,0,1,.5,1.53A2,2,0,0,1,100.26,114.51Z"/><path d="M79.36,46l.21,0Z"/><path d="M101.3,33a6.06,6.06,0,0,0-2.7-3.85,6.19,6.19,0,0,0-3.27-.94,6.12,6.12,0,0,0-5,9.61,13.35,13.35,0,0,1-9.94,4.29,29.44,29.44,0,0,0-10-2.32v4A24.65,24.65,0,0,1,79.1,46h0a21.58,21.58,0,0,1,8.6,7c-.13.17-.26.35-.38.54A6.14,6.14,0,0,0,89.25,62a6,6,0,0,0,3.27,1,6.12,6.12,0,0,0,3.27-11.3,6.22,6.22,0,0,0-4.67-.75,26,26,0,0,0-5.34-5.57,16.38,16.38,0,0,0,7.78-5.1,6.17,6.17,0,0,0,1.77.27,6.09,6.09,0,0,0,5.17-2.85A6,6,0,0,0,101.3,33ZM90.73,55.67a2.15,2.15,0,0,1,.68-.66,2.17,2.17,0,0,1,1.12-.31,2.09,2.09,0,0,1,1.12.32,2.12,2.12,0,0,1-1.13,3.91,2.13,2.13,0,0,1-1.79-3.26Zm6.38-20.18a2.14,2.14,0,0,1-2.91.65l-.09-.06a2.1,2.1,0,0,1-.56-2.85,2.07,2.07,0,0,1,1.78-1,2.15,2.15,0,0,1,1.13.32,2.11,2.11,0,0,1,.93,1.33A2.08,2.08,0,0,1,97.11,35.49Z"/><path d="M110,74a6,6,0,0,0,2.11,2.65l.28.19a6.12,6.12,0,1,0,6.54-10.35,6.19,6.19,0,0,0-3.27-.94l-.37,0a25.82,25.82,0,0,1,0-11.27l.34,0a6.12,6.12,0,1,0-4.15-1.63l.08.06a28.64,28.64,0,0,0,0,14.42c-.14.13-.29.25-.43.4a6.58,6.58,0,0,0-.63.82,6,6,0,0,0-.71,1.58A15.16,15.16,0,0,0,103,72.72c-2,1.32-4,2.57-9.64,2.66A32.72,32.72,0,0,0,88,75.27c-1.43,0-2.91.1-4.85,0-1.33-.07-2.1-.88-3.46-2.42-1.8-2.06-4.22-4.65-9.37-5v4c3.3.3,4.8,1.89,6.36,3.67s3.18,3.62,6.26,3.78c2.11.12,3.76,0,5.2,0A24.15,24.15,0,0,1,96,80c2.61.64,12.1,9.67,14.77,14.32-.1.14-.22.28-.31.43a6.1,6.1,0,0,0,1.62,8.25l.28.2a6.13,6.13,0,1,0,1.73-11.1c-2.56-4.19-8.65-10.46-13.19-13.79a18.42,18.42,0,0,0,4.21-2.19A11.39,11.39,0,0,1,110,74Zm3.88-26.92a2.08,2.08,0,0,1,1.78-1,2.15,2.15,0,0,1,1.13.32,2.09,2.09,0,0,1,.93,1.33,2,2,0,0,1-.27,1.58,2.14,2.14,0,0,1-2.92.66l-.09-.06A2.11,2.11,0,0,1,113.88,47.09Zm0,23.46a2.08,2.08,0,0,1,1.78-1,2.15,2.15,0,0,1,1.13.32,2.11,2.11,0,0,1,.93,1.33,2.07,2.07,0,0,1-.27,1.59,2.15,2.15,0,0,1-2.92.65l-.09-.06A2.11,2.11,0,0,1,113.88,70.55Zm0,26.3a2.1,2.1,0,0,1,1.78-1,2.12,2.12,0,0,1,1.79,3.24,2.15,2.15,0,0,1-2.92.65l-.09-.06A2.1,2.1,0,0,1,113.88,96.85Z"/></g><path class="cls-5" d="M103.53,111.93a6.12,6.12,0,0,0-10.72,4.73A19.62,19.62,0,0,1,87.48,118a4,4,0,0,1-2.22-1,10.7,10.7,0,0,0-4.15-1.84,37.62,37.62,0,0,0,8.59-12.84,6.09,6.09,0,1,0-3.86-1.18c-4,9.22-9.22,13.08-12.57,14.69a2,2,0,0,0-.36.17,10.91,10.91,0,0,1-2.56.8v4a12.63,12.63,0,0,0,4.25-1.19c5.35-1.36,6.84-.35,8.41.71A7.94,7.94,0,0,0,87.27,122h.31a23.61,23.61,0,0,0,7-1.72A6.12,6.12,0,0,0,98.89,122h0a6.11,6.11,0,0,0,4.64-10.1ZM87.66,95.15a2.1,2.1,0,0,1,1.82-1,2,2,0,0,1,1.07.3,2.11,2.11,0,0,1-1.08,3.93,2.17,2.17,0,0,1-1.08-.3,2.09,2.09,0,0,1-1-1.3A2.14,2.14,0,0,1,87.66,95.15Zm12.6,22.36a2.09,2.09,0,0,1-1.37.51,2.11,2.11,0,0,1-1.38-3.71,2.06,2.06,0,0,1,1.37-.52,2.11,2.11,0,0,1,1.61.75,2.07,2.07,0,0,1,.5,1.53A2,2,0,0,1,100.26,117.51Z"/><path d="M79.36,48.43l.21,0Z"/><path class="cls-5" d="M101.3,36a6,6,0,0,0-2.7-3.84,6.12,6.12,0,0,0-8.3,8.66,13.27,13.27,0,0,1-9.94,4.29,29.17,29.17,0,0,0-10-2.31v4A24.91,24.91,0,0,1,79.1,49h0a21.67,21.67,0,0,1,8.6,7l-.38.54a6.13,6.13,0,1,0,8.45-1.91,6.22,6.22,0,0,0-4.67-.75,26,26,0,0,0-5.34-5.57,16.43,16.43,0,0,0,7.78-5.09,6.16,6.16,0,0,0,1.77.26,6.06,6.06,0,0,0,5.17-2.85A6,6,0,0,0,101.3,36ZM90.73,58.68a2,2,0,0,1,.68-.66,2.12,2.12,0,0,1,2.24,0,2.12,2.12,0,0,1-1.13,3.91,2.07,2.07,0,0,1-1.13-.33A2.13,2.13,0,0,1,90.73,58.68Zm6.38-20.19a2.14,2.14,0,0,1-2.91.65l-.09-.06a2.11,2.11,0,0,1,1.22-3.83,2.11,2.11,0,0,1,1.78,3.24Z"/><path class="cls-5" d="M110,77a6,6,0,0,0,2.11,2.65l.28.19a6.12,6.12,0,1,0,6.54-10.35,6.19,6.19,0,0,0-3.27-.94l-.37,0a25.82,25.82,0,0,1,0-11.27l.34,0a6.12,6.12,0,1,0-4.15-1.63l.08.06a28.64,28.64,0,0,0,0,14.42c-.14.13-.29.25-.43.4a6.58,6.58,0,0,0-.63.82,6,6,0,0,0-.71,1.58A15.16,15.16,0,0,0,103,75.72c-2,1.32-4,2.57-9.64,2.66A32.72,32.72,0,0,0,88,78.27c-1.43,0-2.91.1-4.85,0-1.33-.07-2.1-.88-3.46-2.42-1.8-2.06-4.22-4.65-9.37-5v4c3.3.3,4.8,1.89,6.36,3.67s3.18,3.62,6.26,3.78c2.11.12,3.76,0,5.2,0A24.15,24.15,0,0,1,96,83c2.61.64,12.1,9.67,14.77,14.32-.1.14-.22.28-.31.43a6.1,6.1,0,0,0,1.62,8.25l.28.2a6.13,6.13,0,1,0,1.73-11.1c-2.56-4.19-8.65-10.46-13.19-13.79a18.42,18.42,0,0,0,4.21-2.19A11.39,11.39,0,0,1,110,77Zm3.88-26.92a2.08,2.08,0,0,1,1.78-1,2.15,2.15,0,0,1,1.13.32,2.09,2.09,0,0,1,.93,1.33,2,2,0,0,1-.27,1.58,2.14,2.14,0,0,1-2.92.66l-.09-.06A2.11,2.11,0,0,1,113.88,50.09Zm0,23.46a2.08,2.08,0,0,1,1.78-1,2.15,2.15,0,0,1,1.13.32,2.11,2.11,0,0,1,.93,1.33,2.07,2.07,0,0,1-.27,1.59,2.15,2.15,0,0,1-2.92.65l-.09-.06A2.11,2.11,0,0,1,113.88,73.55Zm0,26.3a2.1,2.1,0,0,1,1.78-1,2.12,2.12,0,0,1,1.79,3.24,2.15,2.15,0,0,1-2.92.65l-.09-.06A2.1,2.1,0,0,1,113.88,99.85Z"/><path class="cls-6" d="M103.53,108.93a6.12,6.12,0,0,0-10.72,4.73A19.62,19.62,0,0,1,87.48,115a4,4,0,0,1-2.22-1,10.7,10.7,0,0,0-4.15-1.84A37.62,37.62,0,0,0,89.7,99.34a6.09,6.09,0,1,0-3.86-1.18c-4,9.22-9.22,13.08-12.57,14.69a2,2,0,0,0-.36.17,10.91,10.91,0,0,1-2.56.8v4a12.63,12.63,0,0,0,4.25-1.19c5.35-1.36,6.84-.35,8.41.71A7.94,7.94,0,0,0,87.27,119h.31a23.61,23.61,0,0,0,7-1.72A6.12,6.12,0,0,0,98.89,119h0a6.11,6.11,0,0,0,4.64-10.1ZM87.66,92.15a2.1,2.1,0,0,1,1.82-1,2,2,0,0,1,1.07.3,2.11,2.11,0,0,1-1.08,3.93,2.17,2.17,0,0,1-1.08-.3,2.09,2.09,0,0,1-1-1.3A2.14,2.14,0,0,1,87.66,92.15Zm12.6,22.36a2.09,2.09,0,0,1-1.37.51,2.11,2.11,0,0,1-1.38-3.71,2.06,2.06,0,0,1,1.37-.52,2.11,2.11,0,0,1,1.61.75,2.07,2.07,0,0,1,.5,1.53A2,2,0,0,1,100.26,114.51Z"/><path class="cls-6" d="M79.36,46l.21,0Z"/><path class="cls-6" d="M101.3,33a6.06,6.06,0,0,0-2.7-3.85,6.19,6.19,0,0,0-3.27-.94,6.12,6.12,0,0,0-5,9.61,13.35,13.35,0,0,1-9.94,4.29,29.44,29.44,0,0,0-10-2.32v4A24.65,24.65,0,0,1,79.1,46h0a21.58,21.58,0,0,1,8.6,7c-.13.17-.26.35-.38.54A6.14,6.14,0,0,0,89.25,62a6,6,0,0,0,3.27,1,6.12,6.12,0,0,0,3.27-11.3,6.22,6.22,0,0,0-4.67-.75,26,26,0,0,0-5.34-5.57,16.38,16.38,0,0,0,7.78-5.1,6.17,6.17,0,0,0,1.77.27,6.09,6.09,0,0,0,5.17-2.85A6,6,0,0,0,101.3,33ZM90.73,55.67a2.15,2.15,0,0,1,.68-.66,2.17,2.17,0,0,1,1.12-.31,2.09,2.09,0,0,1,1.12.32,2.12,2.12,0,0,1-1.13,3.91,2.13,2.13,0,0,1-1.79-3.26Zm6.38-20.18a2.14,2.14,0,0,1-2.91.65l-.09-.06a2.1,2.1,0,0,1-.56-2.85,2.07,2.07,0,0,1,1.78-1,2.15,2.15,0,0,1,1.13.32,2.11,2.11,0,0,1,.93,1.33A2.08,2.08,0,0,1,97.11,35.49Z"/><path class="cls-6" d="M110,74a6,6,0,0,0,2.11,2.65l.28.19a6.12,6.12,0,1,0,6.54-10.35,6.19,6.19,0,0,0-3.27-.94l-.37,0a25.82,25.82,0,0,1,0-11.27l.34,0a6.12,6.12,0,1,0-4.15-1.63l.08.06a28.64,28.64,0,0,0,0,14.42c-.14.13-.29.25-.43.4a6.58,6.58,0,0,0-.63.82,6,6,0,0,0-.71,1.58A15.16,15.16,0,0,0,103,72.72c-2,1.32-4,2.57-9.64,2.66A32.72,32.72,0,0,0,88,75.27c-1.43,0-2.91.1-4.85,0-1.33-.07-2.1-.88-3.46-2.42-1.8-2.06-4.22-4.65-9.37-5v4c3.3.3,4.8,1.89,6.36,3.67s3.18,3.62,6.26,3.78c2.11.12,3.76,0,5.2,0A24.15,24.15,0,0,1,96,80c2.61.64,12.1,9.67,14.77,14.32-.1.14-.22.28-.31.43a6.1,6.1,0,0,0,1.62,8.25l.28.2a6.13,6.13,0,1,0,1.73-11.1c-2.56-4.19-8.65-10.46-13.19-13.79a18.42,18.42,0,0,0,4.21-2.19A11.39,11.39,0,0,1,110,74Zm3.88-26.92a2.08,2.08,0,0,1,1.78-1,2.15,2.15,0,0,1,1.13.32,2.09,2.09,0,0,1,.93,1.33,2,2,0,0,1-.27,1.58,2.14,2.14,0,0,1-2.92.66l-.09-.06A2.11,2.11,0,0,1,113.88,47.09Zm0,23.46a2.08,2.08,0,0,1,1.78-1,2.15,2.15,0,0,1,1.13.32,2.11,2.11,0,0,1,.93,1.33,2.07,2.07,0,0,1-.27,1.59,2.15,2.15,0,0,1-2.92.65l-.09-.06A2.11,2.11,0,0,1,113.88,70.55Zm0,26.3a2.1,2.1,0,0,1,1.78-1,2.12,2.12,0,0,1,1.79,3.24,2.15,2.15,0,0,1-2.92.65l-.09-.06A2.1,2.1,0,0,1,113.88,96.85Z"/><polygon class="cls-7" points="17.45 105.91 24.89 104.44 24.89 58.53 17.45 57.05 17.45 105.91"/><path class="cls-7" d="M17.45,105.91V57.05l7.44,1.48V55.91l-8.35-1.85a.55.55,0,0,0-.18,0,.47.47,0,0,0-.17,0l-.16.1a.67.67,0,0,0-.14.15,1.57,1.57,0,0,0-.12.19,2.17,2.17,0,0,0-.14.47,2.64,2.64,0,0,0,0,.28V107.7a2.45,2.45,0,0,0,0,.27,1,1,0,0,0,.06.25,1.55,1.55,0,0,0,.08.23l.12.19a.62.62,0,0,0,.14.14l.16.1.17,0h.18l8.35-1.85v-2.63Z"/><polygon class="cls-7" points="27.68 111.37 37.35 109.74 37.35 53.24 27.68 51.6 27.68 111.37"/><path class="cls-7" d="M27.68,111.37V51.6l9.67,1.64V50l-7.26-1.37-3.8-.71a1.23,1.23,0,0,0-.27,0,1.09,1.09,0,0,0-.26.05l-.24.11a1.24,1.24,0,0,0-.22.18,2,2,0,0,0-.17.23,2.24,2.24,0,0,0-.13.27,1.77,1.77,0,0,0-.08.31,1.87,1.87,0,0,0,0,.34v64.18a1.76,1.76,0,0,0,0,.33,1.57,1.57,0,0,0,.08.31,2.39,2.39,0,0,0,.13.28,2,2,0,0,0,.17.23,1.18,1.18,0,0,0,.22.17,1.08,1.08,0,0,0,.24.12l.26,0a1.23,1.23,0,0,0,.27,0l3.8-.72L37.35,113v-3.22Z"/><rect class="cls-7" x="41.4" y="46.47" width="23.96" height="70.03"/><path class="cls-7" d="M37.35,44.45v74.07a2,2,0,0,0,2,2h26v-4H41.4v-70H65.35v-4h-26A2,2,0,0,0,37.35,44.45Z"/><polygon class="cls-3" points="17.45 102.91 24.89 101.44 24.89 55.53 17.45 54.05 17.45 102.91"/><path class="cls-6" d="M17.45,102.91V54.05l7.44,1.48V52.91l-8.35-1.85a.55.55,0,0,0-.18,0,.47.47,0,0,0-.17,0l-.16.1a.67.67,0,0,0-.14.15,1.57,1.57,0,0,0-.12.19,2.17,2.17,0,0,0-.14.47,2.64,2.64,0,0,0,0,.28V104.7a2.45,2.45,0,0,0,0,.27,1,1,0,0,0,.06.25,1.55,1.55,0,0,0,.08.23l.12.19a.62.62,0,0,0,.14.14l.16.1.17,0h.18l8.35-1.85v-2.63Z"/><polygon class="cls-3" points="27.68 108.37 37.35 106.74 37.35 50.24 27.68 48.6 27.68 108.37"/><path class="cls-6" d="M27.68,108.37V48.6l9.67,1.64V47l-7.26-1.37-3.8-.71a1.23,1.23,0,0,0-.27,0,1.09,1.09,0,0,0-.26.05l-.24.11a1.24,1.24,0,0,0-.22.18,2,2,0,0,0-.17.23,2.24,2.24,0,0,0-.13.27,1.77,1.77,0,0,0-.08.31,1.87,1.87,0,0,0,0,.34v64.18a1.76,1.76,0,0,0,0,.33,1.57,1.57,0,0,0,.08.31,2.39,2.39,0,0,0,.13.28,2,2,0,0,0,.17.23,1.18,1.18,0,0,0,.22.17,1.08,1.08,0,0,0,.24.12l.26,0a1.23,1.23,0,0,0,.27,0l3.8-.72L37.35,110v-3.22Z"/><rect class="cls-8" x="41.4" y="43.47" width="23.96" height="70.03"/><path class="cls-6" d="M37.35,41.45v74.07a2,2,0,0,0,2,2h26v-4H41.4v-70H65.35v-4h-26A2,2,0,0,0,37.35,41.45Z"/><path class="cls-3" d="M203.13,84.12a18.94,18.94,0,0,1-7.06,14.2q-6.48,5.25-17.08,5.25-11.4,0-17.93-7t-6.73-19.19v-3.1q0-12.22,6.64-19.54t17.92-7.31q10.61,0,17,5.29t7.31,14.63H189.63q-.47-9-10.74-9-10.68,0-11,14.93v3.46q0,8.39,2.6,12.13T179,92.65q5.1,0,7.71-2.05t2.84-6.48Z"/><path class="cls-3" d="M208.32,79.06A27.66,27.66,0,0,1,211,66.69a19.5,19.5,0,0,1,7.7-8.41,22.4,22.4,0,0,1,11.66-3q9.45,0,15.42,5.78t6.66,15.7l.09,3.19q0,10.74-6,17.23t-16.09,6.49q-10.09,0-16.11-6.47t-6-17.6Zm12.46.89q0,6.64,2.5,10.17a9,9,0,0,0,14.23,0q2.55-3.48,2.55-11.12,0-6.53-2.55-10.11a8.26,8.26,0,0,0-7.16-3.58,8.15,8.15,0,0,0-7.07,3.56Q220.78,72.48,220.78,80Z"/><path class="cls-3" d="M277,87.6l8.67-31.44h13L283,102.82h-11.9L255.32,56.16h13Z"/><path class="cls-3" d="M325.1,103.69q-10.28,0-16.71-6.3t-6.45-16.78v-1.2a28,28,0,0,1,2.72-12.57,19.9,19.9,0,0,1,7.69-8.54,21.6,21.6,0,0,1,11.37-3q9.57,0,15.07,6t5.5,17.12v5.09H314.57a11.62,11.62,0,0,0,3.65,7.33,11,11,0,0,0,7.7,2.76,13.44,13.44,0,0,0,11.25-5.22l6.12,6.86a18.68,18.68,0,0,1-7.59,6.18A24.73,24.73,0,0,1,325.1,103.69Zm-1.43-38.34a7.8,7.8,0,0,0-6,2.51,13,13,0,0,0-3,7.19H332v-1a9.33,9.33,0,0,0-2.24-6.43A8.07,8.07,0,0,0,323.67,65.35Z"/><path class="cls-3" d="M377.58,67.85a34,34,0,0,0-4.49-.35q-7.06,0-9.27,4.79v30.53H351.36V56.16h11.77l.35,5.57q3.75-6.43,10.39-6.43a13.19,13.19,0,0,1,3.88.56Z"/><path class="cls-3" d="M439.31,92.42H418.17l-3.84,10.4h-13.6l21.61-54.6h12.75l21.8,54.6H443.2Zm-17.49-9.94h13.74L428.67,64Z"/><path class="cls-3" d="M487.84,67.85a33.84,33.84,0,0,0-4.48-.35q-7.08,0-9.27,4.79v30.53H461.63V56.16H473.4l.34,5.57q3.75-6.43,10.4-6.43a13.19,13.19,0,0,1,3.88.56Z"/><path class="cls-3" d="M510.92,44.69V56.16h8v9.15h-8V88.59a5.57,5.57,0,0,0,1,3.71c.66.75,1.92,1.12,3.79,1.12a20.09,20.09,0,0,0,3.67-.3v9.44a25.62,25.62,0,0,1-7.55,1.13q-13.11,0-13.37-13.24V65.31h-6.81V56.16h6.81V44.69Z"/><path class="cls-2" d="M581.57,92.42H560.43l-3.84,10.4H543l21.6-54.6h12.75l21.8,54.6H585.46Zm-17.48-9.94h13.73L570.93,64Z"/><path class="cls-2" d="M630.11,67.85a34,34,0,0,0-4.49-.35q-7.07,0-9.27,4.79v30.53H603.89V56.16h11.77l.35,5.57q3.75-6.43,10.39-6.43a13.19,13.19,0,0,1,3.88.56Z"/><path class="cls-2" d="M654.69,93.64a8.12,8.12,0,0,0,5.6-1.9,6.65,6.65,0,0,0,2.25-5h11.68a15.93,15.93,0,0,1-2.58,8.68,17.1,17.1,0,0,1-7,6.13,21.78,21.78,0,0,1-9.76,2.18q-10,0-15.79-6.36t-5.78-17.58v-.82q0-10.77,5.74-17.2t15.74-6.43q8.74,0,14,5t5.36,13.26H662.54a8.59,8.59,0,0,0-2.25-5.92,8.34,8.34,0,0,0-12.26.9q-2.22,3.18-2.22,10.3v1.3q0,7.22,2.19,10.37A7.62,7.62,0,0,0,654.69,93.64Z"/><path class="cls-2" d="M693.5,61.25a15.58,15.58,0,0,1,12.46-6q15.18,0,15.4,17.64v29.88H708.9V73.22c0-2.68-.58-4.67-1.73-6s-3.06-1.92-5.74-1.92q-5.48,0-7.93,4.23v33.24H681V36.59H693.5Z"/><path class="cls-2" d="M730.67,44.09a6.16,6.16,0,0,1,1.88-4.62,8.09,8.09,0,0,1,10.2,0,6.62,6.62,0,0,1,0,9.28,8,8,0,0,1-10.14,0A6.12,6.12,0,0,1,730.67,44.09Zm13.24,58.73h-12.5V56.16h12.5Z"/><path class="cls-2" d="M771.64,87.6l8.67-31.44h13l-15.74,46.66h-11.9L750,56.16h13Z"/><path class="cls-2" d="M819.72,103.69q-10.26,0-16.71-6.3t-6.45-16.78v-1.2a28.18,28.18,0,0,1,2.72-12.57A19.92,19.92,0,0,1,807,58.3a21.59,21.59,0,0,1,11.36-3q9.57,0,15.07,6t5.5,17.12v5.09H809.2a11.61,11.61,0,0,0,3.64,7.33,11,11,0,0,0,7.7,2.76,13.47,13.47,0,0,0,11.26-5.22l6.12,6.86a18.74,18.74,0,0,1-7.59,6.18A24.77,24.77,0,0,1,819.72,103.69ZM818.3,65.35a7.82,7.82,0,0,0-6,2.51,13.07,13.07,0,0,0-2.95,7.19h17.34v-1a9.29,9.29,0,0,0-2.25-6.43A8.06,8.06,0,0,0,818.3,65.35Z"/></g></g></svg>