<svg id="Layer_1" data-name="Layer 1" xmlns="http://www.w3.org/2000/svg" viewBox="0 0 215 195"><defs><style>.cls-1{fill:#eb743b;}.cls-2{fill:#20656c;}.cls-3{fill:#fffedb;}.cls-4{fill:#579ca0;}</style></defs><polygon class="cls-1" points="109.5 3 109.5 99 150.5 75 150.5 27 109.5 3"/><polygon class="cls-2" points="106.5 3 65.5 27 65.5 75 106.5 99 106.5 3"/><path class="cls-3" d="M141.78,59.09a6.75,6.75,0,0,0-7.67-2.86,18.09,18.09,0,0,0-8.61-5.63,28.62,28.62,0,0,0,5.91-6.16,6.91,6.91,0,0,0,5.17-.83,6.77,6.77,0,1,0-9.34-2.11,6.27,6.27,0,0,0,.42.59,23.88,23.88,0,0,1-9.52,7.79h0A18.45,18.45,0,0,1,109.5,52v5c4,0,5.93-1.12,10-2.9a14.78,14.78,0,0,1,11,4.75,6.76,6.76,0,1,0,12.16,5.32A6.64,6.64,0,0,0,141.78,59.09ZM131.56,35.67a2.57,2.57,0,0,1,1.4-.41,2.62,2.62,0,1,1,0,5.24,2.61,2.61,0,0,1-2.22-1.21A2.63,2.63,0,0,1,131.56,35.67Zm7.06,27.6a2.61,2.61,0,0,1-1.16,1.64,2.56,2.56,0,0,1-1.39.41,2.62,2.62,0,0,1-1.52-4.75l.12-.07a2.65,2.65,0,0,1,3.6.8A2.59,2.59,0,0,1,138.62,63.27Z"/><path class="cls-3" d="M74.56,69.73V37.15l5,1V36.39L74,35.16h-.12a.27.27,0,0,0-.12,0l-.1.07a.28.28,0,0,0-.1.09.54.54,0,0,0-.07.13.34.34,0,0,0-.06.15.85.85,0,0,0,0,.17,1.09,1.09,0,0,0,0,.18v35a1.09,1.09,0,0,0,0,.18,1,1,0,0,0,0,.17.66.66,0,0,0,.23.37.41.41,0,0,0,.22.09H74l5.56-1.23V68.74Z"/><path class="cls-3" d="M81.38,73.37V33.52l6.45,1.09V32.46L83,31.55l-2.53-.48a.55.55,0,0,0-.18,0,.57.57,0,0,0-.18,0l-.16.08-.14.11-.12.16a1,1,0,0,0-.08.18.73.73,0,0,0-.06.21,1.5,1.5,0,0,0,0,.22V74.84a1.64,1.64,0,0,0,0,.22.83.83,0,0,0,.06.21,1.42,1.42,0,0,0,.08.18,1,1,0,0,0,.12.15.53.53,0,0,0,.14.12l.16.08a1.13,1.13,0,0,0,.18,0h.18L83,75.34l4.84-.91V72.28Z"/><rect class="cls-4" x="90.53" y="30.1" width="15.97" height="46.68"/><path class="cls-3" d="M87.83,28.75V78.13a1.35,1.35,0,0,0,1.35,1.35H106.5v-2.7h-16V30.1h16V27.4H89.18A1.36,1.36,0,0,0,87.83,28.75Z"/><path class="cls-2" d="M29.85,129.91A12.72,12.72,0,0,1,26,139.12a13.49,13.49,0,0,1-9.56,3.36,12.27,12.27,0,0,1-10.1-4.56q-3.67-4.56-3.68-12.86v-1.48q0-8,3.73-12.68a12.07,12.07,0,0,1,10-4.68q5.94,0,9.49,3.39t4.09,9.48H21.3c0-3.83-1.65-5.75-5-5.75a4,4,0,0,0-3.83,2.43q-1.23,2.42-1.26,7.52v1.91q0,5.61,1.2,7.92a4.14,4.14,0,0,0,4,2.31,4.65,4.65,0,0,0,3.64-1.32,6.28,6.28,0,0,0,1.21-4.2Z"/><path class="cls-2" d="M33.34,125.94q0-6.85,3.24-10.75a10.94,10.94,0,0,1,8.94-3.91,11,11,0,0,1,9,3.91q3.22,3.9,3.23,10.81v1.92q0,6.88-3.21,10.76t-9,3.88a11.07,11.07,0,0,1-9-3.89q-3.21-3.88-3.22-10.8Zm7.92,2q0,8.08,4.32,8.09,4,0,4.29-6.75l0-3.32a12.68,12.68,0,0,0-1.14-6.11,3.56,3.56,0,0,0-3.24-2,3.47,3.47,0,0,0-3.13,2,12.82,12.82,0,0,0-1.13,6.11Z"/><path class="cls-2" d="M72.14,130.85l3.82-19h8.22L75.91,142H68.38l-8.31-30.16h8.25Z"/><path class="cls-2" d="M99.71,142.56q-6.08,0-9.48-3.63t-3.4-10.37v-2.39q0-7.14,3.13-11t8.94-3.88q5.68,0,8.56,3.63t2.93,10.76v3.87H94.69a8.27,8.27,0,0,0,1.48,4.91,5,5,0,0,0,4,1.56,8.86,8.86,0,0,0,6.61-2.71l3.09,4.77a10.16,10.16,0,0,1-4.21,3.25A14.53,14.53,0,0,1,99.71,142.56Zm-5-18.51h7.89v-.73a8.53,8.53,0,0,0-.89-4.09,3.11,3.11,0,0,0-2.9-1.4,3.29,3.29,0,0,0-3,1.48A10.19,10.19,0,0,0,94.75,124.05Z"/><path class="cls-2" d="M129.73,119.45l-2.62-.22a4.29,4.29,0,0,0-4.37,2.84V142h-7.92V111.84h7.44l.22,3.26c1.25-2.54,3-3.82,5.16-3.82a5.33,5.33,0,0,1,2.17.37Z"/><path class="cls-2" d="M165.39,135.3H155l-1.9,6.7h-8.58l11.67-35.3h8L176,142h-8.6Zm-8.55-6.45h6.64l-3.36-11.39Z"/><path class="cls-2" d="M194.17,119.45l-2.62-.22a4.29,4.29,0,0,0-4.37,2.84V142h-7.92V111.84h7.44l.22,3.26c1.25-2.54,3-3.82,5.16-3.82a5.33,5.33,0,0,1,2.17.37Z"/><path class="cls-2" d="M208.78,104.43v7.41h4v5.91h-4v15a4.4,4.4,0,0,0,.49,2.46,2.21,2.21,0,0,0,1.88.67,7.28,7.28,0,0,0,1.86-.2l0,6.13a12.13,12.13,0,0,1-4.35.76q-7.63,0-7.72-8.77v-16h-3.48v-5.91h3.48v-7.41Z"/><path class="cls-1" d="M42.79,184.3H32.36L30.45,191H21.88l11.66-35.3h8L53.36,191H44.75Zm-8.55-6.45h6.64l-3.37-11.39Z"/><path class="cls-1" d="M71.57,168.45,69,168.23a4.3,4.3,0,0,0-4.38,2.84V191H56.66V160.84H64.1l.22,3.26c1.25-2.54,3-3.82,5.16-3.82a5.33,5.33,0,0,1,2.17.37Z"/><path class="cls-1" d="M86,185q3.43,0,3.48-4.46h7.42a11.09,11.09,0,0,1-3,8,10.33,10.33,0,0,1-7.69,3q-5.84,0-8.9-3.63t-3.12-10.67v-2.4q0-7.11,3-10.84t8.93-3.74A10.22,10.22,0,0,1,94,163.36c1.92,2.06,2.89,5,2.93,8.74H89.46a7.8,7.8,0,0,0-.83-3.9A2.87,2.87,0,0,0,86,166.83a3.18,3.18,0,0,0-3,1.47c-.6,1-.91,2.86-1,5.67V177a24.83,24.83,0,0,0,.36,5.15,3.83,3.83,0,0,0,1.2,2.14A3.64,3.64,0,0,0,86,185Z"/><path class="cls-1" d="M109,163.49a7.79,7.79,0,0,1,6.3-3.21,7.32,7.32,0,0,1,6.27,2.9q2.15,2.9,2.18,8.64V191h-7.92V171.91a6.89,6.89,0,0,0-.82-3.84,3,3,0,0,0-2.66-1.18,3.73,3.73,0,0,0-3.35,2V191h-7.89V148.19H109Z"/><path class="cls-1" d="M129.43,153a4.08,4.08,0,0,1,1.18-3,4.71,4.71,0,0,1,6.24,0,4.07,4.07,0,0,1,1.17,3,4.18,4.18,0,0,1-1.16,3,4.72,4.72,0,0,1-6.27,0A4.18,4.18,0,0,1,129.43,153Zm8.28,38H129.8V160.84h7.91Z"/><path class="cls-1" d="M153.71,179.85l3.82-19h8.22L157.48,191H150l-8.31-30.16h8.25Z"/><path class="cls-1" d="M181.28,191.56q-6.08,0-9.48-3.63t-3.4-10.37v-2.39q0-7.14,3.12-11t8.95-3.88q5.68,0,8.56,3.63T192,174.67v3.87h-15.7a8.27,8.27,0,0,0,1.48,4.91,5,5,0,0,0,4,1.56,8.86,8.86,0,0,0,6.61-2.71l3.09,4.77a10.16,10.16,0,0,1-4.21,3.25A14.53,14.53,0,0,1,181.28,191.56Zm-5-18.51h7.89v-.73a8.53,8.53,0,0,0-.89-4.09,3.11,3.11,0,0,0-2.9-1.4,3.29,3.29,0,0,0-3,1.48A10.19,10.19,0,0,0,176.32,173.05Z"/></svg>