<svg id="Layer_1" data-name="Layer 1" xmlns="http://www.w3.org/2000/svg" viewBox="0 0 286.83 30"><defs><style>.cls-1{fill:#20656c;}.cls-2{fill:#eb743b;}</style></defs><polygon class="cls-1" points="14 1 2 8 2 22 14 29 14 1"/><polygon class="cls-2" points="15 1 27 8 27 22 15 29 15 1"/><path class="cls-1" d="M52.74,18.23a6.82,6.82,0,0,1-2.55,5.14A9.5,9.5,0,0,1,44,25.27a8.47,8.47,0,0,1-6.49-2.52,9.93,9.93,0,0,1-2.43-6.94V14.69a10.14,10.14,0,0,1,2.4-7.08A8.33,8.33,0,0,1,44,5a9.31,9.31,0,0,1,6.15,1.92,7.55,7.55,0,0,1,2.64,5.29h-4.9Q47.7,8.91,44,8.92t-4,5.4v1.26A7.82,7.82,0,0,0,40.93,20,3.47,3.47,0,0,0,44,21.32a4.49,4.49,0,0,0,2.79-.74,3,3,0,0,0,1-2.35Z"/><path class="cls-1" d="M54.62,16.4a10.1,10.1,0,0,1,1-4.48,7.08,7.08,0,0,1,2.79-3A8.1,8.1,0,0,1,62.6,7.8a7.7,7.7,0,0,1,5.58,2.09,8.43,8.43,0,0,1,2.41,5.68l0,1.16A8.79,8.79,0,0,1,68.45,23a7.51,7.51,0,0,1-5.82,2.35A7.57,7.57,0,0,1,56.8,23a9,9,0,0,1-2.18-6.37Zm4.51.32A6.32,6.32,0,0,0,60,20.4a3.25,3.25,0,0,0,5.15,0,7,7,0,0,0,.92-4,6.31,6.31,0,0,0-.92-3.66,3,3,0,0,0-2.59-1.29A2.94,2.94,0,0,0,60,12.73,7,7,0,0,0,59.13,16.72Z"/><path class="cls-1" d="M79.49,19.49,82.62,8.11h4.72L81.64,25H77.33L71.64,8.11h4.71Z"/><path class="cls-1" d="M96.89,25.31a8.29,8.29,0,0,1-6-2.28A8.08,8.08,0,0,1,88.51,17v-.43a10.11,10.11,0,0,1,1-4.55,7.17,7.17,0,0,1,2.79-3.09A7.75,7.75,0,0,1,96.39,7.8,7,7,0,0,1,101.84,10a8.84,8.84,0,0,1,2,6.19V18H93.08a4.24,4.24,0,0,0,1.32,2.66,4,4,0,0,0,2.79,1,4.87,4.87,0,0,0,4.07-1.89l2.21,2.48a6.75,6.75,0,0,1-2.74,2.24A9.13,9.13,0,0,1,96.89,25.31Zm-.52-13.87a2.79,2.79,0,0,0-2.17.91A4.61,4.61,0,0,0,93.13,15H99.4v-.36a3.35,3.35,0,0,0-.81-2.33A2.91,2.91,0,0,0,96.37,11.44Z"/><path class="cls-1" d="M115.88,12.34a12.62,12.62,0,0,0-1.62-.12c-1.71,0-2.83.57-3.36,1.73V25h-4.51V8.11h4.26l.13,2a4.18,4.18,0,0,1,3.76-2.33,4.83,4.83,0,0,1,1.4.2Z"/><path class="cls-1" d="M139.14,20.32h-8.21L129.37,25h-5l8.46-22.72h4.34L145.69,25h-5Zm-6.95-3.79h5.68L135,8Z"/><path class="cls-1" d="M157,12.34a12.89,12.89,0,0,0-1.63-.12c-1.7,0-2.82.57-3.35,1.73V25h-4.51V8.11h4.26l.12,2a4.19,4.19,0,0,1,3.76-2.33,5,5,0,0,1,1.41.2Z"/><path class="cls-1" d="M165.36,4V8.11h2.88v3.31h-2.88v8.43a2,2,0,0,0,.36,1.34,1.78,1.78,0,0,0,1.37.41,7.52,7.52,0,0,0,1.33-.11v3.42a9.37,9.37,0,0,1-2.74.4q-4.74,0-4.83-4.79v-9.1h-2.47V8.11h2.47V4Z"/><path class="cls-2" d="M190.93,21.23h-7.65L181.89,25H177l7.82-19.76h4.61L197.29,25h-4.95Zm-6.33-3.59h5L187.08,11Z"/><path class="cls-2" d="M208.49,12.34a12.62,12.62,0,0,0-1.62-.12c-1.71,0-2.82.57-3.35,1.73V25H199V8.11h4.26l.12,2a4.19,4.19,0,0,1,3.76-2.33,5,5,0,0,1,1.41.2Z"/><path class="cls-2" d="M217.39,21.68a3,3,0,0,0,2-.69,2.41,2.41,0,0,0,.81-1.83h4.23a5.81,5.81,0,0,1-.93,3.15A6.18,6.18,0,0,1,221,24.52a7.79,7.79,0,0,1-3.53.79,7.34,7.34,0,0,1-5.71-2.3,9.07,9.07,0,0,1-2.09-6.36v-.3a9,9,0,0,1,2.07-6.22,7.24,7.24,0,0,1,5.7-2.33,7.12,7.12,0,0,1,5.08,1.8,6.42,6.42,0,0,1,1.94,4.8h-4.23a3.09,3.09,0,0,0-.81-2.14,3,3,0,0,0-4.44.33,6.58,6.58,0,0,0-.8,3.72v.47a6.75,6.75,0,0,0,.79,3.75A2.74,2.74,0,0,0,217.39,21.68Z"/><path class="cls-2" d="M231.44,10A5.61,5.61,0,0,1,236,7.8q5.49,0,5.57,6.38V25H237V14.28a3.14,3.14,0,0,0-.63-2.15,2.66,2.66,0,0,0-2.07-.69A3.07,3.07,0,0,0,231.44,13V25h-4.51V1h4.51Z"/><path class="cls-2" d="M244.89,3.74a2.25,2.25,0,0,1,.68-1.67,2.94,2.94,0,0,1,3.69,0A2.22,2.22,0,0,1,250,3.74a2.2,2.2,0,0,1-.7,1.69,2.9,2.9,0,0,1-3.66,0A2.2,2.2,0,0,1,244.89,3.74ZM249.68,25h-4.52V8.11h4.52Z"/><path class="cls-2" d="M259.72,19.49l3.14-11.38h4.71L261.87,25h-4.31L251.87,8.11h4.71Z"/><path class="cls-2" d="M277.12,25.31A8.29,8.29,0,0,1,271.07,23,8.11,8.11,0,0,1,268.74,17v-.43a10.24,10.24,0,0,1,1-4.55,7.23,7.23,0,0,1,2.79-3.09,7.75,7.75,0,0,1,4.11-1.09A7,7,0,0,1,282.07,10a8.84,8.84,0,0,1,2,6.19V18H273.31a4.24,4.24,0,0,0,1.32,2.66,4,4,0,0,0,2.79,1,4.87,4.87,0,0,0,4.07-1.89l2.22,2.48A6.85,6.85,0,0,1,281,24.51,9.13,9.13,0,0,1,277.12,25.31Zm-.51-13.87a2.79,2.79,0,0,0-2.18.91,4.61,4.61,0,0,0-1.07,2.6h6.27v-.36a3.35,3.35,0,0,0-.81-2.33A2.9,2.9,0,0,0,276.61,11.44Z"/></svg>