<svg xmlns="http://www.w3.org/2000/svg" viewBox="0 0 410.62 96"><defs><style>.a{fill:#eb743b;}.b{fill:#5aa854;}.c{fill:#fffedb;}</style></defs><title>MetaBrainz_logo_small</title><polygon class="a" points="44 0 44 96 85 72 85 24 44 0"/><polygon class="b" points="41 0 0 24 0 72 41 96 41 0"/><path class="c" d="M79.28,58.09a6.74,6.74,0,0,0-7.67-2.85A18.09,18.09,0,0,0,63,49.6a28.75,28.75,0,0,0,5.91-6.15,6.92,6.92,0,0,0,5.16-.83,6.77,6.77,0,1,0-9.34-2.11,6.69,6.69,0,0,0,.42.6,23.88,23.88,0,0,1-9.52,7.79h0A18.53,18.53,0,0,1,47,51v5c4,0,5.93-1.12,10-2.9a14.75,14.75,0,0,1,11,4.75,6.77,6.77,0,1,0,12.16,5.33A6.68,6.68,0,0,0,79.28,58.09ZM69.06,34.67a2.62,2.62,0,1,1,1.41,4.83,2.64,2.64,0,0,1-1.39-.39,2.59,2.59,0,0,1-.83-0.82A2.63,2.63,0,0,1,69.06,34.67Zm7.06,27.6A2.61,2.61,0,1,1,72,59.57l0.12-.08a2.66,2.66,0,0,1,3.61.81A2.58,2.58,0,0,1,76.12,62.27Z" transform="translate(-3 -2)"/><path class="c" d="M14.62,37.93a6.74,6.74,0,0,0,6.26,5.28C22.3,47,24.94,50.42,27.41,52a18.85,18.85,0,0,0-6.18,3.46A6.92,6.92,0,0,0,16,54.9a6.77,6.77,0,1,0,8.47,4.46,6.68,6.68,0,0,0-.25-0.68c3.32-2.67,5.41-3.11,9.54-3.8h0A20.34,20.34,0,0,1,44,56V51c-3.56-1-6.74-1-11.14-.34-1.33-.33-5.45-3-7.7-8.69a6.77,6.77,0,1,0-9.65-9.12A6.68,6.68,0,0,0,14.62,37.93Zm4.19,25.94a2.62,2.62,0,1,1-.11-5,2.64,2.64,0,0,1,1.24.74,2.59,2.59,0,0,1,.59,1A2.63,2.63,0,0,1,18.81,63.87ZM19,35.06A2.61,2.61,0,1,1,21.93,39L21.8,39a2.66,2.66,0,0,1-3.12-2A2.58,2.58,0,0,1,19,35.06Z" transform="translate(-3 -2)"/><path class="b" d="M116.18,28l9.68,30.17L135.51,28h13.76V71.36H138.79V61.24l1-20.73L129.32,71.36h-6.91L111.89,40.48l1,20.76V71.36H102.45V28h13.73Z" transform="translate(-3 -2)"/><path class="b" d="M171,72a18.64,18.64,0,0,1-7-1.25,15.19,15.19,0,0,1-5.21-3.4,14.69,14.69,0,0,1-3.23-5,16.24,16.24,0,0,1-1.12-6V55.19a21.61,21.61,0,0,1,1-6.57,14.64,14.64,0,0,1,2.92-5.29,13.65,13.65,0,0,1,4.85-3.52A16.68,16.68,0,0,1,170,38.54a16.27,16.27,0,0,1,6.15,1.1,12.6,12.6,0,0,1,4.62,3.16,13.86,13.86,0,0,1,2.89,5,20.18,20.18,0,0,1,1,6.55v4.08h-20A7.23,7.23,0,0,0,167,62.67a7,7,0,0,0,4.71,1.55,11,11,0,0,0,4-.77,8.12,8.12,0,0,0,3.41-2.56l4.59,5.42a11.64,11.64,0,0,1-2,2.08,13.79,13.79,0,0,1-2.81,1.8,17.88,17.88,0,0,1-3.6,1.28A18.06,18.06,0,0,1,171,72Zm-1.13-25.67a5,5,0,0,0-2.2.45A4.33,4.33,0,0,0,166.18,48a6,6,0,0,0-1,1.85,13.28,13.28,0,0,0-.54,2.32H174.8V51.35a5,5,0,0,0-1.22-3.74A4.86,4.86,0,0,0,169.91,46.29Z" transform="translate(-3 -2)"/><path class="b" d="M200.36,31.12v8h5.3v7h-5.3V60.85a6.36,6.36,0,0,0,.16,1.58,2.15,2.15,0,0,0,.54,1,2,2,0,0,0,1,.52,6.86,6.86,0,0,0,1.55.15q0.86,0,1.43,0t1.07-.13V71.1a18.85,18.85,0,0,1-2.68.64,18.49,18.49,0,0,1-3,.22,15.4,15.4,0,0,1-4.3-.55A7.88,7.88,0,0,1,193,69.67a7.53,7.53,0,0,1-2-3.07,13.43,13.43,0,0,1-.67-4.5v-16h-4.11v-7h4.11v-8h10Z" transform="translate(-3 -2)"/><path class="b" d="M227.76,71.36a6.94,6.94,0,0,1-.55-1.33q-0.22-.73-0.4-1.56A9.24,9.24,0,0,1,219.06,72a12.32,12.32,0,0,1-4.21-.71,11.15,11.15,0,0,1-3.47-2A9.4,9.4,0,0,1,209,66.21a8.79,8.79,0,0,1-.88-3.93,10.53,10.53,0,0,1,.91-4.47,8.46,8.46,0,0,1,2.77-3.32,13.72,13.72,0,0,1,4.71-2.08,27.41,27.41,0,0,1,6.75-.73h3.1V50a5.3,5.3,0,0,0-.89-3.25,3.45,3.45,0,0,0-2.95-1.19,3.74,3.74,0,0,0-2.65.86,3.47,3.47,0,0,0-.92,2.65h-10a9,9,0,0,1,1-4.17,9.78,9.78,0,0,1,2.84-3.34,14.27,14.27,0,0,1,4.45-2.21,19.73,19.73,0,0,1,5.82-.8,19.07,19.07,0,0,1,5.35.71,12,12,0,0,1,4.25,2.16,10.05,10.05,0,0,1,2.8,3.6,11.69,11.69,0,0,1,1,5v13.2q0,1.58.09,2.74a16.84,16.84,0,0,0,.27,2,10.64,10.64,0,0,0,.43,1.56,9.44,9.44,0,0,0,.58,1.28v0.51h-10Zm-6.29-6.55a5.59,5.59,0,0,0,3.11-.8,5,5,0,0,0,1.77-1.82V57H223.2a6.4,6.4,0,0,0-2.37.39,4,4,0,0,0-1.55,1,3.91,3.91,0,0,0-.83,1.5,6.16,6.16,0,0,0-.25,1.77,2.88,2.88,0,0,0,.92,2.22A3.34,3.34,0,0,0,221.47,64.81Z" transform="translate(-3 -2)"/><path class="a" d="M242.44,71.36V28H258a32.21,32.21,0,0,1,7.19.73,15.89,15.89,0,0,1,5.38,2.22A10,10,0,0,1,274,34.68,11.38,11.38,0,0,1,275.12,40a12.42,12.42,0,0,1-.33,2.87,9.18,9.18,0,0,1-1.06,2.61,8.54,8.54,0,0,1-1.89,2.19A9.65,9.65,0,0,1,269,49.23a9.94,9.94,0,0,1,3.28,1.46,8.48,8.48,0,0,1,2.17,2.2,8.78,8.78,0,0,1,1.21,2.7,11.72,11.72,0,0,1,.37,2.93q0,6.43-4.11,9.64t-12.18,3.2H242.44ZM252.9,46.08h5.45q3.42,0,4.88-1.25a4.43,4.43,0,0,0,1.46-3.6,4.65,4.65,0,0,0-1.58-3.95q-1.58-1.21-5.09-1.21H252.9v10Zm0,6.85v10.4h6.85a8.26,8.26,0,0,0,2.7-.39,4.91,4.91,0,0,0,1.82-1.06,4.09,4.09,0,0,0,1-1.56,5.57,5.57,0,0,0,.33-1.94,8,8,0,0,0-.3-2.26,4.2,4.2,0,0,0-1-1.71,4.36,4.36,0,0,0-1.7-1.09,7.3,7.3,0,0,0-2.53-.39H252.9Z" transform="translate(-3 -2)"/><path class="a" d="M300.82,48.22l-0.73-.08-0.89-.07L298.29,48l-0.77,0a8.91,8.91,0,0,0-3.9.73A4.48,4.48,0,0,0,291.44,51v20.4h-10V39.14h9.41l0.33,4.14a9.82,9.82,0,0,1,3-3.48,6.92,6.92,0,0,1,4.09-1.25,12.31,12.31,0,0,1,1.47.09,8.13,8.13,0,0,1,1.33.27Z" transform="translate(-3 -2)"/><path class="a" d="M321.7,71.36a6.94,6.94,0,0,1-.55-1.33q-0.22-.73-0.4-1.56A9.24,9.24,0,0,1,313,72a12.32,12.32,0,0,1-4.21-.71,11.15,11.15,0,0,1-3.47-2A9.4,9.4,0,0,1,303,66.21a8.79,8.79,0,0,1-.88-3.93,10.53,10.53,0,0,1,.91-4.47,8.46,8.46,0,0,1,2.77-3.32,13.72,13.72,0,0,1,4.71-2.08,27.41,27.41,0,0,1,6.75-.73h3.1V50a5.3,5.3,0,0,0-.89-3.25,3.45,3.45,0,0,0-2.95-1.19,3.74,3.74,0,0,0-2.65.86,3.47,3.47,0,0,0-.92,2.65h-10a9,9,0,0,1,1-4.17,9.78,9.78,0,0,1,2.84-3.34,14.27,14.27,0,0,1,4.45-2.21,19.73,19.73,0,0,1,5.82-.8,19.07,19.07,0,0,1,5.35.71,12,12,0,0,1,4.25,2.16,10.05,10.05,0,0,1,2.8,3.6,11.69,11.69,0,0,1,1,5v13.2q0,1.58.09,2.74a16.84,16.84,0,0,0,.27,2,10.64,10.64,0,0,0,.43,1.56,9.44,9.44,0,0,0,.58,1.28v0.51h-10Zm-6.29-6.55a5.59,5.59,0,0,0,3.11-.8,5,5,0,0,0,1.77-1.82V57h-3.16a6.4,6.4,0,0,0-2.37.39,4,4,0,0,0-1.55,1,3.91,3.91,0,0,0-.83,1.5,6.16,6.16,0,0,0-.25,1.77,2.88,2.88,0,0,0,.92,2.22A3.34,3.34,0,0,0,315.42,64.81Z" transform="translate(-3 -2)"/><path class="a" d="M335.85,30.83a4.73,4.73,0,0,1,.4-2,4.51,4.51,0,0,1,1.15-1.55,5.29,5.29,0,0,1,1.76-1,7.35,7.35,0,0,1,4.53,0,5.3,5.3,0,0,1,1.76,1,4.51,4.51,0,0,1,1.15,1.55,5,5,0,0,1,0,3.93,4.5,4.5,0,0,1-1.15,1.55,5.28,5.28,0,0,1-1.76,1,7.35,7.35,0,0,1-4.53,0,5.28,5.28,0,0,1-1.76-1,4.5,4.5,0,0,1-1.15-1.55A4.72,4.72,0,0,1,335.85,30.83Zm10.66,40.54H336.44V39.14h10.07V71.36Z" transform="translate(-3 -2)"/><path class="a" d="M361.91,39.14l0.33,3.78a10.82,10.82,0,0,1,4-3.26,12,12,0,0,1,5.23-1.12,12.53,12.53,0,0,1,4.1.64,7.61,7.61,0,0,1,3.2,2.11,10,10,0,0,1,2.07,3.87,20.57,20.57,0,0,1,.73,5.91V71.36H371.47V51.05a7.56,7.56,0,0,0-.31-2.38,3.44,3.44,0,0,0-.89-1.46,3.07,3.07,0,0,0-1.43-.73,8.68,8.68,0,0,0-1.92-.19,5.16,5.16,0,0,0-2.67.63,4.91,4.91,0,0,0-1.71,1.7V71.36h-10V39.14h9.41Z" transform="translate(-3 -2)"/><path class="a" d="M398.93,63.62h14.68v7.74H386.25v-5.6l14.3-18.88H386.87V39.14h26.42v5.42Z" transform="translate(-3 -2)"/></svg>