<?xml version="1.0" encoding="UTF-8" standalone="no"?>
<!-- Generator: Adobe Illustrator 16.0.0, SVG Export Plug-In . SVG Version: 6.00 Build 0)  -->

<svg
   xmlns:ns="&amp;ns_sfw;"
   xmlns:dc="http://purl.org/dc/elements/1.1/"
   xmlns:cc="http://creativecommons.org/ns#"
   xmlns:rdf="http://www.w3.org/1999/02/22-rdf-syntax-ns#"
   xmlns:svg="http://www.w3.org/2000/svg"
   xmlns="http://www.w3.org/2000/svg"
   xmlns:sodipodi="http://sodipodi.sourceforge.net/DTD/sodipodi-0.dtd"
   xmlns:inkscape="http://www.inkscape.org/namespaces/inkscape"
   version="1.1"
   id="Layer_1"
   x="0px"
   y="0px"
   width="191px"
   height="30px"
   viewBox="0 0 191 30"
   enable-background="new 0 0 191 30"
   xml:space="preserve"
   inkscape:version="0.91 r13725"
   sodipodi:docname="OfficeBrainz_logo_mini.svg"><defs
     id="defs7625" /><sodipodi:namedview
     pagecolor="#ffffff"
     bordercolor="#666666"
     borderopacity="1"
     objecttolerance="10"
     gridtolerance="10"
     guidetolerance="10"
     inkscape:pageopacity="0"
     inkscape:pageshadow="2"
     inkscape:window-width="1857"
     inkscape:window-height="954"
     id="namedview7623"
     showgrid="true"
     inkscape:zoom="5.7382199"
     inkscape:cx="101.52018"
     inkscape:cy="6.4158432"
     inkscape:window-x="0"
     inkscape:window-y="0"
     inkscape:window-maximized="0"
     inkscape:current-layer="Layer_1"><inkscape:grid
       type="xygrid"
       id="grid8203" /></sodipodi:namedview><metadata
     id="metadata7589"><ns:sfw><ns:slices /><ns:sliceSourceBounds
         height="28"
         width="174.071"
         y="-914"
         x="3147"
         bottomLeftOrigin="true" /></ns:sfw><rdf:RDF><cc:Work
         rdf:about=""><dc:format>image/svg+xml</dc:format><dc:type
           rdf:resource="http://purl.org/dc/dcmitype/StillImage" /><dc:title></dc:title></cc:Work></rdf:RDF></metadata><g
     id="g7591" /><g
     id="g8248"><g
       id="g8244"><polygon
         points="14,1 2,8 2,22 14,29 "
         id="polygon7597"
         style="fill:#ffde00;fill-opacity:1" /><polygon
         points="15,1 27,8 27,22 15,29 "
         id="polygon7599"
         style="fill:#eb743b" /></g><g
       id="g8229"><g
         transform="scale(1.0055641,0.99446669)"
         style="font-style:normal;font-weight:normal;font-size:26.79544449px;line-height:125%;font-family:sans-serif;letter-spacing:0px;word-spacing:0px;fill:#000000;fill-opacity:1;stroke:none;stroke-width:1px;stroke-linecap:butt;stroke-linejoin:miter;stroke-opacity:1"
         id="text8195"><path
           d="m 50.129082,15.597194 q 0,2.812998 -0.994362,4.93256 -0.994362,2.119561 -2.852249,3.270928 -1.844804,1.151367 -4.239123,1.151367 -2.368152,0 -4.22604,-1.138283 -1.857887,-1.138283 -2.878416,-3.244761 -1.02053,-2.119562 -1.033614,-4.867142 l 0,-0.942027 q 0,-2.812998 1.007446,-4.9456435 1.02053,-2.1457289 2.865333,-3.2840119 1.857888,-1.1513668 4.239123,-1.1513668 2.381236,0 4.22604,1.1513668 1.857887,1.138283 2.865333,3.2840119 1.020529,2.1326455 1.020529,4.9325595 l 0,0.850442 z m -3.977448,-0.863525 q 0,-2.996171 -1.072865,-4.553132 -1.072864,-1.5569623 -3.061589,-1.5569623 -1.97564,0 -3.048505,1.5438783 -1.072864,1.530794 -1.085948,4.500797 l 0,0.928944 q 0,2.917668 1.072864,4.526964 1.072865,1.609297 3.087757,1.609297 1.97564,0 3.035421,-1.543878 1.059781,-1.556962 1.072865,-4.526965 l 0,-0.928943 z"
           style="font-style:normal;font-variant:normal;font-weight:bold;font-stretch:normal;font-family:Roboto;-inkscape-font-specification:'Roboto Bold';fill:#ffde00;fill-opacity:1"
           id="path8206" /><path
           d="m 53.740187,24.690374 0,-11.38283 -2.106477,0 0,-2.773747 2.106477,0 0,-1.2037018 q 0,-2.3812358 1.360707,-3.6896071 1.37379,-1.3214551 3.833528,-1.3214551 0.785022,0 1.923305,0.2616743 L 60.818476,7.511459 Q 60.347463,7.3937056 59.66711,7.3937056 q -2.132646,0 -2.132646,2.0018081 l 0,1.1382833 2.812999,0 0,2.773747 -2.812999,0 0,11.38283 -3.794277,0 z"
           style="font-style:normal;font-variant:normal;font-weight:bold;font-stretch:normal;font-family:Roboto;-inkscape-font-specification:'Roboto Bold';fill:#ffde00;fill-opacity:1"
           id="path8208" /><path
           d="m 63.252048,24.690374 0,-11.38283 -2.106478,0 0,-2.773747 2.106478,0 0,-0.6541859 q 0.02617,-2.6690775 1.635464,-4.1082859 1.622381,-1.4522922 4.566216,-1.4522922 1.766301,0 4.291458,0.7719391 L 73.19567,8.2179795 Q 71.913466,7.8385519 71.206946,7.7338822 70.500425,7.6161287 69.689235,7.6161287 q -2.64291,0 -2.64291,2.3419847 l 0,0.5756836 2.786831,0 0,2.773747 -2.786831,0 0,11.38283 -3.794277,0 z m 12.259439,0 -3.794277,0 0,-14.156577 3.794277,0 0,14.156577 z"
           style="font-style:normal;font-variant:normal;font-weight:bold;font-stretch:normal;font-family:Roboto;-inkscape-font-specification:'Roboto Bold';fill:#ffde00;fill-opacity:1"
           id="path8210" /><path
           d="m 84.552331,21.903543 q 1.046697,0 1.700883,-0.575683 0.654185,-0.575683 0.680353,-1.530794 l 3.545686,0 q -0.01308,1.439208 -0.785023,2.64291 -0.771939,1.190618 -2.119561,1.857887 -1.334539,0.654186 -2.956919,0.654186 -3.035422,0 -4.788639,-1.923306 -1.753218,-1.93639 -1.753218,-5.338155 l 0,-0.248591 q 0,-3.270928 1.740134,-5.220401 1.740134,-1.949473 4.775555,-1.949473 2.655994,0 4.252207,1.51771 1.609297,1.504627 1.635464,4.0167 l -3.545686,0 q -0.02617,-1.099032 -0.680353,-1.779385 -0.654186,-0.693437 -1.72705,-0.693437 -1.321455,0 -2.001808,0.968195 -0.66727,0.955111 -0.66727,3.113924 l 0,0.392511 q 0,2.18498 0.66727,3.140091 0.667269,0.955111 2.027975,0.955111 z"
           style="font-style:normal;font-variant:normal;font-weight:bold;font-stretch:normal;font-family:Roboto;-inkscape-font-specification:'Roboto Bold';fill:#ffde00;fill-opacity:1"
           id="path8212" /><path
           d="m 99.153757,24.952049 q -3.113924,0 -5.076481,-1.910222 -1.949473,-1.910223 -1.949473,-5.089565 l 0,-0.366344 q 0,-2.132645 0.824274,-3.80736 0.824274,-1.687799 2.328901,-2.590576 1.517711,-0.915859 3.4541,-0.915859 2.904582,0 4.566212,1.831719 1.67472,1.83172 1.67472,5.194234 l 0,1.543879 -9.014679,0 q 0.183172,1.386873 1.099032,2.224231 0.928944,0.837357 2.341985,0.837357 2.184982,0 3.414852,-1.583129 l 1.85788,2.080311 q -0.85044,1.203701 -2.30273,1.884054 -1.45229,0.66727 -3.218593,0.66727 z M 98.721995,13.333711 q -1.1252,0 -1.83172,0.758856 -0.693437,0.758855 -0.889693,2.171896 l 5.259648,0 0,-0.300925 q -0.0262,-1.256037 -0.68035,-1.93639 -0.654184,-0.693437 -1.857885,-0.693437 z"
           style="font-style:normal;font-variant:normal;font-weight:bold;font-stretch:normal;font-family:Roboto;-inkscape-font-specification:'Roboto Bold';fill:#ffde00;fill-opacity:1"
           id="path8214" /></g><g
         style="font-style:normal;font-weight:normal;font-size:40px;line-height:125%;font-family:sans-serif;letter-spacing:0px;word-spacing:0px;fill:#eb743b;fill-opacity:1;stroke:none;stroke-width:1px;stroke-linecap:butt;stroke-linejoin:miter;stroke-opacity:1"
         id="text8199"><path
           d="m 107.65659,24.771898 0,-19.0442383 6.67071,0 q 3.46616,0 5.25809,1.3341431 1.79194,1.3210633 1.79194,3.8847112 0,1.399542 -0.71939,2.472088 -0.71939,1.059467 -2.00121,1.5565 1.46494,0.366236 2.30205,1.478022 0.85019,1.111786 0.85019,2.720605 0,2.746765 -1.7527,4.159388 -1.7527,1.412622 -4.9965,1.438781 l -7.40318,0 z m 3.92395,-8.292615 0,5.140375 3.36151,0 q 1.38647,0 2.15818,-0.653991 0.78479,-0.667072 0.78479,-1.831177 0,-2.615967 -2.70753,-2.655207 l -3.59695,0 z m 0,-2.772924 2.90372,0 q 2.96912,-0.05232 2.96912,-2.36745 0,-1.294904 -0.75863,-1.8573369 -0.74555,-0.5755127 -2.36745,-0.5755127 l -2.74676,0 0,4.8002996 z"
           style="font-style:normal;font-variant:normal;font-weight:bold;font-stretch:normal;font-size:26.78750038px;font-family:Roboto;-inkscape-font-specification:'Roboto Bold';fill:#eb743b;fill-opacity:1"
           id="path8217" /><path
           d="m 132.46903,14.164153 q -0.77171,-0.104639 -1.3603,-0.104639 -2.14509,0 -2.81217,1.451862 l 0,9.260522 -3.78007,0 0,-14.15238 3.5708,0 0.10464,1.687298 q 1.13794,-1.948895 3.15224,-1.948895 0.62783,0 1.17718,0.170038 l -0.0523,3.636194 z"
           style="font-style:normal;font-variant:normal;font-weight:bold;font-stretch:normal;font-size:26.78750038px;font-family:Roboto;-inkscape-font-specification:'Roboto Bold';fill:#eb743b;fill-opacity:1"
           id="path8219" /><path
           d="m 142.13503,24.771898 q -0.2616,-0.510113 -0.37932,-1.268744 -1.37338,1.530341 -3.57079,1.530341 -2.07969,0 -3.45308,-1.203345 -1.3603,-1.203345 -1.3603,-3.034521 0,-2.249732 1.66114,-3.453077 1.67422,-1.203344 4.82646,-1.216424 l 1.73962,0 0,-0.81095 q 0,-0.980987 -0.51012,-1.56958 -0.49703,-0.588592 -1.58266,-0.588592 -0.95483,0 -1.50418,0.457794 -0.53627,0.457794 -0.53627,1.255664 l -3.78007,0 q 0,-1.229505 0.75863,-2.275891 0.75863,-1.046387 2.14509,-1.63498 1.38646,-0.601672 3.113,-0.601672 2.61597,0 4.14631,1.321063 1.54342,1.307984 1.54342,3.688514 l 0,6.134442 q 0.0131,2.014294 0.56243,3.047601 l 0,0.222357 -3.81931,0 z m -3.12608,-2.629046 q 0.83711,0 1.54342,-0.366236 0.70631,-0.379315 1.04639,-1.007147 l 0,-2.432849 -1.41263,0 q -2.83832,0 -3.02144,1.961975 l -0.0131,0.222357 q 0,0.706311 0.49704,1.164105 0.49703,0.457795 1.3603,0.457795 z"
           style="font-style:normal;font-variant:normal;font-weight:bold;font-stretch:normal;font-size:26.78750038px;font-family:Roboto;-inkscape-font-specification:'Roboto Bold';fill:#eb743b;fill-opacity:1"
           id="path8221" /><path
           d="m 152.31114,24.771898 -3.79315,0 0,-14.15238 3.79315,0 0,14.15238 z M 148.29563,6.9571641 q 0,-0.8501892 0.56243,-1.3995422 0.57551,-0.5493531 1.5565,-0.5493531 0.96791,0 1.54342,0.5493531 0.57551,0.549353 0.57551,1.3995422 0,0.8632691 -0.58859,1.4126221 -0.57551,0.5493531 -1.53034,0.5493531 -0.95483,0 -1.54342,-0.5493531 -0.57551,-0.549353 -0.57551,-1.4126221 z"
           style="font-style:normal;font-variant:normal;font-weight:bold;font-stretch:normal;font-size:26.78750038px;font-family:Roboto;-inkscape-font-specification:'Roboto Bold';fill:#eb743b;fill-opacity:1"
           id="path8223" /><path
           d="m 158.91646,10.619518 0.11772,1.634979 q 1.51726,-1.896576 4.06782,-1.896576 2.24974,0 3.34844,1.321063 1.09871,1.321064 1.12487,3.95011 l 0,9.142804 -3.78008,0 0,-9.051245 q 0,-1.203345 -0.52319,-1.739618 -0.52319,-0.549353 -1.73962,-0.549353 -1.59574,0 -2.39361,1.360303 l 0,9.979913 -3.78007,0 0,-14.15238 3.55772,0 z"
           style="font-style:normal;font-variant:normal;font-weight:bold;font-stretch:normal;font-size:26.78750038px;font-family:Roboto;-inkscape-font-specification:'Roboto Bold';fill:#eb743b;fill-opacity:1"
           id="path8225" /><path
           d="m 174.74306,21.724297 6.91923,0 0,3.047601 -11.74569,0 0,-2.302051 6.65763,-8.789648 -6.46144,0 0,-3.060681 11.34022,0 0,2.236651 -6.70995,8.868128 z"
           style="font-style:normal;font-variant:normal;font-weight:bold;font-stretch:normal;font-size:26.78750038px;font-family:Roboto;-inkscape-font-specification:'Roboto Bold';fill:#eb743b;fill-opacity:1"
           id="path8227" /></g></g></g></svg>