<?xml version="1.0" encoding="UTF-8" standalone="no"?>
<!-- Generator: Adobe Illustrator 16.0.0, SVG Export Plug-In . SVG Version: 6.00 Build 0)  -->

<svg
   xmlns:dc="http://purl.org/dc/elements/1.1/"
   xmlns:cc="http://creativecommons.org/ns#"
   xmlns:rdf="http://www.w3.org/1999/02/22-rdf-syntax-ns#"
   xmlns:svg="http://www.w3.org/2000/svg"
   xmlns="http://www.w3.org/2000/svg"
   xmlns:sodipodi="http://sodipodi.sourceforge.net/DTD/sodipodi-0.dtd"
   xmlns:inkscape="http://www.inkscape.org/namespaces/inkscape"
   version="1.1"
   id="Layer_1"
   x="0px"
   y="0px"
   width="585px"
   height="150px"
   viewBox="0 0 585 150"
   enable-background="new 0 0 585 150"
   xml:space="preserve"
   inkscape:version="0.91 r13725"
   sodipodi:docname="OfficeBrainz_logo.svg"
   inkscape:export-filename="/Users/carolinegschwend/Desktop/metabrainz.png"
   inkscape:export-xdpi="165.1915"
   inkscape:export-ydpi="165.1915"><defs
     id="defs3586" /><sodipodi:namedview
     pagecolor="#ffffff"
     bordercolor="#666666"
     borderopacity="1"
     inkscape:pageopacity="0"
     inkscape:pageshadow="2"
     inkscape:window-width="1440"
     inkscape:window-height="856"
     id="namedview3584"
     showgrid="true"
     inkscape:zoom="1.1893899"
     inkscape:cx="301.69081"
     inkscape:cy="75"
     inkscape:window-x="-4"
     inkscape:window-y="0"
     inkscape:window-maximized="0"
     inkscape:current-layer="Layer_1"><inkscape:grid
       type="xygrid"
       id="grid4179" /></sodipodi:namedview><metadata
     id="metadata3482">
         height=&quot;144&quot;
         width=&quot;539.528&quot;
         y=&quot;-589&quot;
         x=&quot;2966&quot;
         bottomLeftOrigin=&quot;true&quot; /&gt;<rdf:RDF><cc:Work
     rdf:about=""><dc:format>image/svg+xml</dc:format><dc:type
       rdf:resource="http://purl.org/dc/dcmitype/StillImage" /><dc:title /></cc:Work></rdf:RDF></metadata><g
     id="g3484" /><g
     inkscape:groupmode="layer"
     id="layer1"
     inkscape:label="Layer 1" /><polygon
     points="70.354,2.823 70.354,146.823 131.354,111.823 131.354,37.823 "
     id="polygon3512"
     style="fill:#eb743b" /><polygon
     points="65.354,2.823 4.354,37.823 4.354,111.823 65.354,146.823 "
     id="polygon3514"
     style="fill:#ffde00;fill-opacity:1" /><g
     style="opacity:0.07000002"
     id="g3518"><path
       inkscape:connector-curvature="0"
       id="path3520"
       d="m 87.656,94.557 c 0.386,-0.645 1.066,-1.03 1.819,-1.03 0.378,0 0.752,0.104 1.078,0.297 1,0.601 1.331,1.899 0.735,2.898 -0.385,0.646 -1.064,1.032 -1.817,1.032 -0.379,0 -0.755,-0.104 -1.084,-0.301 -0.483,-0.288 -0.826,-0.748 -0.964,-1.294 -0.138,-0.549 -0.055,-1.117 0.233,-1.602 z m 12.603,22.362 c -0.49,0.421 -1.018,0.509 -1.373,0.509 -0.621,0 -1.207,-0.269 -1.608,-0.734 -0.758,-0.885 -0.654,-2.222 0.231,-2.981 0.492,-0.423 1.018,-0.512 1.373,-0.512 0.617,0 1.201,0.269 1.605,0.74 0.368,0.43 0.547,0.976 0.504,1.538 -0.043,0.562 -0.302,1.072 -0.732,1.44 z" /><path
       inkscape:connector-curvature="0"
       id="path3522"
       d="m 79.355,48.434 c 0.07,0.019 0.142,0.034 0.212,0.046 -0.072,-0.012 -0.142,-0.028 -0.212,-0.046 z" /><path
       inkscape:connector-curvature="0"
       id="path3524"
       d="m 90.734,58.08 c 0.169,-0.267 0.395,-0.49 0.673,-0.661 0.335,-0.207 0.722,-0.316 1.121,-0.316 0.4,0 0.79,0.112 1.122,0.321 0.987,0.627 1.283,1.936 0.66,2.919 -0.392,0.618 -1.063,0.988 -1.795,0.988 -0.397,0 -0.785,-0.113 -1.124,-0.327 -0.984,-0.624 -1.278,-1.937 -0.657,-2.924 z m 6.379,-20.187 c -0.6,0.951 -1.938,1.271 -2.912,0.653 l -0.096,-0.063 c -0.914,-0.647 -1.161,-1.897 -0.558,-2.851 0.386,-0.613 1.053,-0.98 1.784,-0.98 0.397,0 0.787,0.113 1.124,0.326 0.479,0.304 0.813,0.775 0.937,1.33 0.123,0.546 0.026,1.107 -0.279,1.585 z" /><path
       inkscape:connector-curvature="0"
       id="path3526"
       d="m 113.88,49.491 c 0.388,-0.614 1.054,-0.98 1.783,-0.98 0.399,0 0.79,0.113 1.125,0.325 0.48,0.304 0.813,0.775 0.937,1.33 0.122,0.546 0.024,1.106 -0.279,1.584 -0.598,0.951 -1.938,1.272 -2.912,0.653 L 114.44,52.34 c -0.918,-0.646 -1.163,-1.896 -0.56,-2.849 z m 0,23.463 c 0.388,-0.614 1.054,-0.98 1.783,-0.98 0.399,0 0.79,0.112 1.125,0.326 0.48,0.304 0.813,0.774 0.937,1.329 0.122,0.546 0.024,1.107 -0.279,1.585 -0.598,0.95 -1.938,1.271 -2.912,0.652 l -0.094,-0.063 c -0.918,-0.646 -1.163,-1.896 -0.56,-2.849 z m 0,26.303 c 0.388,-0.613 1.054,-0.979 1.783,-0.979 0.399,0 0.79,0.112 1.125,0.325 0.48,0.304 0.813,0.775 0.937,1.33 0.122,0.547 0.024,1.106 -0.279,1.584 -0.598,0.951 -1.938,1.271 -2.912,0.653 l -0.094,-0.063 c -0.918,-0.647 -1.163,-1.896 -0.56,-2.85 z" /><path
       inkscape:connector-curvature="0"
       id="path3528"
       d="m 103.53,108.927 c -1.165,-1.36 -2.858,-2.139 -4.648,-2.139 -1.459,0 -2.875,0.525 -3.983,1.477 -1.612,1.383 -2.326,3.429 -2.087,5.397 -1.948,0.7 -4.258,1.365 -5.328,1.332 -0.821,-0.044 -1.302,-0.346 -2.224,-0.972 -1.172,-0.795 -2.418,-1.512 -4.148,-1.847 2.936,-2.761 6.009,-6.83 8.584,-12.834 2.061,-0.076 3.976,-1.193 5.038,-2.972 1.725,-2.896 0.773,-6.659 -2.124,-8.394 -0.949,-0.565 -2.032,-0.864 -3.134,-0.864 -2.146,0 -4.161,1.144 -5.261,2.986 -0.838,1.405 -1.079,3.05 -0.678,4.636 0.351,1.393 1.16,2.59 2.302,3.429 -4.053,9.218 -9.219,13.081 -12.565,14.685 -0.128,0.045 -0.248,0.101 -0.36,0.168 -1.187,0.531 -2.05,0.704 -2.559,0.808 l 0,4 c 0.275,-0.03 1.885,-0.118 4.247,-1.192 5.348,-1.357 6.839,-0.354 8.407,0.709 1.021,0.692 2.291,1.554 4.263,1.656 0.1,0.005 0.204,0.008 0.309,0.008 2.109,0 5.172,-1.022 7.021,-1.723 1.144,1.116 2.676,1.75 4.285,1.75 l 0,0 c 1.461,0 2.876,-0.524 3.983,-1.476 1.24,-1.062 1.993,-2.546 2.118,-4.176 0.124,-1.631 -0.393,-3.214 -1.458,-4.452 z M 87.656,92.151 c 0.386,-0.645 1.066,-1.03 1.819,-1.03 0.378,0 0.752,0.104 1.078,0.297 1,0.601 1.331,1.899 0.735,2.898 -0.385,0.646 -1.064,1.032 -1.817,1.032 -0.379,0 -0.755,-0.104 -1.084,-0.301 -0.483,-0.288 -0.826,-0.748 -0.964,-1.294 -0.138,-0.548 -0.055,-1.116 0.233,-1.602 z m 12.603,22.363 c -0.49,0.421 -1.018,0.509 -1.373,0.509 -0.621,0 -1.207,-0.269 -1.608,-0.734 -0.758,-0.885 -0.654,-2.222 0.231,-2.981 0.492,-0.423 1.018,-0.512 1.373,-0.512 0.617,0 1.201,0.269 1.605,0.74 0.368,0.43 0.547,0.976 0.504,1.538 -0.043,0.562 -0.302,1.072 -0.732,1.44 z" /><path
       inkscape:connector-curvature="0"
       id="path3530"
       d="m 79.355,46.028 c 0.07,0.019 0.142,0.034 0.212,0.046 -0.072,-0.011 -0.142,-0.027 -0.212,-0.046 z" /><path
       inkscape:connector-curvature="0"
       id="path3532"
       d="m 101.305,33.027 c -0.357,-1.599 -1.317,-2.964 -2.708,-3.844 -0.98,-0.617 -2.109,-0.944 -3.265,-0.944 -2.117,0 -4.053,1.066 -5.174,2.85 -1.354,2.138 -1.218,4.799 0.144,6.759 -3.646,4.124 -8.706,4.313 -9.942,4.293 -3.692,-1.604 -7.234,-2.164 -10.005,-2.317 l 0,3.996 c 2.441,0.144 5.553,0.686 8.748,2.136 0.005,0.002 0.01,0.002 0.015,0.005 3.445,1.563 6.334,3.928 8.607,7.041 -0.136,0.173 -0.265,0.352 -0.382,0.538 -1.796,2.854 -0.942,6.644 1.903,8.444 0.98,0.622 2.111,0.951 3.27,0.951 2.113,0 4.051,-1.065 5.183,-2.852 1.806,-2.851 0.951,-6.642 -1.908,-8.453 -1.384,-0.871 -3.092,-1.113 -4.667,-0.755 -1.538,-2.154 -3.323,-4.017 -5.345,-5.566 2.517,-0.778 5.401,-2.269 7.78,-5.096 0.572,0.172 1.166,0.267 1.77,0.267 2.116,0 4.051,-1.068 5.172,-2.849 0.874,-1.375 1.16,-3.009 0.804,-4.604 z M 90.734,55.675 c 0.169,-0.267 0.395,-0.49 0.673,-0.661 0.335,-0.207 0.722,-0.316 1.121,-0.316 0.4,0 0.79,0.112 1.122,0.321 0.987,0.627 1.283,1.936 0.66,2.919 -0.392,0.618 -1.063,0.988 -1.795,0.988 -0.397,0 -0.785,-0.113 -1.124,-0.327 -0.984,-0.624 -1.278,-1.937 -0.657,-2.924 z m 6.379,-20.188 c -0.6,0.951 -1.938,1.271 -2.912,0.653 l -0.096,-0.063 c -0.914,-0.647 -1.161,-1.897 -0.558,-2.851 0.386,-0.613 1.053,-0.98 1.784,-0.98 0.397,0 0.787,0.113 1.124,0.326 0.479,0.304 0.813,0.775 0.937,1.33 0.123,0.547 0.026,1.108 -0.279,1.585 z" /><path
       inkscape:connector-curvature="0"
       id="path3534"
       d="m 110,74.011 c 0.425,1.035 1.136,1.962 2.109,2.649 0.072,0.052 0.151,0.105 0.283,0.191 0.981,0.621 2.11,0.949 3.268,0.949 2.116,0 4.052,-1.068 5.173,-2.849 0.875,-1.375 1.16,-3.01 0.805,-4.604 -0.358,-1.598 -1.318,-2.964 -2.709,-3.844 -0.98,-0.617 -2.109,-0.944 -3.266,-0.944 -0.125,0 -0.25,0.008 -0.375,0.018 -0.71,-3.157 -0.919,-7.769 0.035,-11.265 0.112,0.011 0.225,0.024 0.337,0.024 2.116,0 4.052,-1.067 5.173,-2.849 0.875,-1.375 1.16,-3.009 0.805,-4.604 -0.358,-1.599 -1.318,-2.964 -2.709,-3.844 -0.98,-0.617 -2.109,-0.944 -3.266,-0.944 -2.114,0 -4.051,1.066 -5.173,2.85 -1.604,2.532 -1.12,5.804 1.024,7.765 0.021,0.02 0.048,0.037 0.071,0.059 -1.349,4.518 -1.146,10.324 -0.036,14.417 -0.144,0.132 -0.294,0.254 -0.426,0.399 -0.229,0.255 -0.445,0.526 -0.634,0.824 -0.318,0.502 -0.551,1.033 -0.71,1.578 -3.371,0.488 -5.198,1.671 -6.824,2.729 -2.035,1.324 -3.961,2.572 -9.636,2.665 -1.964,-0.23 -3.553,-0.177 -5.29,-0.116 -1.431,0.052 -2.91,0.106 -4.849,0.003 -1.335,-0.071 -2.104,-0.882 -3.458,-2.424 -1.803,-2.055 -4.219,-4.648 -9.369,-5.022 l 0,4 c 3.295,0.3 4.796,1.888 6.356,3.667 1.487,1.694 3.175,3.615 6.256,3.782 2.118,0.114 3.76,0.052 5.208,0.001 2.491,-0.092 4.453,-0.161 7.855,0.684 2.607,0.643 12.099,9.673 14.773,14.322 -0.108,0.142 -0.219,0.282 -0.313,0.434 -1.743,2.755 -1.026,6.385 1.619,8.251 0.072,0.052 0.151,0.104 0.283,0.191 0.981,0.621 2.11,0.948 3.268,0.948 2.116,0 4.052,-1.068 5.173,-2.849 0.875,-1.374 1.16,-3.009 0.805,-4.603 -0.358,-1.6 -1.318,-2.965 -2.709,-3.845 -0.98,-0.617 -2.109,-0.944 -3.266,-0.944 -0.528,0 -1.047,0.067 -1.543,0.195 -2.561,-4.187 -8.652,-10.455 -13.189,-13.792 1.813,-0.628 3.05,-1.435 4.212,-2.188 1.429,-0.928 2.616,-1.688 4.859,-2.065 z m 3.88,-26.925 c 0.388,-0.614 1.054,-0.98 1.783,-0.98 0.399,0 0.79,0.113 1.125,0.325 0.48,0.304 0.813,0.775 0.937,1.33 0.122,0.546 0.024,1.106 -0.279,1.584 -0.598,0.951 -1.938,1.272 -2.912,0.653 l -0.094,-0.063 c -0.918,-0.646 -1.163,-1.896 -0.56,-2.849 z m 0,23.463 c 0.388,-0.614 1.054,-0.98 1.783,-0.98 0.399,0 0.79,0.112 1.125,0.326 0.48,0.304 0.813,0.774 0.937,1.329 0.122,0.546 0.024,1.107 -0.279,1.585 -0.598,0.95 -1.938,1.271 -2.912,0.652 l -0.094,-0.063 c -0.918,-0.646 -1.163,-1.896 -0.56,-2.849 z m 0,26.303 c 0.388,-0.613 1.054,-0.979 1.783,-0.979 0.399,0 0.79,0.112 1.125,0.325 0.48,0.304 0.813,0.775 0.937,1.33 0.122,0.547 0.024,1.106 -0.279,1.584 -0.598,0.951 -1.938,1.271 -2.912,0.653 l -0.094,-0.063 c -0.918,-0.647 -1.163,-1.896 -0.56,-2.85 z" /></g><g
     id="g3538"><path
       d="m 103.53,111.927 c -1.165,-1.36 -2.858,-2.139 -4.648,-2.139 -1.459,0 -2.875,0.525 -3.983,1.477 -1.612,1.383 -2.326,3.429 -2.087,5.397 -1.948,0.7 -4.258,1.365 -5.328,1.332 -0.821,-0.044 -1.302,-0.346 -2.224,-0.972 -1.172,-0.795 -2.418,-1.512 -4.148,-1.847 2.936,-2.761 6.009,-6.83 8.584,-12.834 2.061,-0.076 3.976,-1.193 5.038,-2.972 1.725,-2.896 0.773,-6.659 -2.124,-8.394 -0.949,-0.565 -2.032,-0.864 -3.134,-0.864 -2.146,0 -4.161,1.144 -5.261,2.986 -0.838,1.405 -1.079,3.05 -0.678,4.636 0.351,1.393 1.16,2.59 2.302,3.429 -4.053,9.218 -9.219,13.081 -12.565,14.685 -0.128,0.045 -0.248,0.101 -0.36,0.168 -1.187,0.531 -2.05,0.704 -2.559,0.808 l 0,4 c 0.275,-0.03 1.885,-0.118 4.247,-1.192 5.348,-1.357 6.839,-0.354 8.407,0.709 1.021,0.692 2.291,1.554 4.263,1.656 0.1,0.005 0.204,0.008 0.309,0.008 2.109,0 5.172,-1.022 7.021,-1.723 1.144,1.116 2.676,1.75 4.285,1.75 l 0,0 c 1.461,0 2.876,-0.524 3.983,-1.476 1.24,-1.062 1.993,-2.546 2.118,-4.176 0.124,-1.631 -0.393,-3.214 -1.458,-4.452 z M 87.656,95.151 c 0.386,-0.645 1.066,-1.03 1.819,-1.03 0.378,0 0.752,0.104 1.078,0.297 1,0.601 1.331,1.899 0.735,2.898 -0.385,0.646 -1.064,1.032 -1.817,1.032 -0.379,0 -0.755,-0.104 -1.084,-0.301 -0.483,-0.288 -0.826,-0.748 -0.964,-1.294 -0.138,-0.548 -0.055,-1.116 0.233,-1.602 z m 12.603,22.363 c -0.49,0.421 -1.018,0.509 -1.373,0.509 -0.621,0 -1.207,-0.269 -1.608,-0.734 -0.758,-0.885 -0.654,-2.222 0.231,-2.981 0.492,-0.423 1.018,-0.512 1.373,-0.512 0.617,0 1.201,0.269 1.605,0.74 0.368,0.43 0.547,0.976 0.504,1.538 -0.043,0.562 -0.302,1.072 -0.732,1.44 z"
       id="path3540"
       inkscape:connector-curvature="0"
       style="fill:#d3562c" /><path
       d="m 79.355,48.434 c 0.07,0.019 0.142,0.034 0.212,0.046 -0.072,-0.012 -0.142,-0.028 -0.212,-0.046 z"
       id="path3542"
       inkscape:connector-curvature="0" /><path
       d="m 101.305,36.031 c -0.357,-1.599 -1.317,-2.964 -2.708,-3.844 -0.98,-0.617 -2.109,-0.944 -3.265,-0.944 -2.117,0 -4.053,1.066 -5.174,2.85 -1.354,2.138 -1.218,4.799 0.144,6.759 -3.646,4.124 -8.706,4.313 -9.942,4.293 -3.692,-1.604 -7.234,-2.164 -10.005,-2.317 l 0,3.996 c 2.441,0.144 5.553,0.686 8.748,2.136 0.005,0.002 0.01,0.002 0.015,0.005 3.445,1.563 6.334,3.928 8.607,7.041 -0.136,0.173 -0.265,0.352 -0.382,0.538 -1.796,2.854 -0.942,6.644 1.903,8.444 0.98,0.622 2.111,0.951 3.27,0.951 2.113,0 4.051,-1.065 5.183,-2.852 1.806,-2.851 0.951,-6.642 -1.908,-8.453 -1.384,-0.871 -3.092,-1.113 -4.667,-0.755 -1.538,-2.154 -3.323,-4.017 -5.345,-5.566 2.517,-0.778 5.401,-2.269 7.78,-5.096 0.572,0.172 1.166,0.267 1.77,0.267 2.116,0 4.051,-1.068 5.172,-2.849 0.874,-1.375 1.16,-3.009 0.804,-4.604 z M 90.734,58.679 c 0.169,-0.267 0.395,-0.49 0.673,-0.661 0.335,-0.207 0.722,-0.316 1.121,-0.316 0.4,0 0.79,0.112 1.122,0.321 0.987,0.627 1.283,1.936 0.66,2.919 -0.392,0.618 -1.063,0.988 -1.795,0.988 -0.397,0 -0.785,-0.113 -1.124,-0.327 -0.984,-0.624 -1.278,-1.937 -0.657,-2.924 z m 6.379,-20.188 c -0.6,0.951 -1.938,1.271 -2.912,0.653 l -0.096,-0.063 c -0.914,-0.647 -1.161,-1.897 -0.558,-2.851 0.386,-0.613 1.053,-0.98 1.784,-0.98 0.397,0 0.787,0.113 1.124,0.326 0.479,0.304 0.813,0.775 0.937,1.33 0.123,0.547 0.026,1.108 -0.279,1.585 z"
       id="path3544"
       inkscape:connector-curvature="0"
       style="fill:#d3562c" /><path
       d="m 110,77.011 c 0.425,1.035 1.136,1.962 2.109,2.649 0.072,0.052 0.151,0.105 0.283,0.191 0.981,0.621 2.11,0.949 3.268,0.949 2.116,0 4.052,-1.068 5.173,-2.849 0.875,-1.375 1.16,-3.01 0.805,-4.604 -0.358,-1.598 -1.318,-2.964 -2.709,-3.844 -0.98,-0.617 -2.109,-0.944 -3.266,-0.944 -0.125,0 -0.25,0.008 -0.375,0.018 -0.71,-3.157 -0.919,-7.769 0.035,-11.265 0.112,0.011 0.225,0.024 0.337,0.024 2.116,0 4.052,-1.067 5.173,-2.849 0.875,-1.375 1.16,-3.009 0.805,-4.604 -0.358,-1.599 -1.318,-2.964 -2.709,-3.844 -0.98,-0.617 -2.109,-0.944 -3.266,-0.944 -2.114,0 -4.051,1.066 -5.173,2.85 -1.604,2.532 -1.12,5.804 1.024,7.765 0.021,0.02 0.048,0.037 0.071,0.059 -1.349,4.518 -1.146,10.324 -0.036,14.417 -0.144,0.132 -0.294,0.254 -0.426,0.399 -0.229,0.255 -0.445,0.526 -0.634,0.824 -0.318,0.502 -0.551,1.033 -0.71,1.578 -3.371,0.488 -5.198,1.671 -6.824,2.729 -2.035,1.324 -3.961,2.572 -9.636,2.665 -1.964,-0.23 -3.553,-0.177 -5.29,-0.116 -1.431,0.052 -2.91,0.106 -4.849,0.003 -1.335,-0.071 -2.104,-0.882 -3.458,-2.424 -1.803,-2.055 -4.219,-4.648 -9.369,-5.022 l 0,4 c 3.295,0.3 4.796,1.888 6.356,3.667 1.487,1.694 3.175,3.615 6.256,3.782 2.118,0.114 3.76,0.052 5.208,0.001 2.491,-0.092 4.453,-0.161 7.855,0.684 2.607,0.643 12.099,9.673 14.773,14.322 -0.108,0.142 -0.219,0.282 -0.313,0.434 -1.743,2.755 -1.026,6.385 1.619,8.251 0.072,0.052 0.151,0.104 0.283,0.191 0.981,0.621 2.11,0.948 3.268,0.948 2.116,0 4.052,-1.068 5.173,-2.849 0.875,-1.374 1.16,-3.009 0.805,-4.603 -0.358,-1.6 -1.318,-2.965 -2.709,-3.845 -0.98,-0.617 -2.109,-0.944 -3.266,-0.944 -0.528,0 -1.047,0.067 -1.543,0.195 -2.561,-4.187 -8.652,-10.455 -13.189,-13.792 1.813,-0.628 3.05,-1.435 4.212,-2.188 1.429,-0.928 2.616,-1.688 4.859,-2.065 z m 3.88,-26.925 c 0.388,-0.614 1.054,-0.98 1.783,-0.98 0.399,0 0.79,0.113 1.125,0.325 0.48,0.304 0.813,0.775 0.937,1.33 0.122,0.546 0.024,1.106 -0.279,1.584 -0.598,0.951 -1.938,1.272 -2.912,0.653 l -0.094,-0.063 c -0.918,-0.646 -1.163,-1.896 -0.56,-2.849 z m 0,23.463 c 0.388,-0.614 1.054,-0.98 1.783,-0.98 0.399,0 0.79,0.112 1.125,0.326 0.48,0.304 0.813,0.774 0.937,1.329 0.122,0.546 0.024,1.107 -0.279,1.585 -0.598,0.95 -1.938,1.271 -2.912,0.652 l -0.094,-0.063 c -0.918,-0.646 -1.163,-1.896 -0.56,-2.849 z m 0,26.303 c 0.388,-0.613 1.054,-0.979 1.783,-0.979 0.399,0 0.79,0.112 1.125,0.325 0.48,0.304 0.813,0.775 0.937,1.33 0.122,0.547 0.024,1.106 -0.279,1.584 -0.598,0.951 -1.938,1.271 -2.912,0.653 l -0.094,-0.063 c -0.918,-0.647 -1.163,-1.896 -0.56,-2.85 z"
       id="path3546"
       inkscape:connector-curvature="0"
       style="fill:#d3562c" /></g><path
     style="fill:#fffedb"
     inkscape:connector-curvature="0"
     id="path3550"
     d="m 103.53,108.927 c -1.165,-1.36 -2.858,-2.139 -4.648,-2.139 -1.459,0 -2.875,0.525 -3.983,1.477 -1.612,1.383 -2.326,3.429 -2.087,5.397 -1.948,0.7 -4.258,1.365 -5.328,1.332 -0.821,-0.044 -1.302,-0.346 -2.224,-0.972 -1.172,-0.795 -2.418,-1.512 -4.148,-1.847 2.936,-2.761 6.009,-6.83 8.584,-12.834 2.061,-0.076 3.976,-1.193 5.038,-2.972 1.725,-2.896 0.773,-6.659 -2.124,-8.394 -0.949,-0.565 -2.032,-0.864 -3.134,-0.864 -2.146,0 -4.161,1.144 -5.261,2.986 -0.838,1.405 -1.079,3.05 -0.678,4.636 0.351,1.393 1.16,2.59 2.302,3.429 -4.053,9.218 -9.219,13.081 -12.565,14.685 -0.128,0.045 -0.248,0.101 -0.36,0.168 -1.187,0.531 -2.05,0.704 -2.559,0.808 l 0,4 c 0.275,-0.03 1.885,-0.118 4.247,-1.192 5.348,-1.357 6.839,-0.354 8.407,0.709 1.021,0.692 2.291,1.554 4.263,1.656 0.1,0.005 0.204,0.008 0.309,0.008 2.109,0 5.172,-1.022 7.021,-1.723 1.144,1.116 2.676,1.75 4.285,1.75 l 0,0 c 1.461,0 2.876,-0.524 3.983,-1.476 1.24,-1.062 1.993,-2.546 2.118,-4.176 0.124,-1.631 -0.393,-3.214 -1.458,-4.452 z M 87.656,92.151 c 0.386,-0.645 1.066,-1.03 1.819,-1.03 0.378,0 0.752,0.104 1.078,0.297 1,0.601 1.331,1.899 0.735,2.898 -0.385,0.646 -1.064,1.032 -1.817,1.032 -0.379,0 -0.755,-0.104 -1.084,-0.301 -0.483,-0.288 -0.826,-0.748 -0.964,-1.294 -0.138,-0.548 -0.055,-1.116 0.233,-1.602 z m 12.603,22.363 c -0.49,0.421 -1.018,0.509 -1.373,0.509 -0.621,0 -1.207,-0.269 -1.608,-0.734 -0.758,-0.885 -0.654,-2.222 0.231,-2.981 0.492,-0.423 1.018,-0.512 1.373,-0.512 0.617,0 1.201,0.269 1.605,0.74 0.368,0.43 0.547,0.976 0.504,1.538 -0.043,0.562 -0.302,1.072 -0.732,1.44 z" /><path
     style="fill:#fffedb"
     inkscape:connector-curvature="0"
     id="path3552"
     d="m 79.355,46.028 c 0.07,0.019 0.142,0.034 0.212,0.046 -0.072,-0.011 -0.142,-0.027 -0.212,-0.046 z" /><path
     style="fill:#fffedb"
     inkscape:connector-curvature="0"
     id="path3554"
     d="m 101.305,33.027 c -0.357,-1.599 -1.317,-2.964 -2.708,-3.844 -0.98,-0.617 -2.109,-0.944 -3.265,-0.944 -2.117,0 -4.053,1.066 -5.174,2.85 -1.354,2.138 -1.218,4.799 0.144,6.759 -3.646,4.124 -8.706,4.313 -9.942,4.293 -3.692,-1.604 -7.234,-2.164 -10.005,-2.317 l 0,3.996 c 2.441,0.144 5.553,0.686 8.748,2.136 0.005,0.002 0.01,0.002 0.015,0.005 3.445,1.563 6.334,3.928 8.607,7.041 -0.136,0.173 -0.265,0.352 -0.382,0.538 -1.796,2.854 -0.942,6.644 1.903,8.444 0.98,0.622 2.111,0.951 3.27,0.951 2.113,0 4.051,-1.065 5.183,-2.852 1.806,-2.851 0.951,-6.642 -1.908,-8.453 -1.384,-0.871 -3.092,-1.113 -4.667,-0.755 -1.538,-2.154 -3.323,-4.017 -5.345,-5.566 2.517,-0.778 5.401,-2.269 7.78,-5.096 0.572,0.172 1.166,0.267 1.77,0.267 2.116,0 4.051,-1.068 5.172,-2.849 0.874,-1.375 1.16,-3.009 0.804,-4.604 z M 90.734,55.675 c 0.169,-0.267 0.395,-0.49 0.673,-0.661 0.335,-0.207 0.722,-0.316 1.121,-0.316 0.4,0 0.79,0.112 1.122,0.321 0.987,0.627 1.283,1.936 0.66,2.919 -0.392,0.618 -1.063,0.988 -1.795,0.988 -0.397,0 -0.785,-0.113 -1.124,-0.327 -0.984,-0.624 -1.278,-1.937 -0.657,-2.924 z m 6.379,-20.188 c -0.6,0.951 -1.938,1.271 -2.912,0.653 l -0.096,-0.063 c -0.914,-0.647 -1.161,-1.897 -0.558,-2.851 0.386,-0.613 1.053,-0.98 1.784,-0.98 0.397,0 0.787,0.113 1.124,0.326 0.479,0.304 0.813,0.775 0.937,1.33 0.123,0.547 0.026,1.108 -0.279,1.585 z" /><path
     style="fill:#fffedb;fill-opacity:1"
     inkscape:connector-curvature="0"
     id="path3556"
     d="m 110,74.011 c 0.425,1.035 1.136,1.962 2.109,2.649 0.072,0.052 0.151,0.105 0.283,0.191 0.981,0.621 2.11,0.949 3.268,0.949 2.116,0 4.052,-1.068 5.173,-2.849 0.875,-1.375 1.16,-3.01 0.805,-4.604 -0.358,-1.598 -1.318,-2.964 -2.709,-3.844 -0.98,-0.617 -2.109,-0.944 -3.266,-0.944 -0.125,0 -0.25,0.008 -0.375,0.018 -0.71,-3.157 -0.919,-7.769 0.035,-11.265 0.112,0.011 0.225,0.024 0.337,0.024 2.116,0 4.052,-1.067 5.173,-2.849 0.875,-1.375 1.16,-3.009 0.805,-4.604 -0.358,-1.599 -1.318,-2.964 -2.709,-3.844 -0.98,-0.617 -2.109,-0.944 -3.266,-0.944 -2.114,0 -4.051,1.066 -5.173,2.85 -1.604,2.532 -1.12,5.804 1.024,7.765 0.021,0.02 0.048,0.037 0.071,0.059 -1.349,4.518 -1.146,10.324 -0.036,14.417 -0.144,0.132 -0.294,0.254 -0.426,0.399 -0.229,0.255 -0.445,0.526 -0.634,0.824 -0.318,0.502 -0.551,1.033 -0.71,1.578 -3.371,0.488 -5.198,1.671 -6.824,2.729 -2.035,1.324 -3.961,2.572 -9.636,2.665 -1.964,-0.23 -3.553,-0.177 -5.29,-0.116 -1.431,0.052 -2.91,0.106 -4.849,0.003 -1.335,-0.071 -2.104,-0.882 -3.458,-2.424 -1.803,-2.055 -4.219,-4.648 -9.369,-5.022 l 0,4 c 3.295,0.3 4.796,1.888 6.356,3.667 1.487,1.694 3.175,3.615 6.256,3.782 2.118,0.114 3.76,0.052 5.208,0.001 2.491,-0.092 4.453,-0.161 7.855,0.684 2.607,0.643 12.099,9.673 14.773,14.322 -0.108,0.142 -0.219,0.282 -0.313,0.434 -1.743,2.755 -1.026,6.385 1.619,8.251 0.072,0.052 0.151,0.104 0.283,0.191 0.981,0.621 2.11,0.948 3.268,0.948 2.116,0 4.052,-1.068 5.173,-2.849 0.875,-1.374 1.16,-3.009 0.805,-4.603 -0.358,-1.6 -1.318,-2.965 -2.709,-3.845 -0.98,-0.617 -2.109,-0.944 -3.266,-0.944 -0.528,0 -1.047,0.067 -1.543,0.195 -2.561,-4.187 -8.652,-10.455 -13.189,-13.792 1.813,-0.628 3.05,-1.435 4.212,-2.188 1.429,-0.928 2.616,-1.688 4.859,-2.065 z m 3.88,-26.925 c 0.388,-0.614 1.054,-0.98 1.783,-0.98 0.399,0 0.79,0.113 1.125,0.325 0.48,0.304 0.813,0.775 0.937,1.33 0.122,0.546 0.024,1.106 -0.279,1.584 -0.598,0.951 -1.938,1.272 -2.912,0.653 l -0.094,-0.063 c -0.918,-0.646 -1.163,-1.896 -0.56,-2.849 z m 0,23.463 c 0.388,-0.614 1.054,-0.98 1.783,-0.98 0.399,0 0.79,0.112 1.125,0.326 0.48,0.304 0.813,0.774 0.937,1.329 0.122,0.546 0.024,1.107 -0.279,1.585 -0.598,0.95 -1.938,1.271 -2.912,0.652 l -0.094,-0.063 c -0.918,-0.646 -1.163,-1.896 -0.56,-2.849 z m 0,26.303 c 0.388,-0.613 1.054,-0.979 1.783,-0.979 0.399,0 0.79,0.112 1.125,0.325 0.48,0.304 0.813,0.775 0.937,1.33 0.122,0.547 0.024,1.106 -0.279,1.584 -0.598,0.951 -1.938,1.271 -2.912,0.653 l -0.094,-0.063 c -0.918,-0.647 -1.163,-1.896 -0.56,-2.85 z" /><g
     id="layer1-1"
     inkscape:label="Layer 1"
     transform="matrix(0.25352692,0,0,0.25352692,-10.381221,-27.687735)"><rect
       y="241.02043"
       x="132.14285"
       height="329.19891"
       width="141.42857"
       id="rect5065"
       style="fill:#fffedb;fill-opacity:1" /><rect
       transform="scale(1,-1)"
       y="-333.24982"
       x="145.01752"
       height="84.285713"
       width="114.95264"
       id="rect5071"
       style="opacity:1;fill:#ffde00;fill-opacity:1;stroke:none;stroke-opacity:1" /><rect
       y="262.37598"
       x="177.15196"
       height="6.0609155"
       width="50.053799"
       id="rect5073"
       style="opacity:1;fill:#fffdbe;fill-opacity:1;stroke:none;stroke-opacity:1" /><rect
       style="fill:#ffde00;fill-opacity:1;stroke:none;stroke-opacity:1"
       id="rect5085"
       width="114.95264"
       height="84.285713"
       x="144.76193"
       y="-441.61526"
       transform="scale(1,-1)" /><rect
       style="fill:#fffdbf;fill-opacity:0.94117647;stroke:none;stroke-opacity:1"
       id="rect5087"
       width="50.053799"
       height="6.0609155"
       x="176.89638"
       y="370.74142" /><rect
       transform="scale(1,-1)"
       y="-551.51416"
       x="145.2731"
       height="84.285713"
       width="114.95264"
       id="rect5091"
       style="fill:#ffde00;fill-opacity:1;stroke:none;stroke-opacity:1" /><rect
       y="480.64032"
       x="177.40755"
       height="6.0609155"
       width="50.053799"
       id="rect5093"
       style="fill:#fffdbf;fill-opacity:0.94117647;stroke:none;stroke-opacity:1" /><rect
       style="fill:#e3c604;fill-opacity:1"
       id="rect5552"
       width="133.73453"
       height="2.5446596"
       x="144.10464"
       y="238.90417" /><rect
       transform="matrix(0,1,-1,0,0,0)"
       y="-277.87341"
       x="240.86868"
       height="4.8609838"
       width="329.46393"
       id="rect5554"
       style="fill:#e3c604;fill-opacity:1" /><rect
       y="570.13855"
       x="154.91415"
       height="2.5446596"
       width="122.92502"
       id="rect5556"
       style="fill:#e3c604;fill-opacity:1" /></g><g
     style="font-style:normal;font-variant:normal;font-weight:bold;font-stretch:normal;font-size:72.43611908px;line-height:125%;font-family:Roboto;-inkscape-font-specification:'Roboto Bold';letter-spacing:0px;word-spacing:0px;fill:#ffde00;fill-opacity:1;stroke:none;stroke-width:1px;stroke-linecap:butt;stroke-linejoin:miter;stroke-opacity:1;image-rendering:auto"
     id="text4505"><path
       d="m 199.11613,77.5554 q 0,5.906656 -1.59162,10.61076 -1.59161,4.668734 -4.49189,7.9227 -2.8649,3.253967 -6.89699,5.02243 -4.03209,1.73309 -8.87767,1.73309 -4.84558,0 -8.87767,-1.73309 -4.03209,-1.768463 -6.96773,-5.02243 -2.90027,-3.253966 -4.52726,-7.9227 -1.62698,-4.704104 -1.62698,-10.61076 l 0,-2.263628 q 0,-5.871287 1.59161,-10.575391 1.62699,-4.704103 4.52726,-7.993439 2.90027,-3.289335 6.93236,-5.022426 4.03209,-1.76846 8.87767,-1.76846 4.84558,0 8.87767,1.76846 4.03209,1.733091 6.93236,5.022426 2.90028,3.289336 4.49189,7.993439 1.62699,4.704104 1.62699,10.575391 l 0,2.263628 z m -10.75224,-2.334367 q 0,-8.099546 -2.90028,-12.308481 -2.90027,-4.208935 -8.27639,-4.208935 -5.37612,0 -8.27639,4.208935 -2.90027,4.208935 -2.90027,12.308481 l 0,2.334367 q 0,4.032089 0.74275,7.144578 0.77812,3.077121 2.19289,5.199273 1.45014,2.086782 3.53692,3.183228 2.08678,1.061075 4.77484,1.061075 5.37612,0 8.24102,-4.244303 2.86491,-4.244304 2.86491,-12.343851 l 0,-2.334367 z"
       style="font-style:normal;font-variant:normal;font-weight:bold;font-stretch:normal;font-family:Roboto;-inkscape-font-specification:'Roboto Bold';fill:#ffde00;fill-opacity:1"
       id="path4173" /><path
       d="m 208.87802,102.13699 0,-30.7712 -5.69444,0 0,-7.49827 5.69444,0 0,-3.324704 q 0,-3.253967 0.95497,-5.76518 0.99034,-2.511213 2.79417,-4.208934 1.8392,-1.733091 4.42115,-2.617321 2.61732,-0.88423 5.87128,-0.88423 1.3794,0 2.65269,0.212215 1.30867,0.212215 2.54659,0.495169 l -0.10611,7.9227 q -1.27329,-0.318322 -3.11249,-0.318322 -2.7588,0 -4.27967,1.344029 -1.48551,1.308661 -1.48551,3.819874 l 0,3.324704 7.60438,0 0,7.49827 -7.60438,0 0,30.7712 -10.25707,0 z"
       style="font-style:normal;font-variant:normal;font-weight:bold;font-stretch:normal;font-family:Roboto;-inkscape-font-specification:'Roboto Bold';fill:#ffde00;fill-opacity:1"
       id="path4175" /><path
       d="m 234.59143,102.13699 0,-30.7712 -5.69444,0 0,-7.49827 5.69444,0 0,-1.591614 q 0,-3.678396 1.13182,-6.507932 1.13181,-2.864905 3.28933,-4.774842 2.15752,-1.945306 5.27001,-2.935644 3.11249,-0.990337 7.07384,-0.990337 3.00638,0 5.80055,0.601276 2.79417,0.565907 5.80055,1.485507 l -1.48551,8.453238 q -0.95497,-0.282953 -1.98067,-0.565907 -1.02571,-0.282954 -2.19289,-0.530538 -1.13182,-0.247584 -2.44048,-0.389061 -1.30866,-0.141477 -2.8649,-0.141477 -3.57229,0 -5.37612,1.591614 -1.76846,1.591614 -1.76846,4.704103 l 0,1.591614 7.53364,0 0,7.49827 -7.53364,0 0,30.7712 -10.25707,0 z m 33.14094,0 -10.25707,0 0,-38.26947 10.25707,0 0,38.26947 z"
       style="font-style:normal;font-variant:normal;font-weight:bold;font-stretch:normal;font-family:Roboto;-inkscape-font-specification:'Roboto Bold';fill:#ffde00;fill-opacity:1"
       id="path4177" /><path
       d="m 292.03101,94.603354 q 1.41477,0 2.58195,-0.389061 1.16718,-0.424431 2.01604,-1.167184 0.84887,-0.742753 1.30867,-1.76846 0.49516,-1.061076 0.53053,-2.369736 l 9.58506,0 q -0.0354,3.041751 -1.2733,5.623703 -1.23792,2.546582 -3.36007,4.42115 -2.12215,1.839194 -5.02243,2.864904 -2.8649,1.02571 -6.1896,1.02571 -4.45652,0 -7.78123,-1.48551 -3.3247,-1.520875 -5.51759,-4.102826 -2.19289,-2.617321 -3.28934,-6.118871 -1.09644,-3.53692 -1.09644,-7.604378 l 0,-0.990338 q 0,-4.067458 1.09644,-7.604377 1.09645,-3.53692 3.28934,-6.154241 2.19289,-2.617321 5.48222,-4.102827 3.32471,-1.520876 7.74586,-1.520876 3.53692,0 6.43719,1.061076 2.93564,1.025707 5.02243,2.971013 2.08678,1.945306 3.25396,4.739473 1.16719,2.758797 1.20256,6.189609 l -9.58506,0 q -0.0354,-1.379398 -0.49517,-2.581951 -0.42443,-1.237922 -1.23792,-2.122152 -0.81349,-0.919599 -2.01604,-1.450137 -1.20255,-0.530538 -2.7588,-0.530538 -2.22826,0 -3.64303,0.919599 -1.41476,0.919599 -2.22826,2.475844 -0.77812,1.520876 -1.06107,3.53692 -0.28296,2.016044 -0.28296,4.173565 l 0,0.990338 q 0,2.19289 0.28296,4.208935 0.28295,2.016044 1.06107,3.536919 0.8135,1.520876 2.22826,2.440475 1.41477,0.88423 3.71377,0.88423 z"
       style="font-style:normal;font-variant:normal;font-weight:bold;font-stretch:normal;font-family:Roboto;-inkscape-font-specification:'Roboto Bold';fill:#ffde00;fill-opacity:1"
       id="path4179" /><path
       d="m 331.50304,102.84438 q -4.45652,0 -7.99344,-1.45014 -3.50155,-1.450137 -5.9774,-3.96135 -2.44047,-2.511213 -3.74913,-5.871287 -1.27329,-3.395443 -1.27329,-7.250686 l 0,-1.379399 q 0,-4.350411 1.23792,-7.958069 1.27329,-3.643028 3.57229,-6.260348 2.33437,-2.617321 5.6237,-4.067458 3.32471,-1.485507 7.42753,-1.485507 4.1382,0 7.28606,1.379399 3.14786,1.34403 5.27001,3.819874 2.15752,2.440474 3.2186,5.906656 1.09644,3.466181 1.09644,7.710485 l 0,4.350412 -24.36938,0 q 0.24759,1.874567 0.99034,3.395443 0.77812,1.520875 1.94531,2.61732 1.20255,1.061076 2.79416,1.662353 1.59162,0.601276 3.57229,0.601276 2.79417,0 5.16391,-1.025707 2.36973,-1.061076 4.06745,-3.253966 l 5.02243,5.623703 q -0.9196,1.30866 -2.299,2.546582 -1.3794,1.237922 -3.25396,2.228264 -1.87457,0.95496 -4.24431,1.52087 -2.33437,0.60128 -5.12853,0.60128 z m -1.16719,-31.407851 q -1.66235,0 -2.93564,0.601276 -1.23792,0.565907 -2.15752,1.626983 -0.88423,1.025707 -1.45014,2.475844 -0.5659,1.450137 -0.81349,3.218597 l 14.21842,0 0,-0.813491 q -0.0354,-1.520876 -0.4598,-2.829536 -0.38906,-1.30866 -1.23792,-2.263629 -0.81349,-0.954968 -2.12215,-1.485506 -1.2733,-0.530538 -3.04176,-0.530538 z"
       style="font-style:normal;font-variant:normal;font-weight:bold;font-stretch:normal;font-family:Roboto;-inkscape-font-specification:'Roboto Bold';fill:#ffde00;fill-opacity:1"
       id="path4181" /></g><g
     style="font-style:normal;font-variant:normal;font-weight:bold;font-stretch:normal;font-size:72.42500305px;line-height:125%;font-family:Roboto;-inkscape-font-specification:'Roboto Bold';letter-spacing:0px;word-spacing:0px;fill:#eb743b;fill-opacity:1;stroke:none;stroke-width:1px;stroke-linecap:butt;stroke-linejoin:miter;stroke-opacity:1"
     id="text4511"><path
       d="m 357.25729,101.97629 0,-51.489653 18.03553,0 q 4.4912,0 8.02757,0.848731 3.53638,0.84873 5.97648,2.616919 2.47546,1.732825 3.74856,4.385107 1.30846,2.652283 1.30846,6.259388 0,1.768188 -0.45973,3.394922 -0.42436,1.626733 -1.34382,3.041284 -0.8841,1.414551 -2.26328,2.581555 -1.37919,1.131641 -3.28883,1.87428 2.26328,0.565821 3.85465,1.732825 1.62673,1.131641 2.65228,2.652283 1.06091,1.520642 1.52064,3.324194 0.49509,1.768189 0.49509,3.642469 0,7.497119 -4.84483,11.316407 -4.80948,3.819289 -13.72115,3.819289 l -19.69762,0 z m 10.60914,-22.420633 0,13.897962 9.08848,0 q 2.0511,0 3.53638,-0.495093 1.48528,-0.530456 2.47547,-1.414551 0.99018,-0.919458 1.44991,-2.121826 0.49509,-1.237732 0.49509,-2.687646 0,-1.662098 -0.42436,-2.970557 -0.42437,-1.343824 -1.34383,-2.263282 -0.88409,-0.954821 -2.334,-1.449914 -1.44992,-0.495093 -3.46565,-0.495093 l -9.47749,0 z m 0,-7.497119 7.85075,0 q 4.06684,-0.07073 6.04721,-1.697461 1.98037,-1.662098 1.98037,-4.703382 0,-3.501013 -2.0511,-5.021655 -2.01574,-1.556006 -6.40084,-1.556006 l -7.42639,0 0,12.978504 z"
       style="font-style:normal;font-variant:normal;font-weight:bold;font-stretch:normal;font-size:72.42500305px;font-family:Roboto;-inkscape-font-specification:'Roboto Bold';fill:#eb743b;fill-opacity:1"
       id="path4184" /><path
       d="m 424.34237,73.29627 q -0.778,-0.106092 -1.83892,-0.176819 -1.02555,-0.106092 -1.83891,-0.106092 -3.00592,0 -4.8802,1.02555 -1.83892,0.990185 -2.72301,2.899829 l 0,25.037552 -10.22013,0 0,-38.263602 9.65431,0 0.28291,4.561926 q 1.44991,-2.475464 3.57174,-3.854651 2.12182,-1.414551 4.95092,-1.414551 0.81337,0 1.69747,0.141455 0.91945,0.141455 1.48527,0.318274 l -0.14145,9.831129 z"
       style="font-style:normal;font-variant:normal;font-weight:bold;font-stretch:normal;font-size:72.42500305px;font-family:Roboto;-inkscape-font-specification:'Roboto Bold';fill:#eb743b;fill-opacity:1"
       id="path4186" /><path
       d="m 450.47619,101.97629 q -0.70727,-1.37919 -1.02555,-3.430288 -1.556,1.732828 -3.92537,2.935198 -2.33401,1.20236 -5.72893,1.20236 -2.75838,0 -5.16312,-0.84873 -2.36937,-0.84873 -4.13756,-2.36937 -1.73282,-1.520642 -2.72301,-3.607105 -0.99018,-2.121826 -0.99018,-4.632654 0,-3.00592 1.09627,-5.339929 1.13165,-2.334009 3.35956,-3.960742 2.22792,-1.626734 5.51675,-2.475464 3.3242,-0.848731 7.7093,-0.848731 l 4.56193,0 0,-2.192554 q 0,-2.652282 -1.37919,-4.243652 -1.34382,-1.59137 -4.27901,-1.59137 -2.58156,0 -4.06684,1.237732 -1.44991,1.237732 -1.44991,3.394922 l -10.22013,0 q 0,-2.475464 1.13164,-4.703381 1.167,-2.227918 3.28883,-3.890015 2.12183,-1.662097 5.12775,-2.616919 3.00592,-0.990186 6.71911,-0.990186 3.3242,0 6.1533,0.848731 2.8291,0.84873 4.8802,2.546191 2.0511,1.662097 3.18274,4.208289 1.167,2.510828 1.167,5.870386 l 0,16.196607 q 0,1.626734 0.10609,2.935193 0.1061,1.273096 0.28291,2.334009 0.17682,1.025549 0.45973,1.87428 0.28291,0.813362 0.67192,1.556002 l 0,0.60119 -10.32623,0 z m -8.45194,-7.10812 q 1.30846,0 2.40474,-0.318274 1.13164,-0.318274 2.01573,-0.813367 0.8841,-0.530456 1.52065,-1.202368 0.67191,-0.671912 1.06091,-1.379187 l 0,-6.577662 -4.20829,0 q -2.01573,0 -3.50101,0.45973 -1.48528,0.424365 -2.4401,1.237732 -0.95482,0.778002 -1.41455,1.874279 -0.45973,1.060914 -0.45973,2.334009 0,1.909644 1.34382,3.147376 1.34382,1.237732 3.67783,1.237732 z"
       style="font-style:normal;font-variant:normal;font-weight:bold;font-stretch:normal;font-size:72.42500305px;font-family:Roboto;-inkscape-font-specification:'Roboto Bold';fill:#eb743b;fill-opacity:1"
       id="path4188" /><path
       d="m 477.98921,101.97629 -10.2555,0 0,-38.263602 10.2555,0 0,38.263602 z M 467.13253,53.810832 q 0,-2.298645 1.52064,-3.783924 1.55601,-1.485278 4.20829,-1.485278 1.30846,0 2.36937,0.389001 1.06092,0.389002 1.80355,1.096277 0.74264,0.707276 1.13165,1.697461 0.42436,0.954822 0.42436,2.086463 0,1.167004 -0.42436,2.15719 -0.38901,0.954822 -1.13165,1.662097 -0.74263,0.707275 -1.80355,1.096277 -1.06091,0.389001 -2.36937,0.389001 -1.30846,0 -2.36937,-0.389001 -1.06092,-0.389002 -1.80356,-1.096277 -0.74263,-0.707275 -1.167,-1.662097 -0.389,-0.990186 -0.389,-2.15719 z"
       style="font-style:normal;font-variant:normal;font-weight:bold;font-stretch:normal;font-size:72.42500305px;font-family:Roboto;-inkscape-font-specification:'Roboto Bold';fill:#eb743b;fill-opacity:1"
       id="path4190" /><path
       d="m 495.84792,63.712688 0.31827,4.420471 q 1.98037,-2.475464 4.77411,-3.783924 2.79374,-1.343823 6.22403,-1.343823 2.72301,0 4.95092,0.778003 2.22792,0.742639 3.81929,2.475464 1.59137,1.732825 2.4401,4.526563 0.8841,2.793738 0.8841,6.860571 l 0,24.330277 -10.22013,0 0,-24.401004 q 0,-1.838916 -0.42437,-3.041284 -0.389,-1.202369 -1.167,-1.909644 -0.77801,-0.707276 -1.90965,-0.990186 -1.13164,-0.318274 -2.61692,-0.318274 -2.26328,0 -3.89001,0.990186 -1.59137,0.990186 -2.58156,2.687647 l 0,26.982559 -10.22013,0 0,-38.263602 9.61895,0 z"
       style="font-style:normal;font-variant:normal;font-weight:bold;font-stretch:normal;font-size:72.42500305px;font-family:Roboto;-inkscape-font-specification:'Roboto Bold';fill:#eb743b;fill-opacity:1"
       id="path4192" /><path
       d="m 538.63807,93.736529 18.70744,0 0,8.239761 -31.75667,0 0,-6.224026 18.00016,-23.764454 -17.4697,0 0,-8.275122 30.66039,0 0,6.047204 -18.14162,23.976637 z"
       style="font-style:normal;font-variant:normal;font-weight:bold;font-stretch:normal;font-size:72.42500305px;font-family:Roboto;-inkscape-font-specification:'Roboto Bold';fill:#eb743b;fill-opacity:1"
       id="path4194" /></g></svg>